<?xml version="1.0" encoding="utf-8"?>
<!-- Generator: Adobe Illustrator 27.1.1, SVG Export Plug-In . SVG Version: 6.00 Build 0)  -->
<svg version="1.1" id="Layer_1" xmlns="http://www.w3.org/2000/svg" xmlns:xlink="http://www.w3.org/1999/xlink" x="0px" y="0px"
	 viewBox="0 0 700 700" style="enable-background:new 0 0 700 700;" xml:space="preserve">
<style type="text/css">
	.st0{fill:#FFFFFF;}
</style>
<g>
	<path class="st0" d="M317.3,30.3C284.1,34.7,256.8,46,235.7,64c-4.3,3.5-9.1,6.6-14,8.7c-44.7,19-85.9,61.6-106.8,110.4
		c-5.8,13.4-8.9,23.1-11.9,37.9c-3.2,15.3-3.5,38-0.8,50.5c1.5,7.2,1.6,9.1,0.6,19.8c-5.1,51.6,13.2,109.4,48.3,152.7
		c18.5,22.8,43.3,41.1,65.9,48.3c4.3,1.4,8.9,3.7,11.2,5.6c17.5,14.1,44.2,26.8,71,33.7c17.3,4.4,29.3,6.1,48.2,6.7
		c33.9,1.1,62.1-4.3,88.6-17c11.5-5.6,20.3-11.4,27.7-18.4c2.9-2.8,7.1-5.4,10.7-6.9c41.9-16.9,81.3-54.6,103.9-99.2
		c18.7-36.9,25.3-75.5,17.8-104.6c-0.9-3.6-1-6.3-0.5-9.3c0.5-2.3,1.2-10.1,1.5-17.3c2.5-53.3-20.5-113.5-58.8-153.4
		c-17.2-17.8-37.9-31.5-56.8-37.3c-4.2-1.2-8.2-3.5-13-7.2c-22.2-17.2-52.8-29.7-88.2-35.9C365.8,29,332,28.4,317.3,30.3L317.3,30.3
		z M371.2,37.8c30.4,4,61.7,14.8,82.9,28.8l6.5,4.3h-5.1c-11.5,0.1-25.7,3.8-35.3,9.5c-8.1,4.7-22.2,19.4-27.2,28.2
		c-5.7,10.1-10.2,22.3-13,35.6c-4.2,20-3.3,52.7,2.3,74.9c0.8,3.2,1.2,6.2,0.8,6.4c-1.7,1.7-53.4-3.7-55.4-5.8
		c-0.2-0.2,1.8-5.8,4.4-12.3c5.2-13.4,8.6-25.9,10.9-40.4c2.1-13.1,1.4-36.5-1.4-46.6c-8.8-32.4-30-52.3-60.9-57.1
		c-6.6-1-24.7-0.7-31.2,0.7c-2.5,0.5-2.4,0.3,1.9-2.9c6.4-4.8,23.4-12.9,33.9-16.3c9.3-3,23-6,33.4-7.4
		C329.8,36,359.1,36.3,371.2,37.8L371.2,37.8z M289.3,72.8c9.9,2.8,17.2,7,24.6,14c11.7,10.9,19.2,25.9,22,43.3
		c3.1,19.3-0.2,46.4-8.3,68.6c-4.7,12.8-7.7,18.8-9.4,18.8c-2.9,0-22.8-7.3-32.8-11.9c-12-5.6-20.6-10.8-30.2-18.4
		C215,155.7,205.2,115,230,81.5c3.7-5.1,4.9-6,9.1-7.2C255.5,69.5,276,69,289.3,72.8L289.3,72.8z M472.5,80.9
		c3.5,2.1,13.9,13.8,18.9,21.6c12,18,15.3,38.7,9.3,57.6c-10.6,33.6-51.3,59-103.3,64.4l-6.3,0.7l-2-8.2c-7.2-30.9-6-65,3.1-89.1
		c4.9-13.1,10.4-21.8,19.2-30.8C425,83.4,438.9,78.1,459,78.8C467.1,79,470.2,79.6,472.5,80.9L472.5,80.9z M217.1,87.8
		c-5.9,11-7.6,18.4-7.6,32.6c0,14.5,1.6,21,8.1,34.1c14.1,28.2,46.9,53.4,86.6,66.5c5.9,2,10.9,3.6,11.1,3.8
		c0.8,0.5-3.1,7.5-9.7,17.5c-6.8,10.3-21.4,28.5-22.7,28.5c-0.4-0.1-3.2-3.5-6.3-7.7c-11.7-15.8-31-33.5-46.5-42.6
		c-18.4-10.7-31-14.6-48.7-14.6c-21.6-0.1-36.7,5.9-51,20.3c-8.5,8.4-16.9,21.9-20.4,32.9c-1.2,3.5-1.3,3.6-2,1.4
		c-1.1-4.1-0.8-19.7,0.6-29.9c7.4-51.6,42-104.8,88.9-136.4c6.8-4.6,21.8-13.1,22.3-12.5C220.1,81.7,218.8,84.5,217.1,87.8
		L217.1,87.8z M497.5,89.7c53.4,29,93.7,103.6,92.2,170.7l-0.3,12.6l-3.6-5.6c-7.5-11.5-19.6-22.1-31.1-27.2
		c-17.9-7.9-43.9-8.1-67.5-0.4c-21.3,7-42.8,19.9-63.3,38.1c-8.1,7.2-6.7,8-15.9-10.1c-8.1-16.1-15-34.3-13.3-35.4
		c0.7-0.5,4.2-1,7.8-1.4c32.1-3,67-18.2,86.1-37.6c14.3-14.6,22.8-34.1,22.8-52.5c0-16.2-7.5-35.5-19.2-50c-2.2-2.8-3.6-5-3-5
		S493.6,87.6,497.5,89.7L497.5,89.7z M195.5,214.6c21,4.3,40.3,15.7,59.7,35.1c8.2,8.2,20.3,23,21.7,26.3c0.8,2.1-16.6,17.2-31,26.7
		c-24.5,16.1-48.6,23.7-72.8,22.9c-13.3-0.6-22.3-2.9-32-8.4c-11.2-6.3-22.6-20-27.3-32.5l-2.1-5.8l2.1-7.6
		c4.9-17.2,11.5-28.9,22.4-39.9c6.4-6.5,9.4-8.8,15.9-11.9C165.8,212.9,179.8,211.3,195.5,214.6L195.5,214.6z M333.3,228.6
		c12.6,2.6,24.6,3.8,39.5,4.1l13.1,0.2l3.4,9.8c4.8,13.3,10.7,26.7,17.1,37.7l5.3,9.2l-2.6,3c-12,14.5-15.5,18.9-22,28.8
		c-4.2,6.3-8.4,13.1-9.3,15.3c-1.6,3.5-2.1,3.9-4,3.5c-12.1-3.1-44.7-6.6-55.3-6l-5.1,0.3l-3.8-10.7c-4.9-14-10.2-25.6-16.7-36.9
		c-3.5-6-5-9.6-4.6-10.4c0.5-0.6,3.9-4.6,7.7-8.9c6.9-7.9,21.1-28.4,25.4-36.6c1.3-2.4,2.6-4.4,2.9-4.4
		C324.3,226.8,328.5,227.6,333.3,228.6L333.3,228.6z M541,243.6c20,5,35.7,18.7,43.4,37.7l2.9,7l-2.4,8.6
		c-8,27.9-24.6,47.4-46.6,54.6c-6.7,2.2-9.1,2.5-19.8,2.5c-9.3,0-13.8-0.5-19.3-2c-19.3-5.2-37.4-16.4-55-33.8
		c-9.1-9.1-22.3-25.4-22.3-27.5c0-1.8,14.6-14.4,25.9-22.5c16.8-11.9,38.3-21.6,55.7-25C513.8,241.2,532.1,241.4,541,243.6
		L541,243.6z M287.3,292.3c2.6,4.8,6.1,11.6,7.7,15.2c3.4,7.6,10.4,26.7,9.9,27.2c-0.2,0.2-4.9,0.9-10.4,1.8
		c-55,7.7-93.7,34.1-104.4,71.1c-1.8,5.9-2.1,9.5-2.1,19.4c0,11.2,0.2,12.8,3,21c3.7,10.6,8.1,18.9,14.4,26.9
		c2.5,3.3,4.4,6.2,4.1,6.4c-0.7,0.7-14.4-6.9-22.3-12.6c-39.9-28.7-70.5-83.7-77.2-139.2c-0.5-4.3-0.9-14.1-0.9-21.7v-13.9l4.7,7
		c5.4,8.1,15.2,17.6,23,22.4c3.1,1.9,9.6,4.8,14.5,6.4c8.7,3.1,8.9,3.1,25.6,3c15,0,17.7-0.3,25.9-2.4c24.8-6.7,48.7-20.1,70.7-39.5
		c4.3-3.8,8.1-7,8.5-7C282.2,283.7,284.7,287.7,287.3,292.3L287.3,292.3z M422.3,304.5c7.4,10,24,26.7,34.4,34.4
		c21.1,15.8,46.1,24.4,66.3,22.8c29.5-2.2,53.2-21,65-51.1l2.6-6.7l0.7,7.5c2.1,22.5-6.2,56.8-20.3,83.4
		c-18.5,34.9-49.2,67.5-80.6,85.2c-5.1,3-9.8,5.3-10.4,5.3c-0.7,0-0.1-1.8,1.1-3.9c1.2-2.2,3.6-8,5.2-12.9c2.9-8.2,3.1-9.8,3.1-21
		c0.1-14.2-1.7-21.8-7.9-34.3c-6.4-12.8-18.9-27.5-32.1-38.2c-14.5-11.6-41-24.9-60.7-30.7c-3.2-0.9-5.5-2.1-5.3-2.7
		c1.4-6.1,29.8-45.1,32.7-44.9C416.5,296.9,419.3,300.3,422.3,304.5L422.3,304.5z M340.1,342.6c10.6,0.9,30.1,4,31.1,4.9
		c0.2,0.2-1.5,5.1-3.8,11c-23.2,58.4-14.7,111.2,21.7,134.7c16,10.2,36.3,13.7,59.4,10.3l3.7-0.7l-6.5,4.4
		c-13.5,9.1-33.2,16.7-53.7,20.7c-16.1,3.2-45.6,3.9-62.5,1.8c-31.8-4.2-63-14.8-84.3-28.7l-6.4-4.2l8.3-0.6
		c34.2-2.5,59.5-25.9,69.7-64.4c3.7-14.1,4.7-21.7,4.7-38.5c0-16.4-1.1-27.6-4.2-42c-0.9-4.6-1.8-8.7-1.8-9.1
		C315.5,341.3,326.9,341.4,340.1,342.6L340.1,342.6z M309.2,348.8c3.7,15.6,4.8,24.8,4.8,43.7c0,15.8-0.3,20.2-2.1,28.3
		c-7.5,34.4-24.1,56.7-48.7,65.1c-7.1,2.4-9.1,2.7-20.1,2.7c-15.6,0-16.8-0.6-26.3-11.5c-28.2-32.3-29-68.3-2.4-96.3
		c8.9-9.3,21.6-18.3,33-23.5c15.7-7.2,42.1-13.9,56.9-14.6l3.4-0.1L309.2,348.8L309.2,348.8z M387.2,351.5
		c12.6,3.6,30.6,11.7,42.9,19.1c14.7,9,31.2,24.2,38.8,35.8c5.3,7.9,10.7,20.3,12.4,27.8c2,9.4,1.2,23.2-1.9,32
		c-3.1,8.8-4.7,11.9-10.3,19.2c-4.6,6.1-4.8,6.3-11.8,8.1c-29.8,7.8-55.2,3.3-72.4-13.2c-14-13.2-20.4-27.5-23-50.9
		c-2.2-20.6,3.3-48.9,14.6-74.3C379.2,349.3,379.4,349.2,387.2,351.5L387.2,351.5z"/>
</g>
</svg>
