<?xml version="1.0" encoding="utf-8"?>
<!-- Generator: Adobe Illustrator 27.1.1, SVG Export Plug-In . SVG Version: 6.00 Build 0)  -->
<svg version="1.1" id="Layer_1" xmlns="http://www.w3.org/2000/svg" xmlns:xlink="http://www.w3.org/1999/xlink" x="0px" y="0px"
	 viewBox="0 0 700 700" style="enable-background:new 0 0 700 700;" xml:space="preserve">
<style type="text/css">
	.st0{fill:#FFFFFF;}
</style>
<g>
	<path class="st0" d="M261.8,35.1c-21,4.7-36.3,19.7-42.1,41.4c-2.4,9.1-2.2,24.2,0.4,30.8c2.3,6,9.5,18.8,16.5,29.4
		c9.5,14.3,26.2,28.6,43.9,37.2c13.7,6.8,23.8,9.3,37.8,9.3c9.9,0.1,11.2-0.1,16.6-2.6c6.2-2.8,10.9-7.4,11.9-11.3
		c1.8-7-3.5-14.5-10.2-14.5c-3.4,0-4.4,0.6-8.6,4.9c-3.3,3.4-5.7,7.1-7.7,11.9l-2.9,6.9l-4.6-0.3c-25.3-1.4-56.3-20.4-72.2-44.5
		c-6.4-9.6-13.7-22.6-15.9-28.4c-1.7-4.4-1.9-6.6-1.5-15.4c0.7-15.9,4.9-26.2,15.1-36.5c7.6-7.7,14.7-11.5,26-13.9
		c17.5-3.8,39.4,2.7,64.4,19.2c26,17.2,46.8,44.8,61,81.1c6.6,16.9,7.7,21.5,7.7,33.1c0,17.5-3,27-10.9,34.7
		c-3.8,3.7-4.2,4.3-2.9,5.6c2,1.9,4.1,0.7,9-4.9c6.7-7.6,11.3-25.7,10-39.9c-2.6-30.6-30.5-81.1-57.2-103.7
		c-13.3-11.2-38-24.9-51.5-28.6C284.5,33.8,270.2,33.2,261.8,35.1L261.8,35.1z M340.6,162c2.5,3.2,2.4,4.9-0.2,8.9
		c-2.3,3.5-11.2,7.7-15.2,7.2l-2.2-0.3l2.4-5.1c1.3-2.8,3.8-6.8,5.6-9.1C334.9,158.8,337.8,158.4,340.6,162L340.6,162z"/>
	<path class="st0" d="M463.4,63.9c-12.8,2.8-24.3,9-30.7,16.4c-8.6,10-21.7,35.7-24.7,48.4c-4.7,19.3-4.9,40.7-0.6,55.5
		c3.1,10.8,8.7,22.6,13.1,27.3c10.5,11.7,23.5,13.4,28.7,3.8c2.3-4.3,2.1-7.7-0.7-11c-3.9-4.7-12.7-6.3-24.5-4.5l-4.9,0.7l-2.8-6.2
		c-8.1-17.9-9.2-41.3-3.2-65.4c3.4-13.4,17.4-39.7,25.2-47.6c4.5-4.4,15.1-10,23.3-12c8.2-2.1,21-2,28.6,0.5
		c7.9,2.4,16.2,7.9,22.6,15c9.2,10.1,14,23.1,15.8,43c3.6,40.7-10.3,80.2-41.9,118.9c-4.7,5.7-10.5,12-12.9,14.1
		c-5.3,4.6-16.5,10.6-24.5,13.3c-7.3,2.4-17.7,2.6-22.4,0.5c-3.5-1.7-5.7-0.8-4.7,1.9c1.8,4.5,14.4,6,25.9,3.1
		c9.5-2.4,22.4-9.4,29.5-15.9c19.7-18.1,39.9-49.7,48.8-76.7c6.3-18.8,7.1-24.4,7.1-47.1c-0.1-22.7-1.4-30.4-7.4-43.5
		C514.4,71.4,489.1,58.2,463.4,63.9L463.4,63.9z M444.5,207.2c3.3,4-0.2,9.3-6,9.3c-4.7,0-6.7-1-12.2-6.4c-4.3-4.1-4.4-4.3-2.3-4.9
		c1.2-0.4,5.9-0.6,10.5-0.4C441.8,205,442.9,205.2,444.5,207.2L444.5,207.2z"/>
	<path class="st0" d="M196,167.2c-25.6,3.3-45.9,10.8-67.4,25c-11.4,7.6-24,20.2-28.5,28.6c-10.5,19.8-9.6,42.5,2.1,58.9
		c8.8,12.2,23.2,22.5,34.9,24.6c6.4,1.2,28.1,1.2,38.5,0c11.8-1.3,23.1-4.9,36.8-11.7c14.5-7.1,24.5-14.8,33-25.4
		c7.5-9.3,11-16.3,12.4-24.5c1.9-11.1-2.2-19.2-10.4-20.3c-7-0.9-12.2,3.3-12.2,9.8c0.1,3.9,4.1,12.8,8.4,18.4l4,5.1l-2.6,4
		c-4.4,6.7-18.2,19.4-26.2,24.2c-8.7,5.1-20.6,10.2-30.3,12.9c-14.2,3.9-45.5,4.8-55,1.5c-14.5-4.9-29.2-20.3-33.7-35.4
		c-2.6-8.4-2.1-22.5,0.9-31.4c6-17.2,23.2-33.1,49.4-45.9c12-5.9,17-7.6,30.3-10.5c21.8-4.9,45-5.4,70.2-1.5
		c16.7,2.6,22.2,4.1,30.2,8.5c16.1,8.7,27.2,21.3,27.2,30.9c0,2.3,0.4,2.7,2.1,2.4c1.8-0.3,2.1-0.8,2-4.5c0-5.9-3.5-12.2-10.6-19.6
		c-13.8-14.3-28.1-20.1-58.3-23.8C231.3,166,206.1,165.8,196,167.2L196,167.2z M251.3,229.9c2.4,3.1,2.9,7.3,1.7,13.1
		c-1.8,7.6-2.4,8.2-5.2,4.9c-3.2-3.8-6.6-10.5-7.4-14.7c-0.6-2.8-0.3-3.5,1.6-4.9C244.6,226.2,249.1,227,251.3,229.9L251.3,229.9z"
		/>
	<path class="st0" d="M522.1,251.1c-21.7,2.3-48.8,15.7-63.9,31.5c-12.7,13.3-17.7,23.3-17.9,35.2c-0.1,6.7,1.8,11,6.2,13.6
		c5.1,3.2,13.2,1.7,15.6-2.7c2.6-5-0.3-15-7-23.5l-4.3-5.5l3-4.4c8.3-12,22.2-22.9,38.7-30.1c14.6-6.4,22.4-8.4,38.4-9.5
		c20.3-1.5,31.5-0.3,40.6,4.5c18.2,9.5,31.2,31.5,29.2,49.4c-1.7,15.7-6.2,24.9-17.6,36.4c-4.7,4.8-11.9,10.7-16,13.4
		c-9.1,6-27.6,15.1-35.9,17.8c-13.8,4.4-34.9,7.5-51.5,7.5c-18.2,0-46-4.2-56.5-8.6c-16.6-6.9-31.5-21.7-32.4-32.3
		c-0.3-2.9-0.7-3.5-2.5-3.5c-1.9,0-2.3,0.6-2.5,3.2c-0.7,7.6,10.5,22.4,23.4,30.8c14.7,9.7,39.9,15,71.1,15
		c32.9-0.1,58.1-6.8,84-22.4c12.5-7.7,19.9-13.6,26.6-21.7c14-16.7,18.5-38.6,11.9-57c-6.3-17.3-25.5-34.3-41.7-36.9
		C554.2,250,532.3,250,522.1,251.1L522.1,251.1z M451.7,308.9c3.1,3.9,6.5,11.8,6.5,14.9c0,2.1-3.3,4.7-5.9,4.7
		c-0.9,0-3-1.2-4.5-2.7c-2.2-2.3-2.7-3.5-2.7-7.6c0-5.3,1.7-13.1,2.8-13.1C448.5,305.2,450.2,306.9,451.7,308.9L451.7,308.9z"/>
	<path class="st0" d="M255.8,274.5c-14.1,2.3-27.7,9.7-38.8,20.8c-8,8-20.6,24.5-27.8,36c-10.1,16.4-19.6,40.6-22.5,57.1
		c-3.4,18.9-2.7,43.8,1.4,58.6c3.5,12.6,7.7,20,16.6,28.9c14.7,14.7,30,19.4,50.3,15.4c9.1-1.9,23.3-8.7,28.3-13.6
		c8.5-8.5,23.4-36.1,26.8-49.5c3-11.9,4.2-24.8,3.6-38.1c-1.1-28.9-15.3-54-31.9-56.6c-7.1-1-14,4.7-14,11.7
		c0,8.6,10.6,12.5,27.2,10l4.8-0.7l2,4.5c8.5,19.7,9.8,42.8,3.8,66.9c-3.5,13.9-17.1,39.1-25.6,47.6c-8.4,8.4-22.6,13.6-37,13.7
		c-24.3,0.1-43.1-15.9-50.5-42.7c-1.9-6.7-2.1-9.7-2.1-29.4c0-23.9,0.3-26.1,5.8-43.4c6.9-21.6,17.9-41.3,35.5-63.1
		c12.5-15.5,20.3-21.4,35.7-27c8.9-3.3,19.1-3.8,23.8-1.4c3.3,1.7,5.2,1.2,5.2-1.3C276.3,275.4,265.3,272.9,255.8,274.5L255.8,274.5
		z M268.1,341.5c2.3,1.5,5.1,3.9,6.2,5.5l2.1,2.8l-2.1,0.6c-3.9,1-14.7,0.6-17.9-0.7c-2.7-1.2-3.3-1.9-3.3-4.2
		C252.9,338.6,260.5,336.7,268.1,341.5L268.1,341.5z"/>
	<path class="st0" d="M309.8,342.8c-4.4,3-7.9,8.4-10.8,16.5c-3.5,10-4.1,28.1-1.4,38.8c6.1,23.9,21.1,53.7,37.2,73.4
		c7.9,9.7,21.4,22.1,31.1,28.6c33,22,59.8,27,83.9,15.6c5.4-2.6,8.7-5,14.7-11.1c6.7-6.8,7.9-8.6,10.6-15.5
		c6.5-17.1,7.4-31.6,2.3-42.9c-3.5-7.9-14.3-25.9-20.2-33.8c-12.1-16.2-38.1-33.2-58.2-38.2c-12-3-26.9-3-34.3,0
		c-13.1,5.1-17.2,14.7-9.8,23c6.7,7.7,16.8,1.9,23.2-13.4c2.4-5.9,2.7-6.2,6-6.4c5.2-0.5,17.6,2.3,26.4,5.9
		c16.7,6.8,36.6,22.8,46.6,37.6c6.9,10.2,13.6,21.8,16.2,28.4c2.4,5.9,2.9,18.8,0.9,26.9c-3.6,15.4-13.5,28.6-26.1,34.8
		c-13.7,6.9-26.9,7.8-43.3,3c-14.8-4.3-39.1-18.2-51.5-29.5c-11.5-10.5-26-30-34.9-46.8c-5.5-10.4-14.5-32.8-16.4-41.1
		c-2.8-12-1.1-31.3,3.6-40.7c2.3-4.6,7.4-10.5,9.1-10.5c1.4,0,0.9-3.5-0.5-4C313.4,341,311.4,341.7,309.8,342.8L309.8,342.8z
		 M375.2,377.5c0,2-5.1,11.3-8,14.4c-2.6,3-4,3.8-5.9,3.6c-2.8-0.3-5.8-5.3-5-8.3c0.8-3.1,5.4-6.9,10.2-8.6
		C370.9,377.3,375.2,376.6,375.2,377.5L375.2,377.5z"/>
</g>
</svg>
