<?xml version="1.0" encoding="utf-8"?>
<!-- Generator: Adobe Illustrator 27.2.0, SVG Export Plug-In . SVG Version: 6.00 Build 0)  -->
<svg version="1.1" id="Layer_1" xmlns="http://www.w3.org/2000/svg" xmlns:xlink="http://www.w3.org/1999/xlink" x="0px" y="0px"
	 viewBox="0 0 30 30" style="enable-background:new 0 0 30 30;" xml:space="preserve">
<style type="text/css">
	.st0{fill:#FFFFFF;}
</style>
<path class="st0" d="M8.5,27H3.7V11.3h4.9V27z M6,9.1c-1.6,0-2.8-1.3-2.8-2.8S4.5,3.4,6,3.4c1.6,0,2.8,1.3,2.8,2.8
	C8.9,7.8,7.6,9.1,6,9.1z M26.8,27h-4.9v-7.6c0-1.8,0-4.2-2.5-4.2c-2.5,0-2.9,2-2.9,4V27h-4.9V11.3h4.7v2.1h0.1
	c0.7-1.2,2.2-2.5,4.6-2.5c4.9,0,5.8,3.2,5.8,7.5C26.8,18.4,26.8,27,26.8,27z"/>
</svg>
