<?xml version="1.0" encoding="utf-8"?>
<!-- Generator: Adobe Illustrator 27.3.1, SVG Export Plug-In . SVG Version: 6.00 Build 0)  -->
<svg version="1.1" id="Layer_1" xmlns="http://www.w3.org/2000/svg" xmlns:xlink="http://www.w3.org/1999/xlink" x="0px" y="0px"
	 viewBox="0 0 100 100" style="enable-background:new 0 0 100 100;" xml:space="preserve">
<style type="text/css">
	.st0{fill:#FFFFFF;}
</style>
<g>
	<path class="st0" d="M89,16H11.5c-1,0-1.9,0.9-1.9,1.9c0,1,0.9,1.9,1.9,1.9H89c1,0,1.9-0.9,1.9-1.9C90.9,16.9,90,16,89,16z"/>
	<path class="st0" d="M11.5,51.8h40.4c1,0,1.9-0.9,1.9-1.9c0-1-0.9-1.9-1.9-1.9H11.5c-1,0-1.9,0.9-1.9,1.9
		C9.6,51,10.5,51.8,11.5,51.8z"/>
	<path class="st0" d="M76.6,80.3H11.5c-1,0-1.9,0.9-1.9,1.9c0,1,0.9,1.9,1.9,1.9h65.2c1,0,1.9-0.9,1.9-1.9
		C78.5,81.1,77.6,80.3,76.6,80.3z"/>
</g>
</svg>
