<?xml version="1.0" encoding="utf-8"?>
<!-- Generator: Adobe Illustrator 27.3.1, SVG Export Plug-In . SVG Version: 6.00 Build 0)  -->
<svg version="1.1" id="Layer_1" xmlns="http://www.w3.org/2000/svg" xmlns:xlink="http://www.w3.org/1999/xlink" x="0px" y="0px"
	 viewBox="0 0 700 700" style="enable-background:new 0 0 700 700;" xml:space="preserve">
<style type="text/css">
	.st0{fill:#FFFFFF;}
</style>
<g>
	<path class="st0" d="M382.9,350h-77.5c-1,0-1.9,0.9-1.9,1.9c0,1,0.9,1.9,1.9,1.9h77.5c1,0,1.9-0.9,1.9-1.9
		C384.7,350.9,383.8,350,382.9,350z"/>
	<path class="st0" d="M305.3,385.9h40.4c1,0,1.9-0.9,1.9-1.9c0-1-0.9-1.9-1.9-1.9h-40.4c-1,0-1.9,0.9-1.9,1.9
		C303.5,385,304.3,385.9,305.3,385.9z"/>
	<path class="st0" d="M370.5,414.3h-65.2c-1,0-1.9,0.9-1.9,1.9c0,1,0.9,1.9,1.9,1.9h65.2c1,0,1.9-0.9,1.9-1.9
		S371.5,414.3,370.5,414.3z"/>
</g>
</svg>
