<?xml version="1.0" encoding="utf-8"?>
<!-- Generator: Adobe Illustrator 27.0.0, SVG Export Plug-In . SVG Version: 6.00 Build 0)  -->
<svg version="1.1" id="Layer_1" xmlns="http://www.w3.org/2000/svg" xmlns:xlink="http://www.w3.org/1999/xlink" x="0px" y="0px"
	 viewBox="0 0 700 700" style="enable-background:new 0 0 700 700;" xml:space="preserve">
<g>
	<path d="M522.8,685.5l-95.3-82.4c-22.8,16.6-52.8,34.9-73.6,35c-21.3,0-52.1-18.6-75.5-35.2L183,685.5l-6.8-47.8
		c-1.4-10.1-13.7-100.3,1.2-143.1c3.5-10,12.1-27.7,46.7-67.4c-1.1-33.2-1.1-63.8-1.1-84.3c0-166.1,65-328.4,131.2-328.4
		c63.7,0,128.7,165.3,128.7,327.6l-1.9,84.2c35.2,40.3,44,58.2,47.5,68.3c14.9,42.8,2.6,132.9,1.2,143.1L522.8,685.5z M300.5,553.6
		c21.1,15.7,44.7,29.8,53.2,31.7c7.4-1.7,26.1-12.9,44.4-26.1l9.5-33.2l74.5,54.8c1.5-27.2,1.2-54.9-3.6-68.8
		c-0.9-2.5-7.1-17.1-44-58.3l-6.9-7.8l2.4-104.3c0-151.5-54.2-257.5-76.4-273.3c-22.1,14.5-78,121.5-78,273.9
		c0,21.6,0,53.2,1.2,86.3l1,17.6l-7.3,8.1c-36.4,40.8-42.6,55.3-43.4,57.7c-4.9,13.9-5.2,41.7-3.6,68.8l67.6-58.5L300.5,553.6z"/>
</g>
</svg>
