<?xml version="1.0" encoding="utf-8"?>
<!-- Generator: Adobe Illustrator 27.2.0, SVG Export Plug-In . SVG Version: 6.00 Build 0)  -->
<svg version="1.1" id="Layer_1" xmlns="http://www.w3.org/2000/svg" xmlns:xlink="http://www.w3.org/1999/xlink" x="0px" y="0px"
	 viewBox="0 0 32 32" style="enable-background:new 0 0 32 32;" xml:space="preserve">
<style type="text/css">
	.st0{fill:#FFFFFF;}
</style>
<path class="st0" d="M16,30C8.3,30,2,23.7,2,16S8.3,2,16,2s14,6.3,14,14S23.7,30,16,30z M16,4C9.4,4,4,9.4,4,16s5.4,12,12,12
	s12-5.4,12-12S22.6,4,16,4z"/>
<path class="st0" d="M16,30c-0.6,0-1-0.4-1-1V3c0-0.6,0.4-1,1-1c0.6,0,1,0.4,1,1v26C17,29.6,16.6,30,16,30z"/>
<path class="st0" d="M23,17c-0.6,0-1-0.4-1-1c0-6.5-2.8-12-6-12c-0.6,0-1-0.4-1-1s0.4-1,1-1c4.5,0,8,6.1,8,14C24,16.6,23.6,17,23,17
	z"/>
<path class="st0" d="M16,30c-0.6,0-1-0.4-1-1s0.4-1,1-1c3.2,0,6-5.5,6-12c0-0.6,0.4-1,1-1s1,0.4,1,1C24,23.9,20.5,30,16,30z"/>
<path class="st0" d="M9,17c-0.6,0-1-0.4-1-1c0-7.9,3.5-14,8-14c0.6,0,1,0.4,1,1s-0.4,1-1,1c-3.2,0-6,5.5-6,12C10,16.6,9.6,17,9,17z"
	/>
<path class="st0" d="M16,30c-4.5,0-8-6.1-8-14c0-0.6,0.4-1,1-1s1,0.4,1,1c0,6.5,2.8,12,6,12c0.6,0,1,0.4,1,1S16.6,30,16,30z"/>
<path class="st0" d="M29,17H3c-0.6,0-1-0.4-1-1c0-0.6,0.4-1,1-1h26c0.6,0,1,0.4,1,1C30,16.6,29.6,17,29,17z"/>
<path class="st0" d="M27,11H5c-0.6,0-1-0.4-1-1s0.4-1,1-1h22c0.6,0,1,0.4,1,1S27.6,11,27,11z"/>
<path class="st0" d="M27,23H5c-0.6,0-1-0.4-1-1s0.4-1,1-1h22c0.6,0,1,0.4,1,1S27.6,23,27,23z"/>
</svg>
