<?xml version="1.0" encoding="utf-8"?>
<!-- Generator: Adobe Illustrator 16.0.0, SVG Export Plug-In . SVG Version: 6.00 Build 0)  -->
<!DOCTYPE svg PUBLIC "-//W3C//DTD SVG 1.1//EN" "http://www.w3.org/Graphics/SVG/1.1/DTD/svg11.dtd">
<svg version="1.1" id="Layer_1" xmlns="http://www.w3.org/2000/svg" xmlns:xlink="http://www.w3.org/1999/xlink" x="0px" y="0px"
	 width="841.89px" height="595.28px" viewBox="0 0 841.89 595.28" enable-background="new 0 0 841.89 595.28" xml:space="preserve">
<path d="M458.914,124.67c-0.784,10.31,1.793,20.28,3.113,30.342c2.352,17.924,2.828,35.975,4.127,53.974
	c0.174,2.406,0.539,4.004,3.204,5.103c21.039,8.683,41.86,17.817,61.792,28.927c12.432,6.932,25.357,12.961,38.619,18.192
	c0.833,0.329,1.658,0.702,2.517,0.962c5.522,1.653,6.94,3.424,6.966,8.837c0.01,4.88-3.521,6.818-7.285,7.98
	c-3.887,1.194-7.864,2.243-11.241,4.448c-15.933,10.365-32.588,19.616-46.374,33.177c-8.318,8.177-18.029,14.919-27.004,22.438
	c-4.366,3.656-8.451,7.648-12.719,11.432c-1.406,1.246-0.859,2.801-0.836,4.218c0.306,16.979,1.369,33.93,2.539,50.872
	c0.31,4.473-3.41,6.434-6.492,8.399c-2.822,1.8-5.795,2.677-9.243,0.603c-11.414-6.864-22.994-13.45-34.48-20.189
	c-2.313-1.359-3.976-1.318-6.379,0.504c-12.696,9.625-23.689,21.351-36.855,30.322c-12.424,8.47-24.577,17.279-35.956,27.087
	c-7.374,6.354-14.16,13.413-21.209,20.153c-0.217,0.214-0.394,0.459-0.613,0.668c-3.459,3.275-8.806,4.954-10.96,3.082
	c-3.818-3.313-1.533-7.092-0.383-10.735c0.952-3.003,2.005-5.991,2.741-9.046c5.023-20.858,11.889-41.336,14.383-62.744
	c1.941-16.711,4.312-33.354,6.561-50.02c0.306-2.262-1.25-2.471-2.42-3.152c-8.563-5.012-17.465-9.354-26.627-13.129
	c-8.921-3.674-17.324-8.273-25.104-13.945c-2.168-1.579-5.233-1.523-6.732-4.207c-2.349-4.197-1.341-8.504,2.683-12.547
	c13.466-13.544,28.154-25.752,42.031-38.845c0.983-0.922,1.934-1.889,2.837-2.888c0.457-0.51,1.359-1.367,0.468-1.829
	c-5.928-3.097-5.685-9.876-8.686-14.71c-2.509-4.05-4.353-8.573-7.232-12.434c-10.276-13.784-17.569-29.333-26.096-44.152
	c-4.698-8.162-9.121-16.583-16.311-23.031c-2.555-2.292-2.76-8.953-0.697-11.85c1.886-2.656,6.663-3.506,10.19-1.583
	c2.271,1.236,4.634,2.103,7.138,2.651c35.733,7.875,71.096,17.196,106.188,27.546c9.114,2.686,9.045,2.722,15.029-4.408
	c13.329-15.876,25.953-32.372,40.563-47.15c0.852-0.859,1.532-1.75,1.985-2.935c1.062-2.782,3.031-4.882,6.152-3.838
	C456.196,118.354,458.582,120.859,458.914,124.67z M291.621,301.854c6.617,5.021,13.464,8.685,20.576,11.917
	c23.216,10.56,45.845,22.354,67.97,34.972c22.521,12.839,43.567,28.172,65.897,41.397c5.637,3.342,11.457,6.174,17.854,8.802
	c0-1.624,0.034-2.671-0.003-3.722c-0.815-24.924-1.646-49.851-2.456-74.774c-0.58-17.892-1.321-35.785-1.631-53.683
	c-0.282-16.15-2.981-32.057-4.109-48.106c-1.786-25.477-2.009-51.092-7.116-76.254c-0.191-0.974,0.444-2.36-0.677-2.839
	c-1.304-0.56-2.142,0.765-3.02,1.501c-7.29,6.157-12.37,14.318-18.929,21.12c-10.214,10.597-17.769,23.385-28.821,33.387
	c-17.697,16.024-34.543,32.999-50.026,51.243c-4.668,5.499-9.218,11.078-14.246,16.265
	C319.815,276.583,304.72,287.901,291.621,301.854z M468.457,229.9c3.799,34.745,2.553,69.715,4.879,105.057
	c28.126-21.647,52.973-46.354,84.462-64.164C527.193,257.162,500.309,238.467,468.457,229.9z M329.624,451.877
	c1.603-0.092,2.086-1.164,2.804-1.871c11.496-11.307,24.36-20.995,37.718-29.799c14.008-9.229,25.968-20.781,38.82-31.324
	c2.714-2.223,2.392-3.501-0.296-5.702c-6.794-5.575-14.825-9.049-22.051-13.863c-11.217-7.47-22.312-15.135-35.08-19.831
	c-0.802,1.752,0.445,3.945-0.953,5.267c-4.432,4.163-4.249,9.8-4.803,15.067c-1.834,17.498-4.509,34.824-8.84,51.893
	C334.406,431.702,332.072,441.747,329.624,451.877z M335.206,243.524c9.047-11.581,18.642-21.708,28.656-31.482
	c6.666-6.498,12.759-13.582,19.795-19.707c2.072-1.8,2.226-2.818-0.768-3.704c-4.445-1.328-8.709-3.293-13.186-4.484
	c-21.146-5.624-42.305-11.184-63.526-16.52c-6.133-1.543-12.107-3.946-18.842-4.613C300.68,191.622,317.767,217.302,335.206,243.524
	z M433.083,220.201c2.177,23.028,4.224,46.685,7.597,70.213c2.15,15.018,2.213,30.275,5.03,45.233
	c1.391,7.372,3.205,14.62,5.294,21.803c1.084,3.735-0.713,6.206-3.511,7.974c-2.928,1.843-6.483,2.765-9.146-0.069
	c-12.673-13.489-28.933-22.354-43.09-33.935c-9.956-8.148-19.419-17.063-30.951-23.121c-7.028-3.688-14.008-7.488-21.545-10.099
	c-5.685-1.973-6.925-7.023-2.255-11.067c15.05-13.058,29.134-27.196,44.764-39.62c8.089-6.437,15.44-13.806,23.145-20.734
	c2.338-2.107,4.703-4.189,7.114-6.209c1.843-1.544,3.547-3.044,4.407-5.5c0.797-2.288,2.628-4.009,4.831-5.164
	c4.6-2.432,8.504-0.089,8.547,5.159C433.324,216.561,433.182,218.062,433.083,220.201z M433.878,343.501
	c-1.157-8.894-2.659-16.831-3.144-24.826c-1.695-28.083-6.227-55.829-9.292-83.744c-0.112-1.009-0.3-2.483-0.948-2.847
	c-1.244-0.692-2.023,0.781-2.832,1.547c-15.286,14.427-31.541,27.708-47.806,40.989c-5.074,4.151-9.65,8.917-14.72,13.652
	c7.569,4.166,14.134,7.474,20.392,11.283c11.826,7.203,21.392,17.396,32.695,25.335C416.655,330.811,424.912,336.98,433.878,343.501
	z M485.809,293.693c0.547,5.551,4.178,7.366,9.127,4.634c3.541-1.963,7.228-3.698,10.615-5.91
	c5.796-3.775,12.162-6.236,18.427-9.006c2.26-0.991,4.283-2.954,3.53-6.126c-0.712-2.995-2.666-4.393-5.601-5.083
	c-7.028-1.655-13.725-4.3-20.31-7.25c-2.253-1.012-3.874-2.266-4.668-4.972c-1.155-3.909-4.523-4.967-8.275-3.247
	c-4.751,2.176-6.469,5.709-5.309,11.018c1.356,6.172,2.256,12.396,1.967,18.75C485.473,288.9,485.568,291.302,485.809,293.693z
	 M381.654,379.152c-4.4-1.1-8.596-2.651-11.797-6.051c-3.026-3.219-6.265-3.047-9.631-0.764c-3.932,2.652-4.607,5.655-3.236,10.094
	c2.248,7.27,4.523,14.471,0.622,22.143c-2.125,4.178,1.227,7.674,5.95,6.912c2.959-0.473,5.086-2.22,7.141-4.274
	c3.753-3.749,6.357-8.401,11.121-11.478c2.95-1.905,4.112-6.595,5.729-9.417C387.401,381.649,384.992,379.978,381.654,379.152z
	 M316.563,193.223c6.535,6.44,12.013,13.635,14.898,22.523c0.48,1.487,1.556,1.996,2.935,2.42c3.296,1.01,5.667-0.816,7.553-2.847
	c4.256-4.595,8.841-8.936,11.861-14.588c2.313-4.321,1.281-7.853-3.464-9.043c-8.245-2.074-15.542-6.236-23.052-9.928
	c-6.628-3.265-11.96-0.098-12.028,8.37C315.25,190.634,315.284,191.964,316.563,193.223z M398.493,270.239
	c-3.29,4.512-7.23,8.393-11.376,12.076c-1.81,1.602-3.354,3.376-4.518,5.54c-1.29,2.385-0.932,4.232,1.128,5.929
	c7.616,6.263,15.221,12.536,22.771,18.877c1.563,1.313,3.254,1.407,5.054,1.096c5.253-0.918,8.087-5.479,7.083-11.009
	c-1.584-8.693-2.694-17.468-2.803-26.292c-0.06-4.534-5.437-10.951-10.589-10.891C402.464,265.773,400.297,267.771,398.493,270.239z
	"/>
</svg>
