<?xml version="1.0" encoding="utf-8"?>
<!-- Generator: Adobe Illustrator 16.0.0, SVG Export Plug-In . SVG Version: 6.00 Build 0)  -->
<!DOCTYPE svg PUBLIC "-//W3C//DTD SVG 1.1//EN" "http://www.w3.org/Graphics/SVG/1.1/DTD/svg11.dtd">
<svg version="1.1" id="Layer_1" xmlns="http://www.w3.org/2000/svg" xmlns:xlink="http://www.w3.org/1999/xlink" x="0px" y="0px"
	 width="841.89px" height="595.28px" viewBox="0 0 841.89 595.28" enable-background="new 0 0 841.89 595.28" xml:space="preserve">
<path fill="#010101" d="M291.418,177.529l-10.039,4.041l2.888-10.422l-6.942-8.297l10.812-0.476l5.741-9.177l3.788,10.138
	l10.503,2.629l-8.475,6.736l0.752,10.804L291.418,177.529z M519.423,207.06l-14.759-70.997l50.104-52.401l-72.076-7.897
	l-34.353-63.865l-29.786,66.118l-71.354,12.944l53.673,48.754l-9.738,71.854l62.954-35.974L519.423,207.06z M338.84,582.092
	c10.135-28.274,19.057-56.873,27.622-85.563c8.521-28.703,16.563-57.531,24.189-86.459c7.642-28.933,14.855-57.98,21.597-87.146
	c6.699-29.184,13.027-58.466,18.131-88.054c-10.137,28.259-19.068,56.857-27.64,85.542c-8.512,28.709-16.548,57.529-24.171,86.467
	c-7.615,28.941-14.829,57.986-21.575,87.156C350.299,523.211,343.965,552.493,338.84,582.092z M457.858,489.623
	c10.127-28.275,19.051-56.863,27.619-85.553c8.514-28.703,16.55-57.529,24.196-86.462c7.637-28.936,14.846-57.98,21.597-87.147
	c6.691-29.184,13.015-58.461,18.122-88.064c-10.146,28.274-19.066,56.867-27.631,85.558c-8.514,28.7-16.56,57.528-24.176,86.467
	c-7.618,28.936-14.831,57.98-21.583,87.147C469.314,430.752,462.982,460.029,457.858,489.623z M266.252,430.522
	c9.201-24.769,17.203-49.853,24.84-75.034c7.586-25.191,14.703-50.508,21.418-75.93c6.707-25.426,13.008-50.965,18.819-76.624
	c5.77-25.672,11.174-51.442,15.356-77.524c-9.222,24.758-17.229,49.838-24.86,75.023c-7.589,25.191-14.712,50.509-21.403,75.935
	c-6.693,25.433-12.988,50.96-18.805,76.627C275.854,378.662,270.453,404.436,266.252,430.522z M373.563,299.751l4.164-11.699
	l11.999-3.214l-9.848-7.574l0.658-12.406l-10.25,7.021l-11.598-4.451l3.52,11.91l-7.822,9.652l12.418,0.342L373.563,299.751z
	 M364.488,347.766l-1.877-7.704l5.284-5.911l-7.9-0.595l-3.989-6.859l-3.013,7.339l-7.751,1.68l6.043,5.13l-0.793,7.893l6.741-4.167
	L364.488,347.766z M477.486,294.514l3.801-16.106l15.428-6.005l-14.148-8.589l-0.938-16.516l-12.545,10.795l-16.006-4.211
	l6.396,15.263l-8.95,13.921l16.495-1.365L477.486,294.514z M460.633,343.539l-2.342-10.375l7.222-7.799l-10.581-0.981l-5.193-9.279
	l-4.209,9.76l-10.424,2.072l7.988,7.019l-1.256,10.558l9.138-5.431L460.633,343.539z M408.663,248.796l-0.749-10.819l8.487-6.756
	l-10.519-2.627l-3.797-10.164l-5.756,9.198l-10.841,0.475l6.971,8.311l-2.905,10.454l10.062-4.063L408.663,248.796z
	 M563.039,277.888l3.537-8.926l9.359-2.151l-7.401-6.125l0.856-9.566l-8.122,5.148l-8.829-3.762l2.391,9.305l-6.315,7.237
	l9.593,0.613L563.039,277.888z M450.571,408.18l1.736-11.164l10.174-4.893l-10.072-5.096l-1.507-11.186l-7.963,8l-11.111-2.026
	l5.148,10.052l-5.35,9.932l11.144-1.791L450.571,408.18z M372.924,402.924l-3.112-8.814l5.504-7.561l-9.35,0.238l-5.495-7.572
	l-2.666,8.966l-8.893,2.883l7.699,5.297v9.354l7.415-5.682L372.924,402.924z M328.206,393.191l0.543-8.893l7.652-4.588l-8.292-3.276
	l-2.002-8.686l-5.679,6.871l-8.871-0.778l4.772,7.52l-3.48,8.2l8.629-2.219L328.206,393.191z M425.767,376.937l-2.079-7.248
	l4.797-5.819l-7.53-0.269l-4.052-6.36l-2.59,7.083l-7.3,1.885l5.938,4.65l-0.463,7.524l6.267-4.209L425.767,376.937z
	 M429.134,443.375l0.721-5.855l5.227-2.733l-5.347-2.488l-0.977-5.816l-4.028,4.32l-5.827-0.877l2.854,5.164l-2.621,5.279
	l5.788-1.126L429.134,443.375z M414.871,418.742l-2.613-6.631l3.974-5.908l-7.106,0.441l-4.394-5.616l-1.781,6.9l-6.688,2.446
	l6.008,3.825l0.264,7.116l5.49-4.532L414.871,418.742z M473.719,365.339l-2.196-4.872l2.768-4.571l-5.317,0.588l-3.499-4.047
	l-1.078,5.234l-4.932,2.076l4.645,2.647l0.451,5.325l3.95-3.595L473.719,365.339z M356.63,258.646l-2.039-8.59l5.919-6.55
	l-8.791-0.713l-4.404-7.647l-3.396,8.144l-8.634,1.819l6.694,5.744l-0.938,8.777l7.54-4.595L356.63,258.646z M331.796,323.19
	l1.485-7.144l6.729-2.819l-6.331-3.618l-0.608-7.271l-5.395,4.903l-7.101-1.674l2.991,6.655l-3.782,6.231l7.247-0.793
	L331.796,323.19z M308.55,460.435l2.381-11.318l10.662-4.456l-10.022-5.76l-0.938-11.521l-8.576,7.757l-11.255-2.665l4.735,10.553
	l-6.015,9.873l11.49-1.234L308.55,460.435z M349.265,441.83l-3.84-3.504l0.715-5.148l-4.514,2.566l-4.682-2.267l1.045,5.092
	l-3.601,3.743l5.169,0.582l2.449,4.585l2.141-4.735L349.265,441.83z M398.703,491.79l1.848-6.073l6.047-1.927l-5.2-3.631
	l0.044-6.353l-5.072,3.83l-6.021-2.002l2.075,6.002l-3.772,5.109l6.352-0.12L398.703,491.79z M407.245,465.813l-1.629-8.772
	l6.305-6.313l-8.848-1.165l-4.058-7.944l-3.84,8.058l-8.812,1.404l6.467,6.141l-1.387,8.809l7.846-4.253L407.245,465.813z"/>
</svg>
