<?xml version="1.0" encoding="utf-8"?>
<!-- Generator: Adobe Illustrator 16.0.0, SVG Export Plug-In . SVG Version: 6.00 Build 0)  -->
<!DOCTYPE svg PUBLIC "-//W3C//DTD SVG 1.1//EN" "http://www.w3.org/Graphics/SVG/1.1/DTD/svg11.dtd">
<svg version="1.1" id="Layer_1" xmlns="http://www.w3.org/2000/svg" xmlns:xlink="http://www.w3.org/1999/xlink" x="0px" y="0px"
	 width="841.89px" height="595.28px" viewBox="0 0 841.89 595.28" enable-background="new 0 0 841.89 595.28" xml:space="preserve">
<path d="M466.823,181.669c1.983,21.088,4.063,42.154,5.843,63.244c0.318,3.783,1.707,6.231,4.715,8.37
	c18.417,13.127,37.766,24.719,57.668,35.371c4.472,2.394,8.537,5.106,8.38,10.809c-0.156,5.548-4.506,8.326-8.871,9.44
	c-5.634,1.441-8.919,5.718-13.214,8.715c-11.152,7.791-21.984,16.049-34.057,22.411c-3.098,1.637-4.452,3.807-4.011,7.637
	c2.19,18.853,4.144,37.736,6.06,56.628c0.77,7.532-3.094,12.996-9.965,14.729c-4.593,1.154-9.258-0.13-10.42-4.292
	c-2.459-8.793-9.697-13.018-15.35-18.776c-4.6-4.687-9.785-8.824-14.135-13.704c-2.809-3.148-4.503-2.292-6.986-0.021
	c-13.088,11.996-26.092,24.107-39.47,35.762c-7.13,6.214-14.96,11.626-22.519,17.339c-4.672,3.519-10.147,3.595-14.071-0.042
	c-4.35-4.058-3.888-9.963-0.543-14.809c11.511-16.672,15.14-36.104,19.628-55.252c0.832-3.545,0.512-7.587,2.094-10.707
	c5.908-11.592-1.627-17.818-9.063-23.92c-16.328-13.391-35.632-19.686-56.194-22.001c-5.927-0.652-10.626-1.501-12.425-7.587
	c-1.517-5.136,2.643-12.646,8.514-15.581c7.387-3.682,15.153-6.642,22.369-10.616c15.26-8.401,30.745-16.447,44.658-27.149
	c3.07-2.357,3.047-4.153,1.457-7.237c-7.125-13.834-14.109-27.736-21.004-41.688c-3.089-6.234-7.535-11.341-12.637-15.89
	c-5.3-4.738-6.396-9.816-2.785-16.163c3.771-6.655,10.33-7.832,15.445-2.227c15.836,17.351,35.214,30.324,53.926,44.146
	c4.512,3.345,7.096,2.219,9.633-2.316c7.546-13.51,18.615-24.92,23.409-40.135c1.872-5.953,7.579-8.148,12.996-9.49
	c5.649-1.399,10.723,3.242,11.229,9.615c0.211,2.666,0,5.36-0.023,8.049c-0.011,2.437,0,4.869,0,7.315
	C467.016,181.653,466.917,181.664,466.823,181.669z"/>
</svg>
