<?xml version="1.0" encoding="utf-8"?>
<!-- Generator: Adobe Illustrator 16.0.0, SVG Export Plug-In . SVG Version: 6.00 Build 0)  -->
<!DOCTYPE svg PUBLIC "-//W3C//DTD SVG 1.1//EN" "http://www.w3.org/Graphics/SVG/1.1/DTD/svg11.dtd">
<svg version="1.1" id="Layer_1" xmlns="http://www.w3.org/2000/svg" xmlns:xlink="http://www.w3.org/1999/xlink" x="0px" y="0px"
	 width="841.89px" height="595.28px" viewBox="0 0 841.89 595.28" enable-background="new 0 0 841.89 595.28" xml:space="preserve">
<path fill-rule="evenodd" clip-rule="evenodd" d="M484.967,335.006l37.621,118.253l-101.852-71.903l-101.508,71.813l37.559-118.35
	l-99.993-74.129l124.864-1.13l39.169-118.282l39.358,118.253l124.492,1.217L484.967,335.006z M450.928,272.699l-30.043-89.349
	l-30.191,89.283l-94.811,0.703l76.392,56.714l-28.479,90.268l77.123-55.001l77.122,55.121l-28.439-90.2l76.39-56.805
	L450.928,272.699z M451.846,324.218l17.414,56.436l-48.404-34.16l-48.398,34.28l17.386-56.715L342.48,288.68l59.309-0.064
	l18.979-56.957l18.941,57.021l59.343,0.126L451.846,324.218z M430.519,301.058l-9.663-28.387l-9.806,28.507l-29.611,0.12
	l23.558,17.848l-8.52,28.569l24.541-17.02l24.043,16.866l-8.59-28.57l23.594-17.664L430.519,301.058z"/>
</svg>
