<?xml version="1.0" encoding="utf-8"?>
<!-- Generator: Adobe Illustrator 16.0.0, SVG Export Plug-In . SVG Version: 6.00 Build 0)  -->
<!DOCTYPE svg PUBLIC "-//W3C//DTD SVG 1.1//EN" "http://www.w3.org/Graphics/SVG/1.1/DTD/svg11.dtd">
<svg version="1.1" id="Layer_1" xmlns="http://www.w3.org/2000/svg" xmlns:xlink="http://www.w3.org/1999/xlink" x="0px" y="0px"
	 width="841.89px" height="595.28px" viewBox="0 0 841.89 595.28" enable-background="new 0 0 841.89 595.28" xml:space="preserve">
<path fill="#010101" d="M554.246,248.771l-71.71-5.718c-7.209-0.576-13.482-5.138-16.255-11.813l-27.602-66.429
	c-3.287-7.916-10.534-11.871-17.782-11.871c-7.25,0-14.503,3.955-17.79,11.871l-27.596,66.429
	c-2.777,6.676-9.052,11.237-16.26,11.813l-71.711,5.718c-17.082,1.36-24.012,22.688-10.994,33.833l54.654,46.772
	c5.49,4.707,7.893,12.083,6.214,19.114l-16.717,69.966c-3.104,12.955,7.159,23.798,18.751,23.798c3.326,0,6.756-0.891,10.025-2.883
	l61.371-37.524c3.084-1.891,6.569-2.836,10.052-2.836c3.48,0,6.958,0.945,10.044,2.836l61.372,37.524
	c3.269,1.992,6.699,2.883,10.027,2.883c11.59,0,21.853-10.848,18.759-23.798l-16.728-69.966c-1.679-7.031,0.724-14.407,6.214-19.114
	l54.654-46.772C578.258,271.458,571.334,250.131,554.246,248.771z M495.13,311.322c-12.333,10.553-17.646,26.91-13.879,42.691
	l14.205,59.406l-52.119-31.856c-6.756-4.133-14.519-6.323-22.439-6.323c-7.924,0-15.69,2.19-22.447,6.323l-52.114,31.856
	l14.2-59.406c3.772-15.781-1.546-32.139-13.879-42.691l-46.401-39.721l60.886-4.854c16.174-1.289,30.095-11.4,36.321-26.384
	l23.435-56.409l23.427,56.409c6.232,14.983,20.147,25.095,36.326,26.384l60.887,4.854L495.13,311.322z M464.25,299.885
	l-16.42,14.051c-1.649,1.41-2.365,3.627-1.866,5.739l5.028,21.011c0.93,3.894-2.154,7.148-5.64,7.148
	c-0.994,0-2.031-0.264-3.007-0.869l-18.436-11.266c-0.924-0.566-1.968-0.851-3.013-0.851c-1.05,0-2.097,0.284-3.021,0.851
	l-18.435,11.266c-0.977,0.605-2.008,0.869-3.008,0.869c-3.485,0-6.568-3.255-5.637-7.148l5.025-21.011
	c0.504-2.112-0.216-4.329-1.866-5.739l-16.419-14.051c-3.909-3.345-1.825-9.754,3.311-10.158l21.533-1.719
	c2.159-0.175,4.047-1.545,4.88-3.553l8.292-19.944c0.984-2.378,3.164-3.571,5.344-3.571c2.175,0,4.354,1.193,5.342,3.571
	l8.287,19.944c0.832,2.008,2.718,3.378,4.879,3.553l21.545,1.719C466.08,290.131,468.158,296.54,464.25,299.885z"/>
</svg>
