<?xml version="1.0" encoding="utf-8"?>
<!-- Generator: Adobe Illustrator 16.0.0, SVG Export Plug-In . SVG Version: 6.00 Build 0)  -->
<!DOCTYPE svg PUBLIC "-//W3C//DTD SVG 1.1//EN" "http://www.w3.org/Graphics/SVG/1.1/DTD/svg11.dtd">
<svg version="1.1" id="Layer_1" xmlns="http://www.w3.org/2000/svg" xmlns:xlink="http://www.w3.org/1999/xlink" x="0px" y="0px"
	 width="841.89px" height="595.28px" viewBox="0 0 841.89 595.28" enable-background="new 0 0 841.89 595.28" xml:space="preserve">
<path fill="#010101" d="M377.973,246.606l39.232-94.445V300.61L377.973,246.606z M424.4,300.61l39.227-54.004l-39.227-94.45V300.61z
	 M372.153,250.83l-101.951,8.128l141.191,45.879L372.153,250.83z M469.444,250.83l-39.237,54.007l141.191-45.879L469.444,250.83z
	 M495.91,332.3l77.707-66.507L432.426,311.67L495.91,332.3z M430.207,318.502l87.258,120.1l-23.771-99.475L430.207,318.502z
	 M409.169,311.67l-141.181-45.877l77.705,66.507L409.169,311.67z M424.4,389.481l87.25,53.347l-87.25-120.1V389.481z
	 M347.907,339.127l-23.767,99.475l87.253-120.1L347.907,339.127z M417.205,389.481v-66.75l-87.258,120.097L417.205,389.481z"/>
</svg>
