<?xml version="1.0" encoding="utf-8"?>
<!-- Generator: Adobe Illustrator 16.0.0, SVG Export Plug-In . SVG Version: 6.00 Build 0)  -->
<!DOCTYPE svg PUBLIC "-//W3C//DTD SVG 1.1//EN" "http://www.w3.org/Graphics/SVG/1.1/DTD/svg11.dtd">
<svg version="1.1" id="Layer_1" xmlns="http://www.w3.org/2000/svg" xmlns:xlink="http://www.w3.org/1999/xlink" x="0px" y="0px"
	 width="841.89px" height="595.28px" viewBox="0 0 841.89 595.28" enable-background="new 0 0 841.89 595.28" xml:space="preserve">
<path d="M420.61,159.635c-75.917,0-137.458,61.541-137.458,137.45c0,75.911,61.541,137.458,137.458,137.458
	c75.913,0,137.45-61.547,137.45-137.458C558.061,221.176,496.523,159.635,420.61,159.635z M516.734,371.902l-69.453-21.268
	l-26.671,67.56l-26.675-67.56l-69.452,21.268l36.19-62.98l-59.938-41.041l71.808-10.966l-5.279-72.452l53.347,49.3l53.346-49.3
	l-5.284,72.452l71.805,10.966l-59.934,41.041L516.734,371.902z"/>
</svg>
