<?xml version="1.0" encoding="utf-8"?>
<!-- Generator: Adobe Illustrator 16.0.0, SVG Export Plug-In . SVG Version: 6.00 Build 0)  -->
<!DOCTYPE svg PUBLIC "-//W3C//DTD SVG 1.1//EN" "http://www.w3.org/Graphics/SVG/1.1/DTD/svg11.dtd">
<svg version="1.1" id="Layer_1" xmlns="http://www.w3.org/2000/svg" xmlns:xlink="http://www.w3.org/1999/xlink" x="0px" y="0px"
	 width="841.89px" height="595.28px" viewBox="0 0 841.89 595.28" enable-background="new 0 0 841.89 595.28" xml:space="preserve">
<path fill="#010101" d="M261.057,342.839c1.66,0.694,1.409,1.117-1.518,2.407c-4.119,1.838-8.819,2.151-8.819,0.596
	C250.72,344.218,258.751,341.886,261.057,342.839z M305.784,376.494c0.836-2.814,1.303-5.325,1.034-5.605
	c-0.27-0.261-3.859,3.316-7.989,7.945c-4.117,4.649-10.595,10.445-14.388,12.897c-10.281,6.649-25.878,12.305-59.573,21.596
	c-6.144,1.689-11.673,3.574-12.284,4.19l0,0c-1.618,1.598,0.794,1.392,12.866-1.141c16.55-3.465,44.754-12.642,56.874-18.497
	C295.42,391.562,303.497,384.193,305.784,376.494z M231.51,296.985c5.337-1.587,12.039-6.478,8.874-6.478
	c-2.955,0-21.429,6.861-20.004,7.42l0,0C223.035,298.993,225.416,298.795,231.51,296.985z M337.592,453.017
	c-2.237-0.48-38.214,8.927-49.843,13.052l0,0l-8.229,2.919l9.407,0.063c5.169,0.044,12.91-0.663,17.199-1.582
	C319.084,464.719,342.317,454.051,337.592,453.017z M401.754,170.637c0.945-2.989-0.315-5.067-2.551-4.206
	c-2.793,1.063-6.164-1.357-18.486-13.315c-11.832-11.477-12.955-11.529-6.227-0.308c4.908,8.195,10.952,15.226,15.442,17.968l0,0
	C394.836,173.765,400.783,173.701,401.754,170.637z M602.057,236.379c9.589-4.131,9.84-5.849,0.577-3.893
	c-4.306,0.893-11.028,1.754-14.926,1.919c-7.618,0.298-10.106,2.347-5.342,4.378C586.254,240.443,595.128,239.357,602.057,236.379z
	 M588.05,409.231c0-1.574-4.36-5.89-5.945-5.89c-1.582,0-0.234,9.976,1.898,14.113c1.635,3.167,9.869,11.362,14.618,14.542
	c2.501,1.677,3.002,1.713,3.32,0.261c0.52-2.445-2.532-7.879-8.612-15.356C590.431,413.341,588.05,409.899,588.05,409.231z
	 M612.734,317.407c-13.314-1.867-15.539-1.9-16.155-0.144c-0.624,1.849,5.799,4.64,14.072,6.072
	c6.615,1.17,17.31,0.577,18.943-1.033C630.969,320.939,624.543,319.083,612.734,317.407z M528.871,181.197
	c-1.128,0-14.971,17.936-17.108,22.149c-3.499,6.916-4.109,11.618-1.948,14.924c3.449,5.269,12.459,2.284,9.133-3.031
	c-1.141-1.819-0.473-4.532,3.768-15.482C528.49,184.865,529.698,181.197,528.871,181.197z M394.658,446.247
	c-2.282,3.563-4.485,7.357-4.905,8.459l0,0c-0.614,1.598-0.014,1.467,3.022-0.708c4.373-3.104,6.733-6.398,7.858-10.98
	C401.942,437.699,399.162,439.206,394.658,446.247z M357.413,231.609c-5.911-3.021-20.523-8.104-23.153-8.065
	c-4.143,0.068,12.551,11.861,20.832,14.707C363.663,241.203,365.559,235.758,357.413,231.609z M498.23,414.675
	c-2.935-1.922-3.025-1.893-3.025,0.554c0,3.339,4.028,9.748,7.994,12.706c3.353,2.504,4.927,3.013,4.927,1.562
	C508.081,427.196,500.912,416.435,498.23,414.675z M431.151,347.228c-2.863,4.028-12.189,17.122-20.724,29.084
	c-8.532,11.963-18.686,26.241-22.555,31.731c-3.869,5.496-7.373,10.376-7.778,10.846c-0.404,0.478,0.429-6.136,1.864-14.67
	c2.365-14.141,3.733-28.445,5.691-59.492l0.692-11.005l-2.953,0.739c-3.673,0.916-47.879-8.791-61.787-13.568
	c-15.015-5.175-15.288-5.211-15.288-2.334c0,1.679,1.462,3.209,4.615,4.822c11.313,5.77,44.655,12.968,60.082,12.968
	c4.418,0,8.292,0.417,8.61,0.919c0.304,0.509,0.095,7.774-0.472,16.163c-0.572,8.378-1.632,27.137-2.34,41.692
	c-0.885,17.852-1.833,27.486-2.935,29.671l0,0c-2.733,5.418-0.227,3.666,8.378-5.877c20.782-23.024,55.699-71.36,55.699-77.097
	C439.953,337.815,436.196,340.116,431.151,347.228z M552.209,267.56c-5.814,3.577-9.297,3.647-31.898,0.66
	c-13.874-1.838-50.863-8.32-57.581-10.085c-0.736-0.199-9.399-12.406-19.255-27.121c-17.054-25.471-27.019-43.065-27.019-47.699
	c0-5.002-3.527-1.376-7.945,8.172c-8.537,18.463-21.46,60.628-24.479,79.9c-0.434,2.736-1.376,5.446-2.106,6.023
	c-0.729,0.571-8.726,4.102-17.772,7.829c-23.142,9.548-47.398,22.132-56.421,29.278c-2.243,1.78-2.204,1.816,0.905,0.707
	c6.144-2.206,33.193-13.955,51.406-22.359c10.018-4.623,18.874-8.686,19.681-9.035c0.93-0.395,1.506,0.399,1.546,2.141l0.067,2.777
	l1.164-2.916c0.64-1.603,1.94-3.768,2.878-4.816c0.947-1.045,1.587-2.903,1.42-4.139c-0.17-1.227,5.691-20.424,13.02-42.66
	l13.331-40.425l5.01,9.372c8.835,16.545,21.108,33.552,34.319,47.592c3.454,3.666,6.284,7.729,6.284,9.023
	c0,1.856,1.425,2.772,6.741,4.311c20.335,5.91,56.609,10.957,69.752,9.691c3.186-0.306,5.765-0.24,5.744,0.151
	c-0.023,0.389-3.569,3.088-7.877,5.999c-12.568,8.459-53.341,41.139-51.349,41.139c0.44,0,2.618-1.125,4.827-2.488
	c2.217-1.371,4.167-2.284,4.334-2.05c0.169,0.23,1.219,3.859,2.328,8.06c3.956,14.952,14.01,44.232,18.523,53.957
	c2.525,5.434,4.374,10.106,4.094,10.381c-0.726,0.736-32.298-17.584-47.171-27.355c-7.133-4.689-15.918-11.482-19.534-15.083
	c-6.736-6.741-8.049-7.102-8.049-2.237c0,4.164,10.187,13.72,25.277,23.709c10.749,7.116,22.567,13.349,52.224,27.549l0,0
	c1.574,0.752,4.496,1.47,6.47,1.574c3.169,0.183,3.339,0.052,1.443-1.164c-1.19-0.775-2.903-1.925-3.827-2.569
	c-1.41-1.003-26.335-75.878-26.335-79.139c0-0.642,4.099-3.942,9.114-7.344c18.241-12.367,53.182-39.044,53.182-40.608
	C558.676,264.02,557.603,264.23,552.209,267.56z M547.838,341.599c-9.2-4.412-14.675-5.183-15.815-2.225
	c-0.93,2.431,1.574,4.749,6.665,6.19l0,0c4.396,1.229,17.636,1.78,17.636,0.736C556.323,345.943,552.496,343.82,547.838,341.599z
	 M604.516,126.812c0-1.971-5.54,2.186-15.644,11.762c-8.417,7.974-11.049,9.835-13.302,9.401c-3.517-0.674-3.598,0.794-0.178,3.19
	c1.426,1.008,2.772,1.825,2.969,1.825c2.224,0,8.926-4.159,12.829-7.963C595.968,140.364,604.516,128.689,604.516,126.812z"/>
</svg>
