<?xml version="1.0" encoding="utf-8"?>
<!-- Generator: Adobe Illustrator 16.0.0, SVG Export Plug-In . SVG Version: 6.00 Build 0)  -->
<!DOCTYPE svg PUBLIC "-//W3C//DTD SVG 1.1//EN" "http://www.w3.org/Graphics/SVG/1.1/DTD/svg11.dtd">
<svg version="1.1" id="Layer_1" xmlns="http://www.w3.org/2000/svg" xmlns:xlink="http://www.w3.org/1999/xlink" x="0px" y="0px"
	 width="841.89px" height="595.28px" viewBox="0 0 841.89 595.28" enable-background="new 0 0 841.89 595.28" xml:space="preserve">
<path fill="#010101" d="M431.188,232.737l-72.223,15.677l31.49-66.857l-37.226-63.839L426.545,127l49.211-55.124l13.825,72.592
	l67.638,29.77l-64.77,35.579l-7.408,73.53L431.188,232.737z M408.214,523.715c-4.706-22.072-8.921-44.078-12.537-66.142
	c-1.81-11.03-3.427-22.073-4.834-33.131c-0.359-2.763-0.713-5.528-1.019-8.29c-0.308-2.771-0.69-5.53-0.933-8.305l-0.866-8.301
	l-0.71-8.313c-0.274-2.765-0.431-5.539-0.638-8.31c-0.2-2.773-0.398-5.545-0.512-8.321c-0.14-2.772-0.323-5.544-0.436-8.315
	l-0.257-8.327c-0.236-11.095-0.231-22.198,0.325-33.284c0.594-11.078,1.516-22.158,3.139-33.175c0.356-2.77,0.922-5.492,1.355-8.252
	c0.237-1.372,0.433-2.765,0.702-4.134l0.864-4.098c1.022-5.517,2.543-10.906,3.838-16.423c-1.228,2.536-2.376,5.117-3.572,7.694
	l-0.866,1.942c-0.272,0.657-0.51,1.321-0.768,1.978l-1.511,3.975l-1.501,3.996c-0.471,1.338-0.863,2.702-1.299,4.055l-1.253,4.078
	c-0.402,1.367-0.867,2.719-1.194,4.098c-2.995,10.99-4.969,22.242-6.412,33.547l-0.905,8.499c-0.264,2.84-0.401,5.684-0.606,8.521
	c-0.089,1.43-0.205,2.846-0.269,4.267l-0.136,4.268c-0.058,2.844-0.214,5.695-0.189,8.537c-0.125,11.391,0.448,22.758,1.325,34.08
	c0.919,11.332,2.382,22.59,4.177,33.787c1.821,11.191,4.013,22.315,6.65,33.328c2.637,11.007,5.619,21.921,9.049,32.697
	c1.737,5.379,3.515,10.75,5.486,16.043C403.867,513.285,405.893,518.564,408.214,523.715z M373.733,471.897
	c-3.162-8.403-5.617-16.93-7.769-25.502c-2.137-8.57-3.932-17.188-5.353-25.853c-2.866-17.324-4.295-34.797-4.563-52.298
	c-0.161-17.493,0.744-35.026,2.885-52.513c2.052-17.504,5.18-34.938,8.618-52.582c-7.723,16.233-13.239,33.519-17.008,51.203
	c-1.022,4.406-1.675,8.89-2.454,13.353c-0.352,2.24-0.633,4.485-0.914,6.735c-0.288,2.248-0.585,4.496-0.768,6.758
	c-0.95,9.025-1.203,18.115-1.167,27.191c0.283,18.164,2.538,36.335,7.081,53.914c2.291,8.783,5.142,17.412,8.628,25.763
	c1.761,4.173,3.628,8.286,5.76,12.273c1.066,1.997,2.16,3.968,3.301,5.913C371.207,468.172,372.383,470.095,373.733,471.897z
	 M367.283,512.289c-1.252-2.766-2.479-5.52-3.624-8.316c-1.179-2.779-2.338-5.564-3.425-8.375l-3.275-8.404
	c-1.022-2.83-2.108-5.631-3.065-8.48c-4.006-11.314-7.651-22.719-10.82-34.239c-3.176-11.517-5.921-23.122-8.164-34.808
	c-2.254-11.68-4.044-23.44-5.129-35.26c-0.143-1.477-0.33-2.948-0.456-4.426l-0.309-4.435l-0.313-4.44l-0.154-2.223l-0.074-2.221
	l-0.346-8.889l-0.022-8.892c0.117-11.852,0.688-23.72,2.206-35.509l0.501-4.431c0.189-1.477,0.452-2.94,0.677-4.41l1.388-8.826
	l1.777-8.764c0.301-1.458,0.554-2.936,0.896-4.386l1.088-4.351c0.719-2.899,1.373-5.833,2.146-8.727
	c0.854-2.868,1.741-5.733,2.554-8.635c0.422-1.441,0.802-2.906,1.269-4.343l1.474-4.266c0.943-2.865,1.932-5.723,2.847-8.627
	c-1.484,2.64-2.892,5.322-4.351,7.993l-2.124,4.035c-0.679,1.364-1.272,2.762-1.917,4.138c-1.278,2.762-2.48,5.56-3.718,8.351
	c-1.14,2.825-2.172,5.693-3.262,8.552l-1.586,4.302c-0.503,1.443-0.917,2.914-1.379,4.371l-2.646,8.792
	c-0.759,2.97-1.449,5.95-2.163,8.931c-0.349,1.495-0.736,2.982-1.047,4.483l-0.831,4.524c-2.398,12.047-3.527,24.317-4.053,36.586
	c-0.559,12.282,0.046,24.582,1.174,36.797c0.348,3.051,0.591,6.113,1.036,9.15l1.307,9.105c1.085,6.035,2.12,12.074,3.524,18.037
	c2.698,11.948,6.058,23.726,10.092,35.251c4.039,11.529,8.709,22.811,14.041,33.757c2.705,5.459,5.477,10.872,8.523,16.135
	C360.582,502.163,363.736,507.363,367.283,512.289z M329.749,474.74c-5.097-10.778-9.637-21.717-13.606-32.828
	c-3.986-11.104-7.528-22.327-10.49-33.667c-2.97-11.344-5.401-22.795-7.208-34.316c-1.806-11.522-3.07-23.125-3.45-34.748
	c-0.202-2.901-0.188-5.811-0.217-8.718c-0.028-2.902-0.091-5.813,0.06-8.716c0.101-2.897,0.134-5.812,0.283-8.711l0.653-8.688
	l0.157-2.18l0.26-2.161l0.52-4.331l0.51-4.335c0.161-1.443,0.454-2.871,0.676-4.309l1.441-8.612l1.831-8.547
	c0.551-2.871,1.34-5.679,2.091-8.498l1.124-4.237c0.377-1.415,0.711-2.842,1.19-4.226c1.812-5.557,3.431-11.212,5.621-16.669
	c3.85-11.149,9.055-21.758,14.111-32.583c-7.099,9.562-13.66,19.667-18.982,30.458l-2.031,4.038c-0.707,1.33-1.301,2.714-1.888,4.1
	l-3.544,8.327c-0.624,1.378-1.115,2.803-1.61,4.229l-1.504,4.276c-0.996,2.854-2.057,5.697-2.807,8.623l-2.467,8.746
	c-0.692,2.947-1.307,5.915-1.959,8.878c-0.303,1.48-0.683,2.959-0.925,4.451l-0.716,4.492l-0.702,4.497l-0.356,2.245l-0.243,2.261
	c-1.518,12.053-1.783,24.222-1.376,36.339c0.178,3.023,0.274,6.054,0.523,9.076l0.864,9.046c0.799,6.001,1.586,12.006,2.779,17.935
	c2.263,11.875,5.327,23.584,9.171,34.998c3.85,11.412,8.438,22.559,13.752,33.311c2.727,5.35,5.484,10.664,8.578,15.796
	C322.932,464.922,326.142,469.98,329.749,474.74z"/>
</svg>
