<?xml version="1.0" encoding="utf-8"?>
<!-- Generator: Adobe Illustrator 16.0.0, SVG Export Plug-In . SVG Version: 6.00 Build 0)  -->
<!DOCTYPE svg PUBLIC "-//W3C//DTD SVG 1.1//EN" "http://www.w3.org/Graphics/SVG/1.1/DTD/svg11.dtd">
<svg version="1.1" id="Layer_1" xmlns="http://www.w3.org/2000/svg" xmlns:xlink="http://www.w3.org/1999/xlink" x="0px" y="0px"
	 width="841.89px" height="595.28px" viewBox="0 0 841.89 595.28" enable-background="new 0 0 841.89 595.28" xml:space="preserve">
<path id="XMLID_4_" fill="#010101" d="M592.91,223.825h-98.38v-98.372l-73.29,73.287l-73.159-73.287v98.372h-98.377l73.287,73.298
	l-73.287,73.151h98.377v98.382l73.298-73.287l73.151,73.287v-98.382h98.38l-73.284-73.287L592.91,223.825z M547.785,351.027h-72.512
	v72.502l-53.918-54.01l-54.012,54.01v-72.502h-72.502l54.01-53.926l-54.01-54.02h72.502v-72.507l53.92,54.02l54.01-54.02v72.507
	h72.512l-54.02,53.926L547.785,351.027z M475.273,274.03h-30.933v-30.948l-23.048,23.045l-23.012-23.045v30.948h-30.938
	l23.04,23.048l-23.04,23.004h30.938v30.945l23.04-23.056l23.02,23.056v-30.945h30.933l-23.04-23.051L475.273,274.03z"/>
</svg>
