<?xml version="1.0" encoding="utf-8"?>
<!-- Generator: Adobe Illustrator 16.0.0, SVG Export Plug-In . SVG Version: 6.00 Build 0)  -->
<!DOCTYPE svg PUBLIC "-//W3C//DTD SVG 1.1//EN" "http://www.w3.org/Graphics/SVG/1.1/DTD/svg11.dtd">
<svg version="1.1" id="Layer_1" xmlns="http://www.w3.org/2000/svg" xmlns:xlink="http://www.w3.org/1999/xlink" x="0px" y="0px"
	 width="841.89px" height="595.28px" viewBox="0 0 841.89 595.28" enable-background="new 0 0 841.89 595.28" xml:space="preserve">
<path fill="#010101" d="M420.76,183.983c50.349,0.019,92.993,32.914,107.689,78.384H446.22L420.76,183.983z M395.184,262.367
	l25.469-78.384c-50.344,0.019-92.991,32.914-107.688,78.384H395.184z M528.512,262.563l-66.518,48.333l25.301,77.867
	c28.252-20.584,46.634-53.918,46.634-91.558C533.929,285.123,532.018,273.481,528.512,262.563z M379.415,310.896l-66.518-48.333
	c-3.509,10.918-5.418,22.56-5.418,34.643c0,37.64,18.38,70.974,46.637,91.558L379.415,310.896z M420.702,340.899l-66.229,48.114
	c18.626,13.464,41.493,21.425,66.229,21.425c24.742,0,47.61-7.961,66.232-21.425L420.702,340.899z"/>
</svg>
