<?xml version="1.0" encoding="utf-8"?>
<!-- Generator: Adobe Illustrator 16.0.0, SVG Export Plug-In . SVG Version: 6.00 Build 0)  -->
<!DOCTYPE svg PUBLIC "-//W3C//DTD SVG 1.1//EN" "http://www.w3.org/Graphics/SVG/1.1/DTD/svg11.dtd">
<svg version="1.1" id="Layer_1" xmlns="http://www.w3.org/2000/svg" xmlns:xlink="http://www.w3.org/1999/xlink" x="0px" y="0px"
	 width="841.89px" height="595.28px" viewBox="0 0 841.89 595.28" enable-background="new 0 0 841.89 595.28" xml:space="preserve">
<path fill="#010101" d="M582.139,260.958c0,8.777-7.123,15.902-15.895,15.902c-5.624,0-10.532-2.935-13.362-7.341l-95.55,50.241
	l48.473,98.216c1.506-0.479,3.08-0.799,4.746-0.799c8.783,0,15.895,7.111,15.895,15.889c0,8.785-7.111,15.895-15.895,15.895
	c-8.772,0-15.895-7.109-15.895-15.895c0-5.028,2.387-9.467,6.028-12.367l-77.911-76.715l-78.619,77.412
	c3.156,2.9,5.178,7.039,5.178,11.67c0,8.785-7.117,15.895-15.895,15.895s-15.895-7.109-15.895-15.895
	c0-8.777,7.117-15.889,15.895-15.889c2.156,0,4.217,0.431,6.091,1.211l48.372-98.021l-97.57-51.974
	c-2.665,5.008-7.887,8.467-13.962,8.467c-8.772,0-15.895-7.125-15.895-15.902s7.122-15.895,15.895-15.895
	c8.78,0,15.897,7.117,15.897,15.895c0,0.771-0.125,1.507-0.23,2.243l108.035,15.479l18.789-102.728
	c-6.874-1.757-11.986-7.937-11.986-15.356c0-8.78,7.115-15.896,15.9-15.896c8.777,0,15.895,7.116,15.895,15.896
	c0,7.459-5.164,13.687-12.099,15.391L444.73,278.31l105.88-14.759c-0.141-0.852-0.269-1.702-0.269-2.593
	c0-8.777,7.119-15.895,15.902-15.895C575.016,245.063,582.139,252.181,582.139,260.958z"/>
</svg>
