<?xml version="1.0" encoding="utf-8"?>
<!-- Generator: Adobe Illustrator 16.0.0, SVG Export Plug-In . SVG Version: 6.00 Build 0)  -->
<!DOCTYPE svg PUBLIC "-//W3C//DTD SVG 1.1//EN" "http://www.w3.org/Graphics/SVG/1.1/DTD/svg11.dtd">
<svg version="1.1" id="Layer_1" xmlns="http://www.w3.org/2000/svg" xmlns:xlink="http://www.w3.org/1999/xlink" x="0px" y="0px"
	 width="841.89px" height="595.28px" viewBox="0 0 841.89 595.28" enable-background="new 0 0 841.89 595.28" xml:space="preserve">
<path fill="#010101" d="M441.074,181.763c0.82,5.963,1.671,12.132,1.785,18.121c0.084,11.317-1.908,21.583-3.42,28.33
	c-2.088,9.161-4.652,15.98-6.428,20.105c-2.075,4.897-3.861,7.843-3.941,7.963c-1.098,1.799-3.047,2.9-5.148,2.9h-2.739
	c-2.118,0-4.06-1.102-5.159-2.9c-0.081-0.12-1.867-3.065-3.95-8.013c-1.757-4.075-4.315-10.918-6.415-20.027
	c-1.506-6.757-3.512-17.02-3.425-28.285c0.12-6.063,0.966-12.231,1.794-18.194c0.592-4.309,1.217-8.749,1.545-13.052l0.713-8.146
	c0.682-7.835,1.355-15.563,2.211-22.934c0.883-8.709,1.928-16.993,2.842-24.293l0.336-2.666c1.872-15.639,3.521-26.306,3.533-26.402
	c0.467-2.94,2.996-5.12,5.976-5.12h2.739c2.98,0,5.498,2.18,5.963,5.12c0.018,0.097,1.678,10.764,3.539,26.447l0.327,2.621
	c0.921,7.3,1.968,15.584,2.849,24.385c0.861,7.278,1.529,15.007,2.205,22.842l0.716,8.054
	C439.852,173.014,440.474,177.454,441.074,181.763z M450.285,272.735c1.146,1.153,2.693,1.775,4.284,1.775
	c0.462,0,0.942-0.05,1.415-0.178c0.139-0.031,3.493-0.854,8.42-2.846c4.161-1.655,10.793-4.668,18.758-9.671
	c5.828-3.681,14.469-9.519,22.459-17.611c4.15-4.324,7.918-9.295,11.568-14.102c2.61-3.465,5.305-7.025,8.168-10.37l5.271-6.273
	c5.031-5.997,10.002-11.91,14.521-17.628c5.691-6.971,10.895-13.67,15.456-19.565l1.386-1.78
	c9.765-12.409,16.148-21.135,16.209-21.21c1.759-2.402,1.5-5.733-0.604-7.835l-1.938-1.94c-2.109-2.094-5.426-2.357-7.835-0.605
	c-0.091,0.067-8.801,6.438-21.179,16.179l-2.17,1.692c-5.793,4.495-12.372,9.6-19.127,15.124
	c-5.832,4.605-11.789,9.61-17.811,14.662l-6.239,5.237c-3.279,2.819-6.854,5.52-10.313,8.141c-4.804,3.634-9.774,7.401-14.14,11.597
	c-8.021,7.908-13.869,16.573-17.587,22.435c-3.893,6.214-7.325,12.869-9.628,18.701c-1.992,4.888-2.783,8.102-2.869,8.454
	c-0.492,2.039,0.117,4.195,1.592,5.673L450.285,272.735z M634.28,292.271c-0.118-0.01-10.785-1.665-26.419-3.521l-2.276-0.301
	c-7.392-0.927-15.804-1.997-24.677-2.877c-7.328-0.861-15.018-1.535-22.793-2.209l-8.281-0.736c-4.295-0.32-8.72-0.937-13.018-1.529
	c-5.979-0.817-12.166-1.679-18.238-1.799c-11.336,0-21.529,1.908-28.285,3.436c-7.141,1.629-14.264,3.916-20.022,6.41
	c-4.947,2.078-7.888,3.869-8.018,3.939c-1.799,1.094-2.894,3.057-2.894,5.153v2.739c0,2.106,1.095,4.057,2.894,5.158
	c0.303,0.183,3.148,1.9,7.96,3.927c5.788,2.501,12.91,4.796,20.108,6.448c6.608,1.468,16.607,3.407,27.661,3.407
	c0.225,0,0.451,0,0.674,0c5.984-0.112,12.15-0.958,18.127-1.785c4.297-0.604,8.738-1.214,13.132-1.541l8.106-0.712
	c7.812-0.688,15.529-1.353,22.793-2.209c8.834-0.9,17.145-1.939,24.457-2.867l2.551-0.318c15.673-1.856,26.352-3.521,26.458-3.532
	c2.939-0.47,5.104-2.992,5.104-5.976v-2.739C639.385,295.259,637.22,292.739,634.28,292.271z M559.463,423.717l-1.266-1.632
	c-4.598-5.937-9.852-12.704-15.548-19.68c-4.571-5.78-9.519-11.684-14.542-17.657l-5.357-6.394
	c-2.805-3.269-5.52-6.848-8.135-10.305c-3.641-4.807-7.395-9.767-11.607-14.146c-7.88-7.999-16.553-13.85-22.436-17.583
	c-6.188-3.88-12.848-7.306-18.69-9.621c-4.971-2.026-8.31-2.838-8.448-2.877c-2.055-0.515-4.211,0.12-5.702,1.613l-1.94,1.938
	c-1.467,1.478-2.078,3.634-1.592,5.676c0.097,0.35,0.891,3.563,2.859,8.414c2.328,5.861,5.748,12.517,9.656,18.759
	c3.689,5.832,9.527,14.479,17.631,22.453c4.318,4.156,9.287,7.926,14.099,11.568c3.456,2.613,7.028,5.32,10.362,8.18l6.174,5.169
	c6.018,5.065,11.971,10.07,17.732,14.623c6.771,5.532,13.305,10.598,19.064,15.072l2.287,1.775
	c12.396,9.759,21.113,16.129,21.205,16.205c1.064,0.775,2.323,1.151,3.556,1.151c1.551,0,3.099-0.593,4.269-1.752l1.939-1.939
	c2.117-2.097,2.368-5.423,0.617-7.833C575.576,444.805,569.206,436.084,559.463,423.717z M429.401,347.325
	c-2.05-4.858-3.763-7.71-3.95-8.018c-1.092-1.788-3.047-2.885-5.144-2.885h-2.749c-2.102,0-4.055,1.097-5.154,2.885
	c-0.188,0.308-1.9,3.159-3.934,7.976c-2.514,5.822-4.789,12.953-6.42,20.093c-1.518,6.744-3.514,17.002-3.436,28.341
	c0.125,5.986,0.971,12.158,1.799,18.126c0.595,4.298,1.209,8.738,1.54,13.133l0.708,8.046c0.681,7.833,1.354,15.582,2.208,22.86
	c0.891,8.822,1.935,17.138,2.849,24.442l0.336,2.553c1.867,15.678,3.522,26.356,3.543,26.458c0.457,2.94,2.987,5.114,5.961,5.114
	h2.749c2.974,0,5.504-2.174,5.96-5.114c0.021-0.102,1.666-10.78,3.533-26.418l0.328-2.593c0.92-7.305,1.967-15.62,2.847-24.351
	c0.858-7.37,1.54-15.119,2.219-22.952l0.713-8.13c0.327-4.311,0.948-8.751,1.54-13.049c0.828-5.968,1.674-12.14,1.789-18.194
	c0.094-11.231-1.896-21.51-3.42-28.301C434.176,360.236,431.895,353.105,429.401,347.325z M391.185,322.87
	c-1.483-1.491-3.634-2.091-5.688-1.61c-0.346,0.091-3.566,0.885-8.42,2.854c-5.846,2.323-12.504,5.74-18.771,9.662
	c-5.82,3.705-14.48,9.551-22.445,17.625c-4.156,4.321-7.924,9.292-11.571,14.102c-2.601,3.459-5.323,7.025-8.177,10.364
	l-5.289,6.318c-5.029,5.977-9.984,11.89-14.488,17.587c-5.688,6.965-10.884,13.656-15.442,19.533l-1.404,1.814
	c-9.77,12.396-16.15,21.119-16.208,21.21c-1.76,2.397-1.501,5.718,0.604,7.835l1.939,1.94c1.164,1.159,2.713,1.765,4.271,1.765
	c1.242,0,2.488-0.389,3.556-1.164c0.083-0.063,8.806-6.443,21.185-16.182l1.861-1.455c5.877-4.553,12.555-9.73,19.439-15.356
	c5.768-4.551,11.646-9.498,17.604-14.497l6.438-5.404c3.276-2.805,6.84-5.515,10.291-8.128c4.81-3.632,9.793-7.404,14.166-11.62
	c8.047-7.927,13.875-16.574,17.584-22.419c3.888-6.222,7.318-12.882,9.629-18.69c1.986-4.898,2.785-8.117,2.869-8.47
	c0.49-2.039-0.109-4.195-1.592-5.673L391.185,322.87z M291.648,312.978c4.305,0.316,8.756,0.933,13.059,1.525
	c5.958,0.833,12.13,1.679,18.185,1.799c0.228,0,0.446,0,0.665,0c10.989,0,20.98-1.938,27.631-3.431
	c7.169-1.64,14.281-3.932,20.021-6.41c4.875-2.049,7.71-3.757,8.021-3.949c1.78-1.097,2.882-3.047,2.882-5.148v-2.75
	c0-2.096-1.102-4.064-2.89-5.153c-0.13-0.07-3.07-1.846-7.966-3.921c-5.806-2.512-12.934-4.802-20.098-6.434
	c-6.723-1.512-16.745-3.459-28.342-3.423c-5.987,0.112-12.172,0.974-18.153,1.796c-4.292,0.593-8.718,1.209-13.104,1.546
	l-8.192,0.726c-7.789,0.674-15.477,1.337-22.699,2.181c-8.965,0.908-17.387,1.974-24.778,2.9l-2.232,0.29
	c-15.678,1.866-26.351,3.512-26.458,3.532c-2.944,0.462-5.109,2.992-5.109,5.96v2.75c0,2.973,2.165,5.503,5.109,5.96
	c0.098,0.021,10.78,1.682,26.414,3.532l2.595,0.332c7.313,0.916,15.626,1.969,24.366,2.846c7.334,0.869,15.064,1.543,22.879,2.217
	L291.648,312.978z M394.428,254.142c-2.334-5.883-5.766-12.532-9.674-18.772c-3.689-5.819-9.539-14.489-17.607-22.452
	c-4.32-4.136-9.286-7.903-14.076-11.526c-3.473-2.638-7.047-5.342-10.392-8.214l-6.112-5.125
	c-6.055-5.086-12.02-10.102-17.797-14.662c-6.777-5.535-13.308-10.6-19.066-15.072l-2.277-1.765
	c-12.409-9.775-21.124-16.156-21.221-16.219c-2.396-1.746-5.72-1.501-7.818,0.604l-1.94,1.939c-2.106,2.107-2.373,5.436-0.616,7.833
	c0.063,0.091,6.443,8.816,16.184,21.168l1.053,1.37c4.655,6.003,9.977,12.874,15.77,19.952c4.587,5.799,9.568,11.733,14.6,17.737
	l5.289,6.308c2.814,3.279,5.524,6.854,8.146,10.323c3.634,4.802,7.392,9.76,11.603,14.125c7.902,8.01,16.573,13.865,22.424,17.591
	c7.927,4.966,14.563,7.984,18.696,9.624c4.971,2.018,8.32,2.835,8.454,2.874c0.482,0.115,0.952,0.162,1.425,0.162
	c1.587,0,3.136-0.619,4.274-1.775l1.932-1.93c1.482-1.485,2.094-3.642,1.598-5.673C397.189,262.206,396.391,258.986,394.428,254.142
	z"/>
</svg>
