<?xml version="1.0" encoding="utf-8"?>
<!-- Generator: Adobe Illustrator 16.0.0, SVG Export Plug-In . SVG Version: 6.00 Build 0)  -->
<!DOCTYPE svg PUBLIC "-//W3C//DTD SVG 1.1//EN" "http://www.w3.org/Graphics/SVG/1.1/DTD/svg11.dtd">
<svg version="1.1" id="Layer_1" xmlns="http://www.w3.org/2000/svg" xmlns:xlink="http://www.w3.org/1999/xlink" x="0px" y="0px"
	 width="841.89px" height="595.28px" viewBox="0 0 841.89 595.28" enable-background="new 0 0 841.89 595.28" xml:space="preserve">
<path fill="#010101" d="M544.364,225.415c-24.589,9.741-50.111,17.098-73.311,29.967c-13.848-25.688-30.928-49.556-42.613-76.392
	c-0.705-1.613-2.705-2.215-4.251-1.677c-0.438-0.065-0.877-0.086-1.313,0c-0.76-0.36-1.608-0.412-2.35-0.075
	c-1.039,0.326-1.959,1.106-2.251,2.214c-2.104,7.592-4.64,15.04-7.392,22.385c-0.24,0.446-0.461,0.914-0.73,1.347
	c-0.365,0.593-0.449,1.154-0.449,1.695c-7.252,18.873-15.868,37.217-22.871,56.205c-24.786-9.473-51.076-13.167-76.795-19.354
	c-3.807-0.916-5.387,3.819-2.518,5.987c11.381,8.558,19.383,20.434,29.85,29.997c11.727,10.707,23.815,21.015,35.788,31.442
	c15.286,13.294,7.097,25.758,1.509,41.662c-5.986,17.106-11.816,34.366-16.875,51.768c-0.823,2.835,2.334,5.044,4.793,3.691
	c31.34-17.127,47.342-49.568,71.426-74.463c27.476,21.275,47.929,51.308,81.488,63.904c2.637,0.992,5.445-1.649,4.242-4.331
	c-7.467-16.519-15.668-32.778-24.012-48.871c-7.771-14.97-17.631-26.147-4.37-41.465c10.396-12.012,20.915-23.907,31.005-36.167
	c9.023-10.934,15.269-23.815,25.325-33.911C550.236,228.438,548.01,223.969,544.364,225.415z M513.361,265.514
	c-7.674,9.104-15.5,18.064-23.299,27.063c-4.063,4.692-9.939,9.799-12.514,15.604c-5.127,11.618,4.93,22.96,10.021,32.758
	c7.757,14.965,15.419,30.027,22.567,45.3c-28.901-14.035-48.051-41.37-73.454-60.628c-1.011-1.605-3.292-2.49-5.039-0.76
	c-22.954,22.756-38.083,53.072-65.073,71.296c4.924-16.14,10.396-32.136,15.967-48.028c3.647-10.43,12.025-23.068,5.297-33.838
	c-3.362-5.387-9.902-9.621-14.586-13.701c-8.973-7.81-18.002-15.576-26.87-23.516c-9.099-8.123-16.759-17.691-25.435-26.174
	c22.396,4.83,44.977,8.788,66.377,17.31c0.092,0.034,0.159,0.019,0.258,0.037c0.149,0.063,0.314,0.067,0.468,0.097
	c0.251,0.039,0.512,0.096,0.726,0.072c1.285-0.023,2.566-0.691,3.109-2.227c7.334-20.597,16.756-40.365,24.503-60.771
	c3.284-5.871,4.587-12.417,6.665-18.714c2.128,3.786,4.645,7.362,6.449,11.347c0.434,0.966,1.125,1.478,1.861,1.634
	c11.105,20.86,24.416,40.515,35.423,61.477c0.749,1.429,2.106,1.908,3.386,1.747c0.228,0,0.463-0.089,0.703-0.17
	c0.154-0.047,0.323-0.081,0.457-0.148c0.091-0.051,0.164-0.035,0.266-0.087c19.971-11.438,41.783-18.547,63.262-26.481
	C527.471,245.636,521.22,256.176,513.361,265.514z M365.035,232.788c-8.431,0-8.431-13.08,0-13.08
	C373.475,219.708,373.475,232.788,365.035,232.788z M330.162,197.916c-8.42,0-8.42-13.075,0-13.075
	C338.598,184.841,338.598,197.916,330.162,197.916z M373.754,200.096c-8.43,0-8.43-13.08,0-13.08
	C382.186,187.016,382.186,200.096,373.754,200.096z M441.33,158.684c0,3.381-2.979,6.779-6.541,6.539
	c-4.874-0.336-8.602-3.725-8.719-8.72c-0.082-3.566,3.038-6.54,6.542-6.54c2.399,0,4.436,1.318,5.571,3.243
	C440.061,154.323,441.33,156.234,441.33,158.684z M478.379,224.067c-8.428,0-8.428-13.077,0-13.077
	C486.813,210.99,486.813,224.067,478.379,224.067z M502.367,171.758c-8.438,0-8.438-13.074,0-13.074
	C510.787,158.684,510.787,171.758,502.367,171.758z M574.292,230.607c-8.436,0-8.436-13.074,0-13.074
	C582.717,217.533,582.717,230.607,574.292,230.607z M524.16,309.078c-8.431,0-8.431-13.078,0-13.078
	C532.595,296,532.595,309.078,524.16,309.078z M550.304,341.768c-8.425,0-8.425-13.075,0-13.075
	C558.75,328.692,558.75,341.768,550.304,341.768z M524.41,431.396c-2.506,2.517-6.718,2.517-9.25,0
	c-0.71-0.713-1.441-1.443-2.164-2.169c-2.522-2.522-2.522-6.718,0-9.245c2.517-2.517,6.728-2.517,9.244,0
	c0.727,0.718,1.452,1.443,2.17,2.175C526.938,424.684,526.938,428.879,524.41,431.396z M439.149,378.83
	c-8.438,0-8.438-13.075,0-13.075C447.585,365.755,447.585,378.83,439.149,378.83z M395.826,440.126
	c-1.092,1.081-2.234,2.29-3.623,2.977c-1.721,0.861-3.455,1.106-5.369,1.112c-3.565,0.005-6.539-2.974-6.539-6.529
	c0-3.374,2.66-6.159,5.952-6.483c0.104-0.104,0.222-0.216,0.327-0.321c2.511-2.521,6.728-2.521,9.252,0
	C398.344,433.398,398.344,437.599,395.826,440.126z M445.685,415.888c-8.436,0-8.436-13.085,0-13.085
	C454.125,402.803,454.125,415.888,445.685,415.888z M327.987,418.07v2.172c0,3.562-2.974,6.537-6.54,6.537
	c-3.556,0-6.54-2.976-6.54-6.537v-2.172c0-3.569,2.984-6.548,6.54-6.548C325.014,411.522,327.987,414.501,327.987,418.07z
	 M273.767,233.052c-2.527,2.521-6.738,2.521-9.255,0l-2.176-2.181c-2.521-2.52-2.521-6.725,0-9.242c2.512-2.517,6.729-2.517,9.248,0
	l2.183,2.181C276.281,226.326,276.281,230.537,273.767,233.052z M325.808,304.718c0,3.556-2.969,6.54-6.54,6.54h-2.18
	c-3.562,0-6.535-2.984-6.535-6.54c0-3.562,2.974-6.54,6.535-6.54h2.18C322.839,298.178,325.808,301.156,325.808,304.718z
	 M308.37,350.487c0,3.569-2.977,6.543-6.538,6.543h-2.182c-3.557,0-6.535-2.974-6.535-6.543c0-3.562,2.979-6.532,6.535-6.532h2.182
	C305.394,343.955,308.37,346.926,308.37,350.487z M345.422,337.412c-8.432,0-8.432-13.085,0-13.085
	C353.855,324.327,353.855,337.412,345.422,337.412z"/>
</svg>
