<?xml version="1.0" encoding="utf-8"?>
<!-- Generator: Adobe Illustrator 16.0.0, SVG Export Plug-In . SVG Version: 6.00 Build 0)  -->
<!DOCTYPE svg PUBLIC "-//W3C//DTD SVG 1.1//EN" "http://www.w3.org/Graphics/SVG/1.1/DTD/svg11.dtd">
<svg version="1.1" id="Layer_1" xmlns="http://www.w3.org/2000/svg" xmlns:xlink="http://www.w3.org/1999/xlink" x="0px" y="0px"
	 width="841.89px" height="595.28px" viewBox="0 0 841.89 595.28" enable-background="new 0 0 841.89 595.28" xml:space="preserve">
<path fill="#010101" d="M332.154,433.357l88.316-53.991l88.309,53.991l-24.057-100.677l78.64-67.302l-103.187-8.224l-39.705-95.597
	l-39.707,95.597l-103.191,8.224l78.65,67.302L332.154,433.357z M383.458,291.004l20.696-1.646l7.965-19.177l8.352-20.101
	l8.345,20.101l7.971,19.177l20.696,1.646l21.692,1.727l-16.528,14.152l-15.775,13.498l4.817,20.197l5.067,21.163l-18.576-11.347
	l-17.709-10.832l-17.717,10.832l-18.564,11.347l5.052-21.163l4.833-20.197l-15.775-13.498l-16.533-14.152L383.458,291.004z"/>
</svg>
