<?xml version="1.0" encoding="utf-8"?>
<!-- Generator: Adobe Illustrator 16.0.0, SVG Export Plug-In . SVG Version: 6.00 Build 0)  -->
<!DOCTYPE svg PUBLIC "-//W3C//DTD SVG 1.1//EN" "http://www.w3.org/Graphics/SVG/1.1/DTD/svg11.dtd">
<svg version="1.1" id="Layer_1" xmlns="http://www.w3.org/2000/svg" xmlns:xlink="http://www.w3.org/1999/xlink" x="0px" y="0px"
	 width="841.89px" height="595.28px" viewBox="0 0 841.89 595.28" enable-background="new 0 0 841.89 595.28" xml:space="preserve">
<g>
	<path fill-rule="evenodd" clip-rule="evenodd" d="M295.953,413.08c-3.613,0.938-7.266,2.016-10.947,2.271
		c-14.017,0.992-27.59-0.896-40.412-7.002c-0.566-0.274-1.198-0.429-2.248-0.783c-0.686,1.261-1.389,2.473-2.021,3.715
		c-5.955,11.693-14.681,21.014-24.954,28.948c-3.848,2.956-8.104,3.858-12.777,1.376c-2.37-1.256-3.795-2.935-4.417-5.451
		c-2.353-9.537-3.512-19.182-2.563-29.012c0.449-4.662,0.935-9.322,1.43-14.341c-1.44,0-2.516-0.081-3.592,0.021
		c-10.799,1.052-21.009-1.107-30.838-5.535c-4.207-1.896-7.248-4.772-9-9.302c10.941-16.759,27.045-26.14,45.445-31.563
		c0-7.391-0.375-14.069,0.095-20.693c0.551-7.918,1.704-15.811,2.864-23.68c0.323-2.188,1.3-4.389,2.414-6.331
		c1.898-3.315,4.092-3.994,7.301-1.916c4.091,2.632,8.137,5.448,11.723,8.71c8.701,7.908,16.662,16.497,22.395,26.88
		c1.232,2.232,2.783,2.836,5.141,2.624c4.852-0.428,9.715-0.775,14.59-0.986c8.18-0.342,15.717,1.895,22.867,5.798
		c2.021,1.107,2.123,2.616,1.911,4.46c-0.593,5.067-1.95,9.934-4.72,14.238c-4.137,6.41-8.451,12.691-12.883,19.313
		c0.705,0.585,1.63,1.438,2.622,2.188c7.072,5.353,13.236,11.54,18.054,19.018c2.504,3.879,4.028,8.086,4.971,12.612
		C298.938,411.208,298.065,412.531,295.953,413.08z M672.68,338.798c2.935-7.485,2.311-8.981-5.016-12.44
		c-11.672-5.514-23.555-5.417-35.443-0.52c-1.449,0.598-2.872,1.262-4.475,1.969c-6.656-15.409-17.258-26.847-31.408-36.019
		c-9.509,14.639-9.535,30.601-7.532,46.579c-0.886,0.371-1.183,0.593-1.483,0.604c-1.947,0.047-3.905-0.063-5.84,0.08
		c-11.551,0.867-21.471,4.924-28.463,14.654c-2.418,3.368-2.449,4.557,0.852,7.309c6.428,5.37,13.57,9.563,21.875,11.31
		c2.494,0.527,5.12,0.462,8.1,0.702c0.07,1.172,0.166,1.804,0.143,2.438c-0.25,6.974-0.707,13.946-0.726,20.915
		c-0.011,4.412,1.011,8.743,3.512,12.516c2.503,3.758,4.838,4.527,8.532,1.948c4.764-3.345,9.586-6.838,13.521-11.062
		c4.224-4.554,7.453-10.033,11.252-15.303c0.736,0.682,1.726,1.703,2.82,2.616c3.854,3.243,7.586,6.649,11.639,9.616
		c5.477,3.996,11.693,6.409,18.463,7.122c7.783,0.827,9.441-0.797,9.793-8.679c0.424-9.637-2.587-18.23-7.717-26.226
		c-1.381-2.151-2.807-4.258-4.326-6.558c1.044-0.554,1.754-0.938,2.453-1.313C662.511,356.092,668.892,348.492,672.68,338.798z
		 M513.262,154.664c-3.456-5.885-8.388-10.328-14.076-13.946c-2.449-1.559-5.047-2.872-7.41-4.206
		c1.18-5.423,2.557-10.595,3.389-15.863c1.047-6.621,0.836-13.315-0.733-19.86c-0.613-2.551-0.972-5.559-4.885-6.804
		c-5.086,3.031-10.696,5.971-15.845,9.571c-5.159,3.618-9.846,7.887-14.771,11.89c-0.734-0.371-1.324-0.624-1.877-0.948
		c-9.953-5.9-20.877-7.921-32.265-7.843c-4.554,0.023-6.559,2.301-5.188,6.559c1.48,4.576,3.547,9.086,6.081,13.166
		c2.083,3.368,5.222,6.067,8.07,9.258c-1.097,0.52-2.228,1.055-3.357,1.58c-7.877,3.654-15.169,8.247-21.307,14.396
		c-4.94,4.952-4.183,8.394,2.227,10.899c6.608,2.591,13.511,3.614,20.587,2.711c4.641-0.593,9.242-1.527,14.145-2.363
		c0.42,0.977,0.93,2.146,1.441,3.321c2.289,5.269,5.445,9.968,9.521,14.035c3.691,3.692,8.047,5.869,13.393,6.198
		c1.878,0.115,3.301-0.115,4.196-1.619c1.905-3.18,3.966-6.344,5.313-9.762c1.352-3.422,1.913-7.141,2.871-10.938
		c1.313,0,2.593-0.128,3.83,0.026c8.245,1.033,16.208-0.348,24.051-2.677C514.993,160.149,515.541,158.575,513.262,154.664z
		 M100.494,462.432c0.994-0.365,2.055-0.624,2.984-1.106c22.58-11.788,43.234-26.5,63.484-41.82c1.673-1.266,3.2-2.762,4.715-4.229
		c0.512-0.512,0.799-1.261,1.768-2.869c-2.146,0.53-3.402,0.593-4.416,1.12c-24.992,13.124-47.855,29.316-69.031,47.888
		C100.162,461.75,100.33,462.095,100.494,462.432z M724.381,446.48c-0.375-0.778-0.598-1.692-1.146-2.324
		c-12.23-13.916-25.369-26.912-39.83-38.52c-2.523-2.021-5.286-3.76-8.069-5.428c-0.909-0.546-2.193-0.451-4.543-0.877
		c1.358,2.676,1.933,4.331,2.94,5.66c1.469,1.919,3.153,3.72,4.918,5.37c8.32,7.741,16.521,15.6,25.105,23.03
		c5.133,4.44,10.855,8.2,16.38,12.168c1.063,0.766,2.431,1.112,3.663,1.655C723.994,446.971,724.188,446.73,724.381,446.48z
		 M299.621,532.853c-0.707-2.995-1.362-6.01-2.234-8.966c-8.414-28.621-21.686-55.349-32.613-82.994
		c-0.223-0.566-0.742-1.028-1.142-1.514c-0.091-0.107-0.303-0.145-0.457-0.145c-0.146-0.01-0.298,0.082-1.128,0.366
		c0.068,1.449-0.172,3.198,0.309,4.72c1.676,5.256,3.406,10.504,5.477,15.626c6.727,16.729,13.59,33.413,20.428,50.106
		c2.717,6.613,5.467,13.211,8.252,19.797c0.604,1.405,1.429,2.708,2.321,4.379C299.342,533.361,299.668,533.064,299.621,532.853z
		 M183.463,215.665c-1.016,3.556,0.303,6.974,1.336,10.245c4.947,15.636,10.072,31.212,15.164,46.788
		c0.404,1.227,0.877,2.493,1.626,3.514c0.501,0.674,1.81,1.48,2.29,1.256c0.83-0.394,1.848-1.579,1.816-2.386
		c-0.094-2.24-0.496-4.53-1.127-6.687c-3.711-12.62-7.441-25.233-11.342-37.794c-1.002-3.227-2.441-6.375-4.047-9.359
		c-1.198-2.222-2.979-4.109-4.5-6.148C184.277,215.281,183.875,215.475,183.463,215.665z M542.216,369.209
		c-7.944,0.261-15.929,0.336-23.825,1.188c-11.766,1.281-23.469,3.125-35.187,4.809c-1.102,0.154-2.112,0.875-3.161,1.337
		c0.057,0.399,0.111,0.804,0.175,1.193c1.991,0.261,3.983,0.665,5.976,0.757c16.307,0.755,32.4-1.78,48.545-3.339
		c3.217-0.313,6.451-0.733,9.629-1.387c1.399-0.29,2.666-1.256,4.35-2.089C546.521,368.649,544.216,369.141,542.216,369.209z
		 M368.213,442.318c-0.844-0.713-1.633-1.467-2.507-2.123c-5.729-4.258-11.353-8.67-17.233-12.698
		c-8.295-5.668-16.697-11.198-25.244-16.472c-2.979-1.844-6.501-2.83-9.846-4.031c-1.482-0.535-3.18-0.963-4.605,1.384
		c12.373,8.211,24.644,16.561,37.131,24.563c6.785,4.345,14.109,7.718,21.734,10.349
		C367.826,442.963,368.02,442.643,368.213,442.318z M681.904,350.105c1.42,0.872,2.748,2.041,4.291,2.532
		c2.306,0.726,4.742,1.144,7.151,1.404c15.336,1.646,30.494,0.476,45.503-2.999c0.925-0.212,1.742-0.896,2.621-1.355
		c-19-2.167-37.819-1.744-56.635-1.785c-0.861-0.006-1.724,0.587-2.585,0.897C682.136,349.233,682.016,349.677,681.904,350.105z
		 M358.709,307.654c-0.893,0.264-1.814,0.451-2.671,0.827c-16.905,7.295-32.82,16.398-48.049,26.7
		c-3.052,2.065-5.621,4.885-8.263,7.498c-0.648,0.646-0.731,1.856-1.082,2.814c0.246,0.223,0.499,0.444,0.75,0.666
		c19.58-13.158,41.264-22.931,59.875-37.64C359.08,308.23,358.896,307.936,358.709,307.654z M249.58,301.759
		c6.285-1.992,55.905-44.175,58.934-50.514c-1.997,1.306-3.504,2.162-4.874,3.217c-11.681,9.007-23.479,17.899-34.974,27.157
		c-5.794,4.668-11.1,9.971-16.529,15.082c-1.324,1.246-2.298,2.883-3.428,4.34C249.004,301.283,249.296,301.523,249.58,301.759z
		 M392.156,147.586c-14.618-2.276-29.344-3.433-44.136-3.556c-2.104-0.021-4.217,0.36-6.29,0.726
		c-0.775,0.134-1.461,0.773-3.24,1.771c2.875,0.588,4.574,1.034,6.295,1.256c10.462,1.396,20.921,2.807,31.406,4.052
		c4.344,0.515,8.742,0.805,13.115,0.875c2.658,0.039,5.52-0.014,8.019-3.517C395.145,148.5,393.684,147.826,392.156,147.586z
		 M634.611,471.889c0-1.098,0.016-2.193,0-3.287c-0.217-15.099-1.809-30.079-4.091-44.992c-0.315-2.044,0.313-5.501-2.786-5.222
		c-2.751,0.251-2.271,3.543-2.111,5.702c1.067,14.884,2.689,29.695,6.381,44.201c0.331,1.32,0.843,2.592,1.284,3.887
		C633.727,472.076,634.168,471.99,634.611,471.889z M534.311,273.04c0.428,0.953,0.699,2.011,1.309,2.825
		c2.311,3.127,4.508,6.381,7.145,9.224c6.496,7.018,13.146,13.892,19.869,20.688c1.744,1.757,3.801,3.465,7.508,3.021
		c-0.93-1.662-1.383-3.025-2.271-3.983c-10.443-11.231-20.641-22.717-32.399-32.601C535.084,272.492,534.699,272.766,534.311,273.04
		z M213.027,450.35c-0.813,2.031-1.755,4.01-2.428,6.082c-2.972,9.253-5.645,18.607-8.836,27.795
		c-3.08,8.877-6.665,17.578-9.98,26.379c-0.357,0.92-0.41,1.953-0.736,3.624c7.185-8.263,18.931-37.741,23.492-59.538
		c0.273-1.277,0.17-2.633,0.237-3.956C214.201,450.605,213.609,450.479,213.027,450.35z M466.018,61.339
		c-3.529,11.266-5.002,22.834-4.77,34.608c0.028,1.4,0.969,2.786,1.54,4.34c3.739-1.588,3.95-4.605,4.389-7.154
		c1.685-9.963,2.671-19.99,1.117-30.081c-0.146-0.866-0.535-1.7-0.94-2.945C466.469,60.911,466.104,61.078,466.018,61.339z
		 M678.502,261.362c-11.673,8.968-21.85,19.4-30.477,31.34c-0.637,0.88-0.762,2.141-1.227,3.517c3.702,0.308,5.574-1.679,7.242-3.53
		c6.624-7.354,13.133-14.821,19.581-22.343c2.298-2.689,4.274-5.64,6.882-9.096C679.1,261.313,678.695,261.213,678.502,261.362z
		 M553.014,148.907c-0.49-0.35-0.945-0.893-1.488-1.023c-9.781-2.345-19.57-4.679-29.376-6.895c-1.381-0.313-2.944-0.17-4.35,0.122
		c-0.81,0.17-1.872,0.959-2.07,1.677c-0.188,0.715,0.318,2.065,0.948,2.464c1.613,1.039,3.383,2.055,5.236,2.455
		c4.115,0.869,8.301,1.718,12.49,1.937c6.131,0.324,12.287,0.089,18.422,0.089C552.895,149.453,552.946,149.185,553.014,148.907z
		 M524.416,92.945c-6.93,3.864-14.318,7.153-19.725,13.545c1.992,0.159,3.814-0.053,5.445-0.731
		c15.615-6.529,33.494-17.048,36.424-21.327C542.547,84.076,536.336,86.309,524.416,92.945z M100.256,348.604
		c6.883,2.604,14.052,4.36,21.064,6.608c7.111,2.29,14.094,4.971,21.14,7.478c0.235-0.36,0.47-0.724,0.708-1.078
		c-1.07-1.306-1.951-2.883-3.279-3.836c-2.348-1.699-4.869-3.264-7.506-4.456c-8.104-3.677-16.746-5.086-25.547-5.687
		c-2.136-0.148-4.281-0.028-6.426-0.028C100.358,347.936,100.314,348.272,100.256,348.604z M359.533,188.68
		c1.283-0.543,2.611-0.976,3.828-1.631c9.863-5.332,19.706-10.702,29.541-16.086c1.234-0.673,2.768-1.237,2.353-3.166
		c-2.93-1.107-3.681-1.301-6.428-0.181c-10.804,4.41-20.489,10.621-29.021,18.576c-0.429,0.394-0.646,1.016-0.964,1.53
		C359.074,188.041,359.31,188.356,359.533,188.68z M570.303,426.658c-5.914,9.88-11.795,19.78-17.631,29.701
		c-0.342,0.574-0.261,1.386-0.473,2.687c1.129-0.666,1.814-0.867,2.162-1.318c5.039-6.546,10.205-12.997,14.944-19.748
		c1.812-2.596,2.687-5.861,3.861-8.874c0.535-1.381,0.812-2.883-1.193-3.893C571.454,425.648,570.684,426.04,570.303,426.658z
		 M637.768,257.551c-0.937,0.566-1.91,0.855-2.42,1.501c-3.3,4.172-6.774,8.242-9.615,12.714c-1.76,2.794-2.613,6.206-3.647,9.412
		c-0.538,1.663-0.749,3.538,1.603,4.841C627.693,282.569,637.557,262.743,637.768,257.551z M430.143,216.389
		c4.504-9.347,9-18.706,13.365-28.113c0.629-1.357,1.008-3.047-0.285-4.48c-5.9,4.332-15.176,25.648-14.654,33.725
		C429.205,217.08,429.91,216.851,430.143,216.389z M247.594,471.225c0-0.757,0.092-1.521-0.016-2.253
		c-1.12-7.71-2.271-15.417-3.459-23.121c-0.178-1.112-0.385-2.334-0.977-3.242c-0.535-0.844-1.66-1.888-2.446-1.82
		c-0.841,0.073-1.969,1.206-2.256,2.112c-0.387,1.154-0.303,2.604,0.005,3.817c1.53,5.966,3.104,11.934,4.864,17.837
		c0.729,2.412,1.974,4.668,2.983,6.991C246.732,471.447,247.166,471.335,247.594,471.225z M587.26,260.043
		c0.666,3.768,0.998,7.643,2.094,11.279c1.016,3.367,2.744,6.551,4.404,9.678c0.424,0.783,2.232,1.721,2.65,1.439
		c0.885-0.594,1.694-1.878,1.804-2.961c0.142-1.381-0.188-2.945-0.755-4.234c-1.642-3.688-3.383-7.34-5.307-10.88
		c-0.948-1.747-1.729-3.788-3.664-4.77C588.074,259.74,587.67,259.895,587.26,260.043z M426.543,179.428
		c0.668-0.731,0.952-1.814,1.378-2.647c-1.838-1.747-3.303-0.885-4.735-0.183c-5.791,2.843-15.822,12.857-18.052,18.286
		C409.943,193.325,421.48,184.941,426.543,179.428z M169.093,289.133c0.323,0.846,0.478,1.822,1.008,2.501
		c3.117,3.942,6.308,7.825,9.519,11.694c0.499,0.61,1.154,1.303,1.875,1.512c1.284,0.373,3.002,1.01,3.947,0.485
		c1.691-0.958,0.687-2.788-0.209-3.802c-2.891-3.245-5.851-6.482-9.099-9.37c-1.819-1.616-4.259-2.521-6.425-3.743
		C169.502,288.65,169.301,288.891,169.093,289.133z M494.875,211.88c-1.444-9.177-4.384-17.882-8.389-26.236
		c-0.332-0.688-1.357-1.039-2.227-1.671c-0.685,5.679,5.701,24.038,10.152,29.268C494.676,212.475,494.914,212.159,494.875,211.88z
		 M672.505,309.014c-0.441,0.638-0.248,1.705-0.431,3.303c9.44-2.367,15.258-8.642,22.139-15.038
		C687.726,297.976,675.424,304.813,672.505,309.014z M434.238,83.826c1.818,3.686,2.275,8.219,6.047,11.448
		c1.99-8.812-3.26-20.106-10.748-23.338C430.475,76.406,432.42,80.124,434.238,83.826z M127.801,401.619
		c6.939-2.277,13.855-4.624,20.756-7.002c0.89-0.309,1.696-0.873,2.871-1.483c-3.436-1.919-3.436-1.919-4.937-1.64
		c-6.964,1.273-18.179,6.404-21.027,9.801C126.385,401.441,127.195,401.82,127.801,401.619z M602.93,430.424
		c-0.055-1.146-1.357-2.225-2.086-3.34c-0.883,0.833-1.852,1.593-2.627,2.518c-0.375,0.451-0.412,1.211-0.571,1.832
		c-1.401,5.554-0.997,11.141-0.102,16.793C601.019,442.689,603.223,436.872,602.93,430.424z M550.213,330.016
		c0.809,0.193,2.467-0.577,2.694-1.256c0.251-0.742-0.655-1.911-1.13-2.854c-0.126-0.251-0.486-0.405-0.775-0.564
		c-5.418-2.984-11.164-3.545-17.25-1.958C538.827,326.801,544.438,328.647,550.213,330.016z M298.494,368.631
		c-0.664,0.27-1.034,1.271-1.992,2.522c9.25,1.387,16.367-2.146,23.335-6.281C312.44,364.802,305.297,365.875,298.494,368.631z
		 M511.273,122.145c-1.246,0.399-2.559,0.687-2.24,3.138c7.027,2.332,13.486-0.175,21.09-2.979
		C525.546,120.34,516.563,120.484,511.273,122.145z M157.01,323.766c4.992,8.646,11.626,13.962,16.443,13.174
		C170.659,330.631,161.774,323.515,157.01,323.766z M514.662,66.893c-6.718,4.365-11.127,10.108-16.146,15.158
		c-0.663,0.668-0.812,1.843-1.524,3.595C502.871,84.014,512.949,73.2,514.662,66.893z M568.037,396.689
		c0.404-0.431,0.501-1.77,0.143-2.164c-0.543-0.605-1.563-0.953-2.438-1.084c-0.549-0.075-1.267,0.313-1.768,0.68
		c-3.713,2.652-6.852,5.832-8.83,10.205C560.766,403.908,564.499,400.426,568.037,396.689z M506.723,185.197
		c-2.363-7.595-8.423-14.438-13.182-14.479C494.95,176.005,502.305,183.937,506.723,185.197z M289.898,298.49
		c-6.205,3.153-11.158,6.785-15.017,13.403C280.715,310.787,288.74,303.461,289.898,298.49z M682.011,374.777
		c-1.642-0.228-3.452,0.034-3.83,2.044c-0.366,1.833,1.216,2.444,2.603,2.935c3.42,1.193,6.861,1.037,11.365,0.175
		C688.699,376.803,685.585,375.263,682.011,374.777z M467.777,191.447c-2.705,0.058-3.518,1.4-3.699,3.089
		c-0.426,4.039-0.301,7.983,3.443,10.968C468.684,200.773,468.615,196.168,467.777,191.447z M650.102,420.693
		c-0.867,4.367,2.379,9.325,9.297,13.675C656.983,426.486,653.796,421.931,650.102,420.693z M302.671,434.432
		c-2.888-4.457-5.188-8.666-10.903-10.775C292.5,429.327,297.225,433.836,302.671,434.432z M400.09,128.429
		c5.154,1.968,9.49,4.183,15.271,4.273C412.178,127.864,406.006,126.142,400.09,128.429z M177.312,452.197
		c3.856-4.359,6.083-8.668,6.281-13.941C180.061,441.188,177.285,447.517,177.312,452.197z"/>
	<path fill-rule="evenodd" clip-rule="evenodd" fill="#F8BF15" d="M202.526,382.729c-3.958,0.646-2.775,4.524-5.42,6.392
		c-12.03-2.271-24.837-3.329-36.198-9.885c2.973-8.189,32.621-27.995,41.717-28.201c1.703-2.877,1.515-6.156,1.703-9.371
		c0.627-10.711,1.188-21.424,2.01-32.115c0.251-3.311,1.262-6.568,2.053-10.475c1.736,1.134,2.9,1.669,3.77,2.515
		c6.504,6.362,12.994,12.738,19.385,19.21c3.193,3.246,6.198,6.676,9.245,10.055c0.749,0.822,1.88,1.726,1.942,2.66
		c0.24,3.295,2.637,3.47,4.861,3.545c4.06,0.137,8.135-0.033,12.197-0.119c7.666-0.149,15.289,0.193,22.727,2.271
		c1.039,0.295,2.031,0.77,3.393,1.3c-0.869,1.736-1.504,3.214-2.318,4.577c-4.682,7.813-9.293,15.662-14.189,23.343
		c-1.204,1.89-3.334,3.19-5.656,5.325c0.343,0.578,0.844,1.901,1.736,2.838c1.677,1.763,3.525,3.374,5.395,4.936
		c8.696,7.271,15.699,15.998,22.04,25.311c0.331,0.486,0.496,1.087,0.901,2.011c-13.715,0.731-26.951,0.713-39.912-3.114
		c-2.801-0.83-5.631-1.621-8.484-2.262c-2.309-0.524-3.911-0.063-5.777,2.128c-7.789,9.161-15.997,17.954-24.148,26.808
		c-1.637,1.775-3.6,3.287-5.519,4.777c-1.757,1.371-3.733,1.959-6.329,0.617c-0.308-1.611-0.799-3.483-0.992-5.384
		c-1.295-12.325-1.621-24.644,0.16-36.966c0.443-3.047,0.524-6.151,0.571-9.234C203.404,385.074,202.845,383.915,202.526,382.729z
		 M572.214,365.504c5.326,2.266,10.966,3.663,17.631,1.64c-0.914,13.962-2.78,27.397,1.339,41.172
		c5.611-4.339,10.754-8.558,14.787-13.809c4.076-5.313,7.502-11.111,11.582-17.257c5.188,3.579,10.318,6.968,15.283,10.576
		c6.115,4.446,12.529,8.211,20.135,9.398c1.337,0.206,2.73,0.034,4.482,0.034c-0.139-2.329,0.082-4.188-0.412-5.827
		c-1.643-5.434-3.355-10.854-5.391-16.141c-1.338-3.475-3.397-6.66-4.916-10.077c-0.752-1.668-1.027-3.551-1.523-5.35
		c7.459-1.819,20.646-16.921,23.57-26.505c-0.326-0.289-0.631-0.713-1.044-0.882c-8.79-3.507-17.847-4.966-27.226-3.107
		c-3.827,0.749-7.582,1.862-11.338,2.906c-1.998,0.563-3.363,0.144-4.538-1.674c-1.741-2.738-3.743-5.318-5.61-7.989
		c-5.885-8.391-12.809-15.879-20.494-23.689c-0.811,3.127-1.791,5.699-2.094,8.338c-0.988,8.389-1.713,16.807-2.57,25.208
		c-0.404,3.968-1.078,7.949,2.09,11.848c-7.593,0.616-14.582,0.663-21.357,1.861c-6.986,1.237-12.766,5.273-18.936,10.924
		C561.82,360.27,566.872,363.232,572.214,365.504z M473.644,176.394c1.358-4.994,2.838-9.983,3.763-15.069
		c0.705-3.913,0.757-4.234,4.77-4.102c4.548,0.146,9.104,0.301,13.646,0.112c2.945-0.12,5.861-0.872,9.398-1.436
		c-3.623-5.07-7.811-8.094-12.098-11.005c-2.58-1.746-5.01-3.984-9.645-1.392c3.551-14.607,8.297-27.898,4.879-42.796
		c-3.866,2.786-7.164,5.109-10.383,7.512c-3.264,2.43-6.362,5.08-9.707,7.386c-3.258,2.256-5.645,5.798-9.584,6.944
		c-5.603-4.958-23.469-10.062-33.277-9.445c2.031,4.605,4.447,8.779,7.459,12.563c3.053,3.822,5.415,8.378,11.607,10.49
		c-3.561,2.078-6.174,3.58-8.748,5.136c-6.796,4.128-13.607,8.247-20.356,12.453c-1.114,0.692-1.966,1.799-3.295,3.047
		c12.684,4.721,24.735,1.413,37.183,0.802c4.846,10.221,11.175,19.518,22.002,25.596
		C472.152,180.668,473.051,178.579,473.644,176.394z"/>
</g>
</svg>
