<?xml version="1.0" encoding="utf-8"?>
<!-- Generator: Adobe Illustrator 16.0.0, SVG Export Plug-In . SVG Version: 6.00 Build 0)  -->
<!DOCTYPE svg PUBLIC "-//W3C//DTD SVG 1.1//EN" "http://www.w3.org/Graphics/SVG/1.1/DTD/svg11.dtd">
<svg version="1.1" id="Layer_1" xmlns="http://www.w3.org/2000/svg" xmlns:xlink="http://www.w3.org/1999/xlink" x="0px" y="0px"
	 width="841.89px" height="595.28px" viewBox="0 0 841.89 595.28" enable-background="new 0 0 841.89 595.28" xml:space="preserve">
<path id="XMLID_20_" fill="#010101" d="M630.666,297.77c0-3.841-23.296-7.315-60.993-9.832c-0.011-0.248-0.021-0.441-0.031-0.692
	c0-3.436-0.579-7.637-1.374-12.589c-0.414-2.457-0.649-5.139-1.219-7.945c-0.663-2.791-1.375-5.748-2.127-8.871
	c-3.387-12.331-8.295-27.458-18.044-42.746c-9.532-15.239-22.982-31.304-41.509-44.123c-18.479-12.659-41.697-22.28-67.413-24.982
	c-2.535-0.392-5.114-0.426-7.699-0.524c-2.496-35.734-5.88-57.701-9.608-57.701c-3.735,0-7.113,22.059-9.607,57.931
	c-4.078,0.27-8.188,0.637-12.443,1.557c-13.549,1.913-26.557,6.451-39.279,12.14c-12.703,5.804-24.35,13.979-35.422,22.928
	c-10.885,9.292-20.234,20.38-28.534,32.285c-8.091,12.099-14.322,25.479-18.918,39.483c-3.482,10.999-5.548,22.413-6.592,33.977
	c-36.624,2.509-59.213,5.924-59.213,9.707c0,3.757,22.43,7.169,58.848,9.686c0.598,11.574,2.237,23.268,5.359,34.483
	c4.365,14.229,10.415,27.936,18.401,40.396c8.234,12.266,17.931,23.433,28.953,32.896c11.232,9.161,23.262,17.213,36.217,22.931
	c12.934,5.629,26.361,9.887,39.889,11.475c4.263,0.824,8.555,1.104,12.795,1.295c2.512,35.229,5.861,56.844,9.547,56.844
	c3.7,0,7.055-21.625,9.557-56.892c2.531-0.125,5.027-0.183,7.623-0.587c26.205-3.031,49.13-12.767,67.677-25.552
	c18.489-12.911,31.917-28.982,41.444-44.256c9.773-15.288,14.594-30.452,18.079-42.762c0.771-3.131,1.491-6.086,2.175-8.866
	c0.582-2.802,0.832-5.493,1.217-7.947c0.768-4.945,1.32-9.151,1.289-12.61c0.021-0.261,0.021-0.449,0.039-0.713
	C607.394,305.074,630.666,301.6,630.666,297.77z M437.105,153.528c24.277,3.259,46.369,11.639,64.404,23.218
	c18.002,11.67,32.111,26.02,42.154,40.459c10.213,14.383,16.177,28.889,19.748,41.047c0.852,3.081,1.645,5.981,2.396,8.721
	c0.648,2.746,0.961,5.398,1.384,7.829c0.825,4.875,1.437,9.047,1.473,12.487c0.011,0.217,0.021,0.379,0.039,0.583
	c-34.901-2.306-81.905-3.802-134.126-4.023c-0.223-50.623-1.621-96.322-3.82-130.855
	C432.889,153.085,435.027,153.168,437.105,153.528z M279.617,255.044c4.315-13.738,10.247-26.943,18.035-38.917
	c8.049-11.785,17.641-22.332,28.361-31.277c10.904-8.701,22.736-15.985,35.248-21.092c12.482-4.922,25.397-8.791,38.088-10.028
	c3.619-0.652,7.416-0.852,11.206-0.966c-2.192,34.559-3.608,80.347-3.825,131.085c-51.354,0.222-97.641,1.663-132.346,3.905
	C275.02,276.716,276.628,265.717,279.617,255.044z M362.152,429.755c-12.266-5.188-23.696-12.6-34.449-21.082
	c-10.572-8.759-19.83-19.239-27.938-30.672c-7.893-11.612-13.999-24.499-18.553-37.986c-3.347-10.467-5.367-21.192-6.433-32.212
	c34.652,2.227,80.796,3.657,131.951,3.887c0.217,50.201,1.611,95.54,3.768,129.984C394.268,440.428,377.893,436.507,362.152,429.755
	z M568.6,308.23c-0.063,3.418-0.697,7.584-1.568,12.464c-0.439,2.434-0.742,5.075-1.377,7.843c-0.732,2.729-1.516,5.645-2.344,8.71
	c-3.494,12.189-9.527,26.653-19.715,41.034c-10.062,14.416-24.17,28.755-42.203,40.328c-17.98,11.456-40.375,19.725-64.173,22.654
	c-2.117,0.242-4.263,0.362-6.409,0.506c2.156-34.454,3.545-79.84,3.768-130.08c52.182-0.229,99.176-1.723,134.051-4.013
	C568.618,307.876,568.607,308.02,568.6,308.23z"/>
</svg>
