<?xml version="1.0" encoding="utf-8"?>
<!-- Generator: Adobe Illustrator 16.0.0, SVG Export Plug-In . SVG Version: 6.00 Build 0)  -->
<!DOCTYPE svg PUBLIC "-//W3C//DTD SVG 1.1//EN" "http://www.w3.org/Graphics/SVG/1.1/DTD/svg11.dtd">
<svg version="1.1" id="Layer_1" xmlns="http://www.w3.org/2000/svg" xmlns:xlink="http://www.w3.org/1999/xlink" x="0px" y="0px"
	 width="841.89px" height="595.28px" viewBox="0 0 841.89 595.28" enable-background="new 0 0 841.89 595.28" xml:space="preserve">
<path fill="#010101" d="M461.428,189.795l-73.893,29.794l21.292-76.769l-51.17-61.059l79.593-3.473l42.265-67.541l27.896,74.623
	l77.288,19.328l-62.348,49.595l5.505,79.471L461.428,189.795z M367.24,467.069l-11.257,12.933l-17.033-1.943l8.824,14.699
	l-7.109,15.6l16.703-3.84l12.641,11.58l1.51-17.079l14.92-8.44l-15.777-6.708L367.24,467.069z M379.899,343.32l-13.695,15.269
	l-20.349-2.631l10.292,17.752l-8.79,18.537l20.061-4.304l14.918,14.088l2.107-20.41l18.001-9.833l-18.758-8.31L379.899,343.32z
	 M387.936,282.087l8.062,9.855l-3.55,12.229l11.871-4.622l10.531,7.16l-0.73-12.718l10.061-7.8l-12.313-3.238l-4.318-11.985
	l-6.879,10.716L387.936,282.087z M426.667,235.886l-7.553,10.07l-12.577-0.512l7.251,10.296l-4.367,11.804l12.025-3.714l9.873,7.805
	l0.193-12.586l10.468-6.974l-11.909-4.07L426.667,235.886z M440.712,213.364l-3.103,5.426l-6.217,0.523l4.197,4.62l-1.418,6.082
	l5.688-2.572l5.339,3.234l-0.678-6.207l4.722-4.081l-6.11-1.265L440.712,213.364z M364.379,431.079l-6.531,10.392l-12.27,0.507
	l7.865,9.426l-3.305,11.828l11.397-4.566l10.221,6.792l-0.826-12.249l9.627-7.618l-11.903-3.004L364.379,431.079z M349.938,543.558
	l-2.064,14.032l-12.732,6.254l12.708,6.299l2.016,14.041l9.915-10.139l13.977,2.425l-6.575-12.568l6.62-12.539l-13.983,2.369
	L349.938,543.558z M404.17,324.293l-6.204,10.203l-11.924,0.682l7.796,9.054l-3.045,11.556l11.019-4.617l10.05,6.462l-0.987-11.901
	l9.256-7.561l-11.624-2.742L404.17,324.293z M438.508,501.003l-3.625,18.038l-16.92,7.254l16.044,9.024l1.66,18.328l13.535-12.471
	l17.944,4.087l-7.674-16.732l9.43-15.807l-18.28,2.131L438.508,501.003z M447.292,471.061l-3.225,6.687l-7.34,1.127l5.364,5.136
	l-1.191,7.335l6.538-3.515l6.606,3.395l-1.322-7.302l5.269-5.229l-7.347-1.001L447.292,471.061z M449.35,413.723l-5.346,10.479
	l-11.667,1.527l8.311,8.329l-2.147,11.565l10.482-5.33l10.34,5.615l-1.825-11.62l8.531-8.09l-11.617-1.854L449.35,413.723z
	 M457.66,387.934l-4.832,4.991l-6.85-1.143l3.258,6.131l-3.205,6.165l6.838-1.2l4.865,4.949l0.972-6.872l6.217-3.102l-6.243-3.046
	L457.66,387.934z M463.461,349.876l-6.314,9.12l-11.09-0.038l6.726,8.826l-3.462,10.535l10.467-3.67l8.951,6.549l-0.252-11.086
	l8.986-6.497l-10.617-3.182L463.461,349.876z M467.653,303.66l-4.598,12.07l-12.554,3.054l10.061,8.104l-0.976,12.884l10.817-7.063
	l11.944,4.903l-3.372-12.464l8.361-9.849l-12.9-0.645L467.653,303.66z M464.812,276.646l0.441,6.458l-5.063,4.028l6.278,1.572
	l2.27,6.066l3.438-5.485l6.467-0.286l-4.156-4.965l1.731-6.241l-6.009,2.425L464.812,276.646z M477.424,240.616l-5.68,3.849
	l-6.394-2.493l1.906,6.593l-4.348,5.306l6.857,0.225l3.707,5.779l2.334-6.453l6.638-1.734l-5.415-4.217L477.424,240.616z
	 M474.592,222.646l-1.089,3.136l-3.191,0.886l2.64,1.996l-0.142,3.319l2.718-1.903l3.106,1.167l-0.964-3.171l2.067-2.595
	l-3.315-0.066L474.592,222.646z M273.487,426.615l-5.458,8.884l-10.413,0.532l6.764,7.946l-2.711,10.059l9.64-3.973l8.738,5.687
	l-0.808-10.396l8.107-6.551l-10.127-2.446L273.487,426.615z M282.1,383.116l-7.449,12.259l-14.312,0.814l9.353,10.872l-3.645,13.865
	l13.225-5.543l12.064,7.756l-1.185-14.282l11.111-9.082l-13.961-3.296L282.1,383.116z M291.269,348.346l-8.507,8.27l-11.633-2.314
	l5.236,10.64l-5.796,10.355l11.74-1.698l8.057,8.719l2.018-11.691l10.768-4.967l-10.486-5.537L291.269,348.346z M306.772,307.616
	l-7.055,10.923l-13,0.381l8.208,10.085l-3.647,12.487l12.127-4.693l10.743,7.33l-0.715-12.989l10.291-7.945l-12.572-3.335
	L306.772,307.616z M329.554,266.417l-6.521,6.181l-8.781-1.865l3.862,8.106l-4.488,7.773l8.905-1.17l6.001,6.675l1.646-8.83
	l8.2-3.652l-7.89-4.288L329.554,266.417z M354.517,227.719l-5.933,7.793l-9.785-0.478l5.575,8.055l-3.473,9.16l9.379-2.813
	l7.634,6.13l0.228-9.788l8.193-5.366l-9.241-3.243L354.517,227.719z M372.526,193.833l-3.747,3.052l-4.633-1.351l1.748,4.498
	l-2.717,3.993l4.821-0.27l2.958,3.823l1.232-4.675l4.544-1.624l-4.053-2.618L372.526,193.833z M379.038,226.207l-4.167,4.184
	l-5.813-1.069l2.688,5.262l-2.811,5.19l5.83-0.926l4.082,4.281l0.914-5.84l5.331-2.547l-5.269-2.677L379.038,226.207z
	 M355.314,405.02l-2.894,5.408l-6.095,0.677l4.246,4.43l-1.238,6.004l5.523-2.669l5.333,3.032l-0.838-6.077l4.527-4.13l-6.031-1.087
	L355.314,405.02z"/>
</svg>
