<?xml version="1.0" encoding="utf-8"?>
<!-- Generator: Adobe Illustrator 16.0.0, SVG Export Plug-In . SVG Version: 6.00 Build 0)  -->
<!DOCTYPE svg PUBLIC "-//W3C//DTD SVG 1.1//EN" "http://www.w3.org/Graphics/SVG/1.1/DTD/svg11.dtd">
<svg version="1.1" id="Layer_1" xmlns="http://www.w3.org/2000/svg" xmlns:xlink="http://www.w3.org/1999/xlink" x="0px" y="0px"
	 width="841.89px" height="595.28px" viewBox="0 0 841.89 595.28" enable-background="new 0 0 841.89 595.28" xml:space="preserve">
<path d="M186.127,300.773c0.306-8.495,3.833-11.372,13.712-13.278c32.402-6.284,65.293-9.738,97.46-17.409
	c23.6-5.615,47.342-10.654,71.061-15.758c7.201-1.546,11.06-5.679,11.438-12.945c1.026-19.658,2.354-39.287,3.058-58.961
	c0.697-19.231,4.359-38.176,7.889-57.088c2.186-11.712,4.251-23.458,6.494-35.176c0.451-2.334,1.24-4.657,2.18-6.857
	c2.072-4.872,5.657-7.998,11.164-7.635c5.73,0.368,9.158,4.966,9.84,9.509c2.584,17.202,10.211,32.813,14.502,49.478
	c7.46,28.961,16.01,57.638,24.342,86.38c2.252,7.774,3.453,15.615,3.979,23.667c0.674,10.189,2.905,12.534,12.498,14.641
	c31.025,6.805,61.998,13.893,93.079,20.484c26.327,5.58,52.158,13.6,79.036,16.475c4.195,0.451,6.718,2.73,7.423,6.793
	c0.794,4.543-1.237,8.133-4.699,10.822c-3.927,3.057-8.652,4.292-13.482,5.106c-26.093,4.321-52.414,7.579-78.208,13.286
	c-24.049,5.308-48.094,11.205-71.238,20.041c-2.168,0.824-3.186,2.234-4.313,4.375c-5.417,10.25-5.861,21.447-6.845,32.562
	c-2.209,25.152-8.846,49.298-17.127,72.978c-3.99,11.422-5.551,23.1-6.473,34.981c-0.41,5.208-1.35,10.159-4.875,14.221
	c-6.391,7.376-15.272,6.274-18.363-2.681c-8.932-25.941-18.965-51.461-26.641-77.849c-7.135-24.505-15.629-48.598-22.887-73.076
	c-4.42-14.918-14.549-20.978-29.006-23.218c-23.268-3.61-46.451-7.517-70.029-8.735c-26.566-1.366-51.951-9.979-78.19-13.436
	c-2.391-0.313-4.78-0.684-7.174-0.947C189.84,310.859,185.931,306.51,186.127,300.773z M603.854,306.638
	c-14.158-4.209-27.68-8.671-41.852-10.874c-35.465-5.485-69.909-16.398-105.695-20.352c-3.222-0.36-5.979-2.06-6.516-5.013
	c-1.165-6.362-4.105-12.263-4.303-18.896c-0.27-8.765-1.092-17.516-3.488-26.001c-7.718-27.366-15.529-54.712-23.325-82.049
	c-2.251-7.911-4.577-15.799-7.386-25.528c-5.158,22.241-8.988,42.691-9.406,63.345c-0.496,23.902-4.713,47.822,0,71.82
	c1.475,7.529-4.267,15.74-10.256,17.43c-6.06,1.697-12.174,3.225-18.324,4.572c-27.723,6.018-55.498,11.779-83.184,17.982
	c-11.805,2.65-23.778,4.532-35.647,7.266c3.126,1.274,6.173,2.068,9.267,2.392c16.168,1.708,32.395,2.935,48.508,5.034
	c19.717,2.582,39.42,5.086,58.857,9.801c9.24,2.237,16.394,2.18,20.74,14.098c11.25,30.886,20.701,62.275,30.291,93.66
	c4.365,14.263,8.57,28.543,14.86,43.639c3.195-9.74,6.005-18.15,8.728-26.572c8.961-27.771,10.707-56.834,15.26-85.381
	c2.557-16.08,6.381-20.118,21.641-24.549c25.152-7.32,50.671-13.086,76.212-18.675C573.646,310.551,588.83,308.972,603.854,306.638z
	 M490.174,310.95c6.076-0.29,12.208-0.997,15.947-6.974c1.686-2.712,2.221-5.74,0.441-8.271c-1.766-2.522-4.282-5.039-7.859-4.404
	c-12.558,2.214-25.176,0.713-37.754,0.765c-18.767,0.068-18.459-0.028-21.341-18.361c-1.729-11.025-2.595-22.271-6.198-32.943
	c-1.65-4.846-5.242-7.921-10.313-7.709c-4.297,0.17-6.957,3.556-7.807,7.607c-0.576,2.772-0.658,5.947,0.098,8.652
	c3.365,11.957,4.137,24.421,7.281,36.395c1.273,4.863-1.113,4.701-4.439,4.459c-5.314-0.379-10.68-1.115-15.97-0.775
	c-11.396,0.729-22.675,1.35-34.039-1.023c-7.214-1.507-15.15,9.59-12.104,16.352c1.309,2.916,3.619,5.389,7.078,5.548
	c6.762,0.303,13.537,0.386,20.313,0.353c12.806-0.068,25.528-3.065,38.42-0.917c3.321,0.546,6.055,0.694,6.588,5.028
	c1.824,14.654,4.98,29.187,3.012,44.117c-0.885,6.738,6.52,12.475,12.744,10.016c7.318-2.916,11.077-9.342,9.166-16.767
	c-3.047-11.851-2.723-24.132-5.028-36.061c-0.791-4.07,0.292-5.616,4.676-5.576c7.759,0.091,15.524-0.925,23.286-0.112
	C480.977,310.58,485.592,311.172,490.174,310.95z"/>
</svg>
