<?xml version="1.0" encoding="utf-8"?>
<!-- Generator: Adobe Illustrator 16.0.0, SVG Export Plug-In . SVG Version: 6.00 Build 0)  -->
<!DOCTYPE svg PUBLIC "-//W3C//DTD SVG 1.1//EN" "http://www.w3.org/Graphics/SVG/1.1/DTD/svg11.dtd">
<svg version="1.1" id="Layer_1" xmlns="http://www.w3.org/2000/svg" xmlns:xlink="http://www.w3.org/1999/xlink" x="0px" y="0px"
	 width="841.89px" height="595.28px" viewBox="0 0 841.89 595.28" enable-background="new 0 0 841.89 595.28" xml:space="preserve">
<path fill="#010101" d="M533.793,240.223l-59.944-4.777l-23.068-55.531c-5.543-13.339-17.762-20.015-29.988-20.015
	c-12.224,0-24.441,6.676-29.989,20.015l-23.069,55.531l-59.938,4.777c-28.805,2.3-40.488,38.251-18.531,57.046l45.687,39.099
	l-13.983,58.482c-5.217,21.836,12.082,40.117,31.624,40.117c5.605,0,11.398-1.501,16.905-4.861l51.296-31.369l51.3,31.369
	c5.506,3.36,11.294,4.861,16.905,4.861c19.536,0,36.841-18.281,31.624-40.117l-13.979-58.482l45.682-39.099
	C574.28,278.474,562.598,242.522,533.793,240.223z M536.868,279.21l-45.687,39.094l-11.038,9.456l3.378,14.133l13.979,58.483
	c0.663,2.789,0.188,5.159-1.462,7.253c-1.739,2.204-4.438,3.572-7.041,3.572c-1.512,0-2.984-0.455-4.509-1.379l-51.297-31.369
	l-12.399-7.573l-12.396,7.573l-51.302,31.369c-1.522,0.924-2.995,1.379-4.504,1.379c-2.608,0-5.308-1.368-7.041-3.572
	c-1.65-2.094-2.128-4.464-1.462-7.253l13.978-58.483l3.379-14.133l-11.044-9.456L304.72,279.21
	c-3.846-3.292-3.293-7.243-2.619-9.303c0.671-2.063,2.543-5.582,7.585-5.986l59.938-4.783l14.489-1.148l5.577-13.422l23.063-55.534
	c1.939-4.663,5.872-5.362,8.038-5.362c2.17,0,6.102,0.699,8.036,5.362l23.069,55.534l5.576,13.422l14.485,1.148l59.943,4.783
	c5.036,0.404,6.908,3.924,7.582,5.986C540.155,271.967,540.709,275.918,536.868,279.21z"/>
</svg>
