<?xml version="1.0" encoding="utf-8"?>
<!-- Generator: Adobe Illustrator 16.0.0, SVG Export Plug-In . SVG Version: 6.00 Build 0)  -->
<!DOCTYPE svg PUBLIC "-//W3C//DTD SVG 1.1//EN" "http://www.w3.org/Graphics/SVG/1.1/DTD/svg11.dtd">
<svg version="1.1" id="Layer_1" xmlns="http://www.w3.org/2000/svg" xmlns:xlink="http://www.w3.org/1999/xlink" x="0px" y="0px"
	 width="841.89px" height="595.28px" viewBox="0 0 841.89 595.28" enable-background="new 0 0 841.89 595.28" xml:space="preserve">
<path d="M408.963,172.775c6.451-13.082,17.03-13.082,23.477,0l23.975,48.574c6.454,13.082,23.547,25.5,37.987,27.588l53.571,7.76
	c14.442,2.088,17.7,12.137,7.252,22.314l-38.76,37.765c-10.453,10.183-16.988,30.282-14.513,44.655l9.155,53.4
	c2.46,14.378-6.083,20.592-18.998,13.796l-47.927-25.196c-12.915-6.786-34.042-6.786-46.957,0l-47.927,25.196
	c-12.915,6.796-21.458,0.582-18.998-13.796l9.155-53.4c2.476-14.373-4.06-34.473-14.511-44.655l-38.768-37.765
	c-10.44-10.178-7.185-20.227,7.258-22.314l53.582-7.76c14.432-2.088,31.522-14.506,37.986-27.588L408.963,172.775z"/>
</svg>
