<?xml version="1.0" encoding="utf-8"?>
<!-- Generator: Adobe Illustrator 16.0.0, SVG Export Plug-In . SVG Version: 6.00 Build 0)  -->
<!DOCTYPE svg PUBLIC "-//W3C//DTD SVG 1.1//EN" "http://www.w3.org/Graphics/SVG/1.1/DTD/svg11.dtd">
<svg version="1.1" id="Layer_1" xmlns="http://www.w3.org/2000/svg" xmlns:xlink="http://www.w3.org/1999/xlink" x="0px" y="0px"
	 width="841.89px" height="595.28px" viewBox="0 0 841.89 595.28" enable-background="new 0 0 841.89 595.28" xml:space="preserve">
<path fill="#010101" d="M421.136,159.292c-75.959,0-137.537,61.581-137.537,137.534c0,75.958,61.578,137.533,137.537,137.533
	c75.963,0,137.533-61.575,137.533-137.533C558.669,220.873,497.099,159.292,421.136,159.292z M493.93,292.967l-25.28,21.633
	l7.73,32.363c3.718,15.556-13.206,27.853-26.853,19.516l-28.392-17.356l-28.39,17.356c-13.645,8.337-30.573-3.96-26.853-19.516
	l7.733-32.363l-25.283-21.633c-12.15-10.409-5.684-30.301,10.256-31.572l33.172-2.647l12.768-30.724
	c6.135-14.779,27.058-14.779,33.198,0l12.762,30.724l33.17,2.647C499.61,262.666,506.077,282.558,493.93,292.967z"/>
</svg>
