<?xml version="1.0" encoding="utf-8"?>
<!-- Generator: Adobe Illustrator 16.0.0, SVG Export Plug-In . SVG Version: 6.00 Build 0)  -->
<!DOCTYPE svg PUBLIC "-//W3C//DTD SVG 1.1//EN" "http://www.w3.org/Graphics/SVG/1.1/DTD/svg11.dtd">
<svg version="1.1" id="Layer_1" xmlns="http://www.w3.org/2000/svg" xmlns:xlink="http://www.w3.org/1999/xlink" x="0px" y="0px"
	 width="841.89px" height="595.28px" viewBox="0 0 841.89 595.28" enable-background="new 0 0 841.89 595.28" xml:space="preserve">
<path fill="#010101" d="M456.094,196.807c-0.922,2.769-4.16,4.612-6.928,3.693c-2.773-0.462-4.618-3.693-3.696-6.458l5.081-19.85
	c0.924-2.766,3.697-4.612,6.928-3.688c2.763,0.922,4.608,3.688,3.688,6.458L456.094,196.807z M563.188,91.561l8.767-2.77
	c0.928,0,1.85,0.462,2.309,0.927c0.466,0.462,0.466,1.381,0,1.843l-3.689,8.779l5.082,7.839c0,0.462,0,1.381,0,1.843
	c-0.465,0.465-1.393,0.927-1.852,0.927l-9.234-1.389l-5.994,7.399c-0.464,0.462-1.394,0.924-1.855,0.462
	c-0.92,0-1.381-0.462-1.381-1.403l-1.845-9.22l-8.772-3.231c-0.922-0.465-1.384-0.921-1.384-1.846c0-0.462,0.462-1.381,0.925-1.381
	l8.31-4.629l0.46-9.225c0-0.922,0.462-1.382,1.383-1.845c0.463-0.462,1.385,0,1.845,0.462L563.188,91.561z M450.091,60.168
	l6.003,3.242c0,0.447,0.46,0.924,0.46,1.381c0,0.462-0.46,0.924-0.922,0.924l-6.006,2.307l-1.382,5.996
	c0,0.924-0.46,0.924-0.928,1.381c-0.465,0-0.924-0.457-1.387-0.457l-3.689-5.074l-6.463,0.462c-0.463,0-0.924,0-1.383-0.462
	c0-0.462,0-0.921,0-1.384l3.695-5.553l-2.775-5.531c0-0.462,0-0.924,0.463-1.381c0-0.464,0.459-0.464,1.391-0.464l5.994,1.846
	l4.622-4.613c0.46-0.463,0.92-0.463,1.382,0c0.46,0,0.925,0.462,0.925,0.924V60.168z M248.363,160.339l5.534,3.231
	c0.462,0.462,0.922,0.919,0.922,1.384c0,0.462-0.46,0.924-0.922,0.924l-5.996,2.321l-1.393,6.458c0,0.457-0.459,0.457-0.921,0.919
	c-0.459,0-0.922,0-1.384-0.462l-4.158-5.071l-5.996,0.462c-0.462,0-0.924,0-1.386-0.462c-0.46-0.462-0.46-0.924,0-1.381l3.691-5.553
	l-2.768-5.531c0-0.465,0-0.927,0-1.389c0.462-0.457,0.924-0.457,1.384-0.457l6.464,1.846l4.613-4.615c0.459,0,0.931-0.462,1.393,0
	c0.459,0,0.921,0.461,0.921,0.923V160.339z M494.867,491.326l-5.074,2.308c0,0-0.462,0.457-0.462,0.919c0,0.477,0,0.477,0.462,0.923
	l4.611,2.322l0.463,5.07c0,0.464,0.462,0.926,0.922,0.926c0.462,0.462,0.462,0,0.921,0l3.698-3.688l5.074,0.92
	c0.466,0.462,0.928,0,1.388,0c0-0.463,0-0.92,0-1.385l-2.31-4.611l2.771-4.627c0-0.463,0-0.463,0-0.926
	c-0.462-0.459-0.922-0.459-1.384-0.459l-5.08,0.459l-3.233-3.689c-0.463-0.457-0.925-0.457-1.384-0.457c0,0-0.462,0.457-0.462,0.919
	L494.867,491.326z M640.742,408.229l2.773,4.167c0,0.462,0,0.924,0,1.381c-0.47,0.463-0.93,0.463-1.393,0.463l-5.072-0.92
	l-3.236,4.145c-0.459,0.463-0.923,0.463-1.383,0.463c0,0-0.462-0.463-0.462-0.92l-0.921-5.073l-5.085-1.846
	c-0.462-0.462-0.462-0.462-0.462-0.938c0-0.443,0-0.921,0.462-0.921l4.622-2.767l0.463-5.077c0-0.457,0-0.919,0.459-0.919
	c0.462-0.463,0.924,0,0.924,0l4.147,3.688l5.085-1.381c0.459,0,0.459,0,0.922,0.462c0.46,0.457,0.46,0.919,0,0.919L640.742,408.229z
	 M621.816,169.118l2.766,4.155c0.463,0.458,0.463,0.919,0,1.384c0,0-0.459,0.457-0.921,0.457l-5.083-0.921l-3.689,4.153
	c0,0.462-0.459,0.462-0.922,0.462c-0.459,0-0.459-0.462-0.922-0.927l-0.922-5.07l-4.62-1.842c-0.462-0.465-0.925-0.465-0.925-0.927
	c0-0.462,0.463-0.924,0.463-0.924l4.619-2.779l0.463-5.074c0-0.464,0.459-0.925,0.922-0.925c0-0.458,0.463,0,0.922,0l3.689,3.693
	l5.082-1.386c0.461,0,0.923,0,1.385,0.462c0,0.462,0,0.924,0,0.924L621.816,169.118z M643.516,196.807l9.686,2.308
	c0.923,0.461,1.39,0.923,1.39,1.842c0.462,0.941,0,1.389-0.467,1.866l-8.303,5.996l0.923,10.161c0,0.923-0.463,1.842-1.385,1.842
	c-0.462,0.462-1.384,0.462-1.844,0l-8.317-6.01l-9.696,4.168c-0.457,0-1.379,0-1.841-0.479c-0.923-0.462-0.923-1.381-0.923-2.306
	l3.226-9.685l-6.464-7.857c-0.46-0.459-0.46-1.384-0.46-1.846c0.46-0.919,0.931-1.381,1.853-1.381h10.156l5.53-8.765
	c0.472-0.462,0.934-0.92,1.854-0.92c0.922,0,1.382,0.92,1.847,1.381L643.516,196.807z M193.424,208.353l3.235,14.776
	c0.462,0.919,1.384,1.843,2.306,2.308c1.386,0,2.308-0.464,3.232-1.389l8.77-12.003l14.773,0.923
	c1.385,0.458,2.307-0.461,3.228-1.388c0.462-0.919,0.462-2.306-0.462-3.227l-8.767-12.003l6.001-13.854
	c0.462-1.383,0-2.308-0.922-3.227c-0.462-0.923-1.853-1.388-2.774-0.923l-14.307,4.612l-11.537-9.685
	c-0.923-0.923-2.314-0.923-3.234-0.462c-0.924,0.462-1.846,1.381-1.846,2.765v14.773l-12.923,7.844
	c-0.931,0.921-1.39,1.844-1.39,3.226c0.459,0.927,0.921,1.86,2.314,2.322L193.424,208.353z M575.656,491.788l4.609,6.929
	c0.463,0.463,0.463,1.389,0,1.846c0,0.463-0.92,0.925-1.38,0.925l-8.312-0.462l-5.079,6.457c0,0.463-0.925,0.924-1.385,0.924
	c-0.922-0.461-1.384-0.924-1.384-1.386l-1.846-8.304l-8.308-2.305c-0.462-0.457-0.922-0.937-0.922-1.383c0-0.938,0-1.396,0.922-1.86
	l6.924-4.151v-8.299c0-0.925,0.462-1.382,0.921-1.846c0.463,0,1.385,0,1.85,0.464l6.463,5.069l7.848-2.307
	c0.459-0.463,1.384,0,1.844,0.462c0.464,0.464,0.464,0.921,0,1.845L575.656,491.788z M276.518,499.18l-5.079,6.92
	c-0.459,0.461-0.459,1.383,0,1.846c0.462,0.461,0.921,0.918,1.381,0.918l8.78-0.457l4.612,6.934
	c0.462,0.459,0.921,0.919,1.849,0.919c0.459-0.46,0.921-0.919,1.381-1.38l2.307-8.318l7.854-2.305c0.921,0,1.386-0.924,1.386-1.388
	c0-0.919-0.465-1.381-0.924-1.843l-6.926-4.613v-8.316c0-0.459-0.459-1.382-0.922-1.382c-0.467-0.465-1.39-0.465-1.852,0
	l-6.457,5.074l-7.848-2.312c-0.921-0.459-1.39-0.459-1.852,0c-0.465,0.463-0.924,1.387-0.465,1.85L276.518,499.18z M427.929,107.716
	c0,2.77-2.308,5.536-5.073,5.536c-3.23,0-5.542-2.766-5.542-5.536V96.629c0-3.227,2.312-5.531,5.542-5.531
	c2.766,0,5.073,2.304,5.073,5.531V107.716z M427.929,177.419c0,3.231-2.308,5.539-5.073,5.539c-3.23,0-5.542-2.308-5.542-5.539
	v-52.16c0-2.77,2.312-5.535,5.542-5.535c2.766,0,5.073,2.765,5.073,5.535V177.419z M417.313,491.788
	c0-2.771,2.312-5.539,5.542-5.539c2.766,0,5.073,2.769,5.073,5.539v11.08c0,3.231-2.308,5.538-5.073,5.538
	c-3.23,0-5.542-2.307-5.542-5.538V491.788z M417.313,422.078c0-3.224,2.312-5.531,5.542-5.531c2.766,0,5.073,2.308,5.073,5.531
	v52.168c0,3.226-2.308,5.548-5.073,5.548c-3.23,0-5.542-2.322-5.542-5.548V422.078z M331.447,130.791
	c1.386,2.308,0.465,6.018-1.841,7.399c-2.769,1.381-6.004,0.462-7.388-1.846l-5.996-9.703c-1.392-2.762-0.47-5.994,2.307-7.378
	c2.303-1.842,5.532-0.923,7.379,1.846L331.447,130.791z M369.309,196.35c1.381,2.303,0.459,5.996-2.314,7.391
	c-2.308,1.384-5.538,0.462-7.387-1.843l-28.62-50.316c-1.843-2.785-0.921-6.015,1.846-7.396c2.314-1.846,6.005-0.921,7.389,1.843
	L369.309,196.35z M514.252,468.707c-1.844-2.3-0.924-5.531,1.846-7.377c2.313-1.381,6.004-0.461,7.395,2.307l5.533,9.686
	c1.384,2.305,0.462,5.551-1.846,7.396c-2.767,1.381-6.002,0.461-7.387-2.309L514.252,468.707z M476.403,403.154
	c-1.846-2.307-0.924-5.533,1.843-7.377c2.77-1.387,6.006-0.462,7.389,2.309l29.076,50.314c1.387,2.307,0.465,5.533-1.843,7.377
	c-2.769,1.388-5.998,0.463-7.386-2.3L476.403,403.154z M258.979,199.115c2.766,1.385,3.688,4.626,1.844,7.395
	c-1.382,2.765-4.621,3.227-7.388,1.843l-9.691-5.531c-2.308-1.403-3.227-4.629-1.849-7.396c1.384-2.769,5.084-3.227,7.39-1.846
	L258.979,199.115z M319.913,234.199c2.305,1.381,3.227,4.63,1.843,7.391c-1.384,2.308-5.071,3.232-7.388,1.846l-45.695-26.317
	c-2.308-1.386-3.23-4.612-1.843-7.382c1.381-2.307,5.071-3.227,7.377-1.846L319.913,234.199z M586.271,400.386
	c-2.314-1.382-3.235-4.608-1.852-7.377c1.39-2.322,4.619-3.241,7.394-1.86l9.684,5.549c2.317,1.389,3.238,4.613,1.854,7.381
	c-1.393,2.766-4.621,3.689-7.389,1.846L586.271,400.386z M525.799,365.306c-2.767-1.384-3.697-4.612-1.846-7.376
	c1.386-2.323,4.612-3.247,7.377-1.866l45.248,26.322c2.768,1.381,3.229,4.613,1.844,7.382c-1.385,2.779-4.617,3.241-7.388,1.86
	L525.799,365.306z M230.822,294.219c2.765,0,5.07,2.765,5.07,5.533c0,3.225-2.306,5.547-5.07,5.547h-11.549
	c-2.765,0-5.071-2.322-5.071-5.547c0-2.768,2.307-5.533,5.071-5.533H230.822z M306.059,294.219c3.229,0,5.544,2.765,5.544,5.533
	c0,3.225-2.314,5.547-5.544,5.547h-57.696c-3.236,0-5.544-2.322-5.544-5.547c0-2.768,2.308-5.533,5.544-5.533H306.059z
	 M614.889,305.299c-3.229,0-5.533-2.322-5.533-5.547c0-2.768,2.305-5.533,5.533-5.533h11.075c2.776,0,5.544,2.765,5.544,5.533
	c0,3.225-2.768,5.547-5.544,5.547H614.889z M539.182,305.299c-3.228,0-5.534-2.322-5.534-5.547c0-2.768,2.307-5.533,5.534-5.533
	h58.165c2.769,0,5.074,2.765,5.074,5.533c0,3.225-2.306,5.547-5.074,5.547H539.182z M253.896,391.148
	c2.305-1.381,5.544-0.462,6.926,1.86c1.843,2.769,0.922,5.995-1.844,7.377l-9.694,5.538c-2.306,1.844-6.006,0.92-7.39-1.846
	c-1.378-2.768-0.459-5.992,1.849-7.381L253.896,391.148z M314.368,356.063c2.317-1.381,5.545-0.457,7.388,2.322
	c1.384,2.308,0.462,5.536-2.305,6.92l-45.245,26.322c-2.306,1.381-5.996,0.439-7.377-1.86c-1.387-2.769-0.465-6.001,1.843-7.382
	L314.368,356.063z M591.813,208.353c-2.774,1.384-6.004,0.465-7.394-1.843c-1.384-2.769-0.463-6.01,1.852-7.395l9.691-5.535
	c2.768-1.381,5.996-0.923,7.389,1.846c1.384,2.768,0.463,5.993-1.854,7.396L591.813,208.353z M530.871,243.436
	c-2.306,1.386-5.532,0.462-6.918-1.846c-1.852-2.761-0.921-6.01,1.846-7.391l45.235-26.308c2.771-1.381,6.003-0.461,7.388,1.846
	c1.385,2.77,0.464,5.996-1.844,7.382L530.871,243.436z M321.756,463.637c1.846-2.768,5.082-3.688,7.389-2.307
	c2.768,1.846,3.689,5.077,2.303,7.377l-5.539,9.703c-1.847,2.77-5.077,3.689-7.379,2.309c-2.777-1.846-3.698-5.092-2.307-7.396
	L321.756,463.637z M359.607,398.086c1.85-2.771,5.079-3.695,7.387-2.309c2.774,1.844,3.695,5.07,2.314,7.377l-29.087,50.323
	c-1.384,2.763-5.074,3.688-7.389,2.3c-2.767-1.844-3.689-5.07-1.846-7.377L359.607,398.086z M523.492,136.344
	c-1.391,2.308-5.082,3.227-7.395,1.846c-2.77-1.381-3.689-5.091-1.846-7.399l5.541-9.682c1.385-2.769,4.62-3.688,7.387-1.846
	c2.308,1.384,3.229,4.616,1.846,7.378L523.492,136.344z M485.635,201.898c-1.383,2.305-5.084,3.227-7.389,1.843
	c-2.767-1.396-3.688-5.088-1.843-7.391l29.079-50.322c1.388-2.765,4.617-3.689,7.386-1.843c2.308,1.381,3.229,4.612,1.843,7.396
	L485.635,201.898z M399.771,194.042c0.922,2.765-0.921,5.996-3.689,6.915c-2.776,0.462-6.005-0.919-6.467-4.15l-5.542-19.844
	c-0.462-2.77,0.931-5.536,4.16-6.458c2.765-0.924,5.534,0.922,6.455,3.688L399.771,194.042z M386.851,145.566
	c0.922,2.769-0.921,6.015-3.698,6.934c-2.769,0.462-6.002-1.381-6.464-4.166l-15.231-55.855c-0.928-3.227,0.924-5.994,3.691-6.916
	c3.233-0.46,6.004,0.922,6.924,4.154L386.851,145.566z M367.457,72.634c0.925,2.765-0.921,5.997-3.692,6.458
	c-3.236,0.92-6.002-0.923-6.923-3.693l-2.77-10.607c-0.922-3.241,0.921-6.01,3.691-6.929c3.229-0.924,6.002,0.919,6.924,3.688
	L367.457,72.634z M445.47,405.463c-0.922-2.771,0.923-5.534,3.696-6.459c3.23-0.918,6.006,0.925,6.928,3.688l5.072,19.85
	c0.921,2.768-0.925,5.547-3.688,6.472c-3.23,0.925-6.004-0.925-6.928-3.704L445.47,405.463z M458.399,453.934
	c-0.921-2.764,0.921-5.995,3.688-6.457c3.239-0.919,6.007,0.924,6.927,3.693l14.773,55.851c0.927,3.231-0.922,6.016-3.698,6.935
	c-2.763,0.462-5.991-0.919-6.453-4.168L458.399,453.934z M477.787,526.867c-0.461-2.767,0.92-5.53,4.158-6.455
	c2.769-0.926,5.535,0.925,6.464,3.688l2.768,11.085c0.921,2.77-0.925,5.539-3.696,6.458c-2.767,0.923-6.006-0.919-6.465-3.688
	L477.787,526.867z M350.383,219.425c1.845,2.322,1.845,5.547,0,7.854c-2.314,2.308-5.544,2.308-7.856,0l-14.304-14.311
	c-2.314-2.307-2.314-5.538,0-7.843c1.843-2.303,5.542-2.303,7.387,0L350.383,219.425z M314.831,184.339
	c1.854,1.86,1.854,5.553,0,7.399c-2.307,2.304-5.543,2.304-7.848,0l-41.081-41.081c-1.85-1.86-1.85-5.548,0-7.394
	c2.308-2.311,5.536-2.311,7.839,0L314.831,184.339z M261.285,130.791c1.84,1.86,1.84,5.553,0,7.399
	c-2.307,2.304-5.543,2.304-7.851,0l-7.848-7.856c-1.843-1.848-1.843-5.536,0-7.382c2.314-2.305,5.545-2.305,7.848,0L261.285,130.791
	z M495.329,380.079c-1.849-1.843-1.849-5.532,0-7.396c2.306-2.303,5.539-2.303,7.845,0l14.312,13.854
	c1.849,2.307,1.849,5.53,0,7.854c-2.31,2.307-5.537,2.307-7.845,0L495.329,380.079z M530.871,415.623
	c-2.306-2.303-2.306-5.534,0-7.855c1.846-2.305,5.54-2.305,7.386,0l41.089,41.097c2.304,2.306,2.304,5.532,0,7.839
	c-1.846,1.843-5.541,1.843-7.391,0L530.871,415.623z M583.957,468.707c-1.846-1.843-1.846-5.531,0.463-7.377
	c1.852-2.322,5.54-2.322,7.394,0l7.841,7.84c2.305,2.307,2.305,5.538,0,7.84c-1.846,1.863-5.534,1.863-7.377,0L583.957,468.707z
	 M319.451,266.512c3.229,0.923,4.611,3.693,4.151,6.472c-0.922,3.231-3.689,4.612-6.917,4.15l-19.396-5.534
	c-2.768-0.462-4.612-3.703-3.69-6.472c0.461-2.765,3.69-4.612,6.464-3.689L319.451,266.512z M271.438,253.586
	c2.768,0.933,4.62,3.703,3.698,6.472c-0.931,3.227-3.698,4.608-6.464,4.151l-56.323-15.238c-2.768-0.462-4.613-3.688-3.691-6.455
	c0.924-2.769,3.691-4.615,6.465-3.688L271.438,253.586z M198.505,234.199c2.767,0.462,4.614,3.703,3.691,6.472
	c-0.924,2.765-3.691,4.613-6.92,3.689l-10.626-2.77c-2.764-0.919-4.609-3.688-3.685-6.472c0.459-3.226,3.685-4.612,6.455-4.15
	L198.505,234.199z M525.799,332.988c-3.236-0.919-4.621-3.689-4.157-6.458c0.921-3.224,3.697-4.626,6.924-4.151l19.386,5.539
	c3.236,0.458,4.622,3.689,4.16,6.458c-0.924,2.763-3.701,4.608-6.926,3.688L525.799,332.988z M573.805,345.918
	c-2.771-0.919-4.152-3.689-3.692-6.457c0.922-3.242,3.692-4.629,6.925-4.166l55.854,15.235c2.767,0.927,4.621,3.688,3.688,6.458
	c-0.462,3.24-3.688,4.629-6.452,4.166L573.805,345.918z M647.204,365.306c-2.767-0.462-4.618-3.688-4.158-6.458
	c0.93-2.784,4.158-4.629,6.925-3.703l10.619,2.785c3.235,0.918,4.617,3.688,4.157,6.457c-0.922,3.225-4.157,4.607-6.928,4.146
	L647.204,365.306z M317.144,322.379c2.769-0.475,5.536,0.928,6.458,4.151c0.92,2.769-0.922,5.539-3.689,6.458l-19.85,5.076
	c-2.774,0.92-6.003-0.926-6.464-3.688c-0.921-2.769,0.923-6,3.69-6.458L317.144,322.379z M268.672,335.295
	c2.766-0.463,5.534,0.924,6.464,4.166c0.921,2.768-0.931,5.538-3.698,6.457l-56.315,15.236c-2.774,0.463-5.542-0.926-6.465-4.166
	c-0.922-2.77,0.924-5.531,3.691-6.458L268.672,335.295z M195.276,355.145c3.229-0.926,5.996,0.919,6.92,3.703
	c0.923,2.77-0.924,5.996-3.691,6.458l-11.084,3.228c-2.77,0.461-5.996-0.922-6.455-4.146c-0.924-2.77,0.921-5.539,3.685-6.457
	L195.276,355.145z M528.565,277.134c-2.767,0.462-6.003-0.919-6.464-4.15c-0.924-2.779,0.931-5.549,3.697-6.472l19.387-5.073
	c3.225-0.923,6.002,0.924,6.926,3.689c0.462,2.769-0.924,6.01-4.16,6.472L528.565,277.134z M577.037,264.209
	c-3.232,0.457-6.003-0.924-6.925-4.151c-0.46-2.769,0.922-5.539,3.692-6.472l56.322-14.758c2.765-0.927,5.99,0.919,6.452,3.688
	c0.934,2.768-0.921,5.993-3.688,6.455L577.037,264.209z M649.971,244.36c-2.767,0.924-5.995-0.924-6.925-3.689
	c-0.46-2.769,1.392-6.01,4.158-6.472l10.615-3.231c2.771-0.462,6.006,0.924,6.928,4.15c0.46,2.784-0.922,5.553-4.157,6.472
	L649.971,244.36z M342.527,372.226c1.85-1.846,5.542-1.846,7.389,0c2.312,2.321,2.312,5.548,0,7.854l-14.306,14.312
	c-1.846,2.307-5.544,2.307-7.387,0c-2.314-1.844-2.314-5.547,0-7.854L342.527,372.226z M306.983,407.768
	c2.305-2.305,5.542-2.305,7.848,0c1.854,2.321,1.854,5.553,0,7.855l-41.09,41.08c-2.303,1.843-5.531,1.843-7.839,0
	c-1.85-2.307-1.85-5.533,0-7.839L306.983,407.768z M253.435,461.33c2.308-2.322,5.544-2.322,7.851,0c1.84,1.846,1.84,5.534,0,7.377
	l-7.851,8.303c-2.303,1.863-5.534,1.863-7.848,0c-1.843-2.302-1.843-5.533,0-7.84L253.435,461.33z M502.714,227.279
	c-1.846,2.308-5.542,2.308-7.385,0c-2.308-2.307-2.308-5.531,0-7.854l14.312-14.3c2.308-2.303,5.535-2.303,7.845,0
	c1.849,2.305,1.849,5.536,0,7.843L502.714,227.279z M538.257,191.738c-1.846,2.304-5.54,2.304-7.386,0
	c-2.306-1.846-2.306-5.539,0-7.399l41.084-41.075c1.85-2.311,5.545-2.311,7.391,0c2.304,1.846,2.304,5.533,0,7.394L538.257,191.738z
	 M591.813,138.189c-2.313,2.304-5.542,2.304-7.856,0c-1.846-1.846-1.846-5.539,0-7.399l8.32-7.839c1.843-2.305,5.531-2.305,7.377,0
	c2.305,1.846,2.305,5.534,0,7.382L591.813,138.189z M389.616,402.692c0.462-2.764,3.69-4.606,6.467-3.688
	c2.768,0.925,4.611,3.688,3.689,6.459l-5.082,19.847c-0.921,2.779-3.69,4.629-6.455,3.704c-3.229-0.925-4.622-3.704-4.16-6.472
	L389.616,402.692z M376.688,451.17c0.462-2.77,3.695-4.612,6.464-3.693c2.776,0.462,4.62,3.693,3.698,6.457l-14.778,56.318
	c-0.92,2.784-3.69,4.165-6.924,3.703c-2.767-0.919-4.62-3.703-3.691-6.935L376.688,451.17z M356.841,524.101
	c0.921-2.764,3.688-4.614,6.923-3.688c2.771,0.925,4.617,3.688,3.692,6.455l-2.77,11.088c-0.922,2.77-3.695,4.611-6.924,3.688
	c-2.77-0.919-4.613-3.688-3.691-6.458L356.841,524.101z M469.014,148.335c-0.92,2.784-3.688,4.627-6.927,4.166
	c-2.767-0.919-4.608-4.166-3.688-6.934l15.236-55.849c0.462-3.232,3.69-4.615,6.453-4.154c2.776,0.922,4.625,3.689,3.698,6.916
	L469.014,148.335z M488.409,75.398c-0.929,2.771-3.695,4.613-6.464,3.693c-3.238-0.461-4.619-3.693-4.158-6.458l3.229-11.084
	c0.459-2.769,3.698-4.612,6.465-3.688c2.771,0.919,4.617,3.688,3.696,6.929L488.409,75.398z M477.97,366.381l0.072-0.045
	c0.168-0.092,0.298-0.231,0.433-0.356l0.127-0.106c0.003-0.005,0.006-0.014,0.011-0.014c0.034-0.046,0.055-0.097,0.089-0.143
	c0.117-0.14,0.214-0.296,0.288-0.462c0.036-0.074,0.046-0.151,0.075-0.231c0.045-0.146,0.087-0.285,0.11-0.442
	c0.009-0.091,0.008-0.18,0.005-0.276c0.003-0.14-0.002-0.291-0.028-0.438c-0.005-0.033,0.003-0.074-0.011-0.116l-11.17-48.546
	l40.674-25.112c0.43-0.254,8.952-15.742,9.172-16.135c0-0.017,0.006-0.026,0.014-0.04c0.074-0.186,0.113-0.342,0.115-0.472
	c0.063-0.318,0.082-0.65,0.01-0.975c-0.017-0.055-0.242-0.132-0.607-0.216c0-0.004-0.003-0.004-0.003-0.004
	c-0.013-0.022-0.119-0.042-0.29-0.056c-7.485-1.538-60.559-6.799-60.559-6.799s-14.451-59.8-15.488-59.891
	c0,0.005-0.004,0.009-0.004,0.009c-0.197,0.174-13.852,11.751-14.025,12.131L404.9,261.467l-48.94-4.925
	c-0.026,0-0.051,0.009-0.082,0.004c-0.158-0.004-0.311,0.015-0.464,0.029c-0.082,0.017-0.166,0.017-0.248,0.037
	c-0.176,0.046-0.336,0.12-0.493,0.202c-0.051,0.024-0.111,0.038-0.166,0.075c-0.197,0.12-0.385,0.268-0.547,0.453v0.004
	c-0.168,0.186-0.307,0.402-0.408,0.643c-0.003,0.017,0,0.037-0.009,0.051l-6.112,10.076c-0.422,0.477,38.104,36.894,38.104,36.894
	s-26.159,70.366-25.392,71.021c0.765,0.652,64.259-34.88,64.259-34.88l43.569,33.231L477.97,366.381z M366.311,368.818l24.27-63.63
	c0.346-0.909,0.101-1.949-0.624-2.612l-30.463-27.925l-8.172-7.114l3.313-6.412l44.48,38.713c0,0-23.459,56.868-22.678,57.547
	c0.782,0.684,53.878-30.402,53.878-30.402l43.112,37.529l-4.729,5.337l-42.613-33.45c-0.725-0.576-1.721-0.682-2.538-0.264
	l-0.118,0.064L366.311,368.818z M415.881,262.575l-6.308-0.637l19.915-43.066l8.154-6.679
	C430.771,227.255,415.881,262.575,415.881,262.575z M407.817,265.747l8.789,0.94c1.035,0.089,2.009-0.493,2.411-1.448l20.626-49.793
	l1.161-2.796l3.094,15.044l8.329,40.47c0.231,1.008,1.087,1.758,2.12,1.847l34.449,2.668l23.375,1.814l0.114,0.005l-50.459,27.996
	c-0.888,0.527-1.33,1.579-1.099,2.586l1.938,7.885l1.175,4.781l5.74,23.355l4.63,18.82l-2.979-2.679l-39.094-35.01
	c-0.73-0.64-1.772-0.765-2.629-0.337l-0.168,0.094l-48.159,29.99l23.013-51.877c0.405-0.955,0.15-2.058-0.634-2.742L362.3,262.889
	l-2.76-2.308l14.25,1.523l29.214,3.125L407.817,265.747z M465.777,305.701l46.934-28.16l-5.414,8.979l-40.419,23.958
	L465.777,305.701z"/>
</svg>
