<?xml version="1.0" encoding="utf-8"?>
<!-- Generator: Adobe Illustrator 16.0.0, SVG Export Plug-In . SVG Version: 6.00 Build 0)  -->
<!DOCTYPE svg PUBLIC "-//W3C//DTD SVG 1.1//EN" "http://www.w3.org/Graphics/SVG/1.1/DTD/svg11.dtd">
<svg version="1.1" id="Layer_1" xmlns="http://www.w3.org/2000/svg" xmlns:xlink="http://www.w3.org/1999/xlink" x="0px" y="0px"
	 width="841.89px" height="595.28px" viewBox="0 0 841.89 595.28" enable-background="new 0 0 841.89 595.28" xml:space="preserve">
<path fill="#010101" d="M420.713,159.742c-75.958,0-137.533,61.578-137.533,137.533c0,75.961,61.575,137.541,137.533,137.541
	c75.961,0,137.536-61.58,137.536-137.541C558.249,221.32,496.674,159.742,420.713,159.742z M420.713,411.041
	c-62.731,0-113.763-51.036-113.763-113.766c0-62.727,51.031-113.757,113.763-113.757c62.734,0,113.771,51.03,113.771,113.757
	C534.483,360.005,483.447,411.041,420.713,411.041z M493.51,293.79l-25.288,21.636l7.738,32.371
	c3.721,15.553-13.211,27.852-26.857,19.508l-28.39-17.361l-28.393,17.361c-13.636,8.344-30.564-3.955-26.852-19.508l7.738-32.371
	l-25.283-21.636c-12.15-10.398-5.681-30.301,10.256-31.575l33.17-2.637l12.767-30.736c6.138-14.767,27.059-14.767,33.201,0
	l12.762,30.736l33.17,2.637C499.19,263.489,505.66,283.392,493.51,293.79z"/>
</svg>
