<?xml version="1.0" encoding="utf-8"?>
<!-- Generator: Adobe Illustrator 16.0.0, SVG Export Plug-In . SVG Version: 6.00 Build 0)  -->
<!DOCTYPE svg PUBLIC "-//W3C//DTD SVG 1.1//EN" "http://www.w3.org/Graphics/SVG/1.1/DTD/svg11.dtd">
<svg version="1.1" id="Layer_1" xmlns="http://www.w3.org/2000/svg" xmlns:xlink="http://www.w3.org/1999/xlink" x="0px" y="0px"
	 width="841.89px" height="595.28px" viewBox="0 0 841.89 595.28" enable-background="new 0 0 841.89 595.28" xml:space="preserve">
<path fill="#010101" d="M165.028,386.051l7.848,4.615l-8.77,2.762c-1.391,0.463-2.317,1.85-2.777,2.77l-1.843,9.242l-5.536-7.396
	c-0.922-1.384-2.314-1.846-3.695-1.846l-8.772,0.926l5.082-7.384c0.923-1.382,0.923-2.763,0.461-4.149l-3.238-8.316l8.31,2.768
	c1.393,0.479,3.239,0,4.161-0.924l6.917-5.531v8.776C163.175,383.746,163.644,385.133,165.028,386.051z M145.635,326.031
	c0.93,0,1.391-0.463,1.853-0.92l3.227-9.688l9.694-1.844c0.921,0,1.381-0.92,1.381-1.381c0.465-0.928,0-1.861-0.459-2.322
	l-7.839-5.996l0.921-9.689c0-0.935,0-1.857-0.921-1.857c-0.462-0.465-1.393-0.465-1.855,0l-8.308,5.55l-9.233-4.166
	c-0.923-0.462-1.382-0.462-2.304,0.473c-0.462,0.447-0.462,0.926-0.462,1.85l2.766,9.685l-6.464,7.391
	c-0.462,0.463-0.922,1.385-0.462,1.848c0.462,0.922,0.921,1.384,1.854,1.384l9.694,0.462l5.07,8.301
	C144.249,326.031,144.711,326.495,145.635,326.031z M196.877,228.639l-0.462-0.462c-0.459-0.919-0.924-1.844-1.386-3.226v-0.479
	c0-0.924,0.462-2.305,0.927-3.224c0.459-1.388,1.381-2.307,2.312-2.769l10.153-6.458c0.459-4.151,0-8.318,0.459-12.468
	c0-0.924,0.465-2.306,0.924-3.232c0.921-1.381,1.844-2.305,2.766-2.762h0.462c1.384-0.462,2.314-0.462,3.698-0.462
	c0.924,0,2.306,0.462,3.229,1.381l9.232,7.844l12.005-3.693c1.384-0.457,2.308-0.457,3.69,0c0.922,0.462,2.308,0.924,3.229,1.846
	c0.922,1.385,1.384,2.304,1.384,3.693l0.469,0.457c0,0.924,0,2.305-0.469,3.245l-4.613,11.071l6.925,10.16
	c0.921,0.919,1.386,2.308,1.386,3.689c0,0.923-0.465,2.307-0.924,3.688c-0.925,0.924-1.846,1.851-2.774,2.77h-0.462
	c-0.922,0.462-2.306,0.923-3.229,0.462l-11.998-0.462l-7.387,9.698c-0.924,0.924-1.846,1.848-3.228,2.313
	c-0.924,0.457-2.316,0.457-3.701,0h-0.459l-2.765-1.389l-0.462-0.462c-0.462-0.919-1.393-1.843-1.393-3.226l-3.229-11.547
	l-11.076-3.688C198.727,230.482,197.336,229.563,196.877,228.639z M204.731,224.01l11.077,3.71c1.384,0.457,2.306,1.381,2.768,2.762
	l2.764,11.549l6.931-9.241c0.921-1.381,2.304-2.308,3.685-1.843l11.55,0.462l-6.465-9.242c-0.924-0.919-1.387-2.769-0.46-4.15
	l4.155-10.626l-11.087,3.249c-1.378,0.457-2.762,0.457-3.686-0.462l-9.232-7.856v11.543c0,1.381-0.459,2.768-1.853,3.689
	L204.731,224.01z M287.818,167.237l-1.382,9.704c0,0.457,0,1.381,0.923,1.843c0.459,0.461,1.381,0.461,1.843,0l8.31-5.075
	l9.233,4.151c0.46,0.462,1.391,0,1.853-0.462c0.922-0.457,0.922-0.919,0.922-1.846l-2.314-9.698l6.464-6.92
	c0.924-0.462,0.924-1.381,0.462-2.306c0-0.479-0.924-0.919-1.384-0.919l-10.156-0.941l-4.617-8.763
	c-0.462-0.463-0.923-0.92-1.845-0.92c-0.922,0-1.384,0.457-1.846,1.382l-3.688,9.242l-9.704,1.381
	c-0.462,0.462-1.384,0.919-1.384,1.381c-0.462,0.926,0,1.846,0.459,2.307L287.818,167.237z M412.925,144.624l7.839,5.996
	l-1.385,9.699c0,0.923,0.463,1.842,0.923,2.304c0.924,0,1.854,0,2.317-0.462l8.309-5.531l9.231,4.15
	c0.462,0.462,1.384,0.462,1.843,0c0.461-0.919,0.926-1.381,0.926-2.307l-2.769-9.699l6.464-7.382c0.46-0.462,0.46-1.381,0.46-1.842
	c-0.46-0.927-0.922-1.398-1.853-1.398l-9.693-0.462l-5.072-8.301c-0.459-0.927-1.386-0.927-1.846-0.927
	c-0.931,0-1.39,0.462-1.852,0.927l-3.228,9.682l-9.694,1.859c-0.921,0-1.383,0.924-1.846,1.386
	C412,143.237,412,144.162,412.925,144.624z M313.207,208.794c0.924-0.924,1.849-1.864,2.77-2.783h0.462
	c1.381-0.462,2.312-0.462,3.695-0.462c0.924,0.462,2.307,0.923,3.228,1.381l9.232,7.86l12.008-3.693h3.687
	c0.924,0.462,2.308,1.386,3.229,2.305c0.923,0.926,1.385,1.845,1.855,3.231v0.462c0,1.383,0,2.302-0.47,3.227l-4.615,11.549
	l6.929,9.684c0.921,0.919,1.381,2.32,1.381,3.703c0,1.387-0.459,2.307-0.919,3.688c-0.462,0.924-1.847,1.848-2.776,2.77h-0.462
	c-0.923,0.462-2.307,0.924-3.228,0.924l-12.002-0.924l-7.383,9.703c-0.924,0.919-1.846,1.843-2.77,2.305
	c-1.384,0.457-2.774,0.457-4.158,0.457l-0.459-0.457c-0.923,0-1.847-0.924-2.769-1.386v-0.457c-0.922-0.462-1.853-1.85-1.853-3.245
	l-3.227-11.531l-11.078-3.693c-1.384-0.462-2.776-1.381-3.238-2.321l-0.46-0.458c-0.462-0.923-0.924-1.847-1.384-3.23
	c0-1.381,0.46-2.768,0.922-3.689c0.462-0.923,1.384-2.304,2.314-2.766l10.615-6.475c0-4.15-0.459-8.301,0-12.451
	C312.285,211.097,312.748,209.713,313.207,208.794z M308.136,236.478l11.077,3.693c1.381,0.462,2.306,1.384,2.767,2.779l2.77,11.532
	l6.924-9.224c0.922-1.383,2.306-1.846,3.692-1.846l12.003,0.927l-6.924-9.704c-0.925-0.922-1.384-2.303-0.462-4.152l4.16-10.622
	l-11.085,3.688c-1.384,0-2.769,0-3.69-0.919l-9.231-7.382v11.547c0,1.382-0.462,2.769-1.851,3.226L308.136,236.478z
	 M486.777,280.342c2.309,1.384,4.623,0.927,6.926-0.461l24.932-19.85l30.003,10.607c2.776,0.462,5.077,0,6.924-1.843
	c1.843-1.844,2.305-4.15,1.384-6.458l-11.078-30.006l19.388-25.402c1.391-2.305,1.391-4.608,0.46-6.916
	c-1.384-2.304-3.229-3.693-6.002-3.693l-31.847,1.389l-18.465-26.322c-1.391-1.846-3.697-2.77-6.003-2.77
	c-2.77,0.462-4.611,2.308-5.073,4.613l-8.78,30.937l-30.463,9.234c-2.776,0.926-4.158,2.769-4.617,5.077
	c-0.462,2.769,0.459,5.069,2.774,6.472l26.772,17.522l-0.922,32.316C483.09,277.111,484.474,279.419,486.777,280.342z
	 M225.5,349.129c-1.382,0.456-2.764,0.918-4.16,0.456h-0.459c-0.92-0.456-1.844-0.921-2.766-1.845
	c-0.922-0.92-1.843-1.859-1.843-3.246l-3.239-11.527l-11.077-4.168c-1.383-0.445-2.767-0.922-3.229-1.842l-0.459-0.462
	c-0.462-0.927-0.931-2.308-1.39-3.227v-0.462c0-1.389,0.459-2.307,0.928-3.231c0.462-1.384,1.384-2.308,2.306-3.227l10.615-6.011
	c0-4.149-0.459-8.301,0-12.453c0-1.386,0.461-2.305,0.923-3.693c0.922-0.935,1.846-1.857,2.768-2.322h0.462
	c1.393-0.462,2.314-0.919,3.698-0.462c0.919,0,2.304,0.462,3.233,1.389l9.224,7.854l12.007-3.689c1.385-0.462,2.307-0.462,3.692,0
	c0.922,0.462,2.306,0.924,3.236,1.846c0.922,0.924,1.381,2.304,1.843,3.688v0.463c0,0.924,0,2.305-0.462,3.231l-4.617,11.079
	l6.925,9.689c0.922,1.396,1.382,2.783,1.382,3.703c0,1.381-0.46,2.77-0.92,3.688c-0.462,1.388-1.846,2.307-2.771,2.769l-0.459,0.463
	c-0.922,0.461-2.314,0.461-3.236,0.461l-12.002-0.924l-7.383,9.703C227.346,348.201,226.424,348.664,225.5,349.129z
	 M223.196,339.887l6.917-9.227c0.92-0.92,2.312-1.861,3.698-1.861l11.998,0.941l-6.92-9.24c-0.928-1.381-0.928-2.771-0.466-4.151
	l4.157-11.087l-11.085,3.689c-1.383,0.463-2.767,0-3.688-0.921l-9.232-7.38v11.549c0,1.381-0.462,2.766-1.846,3.688l-10.153,5.992
	l11.078,3.689c1.381,0.463,2.305,1.85,2.765,3.23L223.196,339.887z M461.391,368.51c0.461,1.85,0.461,3.23,0,4.611l-0.463,0.465
	c-0.459,0.919-0.922,2.305-1.846,2.766l-10.615,8.781l1.846,13.387c0.462,1.389,0,2.77-0.459,4.15
	c-0.925,1.389-1.849,2.307-2.771,3.231c-1.382,0.919-2.774,0.919-4.155,1.384l-0.465-0.465c-1.382,0-2.766-0.463-3.696-0.919
	l-11.537-6.92l-12.002,5.533c-1.381,0.462-2.765,0.925-4.158,0.925c-1.384-0.463-2.766-0.925-4.15-1.844v-0.465
	c-0.922-0.919-1.846-1.842-2.314-3.223c-0.459-1.389-0.459-2.785,0-4.168l3.236-12.913l-9.232-9.706
	c-0.921-0.919-1.843-2.305-1.843-3.689v-0.461c-0.462-1.382-0.462-2.77,0-3.688l0.459-0.462c0.462-1.381,1.384-2.305,2.307-3.241
	c1.384-0.923,2.765-1.386,4.151-1.386l13.39-0.921c1.846-3.692,4.152-8.301,6.467-11.994c0.46-1.397,1.384-2.322,2.768-2.784
	c1.381-0.919,2.771-0.919,4.157-0.919h0.463c1.382,0,2.766,0.462,3.688,1.381c0.922,0.925,1.846,1.864,2.768,3.245l4.619,12.455
	l13.844,2.783c1.394,0,2.314,0.919,3.236,1.381C460.006,366.201,460.928,367.129,461.391,368.51z M450.774,371.278l-12.47-2.308
	c-1.844,0-2.768-0.92-3.689-2.77l-4.609-12.003l-6.466,11.546c-0.462,1.385-1.854,2.307-3.698,2.307l-12.922,0.92l8.77,9.228
	c1.384,1.381,1.846,2.778,1.384,4.164l-3.227,12.915l11.535-5.538c1.387-0.919,3.238-0.919,4.625,0l11.075,6.92l-1.847-12.451
	c0-1.846,0.463-3.231,1.847-4.629L450.774,371.278z M384.299,290.951l16.155-1.386c1.384,0,2.771,0.462,3.229,1.843l9.701,12.93
	l4.151-15.692c0-1.384,0.922-2.307,2.307-2.769l15.235-5.073l-13.392-8.319c-1.384-0.921-1.844-2.302-1.844-3.689V252.64
	l-12.462,10.622c-0.921,0.462-2.305,0.919-3.696,0.462l-15.689-4.612l6.005,14.757c0.459,1.384,0.459,2.765-0.469,3.704
	L384.299,290.951z M251.351,387.896l2.771-9.698c0.459-0.462,0-1.387-0.462-1.847c-0.459-0.461-1.383-0.461-1.846-0.461l-9.232,4.15
	l-8.309-5.992c-0.461-0.463-1.382-0.463-1.847,0c-0.929,0.456-1.392,1.379-1.392,1.842l0.921,10.16l-7.837,5.996
	c-0.459,0.463-0.921,0.924-0.459,1.844c0,0.926,0.459,1.387,1.38,1.387l9.694,2.322l3.229,9.221c0,0.926,0.928,1.387,1.39,1.387
	c0.924,0.459,1.846,0,2.308-0.922l5.074-8.304l9.702-0.462c0.92,0,1.38-0.477,1.842-0.92c0.459-0.94,0-1.402-0.462-2.322
	L251.351,387.896z M326.137,410.051V398.52l-8.776,7.382c-0.921,0.919-2.768,1.384-4.154,0.919l-11.075-3.689l4.151,10.609
	c0.922,1.383,0.922,3.248,0,4.166l-6.928,9.683l11.547-0.919c1.382,0,2.766,0.462,3.69,1.845l6.925,9.242l2.766-11.549
	c0.464-0.919,1.39-2.308,2.774-2.771l11.08-3.688l-9.694-6.01C327.059,412.816,326.137,411.896,326.137,410.051z M346.906,320.5
	l2.77-27.704c0.459-2.308-0.462-4.151-2.77-5.535c-1.84-0.923-4.147-0.923-6.002,0.458l-23.083,15.237l-25.382-11.087
	c-2.314-0.919-4.161-0.919-6.002,0.927c-1.846,1.396-2.305,3.246-1.846,5.545l7.849,26.77l-18.923,20.77
	c-1.393,1.859-1.855,4.166-0.933,6.01c0.933,2.308,2.776,3.23,5.082,3.689l27.698,0.925l14.312,24.016
	c0.921,1.842,2.769,3.226,5.076,2.769c2.31,0,4.155-1.388,5.08-3.71l9.232-25.843l27.692-5.996c1.849-0.462,3.701-2.308,4.16-4.165
	c0.462-2.308-0.459-4.152-1.853-5.534L346.906,320.5z M644.649,462.026l-60.627-46.242c0,0-88.348,49.45-89.407,48.54
	c-1.072-0.914,35.325-98.825,35.325-98.825s-53.604-50.669-53.015-51.337l8.502-14.02c0.01-0.02,0.008-0.047,0.013-0.071
	c0.14-0.331,0.335-0.632,0.568-0.89l0.003-0.01c0.223-0.254,0.482-0.462,0.757-0.627c0.077-0.051,0.159-0.071,0.228-0.106
	c0.22-0.116,0.445-0.217,0.688-0.277c0.114-0.029,0.231-0.029,0.345-0.051c0.214-0.023,0.428-0.048,0.65-0.043
	c0.04,0.005,0.074-0.005,0.111-0.005l68.1,6.852l30.722-60.972c0.237-0.53,19.237-16.646,19.513-16.881c0,0,0.007-0.005,0.007-0.015
	c1.438,0.13,21.548,83.338,21.548,83.338s73.85,7.316,84.266,9.455c0.237,0.021,0.382,0.051,0.402,0.082c0,0,0.003,0,0.003,0.005
	c0.511,0.12,0.825,0.22,0.847,0.3c0.099,0.453,0.072,0.916-0.009,1.353c-0.008,0.186-0.063,0.402-0.164,0.665
	c-0.012,0.014-0.021,0.033-0.021,0.055c-0.305,0.541-12.162,22.09-12.765,22.451l-56.595,34.939l15.545,67.55
	c0.018,0.055,0.006,0.11,0.015,0.165c0.036,0.2,0.046,0.406,0.04,0.606c0.003,0.133,0.008,0.259-0.006,0.382
	c-0.034,0.217-0.092,0.413-0.154,0.613c-0.04,0.117-0.057,0.223-0.105,0.324c-0.104,0.23-0.239,0.447-0.402,0.643
	c-0.045,0.064-0.077,0.135-0.123,0.199c-0.008,0-0.009,0.012-0.009,0.012l-0.185,0.149c-0.184,0.176-0.365,0.373-0.598,0.503
	l-0.104,0.06L644.649,462.026z M582.668,408.9l0.166-0.088c1.138-0.58,2.524-0.434,3.537,0.365l59.288,46.543l6.581-7.428
	l-59.99-52.217c0,0-73.878,43.252-74.966,42.303c-1.09-0.939,31.553-80.076,31.553-80.076l-61.893-53.863l-4.61,8.918l11.377,9.902
	l42.386,38.855c1.007,0.922,1.347,2.368,0.864,3.641l-33.77,88.532L582.668,408.9z M602.447,236.353l-11.347,9.293l-27.707,59.925
	l8.772,0.89C572.166,306.46,592.887,257.307,602.447,236.353z M554.25,310.153l-40.649-4.353l-19.83-2.115l3.839,3.205
	l57.415,47.977c1.091,0.947,1.446,2.48,0.882,3.809l-32.023,72.189l67.016-41.732l0.23-0.131c1.193-0.594,2.645-0.417,3.663,0.469
	l54.395,48.717l4.144,3.725l-6.441-26.188l-7.987-32.496l-1.634-6.65l-2.7-10.973c-0.319-1.408,0.294-2.863,1.532-3.598
	l70.211-38.956l-0.16-0.009l-32.525-2.525l-47.936-3.713c-1.436-0.123-2.628-1.166-2.947-2.57l-11.59-56.309l-4.307-20.935
	l-1.614,3.89l-28.702,69.281c-0.56,1.332-1.914,2.14-3.351,2.014l-12.229-1.307L554.25,310.153z M643.126,373.111l56.239-33.335
	l7.535-12.493l-65.305,39.181L643.126,373.111z"/>
</svg>
