<?xml version="1.0" encoding="utf-8"?>
<!-- Generator: Adobe Illustrator 16.0.0, SVG Export Plug-In . SVG Version: 6.00 Build 0)  -->
<!DOCTYPE svg PUBLIC "-//W3C//DTD SVG 1.1//EN" "http://www.w3.org/Graphics/SVG/1.1/DTD/svg11.dtd">
<svg version="1.1" id="Layer_1" xmlns="http://www.w3.org/2000/svg" xmlns:xlink="http://www.w3.org/1999/xlink" x="0px" y="0px"
	 width="841.89px" height="595.28px" viewBox="0 0 841.89 595.28" enable-background="new 0 0 841.89 595.28" xml:space="preserve">
<path d="M225.383,380.588l137.886-62.77l-123.315,88.055l-19.924-5.354L225.383,380.588z M231.33,385.547l-2.776,10.014l10.11,2.683
	l61.856-44.136L231.33,385.547z M294.079,113.534l95.065,118.107l-115.983-97.583l0.202-20.719L294.079,113.534z M290.706,120.575
	l-10.405-0.098l-0.1,10.408l58.189,48.894L290.706,120.575z M635.482,204.569l-141.756,53.345l128.872-79.722l19.625,6.737
	L635.482,204.569z M629.932,199.113l3.373-9.819l-9.912-3.366l-64.633,40.063L629.932,199.113z M641.627,342.411l-145.521-42.444
	l150.979,13.586l11.597,17.152L641.627,342.411z M640.34,334.673l8.626-5.851l-5.847-8.524l-75.738-6.843L640.34,334.673z
	 M481.535,495.027l-33.61-147.861l61.366,138.638l-9.217,18.539L481.535,495.027z M487.579,490.268l9.323,4.658l4.658-9.315
	l-30.833-69.518L487.579,490.268z M599.796,242.848l1.392-2.382l-2.282-1.482l-19.233,6.542L599.796,242.848z M603.963,249.293
	l-95.069,12.793l90.806-30.841l11.197,6.942L603.963,249.293z M371.104,121.066l-2.577-1.087l-1.09,2.481l8.921,18.247
	L371.104,121.066z M377.051,116.108l24.684,92.627l-42.131-86.179l5.454-11.897L377.051,116.108z M259.582,291.933l-1.881,2.083
	l2.08,1.789l20.124-2.979L259.582,291.933z M256.608,284.791l95.757,4.266L257.6,303.234l-9.713-8.719L256.608,284.791z
	 M376.062,445.939l1.286,2.481l2.478-1.192l4.76-19.736L376.062,445.939z M368.327,446.039l39.851-87.265l-22.304,93.311
	l-11.797,5.756L368.327,446.039z M547.854,410.437l2.774,0.101l0.099-2.783l-14.971-13.684L547.854,410.437z M544.184,417.277
	l-57.098-77.049l70.877,64.557l-0.689,13.088L544.184,417.277z M513.256,100.942l-1.09-2.581l-2.576,1.09l-6.248,19.24
	L513.256,100.942z M520.992,101.535l-46.594,83.797l29.543-91.231l12.191-4.765L520.992,101.535z M194.951,225l-2.286,1.585
	l1.492,2.279l20.219,2.086L194.951,225z M193.856,217.362l91.701,28.06l-95.366-9.917l-7.237-10.907L193.856,217.362z
	 M443.06,291.396l16.251-16.951c0.503-0.517,0.647-1.295,0.38-1.96c-0.274-0.671-0.913-1.122-1.638-1.144l-22.494-0.794
	l-9.889-20.326c-0.315-0.651-0.957-1.054-1.699-1.039c-0.717,0.022-1.358,0.454-1.648,1.113l-8.882,20.777l-20.794,0.942
	c-0.708,0.037-1.342,0.477-1.614,1.136c-0.269,0.658-0.139,1.413,0.342,1.94l15.669,17.167l-5.95,23.012
	c-0.184,0.714,0.074,1.47,0.663,1.919c0.325,0.248,0.719,0.376,1.119,0.376c0.313,0,0.624-0.08,0.907-0.236l21.599-12.323
	l22.612,11.021c0.255,0.131,0.528,0.193,0.808,0.193h0.014c1.014,0,1.832-0.833,1.832-1.841c0-0.284-0.06-0.556-0.178-0.799
	L443.06,291.396z M426.122,301.282c-0.547-0.271-1.191-0.252-1.715,0.056l-18.669,10.643l5.111-19.764
	c0.155-0.597,0-1.242-0.417-1.698l-13.7-15.006l18.03-0.818c0.701-0.041,1.324-0.47,1.603-1.113l7.757-18.137l8.611,17.708
	c0.297,0.61,0.911,1.006,1.59,1.033l19.49,0.685l-14.18,14.793c-0.472,0.488-0.631,1.204-0.417,1.855l6.448,19.29L426.122,301.282z
	 M489.658,261.476c-0.01,0-0.021-0.008-0.036-0.008l-3.118-0.104l-0.032-0.008l-42.177-1.493l-17.439-35.845l0,0l-2.283-5.445
	c-0.63-0.624-1.27-0.75-1.814-0.687c-0.028-0.004-0.055-0.012-0.088-0.012c-0.026,0-0.055,0.012-0.082,0.02
	c-0.102,0-0.203,0.026-0.297,0.043c-0.064,0.02-0.129,0.031-0.191,0.055c-0.099,0.031-0.19,0.083-0.282,0.137
	c-0.05,0.03-0.106,0.048-0.164,0.091c-0.082,0.056-0.157,0.13-0.237,0.215c-0.042,0.041-0.085,0.075-0.123,0.124l-0.02,0.013
	c-0.099,0.129-0.188,0.271-0.245,0.415l0,0l-2.297,5.368l-1.991,4.662l-0.553,1.279l-1.487,3.484l-11.601,27.106l-29.409,1.34
	l-2.115,0.098l-10.5,0.477c-0.715,0.029-1.346,0.474-1.617,1.127c-0.271,0.661-0.14,1.42,0.342,1.949l0.449,0.491l0.414,0.459
	l6.292,6.889l1.345,1.483l1.17,1.273l1.284,1.412l3.078,3.376l2.093,2.29l0.496,0.542l2.142,2.346l0.625,0.679l1.695,1.864
	l10.394,11.392l-0.36,1.396l-0.948,3.671l-1.728,6.669l-0.885,3.43l-4.438,17.167l-0.816,3.151l-0.604,2.328l-0.599,2.312
	l-1.57,6.079c-0.183,0.715,0.078,1.469,0.666,1.92c0.328,0.248,0.722,0.38,1.116,0.38c0.313,0,0.63-0.083,0.915-0.243l43.318-24.709
	l1.53,0.748l2.694,1.316l12.985,6.33l2.781,1.356l13.414,6.538l2.381,1.162l1.089,0.534l2.622,1.275l3.363,1.642l1.568,0.762
	l0.902,0.439c0,0,0,0,0.006,0c0.11,0.055,0.229,0.1,0.351,0.129c0.028,0.006,0.063,0.014,0.089,0.02
	c0.119,0.018,0.239,0.043,0.365,0.043h0.015l0,0h0.054c0.086-0.008,0.171-0.025,0.252-0.029c0.085-0.02,0.167-0.044,0.248-0.07
	c0.021-0.006,0.049-0.012,0.077-0.025c0.077-0.029,0.149-0.066,0.222-0.098c0.014-0.006,0.022-0.014,0.031-0.023
	c0.046-0.02,0.074-0.067,0.12-0.094h0.028c0,0,0.109-0.105,0.246-0.245c0.07-0.075,0.143-0.149,0.202-0.24
	c0.286-0.374,0.599-0.958,0.522-1.748l-2.371-6.113l-12.188-36.48c-0.842-2.517,0.614-3.77,0.614-3.77l3.943-4.141l25.871-26.979
	c1.954-1.711,1.969-2.894,1.969-2.894C491.24,261.55,489.658,261.476,489.658,261.476z M454.736,296.973v0.008
	c-0.101,0.103-0.186,0.229-0.257,0.357c-0.023,0.037-0.043,0.071-0.06,0.107c-0.052,0.109-0.095,0.214-0.121,0.332
	c-0.012,0.036-0.021,0.063-0.028,0.099c-0.027,0.129-0.046,0.266-0.046,0.413c0,0.008,0.01,0.013,0.01,0.02
	c0,0.037,0.008,0.063,0.009,0.099c0.011,0.125,0.034,0.248,0.067,0.375c0.008,0.02,0.006,0.027,0.012,0.056l14.025,41.97
	l-42.265-20.607c-0.546-0.266-1.19-0.242-1.72,0.055l-40.386,23.033l11.109-42.964c0.157-0.597-0.002-1.239-0.417-1.697
	l-29.51-32.334l39.26-1.785c0.705-0.037,1.328-0.471,1.612-1.116l16.794-39.26l18.644,38.333c0.299,0.613,0.91,1.01,1.59,1.037
	L485.393,265L454.736,296.973z"/>
</svg>
