<?xml version="1.0" encoding="utf-8"?>
<!-- Generator: Adobe Illustrator 16.0.0, SVG Export Plug-In . SVG Version: 6.00 Build 0)  -->
<!DOCTYPE svg PUBLIC "-//W3C//DTD SVG 1.1//EN" "http://www.w3.org/Graphics/SVG/1.1/DTD/svg11.dtd">
<svg version="1.1" id="Layer_1" xmlns="http://www.w3.org/2000/svg" xmlns:xlink="http://www.w3.org/1999/xlink" x="0px" y="0px"
	 width="841.89px" height="595.28px" viewBox="0 0 841.89 595.28" enable-background="new 0 0 841.89 595.28" xml:space="preserve">
<path d="M507.182,171.929l-11.323-0.904l-4.206-10.292c-0.646-2.004-3.492-2.138-4.333-0.126l-4.334,10.479l-11.193,0.843
	c-2.006,0.064-2.975,2.648-1.421,4.012l8.668,7.375l-2.655,10.808c-0.646,2.008,1.556,3.82,3.43,2.657l9.641-5.953l9.444,5.823
	c1.684,1.293,4.14-0.261,3.623-2.333l-2.651-11.062l8.473-7.187C510.026,174.771,509.314,172.06,507.182,171.929z M495.793,180.666
	c-0.712,0.644-0.969,1.617-0.646,2.521l1.616,6.794l-6.082-3.749c-0.84-0.521-1.811-0.459-2.521,0.059l-6.018,3.69l1.682-6.92
	c0.194-0.974-0.128-1.878-0.904-2.396l-5.306-4.597l7.117-0.519c0.969-0.064,1.747-0.779,2.007-1.618l2.716-6.472l2.651,6.602
	c0.39,0.907,1.23,1.423,2.071,1.423l7.116,0.583L495.793,180.666z M472.957,45.929c-27.818,56.108-45.478,162.368-44.895,222.357
	c0.063,2.852,4.333,3.045,4.591,0.199c8.927-59.927,31.637-148.78,61.911-207.027l9.962,6.147c1.682,1.229,4.076-0.321,3.558-2.392
	l-4.011-16.696l12.939-10.934c1.684-1.298,0.905-4.019-1.229-4.144l-17.079-1.359L492.3,16.415
	c-0.647-2.004-3.491-2.129-4.332-0.125l-6.535,15.856l-16.95,1.293c-2.069,0.064-3.039,2.652-1.423,4.009L472.957,45.929z
	 M433.56,236.319c3.364-52.293,18.697-135.32,41.855-184.762l-3.301,13.463c-0.645,2.004,1.557,3.813,3.367,2.714l14.619-8.994
	l0.581,0.324C464.096,110.317,444.236,182.157,433.56,236.319z M483.181,36.61c0.903-0.066,1.68-0.71,2.005-1.618l4.915-11.844
	l4.918,11.97c0.321,0.844,1.162,1.426,2.005,1.426l12.872,1.039l-9.835,8.346c-0.774,0.644-0.967,1.617-0.709,2.522l2.977,12.425
	l-11-6.797c-0.775-0.514-1.808-0.45-2.52,0.064l-11,6.732l3.106-12.551c0.193-0.907-0.194-1.878-0.908-2.396l-9.766-8.346
	L483.181,36.61z M614.18,229.979l-23.612-1.817l-8.929-21.675c-0.646-2.072-3.492-2.2-4.333-0.195l-9.057,21.939l-23.417,1.748
	c-2.072,0.062-3.043,2.652-1.427,4.075l7.961,6.794c-45.545,11.648-89.795,50.088-104.091,92.478
	c-0.971,2.849,3.298,4.272,4.268,1.489c19.994-43.294,62.106-68.276,107.52-75.585l-3.169,13.006
	c-0.647,2.006,1.551,3.814,3.363,2.652l20.247-12.426l19.928,12.296c1.745,1.292,4.136-0.256,3.621-2.328l-5.563-23.104
	l17.918-15.21C617.091,232.891,616.314,230.17,614.18,229.979z M560.226,254.441c-31.117,4.658-61.132,17.408-84.227,39.019
	c19.601-22.45,49.358-41.996,79.699-48.922l5.757,4.914L560.226,254.441z M593.479,246.74c-0.778,0.649-0.972,1.613-0.713,2.518
	l4.531,18.835l-16.563-10.225c-0.844-0.516-1.811-0.45-2.522,0.068l-16.561,10.157l4.59-18.961c0.195-0.905-0.127-1.878-0.903-2.392
	l-14.751-12.625l19.408-1.418c0.971-0.066,1.747-0.715,2.004-1.62l7.439-17.927l7.378,18.057c0.385,0.841,1.162,1.354,2.067,1.424
	l19.408,1.484L593.479,246.74z M551.04,202.217l10.027,6.209c1.683,1.234,4.141-0.255,3.621-2.394l-3.296-13.719l10.606-8.999
	c1.684-1.292,0.907-4.009-1.23-4.139l-14.036-1.099l-5.306-12.88c-0.645-2.006-3.491-2.136-4.268-0.125l-5.436,13.006l-13.908,1.099
	c-0.646,0-1.231,0.255-1.682,0.774c-0.843,0.973-0.712,2.396,0.261,3.237l3.36,2.911c-62.813,37.215-99.948,98.497-106.804,172.466
	c-0.258,2.851,3.947,3.434,4.528,0.652C446.305,287.832,484.86,235.539,551.04,202.217z M543.471,182.607
	c0.971-0.13,1.748-0.779,2.005-1.62l3.753-9.059l3.753,9.188c0.389,0.841,1.229,1.36,2.068,1.425l9.835,0.772l-7.569,6.408
	c-0.713,0.649-0.97,1.618-0.647,2.463l2.265,9.508l-8.408-5.175c-0.841-0.519-1.813-0.449-2.589,0.067l-8.347,5.108l2.329-9.575
	c0.261-0.972-0.129-1.877-0.841-2.46l-7.504-6.344L543.471,182.607z M432.073,329.182c13.197-60.571,48.455-109.104,101.372-139.977
	l3.687,3.175l-3.233,13.458c-0.068,0.195-0.133,0.386-0.133,0.585C485.313,234.828,451.935,275.281,432.073,329.182z
	 M309.028,152.707l2.007-1.743c1.748-1.234,0.971-3.95-1.165-4.084l-12.743-1.031c-1.748-0.973-3.496-1.877-5.306-2.785
	l-5.369-13.074c-0.645-2.003-3.494-2.198-4.27-0.191l-6.535,15.788l-16.883,1.233c-2.005,0.06-2.976,2.717-1.425,4.079
	l13.006,11.063l-3.948,16.371c-0.646,2.005,1.554,3.825,3.364,2.655l14.556-8.928l14.298,8.8c1.68,1.298,4.14-0.261,3.623-2.333
	l-0.52-2.128c55.442,33.452,88.757,82.443,105.836,147.157c0.518,2.847,4.785,2.262,4.528-0.646
	C405.355,250.492,369.516,190.111,309.028,152.707z M285.545,167.399c-0.84-0.455-1.811-0.393-2.587,0.125l-10.869,6.666
	l3.043-12.484c0.259-0.973-0.131-1.878-0.842-2.397l-9.705-8.286l12.809-0.973c0.971-0.06,1.746-0.708,2.007-1.613l4.85-11.781
	l4.917,11.907c0.324,0.848,1.164,1.428,2.007,1.428l12.808,1.033l-9.769,8.286c-0.776,0.645-1.036,1.618-0.711,2.522l2.977,12.359
	L285.545,167.399z M300.232,170.181l-2.007-8.281l7.116-6.022c50.783,30.935,84.682,78.563,97.619,137.646
	C382.905,239.229,349.267,198.591,300.232,170.181z M255.918,230.364l-4.337-10.479c-0.58-2.071-3.426-2.207-4.269-0.194
	l-5.369,13.07l-13.974,1.035c-2.068,0.064-3.042,2.65-1.422,4.01l10.804,9.193l-3.301,13.524c-0.647,1.939,1.553,3.756,3.364,2.657
	l12.031-7.381l11.841,7.247c1.683,1.295,4.076-0.258,3.556-2.392l-1.292-5.307c61.068,9.058,118.255,43.354,142.384,102.506
	c0.973,2.782,5.179,1.423,4.337-1.423C392.027,293.524,321.837,235.089,255.918,230.364z M256.824,246.866l2.263,9.512l-8.41-5.242
	c-0.841-0.515-1.808-0.451-2.522,0.068l-8.41,5.174l2.394-9.638c0.192-0.973-0.195-1.878-0.908-2.397l-7.438-6.408l9.896-0.71
	c0.906-0.064,1.683-0.779,2.007-1.617l3.749-9.058l3.755,9.188c0.322,0.843,1.162,1.423,2.003,1.423l9.9,0.774l-7.568,6.408
	C256.759,244.988,256.565,245.961,256.824,246.866z M262.386,250.492l-0.839-3.557l10.608-8.999c0.26-0.19,0.389-0.384,0.582-0.581
	c43.863,9.319,87.012,41.158,111.854,76.685C353.927,277.867,308.9,257.027,262.386,250.492z M376.438,81.585l-0.322-1.361
	l17.854-15.204c1.683-1.231,0.97-3.949-1.163-4.144l-23.678-1.878l-8.929-21.678c-0.644-2.008-3.428-2.139-4.268-0.131
	l-9.057,21.874l-23.484,1.813c-2.07,0.063-3.042,2.657-1.423,4.014l18.049,15.402l-5.499,22.843
	c-0.714,1.94,1.488,3.756,3.365,2.657l16.171-9.967c32.282,58.829,55.117,148.713,64.563,212.003
	c0.322,2.847,4.527,2.652,4.592-0.256C423.793,246.222,405.419,136.656,376.438,81.585z M340.208,98.991l4.594-18.961
	c0.259-0.905-0.128-1.874-0.841-2.392L329.149,65.02l19.472-1.422c0.906-0.133,1.745-0.78,2.004-1.623l7.376-17.923l7.439,17.993
	c0.322,0.904,1.165,1.42,2.004,1.42l19.472,1.556L372.04,77.638c-0.712,0.582-0.971,1.617-0.646,2.46l4.528,18.893l-16.626-10.292
	c-0.776-0.445-1.813-0.381-2.524,0.135L340.208,98.991z M357.936,93.497l0.193-0.135l19.925,12.295c1.36,1.04,3.3,0.195,3.625-1.357
	c19.86,50.025,32.926,123.543,36.032,171.364C406.712,219.691,385.819,144.942,357.936,93.497z M449.151,496.215l23.771-24.792
	c0.731-0.765,0.95-1.892,0.552-2.877c-0.399-0.975-1.339-1.638-2.399-1.672l-32.893-1.16l-14.462-29.729
	c-0.461-0.95-1.403-1.54-2.479-1.513c-1.055,0.025-1.998,0.662-2.413,1.632l-12.994,30.375l-30.406,1.387
	c-1.042,0.05-1.965,0.689-2.365,1.663c-0.395,0.954-0.203,2.066,0.497,2.832l22.917,25.109l-8.699,33.646
	c-0.274,1.049,0.109,2.152,0.969,2.811c0.477,0.364,1.054,0.55,1.633,0.55c0.457,0,0.916-0.114,1.331-0.354l31.591-18.014
	l33.066,16.119c0.372,0.186,0.777,0.274,1.177,0.274h0.021c1.484,0,2.687-1.206,2.687-2.687c0-0.418-0.095-0.813-0.263-1.167
	L449.151,496.215z M424.385,510.654c-0.801-0.388-1.742-0.357-2.512,0.083l-27.3,15.567l7.474-28.897
	c0.229-0.88-0.002-1.814-0.615-2.483l-20.028-21.942l26.363-1.209c1.029-0.046,1.94-0.674,2.347-1.629l11.344-26.512l12.596,25.888
	c0.435,0.894,1.325,1.479,2.322,1.513l28.509,1l-20.74,21.64c-0.689,0.718-0.927,1.761-0.605,2.707l9.427,28.207L424.385,510.654z
	 M517.302,452.449c-0.018-0.004-0.032-0.008-0.05-0.008l-4.562-0.161l-0.045-0.004l-61.688-2.18l-25.5-52.427l0,0l-3.343-7.965
	c-0.924-0.909-1.855-1.099-2.654-1.005c-0.042-0.005-0.081-0.019-0.124-0.014c-0.044,0-0.08,0.016-0.124,0.016
	c-0.147,0.014-0.293,0.044-0.434,0.078c-0.097,0.025-0.192,0.036-0.283,0.07c-0.143,0.055-0.275,0.126-0.407,0.199
	c-0.078,0.051-0.16,0.08-0.236,0.137c-0.126,0.09-0.235,0.203-0.35,0.318c-0.061,0.062-0.13,0.109-0.185,0.18l-0.025,0.021
	c-0.15,0.186-0.267,0.394-0.359,0.607v0.003l-3.361,7.85l-2.914,6.806l-0.807,1.885l-2.175,5.087l-16.963,39.648l-43.019,1.958
	l-3.092,0.139l-15.353,0.699c-1.044,0.051-1.966,0.694-2.364,1.658c-0.401,0.965-0.204,2.072,0.497,2.843l0.66,0.725l0.611,0.665
	l9.198,10.081l1.968,2.153l1.703,1.867l1.885,2.063l4.502,4.938l3.057,3.348l0.725,0.792l3.133,3.436l0.914,1.005l2.479,2.713
	l15.201,16.663l-0.529,2.044l-1.383,5.366l-2.529,9.76l-1.294,5.006l-6.492,25.113l-1.191,4.61l-0.884,3.406l-0.872,3.381
	l-2.299,8.882c-0.269,1.052,0.114,2.154,0.973,2.813c0.478,0.366,1.054,0.556,1.631,0.556c0.459,0,0.916-0.119,1.333-0.354
	l63.359-36.128l2.237,1.09l3.938,1.916l18.99,9.259l4.067,1.979l19.618,9.571l3.487,1.698l1.59,0.77l3.833,1.869l4.92,2.396
	l2.289,1.123l1.326,0.645c0,0,0,0,0.005,0c0.163,0.08,0.334,0.135,0.513,0.181c0.041,0.009,0.084,0.022,0.127,0.029
	c0.176,0.039,0.354,0.064,0.534,0.064h0.024l0.003-0.004h0.075c0.127-0.01,0.247-0.021,0.369-0.041
	c0.12-0.026,0.24-0.061,0.357-0.095c0.04-0.011,0.076-0.024,0.117-0.036c0.112-0.043,0.222-0.094,0.328-0.149
	c0.014-0.008,0.028-0.015,0.044-0.028c0.066-0.034,0.106-0.102,0.167-0.143h0.052c0,0,0.155-0.139,0.353-0.354
	c0.108-0.11,0.21-0.22,0.295-0.35c0.427-0.56,0.879-1.407,0.771-2.553l-3.463-8.948l-17.835-53.352
	c-1.232-3.681,0.905-5.518,0.905-5.518l5.763-6.043l37.835-39.47c2.861-2.496,2.878-4.237,2.878-4.237
	C519.617,452.551,517.302,452.449,517.302,452.449z M466.232,504.368v0.004c-0.152,0.151-0.275,0.332-0.384,0.525
	c-0.027,0.056-0.055,0.101-0.082,0.16c-0.075,0.151-0.135,0.311-0.181,0.48c-0.011,0.05-0.029,0.094-0.038,0.144
	c-0.042,0.194-0.064,0.396-0.063,0.601c0,0.019,0.007,0.029,0.007,0.043c0,0.047,0.012,0.085,0.014,0.131
	c0.019,0.189,0.051,0.37,0.103,0.548c0.01,0.025,0.007,0.055,0.018,0.08l20.517,61.383l-61.817-30.133
	c-0.798-0.391-1.737-0.356-2.512,0.08l-59.063,33.678l16.246-62.823c0.227-0.875-0.006-1.81-0.619-2.483l-43.155-47.287
	l57.423-2.618c1.03-0.044,1.943-0.674,2.352-1.622l24.563-57.417l27.268,56.058c0.436,0.896,1.333,1.478,2.324,1.515l61.91,2.191
	L466.232,504.368z"/>
</svg>
