<?xml version="1.0" encoding="utf-8"?>
<!-- Generator: Adobe Illustrator 16.0.0, SVG Export Plug-In . SVG Version: 6.00 Build 0)  -->
<!DOCTYPE svg PUBLIC "-//W3C//DTD SVG 1.1//EN" "http://www.w3.org/Graphics/SVG/1.1/DTD/svg11.dtd">
<svg version="1.1" id="Layer_1" xmlns="http://www.w3.org/2000/svg" xmlns:xlink="http://www.w3.org/1999/xlink" x="0px" y="0px"
	 width="841.89px" height="595.28px" viewBox="0 0 841.89 595.28" enable-background="new 0 0 841.89 595.28" xml:space="preserve">
<path d="M311.572,213.434c9.34,2.478,18.512,4.783,27.6,7.347c20.299,5.73,40.587,11.521,60.824,17.481
	c3.701,1.1,5.118-0.37,6.797-3.305c4.382-7.647,5.031-16.273,6.364-24.584c1.914-11.983,8.621-22.149,11.6-33.71
	c1.039-4.036,4.854-6.409,9.802-5.856c5.641,0.627,8.523,3.749,10.002,9.01c5.784,20.561,12.04,41.008,15.786,62.098
	c0.595,3.337,2.378,6.54,2.571,9.861c0.844,14.576,9.811,20.912,22.49,25.416c19.398,6.893,37.217,17.782,57.223,23.393
	c6.521,1.838,7.548,9.436,2.574,14.657c-2.091,2.198-4.75,3.253-7.67,3.854c-23.699,4.774-45.219,15.978-68.067,23.277
	c-1.941,0.619-4.087,1.245-4.862,3.854c-5.625,19.01-12.227,37.661-20.051,55.902c-2.229,5.177-4.663,10.172-7.633,14.879
	c-2.719,4.306-6.74,7.733-12.057,6.394c-5.332-1.352-7.247-5.623-8.522-11.307c-3.949-17.545-9.506-34.677-15.378-51.681
	c-3.803-11.01-3.895-11.655-15.2-10.855c-28.061,1.966-55.699-2.995-83.549-4.357c-4.749-0.235-8.019-2.485-9.318-7.593
	c-1.458-5.723-0.154-10.918,4.654-13.411c15.122-7.814,28.646-18.411,43.999-25.678c22.135-10.479,22.66-12.28,3.823-27.948
	c-14.437-12.015-27.742-25.134-39.753-39.546c-2.777-3.328-4.737-7.3-2.456-11.98C304.945,215.392,307.819,213.658,311.572,213.434z
	 M430.074,383.751c1.305-3.802,1.875-5.9,2.721-7.874c5.199-12.203,4.52-25.769,8.893-38.191c1.584-4.485,3.658-7.085,8.646-8.479
	c11.188-3.133,22.142-7.151,33.075-11.116c9.824-3.562,19.504-7.522,30.259-11.707c-12.772-6.37-24.192-12.208-35.744-17.79
	c-28.839-13.949-29.927-15.163-36.204-47.347c-2.023-10.37-4.443-20.57-9.015-30.441c-1.693,14.764-7.603,28.118-12.333,41.851
	c-3.197,9.258-9.749,12.281-18.329,8.373c-18.572-8.475-38.467-12.832-59.378-19.064c1.771,2.131,2.433,3.104,3.27,3.893
	c12.057,11.308,24.017,22.717,36.278,33.8c3.433,3.094,4.18,5.804,2.637,10.169c-2.7,7.612-9.312,10.874-15.079,15.205
	c-11.219,8.401-24.662,13.171-36.858,22.103c10.084,2.146,19.108,2.958,28.288,2.731c15.487-0.39,30.974-0.739,46.467-0.813
	c9.185-0.039,12.709,4.345,11.72,13.561c-0.175,1.685-0.372,3.504,0.076,5.081C422.71,359.084,426.131,370.436,430.074,383.751z"/>
</svg>
