<?xml version="1.0" encoding="utf-8"?>
<!-- Generator: Adobe Illustrator 16.0.0, SVG Export Plug-In . SVG Version: 6.00 Build 0)  -->
<!DOCTYPE svg PUBLIC "-//W3C//DTD SVG 1.1//EN" "http://www.w3.org/Graphics/SVG/1.1/DTD/svg11.dtd">
<svg version="1.1" id="Layer_1" xmlns="http://www.w3.org/2000/svg" xmlns:xlink="http://www.w3.org/1999/xlink" x="0px" y="0px"
	 width="841.89px" height="595.28px" viewBox="0 0 841.89 595.28" enable-background="new 0 0 841.89 595.28" xml:space="preserve">
<path d="M421.029,69.221l0.765,220.45l42.463-216.327l-40.972,216.604l82.64-204.372l-81.226,204.941l119.825-185.042
	L425.985,291.339l152.674-159.013L427.082,292.394l180.014-127.25L427.97,293.639l200.845-90.895l-200.209,92.271l214.405-51.229
	l-214.048,52.712l220.229-9.726l-220.158,11.25l218.094,32.126l-218.311-30.609l208.074,72.808l-208.574-71.379l190.535,110.885
	L427.556,302.291l166.103,144.936L426.563,303.445L562.233,477.19L425.361,304.385l100.334,196.29l-101.69-195.598l61.38,211.734
	l-62.84-211.307l20.192,219.528l-21.708-219.374l-21.712,219.374l20.189-219.528l-62.831,211.307l61.375-211.734L316.357,500.675
	l100.334-196.29L279.831,477.19l135.671-173.745L248.401,447.227l166.097-144.936L223.212,411.853l190.523-110.885L205.17,372.347
	l208.065-72.808l-218.306,30.609l218.087-32.126l-220.148-11.25l220.225,9.726l-214.049-52.712l214.403,51.229l-200.198-92.271
	l200.84,90.895L234.958,165.144l180.013,127.25L263.4,132.326l152.669,159.013L297.537,105.475l119.817,185.042L336.13,85.575
	l82.637,204.372L377.799,73.344l42.463,216.327L421.029,69.221z"/>
</svg>
