<?xml version="1.0" encoding="utf-8"?>
<!-- Generator: Adobe Illustrator 16.0.0, SVG Export Plug-In . SVG Version: 6.00 Build 0)  -->
<!DOCTYPE svg PUBLIC "-//W3C//DTD SVG 1.1//EN" "http://www.w3.org/Graphics/SVG/1.1/DTD/svg11.dtd">
<svg version="1.1" id="Layer_1" xmlns="http://www.w3.org/2000/svg" xmlns:xlink="http://www.w3.org/1999/xlink" x="0px" y="0px"
	 width="841.89px" height="595.28px" viewBox="0 0 841.89 595.28" enable-background="new 0 0 841.89 595.28" xml:space="preserve">
<path fill="#010101" d="M453.656,213.959l-22.004-52.97c52.975,3.963,97.492,38.172,116.348,85.44l-55.773-4.451
	C475.129,240.618,460.234,229.797,453.656,213.959z M330.467,303.463l-42.239-36.145c-2.109,9.535-3.259,19.433-3.259,29.602
	c0,41.517,18.577,78.676,47.844,103.685l12.386-51.804C349.185,332.123,343.495,314.613,330.467,303.463z M397.496,386.804
	l-45.258,27.664c20.274,11.941,43.872,18.813,69.097,18.813c25.221,0,48.826-6.872,69.09-18.813l-45.257-27.664
	C430.535,377.856,412.13,377.856,397.496,386.804z M389.007,213.959l22.01-52.97c-52.979,3.963-97.492,38.172-116.355,85.44
	l55.778-4.451C367.541,240.618,382.429,229.797,389.007,213.959z M497.471,348.801l12.377,51.804
	c29.271-25.009,47.851-62.168,47.851-103.685c0-10.169-1.151-20.066-3.263-29.602l-42.234,36.145
	C499.17,314.613,493.487,332.123,497.471,348.801z"/>
</svg>
