<?xml version="1.0" encoding="utf-8"?>
<!-- Generator: Adobe Illustrator 16.0.0, SVG Export Plug-In . SVG Version: 6.00 Build 0)  -->
<!DOCTYPE svg PUBLIC "-//W3C//DTD SVG 1.1//EN" "http://www.w3.org/Graphics/SVG/1.1/DTD/svg11.dtd">
<svg version="1.1" id="Layer_1" xmlns="http://www.w3.org/2000/svg" xmlns:xlink="http://www.w3.org/1999/xlink" x="0px" y="0px"
	 width="841.89px" height="595.28px" viewBox="0 0 841.89 595.28" enable-background="new 0 0 841.89 595.28" xml:space="preserve">
<path fill="#010101" d="M445.776,194.025l-62.287,25.12l17.946-64.72L358.3,102.95l67.094-2.923l35.626-56.938l23.52,62.909
	l65.157,16.292l-52.561,41.809l4.64,67L445.776,194.025z M354.057,550.724c9.64-28.351,18.218-56.978,26.482-85.686
	c8.212-28.724,16.017-57.548,23.457-86.468c7.449-28.92,14.517-57.933,21.172-87.053c6.617-29.134,12.904-58.35,18.123-87.844
	c-9.648,28.354-18.235,56.982-26.491,85.689c-8.219,28.722-16.017,57.546-23.446,86.472c-7.43,28.918-14.501,57.938-21.159,87.058
	C365.581,492.025,359.29,521.243,354.057,550.724z M455.682,491.502c2.183-23.279,3.268-46.551,4.025-69.821
	c0.709-23.275,0.991-46.55,0.899-69.817c-0.083-23.271-0.559-46.538-1.458-69.807c-0.941-23.263-2.221-46.532-4.605-69.789
	c-2.195,23.274-3.283,46.549-4.035,69.826c-0.711,23.276-0.996,46.543-0.891,69.813c0.105,23.273,0.571,46.539,1.473,69.806
	C452.039,444.979,453.314,468.248,455.682,491.502z M292.549,448.498c13.529-19.071,26.106-38.684,38.402-58.457
	c12.259-19.796,24.135-39.814,35.696-60.01c11.563-20.191,22.795-40.578,33.648-61.173c10.82-20.623,21.346-41.411,30.916-62.748
	c-13.544,19.066-26.128,38.678-38.418,58.456c-12.254,19.799-24.137,39.809-35.683,60.01c-11.55,20.203-22.781,40.587-33.635,61.188
	C312.66,406.387,302.129,427.164,292.549,448.498z"/>
</svg>
