<?xml version="1.0" encoding="utf-8"?>
<!-- Generator: Adobe Illustrator 16.0.0, SVG Export Plug-In . SVG Version: 6.00 Build 0)  -->
<!DOCTYPE svg PUBLIC "-//W3C//DTD SVG 1.1//EN" "http://www.w3.org/Graphics/SVG/1.1/DTD/svg11.dtd">
<svg version="1.1" id="Layer_1" xmlns="http://www.w3.org/2000/svg" xmlns:xlink="http://www.w3.org/1999/xlink" x="0px" y="0px"
	 width="841.89px" height="595.28px" viewBox="0 0 841.89 595.28" enable-background="new 0 0 841.89 595.28" xml:space="preserve">
<path fill="#010101" d="M300.747,193.903l1.843,5.994c0,0.463,0,0.925-0.459,1.382c-0.462,0.462-0.936,0.462-1.384,0l-5.551-2.763
	l-5.534,3.687c-0.462,0.462-0.921,0.462-1.383,0c-0.459-0.462-0.922-0.924-0.459-1.381l0.459-5.997l-5.088-4.172
	c-0.448-0.457-0.448-0.919-0.448-1.382c0.448-0.459,0.448-0.919,1.386-0.919l5.993-1.384l2.307-5.996
	c0.462-0.463,0.462-0.463,1.384-0.925c0.462,0,0.924,0.462,0.924,0.925l3.229,5.534l6.472,0.462c0.459,0,0.922,0,0.922,0.463
	c0.46,0.462,0.46,1.381,0,1.381L300.747,193.903z M329.819,131.119l-0.921,5.067c0,0.462-0.462,0.93-0.922,0.93
	c-0.465,0-0.927,0-0.927-0.468l-3.228-4.148l-5.548,0.457c0,0-0.443,0-0.924-0.457c0-0.462,0-0.924,0-0.924l3.248-4.613
	l-2.324-4.626c0-0.462,0-0.925,0.478-1.384c0,0,0.459-0.463,0.921,0l5.076,1.384l3.688-3.689c0.462,0,0.922,0,1.384,0
	c0.462,0,0.462,0.462,0.462,0.925l0.459,5.085l4.167,2.768c0.445,0.462,0.924,0.462,0.924,0.922
	c-0.479,0.462-0.479,0.919-0.924,0.919L329.819,131.119z M210.719,108.021l-1.384,5.091c0,0.463,0,0.463-0.465,0.463
	c-0.459,0.456-0.921,0-1.381,0l-3.227-4.616l-5.074,0.93c-0.462,0-0.923-0.463-0.923-0.93c-0.476,0-0.476-0.46,0-0.938l2.766-4.148
	l-1.843-5.07c0-0.462,0-0.924,0-0.924c0.462-0.462,0.922-0.462,1.384-0.462l5.072,1.386l3.691-3.234
	c0.462-0.462,0.922-0.462,1.384-0.462c0,0.462,0.459,0.462,0.459,0.924v5.535l4.629,2.77c0.462,0,0.462,0.462,0.462,0.925
	c0,0.457-0.462,0.457-0.462,0.919L210.719,108.021z M372.298,84.485l-0.922,5.073c0,0.467-0.465,0.942-0.927,0.942
	c-0.459,0-0.459,0-0.936-0.476l-3.228-4.153l-5.073,0.462c-0.462,0-0.921,0-1.384-0.462c0-0.463,0-0.925,0.462-1.387l2.765-4.151
	l-2.306-4.61c0-0.462,0-0.925,0.462-1.387c0-0.456,0.462-0.456,0.921-0.456l5.074,1.843l4.168-3.705c0-0.462,0.46-0.462,0.922,0
	c0.459,0,0.459,0.462,0.459,0.925l0.46,5.086l4.613,2.768c0,0,0.46,0.462,0.46,0.921c0,0.462-0.46,0.919-0.922,0.919L372.298,84.485
	z M412.914,90.501l5.074,8.759c0.462,0.462,0.462,1.387,0,1.846c-0.462,0.919-0.921,1.381-1.843,0.919l-10.146-1.378l-6.475,7.853
	c-0.459,0.46-1.382,0.927-2.304,0.46c-0.462,0-1.383-0.938-1.383-1.379l-1.386-10.163l-9.701-4.154
	c-0.462,0-0.921-0.919-0.921-1.843c-0.462-0.476,0-1.395,0.921-1.861l8.779-4.611l0.922-10.148c0-0.918,0.924-1.381,1.386-1.855
	c0.921,0,1.843,0,2.305,0.475l6.932,7.379l10.146-2.306c0.927-0.462,1.386,0,1.849,0.462c0.459,0.922,0.921,1.844,0.459,2.306
	L412.914,90.501z M208.87,242.359l-7.839,12.929c-0.459,0.925-0.459,2.306,0,3.225c0.927,0.924,1.849,1.392,3.231,1.392
	l14.773-2.311l9.685,11.088c0.924,0.919,1.863,1.381,3.228,0.919c0.938,0,1.86-0.919,1.86-2.3l2.77-14.782l13.389-5.53
	c1.383-0.462,1.845-1.843,1.845-2.785c0-1.381-0.462-2.306-1.382-2.768l-13.392-6.913l-1.386-14.774
	c0-1.387-0.459-2.311-1.843-2.773c-0.922-0.462-2.306,0-3.226,0.925l-10.626,10.163l-14.313-3.247c-1.381-0.457-2.304,0-3.226,0.929
	c-0.46,0.925-0.924,2.318,0,3.238L208.87,242.359z M354.295,148.193l-7.396-3.686c-0.921-0.463-1.382,0-1.844,0.462
	c-0.459,0-0.924,0.924-0.459,1.381l1.842,8.3l-5.996,6.016c-0.459,0.456-0.459,0.919,0,1.843c0,0.462,0.465,0.919,1.384,0.919
	l8.304,0.462l3.702,7.386c0.465,0.457,0.927,0.92,1.849,0.92c0.459,0,0.922-0.463,1.384-0.92l3.229-7.848l7.855-1.381
	c0.924,0,1.367-0.462,1.367-1.381c0.477-0.463,0-1.4-0.442-1.849l-6.475-5.086l1.381-8.3c0-0.462-0.459-1.387-0.921-1.844
	c-0.459,0-1.381,0-1.843,0L354.295,148.193z M234.271,120.953l-8.32,0.922c-0.92,0.462-1.38,0.921-1.38,1.381
	c-0.461,0.462,0,1.401,0.459,1.848l5.999,5.554l-1.384,8.302c0,0.92,0,1.382,0.938,1.841c0.445,0.462,0.92,0.462,1.842,0l6.92-4.151
	l7.839,3.692c0.477,0.459,0.922,0.459,1.843,0c0.482-0.462,0.482-0.925,0.482-1.844l-1.849-7.84l5.996-6
	c0.462-0.472,0.924-1.401,0.462-1.861c0-0.459-0.462-0.921-1.386-0.921l-8.313-1.385l-3.69-7.378
	c-0.462-0.462-0.922-0.924-1.384-0.924c-0.923,0-1.385,0.462-1.845,0.924L234.271,120.953z M309.972,354.543
	c-2.305-1.849-2.305-5.548,0-7.396c2.307-2.306,5.534-2.306,7.857,0l90.012,92.333c1.846,2.306,1.846,5.54,0,7.384
	c-2.305,2.305-5.55,2.305-7.855,0L309.972,354.543z M267.969,264.065c-1.863-2.318-1.863-5.553,0.462-7.394
	c1.846-2.303,5.533-2.303,7.379,0l10.625,10.629c2.305,2.3,2.305,5.997,0,7.84c-1.845,2.298-5.551,1.841-7.396,0L267.969,264.065z
	 M294.274,290.832c-2.306-2.306-2.306-5.535,0-7.838c2.305-1.844,5.553-1.844,7.856,0L444.77,429.323
	c1.844,2.303,1.844,5.551-0.463,7.856c-1.846,1.843-5.55,1.843-7.393-0.463L294.274,290.832z M409.228,127.887
	c-2.308-2.305-1.849-5.55,0-7.853c2.303-1.849,5.531-1.849,7.839,0.456l173.567,177.738c1.847,1.848,1.847,5.531-0.459,7.375
	c-1.847,2.311-5.536,2.311-7.38,0L409.228,127.887z M331.665,94.649c-2.308-2.306-2.308-6.016,0-7.858
	c2.321-2.306,5.548-1.844,7.395,0l13.375,13.855c2.322,1.84,2.322,5.532,0,7.375c-1.847,2.324-5.537,2.324-7.381,0L331.665,94.649z
	 M358.446,122.337c-1.846-2.303-1.846-5.538,0.461-7.843c1.843-1.844,5.532-1.844,7.378,0l146.344,150.034
	c2.307,2.311,2.307,5.534,0,7.84c-2.305,1.849-5.551,1.849-7.855,0L358.446,122.337z M280.885,140.341
	c-2.307-2.306-2.307-5.535,0-7.841c2.306-1.843,5.551-1.843,7.856,0.457l143.096,146.797c1.847,1.856,1.847,5.543,0,7.392
	c-2.303,2.305-5.532,2.305-7.839,0L280.885,140.341z M184.411,127.887c-2.303-2.305-2.303-5.55,0-7.853
	c2.307-1.849,5.536-1.849,7.843,0.456l12.467,12.467c1.847,2.311,1.847,5.54,0,7.843c-2.303,1.859-5.995,1.859-7.854,0
	L184.411,127.887z M212.561,156.955c-1.842-2.305-1.842-5.529,0-7.84c2.308-1.841,6.013-1.841,7.858,0l159.257,163.409
	c1.843,1.861,1.843,5.548,0,7.401c-2.307,2.303-5.536,2.303-7.84,0L212.561,156.955z M618.4,491.648l0.096-0.073
	c0.219-0.154,0.38-0.365,0.546-0.562l0.163-0.159c0,0,0.003-0.016,0.011-0.021c0.04-0.065,0.065-0.144,0.103-0.212
	c0.141-0.212,0.254-0.436,0.332-0.679c0.039-0.104,0.045-0.217,0.073-0.332c0.04-0.206,0.079-0.407,0.089-0.629
	c0-0.125-0.018-0.25-0.031-0.381c-0.018-0.196-0.049-0.399-0.104-0.596c-0.015-0.06-0.008-0.112-0.034-0.17l-22.424-65.582
	l52.692-40.585c0.563-0.423,10.131-23.079,10.379-23.651c0-0.021,0.007-0.039,0.015-0.052c0.074-0.274,0.108-0.496,0.097-0.679
	c0.035-0.444,0.017-0.906-0.133-1.348c-0.026-0.078-0.354-0.146-0.871-0.211l-0.006-0.006c-0.021-0.028-0.169-0.044-0.408-0.039
	c-10.582-1.06-84.788-0.721-84.788-0.721s-28.581-80.688-30.028-80.671c0,0.016-0.006,0.019-0.006,0.019
	c-0.246,0.261-17.484,18.249-17.667,18.798l-24.272,63.82l-68.442,0.198c-0.035,0.006-0.071,0.023-0.11,0.023
	c-0.221,0.016-0.432,0.058-0.643,0.11c-0.111,0.031-0.229,0.039-0.337,0.083c-0.235,0.086-0.449,0.207-0.653,0.348
	c-0.068,0.042-0.149,0.07-0.217,0.123c-0.258,0.198-0.496,0.428-0.691,0.707l-0.002,0.011c-0.204,0.279-0.368,0.598-0.475,0.942
	c-0.002,0.026,0.003,0.055-0.005,0.073l-7.011,14.821c-0.515,0.726,58.024,45.595,58.024,45.595s-26.108,101.14-24.948,101.943
	c1.152,0.799,83.929-57.495,83.929-57.495l65.071,39.742L618.4,491.648z M464.212,511.041l24.459-91.545
	c0.353-1.318-0.138-2.72-1.233-3.527l-46.169-34.281l-12.333-8.676l3.666-9.35l67.115,47.195c0,0-24.31,82.08-23.129,82.908
	c1.182,0.833,70.206-49.806,70.206-49.806l65.052,45.748l-5.779,8.07l-63.771-40.186c-1.09-0.688-2.481-0.688-3.557,0l-0.151,0.11
	L464.212,511.041z M517.575,356.887l-8.818,0.019l21.386-62.46l10.326-10.412C533.118,305.864,517.575,356.887,517.575,356.887z
	 M506.873,362.43l12.303,0.045c1.438-0.029,2.705-0.975,3.125-2.355l21.404-71.872l1.202-4.031l6.443,20.375l17.333,54.813
	c0.465,1.365,1.758,2.279,3.198,2.256l48.063-1.251l32.611-0.844l0.161-0.002l-65.818,45.983c-1.156,0.859-1.617,2.371-1.153,3.738
	l3.815,10.64l2.31,6.443l11.297,31.499l9.104,25.385l-4.504-3.279l-59.125-42.851c-1.107-0.775-2.568-0.805-3.693-0.086
	l-0.217,0.153l-62.352,48.42l24.404-75.107c0.428-1.375-0.083-2.863-1.267-3.699l-62.056-41.799l-4.151-2.796l19.944,0.063
	l40.881,0.136L506.873,362.43z M592.823,409.414l60.916-45.71l-6.204,13.21l-52.503,38.953L592.823,409.414z"/>
</svg>
