<?xml version="1.0" encoding="utf-8"?>
<!-- Generator: Adobe Illustrator 16.0.0, SVG Export Plug-In . SVG Version: 6.00 Build 0)  -->
<!DOCTYPE svg PUBLIC "-//W3C//DTD SVG 1.1//EN" "http://www.w3.org/Graphics/SVG/1.1/DTD/svg11.dtd">
<svg version="1.1" id="Layer_1" xmlns="http://www.w3.org/2000/svg" xmlns:xlink="http://www.w3.org/1999/xlink" x="0px" y="0px"
	 width="841.89px" height="595.28px" viewBox="0 0 841.89 595.28" enable-background="new 0 0 841.89 595.28" xml:space="preserve">
<path fill="#010101" d="M448.858,190.959l-73.777,29.75l21.259-76.656l-51.093-60.974l79.473-3.469l42.196-67.43l27.857,74.516
	l77.175,19.288l-62.255,49.524l5.497,79.358L448.858,190.959z M348.264,582.949c10.544-30.777,19.891-61.867,28.882-93.033
	c8.945-31.188,17.415-62.49,25.482-93.9c8.067-31.414,15.718-62.933,22.9-94.567c7.136-31.651,13.902-63.394,19.468-95.446
	c-10.561,30.773-19.91,61.848-28.899,93.023c-8.938,31.187-17.411,62.496-25.462,93.908c-8.053,31.419-15.705,62.935-22.889,94.574
	C360.616,519.155,353.842,550.899,348.264,582.949z M308.865,515.333c8.271-21.912,15.347-44.137,22.061-66.448
	c6.667-22.334,12.864-44.779,18.657-67.334c5.8-22.554,11.174-45.215,16.084-67.981c4.864-22.799,9.359-45.681,12.646-68.879
	c-8.287,21.905-15.369,44.133-22.079,66.45c-6.665,22.326-12.862,44.779-18.642,67.329c-5.78,22.556-11.158,45.218-16.066,67.991
	C316.666,469.255,312.166,492.142,308.865,515.333z M270.294,449.142c9.508-26.745,17.824-53.796,25.779-80.938
	c7.91-27.159,15.346-54.437,22.379-81.815c7.036-27.389,13.651-54.883,19.805-82.488c6.096-27.621,11.832-55.336,16.363-83.359
	c-9.526,26.742-17.844,53.795-25.798,80.94c-7.905,27.154-15.342,54.443-22.357,81.822c-7.023,27.387-13.642,54.871-19.788,82.485
	C280.58,393.412,274.84,421.122,270.294,449.142z M410.436,546.719c8.997-24.743,16.797-49.802,24.245-74.942
	c7.392-25.159,14.312-50.443,20.834-75.823c6.522-25.384,12.628-50.874,18.263-76.483c5.59-25.617,10.811-51.332,14.823-77.364
	c-9.013,24.75-16.815,49.8-24.254,74.945c-7.393,25.159-14.321,50.438-20.824,75.83c-6.506,25.377-12.609,50.872-18.243,76.479
	C419.696,494.989,414.467,520.694,410.436,546.719z"/>
</svg>
