<?xml version="1.0" encoding="utf-8"?>
<!-- Generator: Adobe Illustrator 16.0.0, SVG Export Plug-In . SVG Version: 6.00 Build 0)  -->
<!DOCTYPE svg PUBLIC "-//W3C//DTD SVG 1.1//EN" "http://www.w3.org/Graphics/SVG/1.1/DTD/svg11.dtd">
<svg version="1.1" id="Layer_1" xmlns="http://www.w3.org/2000/svg" xmlns:xlink="http://www.w3.org/1999/xlink" x="0px" y="0px"
	 width="841.89px" height="595.28px" viewBox="0 0 841.89 595.28" enable-background="new 0 0 841.89 595.28" xml:space="preserve">
<path fill="#010101" d="M253.661,449.924l80.645-82.288c1.261-1.292,3.332-1.312,4.622-0.052c1.291,1.266,1.311,3.337,0.046,4.627
	l-80.644,82.295c-0.637,0.652-1.487,0.977-2.332,0.977c-0.83,0-1.652-0.313-2.292-0.936
	C252.417,453.291,252.395,451.208,253.661,449.924z M346.516,467.954c1.389,0,2.673-0.886,3.116-2.282l13.991-43.73
	c0.546-1.725-0.396-3.564-2.123-4.117c-1.718-0.546-3.563,0.402-4.115,2.122L343.4,463.68c-0.545,1.718,0.397,3.571,2.115,4.112
	C345.848,467.901,346.188,467.954,346.516,467.954z M502.416,367.584c-1.287,1.266-1.311,3.337-0.051,4.627l80.65,82.295
	c0.645,0.652,1.489,0.977,2.334,0.977c0.824,0,1.658-0.313,2.291-0.936c1.296-1.256,1.315-3.339,0.051-4.623l-80.648-82.288
	C505.778,366.344,503.703,366.324,502.416,367.584z M290.949,338.7l-49.373,6.583c-1.795,0.24-3.055,1.889-2.814,3.679
	c0.221,1.641,1.629,2.839,3.236,2.839c0.152,0,0.292-0.012,0.443-0.025l49.372-6.589c1.794-0.235,3.05-1.884,2.808-3.673
	C294.385,339.725,292.742,338.457,290.949,338.7z M599.771,345.283l-49.366-6.583c-1.81-0.243-3.448,1.024-3.68,2.813
	c-0.24,1.789,1.016,3.438,2.804,3.673l49.377,6.589c0.151,0.014,0.292,0.025,0.442,0.025c1.618,0,3.015-1.198,3.236-2.839
	C602.828,347.172,601.561,345.523,599.771,345.283z M483.96,419.946c-0.554-1.72-2.382-2.673-4.116-2.122
	c-1.718,0.553-2.668,2.393-2.12,4.117l13.989,43.73c0.447,1.396,1.734,2.282,3.115,2.282c0.332,0,0.668-0.053,1.006-0.162
	c1.717-0.541,2.664-2.395,2.114-4.112L483.96,419.946z M587.641,141.096c-0.643-0.624-1.467-0.93-2.291-0.93
	c-0.845,0-1.698,0.325-2.334,0.979l-80.645,82.292c-1.266,1.291-1.247,3.36,0.045,4.624c1.293,1.266,3.362,1.247,4.623-0.046
	l80.643-82.291C588.947,144.433,588.928,142.361,587.641,141.096z M494.828,127.694c-1.387,0-2.674,0.889-3.115,2.276l-13.989,43.74
	c-0.548,1.718,0.397,3.563,2.12,4.109c1.718,0.554,3.563-0.398,4.116-2.116l13.984-43.739c0.554-1.723-0.397-3.563-2.114-4.117
	C495.496,127.745,495.16,127.694,494.828,127.694z M338.928,228.062c1.287-1.264,1.311-3.333,0.05-4.624l-80.647-82.292
	c-0.645-0.654-1.487-0.979-2.335-0.979c-0.826,0-1.657,0.306-2.293,0.93c-1.292,1.265-1.312,3.336-0.046,4.629l80.645,82.291
	C335.566,229.308,337.642,229.328,338.928,228.062z M550.393,256.951l49.379-6.588c1.789-0.236,3.057-1.886,2.813-3.673
	c-0.222-1.644-1.627-2.839-3.236-2.839c-0.15,0-0.291,0.009-0.442,0.023l-49.377,6.591c-1.788,0.235-3.044,1.878-2.804,3.67
	C546.957,255.925,548.605,257.186,550.393,256.951z M241.57,250.363l49.374,6.588c1.803,0.235,3.44-1.026,3.676-2.816
	c0.239-1.792-1.02-3.436-2.808-3.67l-49.377-6.591c-0.146-0.014-0.291-0.023-0.438-0.023c-1.618,0-3.019,1.196-3.236,2.839
	C238.522,248.477,239.782,250.126,241.57,250.363z M357.386,175.704c0.551,1.718,2.383,2.673,4.115,2.116
	c1.721-0.547,2.668-2.392,2.123-4.109l-13.991-43.74c-0.448-1.388-1.735-2.276-3.116-2.276c-0.332,0-0.668,0.051-1.005,0.154
	c-1.718,0.554-2.664,2.394-2.116,4.117L357.386,175.704z M449.174,269.867l-14.803-73.555l0,0l-13.694-69.863l-7.659,39.843
	l-20.847,103.575l-141.6,28.5l141.6,28.502l28.5,141.604l28.502-141.604l141.611-28.502L449.174,269.867z"/>
</svg>
