<?xml version="1.0" encoding="utf-8"?>
<!-- Generator: Adobe Illustrator 16.0.0, SVG Export Plug-In . SVG Version: 6.00 Build 0)  -->
<!DOCTYPE svg PUBLIC "-//W3C//DTD SVG 1.1//EN" "http://www.w3.org/Graphics/SVG/1.1/DTD/svg11.dtd">
<svg version="1.1" id="Layer_1" xmlns="http://www.w3.org/2000/svg" xmlns:xlink="http://www.w3.org/1999/xlink" x="0px" y="0px"
	 width="841.89px" height="595.28px" viewBox="0 0 841.89 595.28" enable-background="new 0 0 841.89 595.28" xml:space="preserve">
<path fill-rule="evenodd" clip-rule="evenodd" fill="#010101" d="M420.778,258.518l40.108-137.426l-23.308,141.363l95.248-106.168
	l-82.262,116.859l132.316-54.459l-125.296,69.656l143.657,8.521l-143.527,7.95l125.219,70.193l-132.242-54.367l82.322,116.812
	l-95.436-106.35l23.485,141.594l-40.286-137.926l-40.239,137.654l23.586-141.403l-95.49,106.259l82.545-116.816L258.717,374.97
	l125.357-70.154l-143.073-7.986l142.973-8.438l-125.313-69.572l132.435,54.247l-82.599-116.003l95.852,105.714l-23.811-141.604
	L420.778,258.518z"/>
</svg>
