<?xml version="1.0" encoding="utf-8"?>
<!-- Generator: Adobe Illustrator 16.0.0, SVG Export Plug-In . SVG Version: 6.00 Build 0)  -->
<!DOCTYPE svg PUBLIC "-//W3C//DTD SVG 1.1//EN" "http://www.w3.org/Graphics/SVG/1.1/DTD/svg11.dtd">
<svg version="1.1" id="Layer_1" xmlns="http://www.w3.org/2000/svg" xmlns:xlink="http://www.w3.org/1999/xlink" x="0px" y="0px"
	 width="841.89px" height="595.28px" viewBox="0 0 841.89 595.28" enable-background="new 0 0 841.89 595.28" xml:space="preserve">
<g>
	<g>
		<path fill-rule="evenodd" clip-rule="evenodd" fill="#B3C0A5" d="M523.935,230.396c-15.101-10.725-31.904-14.051-50.056-10.667
			c-5.784,1.083-11.231,3.189-16.664,5.433c-13.527,5.587-13.668,5.318-21.692-6.423c-5.72-8.378-11.698-16.602-17.977-24.563
			c-5.368-6.813-12.08-12.226-20.215-15.513c-7.62-3.081-14.634-1.718-20.444,4.109c-3.009,3.013-5.839,6.317-8.194,9.863
			c-10.373,15.615-20.553,31.39-27.674,48.804c-4.663,11.401-13.281,16.931-24.758,18.907c-6.141,1.065-12.348,1.819-18.543,2.441
			c-6.343,0.624-12.247,2.425-17.667,5.72c-5.89,3.582-8.845,8.49-7.267,15.712c2.199,10.01,5.171,19.565,12.964,26.831
			c5.808,9.292,14.191,15.641,23.673,20.732c0.257,0.953,0.803,1.473,1.85,1.256c0.397,0.217,0.79,0.446,1.172,0.682
			c5.043,7.531,12.747,11.38,20.667,14.938c-0.202,1.605-0.397,3.209-0.599,4.814l0.393,0.034l-0.352,0.078
			c-1.578,18.338-3.463,36.682-0.438,55.064c3.544,8.281,9.896,10.411,18.599,10.113c9.744-0.326,18.889-2.615,28.075-5.229
			c0.679-1.878,2.192-2.518,4.035-2.658c5.522-5.183,11.042-10.37,16.563-15.542c0.307-1.638,0.935-2.95,2.854-2.997
			c0,0.018-0.015,0.033-0.019,0.057c0.763-0.067,1.833,0.162,2.24-0.25c10.759-11.125,21.92-8.498,33.453-1.324
			c4.28,2.661,8.945,4.716,13.467,6.974c12.573,6.284,25.826,10.726,39.328,14.514c5.329,1.491,10.768,1.731,16.204,1.206
			c6.001-0.566,9.99-4.031,12.053-9.629c8.239-22.371,1.958-42.451-17.831-57.244c0.207-1.871-0.402-3.18-2.411-3.54
			c-1.554-8.651-5.834-17.275-0.352-26.029c10.101-7.688,19.09-16.38,25.169-27.716c7.852-7.841,10.227-18.216,12.619-28.393
			C539.182,248.159,534.473,237.884,523.935,230.396z"/>
		<path fill-rule="evenodd" clip-rule="evenodd" fill="#F8BF15" d="M523.935,230.396c-15.101-10.725-31.904-14.051-50.056-10.667
			c-5.784,1.083-11.231,3.189-16.664,5.433c-13.527,5.587-13.668,5.318-21.692-6.423c-5.72-8.378-11.698-16.602-17.977-24.563
			c-5.368-6.813-12.08-12.226-20.215-15.513c-7.62-3.081-14.634-1.718-20.444,4.109c-3.009,3.013-5.839,6.317-8.194,9.863
			c-10.373,15.615-20.553,31.39-27.674,48.804c-4.663,11.401-13.281,16.931-24.758,18.907c-6.141,1.065-12.348,1.819-18.543,2.441
			c-6.343,0.624-12.247,2.425-17.667,5.72c-5.89,3.582-8.845,8.49-7.267,15.712c2.199,10.01,5.171,19.565,12.964,26.831
			c5.808,9.292,14.191,15.641,23.673,20.732c0.257,0.953,0.803,1.473,1.85,1.256c0.397,0.217,0.79,0.446,1.172,0.682
			c5.043,7.531,12.747,11.38,20.667,14.938c-0.202,1.605-0.397,3.209-0.599,4.814l0.393,0.034l-0.352,0.078
			c-1.578,18.338-3.463,36.682-0.438,55.064c3.544,8.281,9.896,10.411,18.599,10.113c9.744-0.326,18.889-2.615,28.075-5.229
			c0.679-1.878,2.192-2.518,4.035-2.658c5.522-5.183,11.042-10.37,16.563-15.542c0.307-1.638,0.935-2.95,2.854-2.997
			c0,0.018-0.015,0.033-0.019,0.057c0.763-0.067,1.833,0.162,2.24-0.25c10.759-11.125,21.92-8.498,33.453-1.324
			c4.28,2.661,8.945,4.716,13.467,6.974c12.573,6.284,25.826,10.726,39.328,14.514c5.329,1.491,10.768,1.731,16.204,1.206
			c6.001-0.566,9.99-4.031,12.053-9.629c8.239-22.371,1.958-42.451-17.831-57.244c0.207-1.871-0.402-3.18-2.411-3.54
			c-1.554-8.651-5.834-17.275-0.352-26.029c10.101-7.688,19.09-16.38,25.169-27.716c7.852-7.841,10.227-18.216,12.619-28.393
			C539.182,248.159,534.473,237.884,523.935,230.396z"/>
	</g>
	<path fill-rule="evenodd" clip-rule="evenodd" d="M332.51,353.474c0.202-1.605,0.397-3.209,0.599-4.814
		c1.884-5.381,2.097-9.558-5.331-10.676c-5.211-0.783-10.23-2.793-15.336-4.263c-0.383-0.235-0.775-0.465-1.172-0.682
		c-0.175-1.065-0.789-1.507-1.85-1.256c-9.482-5.092-17.866-11.44-23.673-20.732c-2.275-14.868,5.125-24.578,17.122-31.661
		c4.345-2.571,8.909-4.851,13.548-6.864c10.049-4.367,20.456-7.895,31.322-9.291c8.43-1.078,13.105-4.395,14.058-13.469
		c1.016-9.702,4.272-19.007,7.841-28.111c2.711-6.932,5.914-13.639,10.793-19.34c8.397-9.816,18.327-11.175,29.092-3.995
		c4.912,3.269,8.882,7.59,12.717,12.049c6.438,7.493,11.266,16.002,14.801,25.105c2.392,6.169,5.23,7.192,11.338,4.64
		c13.43-5.616,27.781-7.744,42.22-8.914c20.078-1.615,28.266,4.313,34.392,23.649c3.738,11.787,1.441,23.105-1.449,34.507
		c-6.079,11.336-15.068,20.027-25.169,27.716c-1.075,0.381-2.261,0.598-3.227,1.175c-12.962,7.746-13.247,9.72-2.635,20.085
		c1.875,1.833,3.232,4.451,6.232,4.88l-0.089-0.126c-0.143,1.872,0.859,2.961,2.475,3.624l-0.083-0.139
		c1.054,2.485,2.009,5.013,3.185,7.449c5.779,11.976,7.064,24.7,5.545,37.668c-1.486,12.66-7.031,16.539-20.016,15.164
		c-5.111-0.541-9.83-2.321-14.523-4.251c-12.663-5.211-24.297-12.352-36.035-19.302c-5.695-3.373-11.508-6.553-17.247-9.853
		c-2.699-1.562-5.22-1.78-7.111,1.067c-4.046,6.078-10.493,10.456-12.622,17.881l0.109-0.067c-1.994,0.011-2.634,1.347-2.944,3.008
		c-5.522,5.172-11.041,10.359-16.563,15.542c-1.874,0.146-3.411,0.796-4.07,2.749l0.192-0.131
		c-9.241,2.632-18.432,4.942-28.232,5.269c-8.703,0.298-15.055-1.832-18.599-10.113c-3.024-18.383-1.14-36.727,0.438-55.064
		l0.352-0.078L332.51,353.474z M340.455,376.033c-0.161,9.075,1.158,17.949,3.666,26.635c0.874,3.037,1.953,6.148,6.15,5.76
		c15.357-1.415,30.543-2.66,39.116-18.806c4.582-8.631,11.574-15.678,18.291-22.828c4.745-5.047,9.74-6.063,15.769-3.248
		c4.96,2.3,9.994,4.479,14.763,7.138c9.229,5.123,18.207,10.702,27.449,15.793c6.149,3.386,12.402,6.728,18.93,9.258
		c11.727,4.553,15.508,1.827,16.436-10.913c0.756-10.203-2.381-19.37-7.928-27.68c-3.9-5.846-8.508-11.216-12.599-16.944
		c-8.464-11.855-7.2-19.147,4.899-27.447c5.799-3.979,11.979-7.406,17.104-12.314c15.155-14.498,18.644-34.126,9.56-51.295
		c-3.147-5.949-7.479-8.651-14.062-8.219c-18.438,1.207-36.567,4.225-53.423,11.947c-4.803,2.203-7.101,1.729-9.501-2.13
		c-4.132-6.637-8.07-13.399-12.233-20.009c-5.442-8.652-11.568-16.772-20.067-22.709c-9.086-6.348-13.378-5.509-18.545,4.498
		c-6.498,12.584-10.104,26.189-12.924,40.026c-0.628,3.057,0.513,4.765,2.372,7.116c3.497,4.415,2.639,6.483-2.638,8.399
		c-2.919,1.058-6.049,1.535-9.091,2.256c-15.588,3.72-31.096,7.681-45.919,13.937c-5.438,2.295-10.7,4.897-15.146,8.785
		c-7.502,6.563-7.44,13.007,0.071,19.764c4.095,3.697,8.809,6.551,13.849,8.72c7.894,3.396,15.764,6.979,23.934,9.561
		c6.266,1.979,7.839,5.849,6.991,11.503c-0.583,3.854-1.247,7.752-2.448,11.441C340.944,361.223,340.713,368.619,340.455,376.033z
		 M560.633,335.473c2.719-0.16,5.438-0.288,8.152-0.499c1.306-0.097,2.249-1.055,2.244-2.186c-0.004-1-0.577-2.603-1.321-2.911
		c-4.523-1.838-9.176-1.342-13.678,0.167c-0.815,0.274-1.634,1.81-1.675,2.796c-0.055,1.614,0.9,2.928,2.796,2.964
		c1.159,0.031,2.331-0.089,3.491-0.149C560.639,335.598,560.639,335.54,560.633,335.473z M319.802,212.016
		c-1.164,0.254-1.903,1.131-1.879,2.473c0.07,4.222,5.387,9.13,9.283,8.44c1.146-0.198,2.065-0.953,2.18-2.3
		C329.481,218.188,322.174,211.525,319.802,212.016z M291.32,374.143c0.557-1.626-0.508-3.161-2.282-3.143
		c-3.974,0.044-5.996,2.902-7.195,6.156c-0.499,1.323,0.417,2.916,2.617,3.271C287.838,379.806,290.174,377.516,291.32,374.143z
		 M485.088,185.793c-0.114-1.154-0.711-2.097-2.105-2.232c-3.13-0.313-7.807,3.869-7.611,6.93c0.074,1.18,0.709,2.094,2.076,2.18
		C480.759,192.92,485.388,188.821,485.088,185.793z"/>
</g>
</svg>
