<?xml version="1.0" encoding="utf-8"?>
<!-- Generator: Adobe Illustrator 16.0.0, SVG Export Plug-In . SVG Version: 6.00 Build 0)  -->
<!DOCTYPE svg PUBLIC "-//W3C//DTD SVG 1.1//EN" "http://www.w3.org/Graphics/SVG/1.1/DTD/svg11.dtd">
<svg version="1.1" id="Layer_1" xmlns="http://www.w3.org/2000/svg" xmlns:xlink="http://www.w3.org/1999/xlink" x="0px" y="0px"
	 width="841.89px" height="595.28px" viewBox="0 0 841.89 595.28" enable-background="new 0 0 841.89 595.28" xml:space="preserve">
<path d="M631.289,347.346c-7.459,2.342-15.244,4.213-22.731,5.759c-3.43,7.459-7.202,14.686-11.511,21.523
	c-2.479-7.433-5.354-14.537-8.738-21.283c-7.496-1.232-14.947-2.613-22.33-4.148c5.191-4.178,10.393-8.772,15.215-13.897
	c-2.028-6.765-4.386-13.219-7.281-19.33c7.308,2.002,14.591,4.17,21.853,6.493c6.015-4.496,11.825-9.49,17.479-14.986
	c0.539,8.031,0.878,16.208,0.393,24.398C619.773,336.686,625.585,341.826,631.289,347.346z M582.998,406.49
	c3.633-7.373,6.937-14.812,9.547-22.469c-7.302,2.757-14.729,4.908-22.059,6.54c-5.661-5.081-11.379-10.01-17.232-14.821
	c0.008,6.678-0.328,13.628-1.299,20.604c-6.529,2.687-13.066,4.885-19.623,6.498c6.145,4.412,12.402,8.723,18.771,12.91
	c0.288,7.501,0.056,15.163-0.664,23.02c6.604-4.613,13.147-9.514,19.224-15.018c7.597,1.752,15.245,3.042,23.117,4.031
	C589.918,420.518,586.477,413.271,582.998,406.49z M524.666,462.16c6.324-5.24,12.312-10.76,17.838-16.654
	c-7.829-0.48-15.478-1.512-22.813-2.95c-3.087-6.896-6.39-13.816-9.788-20.581c-2.635,6.222-5.854,12.266-9.48,18.383
	c-7.111-0.285-13.93-0.896-20.57-2.084c3.82,6.54,7.817,13.099,11.907,19.445c-2.794,6.919-6.104,13.893-9.974,20.717
	c7.955-1.41,15.854-3.428,23.695-5.877c6.213,4.652,12.666,8.902,19.514,13.085C525.223,477.631,525.164,469.893,524.666,462.16z
	 M448.699,489.257c7.928-2.094,15.631-4.827,23.092-7.868c-6.96-3.689-13.503-7.666-19.625-12.049
	c-0.01-7.619-0.19-15.197-0.516-22.756c-4.949,4.521-10.342,8.916-16.175,12.848c-6.364-3.003-12.388-6.517-17.989-10.234
	c0.835,7.524,1.832,15.051,2.987,22.581c-5.385,5.271-11.225,10.179-17.543,14.934c7.855,1.81,15.875,3.368,24.019,4.214
	c3.773,6.767,7.934,13.445,12.453,19.873C442.897,503.755,445.991,496.513,448.699,489.257z M368.296,483.189
	c8.095,1.337,16.26,1.88,24.309,2.154c-4.885-6.159-9.23-12.521-13.072-18.926c3.077-6.986,5.993-14.007,8.744-21.066
	c-6.375,2.232-13.018,3.874-19.973,5.217c-4.569-5.371-8.633-10.963-12.216-16.626c-2.338,7.261-4.467,14.459-6.476,21.798
	c-7.042,2.59-14.447,4.788-22.09,6.448c6.333,5.034,13.163,9.451,20.191,13.725c0.75,7.603,1.807,15.479,3.338,23.202
	C357.157,493.962,362.851,488.818,368.296,483.189z M297.331,444.866c6.886,4.459,14.012,8.425,21.322,11.866
	c-1.94-7.604-3.35-15.148-4.194-22.625c5.642-5.107,11.16-10.308,16.544-15.603c-6.646-0.692-13.546-1.724-20.368-3.436
	c-2.042-6.729-3.428-13.565-4.436-20.182c-5.028,5.649-9.952,11.42-14.769,17.304c-7.514-0.467-15.108-1.506-22.813-3.057
	c3.815,7.114,8.11,14.051,12.913,20.698c-2.485,7.328-4.66,14.892-6.407,22.563C282.686,450.275,290.151,447.696,297.331,444.866z
	 M247.997,381.076c4.634,6.796,9.369,13.406,14.733,19.475c1.27-7.718,3.096-15.224,5.325-22.369
	c7.215-2.379,14.325-4.885,21.454-7.577c-5.854-3.295-11.628-7.077-17.23-11.375c0.994-7.005,2.3-13.723,4.208-20.205
	c-6.913,3.104-13.782,6.365-20.603,9.799c-6.578-3.52-13.158-7.543-19.551-12.109c0.668,8.031,1.641,16.15,3.371,24.171
	c-5.351,5.729-10.185,11.676-15.042,18.035C232.467,380.043,240.378,380.711,247.997,381.076z M229.045,302.686
	c1.234,8.101,3.208,16.032,5.394,23.784c4.432-6.546,9.06-12.621,14.046-18.253c7.579,0.781,15.146,1.393,22.698,1.854
	c-3.996-5.399-7.8-11.247-11.093-17.453c3.627-6.031,7.745-11.642,12.014-16.813c-7.562,0.052-15.146,0.264-22.751,0.616
	c-4.689-5.888-8.975-12.214-13.019-18.994c-2.668,7.618-5.014,15.44-6.706,23.464c-7.099,3.064-14.191,6.511-21.048,10.336
	C215.237,295.422,222.08,299.244,229.045,302.686z M243.455,223.344c-2.079,7.949-3.657,15.946-4.68,23.959
	c6.617-4.217,13.429-7.858,20.194-11.005c6.562,3.768,13.293,7.428,20.016,10.908c-1.53-6.574-2.468-13.35-3.106-20.427
	c5.903-3.945,11.799-7.454,17.865-10.389c-6.942-3.067-13.999-6.002-21.033-8.749c-1.813-7.258-3.225-14.842-4.093-22.636
	c-5.633,5.789-10.801,12.086-15.743,18.654c-7.719-0.099-15.501,0.209-23.46,0.854C233.932,211.141,238.477,217.356,243.455,223.344
	z M288.993,156.792c-5.183,6.356-9.775,13.119-14.034,19.951c7.793-1.102,15.44-1.729,22.949-1.814
	c4.502,6.159,9.108,12.189,13.826,18.104c1.315-6.593,3.137-13.271,5.514-19.907c6.917-1.324,13.85-1.998,20.512-2.345
	c-5.086-5.577-10.302-11.067-15.656-16.456c1.244-7.425,3.048-14.912,5.418-22.366c-7.499,3.008-14.781,6.649-21.94,10.673
	c-6.975-3.156-14.352-6.219-21.768-8.721C285.18,141.712,286.878,149.309,288.993,156.792z M357.602,114.413
	c-7.282,3.807-14.311,7.924-20.921,12.579c7.546,2.083,14.8,4.629,21.698,7.649c1.602,7.425,3.358,14.793,5.262,22.093
	c3.917-5.381,8.248-10.822,13.125-15.89c6.855,1.685,13.412,3.716,19.655,6.3c-2.368-7.2-4.889-14.364-7.573-21.5
	c4.18-6.231,8.881-12.281,14.083-18.21c-8.045-0.133-16.232-0.063-24.382,0.833c-5.12-5.9-10.541-11.425-16.339-16.853
	C360.239,98.986,358.768,106.863,357.602,114.413z M437.527,103.73c-8.192,0.381-16.277,1.553-24.207,2.905
	c6.041,5.086,11.608,10.328,16.705,15.851c-1.555,7.459-2.954,14.934-4.194,22.405c5.799-3.454,11.979-6.592,18.496-9.258
	c5.603,4.248,10.739,8.939,15.434,13.699c0.749-7.524,1.343-15.08,1.771-22.675c6.354-4.055,13.099-7.66,20.253-10.942
	c-7.268-3.511-14.825-6.603-22.63-9.155c-2.312-7.34-4.995-14.809-8.109-22.007C446.174,90.765,441.666,97.143,437.527,103.73z
	 M514.947,126.35c-7.736-2.788-15.447-5.373-23.352-7.135c3.508,6.996,6.424,14.152,8.826,21.249
	c-4.449,6.128-8.759,12.359-12.947,18.72c6.678-0.789,13.562-1.081,20.635-0.909c3.305,6.273,6.207,12.487,8.484,18.853
	c3.756-6.582,7.398-13.26,10.901-20.038c7.404-1.018,15.087-1.624,22.944-1.712c-5.271-6.081-10.828-12.078-16.93-17.563
	c0.979-7.767,1.396-15.403,1.613-23.416C528.119,118.1,521.355,122.146,514.947,126.35z M576.371,178.6
	c-5.752-5.846-12.059-11.063-18.382-16.051c0.306,7.882,0.099,15.552-0.579,23.009c-6.584,3.851-13.074,7.816-19.453,11.892
	c6.477,1.948,12.82,4.538,19.249,7.535c0.543,7.049,0.579,13.954,0.141,20.664c6.141-4.514,12.125-9.114,18.038-13.868
	c7.209,2.039,14.499,4.6,21.662,7.733c-2.151-7.802-5.125-15.375-8.289-22.96c3.857-6.592,7.604-13.578,10.923-20.745
	C591.705,176.42,584.08,177.239,576.371,178.6z M611.324,251.281c-2.952-7.66-6.4-15.062-10.283-22.14
	c-2.912,7.3-6.175,14.234-9.91,20.774c-7.563,0.817-15.079,1.788-22.55,2.916c4.982,4.441,9.928,9.328,14.442,14.72
	c-2.314,6.632-5.165,12.957-8.314,18.915c7.398-1.611,14.793-3.368,22.164-5.292c5.787,4.812,11.266,10.119,16.667,15.907
	c0.956-8.002,1.725-16.135,1.704-24.33c6.369-4.469,12.519-9.291,18.473-14.474C626.361,255.531,618.775,253.221,611.324,251.281z"
	/>
</svg>
