<?xml version="1.0" encoding="utf-8"?>
<!-- Generator: Adobe Illustrator 16.0.0, SVG Export Plug-In . SVG Version: 6.00 Build 0)  -->
<!DOCTYPE svg PUBLIC "-//W3C//DTD SVG 1.1//EN" "http://www.w3.org/Graphics/SVG/1.1/DTD/svg11.dtd">
<svg version="1.1" id="Layer_1" xmlns="http://www.w3.org/2000/svg" xmlns:xlink="http://www.w3.org/1999/xlink" x="0px" y="0px"
	 width="841.89px" height="595.28px" viewBox="0 0 841.89 595.28" enable-background="new 0 0 841.89 595.28" xml:space="preserve">
<path d="M389.547,180.873c-6.703-3.104-49.288-22.813-49.288-22.813s-4.221,46.732-4.889,54.093
	c-7.354,0.657-54.09,4.885-54.09,4.885s19.71,42.579,22.817,49.289c-6.042,4.258-44.403,31.282-44.403,31.282
	s38.361,27.02,44.403,31.27c-3.107,6.707-22.817,49.294-22.817,49.294s46.735,4.22,54.09,4.891
	c0.667,7.352,4.889,54.085,4.889,54.085s42.585-19.709,49.288-22.818c4.257,6.049,31.281,44.406,31.281,44.406
	s27.021-38.357,31.278-44.406c6.703,3.109,49.289,22.818,49.289,22.818s4.221-46.733,4.885-54.085
	c7.354-0.671,54.092-4.891,54.092-4.891s-19.713-42.587-22.815-49.294c6.039-4.25,44.402-31.27,44.402-31.27
	s-38.358-27.024-44.402-31.282c3.103-6.71,22.815-49.289,22.815-49.289s-46.737-4.228-54.092-4.885
	c-0.664-7.36-4.885-54.093-4.885-54.093s-42.586,19.708-49.289,22.813c-4.257-6.039-31.278-44.398-31.278-44.398
	S393.804,174.834,389.547,180.873z M420.828,154.894c6.308,8.96,27.7,39.329,27.7,39.329s33.711-15.61,43.652-20.216
	c0.988,10.918,4.329,47.913,4.329,47.913s36.989,3.345,47.906,4.331c-4.602,9.937-20.203,43.65-20.203,43.65
	s30.363,21.396,39.323,27.708c-8.96,6.305-39.323,27.698-39.323,27.698s15.602,33.708,20.203,43.654
	c-10.917,0.987-47.906,4.326-47.906,4.326s-3.341,36.995-4.329,47.908c-9.941-4.605-43.652-20.205-43.652-20.205
	s-21.393,30.363-27.7,39.318c-6.314-8.955-27.706-39.318-27.706-39.318s-33.708,15.6-43.649,20.205
	c-0.987-10.913-4.329-47.908-4.329-47.908s-36.993-3.339-47.907-4.326c4.605-9.946,20.206-43.654,20.206-43.654
	s-30.366-21.394-39.329-27.698c8.963-6.313,39.329-27.708,39.329-27.708s-15.601-33.714-20.206-43.65
	c10.914-0.986,47.907-4.331,47.907-4.331s3.342-36.995,4.329-47.913c9.942,4.605,43.649,20.216,43.649,20.216
	S414.514,163.854,420.828,154.894z"/>
</svg>
