<?xml version="1.0" encoding="utf-8"?>
<!-- Generator: Adobe Illustrator 16.0.0, SVG Export Plug-In . SVG Version: 6.00 Build 0)  -->
<!DOCTYPE svg PUBLIC "-//W3C//DTD SVG 1.1//EN" "http://www.w3.org/Graphics/SVG/1.1/DTD/svg11.dtd">
<svg version="1.1" id="Layer_1" xmlns="http://www.w3.org/2000/svg" xmlns:xlink="http://www.w3.org/1999/xlink" x="0px" y="0px"
	 width="841.89px" height="595.28px" viewBox="0 0 841.89 595.28" enable-background="new 0 0 841.89 595.28" xml:space="preserve">
<path fill-rule="evenodd" clip-rule="evenodd" fill="#010101" d="M470.959,241.22l105.188-4.432
	c14.299-0.604,26.433,10.546,27.033,24.844c0.402,9.567-4.601,18.454-12.702,23.418l-84.73,51.854l36.414,97.889
	c0.826,1.861,1.402,3.875,1.691,5.977c0.484,3.526,0.613,4.038-0.204,8.49c-1.663,9.075-7.781,16.472-16.46,19.698
	c-9.016,3.345-18.95,1.339-26.204-4.854l-75.481-64.548l-82.493,65.412c-11.224,8.895-27.573,7.002-36.476-4.225
	c-5.953-7.506-7.153-17.567-3.508-26.361l38.085-91.795l-87.697-58.236c-11.921-7.921-15.182-24.07-7.261-35.994
	c5.276-7.942,14.442-12.242,23.894-11.494l99.17,7.858L397.5,143.331c3.847-13.786,18.201-21.876,31.987-18.033
	c9.317,2.6,16.128,10.111,18.36,19.425L470.959,241.22L470.959,241.22z M462.785,252.043l-25.119-104.882
	c-1.345-5.628-5.356-10.206-10.99-11.777c-8.207-2.291-16.799,2.553-19.09,10.76l-30.6,109.698l-107.765-8.539
	c-5.664-0.45-11.189,2.093-14.345,6.847c-4.718,7.1-2.765,16.768,4.334,21.484l94.874,63.007l-41.384,99.759
	c-2.194,5.282-1.537,11.331,2.04,15.845c5.302,6.694,15.079,7.819,21.768,2.512L425.754,386l82.036,70.146
	c4.369,3.73,10.317,5.015,15.751,2.994c5.21-1.932,8.809-6.311,9.813-11.767c0.518-2.825,0.503-2.46,0.129-5.172
	c-0.168-1.222-0.701-2.608-1.133-3.755l-39.422-105.968l92.083-56.356c4.854-2.976,7.95-8.315,7.708-14.049
	c-0.357-8.512-7.616-15.189-16.132-14.829L462.785,252.043z M423.859,145.468c-2.673-0.747-5.444,0.816-6.189,3.488l-32.917,118.003
	l-116.357-9.223c-1.829-0.223-3.715,0.571-4.803,2.209c-1.535,2.311-0.904,5.428,1.407,6.963l102.059,67.78L322.37,442.412
	c-0.825,1.679-0.67,3.763,0.573,5.331c1.728,2.181,4.884,2.541,7.061,0.813l96.002-76.118l88.588,75.75
	c1.348,1.331,3.399,1.846,5.297,1.144c4.149-1.54,3.313-6.563,2.939-6.457l-42.719-114.823l99.436-60.863
	c1.682-0.868,2.799-2.659,2.713-4.674c-0.114-2.771-2.46-4.926-5.23-4.81l-122.418,5.161l-27.125-113.267
	C427.213,147.686,425.843,146.021,423.859,145.468z"/>
</svg>
