<?xml version="1.0" encoding="utf-8"?>
<!-- Generator: Adobe Illustrator 16.0.0, SVG Export Plug-In . SVG Version: 6.00 Build 0)  -->
<!DOCTYPE svg PUBLIC "-//W3C//DTD SVG 1.1//EN" "http://www.w3.org/Graphics/SVG/1.1/DTD/svg11.dtd">
<svg version="1.1" id="Layer_1" xmlns="http://www.w3.org/2000/svg" xmlns:xlink="http://www.w3.org/1999/xlink" x="0px" y="0px"
	 width="841.89px" height="595.28px" viewBox="0 0 841.89 595.28" enable-background="new 0 0 841.89 595.28" xml:space="preserve">
<path d="M515.25,317.838c12.688,10.373,25.654,19.471,36.308,31.173c12.446,13.678,19.37,30.463,22.198,48.467
	c2.993,19.024-9.1,29.517-27.099,23.16c-21.984-7.765-41.354-20.187-56.548-38.478c-4.448-5.36-9.428-10.276-14.168-15.382
	c-0.695,0.348-1.389,0.698-2.084,1.039c0.418,9.61,1.168,19.213,1.186,28.815c0.039,21.654,1.732,43.258,1.718,64.932
	c-0.001,10.661-9.785,21.285-20.345,23.43c-13.512,2.744-15.182,1.84-21.582-10.531c-7.821-15.136-9.902-31.92-14.198-48.086
	c-2.692-10.136-5.006-20.291-5.86-30.793c-0.843-10.349-2.034-20.676-3.235-32.67c-7.146,12.367-15.781,21.809-24.988,30.557
	c-19.858,18.875-42.964,30.805-71.104,30.061c-12.217-0.319-15.635-4.611-13.857-16.733c2.722-18.548,12.562-33.312,25.078-46.644
	c14.439-15.391,32.565-26.701,46.425-41.813c-22.86,0-45.775-0.226-68.685,0.086c-17.798,0.228-35.381-1.873-53.008-3.668
	c-7.461-0.771-13.642-4.981-20.083-8.227c-5.519-2.788-6.195-11.823-1.689-17.382c10.832-13.341,25.003-20.492,41.954-22.338
	c1.92-0.211,4.013-0.031,5.742-0.733c19.059-7.779,39.129-8.673,59.297-9.26c4.735-0.137,9.587-0.308,14.486-2.091
	c-12.658-15.87-27.863-28.86-41.027-43.764c-6.126-6.946-12.173-13.926-16.157-22.421c-3.287-7.035-2.18-13.926,1.237-20.312
	c4.679-8.764,14.171-11.363,23.01-6.946c39.586,19.781,57.75,33.564,85.828,65.372c1.388-3.898,0.271-7.321-0.19-10.663
	c-4.104-29.891-6.975-59.883-8.065-90.046c-0.305-8.402,5.328-15.019,14.448-17.732c7.642-2.271,15.305,1.021,20.03,7.539
	c11.542,15.913,14.559,34.567,17.581,53.226c2.632,16.255,7.251,32.17,8.216,49.024c7.233-13.598,15.77-26.015,23.682-38.835
	c9.235-14.943,21.213-23.658,39.682-21.088c13.434,1.863,21.087,9.733,19.264,23.254c-3.281,24.258-6.216,48.816-21.061,69.645
	c-0.207,0.295-0.022,0.877-0.022,1.704c12.699,0.923,25.435,0.928,38.208,0.42c15.754-0.623,30.999,2.002,45.17,9.163
	c12.079,6.099,14.984,25.177,7.055,36.17c-10.508,14.578-23.977,20.628-41.521,18.377c-4.369-0.563-8.695,0.026-13.021,0.925
	c-9.097,1.881-18.228,2.68-27.491,0.824C522.484,317.864,518.826,318.055,515.25,317.838z M283.043,291.451
	c39.798,2.95,79.625,2.262,119.739,0.282c-8.826-11.643-20.235-15.336-33.7-13.758c-19.034,2.215-38.06,4.478-57.094,6.643
	C302.159,285.727,292.229,286.271,283.043,291.451z M450.201,425.125c2.12-26.845-0.348-53.276-2.214-79.743
	c-0.464-6.554-6.169-11.296-4.975-17.804c0.909-4.945-3.056-6.121-5.339-8.629c-0.871-0.951-2.143-0.975-3.213,0.075
	c-2.656,2.589-2.28,5.683-1.501,8.858c0.117,0.475,0.331,0.932,0.39,1.403c2.67,21.235,8.876,41.874,9.985,63.408
	C443.9,403.773,446.764,414.648,450.201,425.125z M467.34,288.412c36.857,4.397,72.204,0.106,107.483-5.87
	c-1.361-0.804-2.719-0.896-4.069-1.064c-22.455-2.9-45.121-1.932-67.635-3.659c-5.533-0.433-10.651,0.226-15.644,2.137
	C480.967,282.453,474.608,285.33,467.34,288.412z M416.352,155.376c0.293,3.392,0.325,6.079,0.791,8.678
	c3.561,19.878,6.35,39.803,7.06,60.07c0.351,9.83,2.255,19.829,6.446,29.056c0.848,1.875,0.913,5.074,3.512,4.814
	c2.669-0.262,1.842-3.558,2.363-5.459c2.045-7.432-1.844-14.311-2.469-21.531c-1.441-16.748-2.996-33.492-5.142-50.161
	C427.709,171.477,427.207,161.345,416.352,155.376z M509.662,202.436c-0.41-0.778-0.636-1.903-1.285-2.277
	c-1.275-0.722-2.336,0.448-3.138,1.217c-16.811,16.03-37.396,28.853-44.853,52.88c-0.434,1.4-2.945,2.688-0.588,4.22
	c1.608,1.051,3.27-0.074,4.625-1.116c17.23-13.251,33.085-27.745,42.454-47.996C507.882,207.185,508.673,204.904,509.662,202.436z
	 M531.156,371.973c-18.426-20.364-39.135-38.325-60.209-55.863c-3.219-2.693-7.123-4.764-12.245-3.913
	C481.029,334.332,503.944,355.639,531.156,371.973z M343.932,210.236c0.214,3.05,2.154,4.597,3.881,6.255
	c12.973,12.391,26.27,24.447,38.838,37.248c5.12,5.205,10.301,5.697,17.987,4.526C387.145,237.376,363.804,225.99,343.932,210.236z
	 M370.938,362.674c-14.259,6.325-22.232,19.086-32.003,29.993c-0.653,0.725-1.516,1.583-0.562,2.373
	c1.338,1.104,2.705,0.532,3.728-0.753c1.932-2.434,2.694-5.789,5.632-7.414C357.983,381.205,363.679,371.16,370.938,362.674z
	 M401.499,327.587c-9.942,7.875-17.893,17.343-23.925,28.376C386.446,347.234,394.664,337.979,401.499,327.587z"/>
</svg>
