<?xml version="1.0" encoding="utf-8"?>
<!-- Generator: Adobe Illustrator 16.0.0, SVG Export Plug-In . SVG Version: 6.00 Build 0)  -->
<!DOCTYPE svg PUBLIC "-//W3C//DTD SVG 1.1//EN" "http://www.w3.org/Graphics/SVG/1.1/DTD/svg11.dtd">
<svg version="1.1" id="Layer_1" xmlns="http://www.w3.org/2000/svg" xmlns:xlink="http://www.w3.org/1999/xlink" x="0px" y="0px"
	 width="841.89px" height="595.28px" viewBox="0 0 841.89 595.28" enable-background="new 0 0 841.89 595.28" xml:space="preserve">
<path d="M517.646,343.726c0.547,0,1.083-0.14,1.622-0.26c-9.468,12.925-18.046,25.444-25.277,36.441
	c2.479-26.947-1.047-48.636-1.28-50.001c-0.381-2.254-1.752-4.207-3.734-5.33c-1.984-1.117-4.367-1.29-6.491-0.452
	c-44.163,17.371-83.261,54.308-108.33,82.306c21.176-45.102,51.467-80.211,51.865-80.664c2.163-2.484,2.469-6.093,0.745-8.908
	c-1.715-2.825-5.074-4.18-8.268-3.4c-71.826,17.788-222.635,123.538-283.221,167.486
	c70.331-119.229,256.563-237.135,258.586-238.398c2.663-1.675,4.01-4.826,3.387-7.914c-0.628-3.084-3.096-5.462-6.206-5.958
	c-1.858-0.303-3.953-0.449-6.402-0.449c-18.312,0-54.725,8.88-83.946,16.923c93.377-60.141,206.14-90.396,254.263-101.344
	l-9.385,27.846l-89.637,14.133c-2.986,0.466-5.404,2.666-6.149,5.591c-0.751,2.924,0.312,6.016,2.7,7.863l73.627,56.843
	l-15.884,78.587c-0.618,3.065,0.72,6.206,3.364,7.885C514.837,343.338,516.244,343.726,517.646,343.726z M651.431,248.093
	l55.794-66.166l-73.713-1.527c-2.328-0.051-4.505-1.167-5.898-3.035l-46.865-62.701l-22.302,66.156
	c-0.901,2.671-3.213,4.617-5.991,5.051l-76.832,12.114l63.467,48.994c2.275,1.764,3.354,4.663,2.791,7.485l-12.914,63.858
	l66.561-49.475c2.702-2.006,6.402-1.987,9.08,0.043l62.714,47.586l-17.39-61.452C649.25,252.604,649.813,250.013,651.431,248.093z"
	/>
</svg>
