<?xml version="1.0" encoding="utf-8"?>
<!-- Generator: Adobe Illustrator 16.0.0, SVG Export Plug-In . SVG Version: 6.00 Build 0)  -->
<!DOCTYPE svg PUBLIC "-//W3C//DTD SVG 1.1//EN" "http://www.w3.org/Graphics/SVG/1.1/DTD/svg11.dtd">
<svg version="1.1" id="Layer_1" xmlns="http://www.w3.org/2000/svg" xmlns:xlink="http://www.w3.org/1999/xlink" x="0px" y="0px"
	 width="841.89px" height="595.28px" viewBox="0 0 841.89 595.28" enable-background="new 0 0 841.89 595.28" xml:space="preserve">
<path d="M372.632,247.041c-4.934,0.711-107.302,15.542-107.302,15.542s74.077,72.17,77.644,75.646
	c-0.838,4.918-18.328,106.896-18.328,106.896s91.559-48.14,95.967-50.458c4.412,2.318,95.975,50.458,95.975,50.458
	s-17.493-101.978-18.338-106.896c3.569-3.476,77.646-75.646,77.646-75.646s-102.361-14.831-107.292-15.542
	c-2.206-4.475-47.99-97.252-47.99-97.252S374.833,242.566,372.632,247.041z M379.261,256.169c0,0,34.101-69.105,41.352-83.796
	c7.257,14.69,41.357,83.796,41.357,83.796s76.216,11.043,92.441,13.396c-11.744,11.438-66.895,65.181-66.895,65.181
	s13.03,75.967,15.798,92.116c-14.501-7.625-82.702-43.484-82.702-43.484s-68.196,35.859-82.7,43.484
	c2.77-16.149,15.8-92.116,15.8-92.116s-55.156-53.743-66.895-65.181C303.046,267.212,379.261,256.169,379.261,256.169z"/>
</svg>
