<?xml version="1.0" encoding="utf-8"?>
<!-- Generator: Adobe Illustrator 16.0.0, SVG Export Plug-In . SVG Version: 6.00 Build 0)  -->
<!DOCTYPE svg PUBLIC "-//W3C//DTD SVG 1.1//EN" "http://www.w3.org/Graphics/SVG/1.1/DTD/svg11.dtd">
<svg version="1.1" id="Layer_1" xmlns="http://www.w3.org/2000/svg" xmlns:xlink="http://www.w3.org/1999/xlink" x="0px" y="0px"
	 width="841.89px" height="595.28px" viewBox="0 0 841.89 595.28" enable-background="new 0 0 841.89 595.28" xml:space="preserve">
<path fill="#010101" d="M420.925,133.961c-89.996,0-162.949,72.951-162.949,162.95c0,89.994,72.953,162.955,162.949,162.955
	c90.001,0,162.959-72.961,162.959-162.955C583.884,206.912,510.926,133.961,420.925,133.961z M521.945,312.503L521.945,312.503
	c-12.318,10.542-17.701,27.095-13.927,42.858l0,0c8.937,37.399-31.751,66.962-64.556,46.905l0,0c-13.832-8.45-31.234-8.45-45.071,0
	l0,0c-32.8,20.057-73.487-9.506-64.549-46.905l0,0c3.767-15.764-1.61-32.316-13.929-42.858l0,0
	c-29.209-25.001-13.671-72.825,24.662-75.888l0,0c16.157-1.293,30.234-11.514,36.458-26.489l0,0
	c14.75-35.504,65.042-35.504,79.791,0l0,0c6.221,14.976,20.301,25.196,36.459,26.489l0,0
	C535.609,239.678,551.154,287.502,521.945,312.503z"/>
</svg>
