<?xml version="1.0" encoding="utf-8"?>
<!-- Generator: Adobe Illustrator 16.0.0, SVG Export Plug-In . SVG Version: 6.00 Build 0)  -->
<!DOCTYPE svg PUBLIC "-//W3C//DTD SVG 1.1//EN" "http://www.w3.org/Graphics/SVG/1.1/DTD/svg11.dtd">
<svg version="1.1" id="Layer_1" xmlns="http://www.w3.org/2000/svg" xmlns:xlink="http://www.w3.org/1999/xlink" x="0px" y="0px"
	 width="841.89px" height="595.28px" viewBox="0 0 841.89 595.28" enable-background="new 0 0 841.89 595.28" xml:space="preserve">
<path fill-rule="evenodd" clip-rule="evenodd" d="M520.173,397.18h-58.351l-41.273,41.261l-41.266-41.261h-58.357v-58.367
	l-41.267-41.263l41.267-41.269v-58.359h58.362l41.261-41.264l41.273,41.264h58.351v58.359l41.265,41.269l-41.265,41.263V397.18z
	 M399.056,217.699l-8.186,8.189c0,0-26.81,0-41.98,0c0,15.172,0,41.981,0,41.981s-18.954,18.954-29.682,29.68
	c10.728,10.728,29.682,29.682,29.682,29.682s0,26.808,0,41.979c15.166,0,41.976,0,41.976,0s18.955,18.954,29.684,29.687
	c10.728-10.732,29.682-29.687,29.682-29.687s26.806,0,41.981,0c0-15.172,0-41.977,0-41.977s18.954-18.954,29.682-29.685
	c-10.728-10.726-29.682-29.68-29.682-29.68s0-26.81,0-41.981c-15.176,0-41.981,0-41.981,0s-18.954-18.954-29.682-29.685
	C409.825,206.935,399.056,217.699,399.056,217.699z"/>
</svg>
