<?xml version="1.0" encoding="utf-8"?>
<!-- Generator: Adobe Illustrator 16.0.0, SVG Export Plug-In . SVG Version: 6.00 Build 0)  -->
<!DOCTYPE svg PUBLIC "-//W3C//DTD SVG 1.1//EN" "http://www.w3.org/Graphics/SVG/1.1/DTD/svg11.dtd">
<svg version="1.1" id="Layer_1" xmlns="http://www.w3.org/2000/svg" xmlns:xlink="http://www.w3.org/1999/xlink" x="0px" y="0px"
	 width="841.89px" height="595.28px" viewBox="0 0 841.89 595.28" enable-background="new 0 0 841.89 595.28" xml:space="preserve">
<path fill="#010101" d="M552.314,256.407c-11.11-5.506-21.26-11.704-33.074-13.292c9.399-9.166,18.898-18.246,28.234-27.471
	c2.848-2.824-0.135-6.835-3.627-6.236c-17.655,3.036-35.445,4.075-52.83,8.185c5.862-12.219,12.193-24.16,21.018-34.599
	c2.608-3.064-0.748-8.286-4.516-5.848c-15.098,9.74-30.91,18.119-45.27,28.825c0.934-14.307,2.561-28.319-1.481-42.451
	c-0.949-3.337-4.976-3.412-6.819-0.885c-8.824,12.088-16.926,24.692-25.734,36.812c-9.954,13.699-24.965-25.692-28.445-32.159
	c-1.91-3.556-6.587-1.522-6.938,1.88c-1.487,14.14-2.254,28.193-5.97,41.89c-12.682-7.493-25.854-14.098-37.856-22.722
	c-2.908-2.099-6.021,1.342-5.476,4.209c2.326,12.147,4.372,24.202,8.156,35.924c-8.613-5.67-18.843-9.143-28.749-11.602
	c-2.794-0.695-5.271,1.804-4.589,4.59c3.633,14.85,11.568,23.857,23.27,30.893c-8.967,1.502-17.951,2.415-27.13,2.619
	c-2.959,0.075-5.334,4.219-2.64,6.37c7.758,6.198,16.246,10.563,24.949,14.955c-8.889,4.119-17.896,7.887-27.032,11.453
	c-2.288,0.885-4.083,4.303-1.646,6.237c11.167,8.83,24.098,12.409,37.504,15.746c-8.882,6.143-17.441,12.563-25.382,20.006
	c-2.583,2.431-0.375,6.064,2.647,6.373c9.224,0.938,18.409,0.222,27.635,0.616c-2.351,6.13-6.081,11.244-9.411,17.096
	c-1.645,2.869,1.043,6.271,4.211,5.467c11.575-2.927,21.282-7.712,30.71-14.398c3.922,13.221,2.644,26.823,3.733,40.647
	c0.244,3.125,3.935,5.088,6.372,2.639c7.06-7.127,12.321-15.317,17.721-23.609c7.884,13.109,15.128,26.466,21.186,40.575
	c1.363,3.188,5.944,1.854,6.809-0.891c4.315-13.54,4.902-27.275,5.408-41.229c9.186,9.169,16.38,19.659,23.223,30.922
	c1.863,3.081,7.068,1.927,6.949-1.885c-0.268-7.955-1.158-15.837-1.615-23.753c6.939,8.253,15.066,15.461,22.295,23.599
	c2.733,3.081,6.761-0.303,6.232-3.634c-2.248-14.206-3.689-28.356-4.26-42.658c7.465,6.067,15.611,10.935,23.953,16.091
	c2.6,1.613,6.721-1.081,5.487-4.209c-2.894-7.292-5.825-14.477-9.184-21.492c6.681,2.19,13.305,4.109,20.501,4.765
	c2.303,0.207,4.406-2.561,3.602-4.715c-3.625-9.696-8.318-18.484-14.061-26.901c7.885,0.078,15.681-0.029,23.574-1.159
	c2.303-0.332,3.506-3.66,2.232-5.47c-6.858-9.774-14.472-18.672-22.639-27.274c9.834-3.533,19.154-8.167,28.76-12.389
	C554.839,261.744,554.671,257.577,552.314,256.407z M513.125,301.605c-2.583-0.042-4.973,3.292-3.217,5.607
	c6.081,8.021,11.016,16.153,14.978,25.194c-7.203-1.451-13.95-4.089-21.023-6.428c-3.226-1.063-5.712,2.757-4.213,5.49
	c3.21,5.794,5.937,11.751,8.495,17.796c-6.873-4.376-13.502-9.005-19.421-14.869c-2.295-2.271-6.409-0.643-6.37,2.64
	c0.178,13.855,1.299,27.56,3.082,41.227c-7.342-7.388-14.858-14.581-20.375-23.525c-1.975-3.195-6.828-1.83-6.948,1.885
	c-0.24,7.117,0.337,14.177,0.913,21.255c-6.433-9.428-13.531-18.122-22.524-25.758c-2.487-2.112-6.215-0.755-6.368,2.637
	c-0.555,12.563-0.605,25.017-2.929,37.253c-5.929-12.495-12.675-24.507-19.967-36.34c-1.531-2.478-4.885-2.334-6.449,0
	c-4.629,6.935-8.888,14.007-14.022,20.5c-0.392-13.035-0.137-25.705-5.262-38.261c-1.131-2.768-3.881-3.48-6.233-1.64
	c-7.219,5.61-14.557,9.863-22.726,12.939c2.76-4.669,5.245-9.389,6.577-14.902c0.611-2.522-1.161-4.496-3.601-4.726
	c-7.788-0.736-15.544-0.348-23.312-0.455c7.702-6.448,15.868-12.158,24.267-17.784c2.565-1.708,2.406-5.971-0.899-6.809
	c-12.673-3.214-25.822-5.501-37.043-12.295c9.674-3.897,19.211-8.018,28.611-12.6c2.479-1.2,2.399-5.211,0-6.433
	c-7.348-3.791-14.72-7.13-21.666-11.357c9.489-0.777,18.81-2.188,28.227-4.208c3.025-0.655,3.82-5.462,0.901-6.819
	c-12.923-5.977-22.116-12.498-27.044-24.965c10.969,3.175,22.478,7.986,29.401,17.015c2.888,3.755,9.372,0.039,6.435-3.772
	c-0.907-1.193-1.926-2.266-2.945-3.345c0.705-0.788,1.054-1.866,0.529-3.214c-4.107-10.735-6.417-21.75-8.541-32.914
	c11.311,7.242,23.319,13.281,34.766,20.325c2.14,1.306,4.754,0.023,5.487-2.222c3.779-11.598,5.166-23.455,6.31-35.429
	c5.873,11.944,11.777,23.662,22.713,32.058c1.226,0.94,3.559,0.58,4.526-0.584c10.553-12.73,19.491-26.594,28.971-40.115
	c1.848,13.32-0.416,26.745-0.835,40.276c-0.11,3.515,4.028,4.596,6.364,2.638c10.854-9.058,22.9-16.206,34.939-23.406
	c-5.531,9-10.15,18.561-14.676,28.223c-1.316,2.796,0.818,6.488,4.211,5.467c15.912-4.765,32.365-6.255,48.748-8.479
	c-8.768,8.514-17.592,16.968-26.271,25.567c-2.192,2.164-0.697,6.621,2.63,6.367c11.931-0.895,21.61,3.95,31.553,9.123
	c-8.522,3.908-16.984,7.876-26.01,10.586c-2.694,0.817-3.64,4.206-1.65,6.242c7.851,7.992,15.192,16.222,21.899,25.137
	C528.464,301.968,520.844,301.707,513.125,301.605z M384.928,143.41c-9.617,0-9.617-14.918,0-14.918
	C394.554,128.492,394.554,143.41,384.928,143.41z M307.829,173.254c-9.606,0-9.606-14.916,0-14.916
	C317.458,158.338,317.458,173.254,307.829,173.254z M389.904,466.693c-9.62,0-9.62-14.913,0-14.913
	C399.53,451.78,399.53,466.693,389.904,466.693z M452.073,436.859c-9.619,0-9.619-14.918,0-14.918
	C461.697,421.941,461.697,436.859,452.073,436.859z M469.783,143.707c-2.879,2.883-7.668,2.883-10.547,0
	c-0.828-0.822-1.66-1.657-2.488-2.482c-2.88-2.861-2.871-7.679,0-10.553c2.879-2.877,7.668-2.877,10.55,0
	c0.835,0.838,1.658,1.655,2.485,2.488C472.666,136.034,472.656,140.841,469.783,143.707z M519.223,421.941
	c-9.625,0-9.625-14.912,0-14.912C528.849,407.029,528.849,421.941,519.223,421.941z M263.068,282.674c-9.625,0-9.625-14.92,0-14.92
	C272.696,267.754,272.696,282.674,263.068,282.674z M318.86,373.816c0.667,4.975-4.292,8.031-8.544,8.345
	c-4.056,0.287-7.458-3.618-7.458-7.47c0-0.49,0.064-0.958,0.141-1.404c-0.337-2.248,0.316-4.629,2.048-6.353
	c2.849-2.858,7.708-2.911,10.548,0C317.568,368.945,318.483,371.039,318.86,373.816z M559.001,367.232
	c-9.609,0-9.609-14.931,0-14.931C568.637,352.302,568.637,367.232,559.001,367.232z M571.445,260.289
	c-9.626,0-9.626-14.918,0-14.918C581.063,245.371,581.063,260.289,571.445,260.289z M578.904,195.641
	c-9.617,0-9.617-14.928,0-14.928C588.523,180.713,588.523,195.641,578.904,195.641z"/>
</svg>
