<?xml version="1.0" encoding="utf-8"?>
<!-- Generator: Adobe Illustrator 16.0.0, SVG Export Plug-In . SVG Version: 6.00 Build 0)  -->
<!DOCTYPE svg PUBLIC "-//W3C//DTD SVG 1.1//EN" "http://www.w3.org/Graphics/SVG/1.1/DTD/svg11.dtd">
<svg version="1.1" id="Layer_1" xmlns="http://www.w3.org/2000/svg" xmlns:xlink="http://www.w3.org/1999/xlink" x="0px" y="0px"
	 width="841.89px" height="595.28px" viewBox="0 0 841.89 595.28" enable-background="new 0 0 841.89 595.28" xml:space="preserve">
<path fill="#010101" d="M537.563,254.288c-0.222-0.6-0.667-1.125-1.415-1.398c-11.475-4.155-25.867-5.637-38.01-7.095
	c-5.423-0.647-10.984-1.347-16.475-1.624c-0.271-0.145-0.585-0.24-0.943-0.274c-7.256-0.624-12.65-1.579-16.823-8.484
	c-3.219-5.327-6.327-10.704-9.759-15.899c-5.035-7.64-10.627-18.011-17.299-24.753c-2.586-3.861-4.443-6.559-4.519-6.463
	c-0.361-0.452-14.07,20.885-19.549,29.13c-2.478,3.74-4.852,8.407-7.46,12.838c-4.294,5.795-9.343,11.006-14.011,11.822
	c-5.098,0.882-10.276,1.801-15.478,2.631c-3.125,0.323-6.241,0.71-9.314,1.076c-3.402,0.411-6.986,0.825-10.627,1.298
	c-0.837,0.049-1.679,0.124-2.517,0.16c-0.414,0.029-0.76,0.145-1.059,0.311c-8.233,1.157-16.594,2.719-23.807,5.326
	c-0.747,0.273-1.197,0.799-1.417,1.398c-1.273,0.457-2.158,1.805-1.145,3.21c6.216,8.577,11.368,17.929,17.853,26.316
	c7.769,10.05,17.544,20.326,24.396,31.051c-0.137,0.299-0.22,0.635-0.216,1.036c0.188,12.589-5.774,24.149-8.679,36.185
	c-3.06,12.686-6.167,25.246-7.093,38.297c-0.137,1.9,2.048,2.74,3.516,2.021c15.346-7.451,29.31-17.04,43.657-26.197
	c11.124-7.096,22.895-12.793,32.954-21.371c10.057,8.578,21.83,14.275,32.952,21.371c14.348,9.157,28.313,18.746,43.657,26.197
	c1.467,0.719,3.652-0.121,3.518-2.021c-0.926-13.051-4.034-25.611-7.096-38.297c-2.902-12.035-8.866-23.596-8.678-36.185
	c0.008-0.401-0.08-0.737-0.22-1.036c6.856-10.725,16.628-21,24.397-31.051c6.486-8.387,11.639-17.739,17.858-26.316
	C539.725,256.093,538.838,254.745,537.563,254.288z M512.364,287.347c-6.628,8.815-14.845,16.867-20.626,26.207
	c-0.631,1.015,4.473,23.173,7.425,33.417c3.69,12.799,6.912,26.122,8.247,39.428c-12.759-6.588-24.602-14.541-36.718-22.275
	c-12.119-7.73-25.255-13.885-36.085-23.464c-0.447-0.794-1.333-1.337-2.283-1.296c-0.95-0.041-1.837,0.502-2.283,1.296
	c-10.828,9.579-23.97,15.733-36.083,23.464c-12.12,7.734-23.962,15.688-36.724,22.275c1.341-13.306,4.56-26.629,8.253-39.428
	c2.95-10.244,8.05-32.402,7.422-33.417c-5.782-9.34-13.995-17.392-20.626-26.207c-7.43-9.884-13.9-20.366-21.057-30.422
	c10.045-3.306,21.617-3.868,31.973-5.783c3.832-0.416,7.667-0.935,11.494-1.528c3.69-0.332,7.391-0.587,11.099-0.899
	c3.509-0.291,14.55-3.065,14.478-4.291c0.103-0.069,0.214-0.101,0.317-0.184c3.878-3.48,6.949-8.794,9.823-13.9
	c2.696-3.6,5.293-7.298,7.336-11.106c0.217-0.407,0.277-0.793,0.268-1.167c4.15-6.075,9.617-13.753,14.311-20.502
	c6.064,8.715,13.441,19.016,17.565,25.353c3.872,5.95,7.567,14.287,12.601,19.722c0.463,0.563,0.943,1.056,1.443,1.467
	c0.047,0.042,0.087,0.092,0.129,0.133c0.104,0.083,0.214,0.115,0.319,0.184c-0.074,1.226,10.97,4,14.478,4.291
	c7.522,0.63,15.039,1.016,22.477,2.403c10.384,1.939,22.003,2.493,32.087,5.808C526.267,266.98,519.795,277.462,512.364,287.347z
	 M354.422,234.352c-6.029,0-6.029-9.345,0-9.345C360.446,225.007,360.446,234.352,354.422,234.352z M365.323,190.728
	c-6.024,0-6.024-9.345,0-9.345C371.353,181.383,371.353,190.728,365.323,190.728z M387.137,226.564c-6.03,0-6.03-9.352,0-9.352
	C393.164,217.212,393.164,226.564,387.137,226.564z M432.313,156.456c0.165,2.544-2.249,4.676-4.675,4.676
	c-2.445,0-4.181-1.791-4.578-4.052c-0.072-0.13-0.139-0.241-0.217-0.361c-0.024-0.02-0.048-0.055-0.064-0.074
	c-1.781-1.818-1.817-4.795,0-6.615c1.783-1.778,4.828-1.818,6.606,0C431.115,151.804,432.156,153.99,432.313,156.456z
	 M503.975,232.796c-6.027,0-6.027-9.348,0-9.348S510.002,232.796,503.975,232.796z M471.448,215.845
	c-0.52,0.522-1.036,1.039-1.556,1.559c-1.803,1.797-4.809,1.797-6.611,0c-1.799-1.8-1.801-4.81,0-6.609
	c0.52-0.522,1.041-1.039,1.558-1.558c1.804-1.799,4.81-1.804,6.609,0C473.248,211.035,473.25,214.053,471.448,215.845z
	 M496.189,187.615c-6.032,0-6.032-9.348,0-9.348C502.214,178.267,502.214,187.615,496.189,187.615z M301.453,274.855
	c0,2.418-2.128,4.846-4.673,4.675c-3.479-0.239-6.147-2.659-6.23-6.232c-0.063-2.548,2.167-4.675,4.669-4.675
	c1.72,0,3.171,0.94,3.984,2.317C300.538,271.734,301.453,273.11,301.453,274.855z M320.336,388.771
	c-0.097,0.101-0.154,0.166-0.208,0.212c-0.014,0.02-0.017,0.023-0.034,0.055c-0.12,0.19-0.235,0.371-0.349,0.559
	c-0.357,0.568-0.762,1.145-1.205,1.636c-1.221,1.362-2.847,1.9-4.625,2.022c-2.543,0.18-4.672-2.258-4.672-4.674
	c0-1.966,1.15-3.453,2.76-4.182c0.517-0.793,1.078-1.552,1.724-2.234c1.74-1.86,4.849-1.76,6.608,0
	C322.18,384.006,322.077,386.91,320.336,388.771z M332.609,326.262c0,2.554-2.125,4.68-4.673,4.68h-1.556
	c-2.548,0-4.677-2.126-4.677-4.68c0-2.543,2.129-4.668,4.677-4.668h1.556C330.484,321.594,332.609,323.719,332.609,326.262z
	 M412.25,398.123c-0.52,0.513-1.039,1.029-1.556,1.552c-1.8,1.8-4.811,1.8-6.612,0c-1.8-1.8-1.803-4.81,0-6.606
	c0.52-0.525,1.036-1.038,1.561-1.561c1.798-1.796,4.808-1.796,6.607,0C414.05,393.309,414.053,396.318,412.25,398.123z
	 M430.752,373.002c-6.023,0-6.023-9.348,0-9.348C436.785,363.654,436.785,373.002,430.752,373.002z M407.578,443.293
	c-0.52,0.522-1.039,1.035-1.559,1.558c-1.797,1.804-4.808,1.804-6.609,0c-1.8-1.798-1.8-4.808,0-6.608
	c0.521-0.512,1.039-1.033,1.556-1.559c1.803-1.801,4.812-1.801,6.612,0C409.378,438.484,409.378,441.494,407.578,443.293z
	 M468.145,402.6c-6.027,0-6.027-9.346,0-9.346C474.171,393.254,474.171,402.6,468.145,402.6z M496.189,435.313
	c-6.032,0-6.032-9.345,0-9.345C502.214,425.968,502.214,435.313,496.189,435.313z M542.921,379.233v3.114
	c0,2.545-2.124,4.674-4.669,4.674c-2.551,0-4.675-2.129-4.675-4.674v-3.114c0-2.548,2.124-4.673,4.675-4.673
	C540.797,374.561,542.921,376.686,542.921,379.233z M527.346,329.387c0,2.543-2.13,4.671-4.676,4.671h-3.115
	c-2.546,0-4.676-2.128-4.676-4.671c0-2.552,2.13-4.677,4.676-4.677h3.115C525.216,324.71,527.346,326.835,527.346,329.387z
	 M546.034,296.666c-6.024,0-6.024-9.348,0-9.348C552.064,287.318,552.064,296.666,546.034,296.666z"/>
</svg>
