<?xml version="1.0" encoding="utf-8"?>
<!-- Generator: Adobe Illustrator 16.0.0, SVG Export Plug-In . SVG Version: 6.00 Build 0)  -->
<!DOCTYPE svg PUBLIC "-//W3C//DTD SVG 1.1//EN" "http://www.w3.org/Graphics/SVG/1.1/DTD/svg11.dtd">
<svg version="1.1" id="Layer_1" xmlns="http://www.w3.org/2000/svg" xmlns:xlink="http://www.w3.org/1999/xlink" x="0px" y="0px"
	 width="841.89px" height="595.28px" viewBox="0 0 841.89 595.28" enable-background="new 0 0 841.89 595.28" xml:space="preserve">
<path fill="#010101" d="M327.857,441.074l93.397-57.098l93.397,57.098l-25.448-106.465l83.172-71.186l-109.126-8.7l-41.995-101.098
	l-42.002,101.098l-109.125,8.7l83.172,71.186L327.857,441.074z M329.059,282.571l52.085-4.154l14.486-1.154l5.578-13.424
	l20.047-48.247l20.039,48.247l5.578,13.424l14.489,1.154l52.079,4.154l-39.692,33.974l-11.042,9.451l3.378,14.132l12.146,50.819
	l-44.578-27.251l-12.396-7.587l-12.404,7.587l-44.571,27.251l12.142-50.819l3.375-14.132l-11.042-9.451L329.059,282.571z
	 M400.31,319.018l-25.629-21.938l33.622-2.682l12.952-31.151l12.935,31.151l33.638,2.682l-25.633,21.938l7.843,32.822
	l-28.783-17.606l-28.787,17.606L400.31,319.018z"/>
</svg>
