<?xml version="1.0" encoding="utf-8"?>
<!-- Generator: Adobe Illustrator 16.0.0, SVG Export Plug-In . SVG Version: 6.00 Build 0)  -->
<!DOCTYPE svg PUBLIC "-//W3C//DTD SVG 1.1//EN" "http://www.w3.org/Graphics/SVG/1.1/DTD/svg11.dtd">
<svg version="1.1" id="Layer_1" xmlns="http://www.w3.org/2000/svg" xmlns:xlink="http://www.w3.org/1999/xlink" x="0px" y="0px"
	 width="841.89px" height="595.28px" viewBox="0 0 841.89 595.28" enable-background="new 0 0 841.89 595.28" xml:space="preserve">
<path d="M351.185,286.857c-34.629-28.331-72.426-50.464-108.177-75.553c-4.076-2.864-8.03-5.907-12.079-8.812
	c-4.541-3.258-3.787-7.288-2.001-11.686c1.752-4.321,5.006-3.978,8.686-3.53c16.104,1.929,32.247,3.496,48.327,5.599
	c26.661,3.477,53.298,7.189,79.914,10.989c4.251,0.613,6.917,0.091,8.132-4.608c5.269-20.329,14.149-39.623,17.203-60.608
	c1.55-10.648,6.244-20.436,8.784-30.845c0.884-3.636,3.697-7.234,8.164-7.215c3.499,0.014,6.089,2.232,7.476,5.656
	c11.092,27.323,23.203,54.256,32.813,82.156c4.08,11.826,6.818,24.113,10.172,36.19c1.718,6.192,5.544,8.797,11.968,11.032
	c17.228,6.013,35.321,9.16,52.144,16.356c16.197,6.921,33.564,9.728,50.393,14.419c7.977,2.226,15.734,5.228,23.617,7.797
	c3.445,1.133,6.783,2.202,10.692,1.788c5.428-0.564,8.921,4.588,6.948,9.629c-1.155,2.959-2.955,5.692-6.006,6.965
	c-7.617,3.162-15.428,6.435-23.17,8.503c-8.357,2.234-17.107,4.121-25.855,5.312c-12.092,1.646-23.887,4.451-34.992,9.782
	c-9.183,4.418-19.182,6.498-28.776,9.729c-9.325,3.139-16.794,9.169-24.566,14.729c-3.07,2.197-2.747,6.208-3.286,9.612
	c-3.357,21.37-2.807,42.975-3.971,64.479c-1.005,18.473-0.24,36.903,1.16,55.321c0.299,3.924,1.622,7.586,2.387,11.383
	c1.392,6.935-4.253,12.309-11.184,10.918c-2.029-0.406-3.176-1.342-4.074-3.195c-19.66-40.394-47.077-75.813-71.801-112.962
	c-4.848-7.29-9.67-9.146-18.94-6.81c-22.814,5.763-46.177,9.329-69.292,13.912c-14.799,2.942-29.421,6.92-44.687,6.889
	c-4.422-0.006-8.063-1.01-9.735-5.481c-1.86-4.979-0.211-9.269,4.121-11.831c26.606-15.737,51.602-33.53,72.684-56.488
	c7.896-8.598,17.55-15.207,27.056-21.918C344.723,292.139,347.795,289.516,351.185,286.857z M368.4,293.825
	c-6.267,3.474-10.646,9.203-16.499,13.007c1.012,1.759,2.26,1.613,3.259,1.98c31.093,11.428,61.969,23.389,91.75,38.014
	c1.715,0.84,3.645,2.991,5.404,1.527c1.516-1.262-0.447-3.405-0.563-5.18c-0.096-1.279-0.299-2.783,0.25-3.814
	c1.771-3.365-0.36-4.133-2.81-5.026c-8.646-3.161-17.218-6.54-25.913-9.548c-16.676-5.765-32.743-13.357-50.273-16.592
	c-6.09-1.121-9.348-6.343-4.237-14c2.565-0.775,5.043-0.51,7.542,0.386c27.754,9.922,55.512,19.824,83.27,29.725
	c1.748,0.623,3.538,1.525,5.735-0.367c-7.385-2.898-14.252-5.447-21.004-8.27c-20.412-8.519-40.764-17.168-61.164-25.707
	c-2.882-1.211-5.882-2.811-8.87-2.919C370.321,286.9,371.078,292.114,368.4,293.825z M584.94,284.451
	c-0.462-1.452-1.517-1.297-2.339-1.601c-17.818-6.643-36.85-8.683-54.824-14.982c-23.963-8.395-48.192-16.125-73.522-19.501
	c-2.57-0.343-4.648-1.718-5.102-4.384c-0.653-3.855-3.483-4.759-6.568-5.702c-6.159-1.875-12.325-3.773-18.407-5.896
	c-11.12-3.873-22.167-7.954-33.265-11.883c-1.609-0.57-3.395-1.991-4.982,0.117c-1.946,2.603-5.034,3.619-8.272,5.308
	c17.596,7.585,34.383,14.816,52.307,19.684c42.648,11.565,84.825,24.835,127.113,37.651
	C565.971,285.964,575.281,290.222,584.94,284.451z M512.211,304.777c-1.18-0.687-1.925-1.167-2.704-1.571
	c-28.762-14.916-59.911-23.706-90.271-34.267c-30.769-10.695-61.481-21.474-91.816-33.331c-13.313-5.205-26.453-10.88-40.441-14.334
	c5.153,4.458,10.558,8.484,16.517,11.732c0.787,0.425,1.552,1.091,2.524,0.488c4.059-2.526,7.531,0.132,10.924,1.541
	c16.959,7.046,33.659,14.763,50.761,21.449c41.144,16.072,83.528,29.002,123.198,48.743
	C498.256,308.89,504.474,307.82,512.211,304.777z M547.732,293.321c-0.557-0.688-0.717-1.087-0.967-1.159
	c-26.297-7.868-52.565-15.792-78.903-23.509c-20.835-6.117-42.015-11.183-62.565-18.151c-23.638-8.01-46.767-17.569-70.084-26.553
	c-2.896-1.113-5.965-2.511-5.259-6.672c0.322-1.893-0.558-2.673-2.343-2.906c-10.333-1.369-20.663-2.774-30.991-4.166
	c5.437,2.428,10.969,4.372,16.44,6.483c29.527,11.404,58.649,23.84,88.508,34.42c41.456,14.686,83.701,27.313,123.389,46.706
	c1.204,0.583,2.335,1.182,3.664,0.603C534.64,295.8,541.16,294.891,547.732,293.321z M450.791,365.23
	c0.057-0.326,0.123-0.651,0.186-0.983c-4.34-2.616-8.589-5.412-13.047-7.829c-18.166-9.852-37.486-17.16-56.636-24.688
	c-11.578-4.557-22.741-11.598-36.122-10.111c-1.179,0.123-2.735-0.339-3.63-1.104c-5.592-4.709-8.72-0.693-12.49,3.438
	C369.911,337.8,410.347,351.515,450.791,365.23z M342.004,259.525c5.202,5.362,10.454,7.933,17.003,9.614
	c17.107,4.396,33.408,11.369,49.587,18.483c21.234,9.333,42.288,19.136,64.63,25.622c2.937,0.849,5.866,2.691,10.091,1.399
	C438.195,290.295,388.943,279.126,342.004,259.525z M443.023,226.569c0.183-5.206-1.141-8.373-6.438-8.647
	c-1.757-0.097-3.467-1.19-5.188-1.863c-11.833-4.638-23.613-9.446-35.554-13.789c-2.283-0.822-5.81-4.327-7.798,0.689
	c-1.984,5.021,2.697,4.78,5.151,5.875c5.553,2.478,11.292,4.524,16.902,6.866C420.65,220.111,431.432,223.778,443.023,226.569z
	 M395.307,183.388c-1.561-0.329-1.978,0.722-2.269,2.164c-0.445,2.213,0.411,3.265,2.46,4.142
	c12.322,5.296,24.892,9.936,37.58,14.234c1.586,0.536,3.833,2.608,4.885,0.585c1.073-2.076-0.388-4.634-2.157-6.349
	c-0.748-0.731-1.902-1.107-2.934-1.475c-11.923-4.275-23.856-8.519-35.793-12.773C396.561,183.732,396.021,183.598,395.307,183.388z
	 M389.583,357.779c0.06,2.156,1.467,2.23,2.365,2.594c6.645,2.688,13.347,5.25,20.016,7.885
	c11.289,4.463,22.554,8.983,33.879,13.383c0.991,0.377,2.483,1.768,3.384,0.18c0.919-1.629-0.41-2.711-1.771-3.489
	c-1.275-0.736-2.54-1.483-3.85-2.155c-7.06-3.66-14.65-5.979-22.136-8.483C410.98,364.174,400.342,361.1,389.583,357.779z
	 M431.764,184.563c-1.925-3.875-1.191-7.514-5.023-8.707c-8.256-2.573-16.562-5.007-24.807-7.622
	c-1.928-0.604-2.907-0.542-3.706,1.647c-0.796,2.177-0.172,2.873,1.76,3.602C409.964,177.226,419.906,181.086,431.764,184.563z
	 M366.839,349.396c-16.34-5.145-32.178-10.132-48.272-15.191c0.067,1.723,0.782,1.989,1.462,2.254
	c11.953,4.743,23.875,9.566,35.884,14.162C359.257,351.898,362.856,352.723,366.839,349.396z M278.168,367.924
	c0.169,0.308,0.346,0.61,0.522,0.924c9.101-1.857,18.208-3.71,28.36-5.775c-4.266-1.982-7.411-3.422-10.527-4.916
	c-1.775-0.856-3.438-1.12-5.163,0.156C286.983,361.543,282.563,364.723,278.168,367.924z M423.197,163.306
	c-2.438-7.377-11.07-13.033-17.785-12.77c-2.141,0.089-2.3,1.283-2.514,2.782c-0.224,1.552-1.129,3.236,1.328,3.987
	C410.281,159.157,416.305,161.118,423.197,163.306z M336.552,356.915c-8.342-3.539-15.747-6.692-23.167-9.816
	c-1.013-0.429-2.094-0.705-3.155-0.993c-2.261-0.626-4.406-0.834-5.565,1.869C315.716,355.242,327.859,358.887,336.552,356.915z
	 M448.922,398.501c-14.998-9.114-30.985-15.895-47.872-20.532C416.682,385.582,432.271,393.313,448.922,398.501z M415.169,398.467
	c0.856,5.481,5.202,4.485,7.87,5.961c7.088,3.936,14.391,7.456,21.967,10.348c1.077,0.411,2.561,1.516,3.243-0.354
	c0.52-1.422-1.067-1.739-1.953-2.201C436.381,407.05,425.973,403.029,415.169,398.467z M430.498,421.838
	c3.328,7.031,7.09,11.727,14.623,11.306c1.078-0.06,2.459,1.598,3.061-0.597c0.433-1.586,0.02-2.888-1.622-3.609
	C441.465,426.7,436.373,424.443,430.498,421.838z M408.808,129.133c-4.203,10.733-3.814,11.49,6.216,13.125
	C413.003,137.991,411.048,133.856,408.808,129.133z"/>
</svg>
