<?xml version="1.0" encoding="utf-8"?>
<!-- Generator: Adobe Illustrator 16.0.0, SVG Export Plug-In . SVG Version: 6.00 Build 0)  -->
<!DOCTYPE svg PUBLIC "-//W3C//DTD SVG 1.1//EN" "http://www.w3.org/Graphics/SVG/1.1/DTD/svg11.dtd">
<svg version="1.1" id="Layer_1" xmlns="http://www.w3.org/2000/svg" xmlns:xlink="http://www.w3.org/1999/xlink" x="0px" y="0px"
	 width="841.89px" height="595.28px" viewBox="0 0 841.89 595.28" enable-background="new 0 0 841.89 595.28" xml:space="preserve">
<path fill="#010101" d="M377.559,285.334l2.899-0.544l-38.839-13.25l48.562,11.44l7.534-1.396l-21.281-31.021l2.25,1.538
	l-14.371-15.853l27.066,24.573l16.064,11.029l0.733-3.906l-15.437-61.005l17.813,48.232l2.733-14.718l6.444-133.017l5.327,92.418
	l8.436,45.337l13.313-39.134l-11.301,50.019l2.949,15.774l13.934-9.562l35.66-32.378l-19.208,21.563l-20.662,30.111l4.386,0.808
	l47.911-12.117l-38.845,13.811l8.462,1.567l118.675,5.754l-70.574,3.21l13.291,2.465l-58.074,10.802l29.266,9.951l-36.256-8.65
	l-18.241,3.403l11.503,16.749l23.086,25.443l-15.086-13.784l1.783,2.608l-31.01-21.291l-2.668,14.334l12.77,52.358l-14.721-41.889
	l-8.055,43.315l-5.582,97.698l-5.222-125.347l-3.915-21.04l-16.586,47.401l14.375-59.275l-1.407-7.557l-27.443,18.826
	l-26.442,23.594l32.937-35.799l11.221-16.347l-18.132-3.381l-39.401,9.935l31.687-11.379l-57.445-10.681l11.837-2.203l-72.501-3.587
	L377.559,285.334z"/>
</svg>
