<?xml version="1.0" encoding="utf-8"?>
<!-- Generator: Adobe Illustrator 16.0.0, SVG Export Plug-In . SVG Version: 6.00 Build 0)  -->
<!DOCTYPE svg PUBLIC "-//W3C//DTD SVG 1.1//EN" "http://www.w3.org/Graphics/SVG/1.1/DTD/svg11.dtd">
<svg version="1.1" id="Layer_1" xmlns="http://www.w3.org/2000/svg" xmlns:xlink="http://www.w3.org/1999/xlink" x="0px" y="0px"
	 width="841.89px" height="595.28px" viewBox="0 0 841.89 595.28" enable-background="new 0 0 841.89 595.28" xml:space="preserve">
<path fill="#010101" d="M361.933,317.903l-21.665,90.638c-34.31-25.005-56.619-65.478-56.619-111.185
	c0-14.317,2.189-28.122,6.255-41.102L361.933,317.903z M502.098,408.541c34.31-25.005,56.617-65.478,56.617-111.185
	c0-14.317-2.184-28.122-6.255-41.102l-72.026,61.648L502.098,408.541z M421.183,160.093l36.615,88.157l94.508,7.532
	c-17.626-55.634-69.658-95.961-131.123-95.961c-61.469,0-113.502,40.327-131.124,95.961l94.504-7.532L421.183,160.093z
	 M421.183,360.953l-79.496,48.604c22.454,15.935,49.867,25.338,79.496,25.338c29.633,0,57.048-9.403,79.5-25.338L421.183,360.953z"
	/>
</svg>
