<?xml version="1.0" encoding="utf-8"?>
<!-- Generator: Adobe Illustrator 16.0.0, SVG Export Plug-In . SVG Version: 6.00 Build 0)  -->
<!DOCTYPE svg PUBLIC "-//W3C//DTD SVG 1.1//EN" "http://www.w3.org/Graphics/SVG/1.1/DTD/svg11.dtd">
<svg version="1.1" id="Layer_1" xmlns="http://www.w3.org/2000/svg" xmlns:xlink="http://www.w3.org/1999/xlink" x="0px" y="0px"
	 width="841.89px" height="595.28px" viewBox="0 0 841.89 595.28" enable-background="new 0 0 841.89 595.28" xml:space="preserve">
<path d="M379.398,221.922L275.24,210.606l-5.976-0.649l3.55,4.852l61.884,84.544v-3.133l-61.884,84.542l-3.55,4.854l5.976-0.65
	l104.158-11.31l-2.714-1.566l42.274,95.854l2.424,5.505l2.426-5.505l42.27-95.854l-2.71,1.566l104.148,11.31l5.977,0.65
	l-3.553-4.854l-61.873-84.542v3.133l61.873-84.544l3.553-4.852l-5.977,0.649l-104.148,11.316l2.71,1.564l-42.27-95.856l-2.426-5.502
	l-2.424,5.502l-42.274,95.856L379.398,221.922z M418.958,129.771l42.269,95.859l0.785,1.775l1.929-0.208l104.147-11.315
	l-2.432-4.203l-61.873,84.542l-1.145,1.569l1.145,1.564l61.873,84.539l2.432-4.2L463.94,368.381l-1.929-0.209l-0.785,1.778
	l-42.269,95.854h4.85l-42.274-95.854l-0.783-1.778l-1.926,0.209l-104.152,11.312l2.425,4.2l61.878-84.539l1.15-1.564l-1.15-1.569
	l-61.878-84.542l-2.425,4.203l104.152,11.315l1.926,0.208l0.788-1.775l42.269-95.859H418.958z M421.382,162.749l33.762,76.555
	l83.172-9.035l-49.415,67.52l49.415,67.518l-83.172-9.029l-33.762,76.55l-33.76-76.55l-83.183,9.029l49.421-67.518l-49.421-67.52
	l83.183,9.035L421.382,162.749z"/>
</svg>
