<?xml version="1.0" encoding="utf-8"?>
<!-- Generator: Adobe Illustrator 16.0.0, SVG Export Plug-In . SVG Version: 6.00 Build 0)  -->
<!DOCTYPE svg PUBLIC "-//W3C//DTD SVG 1.1//EN" "http://www.w3.org/Graphics/SVG/1.1/DTD/svg11.dtd">
<svg version="1.1" id="Layer_1" xmlns="http://www.w3.org/2000/svg" xmlns:xlink="http://www.w3.org/1999/xlink" x="0px" y="0px"
	 width="841.89px" height="595.28px" viewBox="0 0 841.89 595.28" enable-background="new 0 0 841.89 595.28" xml:space="preserve">
<path fill-rule="evenodd" clip-rule="evenodd" d="M548.109,297.411l18.252,28.859l-27.89,19.707l5.808,33.65l-33.305,7.531
	l-7.506,33.316l-33.65-5.785l-19.688,27.905l-28.876-18.223l-28.867,18.241l-19.701-27.883l-33.656,5.815l-7.531-33.312
	l-33.313-7.504l5.784-33.65l-27.91-19.685l18.228-28.882l-18.252-28.862l27.895-19.706l-5.813-33.65l33.31-7.535l7.506-33.312
	l33.65,5.787l19.687-27.907l28.873,18.225l28.862-18.252l19.711,27.894l33.646-5.818l7.534,33.311l33.319,7.504l-5.785,33.653
	l27.9,19.687L548.109,297.411z M535.247,221.195l-30.894-6.96l-6.977-30.878l-31.197,5.393l-18.271-25.86l-26.76,16.922
	l-26.769-16.901l-18.248,25.873l-31.2-5.361l-6.959,30.881l-30.879,6.985l5.396,31.194l-25.861,18.271l16.92,26.757l-16.901,26.772
	l25.879,18.247l-5.37,31.198l30.884,6.963l6.992,30.875l31.191-5.395l18.267,25.854l26.76-16.913l26.774,16.896l18.248-25.87
	l31.201,5.363l6.958-30.882l30.874-6.989l-5.389-31.191l25.85-18.27l-16.914-26.757l16.896-26.775l-25.87-18.244L535.247,221.195z
	 M531.988,297.416l15.924,25.196l-24.339,17.199l5.071,29.376l-29.074,6.573l-6.554,29.084l-29.373-5.053l-17.188,24.361
	l-25.206-15.908l-25.197,15.93l-17.202-24.344l-29.378,5.077L342.9,375.83l-29.084-6.55l5.053-29.382l-24.364-17.182l15.909-25.206
	l-15.929-25.198l24.344-17.203l-5.071-29.375l29.074-6.578l6.545-29.078l29.382,5.051l17.184-24.364l25.21,15.911l25.196-15.93
	l17.208,24.343l29.372-5.077l6.573,29.08l29.084,6.546l-5.052,29.382l24.358,17.182L531.988,297.416z"/>
</svg>
