<?xml version="1.0" encoding="utf-8"?>
<!-- Generator: Adobe Illustrator 16.0.0, SVG Export Plug-In . SVG Version: 6.00 Build 0)  -->
<!DOCTYPE svg PUBLIC "-//W3C//DTD SVG 1.1//EN" "http://www.w3.org/Graphics/SVG/1.1/DTD/svg11.dtd">
<svg version="1.1" id="Layer_1" xmlns="http://www.w3.org/2000/svg" xmlns:xlink="http://www.w3.org/1999/xlink" x="0px" y="0px"
	 width="841.89px" height="595.28px" viewBox="0 0 841.89 595.28" enable-background="new 0 0 841.89 595.28" xml:space="preserve">
<path d="M325.702,280.864c-10.746-8.429-21.005-16.573-31.361-24.595c-18.257-14.166-37.63-26.659-57.509-38.407
	c-3.291-1.944-6.25-4.608-8.984-7.322c-5.457-5.432-4.086-15.949,2.671-19.993c2.377-1.422,3.758-2.939,3.681-5.669
	c-0.202-7.209,4.86-7.773,9.899-7.266c5.774,0.568,11.466,2,17.183,3.084c24.187,4.62,48.954,3.241,73.202,7.288
	c15.081,2.517,30.254,4.47,45.326,7.045c5.652,0.965,8.835-0.327,12.433-5.378c9.696-13.577,12.96-29.844,20.003-44.492
	c4.833-10.056,10.688-19.659,14.005-30.458c1.326-4.348,5.036-6.598,9.479-6.9c4.075-0.282,6.673,2.227,8.579,5.668
	c2.723,4.929,4.682,10.191,5.896,15.649c5.793,26.146,11.962,52.231,13.464,79.104c0.336,6.092,2.882,9.288,8.576,12.496
	c27.797,15.646,56.463,29.244,86.365,40.269c8.182,3.006,14.552,9.495,23.09,12.087c3.472,1.045,5.344,4.141,4.754,8.687
	c-1.35,10.399-1.574,20.721,3.339,30.651c2.819,5.692-3.509,12.798-12.286,13.794c-19.059,2.165-38.17,3.943-57.249,5.954
	c-11.462,1.215-22.02,5.768-32.842,9.279c-2.652,0.859-2.944,3.213-3.59,5.73c-4.096,16.055-1.872,32.469-2.974,48.688
	c-0.543,8.031-1.376,15.986-3.08,23.855c-2.94,13.582-2.238,27.518-3.671,41.246c-1.089,10.287-9.378,12.06-16.848,14.528
	c-6.415,2.13-9.367-2.58-12.693-7.095c-12.381-16.846-23.999-34.253-38.935-49.141c-10.85-10.835-19.708-23.408-27.304-36.791
	c-2.344-4.136-5.539-5.988-10.273-6.893c-21.096-4.053-42.591-3.31-63.784-5.738c-17.636-2.031-35.374-1.906-52.99-3.877
	c-2.58-0.291-5.293,0.244-7.911,0.645c-14.21,2.125-21.876-3.533-24.099-17.824c-0.827-5.322-1.396-10.676-0.747-16.031
	c0.862-7.114,5.704-10.799,12.642-9.541c1.992,0.36,3.633,0.628,5.539-0.328c28.257-14.1,58.308-24.287,85.92-39.779
	C323.42,282.643,324.127,282.015,325.702,280.864z M276.979,326.512c8.661,0,17.381,0.683,25.965-0.125
	c24.658-2.317,49.305-4.344,74.097-3.473c5.378,0.182,9.127,2.557,11.756,7.211c9.321,16.559,19.57,32.498,31.69,47.15
	c8.153,9.859,17.609,18.322,27.856,27.764c0.828-12.275,1.653-23.136,2.271-34.014c1.039-18.459,1.974-36.916,2.908-55.372
	c0.384-7.459,3.282-11.859,11.446-13.243c16.722-2.854,33.256-6.652,49.088-13.144c11.317-4.644,22.844-8.77,35.697-13.66
	c-4.896-2.076-8.172-3.587-11.545-4.869c-22.063-8.356-43.66-17.699-63.62-30.454c-5.216-3.339-10.837-5.793-16.865-6.472
	c-6.621-0.748-8.657-4.723-8.793-10.359c-0.36-15.363-2.546-30.509-4.802-45.66c-1.819-12.146-4.715-24.023-8.383-36.679
	c-13.367,20.087-18.161,42.925-28.805,63.112c-4.235,8.02-10.443,13.578-19.228,11.432c-15.365-3.768-31.024-5.559-46.582-8.029
	c-18.098-2.86-36.243-5.077-55.992-4.713c1.935,1.644,2.757,2.411,3.647,3.094c24.43,18.594,50.363,34.795,77.421,49.242
	c6.703,3.573,15.341,6.272,14.782,15.939c-0.592,10.258-9.768,12.69-17.405,15.317C333.416,296.888,306.959,315.395,276.979,326.512
	z M669.34,295.486c-15.048-2.291-30.287-3.624-44.999-7.924c-5.64-1.652-10.022,0.325-12.553,5.647
	c-4.097,8.627,0.618,15.834,11.957,17.393c14.897,2.035,29.925,2.839,44.587,6.795c7.671,2.074,14.496-4.469,14.352-12.408
	C682.588,299.396,677.783,296.768,669.34,295.486z M365.031,409.064c-6.058-3.854-10.872-1.598-14.653,3.116
	c-12.031,15.011-19.937,32.643-30.163,48.809c-2.642,4.172-2.026,9.389,2.45,12.394c4.523,3.039,8.912,0.512,12.52-2.484
	c1.795-1.481,3.013-3.808,4.148-5.931c7.66-14.37,15.667-28.511,26.678-40.656c2.059-2.271,2.915-5.005,2.771-8.235
	C369.164,412.994,367.854,410.869,365.031,409.064z M520.068,413.828c7.942,11.865,16.934,23.08,21.55,36.939
	c1.702,5.097,5.383,6.348,10.448,4.273c7.78-3.188,10.526-10.811,5.801-17.734c-2.049-3.01-3.777-6.172-5.6-9.312
	c-6.308-10.921-12.728-21.78-19.325-32.522c-2.517-4.111-6.362-5.967-11.214-4.157c-4.378,1.629-7.438,4.443-7.631,9.489
	C513.993,406.141,517.395,409.818,520.068,413.828z M274.996,270.538c0-6.172-4.691-8.544-9.739-10.122
	c-3.008-0.929-6.106-1.572-9.172-2.305c-11.313-2.714-22.598-5.604-33.962-8.067c-7.695-1.658-13.243,2.534-13.927,9.865
	c-0.693,7.454,2.811,10.944,11.068,11.619c3.59,0.286,7.132,1.277,10.682,1.999c10.674,2.192,21.337,4.408,30.077,6.207
	C268.78,279.638,274.996,275.542,274.996,270.538z M318.993,135.032c8.801,9.66,16.66,20.192,26.567,28.856
	c5.202,4.542,9.971,4.959,14.437,0.573c4.393-4.322,4.147-8.549-0.987-13.688c-9.946-9.965-19.268-20.438-26.567-32.558
	c-2.309-3.84-5.071-6.81-9.888-5.014c-4.577,1.69-9.428,3.56-7.955,9.982C313.181,128.352,316.188,131.953,318.993,135.032z
	 M527.253,194.602c2.875,1.827,6.112,0.307,8.755-1.672c10.803-8.143,16.403-20.262,23.087-31.395
	c3.245-5.405,0.394-10.872-4.995-13.161c-5.96-2.535-10.623-0.708-13.539,5.595c-3.885,8.416-8.19,16.472-15.477,22.564
	c-2.541,2.129-3.267,5.314-3.601,9.731C521.385,189.495,524.045,192.565,527.253,194.602z M195.02,372.301
	c4.948-1.307,7.907-4.742,7.868-10.031c-0.023-4.185-1.693-8.24-6.067-8.842c-9.316-1.307-18.796-2.112-28.083,0.37
	c-5.49,1.473-10.119,7.991-8.903,12.598c1.612,6.065,5.727,8.654,12.083,7.367c1.623-0.326,3.378-0.046,5.068-0.046
	C183.043,373.758,189.135,373.854,195.02,372.301z M457.971,530.291c0.499,3.278,1.045,7.186,4.807,8.261
	c3.647,1.051,7.231-0.361,10.086-2.868c3.738-3.287,4.932-7.648,4.479-12.51c-0.47-5.114-0.047-10.164,0.88-15.201
	c1.42-7.617-4.446-13.375-11.924-11.763c-6.294,1.357-10.746,7.482-10.604,15.358C456.381,517.315,456.984,523.834,457.971,530.291z
	 M399.163,508.141c4.984,1.166,9.367-1.433,11.022-6.267c2.596-7.567,5.723-14.855,9.044-22.11c2.164-4.729,0.407-9.146-3.846-12.06
	c-4.063-2.788-8.35-2.263-12.106,0.708c-3.49,2.749-6.036,6.383-6.989,10.778c-1.29,5.904-2.232,11.886-3.323,17.835
	C392.949,502.055,393.696,506.865,399.163,508.141z M172.77,165.301c-1.818,4.677-0.731,9.32,3.233,10.642
	c7.108,2.372,13.215,7.308,20.76,8.212c5.605,0.668,9.854-1.745,12.271-7.071c2.021-4.46,0.779-8.352-2.839-11.015
	c-6.521-4.779-14.065-7.346-20.384-8.769C178.309,156.954,174.873,159.899,172.77,165.301z M601.527,383.36
	c1.82-3.276,0.353-6.628-1.819-9.478c-4.259-5.586-8.289-11.37-12.924-16.628c-3.046-3.457-7.166-4.727-11.834-2.438
	c-4.903,2.409-7.415,6.269-7.146,11.648c0.313,6.097,18.216,21.699,25.904,21.528C595.998,387.769,599.656,386.718,601.527,383.36z
	 M305.852,395.461c-3.609-2.199-7.416-1.843-10.996,0.271c-9.832,5.84-13.209,15.715-15.211,26.025
	c-0.54,2.789,0.13,7.097,3.946,8.619c3.855,1.528,7.035-0.227,9.683-3.046c4.638-4.916,9.195-9.911,13.877-14.778
	c2.157-2.246,3.127-4.823,3.06-7.949C310.938,400.578,309.2,397.496,305.852,395.461z M245.744,125.772
	c4.02,11.412,12.681,18.764,21.736,25.851c5.438,4.247,11.208,4.03,14.629-0.59c3.56-4.792,2.512-10.281-3.513-14.311
	c-7.67-5.13-15.717-9.703-23.57-14.563c-1.727-1.064-3.575-1.466-4.975-1.483C245.315,120.213,244.334,121.773,245.744,125.772z
	 M456.791,62.084c-1.781-3.444-4.248-6.595-8.013-6.655c-4.339-0.075-5.986,4.432-6.61,7.674c-0.964,4.936-2.008,9.533-4.399,14.095
	c-2.055,3.91-0.264,8.031,2.955,11.216c2.94,2.914,6.131,1.98,9.48,0.878c8.276-2.729,7.732-10.221,9.075-15.743
	C459.192,68.922,458.52,65.424,456.791,62.084z M515.152,114.671c-4.217-1.672-6.311,1.186-8.052,4.236
	c-2.078,3.649-4.801,6.685-7.924,9.408c-2.657,2.308-4.394,5.162-4.968,8.664c-0.83,5.15,2.777,9.105,7.868,8.652
	c8.431-0.743,19.73-13.115,19.851-21.733C522.037,119.088,519.296,116.309,515.152,114.671z M383.798,125.687
	c2.232,2.448,5.942,1.824,8.705-0.243c2.357-1.764,3.373-4.225,1.655-7.014c-3.989-6.493-5.404-13.921-7.778-21.012
	c-1.457-4.345-3.626-8.762-8.613-8.445c-5.851,0.371-5.052,6.119-6.073,10.627C372.411,109.56,377.013,118.238,383.798,125.687z
	 M615.044,236.485c0.18-4.562-4.47-10.05-8.618-10.156c-8.83-0.246-19.475,7.108-19.725,13.618c-0.19,5.173,3.855,9.699,8.696,9.716
	C603.93,249.691,614.798,242.406,615.044,236.485z"/>
</svg>
