<?xml version="1.0" encoding="utf-8"?>
<!-- Generator: Adobe Illustrator 16.0.0, SVG Export Plug-In . SVG Version: 6.00 Build 0)  -->
<!DOCTYPE svg PUBLIC "-//W3C//DTD SVG 1.1//EN" "http://www.w3.org/Graphics/SVG/1.1/DTD/svg11.dtd">
<svg version="1.1" id="Layer_1" xmlns="http://www.w3.org/2000/svg" xmlns:xlink="http://www.w3.org/1999/xlink" x="0px" y="0px"
	 width="841.89px" height="595.28px" viewBox="0 0 841.89 595.28" enable-background="new 0 0 841.89 595.28" xml:space="preserve">
<path d="M520.447,107.578l-4.865,43.056l36.563,27.024c5.581,4.146,3.238,12.976-3.605,13.693l-42.499,8.649l-14.407,43.236
	c-0.366,1.081-0.9,1.985-1.627,2.702L301.451,489.513c-4.686,8.83-18.189,1.806-13.507-7.206l115.623-287.17
	c0.535-0.899,1.078-1.804,1.979-2.525l29.179-31.888l-13.694-43.418c-2.155-6.667,5.048-12.431,10.991-9.01l39.438,18.021
	l37.103-26.489C514.321,95.688,521.891,100.909,520.447,107.578L520.447,107.578z M475.421,240.357l-19.269-34.05l-40.704-0.364
	l-92.204,230.246L475.421,240.357z M503.518,122.171l-26.11,18.734c-2.343,1.804-5.408,2.346-8.285,1.084l-28.281-12.973
	l9.553,30.446c1.078,2.704,0.712,5.945-1.444,8.287l-21.07,23.061l32.234,0.18c2.705-0.18,5.582,1.261,7.025,3.966l15.485,27.204
	l10.087-30.445c0.722-2.885,3.06-5.226,5.938-5.77l30.623-6.125l-25.937-19.278c-2.338-1.436-3.781-4.321-3.421-7.206
	L503.518,122.171z"/>
</svg>
