<?xml version="1.0" encoding="utf-8"?>
<!-- Generator: Adobe Illustrator 16.0.0, SVG Export Plug-In . SVG Version: 6.00 Build 0)  -->
<!DOCTYPE svg PUBLIC "-//W3C//DTD SVG 1.1//EN" "http://www.w3.org/Graphics/SVG/1.1/DTD/svg11.dtd">
<svg version="1.1" id="Layer_1" xmlns="http://www.w3.org/2000/svg" xmlns:xlink="http://www.w3.org/1999/xlink" x="0px" y="0px"
	 width="841.89px" height="595.28px" viewBox="0 0 841.89 595.28" enable-background="new 0 0 841.89 595.28" xml:space="preserve">
<path d="M469.883,262.592c-19.156,5.268-26.625,0.376-22.473-2.856c1.998-1.527,6.252-2.514,12.156-3.97
	c7.044-1.744,17.367-4.812,29.753-9.458c32.524-12.202,58.274-23.679,50.829-17.221c-4.129,3.525-15.51,10.204-29.676,17.204
	C497.432,252.732,482.789,259.031,469.883,262.592z M476.066,273.293c-14.147,13.956-13.646,22.872-8.767,20.894
	c2.323-0.968,5.308-4.164,9.513-8.546c5.029-5.228,12.853-12.636,23.074-21.04c26.832-22.063,49.636-38.622,40.324-35.406
	c-5.119,1.811-16.592,8.327-29.738,17.097C498.371,254.368,485.595,263.898,476.066,273.293z M510.473,349.301
	c13.146,8.771,24.619,15.285,29.738,17.098c9.312,3.214-13.498-13.338-40.324-35.402c-10.222-8.412-18.045-15.818-23.074-21.046
	c-4.205-4.38-7.189-7.576-9.513-8.546c-4.88-1.979-5.376,6.939,8.757,20.894C485.595,331.693,498.371,341.224,510.473,349.301z
	 M469.883,333c-19.156-5.268-26.625-0.377-22.473,2.855c1.998,1.533,6.252,2.515,12.156,3.971
	c7.044,1.743,17.367,4.811,29.753,9.462c32.524,12.202,58.274,23.674,50.829,17.218c-4.129-3.525-15.51-10.206-29.676-17.205
	C497.423,342.859,482.789,336.561,469.883,333z M421.267,400.806c-1.02,15.767-0.923,28.964,0.063,34.301
	c1.862,9.673,4.808-18.36,10.495-52.624c2.166-13.053,4.674-23.531,6.689-30.501c1.684-5.838,2.969-10.015,2.642-12.517
	c-0.717-5.209-8.7-1.184-13.714,18.038C424.068,370.457,422.205,386.283,421.267,400.806z M415.084,357.503
	c-5.01-19.222-12.989-23.247-13.709-18.038c-0.328,2.502,0.951,6.679,2.646,12.517c2.011,6.97,4.514,17.448,6.68,30.501
	c5.697,34.264,8.632,62.297,10.504,52.624c0.977-5.337,1.082-18.534,0.062-34.301C420.319,386.283,418.457,370.457,415.084,357.503z
	 M332.052,349.301c-14.167,6.999-25.542,13.68-29.671,17.205c-7.439,6.456,18.3-5.021,50.825-17.223
	c12.386-4.646,22.713-7.714,29.758-9.457c5.899-1.456,10.153-2.443,12.16-3.971c4.147-3.232-3.319-8.123-22.478-2.855
	C359.741,336.561,345.102,342.855,332.052,349.301z M366.467,322.298c14.139-13.954,13.637-22.869,8.768-20.892
	c-2.33,0.968-5.308,4.164-9.519,8.544c-5.028,5.228-12.853,12.634-23.069,21.04c-26.836,22.064-49.641,38.622-40.33,35.408
	c5.116-1.813,16.593-8.327,29.734-17.098C344.159,341.224,356.93,331.693,366.467,322.298z M332.052,246.292
	c-13.141-8.77-24.618-15.286-29.729-17.097c-9.316-3.215,13.493,13.338,40.325,35.402c10.222,8.408,18.041,15.816,23.069,21.044
	c4.211,4.382,7.188,7.573,9.519,8.546c4.869,1.978,5.371-6.938-8.768-20.894C356.93,263.898,344.159,254.368,332.052,246.292z
	 M372.646,262.592c19.158,5.268,26.625,0.376,22.478-2.856c-2.006-1.533-6.26-2.514-12.16-3.97
	c-7.045-1.744-17.372-4.812-29.752-9.463c-32.53-12.2-58.27-23.673-50.826-17.215c4.124,3.525,15.499,10.204,29.667,17.204
	C345.102,252.732,359.741,259.031,372.646,262.592z M421.267,194.786c1.021-15.767,0.915-28.964-0.062-34.301
	c-1.872-9.672-4.808,18.358-10.504,52.624c-2.166,13.053-4.668,23.531-6.68,30.506c-1.695,5.833-2.965,10.01-2.646,12.512
	c0.72,5.206,8.699,1.183,13.713-18.038C418.457,225.138,420.324,209.309,421.267,194.786z M427.446,238.09
	c5.014,19.221,12.992,23.244,13.709,18.038c0.327-2.502-0.958-6.68-2.642-12.512c-2.016-6.975-4.519-17.453-6.689-30.506
	c-5.688-34.266-8.633-62.296-10.495-52.624c-0.986,5.336-1.082,18.534-0.063,34.301C422.21,209.309,424.068,225.138,427.446,238.09z
	"/>
</svg>
