<?xml version="1.0" encoding="utf-8"?>
<!-- Generator: Adobe Illustrator 16.0.0, SVG Export Plug-In . SVG Version: 6.00 Build 0)  -->
<!DOCTYPE svg PUBLIC "-//W3C//DTD SVG 1.1//EN" "http://www.w3.org/Graphics/SVG/1.1/DTD/svg11.dtd">
<svg version="1.1" id="Layer_1" xmlns="http://www.w3.org/2000/svg" xmlns:xlink="http://www.w3.org/1999/xlink" x="0px" y="0px"
	 width="841.89px" height="595.28px" viewBox="0 0 841.89 595.28" enable-background="new 0 0 841.89 595.28" xml:space="preserve">
<path fill="#010101" d="M568.491,387.219l66.882-1.927l-59.154,31.278l22.505,63.014l-48.024-46.594l-52.98,40.877l29.48-60.076
	l-55.252-37.756l66.236,9.469l18.84-64.212L568.491,387.219z M526.221,304.303L370.14,119.681l-6.806,5.758l156.078,184.62
	L526.221,304.303z M511.79,348.126L355.712,163.503l-6.811,5.754L504.98,353.881L511.79,348.126z M467.456,342.595L311.375,157.979
	l-6.809,5.753l156.08,184.619L467.456,342.595z M629.617,369.793L473.545,185.168l-6.814,5.759l156.083,184.619L629.617,369.793z
	 M491.801,436.249L214.083,115.131l-6.744,5.83l277.715,321.115L491.801,436.249z M402.378,386.441l-99.099-114.357l-6.732,5.834
	l99.096,114.365L402.378,386.441z"/>
</svg>
