<?xml version="1.0" encoding="utf-8"?>
<!-- Generator: Adobe Illustrator 16.0.0, SVG Export Plug-In . SVG Version: 6.00 Build 0)  -->
<!DOCTYPE svg PUBLIC "-//W3C//DTD SVG 1.1//EN" "http://www.w3.org/Graphics/SVG/1.1/DTD/svg11.dtd">
<svg version="1.1" id="Layer_1" xmlns="http://www.w3.org/2000/svg" xmlns:xlink="http://www.w3.org/1999/xlink" x="0px" y="0px"
	 width="841.89px" height="595.28px" viewBox="0 0 841.89 595.28" enable-background="new 0 0 841.89 595.28" xml:space="preserve">
<path fill="#010101" d="M478.256,243.415l-89.848,19.499l39.173-83.172l-46.308-79.415l91.207,11.551l61.224-68.581l17.194,90.31
	l84.148,37.038l-80.582,44.259l-9.221,91.465L478.256,243.415z M272.902,544.016c-1.619,0.949-2.248,3.007-1.387,4.705
	c0.891,1.766,3.041,2.471,4.801,1.583c0.193-0.099,4.783-2.467,12.705-7.038c1.709-0.999,2.281-3.191,1.289-4.892
	c-0.994-1.705-3.186-2.286-4.897-1.291v0.001c-7.687,4.423-12.271,6.808-12.32,6.826
	C273.027,543.949,272.967,543.983,272.902,544.016z M470.379,320.102c-0.785,0.458-1.401,1.209-1.657,2.154
	c-2.473,9.125-5.538,18.307-9.094,27.298c-0.726,1.839,0.167,3.913,2.005,4.646c1.844,0.723,3.925-0.177,4.645-2.012
	c3.663-9.237,6.805-18.674,9.354-28.053c0.515-1.913-0.61-3.879-2.517-4.398C472.149,319.479,471.176,319.639,470.379,320.102z
	 M448.997,374.313c-0.562,0.327-1.039,0.811-1.365,1.437c-4.35,8.345-9.245,16.726-14.542,24.913
	c-1.078,1.661-0.599,3.875,1.057,4.948c1.661,1.073,3.869,0.602,4.947-1.056c5.423-8.376,10.428-16.957,14.885-25.495
	c0.908-1.757,0.232-3.917-1.52-4.833C451.326,373.639,450.028,373.713,448.997,374.313z M417.389,423.32
	c-0.387,0.225-0.736,0.522-1.021,0.899c-5.775,7.452-12.02,14.915-18.578,22.178c-1.329,1.46-1.214,3.724,0.253,5.052
	c1.473,1.32,3.731,1.206,5.06-0.26c6.668-7.396,13.036-14.996,18.916-22.59c1.211-1.564,0.924-3.813-0.633-5.017
	C420.197,422.661,418.61,422.606,417.389,423.32z M378.328,466.678c-0.24,0.144-0.473,0.317-0.684,0.522
	c-6.828,6.592-14.052,13.147-21.467,19.474c-1.506,1.277-1.688,3.536-0.398,5.045c1.279,1.502,3.537,1.68,5.038,0.4
	c7.53-6.427,14.868-13.079,21.803-19.768c1.421-1.373,1.46-3.639,0.084-5.063C381.537,466.078,379.725,465.865,378.328,466.678z
	 M333.924,504.589c-0.125,0.075-0.243,0.157-0.357,0.243c-7.699,5.827-15.649,11.491-23.623,16.848
	c-1.645,1.096-2.078,3.319-0.981,4.96c1.107,1.644,3.326,2.079,4.966,0.978c8.091-5.426,16.146-11.168,23.951-17.078
	c1.577-1.19,1.885-3.436,0.697-5.009C337.47,504.069,335.467,503.693,333.924,504.589z M478.047,277.371
	c-0.961,0.565-1.655,1.574-1.754,2.77c-0.421,4.667-0.981,9.372-1.671,14.006c-0.293,1.956,1.055,3.772,3.013,4.066
	c1.953,0.292,3.772-1.062,4.063-3.01c0.71-4.774,1.287-9.628,1.713-14.417c0.183-1.974-1.271-3.708-3.24-3.889
	C479.399,276.831,478.674,277.011,478.047,277.371z M252.643,509.244c-1.449,0.853-2.151,2.625-1.574,4.269
	c0.649,1.866,2.691,2.854,4.558,2.202c0.201-0.07,5.144-1.797,13.517-5.481c1.809-0.799,2.629-2.911,1.83-4.72
	c-0.794-1.809-2.903-2.628-4.713-1.834c-8.075,3.556-12.944,5.267-12.996,5.275C253.042,509.035,252.836,509.139,252.643,509.244z
	 M452.096,301.082c-0.783,0.455-1.384,1.201-1.645,2.143c-2.473,9.008-5.438,17.966-8.816,26.633
	c-0.71,1.838,0.193,3.909,2.041,4.631c1.838,0.717,3.911-0.195,4.629-2.036c3.46-8.893,6.507-18.087,9.047-27.335
	c0.515-1.903-0.601-3.873-2.496-4.396C453.882,300.454,452.9,300.611,452.096,301.082z M431.486,353.971
	c-0.566,0.336-1.05,0.827-1.376,1.456c-4.239,8.235-8.979,16.405-14.093,24.271c-1.078,1.654-0.608,3.869,1.052,4.949
	c1.65,1.077,3.875,0.608,4.948-1.055c5.244-8.063,10.101-16.439,14.455-24.893c0.903-1.754,0.212-3.914-1.545-4.819
	C433.797,353.303,432.507,353.377,431.486,353.971z M400.58,401.609c-0.371,0.217-0.708,0.505-0.992,0.867
	c-5.752,7.212-11.976,14.334-18.503,21.157c-1.365,1.429-1.318,3.69,0.115,5.065c1.42,1.361,3.691,1.311,5.055-0.119
	c6.678-6.975,13.04-14.263,18.931-21.651c1.229-1.543,0.977-3.792-0.569-5.024C403.423,400.962,401.82,400.891,400.58,401.609z
	 M361.355,442.705c-0.201,0.119-0.395,0.254-0.572,0.41c-6.934,6.119-14.28,12.103-21.842,17.775
	c-1.579,1.186-1.9,3.431-0.712,5.012c1.185,1.584,3.428,1.908,5.01,0.714c7.71-5.79,15.21-11.89,22.275-18.136
	c1.482-1.307,1.626-3.567,0.313-5.045C364.682,442.131,362.794,441.863,361.355,442.705z M315.917,476.877
	c-0.044,0.025-0.091,0.049-0.13,0.077c-7.875,5.045-16.044,9.859-24.272,14.314c-1.736,0.898-2.387,3.11-1.444,4.846
	c0.938,1.74,3.109,2.386,4.841,1.441c8.388-4.527,16.709-9.438,24.734-14.572c1.666-1.062,2.151-3.278,1.089-4.944
	C319.697,476.422,317.567,475.916,315.917,476.877z M460.244,259.129c-0.939,0.545-1.616,1.508-1.752,2.672
	c-0.553,4.688-1.227,9.394-2.002,13.997c-0.326,1.949,0.986,3.795,2.935,4.116c1.95,0.333,3.798-0.982,4.119-2.932
	c0.794-4.714,1.483-9.539,2.05-14.342c0.232-1.966-1.167-3.741-3.131-3.975C461.664,258.573,460.895,258.753,460.244,259.129z
	 M434.272,274.266c-0.687,0.399-1.251,1.039-1.549,1.844c-0.598,1.615-1.208,3.218-1.833,4.811c-0.712,1.84,0.191,3.915,2.029,4.638
	c1.843,0.718,3.924-0.197,4.634-2.035c0.646-1.631,1.267-3.273,1.883-4.935c0.684-1.846-0.259-3.91-2.123-4.591
	C436.274,273.61,435.162,273.743,434.272,274.266z M420.693,305.223c-0.571,0.33-1.058,0.828-1.381,1.461
	c-4.248,8.311-8.989,16.554-14.08,24.498c-1.063,1.663-0.582,3.875,1.083,4.942c1.666,1.065,3.875,0.579,4.938-1.081
	c5.222-8.139,10.08-16.584,14.43-25.109c0.896-1.753,0.204-3.909-1.563-4.809C422.999,304.545,421.709,304.626,420.693,305.223z
	 M389.878,353.352c-0.381,0.221-0.728,0.52-1.016,0.885c-5.728,7.319-11.929,14.55-18.411,21.482
	c-1.357,1.444-1.276,3.707,0.159,5.059c1.446,1.354,3.716,1.279,5.058-0.168c6.634-7.086,12.973-14.473,18.829-21.961
	c1.216-1.556,0.942-3.808-0.611-5.023C392.703,352.695,391.105,352.635,389.878,353.352z M350.842,395.129
	c-0.206,0.12-0.41,0.274-0.596,0.443c-6.902,6.24-14.221,12.364-21.742,18.186c-1.563,1.207-1.852,3.452-0.64,5.016
	c1.204,1.559,3.451,1.859,5.016,0.641c7.67-5.93,15.127-12.168,22.168-18.541c1.462-1.326,1.574-3.588,0.245-5.056
	C354.139,394.547,352.28,394.295,350.842,395.129z M229.419,469.396c-1.434,0.841-2.136,2.591-1.587,4.231
	c0.629,1.875,2.65,2.877,4.527,2.252c0.428-0.146,10.655-3.599,26.79-11.237c1.791-0.848,2.545-2.98,1.699-4.771
	c-0.838-1.78-2.974-2.546-4.765-1.698c-15.706,7.441-25.894,10.887-26,10.921C229.848,469.178,229.625,469.278,229.419,469.396z
	 M305.623,430.158c-0.058,0.033-0.115,0.074-0.178,0.111c-6.401,4.243-13.03,8.36-19.701,12.25c-1.517,0.882-3.013,1.743-4.49,2.58
	c-1.691,0.938-2.323,3.156-1.353,4.873c0.979,1.718,3.159,2.326,4.88,1.354c1.498-0.852,3.018-1.727,4.563-2.622
	c6.793-3.961,13.534-8.151,20.051-12.471c1.645-1.093,2.099-3.317,1.005-4.96C309.349,429.684,307.25,429.211,305.623,430.158z
	 M401.778,279.132c-0.694,0.407-1.261,1.058-1.562,1.877c-3.067,8.472-6.788,16.816-11.051,24.784
	c-0.93,1.74-0.274,3.906,1.472,4.842c1.736,0.931,3.903,0.274,4.836-1.469c4.422-8.273,8.281-16.925,11.466-25.725
	c0.674-1.856-0.279-3.91-2.135-4.583C403.76,278.483,402.663,278.618,401.778,279.132z M375.245,328.56
	c-0.415,0.239-0.781,0.565-1.078,0.972c-5.444,7.398-11.556,14.626-18.153,21.491c-1.365,1.425-1.321,3.685,0.097,5.055
	c1.426,1.374,3.687,1.323,5.063-0.095c6.813-7.088,13.127-14.559,18.753-22.209c1.181-1.588,0.833-3.833-0.76-5.006
	C377.98,327.897,376.443,327.863,375.245,328.56z M209.141,434.027c-0.582,0.337-1.03,0.744-1.367,1.238
	c-1.125,1.627-0.717,3.853,0.91,4.977c1.309,0.899,3.007,0.802,4.195-0.097c0.838-0.368,3.619-1.265,6.556-2.212
	c4.825-1.558,11.428-3.695,19.544-6.64c1.859-0.666,2.82-2.724,2.144-4.581c-0.674-1.859-2.726-2.822-4.582-2.143
	c-8.002,2.901-14.526,5.011-19.301,6.549C212.058,432.798,210.209,433.407,209.141,434.027z M213.655,439.338L213.655,439.338
	L213.655,439.338z M335.768,369.803c-0.165,0.092-0.324,0.208-0.473,0.334c-7.078,5.818-14.726,11.463-22.732,16.773
	c-1.643,1.09-2.094,3.311-0.997,4.963c1.099,1.645,3.311,2.101,4.958,0.996c8.208-5.444,16.048-11.235,23.313-17.207
	c1.53-1.254,1.752-3.511,0.491-5.034C339.197,369.25,337.253,368.933,335.768,369.803z M262.517,414.154
	c-1.56,0.906-2.217,2.859-1.462,4.544c0.799,1.803,2.916,2.616,4.715,1.817c8.941-3.979,17.664-8.262,25.943-12.753
	c1.721-0.94,2.386-3.114,1.441-4.854c-0.948-1.735-3.118-2.38-4.854-1.438c-8.115,4.403-16.67,8.608-25.432,12.504
	C262.748,414.029,262.629,414.092,262.517,414.154z"/>
</svg>
