<?xml version="1.0" encoding="utf-8"?>
<!-- Generator: Adobe Illustrator 16.0.0, SVG Export Plug-In . SVG Version: 6.00 Build 0)  -->
<!DOCTYPE svg PUBLIC "-//W3C//DTD SVG 1.1//EN" "http://www.w3.org/Graphics/SVG/1.1/DTD/svg11.dtd">
<svg version="1.1" id="Layer_1" xmlns="http://www.w3.org/2000/svg" xmlns:xlink="http://www.w3.org/1999/xlink" x="0px" y="0px"
	 width="841.89px" height="595.28px" viewBox="0 0 841.89 595.28" enable-background="new 0 0 841.89 595.28" xml:space="preserve">
<path d="M418.755,238.472c0.135,2.905,4.625,2.967,4.686-0.067l20.784-209.425c0.266-1.319-0.662-2.576-2.043-2.773l-13.86-1.582
	l-5.212-12.146c-0.66-1.98-3.494-2.178-4.355-0.199l-5.804,12.672l-13.198,1.254c-1.452,0-2.505,1.32-2.308,2.773L418.755,238.472z
	 M421.069,177.616l-4.888-126.331l4.888-2.769l4.814,2.836L421.069,177.616z M426.347,161.907l4.091-107.914l2.111,1.254
	c1.713,1.188,4.021-0.331,3.626-2.376L433.4,39.209l5.617-4.952L426.347,161.907z M414.734,29.438
	c0.923-0.065,1.712-0.661,1.979-1.518l4.09-8.978l3.826,8.782c0.334,0.856,1.122,1.387,1.98,1.452l9.831,1.12l-7.131,6.336
	c-0.722,0.596-0.987,1.519-0.722,2.377l1.979,9.636l-8.248-4.884c-0.794-0.462-1.782-0.397-2.507,0.131l-8.574,4.821l2.109-9.309
	c0.2-0.988-0.197-1.849-0.923-2.44l-7.194-6.602L414.734,29.438z M408.465,39.67l-2.838,12.938
	c-0.657,2.045,1.521,3.828,3.365,2.771l2.639-1.519l4.221,109.896L402.722,34.391L408.465,39.67z M330.085,103.164
	c-0.135-0.327-0.334-0.659-0.596-0.988l-11.022-12.475l5.015-15.049c0.991-2.311-1.318-4.752-3.692-3.698l-15.31,6.668
	l-12.729-9.438c-1.853-1.718-4.888-0.2-4.622,2.309l1.583,16.631l-12.93,9.242c-2.178,1.253-1.647,4.552,0.856,5.147l16.233,3.565
	l4.813,15.181c0.066,0.396,0.199,0.724,0.464,1.054l69.871,89.303c1.98,3.105,6.729,0.133,4.75-2.973L330.085,103.164z
	 M297.75,101.845c-0.323-1.054-1.317-1.782-2.371-1.915l-11.416-2.508l9.304-6.665c0.921-0.659,1.317-1.784,1.118-2.774
	l-1.118-11.747l9.237,6.797c0.853,0.66,1.975,0.727,2.9,0.266l10.887-4.689L312.6,89.437c-0.33,1.055,0,2.176,0.721,2.905
	l7.852,8.845l-11.478-0.133c-1.125,0-2.112,0.659-2.503,1.583l-6.008,10.166L297.75,101.845z M303.688,119.533l7.59-12.869
	l14.382,0.131l34.243,84.154L303.688,119.533z M181.235,167.913l-5.481,12.077c-0.722,1.257-0.126,2.839,1.26,3.302l192,86.332
	c2.565,1.319,4.878-2.509,2.305-4.094L200.372,142.833c-1.061-0.923-2.577-0.724-3.438,0.394l-8.244,11.156l-13.134-1.452
	c-2.106-0.461-3.627,1.848-2.437,3.632L181.235,167.913z M184.336,181.509l7.389-2.375l9.829,8.975
	c1.384,1.52,4.027,0.596,4.027-1.583l0.068-2.968l97.249,51.217L184.336,181.509z M205.648,178.275l0.062-5.676l4.817-2.706
	l106.951,67.257L205.648,178.275z M306.528,224.743l-91.38-57.488l2.178-1.188c1.849-0.922,1.713-3.63-0.33-4.289l-13.197-4.424
	l-1.456-7.39L306.528,224.743z M189.479,159.199c0.929,0.135,1.781-0.327,2.246-1.053l5.873-7.922l1.912,9.372
	c0.197,0.924,0.862,1.585,1.714,1.782l9.304,3.103l-8.312,4.753c-0.792,0.461-1.253,1.319-1.191,2.178l-0.063,9.834l-7.059-6.47
	c-0.662-0.659-1.652-0.792-2.513-0.397l-9.299,2.907l3.96-8.647c0.397-0.857,0.197-1.848-0.334-2.508l-5.738-8.05L189.479,159.199z
	 M174.437,322.425c0.068,2.51,3.168,3.764,4.885,1.849l11.281-12.275l15.504,3.432c0.33,0.134,0.724,0.134,1.12,0.134
	l112.294-15.908c3.7-0.133,3.434-5.743-0.192-5.61l-111.768-15.247c-0.399-0.065-0.795-0.065-1.191,0l-16.358,3.367l-10.495-11.946
	c-1.517-1.981-4.751-1.19-5.012,1.383l-1.912,16.565l-14.519,6.34c-2.374,0.789-2.639,4.157-0.266,5.21l15.181,6.935
	L174.437,322.425z M208.48,284.475l89.93,12.408l-89.93,13.002l-7.325-13.002L208.48,284.475z M176.349,292.659
	c0.99-0.398,1.583-1.385,1.652-2.443l1.321-11.749l7.582,8.584c0.73,0.857,1.917,1.118,2.909,0.857l11.546-2.377l-5.873,9.9
	c-0.531,0.926-0.465,2.113,0.131,2.972l5.806,10.296l-11.219-2.51c-1.051-0.264-2.174,0.199-2.836,1.058l-7.92,8.646l-1.052-11.417
	c-0.13-1.126-0.861-2.048-1.848-2.377l-10.754-4.885L176.349,292.659z M368.68,324.273l-191.74,86.729
	c-1.249,0.461-1.839,1.914-1.313,3.168l5.539,12.737l-7.852,10.693c-1.385,1.52-0.194,4.091,1.979,3.896l13.859-1.388l7.724,10.822
	c0.721,1.256,2.368,1.52,3.496,0.596l170.685-123.229C373.561,326.719,371.382,322.887,368.68,324.273z M301.69,360.049
	l-94.699,50.358v-2.441c0-2.045-3.014-3.299-4.597-1.916l-11.134,9.243l-7.121-2.377L301.69,360.049z M199.838,434.565l-2.11,9.571
	l-5.542-7.856c-0.595-0.726-1.516-1.055-2.373-0.924l-9.769,0.924l5.673-7.655c0.595-0.729,0.595-1.718,0.199-2.442l-3.894-9.108
	l9.043,3.104c0.921,0.264,1.846,0,2.442-0.661l7.387-6.468l-0.13,9.568c0,0.926,0.528,1.716,1.321,2.113l8.507,5.019l-9.168,2.838
	C200.568,432.849,199.907,433.641,199.838,434.565z M202.476,444.267l1.652-7.656l12.668-3.958c2.043-0.463,2.508-3.236,0.66-4.292
	l-2.574-1.518l92.963-58.676L202.476,444.267z M210.335,424.138l-4.886-2.84l0.064-5.546l111.699-59.006L210.335,424.138z
	 M367.362,383.611l-69.016,89.169c-0.266,0.332-0.462,0.66-0.595,0.991l-5.275,15.839l-15.575,3.169
	c-2.509,0.265-3.427,3.499-1.384,5.018l13.461,9.967l-1.849,15.705c-0.526,2.512,2.309,4.358,4.421,2.906l13.525-9.701l14.445,6.6
	c2.181,1.187,4.822-0.859,4.095-3.303l-5.078-15.904l10.754-11.685c0.261-0.262,0.527-0.593,0.657-0.989l42.36-105.207
	C374.023,382.948,369.071,380.31,367.362,383.611z M313.321,501.493c-0.721,0.791-0.921,1.979-0.456,2.969l3.496,11.221
	l-10.428-4.817c-0.992-0.462-2.179-0.265-2.967,0.46l-9.566,6.799l1.317-11.352c0.135-1.124-0.396-2.111-1.253-2.706l-9.562-6.996
	l11.209-2.31c1.126-0.201,1.919-1.06,2.181-2.045l3.763-11.158l5.605,9.968c0.534,0.992,1.585,1.452,2.639,1.385l11.809,0.134
	L313.321,501.493z M325.66,487.5l-14.911-0.133l-7.062-12.54l55.688-71.745L325.66,487.5z M422.915,355.891
	c-0.13-2.971-4.555-2.971-4.687,0.065L397.446,565.38c-0.197,1.322,0.726,2.576,2.047,2.709l13.854,1.585l5.277,12.144
	c0.664,2.048,3.496,2.177,4.356,0.265l5.738-12.674l13.264-1.254c1.447-0.065,2.508-1.387,2.242-2.774L422.915,355.891z
	 M420.607,416.743l4.947,126.328l-4.947,2.773l-4.756-2.839L420.607,416.743z M415.329,432.454l-4.091,107.848l-2.112-1.256
	c-1.718-1.12-4.027,0.332-3.562,2.443l2.769,13.661l-5.612,4.951L415.329,432.454z M426.938,564.854
	c-0.923,0.135-1.649,0.727-1.975,1.588l-4.029,8.908l-3.823-8.778c-0.398-0.858-1.191-1.387-2.047-1.387l-9.833-1.124l7.194-6.334
	c0.726-0.594,0.923-1.585,0.726-2.376l-1.98-9.639l8.245,4.822c0.792,0.458,1.787,0.394,2.509-0.066l8.514-4.821l-2.048,9.309
	c-0.197,0.922,0.133,1.848,0.858,2.375l7.261,6.598L426.938,564.854z M433.211,554.622l2.899-12.935
	c0.66-1.979-1.518-3.762-3.362-2.704l-2.644,1.449l-4.289-109.896l13.202,129.365L433.211,554.622z M565.096,492.845l-16.292-3.631
	l-4.753-15.113c-0.068-0.395-0.266-0.727-0.46-1.056l-69.936-89.305c-1.98-3.163-6.667-0.129-4.755,2.973l42.756,104.418
	c0.064,0.395,0.265,0.726,0.53,1.056l11.081,12.475l-5.013,15.048c-1.058,2.31,1.318,4.687,3.629,3.696l15.308-6.666l12.732,9.438
	c1.912,1.649,4.952,0.197,4.687-2.376l-1.585-16.568l12.932-9.238C568.069,496.674,567.604,493.374,565.096,492.845z
	 M481.832,403.344l56.216,71.483l-7.591,12.804l-14.38-0.131L481.832,403.344z M548.407,503.603
	c-0.928,0.663-1.321,1.718-1.122,2.774l1.122,11.747l-9.173-6.865c-0.856-0.658-2.043-0.724-2.969-0.263l-10.82,4.753l3.626-10.89
	c0.398-1.059,0.069-2.179-0.726-2.904l-7.783-8.779l11.482,0.064c1.055,0.066,2.042-0.593,2.503-1.516l6.008-10.167l3.427,10.89
	c0.334,1.125,1.26,1.85,2.311,1.982l11.482,2.507L548.407,503.603z M660.505,426.444l5.474-12.074
	c0.729-1.258,0.134-2.839-1.252-3.368l-192-86.266c-2.635-1.387-4.881,2.443-2.31,4.093l170.951,122.698
	c0.987,0.856,2.574,0.66,3.365-0.397l8.316-11.218l13.129,1.516c2.043,0.466,3.625-1.913,2.373-3.63L660.505,426.444z
	 M657.672,412.851l-7.545,2.31l-9.581-8.912c-1.39-1.581-3.729-0.591-3.729,1.521v3.036l-97.617-51.284L657.672,412.851z
	 M636.816,416.02v5.676l-5.276,2.771l-106.69-67.322L636.816,416.02z M535.209,369.552l91.314,57.488l-2.109,1.254
	c-1.846,0.858-1.713,3.63,0.267,4.293l13.192,4.42l1.519,7.393L535.209,369.552z M652.188,435.092
	c-0.853-0.065-1.714,0.332-2.174,1.059l-5.873,7.986l-1.912-9.373c-0.199-0.925-0.926-1.585-1.782-1.85l-9.304-3.1l8.313-4.687
	c0.856-0.466,1.252-1.322,1.187-2.179l0.13-9.9l7,6.468c0.721,0.661,1.713,0.792,2.503,0.46l9.373-2.968l-3.96,8.712
	c-0.396,0.858-0.262,1.849,0.334,2.507l5.674,7.988L652.188,435.092z M683.928,294.639l-15.175-6.93l-1.523-15.84
	c0-2.51-3.165-3.698-4.881-1.849l-11.211,12.342l-15.508-3.498c-0.396-0.065-0.789-0.13-1.187-0.065l-112.228,15.907
	c-3.701,0.13-3.505,5.741,0.2,5.608l111.762,15.181c0.395,0.068,0.791,0.134,1.187,0l16.299-3.299l10.556,11.882
	c1.447,2.045,4.755,1.187,5.011-1.322l1.854-16.633l14.578-6.269C686.037,299.061,686.303,295.693,683.928,294.639z M633.253,309.82
	l-89.993-12.345l89.927-13l7.396,13L633.253,309.82z M665.389,301.637c-0.992,0.461-1.649,1.451-1.649,2.441l-1.391,11.748
	l-7.517-8.58c-0.791-0.791-1.918-1.123-2.904-0.791l-11.543,2.309l5.805-9.836c0.596-0.99,0.521-2.11-0.068-3.035l-5.809-10.229
	l11.154,2.505c1.117,0.27,2.237-0.196,2.834-1.053l7.986-8.649l1.056,11.355c0.133,1.12,0.856,2.048,1.849,2.374l10.685,4.884
	L665.389,301.637z M473.061,270.02l191.666-86.727c1.252-0.463,1.912-1.849,1.386-3.103l-5.607-12.802l7.916-10.628
	c1.383-1.585,0.131-4.093-1.981-3.893l-13.855,1.317l-7.716-10.757c-0.727-1.253-2.378-1.518-3.5-0.594L470.683,265.994
	C468.175,267.579,470.353,271.472,473.061,270.02z M541.012,234.311l95.805-50.426v2.51c0,2.047,1.913,3.298,3.496,1.914
	l10.094-9.241l7.13,2.375L541.012,234.311z M641.9,159.794l2.11-9.57l5.543,7.789c0.523,0.792,1.448,1.123,2.31,0.924l9.833-0.924
	l-5.742,7.724c-0.527,0.724-0.596,1.65-0.2,2.442l3.961,9.04l-9.043-3.035c-0.921-0.263-1.849,0-2.438,0.593l-7.393,6.535
	l0.067-9.571c0.068-0.924-0.523-1.715-1.253-2.11l-8.512-5.017l9.107-2.837C641.169,161.444,641.765,160.652,641.9,159.794z
	 M639.256,150.093l-1.644,7.59l-12.672,4.028c-2.042,0.394-2.508,3.165-0.726,4.289l2.644,1.518l-93.032,58.677L639.256,150.093z
	 M631.7,170.156l5.116,2.907v5.543l-111.852,59.008L631.7,170.156z M474.309,210.75l69.083-89.237
	c0.266-0.262,0.46-0.593,0.591-0.989l5.282-15.84l15.574-3.169c2.504-0.263,3.364-3.498,1.317-5.015l-13.397-9.902l1.782-15.774
	c0.532-2.443-2.242-4.357-4.352-2.839l-13.594,9.706l-14.451-6.604c-2.173-1.253-4.812,0.857-4.023,3.299l5.016,15.907
	l-10.689,11.684c-0.33,0.263-0.526,0.595-0.727,0.924l-42.354,105.208C467.643,211.409,472.595,213.983,474.309,210.75z
	 M528.346,92.869c0.795-0.859,0.925-2.047,0.529-3.036l-3.496-11.158l10.36,4.756c1.056,0.46,2.178,0.262,3.034-0.398l9.567-6.862
	l-1.319,11.419c-0.135,1.056,0.395,2.111,1.251,2.639l9.503,7.061l-11.217,2.245c-1.061,0.2-1.912,1.056-2.178,2.113l-3.694,11.154
	l-5.673-9.965c-0.53-0.992-1.584-1.52-2.577-1.452l-11.808-0.068L528.346,92.869z M516.077,106.862l14.911,0.13l7.06,12.475
	l-55.753,71.745L516.077,106.862z M421.179,276.453c-0.307-0.639-0.941-1.031-1.667-1.017c-0.706,0.021-1.338,0.446-1.617,1.095
	l-8.717,20.378l-20.399,0.926c-0.696,0.032-1.313,0.465-1.583,1.112c-0.261,0.649-0.135,1.387,0.337,1.908l15.369,16.836
	l-5.836,22.576c-0.177,0.697,0.075,1.44,0.65,1.884c0.321,0.245,0.71,0.369,1.098,0.369c0.304,0,0.613-0.074,0.891-0.236
	l21.193-12.082l22.181,10.81c0.247,0.123,0.522,0.183,0.788,0.183h0.014c0.996,0,1.802-0.809,1.802-1.803
	c0-0.277-0.063-0.546-0.178-0.78l-7.268-21.759l15.943-16.633c0.495-0.511,0.637-1.267,0.371-1.921
	c-0.271-0.663-0.897-1.106-1.607-1.125l-22.066-0.779L421.179,276.453z M434.873,315.146c-0.457,0.483-0.615,1.182-0.402,1.82
	l6.326,18.922l-19.174-9.347c-0.536-0.26-1.17-0.24-1.685,0.056l-18.313,10.442l5.017-19.385c0.151-0.589,0-1.215-0.42-1.668
	l-13.429-14.724l17.68-0.804c0.69-0.035,1.306-0.456,1.577-1.093l7.606-17.786l8.452,17.366c0.291,0.603,0.892,0.99,1.558,1.01
	l19.124,0.675L434.873,315.146z M483.951,287.496c-0.014-0.002-0.021-0.004-0.034-0.004l-3.061-0.108l-0.029-0.007l-41.38-1.462
	l-17.107-35.167l0,0l-2.242-5.338c-0.616-0.611-1.244-0.739-1.778-0.673c-0.027-0.008-0.058-0.018-0.083-0.015
	c-0.03,0-0.055,0.015-0.084,0.02c-0.101,0.003-0.199,0.023-0.291,0.043c-0.064,0.018-0.128,0.03-0.19,0.055
	c-0.098,0.032-0.183,0.08-0.271,0.133c-0.055,0.03-0.105,0.051-0.16,0.087c-0.085,0.057-0.158,0.133-0.233,0.213
	c-0.046,0.04-0.087,0.078-0.127,0.12l-0.021,0.018c-0.094,0.125-0.181,0.258-0.236,0.405v0.002l-2.256,5.262l-1.954,4.569
	l-0.541,1.262l-1.457,3.414l-11.381,26.594l-28.855,1.318l-2.073,0.09l-10.3,0.471c-0.701,0.03-1.317,0.461-1.587,1.106
	c-0.266,0.646-0.135,1.395,0.332,1.908l0.449,0.489l0.406,0.445l6.17,6.761l1.319,1.45l1.143,1.249l1.262,1.387l3.023,3.313
	l2.048,2.245l0.49,0.528l2.098,2.306l0.621,0.669l1.658,1.828l10.195,11.172l-0.356,1.374l-0.922,3.599l-1.697,6.546l-0.871,3.356
	l-4.356,16.845l-0.797,3.097l-0.594,2.281l-0.591,2.269l-1.534,5.962c-0.184,0.698,0.076,1.443,0.653,1.882
	c0.316,0.248,0.706,0.375,1.09,0.375c0.311,0,0.621-0.08,0.893-0.234l42.5-24.24l1.5,0.729l2.646,1.289l12.743,6.214l2.723,1.328
	l13.163,6.412l2.339,1.142l1.067,0.523l2.571,1.25l3.296,1.612l1.542,0.745l0.887,0.434c0,0,0,0,0.004,0
	c0.106,0.055,0.221,0.096,0.342,0.128c0.03,0.004,0.06,0.01,0.085,0.015c0.122,0.022,0.24,0.042,0.36,0.042h0.015l0,0h0.055
	c0.085-0.005,0.161-0.02,0.245-0.029c0.081-0.018,0.166-0.041,0.241-0.068c0.025-0.001,0.051-0.01,0.075-0.024
	c0.081-0.025,0.149-0.058,0.225-0.098c0.012-0.004,0.017-0.011,0.03-0.015c0.041-0.021,0.07-0.07,0.112-0.099h0.029
	c0,0,0.105-0.098,0.241-0.234c0.072-0.078,0.14-0.148,0.198-0.236c0.282-0.372,0.587-0.942,0.516-1.712l-2.322-5.999l-11.968-35.79
	c-0.824-2.469,0.611-3.7,0.611-3.7l3.864-4.059l25.379-26.474c1.921-1.673,1.93-2.839,1.93-2.839
	C485.505,287.567,483.951,287.496,483.951,287.496z M449.693,322.32L449.693,322.32c-0.102,0.104-0.182,0.23-0.255,0.36
	c-0.021,0.03-0.041,0.069-0.055,0.105c-0.056,0.101-0.092,0.207-0.121,0.32c-0.01,0.037-0.025,0.062-0.03,0.095
	c-0.024,0.133-0.041,0.265-0.041,0.408c0,0.01,0.003,0.017,0.003,0.024c0,0.033,0.009,0.061,0.014,0.091
	c0.009,0.125,0.029,0.25,0.065,0.365c0.01,0.022,0.005,0.035,0.01,0.053l13.764,41.178l-41.462-20.213
	c-0.541-0.261-1.168-0.239-1.688,0.052l-39.616,22.593l10.891-42.144c0.16-0.585-0.004-1.214-0.411-1.666l-28.947-31.717
	l38.514-1.756c0.692-0.03,1.306-0.458,1.583-1.09l16.478-38.518l18.286,37.608c0.293,0.598,0.892,0.99,1.561,1.016l41.528,1.465
	L449.693,322.32z"/>
</svg>
