<?xml version="1.0" encoding="utf-8"?>
<!-- Generator: Adobe Illustrator 16.0.0, SVG Export Plug-In . SVG Version: 6.00 Build 0)  -->
<!DOCTYPE svg PUBLIC "-//W3C//DTD SVG 1.1//EN" "http://www.w3.org/Graphics/SVG/1.1/DTD/svg11.dtd">
<svg version="1.1" id="Layer_1" xmlns="http://www.w3.org/2000/svg" xmlns:xlink="http://www.w3.org/1999/xlink" x="0px" y="0px"
	 width="841.89px" height="595.28px" viewBox="0 0 841.89 595.28" enable-background="new 0 0 841.89 595.28" xml:space="preserve">
<path fill="#010101" d="M492.108,231.865l-103.416,16.896l49.49-92.363l-48.023-93.125L493.296,81.8l73.729-74.448l14.25,103.811
	l93.589,47.115l-94.32,45.628l-15.894,103.569L492.108,231.865z M505.716,369.745l3.464-13.378l12.979-4.732l-11.644-7.428
	l-0.491-13.809l-10.665,8.79l-13.286-3.811l5.063,12.859l-7.729,11.457l13.798-0.839L505.716,369.745z M438.13,437.455
	l-9.851-39.967l27.333-30.768l-41.053-2.98l-20.815-35.507l-15.523,38.118l-40.201,8.832l31.463,26.538l-4.028,40.965l34.961-21.72
	L438.13,437.455z M527.124,482.555l-8.566-26.879l17.297-22.301l-28.22-0.162l-15.86-23.331l-8.872,26.78l-27.097,7.877
	l22.737,16.71l-0.886,28.206l22.92-16.457L527.124,482.555z M335.263,356.127l10.044-29.488l29.979-8.431l-24.934-18.663
	l1.243-31.117l-25.455,17.947l-29.215-10.801l9.2,29.755l-19.291,24.447l31.139,0.448L335.263,356.127z M403.373,534.781
	l7.127-22.748l22.771-7.037l-19.432-13.803l0.342-23.828l-19.13,14.219l-22.557-7.696l7.613,22.593l-14.295,19.074l23.834-0.262
	L403.373,534.781z M336.072,496.172l-9.861-30.049l19.171-25.166l-31.632,0.091l-18.004-26.013l-9.687,30.117l-30.306,9.086
	l25.643,18.523l-0.713,31.621l25.534-18.663L336.072,496.172z M273.23,416.816l2.172-8.815l8.482-3.214l-7.712-4.786l-0.438-9.063
	l-6.935,5.859l-8.754-2.388l3.428,8.401l-4.971,7.594l9.049-0.669L273.23,416.816z M299.216,571.144l3.094-11.8l11.474-4.145
	l-10.271-6.588l-0.389-12.191l-9.433,7.729l-11.726-3.393l4.446,11.368l-6.858,10.088l12.185-0.702L299.216,571.144z
	 M253.378,534.686l-3.619-12.303l8.089-9.959l-12.824-0.355l-6.979-10.769l-4.301,12.085l-12.391,3.306l10.161,7.824l-0.687,12.81
	l10.582-7.247L253.378,534.686z M235.933,466.506l-3.676-3.66l0.937-5.105l-4.623,2.363l-4.556-2.464l0.816,5.122l-3.749,3.578
	l5.12,0.803l2.242,4.674l2.345-4.623L235.933,466.506z M216.539,504.757l-1.2-5.055l3.482-3.86l-5.188-0.423l-2.593-4.502
	l-1.997,4.798l-5.086,1.076l3.95,3.388l-0.548,5.171l4.43-2.716L216.539,504.757z M231.599,586.979l1.136-12.801l11.188-6.302
	l-11.814-5.045l-2.54-12.588l-8.446,9.679l-12.761-1.472l6.592,11.019l-5.337,11.685l12.521-2.869L231.599,586.979z
	 M186.837,551.797l-3.058-7.257l4.25-6.633l-7.853,0.664l-4.995-6.08l-1.785,7.667l-7.339,2.863l6.741,4.076l0.462,7.86l5.958-5.146
	L186.837,551.797z M211.161,541.4L209,537.199l2.242-4.152l-4.663,0.751l-3.266-3.419l-0.718,4.675l-4.251,2.05l4.217,2.125
	l0.629,4.68l3.326-3.353L211.161,541.4z M482.91,328.498l-7.717-15.607l8.479-15.215l-17.234,2.521l-11.845-12.769l-2.927,17.168
	l-15.803,7.325l15.422,8.097l2.081,17.289l12.461-12.17L482.91,328.498z M573.254,400.784l-8.793-18.175l9.986-17.542l-19.999,2.743
	l-13.6-14.914l-3.576,19.863l-18.391,8.332l17.79,9.527l2.237,20.066l14.565-13.977L573.254,400.784z"/>
</svg>
