<?xml version="1.0" encoding="utf-8"?>
<!-- Generator: Adobe Illustrator 16.0.0, SVG Export Plug-In . SVG Version: 6.00 Build 0)  -->
<!DOCTYPE svg PUBLIC "-//W3C//DTD SVG 1.1//EN" "http://www.w3.org/Graphics/SVG/1.1/DTD/svg11.dtd">
<svg version="1.1" id="Layer_1" xmlns="http://www.w3.org/2000/svg" xmlns:xlink="http://www.w3.org/1999/xlink" x="0px" y="0px"
	 width="841.89px" height="595.28px" viewBox="0 0 841.89 595.28" enable-background="new 0 0 841.89 595.28" xml:space="preserve">
<g>
	<path fill="#8E549C" d="M503.381,341.664l22.101,116.793L421.23,401.354l-104.249,57.104l22.095-116.793l-86.523-81.501
		l117.908-15.075l50.77-108.114l50.769,108.114l117.911,15.075L503.381,341.664z"/>
	<path d="M574.434,263.545l-107.092-13.689l-46.111-97.172l-46.112,97.172l-107.092,13.689l3.303,3.111l75.29,70.913
		l-20.072,106.076l94.684-51.868l94.686,51.868l-0.577-3.064l-19.495-103.012l75.285-70.913L574.434,263.545z M465.201,310.967
		l-8.819,8.307l-4.323,4.069l1.106,5.829l2.253,11.904l4.932,26.096l-23.29-12.761l-10.624-5.822l-5.205-2.85l-5.209,2.85
		l-10.621,5.822l-23.288,12.761l4.932-26.096l2.251-11.904l1.107-5.829l-4.321-4.069l-8.819-8.307l-19.33-18.209l26.346-3.369
		l12.015-1.535l5.885-0.753l2.537-5.362l5.172-10.958l11.345-24.012l11.341,24.012l5.177,10.958l2.535,5.362l5.885,0.753
		l12.018,1.535l26.341,3.369L465.201,310.967z M444.648,292.952l27.26,3.487l-20.002,18.843l-5.43,5.113l-0.562,0.529l0.139,0.758
		v-0.002l1.386,7.326l5.109,27.006l-24.103-13.205l-6.543-3.58l-0.673-0.373l-0.677,0.373l-6.537,3.58l-24.11,13.205l5.111-27.004
		l1.392-7.326l0.144-0.758l-0.563-0.529l-5.434-5.113l-19.998-18.845l27.256-3.484l7.396-0.945l0.771-0.1l0.326-0.696l3.186-6.744
		l11.738-24.849l11.74,24.849l3.186,6.744l0.326,0.696l0.77,0.1L444.648,292.952z"/>
	<path fill="#FDEC0A" d="M554.61,269.986l-93.234-11.919l-38.183-80.838l-1.963-4.147l-1.961,4.147l-38.183,80.838l-93.239,11.919
		l68.424,64.446l-17.477,92.354l82.436-45.159l82.433,45.159l-17.472-92.354L554.61,269.986z M431.151,365.204l-9.921-5.435
		l-9.919,5.435l-46.138,25.271l9.788-51.688l2.097-11.114l-8.232-7.749l-38.295-36.069l52.182-6.672l11.216-1.435l4.827-10.225
		l22.475-47.562l22.471,47.562l4.832,10.225l11.217,1.435l52.182,6.672l-38.295,36.069l-8.229,7.749l2.094,11.114l9.782,51.688
		L431.151,365.204z M431.843,336.602l-6.537-3.582l-1.387-0.762l-2.688-1.469l-2.687,1.469l-1.392,0.762l-6.538,3.582l-10.968,6.009
		l2.324-12.286l1.391-7.329l0.287-1.55l0.569-3.014l-2.227-2.108l-1.151-1.079l-5.428-5.116l-9.099-8.569l12.398-1.586l7.401-0.948
		l1.564-0.2l3.047-0.39l1.308-2.774l0.674-1.427l3.183-6.744l5.342-11.303l5.339,11.303l3.183,6.743l0.679,1.425l1.308,2.777
		l3.047,0.39l1.566,0.2l7.401,0.948l12.396,1.586l-9.099,8.569l-5.434,5.116l-1.146,1.082l-2.232,2.105l0.566,3.012l0.301,1.552
		l1.386,7.327l2.324,12.288L431.843,336.602z"/>
</g>
</svg>
