<?xml version="1.0" encoding="utf-8"?>
<!-- Generator: Adobe Illustrator 16.0.0, SVG Export Plug-In . SVG Version: 6.00 Build 0)  -->
<!DOCTYPE svg PUBLIC "-//W3C//DTD SVG 1.1//EN" "http://www.w3.org/Graphics/SVG/1.1/DTD/svg11.dtd">
<svg version="1.1" id="Layer_1" xmlns="http://www.w3.org/2000/svg" xmlns:xlink="http://www.w3.org/1999/xlink" x="0px" y="0px"
	 width="841.89px" height="595.28px" viewBox="0 0 841.89 595.28" enable-background="new 0 0 841.89 595.28" xml:space="preserve">
<path fill="#010101" d="M539.137,353.85c-18.505-22.673-36.084-46.078-54.283-68.984c18.719-12.319,36.984-25.226,53.113-41.047
	c1.672-1.638-0.023-4.54-2.271-3.903c-24.776,7.053-49.952,11.872-75.288,15.803c-14.533-16.346-29.271-33.665-32.833-55.067
	c-0.413-2.466-3.83-1.978-4.514,0c-7.689,22.304-18.7,43.172-29.401,64.172c-26.385,3.44-52.73,7.119-78.792,12.482
	c-2.311,0.471-2.157,3.933,0,4.501c20.855,5.505,41.499,11.636,62.013,18.194c-11.694,28.141-17.998,58.366-26.255,87.593
	c-0.254,0.89,0.025,1.59,0.506,2.098c-0.886,1.436-1.791,2.867-2.608,4.359c-1.454,2.639,2.579,5.001,4.032,2.357
	c9.711-17.639,24.772-31.433,39.882-44.408c13.242-11.365,26.875-22.527,41.007-32.822c34.657,12.34,69.044,25.482,103.42,38.578
	C539.283,358.68,540.447,355.458,539.137,353.85z M527.916,246.843c-14.247,12.876-29.889,23.911-45.903,34.47
	c-2.448-3.067-4.869-6.164-7.352-9.207c-3.326-4.074-6.916-8.145-10.582-12.262C485.537,256.466,506.857,252.374,527.916,246.843z
	 M478.279,283.763c-15.263,9.975-30.763,19.651-45.633,30.178c-16.371-5.805-32.798-11.429-49.319-16.779
	c1.155-2.808,2.334-5.611,3.586-8.396c2.964-6.62,6.139-13.14,9.392-19.619c20.789-2.705,41.582-5.301,62.272-8.449
	c2.967,3.335,5.896,6.623,8.682,9.861C470.995,274.9,474.661,279.314,478.279,283.763z M424.833,209.354
	c5.211,17.713,17.626,33.037,30.093,47.208c-18.646,2.796-37.369,5.159-56.093,7.584C408.01,246.11,417.557,228.283,424.833,209.354
	z M325.791,279.923c21.654-4.117,43.473-7.223,65.329-10.096c-4.014,7.95-7.95,15.938-11.597,24.05
	c-0.27,0.599-0.521,1.21-0.79,1.812C361.203,290.076,343.566,284.791,325.791,279.923z M427.912,317.325
	c-14.388,10.49-28.126,22.228-41.624,33.815c-10.375,8.904-20.509,18.488-28.844,29.398c7.343-26.659,14.022-53.328,24.127-79.037
	c15.553,5.034,31.033,10.299,46.452,15.746C427.989,317.27,427.946,317.301,427.912,317.325z M439.678,314.644
	c13.557-9.498,27.605-18.309,41.466-27.351c16.701,20.707,32.557,42.206,49.164,62.984c-30.683-11.693-61.383-23.367-92.3-34.424
	C438.57,315.457,439.115,315.039,439.678,314.644z M453.516,395.619v1.56c0,2.54-2.13,4.672-4.676,4.672
	c-2.545,0-4.673-2.132-4.673-4.672v-1.56c0-2.553,2.128-4.678,4.673-4.678C451.386,390.941,453.516,393.066,453.516,395.619z
	 M334.963,318.506v1.557c0,2.545-2.128,4.671-4.673,4.671c-2.549,0-4.672-2.126-4.672-4.671v-1.557c0-2.551,2.123-4.673,4.672-4.673
	C332.835,313.833,334.963,315.955,334.963,318.506z M278.883,274.88c0,2.55-2.128,4.68-4.677,4.672
	c-2.243,0-5.197,0.017-6.776-1.889c-2.193-2.639-1.77-5.354-0.375-8.252c1.107-2.295,4.33-2.886,6.396-1.676
	c1.107,0.647,1.78,1.616,2.074,2.694C277.439,271.011,278.883,272.792,278.883,274.88z M328.731,239.054c-6.03,0-6.03-9.347,0-9.347
	S334.761,239.054,328.731,239.054z M378.584,248.399c-6.03,0-6.03-9.345,0-9.345C384.613,239.054,384.613,248.399,378.584,248.399z
	 M364.562,193.874c-6.03,0-6.03-9.345,0-9.345C370.591,184.529,370.591,193.874,364.562,193.874z M406.624,176.735
	c-6.03,0-6.03-9.344,0-9.344C412.648,167.392,412.648,176.735,406.624,176.735z M333.596,424.623
	c-0.52,0.525-1.041,1.042-1.56,1.561c-1.804,1.804-4.812,1.804-6.61,0c-1.8-1.801-1.8-4.806,0-6.605
	c0.52-0.522,1.039-1.039,1.559-1.557c1.799-1.805,4.812-1.805,6.612,0C335.396,419.82,335.396,422.826,333.596,424.623z
	 M397.278,391.719c-6.029,0-6.029-9.34,0-9.34C403.303,382.379,403.303,391.719,397.278,391.719z M431.555,341.87
	c0,2.554-2.133,4.678-4.672,4.678h-1.564c-2.545,0-4.672-2.124-4.672-4.678c0-2.548,2.127-4.675,4.672-4.675h1.564
	C429.422,337.195,431.555,339.322,431.555,341.87z M468.943,368.359c-6.033,0-6.033-9.354,0-9.354
	C474.969,359.006,474.969,368.359,468.943,368.359z M576.435,351.216c-0.099,2.487-1.073,5.524-3.347,6.86
	c-1.935,1.13-4.428,0.854-6.008-0.768c-1.201-1.242-1.514-2.866-1.554-4.533c-0.041-1.68,0.925-3.162,2.301-3.985
	c0.81-1.338,2.214-2.242,3.932-2.242C574.226,346.548,576.536,348.67,576.435,351.216z M523.465,302.923
	c-6.029,0-6.029-9.346,0-9.346C529.49,293.577,529.49,302.923,523.465,302.923z M453.357,206.336c-6.023,0-6.023-9.347,0-9.347
	C459.383,196.99,459.383,206.336,453.357,206.336z M486.08,229.707c-6.033,0-6.033-9.351,0-9.351
	C492.101,220.356,492.101,229.707,486.08,229.707z M501.656,190.753c0.159,2.551-2.25,4.68-4.673,4.68
	c-2.449,0-4.181-1.799-4.585-4.056c-0.067-0.119-0.141-0.242-0.211-0.352c-0.029-0.027-0.05-0.059-0.068-0.077
	c-1.78-1.824-1.819-4.799,0-6.609c1.786-1.789,4.827-1.82,6.608,0C500.447,186.104,501.492,188.29,501.656,190.753z M556.178,237.49
	c0,2.551-2.123,4.68-4.674,4.68h-1.559c-2.545,0-4.673-2.129-4.673-4.68c0-2.545,2.128-4.667,4.673-4.667h1.559
	C554.055,232.823,556.178,234.944,556.178,237.49z M330.29,363.684c-6.03,0-6.03-9.352,0-9.352S336.319,363.684,330.29,363.684z"/>
</svg>
