<?xml version="1.0" encoding="utf-8"?>
<!-- Generator: Adobe Illustrator 16.0.0, SVG Export Plug-In . SVG Version: 6.00 Build 0)  -->
<!DOCTYPE svg PUBLIC "-//W3C//DTD SVG 1.1//EN" "http://www.w3.org/Graphics/SVG/1.1/DTD/svg11.dtd">
<svg version="1.1" id="Layer_1" xmlns="http://www.w3.org/2000/svg" xmlns:xlink="http://www.w3.org/1999/xlink" x="0px" y="0px"
	 width="841.89px" height="595.28px" viewBox="0 0 841.89 595.28" enable-background="new 0 0 841.89 595.28" xml:space="preserve">
<path d="M589.575,341.731l-9.558-2.181l4.986-1.865c1.183-0.443,1.788-1.764,1.348-2.951c-0.452-1.186-1.771-1.784-2.956-1.342
	l-11.495,4.302l-8.271-1.887l13.969-5.018c1.192-0.429,1.809-1.743,1.386-2.937c-0.434-1.189-1.752-1.809-2.935-1.381l-20.711,7.442
	l-8.133-1.854l22.121-7.942c1.183-0.429,1.81-1.74,1.376-2.937c-0.423-1.189-1.736-1.807-2.935-1.381l-28.854,10.367l-96.02-21.918
	l5.326-7.785c0.209-0.305,0.279-0.68,0.188-1.039c-0.075-0.355-0.311-0.663-0.629-0.844l-8.242-4.655l77.073-61.467l30.504-3.18
	c1.256-0.133,2.17-1.261,2.039-2.52c-0.128-1.261-1.256-2.177-2.52-2.043l-23.369,2.438l6.512-5.194l21.899-2.283
	c1.256-0.13,2.169-1.258,2.042-2.517c-0.131-1.261-1.267-2.171-2.512-2.043l-14.774,1.539l6.631-5.291l12.224-1.108
	c1.264-0.116,2.188-1.23,2.078-2.494c-0.112-1.261-1.214-2.189-2.493-2.074l-5.292,0.479l7.665-6.11
	c0.987-0.79,1.144-2.233,0.366-3.224c-0.794-0.99-2.232-1.153-3.23-0.363l-7.654,6.111l1.645-5.053
	c0.395-1.205-0.269-2.5-1.478-2.892c-1.193-0.392-2.493,0.268-2.882,1.47l-3.813,11.674l-6.631,5.288l4.793-14.052
	c0.405-1.201-0.229-2.502-1.438-2.913c-1.193-0.406-2.501,0.234-2.9,1.432l-7.099,20.836l-6.512,5.194l7.566-22.241
	c0.412-1.198-0.232-2.5-1.426-2.909c-1.209-0.407-2.501,0.232-2.916,1.431l-9.879,29.021l-77.045,61.443l-2.754-8.973
	c-0.109-0.351-0.36-0.64-0.692-0.799c-0.331-0.158-0.712-0.168-1.057-0.032l-8.755,3.535v-98.656l16.535-25.826
	c0.684-1.069,0.37-2.485-0.692-3.169c-1.078-0.68-2.493-0.372-3.178,0.696l-12.665,19.792v-8.333l11.872-18.543
	c0.684-1.064,0.37-2.481-0.692-3.164c-1.07-0.683-2.493-0.374-3.167,0.695l-8.013,12.506v-8.484l6.757-10.251
	c0.702-1.059,0.407-2.48-0.655-3.176c-1.055-0.698-2.472-0.404-3.177,0.654l-2.925,4.439v-9.805c0-1.266-1.025-2.291-2.289-2.291
	c-1.267,0-2.292,1.025-2.292,2.291v9.805l-2.925-4.439c-0.702-1.062-2.122-1.353-3.177-0.654c-1.063,0.696-1.357,2.118-0.655,3.176
	l6.757,10.251v8.484l-8.013-12.506c-0.682-1.069-2.097-1.378-3.165-0.695c-1.065,0.683-1.378,2.1-0.694,3.164l11.872,18.543v8.333
	l-12.676-19.792c-0.674-1.064-2.089-1.378-3.164-0.696c-1.065,0.684-1.379,2.101-0.695,3.169l16.535,25.826v98.63l-8.763-3.448
	c-0.342-0.137-0.728-0.121-1.06,0.038c-0.315,0.162-0.571,0.453-0.674,0.804l-2.67,8.972l-77.132-61.51l-9.883-29.026
	c-0.414-1.199-1.714-1.838-2.911-1.431c-1.198,0.409-1.843,1.71-1.429,2.909l7.569,22.244l-6.51-5.197l-7.099-20.836
	c-0.409-1.198-1.712-1.838-2.911-1.432c-1.198,0.407-1.838,1.711-1.429,2.91l4.788,14.055l-6.63-5.288l-3.807-11.674
	c-0.391-1.202-1.684-1.861-2.893-1.47c-1.203,0.392-1.862,1.687-1.473,2.892l1.651,5.056l-7.667-6.113
	c-0.985-0.79-2.429-0.626-3.223,0.366c-0.79,0.988-0.627,2.432,0.365,3.222l7.666,6.11l-5.299-0.479
	c-1.259-0.115-2.377,0.813-2.492,2.074c-0.106,1.264,0.818,2.377,2.078,2.494l12.233,1.111l6.631,5.288l-14.773-1.539
	c-1.261-0.125-2.387,0.782-2.522,2.04c-0.125,1.261,0.79,2.386,2.051,2.52l21.894,2.283l6.512,5.194l-23.368-2.438
	c-1.256-0.137-2.386,0.785-2.526,2.043c-0.125,1.258,0.789,2.386,2.049,2.52l30.5,3.18l77.157,61.532l-8.235,4.737
	c-0.316,0.183-0.538,0.491-0.621,0.849c-0.081,0.359-0.008,0.736,0.204,1.037l5.303,7.615l-96.111,21.938l-28.858-10.367
	c-1.188-0.423-2.502,0.191-2.931,1.381c-0.433,1.196,0.188,2.508,1.381,2.937l22.116,7.944l-8.122,1.855l-20.72-7.445
	c-1.189-0.426-2.502,0.191-2.931,1.381c-0.434,1.193,0.188,2.508,1.381,2.937l13.974,5.018l-8.267,1.887l-11.501-4.302
	c-1.184-0.445-2.507,0.156-2.95,1.342c-0.447,1.188,0.16,2.508,1.342,2.951l4.976,1.866l-9.557,2.183
	c-1.232,0.281-2.006,1.509-1.723,2.745c0.241,1.063,1.189,1.786,2.233,1.786c0.172,0,0.341-0.022,0.509-0.063l9.557-2.181
	l-3.676,3.841c-0.876,0.914-0.842,2.363,0.072,3.242c0.448,0.424,1.015,0.636,1.583,0.636c0.607,0,1.203-0.235,1.655-0.704
	l8.499-8.869l8.267-1.887l-10.413,10.587c-0.885,0.901-0.871,2.353,0.029,3.243c0.443,0.44,1.03,0.656,1.607,0.656
	c0.593,0,1.184-0.231,1.632-0.686l15.438-15.695l8.127-1.854l-16.477,16.753c-0.89,0.902-0.881,2.355,0.023,3.242
	c0.448,0.439,1.03,0.658,1.608,0.658c0.591,0,1.188-0.228,1.63-0.684l21.505-21.859l96.198-21.959l-1.433,9.461
	c-0.055,0.365,0.047,0.733,0.279,1.021c0.219,0.286,0.562,0.464,0.932,0.485l9.25,0.604l-42.737,88.741l-26.095,16.097
	c-1.083,0.665-1.415,2.078-0.75,3.156c0.432,0.702,1.183,1.087,1.953,1.087c0.414,0,0.822-0.107,1.204-0.339l20.004-12.336
	l-3.619,7.505l-18.739,11.561c-1.083,0.662-1.419,2.076-0.746,3.154c0.434,0.703,1.179,1.091,1.953,1.091
	c0.404,0,0.828-0.111,1.198-0.343l12.642-7.798l-3.676,7.645l-10.539,6.306c-1.092,0.65-1.443,2.058-0.79,3.145
	c0.424,0.717,1.184,1.114,1.974,1.114c0.389,0,0.799-0.103,1.174-0.325l4.562-2.732l-4.263,8.838
	c-0.539,1.14-0.068,2.509,1.078,3.06c0.321,0.154,0.663,0.226,0.995,0.226c0.853,0,1.666-0.478,2.07-1.296l4.249-8.835l0.707,5.269
	c0.159,1.15,1.146,1.988,2.271,1.988c0.096,0,0.198-0.008,0.308-0.02c1.256-0.169,2.131-1.326,1.963-2.579l-1.63-12.166l3.681-7.643
	l1.775,14.739c0.145,1.165,1.136,2.019,2.281,2.019c0.091,0,0.183-0.008,0.274-0.02c1.256-0.149,2.151-1.291,1.997-2.55
	l-2.642-21.854l3.618-7.504l2.825,23.326c0.14,1.159,1.126,2.016,2.271,2.016c0.091,0,0.183-0.007,0.279-0.018
	c1.261-0.15,2.151-1.293,2.002-2.552l-3.687-30.438l42.783-88.835l6.501,7.032c0.251,0.27,0.593,0.422,0.964,0.422l0,0
	c0.376-0.003,0.726-0.157,0.966-0.429l6.281-6.905l42.726,88.713l-3.691,30.44c-0.149,1.256,0.746,2.401,2.002,2.552
	c0.103,0.011,0.193,0.018,0.279,0.018c1.146,0,2.134-0.856,2.271-2.018l2.825-23.326l3.618,7.503l-2.642,21.857
	c-0.165,1.259,0.741,2.4,1.997,2.552c0.092,0.01,0.183,0.018,0.274,0.018c1.146,0,2.141-0.852,2.281-2.019l1.781-14.741l3.684,7.643
	l-1.646,12.168c-0.164,1.253,0.713,2.41,1.969,2.579c0.103,0.015,0.212,0.02,0.313,0.02c1.125,0,2.107-0.838,2.271-1.988
	l0.702-5.271l4.264,8.834c0.389,0.818,1.203,1.299,2.06,1.299c0.343,0,0.674-0.071,0.989-0.229c1.146-0.551,1.624-1.92,1.079-3.06
	l-4.253-8.832l4.556,2.729c0.37,0.223,0.771,0.325,1.175,0.325c0.785,0,1.551-0.397,1.969-1.114
	c0.655-1.087,0.303-2.494-0.786-3.145l-10.526-6.306l-3.682-7.642l12.631,7.795c0.376,0.231,0.794,0.34,1.198,0.34
	c0.775,0,1.524-0.388,1.958-1.09c0.663-1.078,0.332-2.49-0.749-3.154l-18.735-11.557l-3.607-7.507l19.988,12.336
	c0.381,0.231,0.793,0.339,1.208,0.339c0.76,0,1.515-0.385,1.948-1.087c0.666-1.078,0.331-2.491-0.744-3.156l-26.103-16.097
	l-42.744-88.761l9.498-0.698c0.36-0.029,0.702-0.206,0.935-0.492c0.22-0.289,0.321-0.659,0.264-1.023l-1.496-9.301l96.038,21.919
	l21.497,21.86c0.452,0.458,1.045,0.686,1.64,0.686c0.572,0,1.154-0.219,1.608-0.658c0.896-0.887,0.914-2.34,0.019-3.242
	l-16.472-16.753l8.117,1.853l15.442,15.697c0.446,0.457,1.044,0.686,1.637,0.686c0.572,0,1.154-0.216,1.606-0.656
	c0.905-0.891,0.916-2.338,0.021-3.243l-10.409-10.589l8.266,1.886l8.495,8.872c0.452,0.469,1.058,0.704,1.661,0.704
	c0.571,0,1.133-0.212,1.587-0.636c0.914-0.879,0.942-2.326,0.07-3.242l-3.681-3.844l9.558,2.181c0.173,0.04,0.343,0.06,0.515,0.06
	c1.044,0,1.986-0.719,2.227-1.783C591.586,343.24,590.811,342.014,589.575,341.731z M445.243,300.162l-5.097,7.463l-13.826-3.156
	l11.007-8.778L445.243,300.162z M431.865,283.477l2.645,8.595l-11.057,8.813v-14.01L431.865,283.477z M410.48,283.533l8.392,3.305
	v14.046l-10.958-8.736L410.48,283.533z M397.184,300.288l7.888-4.54l10.938,8.721l-13.729,3.133L397.184,300.288z M402.006,321.127
	l1.376-9.07l13.651-3.116l-6.148,12.767L402.006,321.127z M421.292,330.356l-6.24-6.743l6.112-12.684l6.159,12.795L421.292,330.356z
	 M440.541,321.028l-9.104,0.667l-6.141-12.755l13.806,3.149L440.541,321.028z M345.176,212.35c0-0.697,0.559-1.265,1.265-1.265
	c0.704,0,1.267,0.568,1.267,1.265v4.117c0.342,0.132,0.654,0.32,0.933,0.546l3.57-2.062c0.611-0.35,1.386-0.14,1.737,0.463
	c0.342,0.607,0.14,1.384-0.462,1.732l-3.57,2.06c0.02,0.176,0.052,0.354,0.052,0.542c0,0.186-0.033,0.363-0.052,0.542l3.57,2.059
	c0.602,0.351,0.804,1.124,0.462,1.732c-0.24,0.408-0.665,0.633-1.107,0.633c-0.211,0-0.432-0.055-0.63-0.171l-3.57-2.059
	c-0.279,0.226-0.591,0.413-0.933,0.548v4.114c0,0.697-0.563,1.265-1.267,1.265c-0.706,0-1.265-0.568-1.265-1.265v-4.114
	c-0.346-0.136-0.654-0.323-0.938-0.548l-3.57,2.059c-0.197,0.116-0.419,0.171-0.631,0.171c-0.437,0-0.867-0.226-1.096-0.633
	c-0.353-0.608-0.145-1.381,0.462-1.732l3.56-2.059c-0.019-0.179-0.048-0.356-0.048-0.542c0-0.188,0.03-0.365,0.048-0.542l-3.56-2.06
	c-0.607-0.349-0.814-1.125-0.467-1.732c0.351-0.603,1.125-0.813,1.732-0.463l3.57,2.062c0.284-0.226,0.592-0.414,0.938-0.546V212.35
	z M372.397,221.227c0-0.704,0.564-1.269,1.271-1.269c0.692,0,1.265,0.565,1.265,1.269v4.113c0.341,0.133,0.654,0.32,0.933,0.549
	l3.566-2.063c0.606-0.354,1.392-0.142,1.731,0.465c0.353,0.603,0.151,1.378-0.462,1.729l-3.569,2.06
	c0.029,0.177,0.063,0.355,0.063,0.541c0,0.185-0.034,0.364-0.063,0.544l3.569,2.06c0.613,0.349,0.814,1.123,0.462,1.727
	c-0.229,0.409-0.653,0.637-1.097,0.637c-0.211,0-0.433-0.055-0.634-0.17l-3.566-2.063c-0.279,0.226-0.592,0.417-0.933,0.548v4.115
	c0,0.7-0.573,1.268-1.265,1.268c-0.708,0-1.271-0.568-1.271-1.268v-4.115c-0.34-0.132-0.649-0.322-0.933-0.551l-3.576,2.065
	c-0.192,0.115-0.414,0.17-0.634,0.17c-0.434,0-0.856-0.229-1.098-0.637c-0.352-0.604-0.14-1.378,0.462-1.727l3.57-2.06
	c-0.029-0.18-0.047-0.359-0.047-0.544c0-0.186,0.018-0.363,0.047-0.541l-3.57-2.06c-0.602-0.349-0.813-1.126-0.462-1.729
	c0.356-0.607,1.126-0.818,1.732-0.465l3.576,2.063c0.284-0.229,0.593-0.417,0.933-0.549V221.227z M399.513,213.868l3.571-2.061
	c0.601-0.347,1.376-0.142,1.729,0.463c0.35,0.604,0.139,1.381-0.462,1.731l-3.566,2.061c0.029,0.176,0.058,0.354,0.058,0.54
	c0,0.185-0.029,0.365-0.058,0.544l3.566,2.059c0.601,0.35,0.812,1.124,0.462,1.732c-0.232,0.407-0.666,0.633-1.099,0.633
	c-0.222,0-0.428-0.055-0.629-0.171l-3.571-2.061c-0.279,0.226-0.59,0.417-0.932,0.548v4.116c0,0.699-0.574,1.267-1.266,1.267
	c-0.702,0-1.274-0.568-1.274-1.267v-4.116c-0.342-0.132-0.656-0.322-0.935-0.548l-3.571,2.061c-0.201,0.116-0.413,0.171-0.635,0.171
	c-0.428,0-0.861-0.226-1.091-0.633c-0.353-0.608-0.141-1.382,0.462-1.732l3.563-2.059c-0.028-0.179-0.047-0.359-0.047-0.544
	c0-0.186,0.019-0.363,0.047-0.54l-3.563-2.061c-0.603-0.35-0.814-1.126-0.462-1.731c0.35-0.605,1.125-0.814,1.726-0.463l3.571,2.061
	c0.279-0.229,0.593-0.416,0.935-0.548v-4.115c0-0.7,0.572-1.268,1.274-1.268c0.692,0,1.266,0.568,1.266,1.268v4.115
	C398.923,213.452,399.233,213.64,399.513,213.868z M393.335,185.206c0.35-0.608,1.125-0.816,1.726-0.465l3.571,2.06
	c0.279-0.226,0.593-0.414,0.932-0.548v-4.112c0-0.702,0.574-1.27,1.277-1.27c0.691,0,1.266,0.568,1.266,1.27v4.112
	c0.342,0.134,0.653,0.322,0.932,0.551l3.571-2.063c0.601-0.351,1.376-0.144,1.729,0.465c0.35,0.605,0.139,1.378-0.462,1.729
	l-3.566,2.06c0.028,0.178,0.047,0.356,0.047,0.542c0,0.184-0.019,0.366-0.047,0.541l3.566,2.06c0.601,0.351,0.812,1.126,0.462,1.729
	c-0.232,0.409-0.666,0.636-1.099,0.636c-0.219,0-0.428-0.054-0.629-0.168l-3.571-2.065c-0.279,0.228-0.59,0.419-0.932,0.549v4.113
	c0,0.704-0.575,1.271-1.266,1.271c-0.703,0-1.277-0.568-1.277-1.271v-4.113c-0.339-0.13-0.653-0.321-0.932-0.547l-3.571,2.063
	c-0.201,0.115-0.407,0.168-0.629,0.168c-0.434,0-0.867-0.227-1.097-0.636c-0.352-0.603-0.141-1.378,0.462-1.729l3.563-2.058
	c-0.029-0.177-0.047-0.359-0.047-0.543c0-0.186,0.018-0.364,0.047-0.542l-3.563-2.06
	C393.194,186.584,392.983,185.812,393.335,185.206z M300.645,305.11c0.434-0.544,1.232-0.639,1.781-0.197l3.214,2.563
	c0.319-0.185,0.665-0.311,1.012-0.391l0.615-4.075c0.107-0.69,0.752-1.17,1.444-1.066c0.693,0.105,1.169,0.753,1.064,1.443
	l-0.611,4.074c0.154,0.089,0.308,0.178,0.452,0.295c0.15,0.117,0.27,0.246,0.396,0.379l3.83-1.504
	c0.654-0.256,1.39,0.064,1.646,0.719c0.25,0.649-0.068,1.386-0.718,1.642l-3.839,1.507c0,0.359-0.043,0.721-0.154,1.072l3.219,2.564
	c0.543,0.436,0.634,1.234,0.197,1.783c-0.246,0.311-0.62,0.474-0.991,0.474c-0.274,0-0.554-0.092-0.79-0.276l-3.214-2.566
	c-0.318,0.186-0.659,0.312-1.01,0.391l-0.622,4.078c-0.091,0.625-0.63,1.078-1.25,1.078c-0.059,0-0.125-0.005-0.188-0.017
	c-0.693-0.101-1.169-0.748-1.063-1.44l0.616-4.073c-0.154-0.088-0.317-0.179-0.457-0.294c-0.149-0.116-0.274-0.248-0.391-0.38
	l-3.839,1.503c-0.145,0.061-0.304,0.09-0.462,0.09c-0.501,0-0.981-0.306-1.179-0.807c-0.25-0.648,0.067-1.385,0.717-1.641
	l3.84-1.507c0-0.363,0.038-0.722,0.153-1.073l-3.214-2.563C300.299,306.457,300.202,305.658,300.645,305.11z M338.102,300.162
	c-0.25,0.316-0.616,0.477-0.991,0.477c-0.279,0-0.553-0.088-0.79-0.276l-3.214-2.563c-0.318,0.187-0.659,0.312-1.011,0.389
	l-0.616,4.076c-0.097,0.627-0.636,1.08-1.252,1.08c-0.067,0-0.124-0.005-0.192-0.014c-0.693-0.106-1.165-0.754-1.064-1.444
	l0.612-4.071c-0.154-0.091-0.308-0.18-0.453-0.295c-0.145-0.116-0.27-0.248-0.394-0.379l-3.832,1.504
	c-0.154,0.058-0.308,0.087-0.466,0.087c-0.5,0-0.987-0.305-1.179-0.804c-0.251-0.651,0.066-1.388,0.716-1.644l3.841-1.506
	c-0.005-0.36,0.043-0.722,0.158-1.073l-3.224-2.564c-0.543-0.438-0.635-1.235-0.192-1.783c0.428-0.544,1.227-0.636,1.775-0.2
	l3.219,2.565c0.313-0.185,0.656-0.308,1.006-0.39l0.62-4.074c0.097-0.692,0.742-1.171,1.435-1.065
	c0.693,0.105,1.174,0.75,1.068,1.441l-0.616,4.073c0.154,0.09,0.313,0.182,0.462,0.296c0.145,0.116,0.26,0.246,0.39,0.38
	l3.835-1.505c0.654-0.251,1.385,0.066,1.641,0.716c0.255,0.651-0.063,1.387-0.718,1.644l-3.839,1.508
	c0.005,0.362-0.04,0.721-0.154,1.069l3.219,2.566C338.453,298.818,338.544,299.614,338.102,300.162z M339.031,261.652l-0.611,4.073
	c0.154,0.091,0.307,0.182,0.452,0.296c0.148,0.116,0.269,0.248,0.39,0.38l3.83-1.505c0.654-0.25,1.39,0.064,1.65,0.719
	c0.251,0.649-0.072,1.385-0.711,1.641l-3.846,1.505c0,0.364-0.043,0.722-0.158,1.073l3.214,2.568
	c0.559,0.433,0.645,1.232,0.211,1.78c-0.25,0.313-0.62,0.477-0.991,0.477c-0.285,0-0.559-0.089-0.794-0.277l-3.215-2.567
	c-0.317,0.188-0.659,0.313-1.011,0.39l-0.62,4.078c-0.097,0.625-0.63,1.078-1.252,1.078c-0.057,0-0.125-0.005-0.191-0.014
	c-0.684-0.103-1.165-0.748-1.059-1.444l0.616-4.072c-0.154-0.088-0.318-0.18-0.462-0.295c-0.145-0.116-0.27-0.248-0.39-0.378
	l-3.835,1.504c-0.149,0.057-0.303,0.089-0.462,0.089c-0.505,0-0.981-0.308-1.179-0.806c-0.254-0.653,0.063-1.389,0.717-1.641
	l3.841-1.509c-0.005-0.36,0.039-0.722,0.154-1.073l-3.219-2.565c-0.544-0.435-0.64-1.233-0.197-1.779
	c0.432-0.547,1.231-0.638,1.781-0.2l3.214,2.563c0.317-0.184,0.659-0.308,1.01-0.39l0.616-4.074
	c0.106-0.692,0.751-1.168,1.444-1.065C338.66,260.317,339.137,260.962,339.031,261.652z M317.863,256.65
	c-0.096,0.628-0.63,1.079-1.251,1.079c-0.067,0-0.125-0.005-0.192-0.015c-0.693-0.103-1.169-0.748-1.063-1.444l0.611-4.069
	c-0.154-0.091-0.308-0.183-0.452-0.297c-0.145-0.116-0.271-0.246-0.391-0.379l-3.835,1.504c-0.154,0.058-0.308,0.089-0.462,0.089
	c-0.505,0-0.982-0.308-1.183-0.806c-0.25-0.652,0.067-1.386,0.717-1.641l3.839-1.509c0-0.36,0.044-0.722,0.159-1.073l-3.219-2.563
	c-0.548-0.438-0.64-1.234-0.197-1.781c0.434-0.548,1.227-0.64,1.775-0.202l3.219,2.563c0.313-0.183,0.654-0.307,1.006-0.387
	l0.62-4.078c0.097-0.691,0.742-1.166,1.435-1.064c0.692,0.105,1.173,0.75,1.068,1.441l-0.616,4.073
	c0.154,0.092,0.313,0.182,0.462,0.296c0.145,0.116,0.269,0.251,0.391,0.38l3.835-1.506c0.654-0.25,1.385,0.065,1.641,0.721
	c0.254,0.648-0.063,1.385-0.718,1.642l-3.839,1.504c0.004,0.364-0.039,0.722-0.154,1.072l3.219,2.569
	c0.548,0.434,0.64,1.232,0.197,1.781c-0.25,0.314-0.616,0.476-0.987,0.476c-0.274,0-0.558-0.088-0.789-0.274l-3.219-2.568
	c-0.318,0.186-0.659,0.311-1.01,0.388L317.863,256.65z M357.533,398.114c-0.048,0.366-0.168,0.71-0.317,1.035l2.801,3.022
	c0.471,0.513,0.442,1.313-0.068,1.789c-0.24,0.225-0.553,0.337-0.867,0.337c-0.341,0-0.674-0.134-0.923-0.403l-2.805-3.021
	c-0.17,0.067-0.333,0.133-0.511,0.177c-0.183,0.04-0.361,0.053-0.544,0.064l-1.216,3.938c-0.159,0.544-0.665,0.894-1.204,0.894
	c-0.12,0-0.255-0.018-0.376-0.059c-0.674-0.205-1.044-0.914-0.842-1.58l1.218-3.941c-0.285-0.225-0.534-0.486-0.745-0.792
	l-4.009,0.916c-0.091,0.022-0.193,0.031-0.285,0.031c-0.582,0-1.096-0.396-1.236-0.985c-0.149-0.682,0.274-1.36,0.958-1.514
	l4.007-0.917c0.054-0.365,0.174-0.71,0.323-1.034l-2.805-3.021c-0.472-0.514-0.443-1.317,0.071-1.794
	c0.511-0.474,1.315-0.442,1.791,0.067l2.8,3.02c0.174-0.064,0.342-0.131,0.516-0.173c0.178-0.044,0.36-0.056,0.543-0.067
	l1.213-3.936c0.211-0.666,0.915-1.043,1.588-0.835c0.663,0.205,1.048,0.913,0.837,1.581l-1.218,3.94
	c0.279,0.224,0.544,0.483,0.741,0.791l4.013-0.916c0.685-0.157,1.367,0.271,1.517,0.95c0.163,0.684-0.27,1.367-0.953,1.518
	L357.533,398.114z M360.035,362.4l-1.213,3.938c0.279,0.224,0.544,0.486,0.741,0.79l4.013-0.915
	c0.684-0.156,1.367,0.271,1.515,0.953c0.16,0.683-0.269,1.361-0.951,1.518l-4.014,0.917c-0.048,0.364-0.168,0.708-0.323,1.032
	l2.806,3.022c0.473,0.513,0.444,1.313-0.072,1.792c-0.24,0.227-0.548,0.337-0.862,0.337c-0.341,0-0.673-0.138-0.923-0.403
	l-2.807-3.021c-0.168,0.068-0.332,0.134-0.509,0.174c-0.183,0.041-0.366,0.055-0.544,0.068l-1.218,3.936
	c-0.172,0.546-0.663,0.896-1.207,0.896c-0.129,0-0.25-0.021-0.38-0.059c-0.665-0.207-1.034-0.914-0.833-1.583l1.213-3.94
	c-0.28-0.223-0.529-0.484-0.74-0.79l-4.009,0.916c-0.092,0.02-0.193,0.031-0.285,0.031c-0.582,0-1.096-0.399-1.236-0.983
	c-0.149-0.684,0.269-1.365,0.958-1.52l4.007-0.916c0.049-0.363,0.169-0.71,0.323-1.031l-2.805-3.023
	c-0.472-0.514-0.442-1.318,0.072-1.792c0.51-0.474,1.314-0.444,1.786,0.067l2.805,3.02c0.174-0.067,0.332-0.131,0.514-0.174
	c0.179-0.04,0.362-0.055,0.54-0.066l1.218-3.937c0.211-0.669,0.914-1.046,1.587-0.837C359.867,361.023,360.247,361.73,360.035,362.4
	z M337.481,357.053c-0.121,0-0.245-0.018-0.371-0.055c-0.669-0.207-1.049-0.916-0.838-1.586l1.212-3.941
	c-0.279-0.223-0.538-0.482-0.74-0.788l-4.014,0.914c-0.095,0.024-0.183,0.034-0.279,0.034c-0.577,0-1.102-0.397-1.236-0.984
	c-0.158-0.684,0.274-1.361,0.958-1.519l4.008-0.913c0.053-0.367,0.164-0.711,0.322-1.035l-2.8-3.022
	c-0.482-0.515-0.448-1.315,0.066-1.79c0.516-0.479,1.314-0.445,1.791,0.065l2.8,3.02c0.165-0.067,0.337-0.134,0.52-0.174
	c0.179-0.043,0.356-0.055,0.539-0.067l1.213-3.934c0.208-0.67,0.915-1.047,1.589-0.838c0.673,0.205,1.039,0.915,0.832,1.584
	l-1.217,3.938c0.289,0.225,0.543,0.487,0.74,0.79l4.014-0.914c0.683-0.156,1.367,0.269,1.516,0.953
	c0.163,0.681-0.269,1.361-0.942,1.516l-4.02,0.917c-0.052,0.362-0.163,0.707-0.322,1.035l2.807,3.019
	c0.471,0.512,0.437,1.315-0.073,1.792c-0.246,0.227-0.554,0.34-0.851,0.34c-0.347,0-0.684-0.14-0.939-0.404l-2.8-3.022
	c-0.17,0.065-0.337,0.135-0.516,0.174c-0.183,0.043-0.36,0.055-0.539,0.066l-1.217,3.937
	C338.526,356.702,338.025,357.053,337.481,357.053z M318.449,355.862c0.481,0.513,0.453,1.313-0.062,1.79
	c-0.246,0.227-0.554,0.34-0.861,0.34c-0.337,0-0.685-0.138-0.935-0.406l-2.8-3.019c-0.168,0.065-0.337,0.131-0.514,0.174
	c-0.179,0.04-0.356,0.056-0.54,0.067l-1.218,3.934c-0.163,0.547-0.665,0.896-1.208,0.896c-0.12,0-0.245-0.017-0.371-0.055
	c-0.674-0.205-1.05-0.918-0.842-1.586l1.218-3.938c-0.28-0.225-0.54-0.486-0.747-0.79l-4.008,0.915
	c-0.097,0.021-0.193,0.033-0.279,0.033c-0.578,0-1.102-0.396-1.241-0.986c-0.154-0.684,0.274-1.362,0.957-1.517l4.009-0.919
	c0.054-0.36,0.168-0.705,0.328-1.031l-2.801-3.021c-0.48-0.515-0.452-1.315,0.063-1.792c0.514-0.477,1.313-0.448,1.79,0.067
	l2.805,3.02c0.165-0.067,0.337-0.135,0.516-0.174c0.178-0.043,0.356-0.055,0.539-0.069l1.217-3.936
	c0.202-0.67,0.915-1.045,1.579-0.838c0.674,0.207,1.049,0.915,0.842,1.584l-1.218,3.943c0.279,0.223,0.539,0.481,0.741,0.788
	l4.013-0.917c0.684-0.156,1.362,0.271,1.521,0.951c0.154,0.684-0.274,1.363-0.958,1.518l-4.008,0.916
	c-0.054,0.367-0.168,0.711-0.328,1.036L318.449,355.862z M454.353,422.275l-2.326-3.404c-0.351,0.082-0.71,0.116-1.081,0.089
	l-1.78,3.706c-0.223,0.454-0.674,0.719-1.146,0.719c-0.193,0-0.376-0.04-0.554-0.125c-0.635-0.305-0.896-1.061-0.593-1.694
	l1.786-3.707c-0.251-0.267-0.446-0.571-0.601-0.899l-4.109,0.311c-0.039,0.002-0.073,0.004-0.102,0.004
	c-0.655,0-1.217-0.508-1.267-1.174c-0.052-0.698,0.473-1.307,1.175-1.358l4.099-0.308c0.063-0.172,0.113-0.346,0.193-0.514
	c0.084-0.166,0.184-0.314,0.285-0.462l-2.324-3.401c-0.392-0.58-0.242-1.367,0.332-1.762c0.582-0.396,1.376-0.248,1.77,0.332
	l2.319,3.406c0.353-0.084,0.712-0.117,1.078-0.088l1.785-3.707c0.304-0.63,1.061-0.896,1.689-0.596
	c0.635,0.308,0.896,1.063,0.593,1.694l-1.786,3.704c0.262,0.271,0.452,0.576,0.611,0.901l4.109-0.306
	c0.694-0.051,1.308,0.469,1.357,1.166c0.052,0.698-0.473,1.309-1.164,1.362l-4.109,0.306c-0.053,0.172-0.112,0.344-0.193,0.512
	c-0.081,0.166-0.183,0.313-0.279,0.462l2.321,3.401c0.394,0.582,0.24,1.37-0.335,1.764c-0.219,0.15-0.462,0.22-0.71,0.22
	C454.992,422.829,454.593,422.637,454.353,422.275z M428.482,402.861c-0.223,0.452-0.674,0.717-1.146,0.717
	c-0.183,0-0.373-0.04-0.543-0.127c-0.635-0.301-0.896-1.059-0.593-1.688l1.775-3.708c-0.248-0.267-0.441-0.572-0.601-0.9
	l-4.109,0.311c-0.034,0-0.063,0.004-0.092,0.004c-0.663,0-1.216-0.508-1.266-1.176c-0.053-0.697,0.473-1.307,1.164-1.355
	l4.109-0.309c0.055-0.174,0.112-0.345,0.193-0.514c0.081-0.165,0.183-0.314,0.279-0.461l-2.318-3.405
	c-0.396-0.577-0.242-1.366,0.332-1.761c0.582-0.395,1.365-0.248,1.754,0.334l2.326,3.404c0.35-0.083,0.713-0.114,1.081-0.088
	l1.78-3.708c0.313-0.628,1.065-0.893,1.7-0.593c0.621,0.306,0.896,1.062,0.593,1.691l-1.791,3.708
	c0.256,0.271,0.451,0.575,0.605,0.901l4.109-0.309c0.694-0.049,1.311,0.471,1.357,1.171c0.058,0.696-0.462,1.303-1.164,1.354
	l-4.115,0.311c-0.047,0.172-0.097,0.344-0.178,0.511c-0.08,0.166-0.183,0.315-0.284,0.464l2.323,3.404
	c0.393,0.578,0.243,1.367-0.339,1.762c-0.214,0.149-0.462,0.219-0.705,0.219c-0.412,0-0.802-0.189-1.058-0.554l-2.318-3.407
	c-0.353,0.085-0.713,0.119-1.078,0.09L428.482,402.861z M408.911,403.377c-0.222,0.149-0.472,0.221-0.712,0.221
	c-0.405,0-0.805-0.192-1.053-0.556l-2.326-3.404c-0.35,0.082-0.713,0.116-1.073,0.089l-1.789,3.706
	c-0.214,0.452-0.666,0.72-1.136,0.72c-0.193,0-0.371-0.043-0.554-0.126c-0.637-0.306-0.895-1.063-0.592-1.692l1.791-3.709
	c-0.256-0.267-0.455-0.573-0.608-0.9l-4.117,0.312c-0.029,0.001-0.063,0.001-0.091,0.001c-0.655,0-1.219-0.505-1.267-1.171
	c-0.049-0.698,0.47-1.307,1.175-1.36l4.099-0.305c0.052-0.173,0.11-0.344,0.193-0.512c0.081-0.169,0.183-0.319,0.282-0.465
	l-2.323-3.402c-0.389-0.578-0.24-1.367,0.332-1.761c0.582-0.396,1.368-0.248,1.762,0.334l2.329,3.404
	c0.353-0.085,0.713-0.117,1.079-0.089l1.786-3.709c0.303-0.63,1.057-0.894,1.689-0.591c0.635,0.306,0.894,1.062,0.59,1.692
	l-1.783,3.704c0.248,0.271,0.452,0.577,0.611,0.902l4.099-0.308c0.703-0.051,1.309,0.469,1.365,1.166
	c0.056,0.701-0.47,1.31-1.172,1.363l-4.102,0.305c-0.052,0.173-0.109,0.344-0.19,0.512c-0.083,0.166-0.183,0.318-0.279,0.465
	l2.318,3.402C409.638,402.193,409.483,402.982,408.911,403.377z M397.748,418.426c0.047,0.699-0.473,1.307-1.17,1.357l-4.109,0.311
	c-0.05,0.173-0.102,0.344-0.178,0.513c-0.083,0.165-0.183,0.313-0.295,0.462l2.326,3.404c0.397,0.577,0.248,1.367-0.334,1.762
	c-0.219,0.148-0.462,0.219-0.715,0.219c-0.399,0-0.804-0.193-1.044-0.554l-2.321-3.407c-0.35,0.082-0.715,0.117-1.086,0.092
	l-1.78,3.703c-0.222,0.455-0.674,0.719-1.146,0.719c-0.177,0-0.371-0.041-0.548-0.127c-0.627-0.301-0.896-1.059-0.587-1.689
	l1.78-3.707c-0.25-0.27-0.452-0.573-0.6-0.9l-4.115,0.311c-0.029,0.002-0.058,0.002-0.097,0.002c-0.655,0-1.209-0.505-1.261-1.171
	c-0.047-0.698,0.478-1.307,1.17-1.36l4.109-0.305c0.047-0.174,0.102-0.347,0.183-0.512c0.078-0.169,0.178-0.318,0.29-0.468
	l-2.321-3.401c-0.404-0.58-0.253-1.367,0.332-1.762c0.575-0.393,1.368-0.248,1.757,0.332l2.323,3.409
	c0.353-0.085,0.713-0.12,1.073-0.089l1.791-3.709c0.303-0.634,1.063-0.896,1.7-0.594c0.619,0.303,0.896,1.062,0.582,1.692
	l-1.78,3.707c0.253,0.269,0.452,0.573,0.605,0.899l4.109-0.305C397.082,417.213,397.695,417.729,397.748,418.426z M533.136,352.419
	c-0.029,0-0.063-0.001-0.092-0.004l-4.109-0.308c-0.164,0.327-0.353,0.634-0.603,0.901l1.775,3.708
	c0.313,0.63,0.044,1.386-0.593,1.688c-0.173,0.088-0.36,0.128-0.544,0.128c-0.47,0-0.924-0.265-1.143-0.717l-1.791-3.709
	c-0.36,0.029-0.724-0.004-1.073-0.088l-2.324,3.406c-0.25,0.361-0.64,0.557-1.044,0.557c-0.251,0-0.501-0.073-0.713-0.222
	c-0.582-0.395-0.736-1.182-0.342-1.761l2.318-3.402c-0.1-0.151-0.195-0.299-0.276-0.467c-0.084-0.166-0.131-0.34-0.193-0.51
	l-4.102-0.308c-0.702-0.052-1.228-0.659-1.165-1.358c0.05-0.699,0.656-1.217,1.358-1.169l4.109,0.306
	c0.148-0.324,0.353-0.631,0.603-0.895l-1.791-3.71c-0.297-0.63-0.039-1.386,0.598-1.692c0.63-0.303,1.384-0.036,1.688,0.592
	l1.785,3.709c0.376-0.029,0.736,0.004,1.089,0.088l2.318-3.406c0.395-0.58,1.18-0.73,1.763-0.334
	c0.571,0.395,0.72,1.182,0.331,1.761l-2.323,3.401c0.102,0.148,0.201,0.299,0.284,0.465c0.081,0.166,0.139,0.34,0.19,0.512
	l4.109,0.307c0.694,0.05,1.22,0.658,1.165,1.357C534.352,351.912,533.799,352.419,533.136,352.419z M499.944,356.83l1.791,3.705
	c0.303,0.63,0.045,1.386-0.593,1.691c-0.183,0.084-0.36,0.125-0.553,0.125c-0.471,0-0.922-0.265-1.137-0.717l-1.788-3.705
	c-0.37,0.027-0.73-0.008-1.083-0.092l-2.324,3.409c-0.24,0.359-0.64,0.552-1.044,0.552c-0.24,0-0.491-0.07-0.713-0.22
	c-0.571-0.392-0.726-1.182-0.331-1.761l2.318-3.404c-0.1-0.146-0.196-0.297-0.279-0.463c-0.081-0.168-0.139-0.342-0.191-0.512
	l-4.109-0.309c-0.694-0.053-1.219-0.661-1.164-1.357c0.047-0.697,0.658-1.215,1.355-1.17l4.109,0.309
	c0.159-0.326,0.352-0.631,0.603-0.898l-1.78-3.708c-0.309-0.63-0.039-1.39,0.595-1.692c0.622-0.303,1.387-0.037,1.689,0.592
	l1.786,3.709c0.365-0.029,0.726,0.006,1.078,0.088l2.318-3.406c0.396-0.577,1.19-0.73,1.762-0.334
	c0.583,0.395,0.731,1.184,0.343,1.761l-2.324,3.404c0.1,0.149,0.201,0.296,0.282,0.462c0.084,0.168,0.131,0.34,0.181,0.512
	l4.111,0.309c0.705,0.053,1.225,0.658,1.175,1.359c-0.047,0.664-0.61,1.172-1.266,1.172c-0.029,0-0.063-0.002-0.1-0.004
	l-4.109-0.306C500.398,356.257,500.2,356.56,499.944,356.83z M478.402,377.508c-0.102-0.148-0.203-0.297-0.284-0.465
	c-0.081-0.166-0.13-0.34-0.193-0.512l-4.099-0.307c-0.702-0.053-1.227-0.661-1.175-1.357c0.058-0.701,0.674-1.217,1.368-1.172
	l4.109,0.309c0.148-0.325,0.35-0.633,0.601-0.896l-1.786-3.711c-0.303-0.63-0.042-1.389,0.593-1.691s1.387-0.039,1.689,0.592
	l1.791,3.708c0.36-0.028,0.72,0.004,1.073,0.089l2.318-3.407c0.404-0.579,1.188-0.728,1.77-0.334
	c0.574,0.394,0.724,1.185,0.332,1.761l-2.318,3.402c0.096,0.148,0.198,0.299,0.279,0.467c0.08,0.166,0.138,0.34,0.193,0.51
	l4.099,0.307c0.702,0.052,1.227,0.66,1.175,1.359c-0.05,0.665-0.611,1.173-1.267,1.173c-0.028,0-0.058-0.003-0.091-0.004
	l-4.109-0.306c-0.16,0.324-0.36,0.631-0.611,0.896l1.786,3.708c0.303,0.63,0.042,1.389-0.593,1.694
	c-0.17,0.084-0.36,0.125-0.543,0.125c-0.473,0-0.925-0.268-1.146-0.719l-1.785-3.706c-0.366,0.026-0.727-0.007-1.079-0.089
	l-2.318,3.404c-0.256,0.363-0.645,0.557-1.06,0.557c-0.24,0-0.491-0.072-0.71-0.223c-0.575-0.395-0.724-1.182-0.335-1.761
	L478.402,377.508z M492.428,403.833l1.791,3.709c0.303,0.63,0.029,1.385-0.593,1.69c-0.183,0.085-0.373,0.123-0.553,0.123
	c-0.471,0-0.922-0.262-1.144-0.715l-1.781-3.705c-0.37,0.029-0.73-0.008-1.083-0.09l-2.323,3.408
	c-0.24,0.358-0.646,0.553-1.045,0.553c-0.24,0-0.49-0.069-0.713-0.221c-0.576-0.396-0.726-1.182-0.331-1.76l2.318-3.404
	c-0.11-0.148-0.212-0.295-0.293-0.463c-0.078-0.168-0.13-0.34-0.177-0.514l-4.109-0.308c-0.695-0.052-1.22-0.659-1.17-1.359
	c0.052-0.698,0.674-1.212,1.357-1.167l4.112,0.309c0.151-0.328,0.353-0.631,0.603-0.9l-1.791-3.708
	c-0.297-0.63-0.028-1.388,0.593-1.692c0.635-0.303,1.392-0.037,1.697,0.596l1.78,3.705c0.371-0.031,0.734,0.005,1.089,0.088
	l2.318-3.408c0.397-0.578,1.175-0.727,1.763-0.332c0.582,0.393,0.721,1.182,0.326,1.761l-2.318,3.404
	c0.109,0.147,0.211,0.296,0.292,0.465c0.079,0.166,0.131,0.339,0.181,0.513l4.109,0.306c0.691,0.052,1.217,0.662,1.169,1.358
	c-0.055,0.668-0.608,1.173-1.258,1.173c-0.031,0-0.07,0-0.1-0.003l-4.114-0.311C492.883,403.262,492.679,403.564,492.428,403.833z
	 M529.969,253.823c-0.131,0.59-0.655,0.987-1.228,0.987c-0.102,0-0.188-0.012-0.29-0.034l-4.012-0.914
	c-0.199,0.303-0.452,0.565-0.742,0.789l1.214,3.939c0.212,0.668-0.159,1.381-0.833,1.585c-0.119,0.039-0.25,0.056-0.37,0.056
	c-0.543,0-1.044-0.35-1.209-0.893l-1.217-3.936c-0.177-0.013-0.36-0.024-0.54-0.065c-0.183-0.043-0.35-0.108-0.522-0.176
	l-2.796,3.019c-0.251,0.271-0.593,0.405-0.935,0.405c-0.298,0-0.611-0.111-0.852-0.336c-0.514-0.477-0.543-1.278-0.073-1.79
	l2.807-3.024c-0.164-0.322-0.273-0.667-0.331-1.033l-4.011-0.914c-0.681-0.157-1.106-0.835-0.958-1.519
	c0.159-0.681,0.833-1.107,1.517-0.95l4.023,0.914c0.201-0.308,0.452-0.568,0.731-0.791l-1.212-3.941
	c-0.203-0.669,0.168-1.377,0.841-1.583c0.666-0.208,1.376,0.168,1.58,0.836l1.216,3.935c0.178,0.014,0.361,0.029,0.541,0.069
	c0.183,0.039,0.355,0.108,0.515,0.173l2.804-3.022c0.473-0.513,1.276-0.542,1.791-0.068c0.509,0.479,0.538,1.281,0.067,1.792
	l-2.807,3.022c0.165,0.325,0.274,0.672,0.324,1.035l4.021,0.914C529.707,252.461,530.128,253.14,529.969,253.823z M512.711,270.11
	c0.512,0.477,0.546,1.279,0.073,1.792l-2.807,3.022c0.159,0.325,0.271,0.671,0.324,1.031l4.007,0.915
	c0.685,0.157,1.118,0.834,0.953,1.518c-0.13,0.589-0.649,0.987-1.232,0.987c-0.091,0-0.183-0.013-0.281-0.031l-4.011-0.915
	c-0.201,0.303-0.451,0.565-0.744,0.79l1.217,3.938c0.212,0.671-0.172,1.381-0.838,1.586c-0.131,0.038-0.251,0.055-0.371,0.055
	c-0.543,0-1.044-0.349-1.216-0.893l-1.215-3.938c-0.172-0.012-0.35-0.023-0.532-0.065c-0.178-0.043-0.353-0.108-0.524-0.172
	l-2.791,3.019c-0.251,0.269-0.593,0.404-0.935,0.404c-0.312,0-0.616-0.11-0.864-0.337c-0.512-0.477-0.546-1.277-0.061-1.79
	l2.802-3.024c-0.159-0.322-0.269-0.668-0.332-1.033l-4.007-0.916c-0.685-0.154-1.107-0.834-0.953-1.516
	c0.159-0.683,0.833-1.11,1.514-0.956l4.011,0.917c0.211-0.306,0.462-0.565,0.744-0.789l-1.217-3.941
	c-0.201-0.671,0.172-1.378,0.846-1.586c0.661-0.204,1.379,0.168,1.574,0.841l1.217,3.933c0.183,0.015,0.363,0.029,0.546,0.069
	c0.178,0.039,0.342,0.108,0.509,0.173l2.807-3.021C511.393,269.665,512.197,269.636,512.711,270.11z M515.455,304.945l1.217,3.939
	c0.211,0.666-0.172,1.379-0.838,1.586c-0.128,0.036-0.248,0.056-0.379,0.056c-0.535,0-1.034-0.351-1.209-0.894l-1.211-3.934
	c-0.183-0.018-0.36-0.029-0.543-0.069c-0.186-0.04-0.342-0.108-0.518-0.174l-2.791,3.019c-0.25,0.269-0.59,0.405-0.932,0.405
	c-0.313,0-0.616-0.11-0.867-0.337c-0.514-0.479-0.543-1.28-0.063-1.792l2.797-3.022c-0.149-0.324-0.27-0.669-0.324-1.032
	l-4.008-0.913c-0.684-0.157-1.117-0.836-0.958-1.519c0.154-0.685,0.849-1.112,1.522-0.953l4.008,0.914
	c0.2-0.306,0.462-0.567,0.746-0.792l-1.219-3.937c-0.212-0.668,0.175-1.38,0.832-1.584c0.674-0.208,1.376,0.168,1.588,0.834
	l1.219,3.937c0.184,0.012,0.36,0.026,0.543,0.067c0.178,0.042,0.343,0.108,0.51,0.173l2.807-3.02
	c0.473-0.51,1.273-0.542,1.791-0.065c0.509,0.474,0.543,1.275,0.058,1.79l-2.791,3.024c0.148,0.323,0.269,0.667,0.321,1.032
	l4.01,0.914c0.682,0.156,1.115,0.836,0.95,1.519c-0.128,0.587-0.647,0.984-1.235,0.984c-0.086,0-0.188-0.009-0.279-0.028
	l-4.007-0.92C515.988,304.463,515.74,304.72,515.455,304.945z M535.498,304.953c-0.214-0.666,0.157-1.375,0.83-1.583
	c0.666-0.206,1.379,0.169,1.58,0.838l1.217,3.937c0.18,0.012,0.362,0.025,0.54,0.067c0.183,0.038,0.355,0.108,0.515,0.173
	l2.807-3.02c0.48-0.512,1.273-0.543,1.783-0.07c0.514,0.479,0.545,1.279,0.072,1.793l-2.807,3.021
	c0.165,0.328,0.274,0.672,0.335,1.033l4.013,0.916c0.674,0.154,1.102,0.833,0.942,1.516c-0.131,0.589-0.655,0.986-1.228,0.986
	c-0.102,0-0.193-0.012-0.279-0.031l-4.013-0.914c-0.211,0.303-0.462,0.564-0.741,0.789l1.214,3.938
	c0.201,0.669-0.17,1.379-0.843,1.583c-0.12,0.041-0.251,0.059-0.371,0.059c-0.543,0-1.044-0.35-1.209-0.894l-1.217-3.936
	c-0.178-0.012-0.36-0.024-0.537-0.067c-0.184-0.041-0.353-0.106-0.515-0.173l-2.807,3.02c-0.251,0.269-0.593,0.403-0.935,0.403
	c-0.298,0-0.611-0.109-0.852-0.337c-0.514-0.477-0.543-1.276-0.07-1.79l2.804-3.024c-0.164-0.322-0.273-0.665-0.32-1.031
	l-4.023-0.915c-0.685-0.156-1.102-0.834-0.953-1.518c0.162-0.684,0.833-1.107,1.515-0.951l4.022,0.914
	c0.204-0.309,0.452-0.568,0.731-0.791L535.498,304.953z M446.7,188.062c0.554-0.438,1.347-0.347,1.791,0.201
	c0.434,0.544,0.342,1.343-0.204,1.779l-3.214,2.566c0.112,0.348,0.149,0.712,0.149,1.073l3.84,1.506
	c0.655,0.255,0.977,0.99,0.713,1.644c-0.188,0.496-0.674,0.804-1.175,0.804c-0.159,0-0.313-0.03-0.462-0.09l-3.841-1.504
	c-0.12,0.133-0.24,0.265-0.378,0.382c-0.154,0.116-0.303,0.205-0.463,0.294l0.611,4.074c0.109,0.691-0.371,1.335-1.063,1.441
	c-0.063,0.009-0.123,0.012-0.193,0.012c-0.616,0-1.156-0.45-1.248-1.078l-0.61-4.076c-0.366-0.077-0.697-0.202-1.016-0.385
	l-3.22,2.565c-0.229,0.186-0.509,0.277-0.793,0.277c-0.371,0-0.731-0.164-0.982-0.479c-0.441-0.548-0.35-1.342,0.199-1.781
	l3.219-2.565c-0.109-0.354-0.164-0.711-0.164-1.073l-3.841-1.505c-0.64-0.256-0.961-0.992-0.71-1.644
	c0.258-0.653,0.994-0.973,1.649-0.715l3.825,1.501c0.12-0.132,0.245-0.264,0.395-0.38c0.141-0.115,0.303-0.205,0.454-0.296
	l-0.616-4.07c-0.097-0.693,0.373-1.338,1.067-1.443c0.682-0.104,1.337,0.373,1.438,1.065l0.622,4.077
	c0.35,0.077,0.691,0.203,1.005,0.387L446.7,188.062z M456.744,214.877c0.553-0.436,1.347-0.347,1.775,0.198
	c0.44,0.55,0.35,1.346-0.199,1.783l-3.208,2.565c0.109,0.348,0.153,0.71,0.153,1.073l3.841,1.506
	c0.647,0.257,0.972,0.991,0.71,1.644c-0.19,0.498-0.674,0.806-1.178,0.806c-0.158,0-0.308-0.032-0.462-0.089l-3.835-1.506
	c-0.125,0.133-0.245,0.265-0.395,0.38c-0.141,0.116-0.303,0.208-0.451,0.293l0.613,4.074c0.097,0.693-0.373,1.339-1.067,1.444
	c-0.058,0.009-0.128,0.014-0.19,0.014c-0.611,0-1.157-0.45-1.248-1.078l-0.622-4.078c-0.35-0.077-0.691-0.205-1.005-0.388
	l-3.214,2.565c-0.229,0.188-0.515,0.277-0.794,0.277c-0.376,0-0.746-0.163-0.986-0.477c-0.444-0.545-0.35-1.344,0.193-1.78
	l3.224-2.568c-0.112-0.351-0.159-0.709-0.159-1.073l-3.84-1.504c-0.656-0.257-0.967-0.994-0.713-1.644
	c0.25-0.654,0.992-0.971,1.637-0.717l3.841,1.506c0.12-0.134,0.24-0.265,0.389-0.38c0.144-0.119,0.303-0.208,0.452-0.296
	l-0.611-4.076c-0.1-0.69,0.371-1.338,1.065-1.441c0.691-0.106,1.337,0.371,1.438,1.063l0.624,4.077
	c0.353,0.081,0.694,0.206,1.002,0.389L456.744,214.877z M479.402,231.488l3.841,1.503c0.655,0.258,0.977,0.989,0.713,1.644
	c-0.188,0.499-0.668,0.804-1.175,0.804c-0.148,0-0.313-0.026-0.462-0.086l-3.841-1.506c-0.12,0.132-0.24,0.266-0.379,0.382
	c-0.151,0.115-0.305,0.205-0.462,0.294l0.611,4.073c0.109,0.69-0.371,1.335-1.065,1.441c-0.063,0.011-0.12,0.012-0.19,0.012
	c-0.611,0-1.157-0.446-1.248-1.077l-0.611-4.074c-0.35-0.08-0.691-0.204-1.016-0.389l-3.214,2.566
	c-0.234,0.186-0.514,0.277-0.799,0.277c-0.37,0-0.73-0.163-0.981-0.478c-0.441-0.547-0.35-1.343,0.201-1.78l3.217-2.565
	c-0.112-0.352-0.165-0.713-0.165-1.073l-3.835-1.506c-0.645-0.254-0.966-0.991-0.716-1.644c0.264-0.651,0.995-0.973,1.65-0.714
	l3.83,1.501c0.12-0.133,0.24-0.262,0.389-0.378c0.142-0.115,0.303-0.207,0.452-0.298l-0.611-4.071
	c-0.099-0.693,0.371-1.338,1.065-1.444c0.682-0.106,1.337,0.373,1.446,1.066l0.613,4.078c0.351,0.077,0.692,0.202,1.006,0.388
	l3.214-2.568c0.553-0.435,1.347-0.346,1.791,0.203c0.431,0.548,0.339,1.344-0.204,1.78l-3.214,2.566
	C479.363,230.767,479.402,231.125,479.402,231.488z M491.183,214.186c0.261-0.654,0.997-0.974,1.65-0.717l3.827,1.501
	c0.125-0.129,0.253-0.263,0.395-0.377c0.148-0.115,0.303-0.206,0.462-0.293l-0.627-4.076c-0.097-0.69,0.387-1.338,1.068-1.444
	c0.694-0.101,1.339,0.374,1.448,1.066l0.611,4.076c0.353,0.08,0.694,0.206,1.016,0.389l3.214-2.564c0.543-0.438,1.339-0.35,1.78,0.2
	c0.434,0.548,0.342,1.345-0.201,1.779l-3.214,2.568c0.11,0.348,0.149,0.71,0.149,1.073l3.84,1.504
	c0.653,0.257,0.977,0.991,0.711,1.641c-0.188,0.501-0.674,0.807-1.173,0.807c-0.151,0-0.313-0.027-0.462-0.087l-3.841-1.507
	c-0.12,0.136-0.239,0.268-0.381,0.383c-0.154,0.116-0.303,0.208-0.462,0.293l0.611,4.077c0.111,0.691-0.371,1.337-1.063,1.439
	c-0.063,0.009-0.12,0.017-0.183,0.017c-0.621,0-1.164-0.45-1.256-1.078l-0.61-4.078c-0.353-0.08-0.697-0.205-1.016-0.39l-3.22,2.568
	c-0.232,0.185-0.512,0.276-0.785,0.276c-0.368,0-0.739-0.163-0.99-0.474c-0.433-0.548-0.357-1.346,0.196-1.783l3.219-2.568
	c-0.109-0.349-0.161-0.711-0.153-1.073l-3.836-1.504C491.256,215.572,490.932,214.835,491.183,214.186z M407.674,236.478
	c-3.083-3.19-8.299-3.625-11.654-0.63c-3.117,2.779-4.023,6.172-4.023,9.904c-3.527-2.159-7.433-3.441-11.576-1.572
	c-5.096,2.3-5.909,7.485-4.109,12.358c4.229,11.479,20.403,2.832,26.471,12.184c0.052,0.065,0.092,0.113,0.139,0.171
	c0.044,0.089,0.073,0.177,0.12,0.269c1.136,2.293,4.566,0.279,3.431-2.007c-2.987-6.01,1.425-12.131,3.679-17.527
	C412.262,244.579,411.485,240.421,407.674,236.478z M406.097,249.033c-1.998,4.323-4.261,8.787-4.462,13.377
	c-4.248-2.445-9.657-2.753-14.615-3.135c-4.801-0.368-8.709-3.59-7.506-8.921c0.684-3.044,4.976-3.487,7.386-2.818
	c2.042,0.571,4.052,2.192,5.733,3.438c0.441,0.328,0.87,0.417,1.264,0.356c1.165,0.274,2.483-0.322,2.311-1.824
	c-0.491-4.259-0.775-8.433,3.138-11.191c2.963-2.087,6.12,1.212,7.524,3.48C408.279,244.062,407.084,246.884,406.097,249.033z
	 M348.078,298.063c-1.738,4.68,0.129,8.755,4.403,11.125c12.651,7.019,16.914-13.151,28.592-12.179
	c0.01,0.003,0.021,0.005,0.021,0.009c2.501,0.525,3.563-3.305,1.052-3.833c-11.558-2.432-8.873-20.513-22.077-20.252
	c-4.355,0.09-8.917,3.001-9.128,7.702c-0.211,4.685,2.012,7.864,5.207,10.455C352.639,292.351,349.482,294.29,348.078,298.063z
	 M360.439,293.932c0.294-0.076,0.525-0.199,0.713-0.347c1.279-0.556,1.89-2.613,0.321-3.593c-3.585-2.247-8.45-5.924-6.028-10.793
	c1.173-2.377,4.821-2.548,7.054-2.151c2.01,0.356,3.237,1.995,4.219,3.612c2.724,4.487,4.596,9.882,8.383,13.303
	c-4.61,1.85-8.229,6.037-11.669,9.647c-3.205,3.381-9.807,4.628-11.958-0.89C349.434,297.46,356.884,294.875,360.439,293.932z
	 M389.438,331.566c0.076-0.063,0.159-0.115,0.24-0.18c1.977-1.629-0.856-4.426-2.814-2.806c-8.884,7.333-21.256-5.983-29.177,4.22
	c-3.128,4.025-3.185,9.136,0.684,12.612c3.166,2.851,7.103,2.882,10.904,2.005c-1.155,3.454-1.467,6.787,0.289,10.473
	c2.502,5.255,8.403,5.385,12.917,2.936c11.446-6.207-1.026-20.933,6.822-29.094C389.354,331.68,389.383,331.621,389.438,331.566z
	 M377.076,358.567c-3.192,0.334-4.726-3.354-4.967-5.872c-0.211-2.1,1.107-4.795,1.93-6.657c0.15-0.341,0.193-0.677,0.168-0.991
	c0.444-1.378-0.571-3.168-2.309-2.557c-4.109,1.446-10.664,3.135-12.544-2.466c-0.853-2.544,1.669-5.563,3.609-6.846
	c1.707-1.13,4.09-0.69,5.952-0.327c4.812,0.945,9.796,2.288,14.44,1.455c-1.386,4.502-0.626,9.622,0.12,14.333
	C384.24,353.459,382.71,357.978,377.076,358.567z M417.699,346.537c0.076,6.816-6.537,10.615-11.106,14.502
	c-3.989,3.387-4.968,7.759-3.316,12.645c1.515,4.509,5.624,6.586,10.138,5.796c4.028-0.704,6.409-3.77,8.041-7.2
	c2.031,3.159,4.635,5.771,8.671,6.304c5.448,0.722,9.075-2.811,9.999-7.993c2.363-13.086-16.729-12.558-18.458-23.93
	c0-0.041,0.011-0.08,0-0.123C421.634,343.977,417.666,343.975,417.699,346.537z M432.408,362.609
	c3.83,2.334,5.457,6.948,2.382,10.822c-1.919,2.424-5.938,1.213-7.866-0.479c-1.616-1.418-2.716-3.687-3.702-5.565
	c-0.1-0.196-0.22-0.345-0.351-0.479c-0.765-1.197-3.075-1.323-3.704,0.477c-1.368,3.948-4.535,10.457-9.896,7.892
	c-4.921-2.36-2.809-8.735,0.136-11.431c3.733-3.421,8.219-6.428,10.601-10.702C422.913,357.352,428.049,359.951,432.408,362.609z
	 M471.377,328.633c-5.621,1.863-11.91,5.736-17.742,2.234c-0.058-0.039-0.12-0.059-0.188-0.088
	c-0.081-0.066-0.154-0.135-0.229-0.199c-2.042-1.554-4.016,1.897-2.003,3.429c9.177,7.007-1.208,22.106,10.663,27.534
	c4.615,2.107,9.597,0.948,12.069-3.582c2.031-3.717,1.188-7.529-0.509-11.021c3.646,0.354,6.971-0.118,10.189-2.662
	c3.869-3.054,3.869-8.776,0.713-12.326C480.692,327.846,476.531,326.928,471.377,328.633z M477.867,343.019
	c-1.991,0.67-4.937-0.063-6.905-0.437c-0.342-0.068-0.655-0.047-0.932,0.028c-1.431-0.104-2.938,1.357-1.94,2.921
	c2.301,3.656,5.755,11.094-0.598,13.025c-2.438,0.742-5.743-1.087-7.102-3.055c-1.033-1.492-1.033-3.559-1.078-5.293
	c-0.109-4.808,0.011-9.831-1.796-14.076c4.702,0.34,9.54-1.561,13.946-3.311c4.605-1.824,9.276-1.316,11.125,4.112
	C483.638,339.996,480.22,342.236,477.867,343.019z M490.167,279.659c-0.981-5.017-5.161-7.188-9.999-6.965
	c-13.305,0.619-8.151,19.241-18.853,23.226c-0.063,0.023-0.112,0.055-0.159,0.082c-0.112,0.021-0.212,0.041-0.324,0.067
	c-2.49,0.602-1.438,4.432,1.055,3.831c6.41-1.548,11.66,3.881,16.284,7.435c4.286,3.306,8.801,3.345,13.364,0.575
	c4.401-2.666,5.217-7.748,2.854-12.016c-1.796-3.238-4.953-4.642-8.331-5.375C488.922,287.58,491.034,284.076,490.167,279.659z
	 M480.852,289.94c-0.12,0.106-0.232,0.22-0.313,0.334c-1.044,0.97-0.582,3.359,1.348,3.575c4.292,0.474,9.702,1.662,9.971,6.978
	c0.164,3.11-4.162,5.094-6.649,5.271c-1.872,0.134-3.608-1.176-5.039-2.193c-4.052-2.892-7.921-6.413-12.511-7.711
	c3.479-3.775,4.893-9.263,6.563-14.257c1.425-4.276,6.613-7.438,10.73-4.155C489.585,281.471,483.685,287.507,480.852,289.94z
	 M438.481,268.546c-0.914,2.264,2.409,4.184,3.464,1.896c4.807-10.418,20.895-4.35,24.456-15.947
	c1.337-4.362-0.193-10.318-5.067-11.696c-4.601-1.304-8.242,0.12-11.524,2.705c-0.434-3.496-1.53-6.663-4.535-9.083
	c-4.041-3.253-8.934-2.223-12.239,1.429c-9.788,10.781,9.075,19.409,5.475,30.591C438.492,268.473,438.492,268.51,438.481,268.546z
	 M436.432,250.495c-2.744-3.999-3.396-9.648,2.117-11.943c2.694-1.122,5.235,1.53,6.462,3.55c1.117,1.826,0.997,4.784,1.078,6.857
	c0.011,0.328,0.092,0.612,0.212,0.857c0.25,1.383,2.049,2.463,3.354,1.162c2.997-3.016,10.412-8.354,12.963-1.806
	c1.771,4.568-1.838,8.044-5.736,9.163c-4.754,1.36-10.119,2.172-14.098,4.991C442.048,258.681,439.11,254.401,436.432,250.495z"/>
</svg>
