<?xml version="1.0" encoding="utf-8"?>
<!-- Generator: Adobe Illustrator 16.0.0, SVG Export Plug-In . SVG Version: 6.00 Build 0)  -->
<!DOCTYPE svg PUBLIC "-//W3C//DTD SVG 1.1//EN" "http://www.w3.org/Graphics/SVG/1.1/DTD/svg11.dtd">
<svg version="1.1" id="Layer_1" xmlns="http://www.w3.org/2000/svg" xmlns:xlink="http://www.w3.org/1999/xlink" x="0px" y="0px"
	 width="841.89px" height="595.28px" viewBox="0 0 841.89 595.28" enable-background="new 0 0 841.89 595.28" xml:space="preserve">
<path fill="#010101" d="M493.285,326.676c-28.93-35.608-40.541-82.653-75.947-113.338c-0.905-0.79-2.431-1.016-3.311,0
	c-24.812,28.793-45.253,62.155-61.898,96.416c-4.201,6.997-9.697,13.072-14.408,19.725c-0.813,1.146-0.034,3.213,1.392,3.432
	c50.675,7.98,101.77,1.463,152.512-2.25C493.762,330.509,494.59,328.273,493.285,326.676z M343.905,328.906
	c1.954-2.594,3.964-5.121,5.938-7.678c0.896,0.282,1.896,0.065,2.425-1.076c1.318-2.818,2.714-5.588,4.095-8.377
	c0.188-0.326,0.389-0.643,0.573-0.969c0.134-0.231,0.178-0.453,0.23-0.674c7.296-14.639,15.332-28.895,23.878-42.85
	c6.024-9.845,12.443-19.434,19.143-28.833c3.396-4.769,6.968-9.417,10.61-13.997c5.067-6.383,5.375-6.176,11.158-0.508
	c29.172,28.639,40.692,70.182,65.214,102.383C439.54,329.961,391.467,335.744,343.905,328.906z M491.625,255.249
	c-50.742-3.715-101.836-10.233-152.512-2.251c-1.426,0.221-2.205,2.275-1.392,3.425c4.711,6.655,10.207,12.735,14.408,19.735
	c16.645,34.257,37.086,67.614,61.898,96.414c0.88,1.013,2.406,0.782,3.311,0c35.406-30.68,47.018-77.73,75.947-113.333
	C494.59,257.63,493.762,255.403,491.625,255.249z M487.17,259.579c-24.521,32.203-36.042,73.75-65.214,102.376
	c-5.783,5.674-6.091,5.885-11.158-0.496c-3.642-4.582-7.214-9.231-10.61-13.994c-6.699-9.403-13.118-19.002-19.143-28.844
	c-8.546-13.95-16.582-28.207-23.878-42.845c-0.052-0.22-0.096-0.446-0.23-0.677c-0.184-0.328-0.385-0.645-0.573-0.967
	c-1.381-2.79-2.777-5.563-4.095-8.381c-0.53-1.13-1.53-1.352-2.425-1.065c-1.974-2.559-3.984-5.096-5.938-7.684
	C391.467,250.158,439.54,255.946,487.17,259.579z M373.229,237.579c-6.024,0-6.024-9.346,0-9.346S379.254,237.579,373.229,237.579z
	 M370.111,201.746c-6.024,0-6.024-9.348,0-9.348C376.146,192.398,376.146,201.746,370.111,201.746z M356.099,225.118
	c0,2.548-2.132,4.668-4.677,4.668h-1.564c-2.545,0-4.668-2.12-4.668-4.668c0-2.552,2.123-4.675,4.668-4.675h1.564
	C353.967,220.443,356.099,222.565,356.099,225.118z M351.422,380.9c-6.024,0-6.024-9.345,0-9.345
	C357.451,371.556,357.451,380.9,351.422,380.9z M370.111,362.209c-6.024,0-6.024-9.354,0-9.354
	C376.146,352.855,376.146,362.209,370.111,362.209z M381.025,402.717c-6.035,0-6.035-9.354,0-9.354
	C387.041,393.363,387.041,402.717,381.025,402.717z M466.709,359.093c0,2.547-2.132,4.667-4.678,4.667h-3.113
	c-2.545,0-4.677-2.12-4.677-4.667c0-2.548,2.132-4.677,4.677-4.677h3.113C464.577,354.416,466.709,356.545,466.709,359.093z
	 M454.241,401.156c-6.03,0-6.03-9.352,0-9.352C460.271,391.805,460.271,401.156,454.241,401.156z M460.477,237.579
	c-6.029,0-6.029-9.346,0-9.346C466.498,228.233,466.498,237.579,460.477,237.579z M504.089,309.237c-6.024,0-6.024-9.341,0-9.341
	C510.119,299.896,510.119,309.237,504.089,309.237z M340.507,295.217v1.559c0,2.545-2.116,4.673-4.667,4.673
	c-2.546,0-4.672-2.128-4.672-4.673v-1.559c0-2.543,2.126-4.668,4.672-4.668C338.392,290.549,340.507,292.674,340.507,295.217z"/>
</svg>
