<?xml version="1.0" encoding="utf-8"?>
<!-- Generator: Adobe Illustrator 16.0.0, SVG Export Plug-In . SVG Version: 6.00 Build 0)  -->
<!DOCTYPE svg PUBLIC "-//W3C//DTD SVG 1.1//EN" "http://www.w3.org/Graphics/SVG/1.1/DTD/svg11.dtd">
<svg version="1.1" id="Layer_1" xmlns="http://www.w3.org/2000/svg" xmlns:xlink="http://www.w3.org/1999/xlink" x="0px" y="0px"
	 width="841.89px" height="595.28px" viewBox="0 0 841.89 595.28" enable-background="new 0 0 841.89 595.28" xml:space="preserve">
<path fill="#010101" d="M433.896,326.461c-2.696,1.22-5.568,1.998-8.566,2.437c-3.045,28.93-4.764,61.268-4.764,97.474
	c0-36.206-1.694-68.544-4.726-97.474c-3.007-0.438-5.866-1.217-8.566-2.437c-45.624,35.429-94.864,78.794-147.824,131.746
	c52.959-52.952,96.327-102.176,131.752-147.852c-1.222-2.65-2.012-5.532-2.459-8.534c-28.916-3.039-61.243-4.731-97.478-4.731
	c36.235,0,68.562-1.729,97.478-4.759c0.448-3.014,1.237-5.856,2.459-8.543c-35.425-45.681-78.792-94.892-131.752-147.849
	c52.959,52.957,102.2,96.341,147.824,131.748c2.7-1.206,5.559-2.005,8.566-2.426c3.031-28.943,4.726-61.275,4.726-97.481
	c0,36.206,1.719,68.538,4.764,97.481c2.998,0.421,5.87,1.22,8.566,2.426c45.637-35.407,94.863-78.791,147.805-131.748
	c-52.941,52.957-96.308,102.168-131.762,147.849c1.23,2.687,2.021,5.529,2.469,8.543c28.939,3.03,61.256,4.759,97.467,4.759
	c-36.211,0-68.527,1.692-97.467,4.731c-0.448,3.002-1.238,5.884-2.469,8.534c35.454,45.676,78.82,94.899,131.762,147.852
	C528.76,405.255,479.533,361.89,433.896,326.461z"/>
</svg>
