<?xml version="1.0" encoding="utf-8"?>
<!-- Generator: Adobe Illustrator 16.0.0, SVG Export Plug-In . SVG Version: 6.00 Build 0)  -->
<!DOCTYPE svg PUBLIC "-//W3C//DTD SVG 1.1//EN" "http://www.w3.org/Graphics/SVG/1.1/DTD/svg11.dtd">
<svg version="1.1" id="Layer_1" xmlns="http://www.w3.org/2000/svg" xmlns:xlink="http://www.w3.org/1999/xlink" x="0px" y="0px"
	 width="841.89px" height="595.28px" viewBox="0 0 841.89 595.28" enable-background="new 0 0 841.89 595.28" xml:space="preserve">
<path fill="#010101" d="M535.775,247.889c-2.428-8.821-13.777-9.711-21.202-10.118c-15.569-0.845-32.032,3.287-47.385,1.523
	c-1.633-8.145-8.255-16.301-11.945-23.312c-5.133-9.75-10.476-22.889-21.511-27.112c-8.715-3.325-16.82,8.78-20.74,14.419
	c-3.917,5.642-8.134,11.04-12.089,16.653c-4.312,6.106-5.978,13.986-10.424,19.883c-4.003-0.731-8.004-0.149-12.085,0.428
	c-9.68,1.367-19.465,2.102-29.185,3.141c-9.723,1.042-20.495,2.548-28.14,9.147c-7.471,6.451-0.953,17.76,3.718,23.553
	c10.918,13.567,26.105,25.737,33.845,41.547c0.017,0.046,0.053,0.065,0.076,0.102c-7.564,10.266-15.522,27.291-16.462,39.613
	c-0.741,9.738,2.411,17.518,12.014,20.828c11.983,4.137,24.51-5.119,33.823-11.07c8.08-5.156,15.86-10.742,24.338-15.246
	c3.667-1.949,7.677-3.859,10.71-6.772c15.967,9.638,28.376,23.708,45.057,32.54c9.925,5.263,25.129,5.715,34.229-1.972
	c9.731-8.231,6.063-21.996,2.612-32.54c-1.938-5.918-4.621-11.647-7.292-17.261c-3.667-7.728-6.644-15.801-10.308-23.501
	c11.897-6.666,21.656-18.544,31.122-27.92C524.029,269.014,538.383,257.371,535.775,247.889z M509.008,277.244
	c-7.476,7.23-14.857,15.829-23.999,21.055c-1.321-0.693-3.115,0.342-3.326,1.9c-1.478,1.211-0.39,3.547,1.407,3.849
	c4.753,9.643,8.84,20.051,13.24,29.829c4.945,10.99,14.324,31.533,0.759,39.594c-25.62,15.217-51.58-19.879-71.558-32.411
	c-0.451-1.614-3.085-2.503-4.387-0.655c-4.244,6.024-14.765,9.231-20.889,13.172c-10.291,6.613-20.538,15.14-32.101,19.391
	c-14.501,5.318-23.088-4.731-20.649-18.848c1.783-10.336,8.787-25.723,15.379-34.253c0.813-1.048,0.607-2.289-0.034-3.134
	c0.08-0.453,0.065-0.941-0.183-1.454c-4.552-9.295-12.516-17.879-19.157-25.814c-6.393-7.631-30.896-26.11-16.325-35.728
	c7.067-4.669,17.641-5.251,25.808-6.06c6.436-0.638,12.872-1.333,19.311-1.99c5.85-0.594,12.16-2.469,17.99-1.097
	c0.493,0.322,1.061,0.451,1.631,0.288c1.279,0.034,2.104-1.01,2.192-2.155c3.85-5.247,5.708-11.624,8.847-17.338
	c4.334-7.875,10.707-14.901,15.837-22.282c5.772-8.312,16.046-11.316,22.813-1.473c2.842,4.141,5.209,8.699,7.641,13.082
	c3.91,7.049,13.179,19.005,13.631,27.265c0.113,2.077,2.363,2.69,3.697,1.891c18.408,1.98,37.279-3.715,55.941-0.584
	C542.528,246.625,512.955,273.426,509.008,277.244z M327.083,194.585c0,2.552-2.129,4.675-4.672,4.675h-1.561
	c-2.548,0-4.673-2.123-4.673-4.675c0-2.548,2.125-4.673,4.673-4.673h1.561C324.954,189.912,327.083,192.037,327.083,194.585z
	 M353.567,222.63c-6.027,0-6.027-9.351,0-9.351C359.597,213.28,359.597,222.63,353.567,222.63z M384.723,186.792
	c0,2.42-2.13,4.854-4.673,4.677c-1.755-0.12-3.128-0.619-4.458-1.773c-0.037-0.031-0.068-0.065-0.102-0.091
	c-1.852-0.644-3.231-2.222-3.231-4.368c0-2.415,2.132-4.848,4.675-4.672c1.754,0.12,3.126,0.619,4.459,1.772
	c0.033,0.027,0.064,0.06,0.098,0.092C383.343,183.068,384.723,184.646,384.723,186.792z M389.395,216.396
	c0,2.546-2.125,4.672-4.672,4.672h-1.56c-2.546,0-4.672-2.126-4.672-4.672c0-2.548,2.126-4.67,4.672-4.67h1.56
	C387.27,211.725,389.395,213.848,389.395,216.396z M294.366,269.365c-6.027,0-6.027-9.353,0-9.353
	C300.396,260.012,300.396,269.365,294.366,269.365z M334.873,308.311c-6.028,0-6.028-9.342,0-9.342S340.901,308.311,334.873,308.311
	z M297.482,336.352c-6.027,0-6.027-9.349,0-9.349C303.512,327.003,303.512,336.352,297.482,336.352z M323.965,372.179
	c-6.028,0-6.028-9.348,0-9.348S329.993,372.179,323.965,372.179z M358.239,406.455c-6.027,0-6.027-9.346,0-9.346
	C364.266,397.109,364.266,406.455,358.239,406.455z M413.929,374.597c0,3.296-2.868,5.171-5.837,5.378
	c-2.545,0.175-4.677-2.262-4.677-4.676c0-0.271,0.038-0.526,0.082-0.785c-0.044-0.245-0.082-0.508-0.082-0.771
	c0-2.418,2.131-4.85,4.677-4.674C411.186,369.279,413.929,371.235,413.929,374.597z M409.648,420.475c-6.027,0-6.027-9.346,0-9.346
	C415.676,411.129,415.676,420.475,409.648,420.475z M440.997,391.068c-1.803,1.8-4.811,1.8-6.612,0
	c-0.52-0.518-1.037-1.045-1.557-1.562c-1.799-1.8-1.799-4.81,0-6.609c1.797-1.8,4.811-1.8,6.606,0
	c0.521,0.517,1.043,1.039,1.563,1.559C442.795,386.254,442.795,389.264,440.997,391.068z M453.271,440.732
	c-0.239,3.479-2.661,6.146-6.231,6.227c-2.551,0.063-4.673-2.162-4.673-4.669c0-1.718,0.945-3.176,2.314-3.983
	c0.798-1.333,2.167-2.248,3.917-2.248C451.011,436.059,453.441,438.185,453.271,440.732z M476.637,401.783
	c0,2.547-2.126,4.672-4.672,4.672h-1.559c-2.548,0-4.674-2.125-4.674-4.672c0-2.549,2.126-4.674,4.674-4.674h1.559
	C474.511,397.109,476.637,399.234,476.637,401.783z M523.374,390.879v1.556c0,2.548-2.126,4.675-4.675,4.675
	c-2.551,0-4.672-2.127-4.672-4.675v-1.556c0-2.549,2.121-4.676,4.672-4.676C521.248,386.203,523.374,388.33,523.374,390.879z
	 M533.718,338.992c-0.729,2.649-3.185,3.583-5.673,3.59c-2.546,0.01-4.671-2.127-4.671-4.675c0-0.286,0.031-0.563,0.086-0.839
	c-0.218-1.428,0.202-2.939,1.283-4.019c1.798-1.8,4.812-1.8,6.606,0C532.97,334.666,534.389,336.549,533.718,338.992z
	 M521.815,300.52c0,2.544-2.125,4.676-4.673,4.676c-3.089-0.006-5.683-0.785-7.978-2.927c-1.863-1.744-1.757-4.852,0-6.613
	c1.845-1.839,4.749-1.737,6.608,0c0.041,0.041,0.053,0.063,0.084,0.086c0.092,0.037,0.183,0.069,0.268,0.097
	c0.031,0,0.041-0.005,0.082,0c0.313,0.004,0.623,0.009,0.936,0.009C519.69,295.853,521.815,297.967,521.815,300.52z
	 M436.322,157.383c-1.8,1.8-4.808,1.8-6.61,0c-0.52-0.517-1.036-1.039-1.559-1.556c-1.798-1.8-1.798-4.81,0-6.614
	c1.8-1.797,4.81-1.797,6.609,0c0.52,0.525,1.038,1.047,1.56,1.564C438.121,152.576,438.121,155.585,436.322,157.383z
	 M485.984,189.912c-6.029,0-6.029-9.347,0-9.347C492.012,180.565,492.012,189.912,485.984,189.912z M490.657,219.509
	c0,2.548-2.122,4.68-4.673,4.68h-1.559c-2.548,0-4.673-2.132-4.673-4.68c0-2.545,2.125-4.668,4.673-4.668h1.559
	C488.535,214.841,490.657,216.964,490.657,219.509z M535.836,219.509v1.559c0,2.548-2.123,4.677-4.674,4.677
	c-2.549,0-4.672-2.129-4.672-4.677v-1.559c0-2.545,2.123-4.668,4.672-4.668C533.713,214.841,535.836,216.964,535.836,219.509z
	 M548.298,253.781c-6.026,0-6.026-9.346,0-9.346C554.325,244.436,554.325,253.781,548.298,253.781z"/>
</svg>
