<?xml version="1.0" encoding="utf-8"?>
<!-- Generator: Adobe Illustrator 16.0.0, SVG Export Plug-In . SVG Version: 6.00 Build 0)  -->
<!DOCTYPE svg PUBLIC "-//W3C//DTD SVG 1.1//EN" "http://www.w3.org/Graphics/SVG/1.1/DTD/svg11.dtd">
<svg version="1.1" id="Layer_1" xmlns="http://www.w3.org/2000/svg" xmlns:xlink="http://www.w3.org/1999/xlink" x="0px" y="0px"
	 width="841.89px" height="595.28px" viewBox="0 0 841.89 595.28" enable-background="new 0 0 841.89 595.28" xml:space="preserve">
<path d="M399.943,270.179l-18.68-1.49l-6.938-16.979c-1.069-3.315-5.765-3.521-7.151-0.216l-7.151,17.299l-18.469,1.386
	c-3.311,0.112-4.908,4.379-2.343,6.626l14.296,12.172l-4.374,17.832c-1.064,3.305,2.565,6.3,5.659,4.378l15.904-9.824l15.591,9.61
	c2.771,2.136,6.828-0.426,5.976-3.841l-4.378-18.263l13.983-11.853C404.646,274.881,403.467,270.396,399.943,270.179z
	 M381.158,284.596c-1.174,1.073-1.598,2.671-1.068,4.167l2.671,11.213l-10.033-6.197c-1.387-0.852-2.994-0.747-4.167,0.106
	l-9.928,6.091l2.777-11.425c0.317-1.6-0.211-3.099-1.492-3.955l-8.752-7.579l11.74-0.856c1.604-0.104,2.883-1.279,3.311-2.676
	l4.48-10.673l4.379,10.89c0.634,1.498,2.026,2.354,3.417,2.354l11.74,0.961L381.158,284.596z M343.48,62.274
	c-45.903,92.578-75.039,267.921-74.083,366.909c0.106,4.697,7.151,5.016,7.579,0.313c14.73-98.878,52.202-245.487,102.155-341.598
	l16.438,10.143c2.778,2.031,6.723-0.527,5.866-3.939l-6.616-27.555l21.351-18.051c2.771-2.131,1.496-6.621-2.026-6.827
	l-28.185-2.243l-10.562-25.844c-1.073-3.311-5.77-3.524-7.156-0.214l-10.779,26.165l-27.968,2.136
	c-3.416,0.107-5.018,4.373-2.348,6.621L343.48,62.274z M278.469,376.431c5.553-86.287,30.854-223.285,69.062-304.864l-5.437,22.212
	c-1.068,3.308,2.56,6.295,5.548,4.48l24.122-14.84l0.964,0.535C328.851,168.53,296.081,287.055,278.469,376.431z M360.34,46.902
	c1.498-0.107,2.777-1.181,3.312-2.671l8.111-19.542l8.115,19.758c0.528,1.384,1.919,2.348,3.31,2.348l21.24,1.702l-16.226,13.777
	c-1.28,1.07-1.598,2.671-1.175,4.167l4.908,20.5l-18.141-11.206c-1.279-0.856-2.993-0.757-4.167,0.104l-18.143,11.102l5.121-20.715
	c0.323-1.493-0.317-3.096-1.497-3.952l-16.115-13.777L360.34,46.902z M576.498,365.975l-38.958-3l-14.73-35.769
	c-1.073-3.414-5.765-3.631-7.151-0.326l-14.95,36.207l-38.636,2.888c-3.422,0.096-5.02,4.373-2.354,6.723l13.138,11.21
	c-75.154,19.221-148.164,82.647-171.756,152.591c-1.598,4.701,5.442,7.044,7.039,2.459
	c32.993-71.439,102.482-112.661,177.411-124.723l-5.226,21.466c-1.067,3.306,2.561,6.295,5.553,4.373l33.411-20.502l32.876,20.291
	c2.883,2.133,6.832-0.429,5.981-3.846l-9.183-38.12l29.566-25.096C581.31,370.771,580.02,366.282,576.498,365.975z M487.476,406.332
	c-51.345,7.686-100.871,28.719-138.981,64.39c32.346-37.053,81.449-69.304,131.514-80.731l9.498,8.117L487.476,406.332z
	 M542.342,393.622c-1.28,1.068-1.598,2.671-1.174,4.167l7.469,31.073l-27.322-16.87c-1.387-0.862-2.984-0.747-4.164,0.104
	l-27.326,16.767l7.573-31.29c0.328-1.49-0.212-3.094-1.487-3.95l-24.338-20.821l32.023-2.347c1.598-0.106,2.877-1.175,3.305-2.671
	l12.276-29.58l12.171,29.786c0.639,1.395,1.92,2.248,3.421,2.358l32.019,2.453L542.342,393.622z M472.317,320.157l16.543,10.245
	c2.772,2.036,6.834-0.423,5.978-3.945l-5.438-22.641l17.501-14.84c2.777-2.138,1.498-6.618-2.025-6.835l-23.164-1.814l-8.749-21.249
	c-1.073-3.311-5.765-3.527-7.049-0.212l-8.966,21.461l-22.953,1.814c-1.063,0-2.031,0.429-2.768,1.282
	c-1.395,1.6-1.178,3.95,0.424,5.339l5.549,4.809C333.547,354.973,272.28,456.094,260.967,578.14
	c-0.428,4.702,6.511,5.66,7.474,1.076C299.502,461.435,363.117,375.151,472.317,320.157z M459.83,287.807
	c1.603-0.217,2.882-1.289,3.307-2.676l6.192-14.952l6.188,15.164c0.65,1.392,2.031,2.247,3.421,2.353l16.223,1.281l-12.482,10.571
	c-1.18,1.073-1.607,2.671-1.072,4.058l3.738,15.695l-13.878-8.537c-1.392-0.861-2.989-0.754-4.269,0.107l-13.771,8.43l3.839-15.798
	c0.425-1.608-0.212-3.099-1.385-4.064l-12.388-10.462L459.83,287.807z M276.015,529.66
	c21.779-99.946,79.947-180.029,167.267-230.964l6.087,5.229l-5.337,22.213c-0.105,0.318-0.211,0.635-0.211,0.958
	C363.868,373.977,308.789,440.713,276.015,529.66z"/>
</svg>
