<?xml version="1.0" encoding="utf-8"?>
<!-- Generator: Adobe Illustrator 16.0.0, SVG Export Plug-In . SVG Version: 6.00 Build 0)  -->
<!DOCTYPE svg PUBLIC "-//W3C//DTD SVG 1.1//EN" "http://www.w3.org/Graphics/SVG/1.1/DTD/svg11.dtd">
<svg version="1.1" id="Layer_1" xmlns="http://www.w3.org/2000/svg" xmlns:xlink="http://www.w3.org/1999/xlink" x="0px" y="0px"
	 width="841.89px" height="595.28px" viewBox="0 0 841.89 595.28" enable-background="new 0 0 841.89 595.28" xml:space="preserve">
<path d="M335.558,211.656c-22.883,22.886-35.486,53.31-35.486,85.67c0,32.366,12.603,62.787,35.486,85.668
	c22.881,22.887,53.308,35.494,85.669,35.494c32.359,0,62.786-12.607,85.671-35.494c22.876-22.881,35.484-53.302,35.484-85.668
	c0-32.36-12.608-62.784-35.484-85.67c-22.886-22.881-53.313-35.479-85.671-35.479C388.866,176.178,358.439,188.775,335.558,211.656z
	 M341.924,376.629c-21.183-21.179-32.849-49.344-32.849-79.303c0-29.956,11.666-58.121,32.849-79.292
	c21.183-21.189,49.345-32.854,79.303-32.854s58.118,11.665,79.3,32.854c21.183,21.171,32.848,49.336,32.848,79.292
	c0,29.959-11.665,58.124-32.848,79.303c-21.183,21.182-49.343,32.852-79.3,32.852S363.107,397.811,341.924,376.629z
	 M375.643,259.412c-7.151,1.097-68.101,10.407-68.101,10.407s50.874,34.825,56.843,38.911c-3.604,6.279-34.327,59.737-34.327,59.737
	s58.952-18.056,65.869-20.174c2.662,6.739,25.3,64.079,25.3,64.079s22.638-57.34,25.3-64.079
	c6.918,2.118,65.865,20.174,65.865,20.174s-30.719-53.458-34.323-59.737c5.972-4.086,56.839-38.911,56.839-38.911
	s-60.943-9.311-68.1-10.407c0.53-7.213,5.01-68.708,5.01-68.708s-45.277,41.852-50.591,46.755
	c-5.317-4.903-50.596-46.755-50.596-46.755S375.115,252.199,375.643,259.412z M461.184,212.797
	c-1.106,15.111-3.965,54.26-3.965,54.26s38.805,5.93,53.784,8.217c-12.501,8.561-44.892,30.734-44.892,30.734
	s19.561,34.034,27.111,47.171c-14.484-4.431-52.02-15.934-52.02-15.934s-14.414,36.51-19.976,50.605
	c-5.565-14.096-19.978-50.605-19.978-50.605s-37.534,11.503-52.02,15.934c7.552-13.137,27.11-47.171,27.11-47.171
	s-32.39-22.174-44.889-30.734c14.976-2.287,53.78-8.217,53.78-8.217s-2.859-39.148-3.96-54.26
	c11.127,10.284,39.957,36.93,39.957,36.93S450.055,223.081,461.184,212.797z"/>
</svg>
