<?xml version="1.0" encoding="utf-8"?>
<!-- Generator: Adobe Illustrator 16.0.0, SVG Export Plug-In . SVG Version: 6.00 Build 0)  -->
<!DOCTYPE svg PUBLIC "-//W3C//DTD SVG 1.1//EN" "http://www.w3.org/Graphics/SVG/1.1/DTD/svg11.dtd">
<svg version="1.1" id="Layer_1" xmlns="http://www.w3.org/2000/svg" xmlns:xlink="http://www.w3.org/1999/xlink" x="0px" y="0px"
	 width="841.89px" height="595.28px" viewBox="0 0 841.89 595.28" enable-background="new 0 0 841.89 595.28" xml:space="preserve">
<path fill="#010101" d="M240.788,188.178c0.462-0.927,0.924-1.389,1.849-1.389h10.153l5.077-8.767
	c0.462-0.465,1.385-0.927,2.309-0.927c0.457,0,1.381,0.462,1.381,1.389l3.233,9.694l10.164,2.306
	c0.457,0.457,1.376,0.919,1.376,1.85c0,0.462,0,1.386-0.919,1.843l-7.844,6.004l0.457,10.156c0,0.919,0,1.384-0.919,1.846
	c-0.928,0.462-1.391,0.462-2.314,0l-8.305-6.006l-9.23,4.16c-0.923,0-1.385,0-2.309-0.462c-0.462-0.461-0.462-1.391-0.462-2.312
	l3.229-9.699l-6.463-7.843C240.326,189.559,240.326,188.635,240.788,188.178z M272.172,240.8H253.25
	c-2.771,0-5.537,2.308-5.537,5.082c0,3.227,2.304,5.542,5.537,5.542l18.922,0.462c3.239,0,5.544-2.314,5.544-5.541
	C277.716,243.574,275.411,240.8,272.172,240.8z M222.781,216.338l0.924,5.074c0,0.464,0,0.927,0.462,0.927
	c0.46,0,0.923,0,1.385-0.462l3.235-4.152l5.071,0.921c0.466,0,0.923,0,0.923-0.458c0.462-0.463,0.462-0.925,0-1.388l-2.761-4.155
	l2.304-5.082c0.457,0,0-0.462,0-0.924c-0.466-0.462-0.928-0.462-0.928-0.462l-5.067,1.386l-4.162-3.693c0,0-0.462-0.462-0.924,0
	c-0.462,0-0.919,0.462-0.919,0.924v5.081l-4.62,2.77c-0.462,0-0.924,0.457-0.924,0.919c0.462,0.462,0.462,0.462,0.924,0.924
	L222.781,216.338z M220.943,293.427l177.717,2.311c2.773,0,5.084-2.311,5.546-5.086c0-3.225-2.772-5.524-5.546-5.524l-177.717-2.778
	c-2.776,0-5.544,2.316-5.544,5.54C215.399,290.651,217.704,293.427,220.943,293.427z M447.133,291.113
	c0-3.225-2.309-5.524-5.081-5.524l-19.377-0.462c-3.24,0-5.54,2.762-5.54,5.524c0,2.775,2.3,5.548,5.54,5.548h18.92
	C444.824,296.199,447.133,293.889,447.133,291.113z M292.025,251.885l209.581,2.764c2.775,0,5.543-2.3,5.543-5.54
	c0-2.765-2.768-5.535-5.543-5.535l-209.581-2.312c-2.77,0-5.537,2.312-5.537,5.082C286.488,249.57,288.793,251.885,292.025,251.885z
	 M175.233,249.108l4.62,2.314l0.462,5.534c0,0.462,0,0.462,0.46,0.924c0.458,0,0.92,0,0.92-0.462l4.152-3.689l5.082,1.381
	c0.461,0,0.461,0,0.919-0.462c0.462-0.457,0.462-0.919,0-1.381l-2.3-4.619l2.762-4.151c0.472-0.462,0.472-0.924,0-1.39
	c0-0.462-0.462-0.462-0.92-0.462l-5.077,0.928l-3.696-4.155c0-0.462-0.462-0.462-0.923-0.462c-0.462,0.462-0.92,0.462-0.92,0.92
	l-0.923,5.083l-4.62,2.303c-0.462,0-0.919,0.462-0.919,0.924C174.314,248.649,174.771,249.108,175.233,249.108z M303.565,215.419
	l248.358,3.227c2.763,0,5.541-2.308,5.541-5.544c0-2.765-2.306-5.539-5.541-5.539l-248.358-2.769c-2.762,0-5.538,2.307-5.538,5.081
	C298.028,213.102,300.341,215.419,303.565,215.419z M435.593,328.513l8.77,3.689l1.384,9.234c0.462,0.462,0.924,0.924,1.387,1.386
	c0.924,0,1.848,0,2.305-0.462l5.543-7.378l9.696,0.916c0.457,0,1.382,0,1.382-0.916c0.462-0.459,0.462-1.384,0-1.867l-4.619-7.837
	l3.694-8.305c0.462-0.935,0.462-1.379,0-2.321c-0.913-0.462-1.376-0.462-2.3-0.462l-8.777,2.32l-6.924-6.472
	c-0.463-0.454-1.387-0.454-1.844-0.454c-0.927,0.454-1.389,0.916-1.389,1.838l-0.462,9.239l-8.308,4.616
	c-0.462,0.462-0.919,0.924-0.919,1.849C434.212,328.051,434.669,328.513,435.593,328.513z M477.598,348.814
	c0,0.462,0.462,0.462,0.925,0.462l6.461-0.462l4.159,5.096c0.462,0.46,0.93,0.46,1.392,0.46c0.457-0.46,0.919-0.46,0.919-0.922
	l1.379-6.472l6.007-2.316c0.457,0,0.457-0.462,0.457-0.913c0.462-0.462,0-0.925-0.457-1.387l-5.545-3.224l-0.462-6.462
	c0-0.473,0-0.94-0.46-0.94c-0.462-0.462-0.919,0-1.381,0l-5.073,4.627l-6.004-1.838c-0.463,0-0.93,0-1.392,0.459
	c0,0.454-0.463,0.916,0,1.379l2.311,5.537l-3.235,5.54C477.136,347.891,477.136,348.353,477.598,348.814z M269.404,388.521
	l5.549-13.848c0.457-0.924,0.457-2.3-0.462-3.229c-0.924-0.924-1.854-0.924-3.244-0.462l-13.844,4.154l-11.534-9.702
	c-0.924-0.462-2.314-0.924-3.233-0.462c-0.924,0.93-1.849,1.861-1.849,2.785v15.216l-12.921,7.858
	c-0.928,0.463-1.39,1.387-1.39,2.768c0.462,1.387,0.93,2.309,2.311,2.309l13.849,5.067l3.695,14.317
	c0.462,1.387,1.381,1.846,2.309,2.308c1.376,0,2.3,0,3.225-1.384l8.767-11.996l14.778,1.384c1.381,0,2.305-0.46,2.767-1.846
	c0.923-0.917,0.461-1.839,0-3.235L269.404,388.521z M203.388,367.278v-6.454c0-0.462-0.462-0.925-0.923-0.925h-1.381l-4.616,4.611
	l-6.458-1.838c-0.46,0-0.923,0-0.923,0.451c-0.462,0.462-0.462,0.925-0.462,1.387l2.766,6.01l-3.69,5.078v1.384
	c0.462,0.462,0.924,0.916,1.386,0.462l6.462-0.462l3.691,5.067c0.462,0.462,0.924,0.462,1.385,0.462
	c0.458,0,0.919-0.462,0.919-0.914l1.381-6.461l6.006-2.301c0.462,0,0.924-0.462,0.924-0.929c0-0.463-0.462-0.925-0.924-1.387
	L203.388,367.278z M315.578,363.586h-15.237c-3.232,0-5.542,2.316-5.542,5.097c0,3.225,2.311,5.529,5.075,5.529h15.704
	c2.762,0.462,5.065-2.305,5.065-5.067C320.643,365.902,318.34,363.586,315.578,363.586z M483.603,370.982
	c0-2.762-2.308-5.548-5.08-5.548l-141.257-1.386c-2.763,0-5.073,2.315-5.073,5.096c-0.462,3.229,2.311,5.529,5.073,5.529
	l141.257,1.847C481.295,376.521,483.603,374.212,483.603,370.982z M496.057,399.132l-102.01-1.384c-3.234,0-5.539,2.775-5.539,5.556
	c0,2.768,2.305,5.535,5.539,5.535l102.01,1.376c2.782,0,5.088-2.768,5.55-5.532C501.606,401.92,498.839,399.132,496.057,399.132z
	 M136.462,228.802l7.844,2.304l1.848,8.313c0,0.458,0.923,0.919,1.385,0.919c0.462,0.462,1.381,0,1.843-0.461l4.62-6.916l8.31,0.457
	c0.919,0.462,1.386,0,1.843-0.457c0-0.936,0-1.393-0.457-1.855l-4.614-6.924l2.766-7.844c0.462-0.457,0.462-0.919,0-1.386
	c-0.462-0.463-1.385-0.926-1.847-0.463l-7.844,2.312l-6.467-5.079c-0.462-0.465-1.386-0.465-1.843-0.465
	c-0.462,0.465-0.924,0.927-0.924,1.389v8.305l-6.924,4.615c-0.924,0.462-0.924,0.929-0.924,1.854
	C135.077,227.875,135.539,228.337,136.462,228.802z M418.516,334.982c0-2.78-2.311-5.556-5.543-5.556l-228.043-2.763
	c-2.772,0-5.077,2.763-5.077,5.538c0,2.78,2.304,5.542,5.077,5.542l228.043,2.768C415.743,340.512,418.516,338.212,418.516,334.982z
	 M140.148,313.276c0,0.462,0.462,0.914,0.933,0.914c0.462,0,0.919,0,0.919-0.452l3.692-4.153l5.071,0.916
	c0.462,0,0.924,0,0.924-0.462c0.471-0.454,0.471-0.916,0-1.379l-2.768-4.15l2.305-5.073c0,0,0-0.48,0-0.924
	c-0.462-0.476-0.919-0.476-1.381-0.476l-5.077,1.399l-3.687-3.699c-0.471,0-0.933-0.462-1.39,0c0,0-0.467,0.462-0.467,0.924
	l-0.457,5.075l-4.624,2.773c-0.457,0-0.457,0.467-0.457,0.919c0,0.462,0.457,0.462,0.928,0.924l4.609,1.849L140.148,313.276z
	 M162.313,326.664l-17.544-0.462c-3.224,0-5.544,2.311-5.544,5.532c0,2.789,2.32,5.551,5.082,5.551h18.006
	c3.225,0,5.534-2.303,5.534-5.083C167.846,328.965,165.537,326.664,162.313,326.664z M186.315,313.738
	c0.467,0,0.924-0.462,0.924-1.386l2.311-7.843l8.305-2.773c0.462,0,0.924-0.451,0.924-1.376c0.462-0.462,0-1.404-0.462-1.404
	l-7.386-4.605l0.461-8.762c0-0.462-0.461-0.924-0.923-1.402c-0.919-0.462-1.381-0.462-1.843,0l-6.468,5.548l-8.305-2.77
	c-0.462-0.462-1.386,0-1.848,0.462c-0.461,0.462-0.461,0.925,0,1.846l2.768,7.851l-5.072,6.462c-0.462,0.462-0.462,1.392,0,1.844
	c0,0.924,0.919,0.924,1.381,0.924l8.315-0.462l5.071,6.924C184.93,313.738,185.387,313.738,186.315,313.738z M646.709,399.86
	l-52.673-40.172c0,0-76.757,42.952-77.681,42.169c-0.93-0.796,30.694-85.858,30.694-85.858s-46.576-44.021-46.064-44.603
	l7.392-12.179c0.01-0.021,0.01-0.04,0.01-0.061c0.12-0.29,0.287-0.554,0.491-0.779v-0.004c0.201-0.228,0.423-0.402,0.663-0.55
	c0.067-0.04,0.139-0.06,0.201-0.089c0.183-0.097,0.381-0.188,0.592-0.242c0.103-0.025,0.201-0.025,0.304-0.043
	c0.183-0.018,0.37-0.042,0.563-0.037c0.034,0.006,0.063-0.005,0.1-0.005l59.16,5.958l26.688-52.979
	c0.211-0.462,16.712-14.458,16.957-14.662c0,0,0.011-0.005,0.011-0.017c1.245,0.111,18.725,72.401,18.725,72.401
	s64.152,6.363,73.204,8.219c0.208,0.021,0.334,0.045,0.347,0.073h0.005c0.441,0.11,0.713,0.204,0.731,0.262
	c0.091,0.401,0.067,0.793-0.011,1.188c0,0.148-0.047,0.342-0.139,0.559c-0.01,0.023-0.016,0.034-0.016,0.053
	c-0.264,0.472-10.565,19.194-11.09,19.508l-49.164,30.35l13.498,58.696c0.018,0.05,0.008,0.097,0.013,0.141
	c0.034,0.167,0.039,0.36,0.034,0.52c0.005,0.12,0.011,0.229-0.006,0.342c-0.028,0.184-0.07,0.355-0.133,0.533
	c-0.028,0.102-0.044,0.193-0.091,0.284c-0.092,0.198-0.204,0.382-0.348,0.549c-0.039,0.063-0.063,0.125-0.106,0.175
	c-0.009,0-0.009,0.008-0.009,0.018l-0.159,0.131c-0.164,0.154-0.318,0.321-0.524,0.434l-0.086,0.052L646.709,399.86z
	 M592.856,353.707l0.144-0.081c0.992-0.501,2.195-0.381,3.075,0.321l51.509,40.431l5.717-6.446l-52.116-45.37
	c0,0-64.187,37.577-65.129,36.755c-0.95-0.813,27.408-69.567,27.408-69.567l-53.774-46.806l-4.002,7.756l9.882,8.605l36.827,33.75
	c0.875,0.804,1.17,2.06,0.75,3.167l-29.332,76.916L592.856,353.707z M610.046,203.795l-9.861,8.074l-24.068,52.066l7.615,0.768
	C583.731,264.703,601.735,222.002,610.046,203.795z M568.166,267.908l-35.311-3.777l-17.231-1.838l3.334,2.785l49.887,41.682
	c0.948,0.83,1.251,2.151,0.771,3.313l-27.828,62.708l58.215-36.248l0.206-0.109c1.037-0.525,2.298-0.376,3.183,0.399l47.258,42.32
	l3.596,3.237l-5.588-22.745l-6.944-28.24l-1.418-5.78l-2.339-9.524c-0.284-1.217,0.251-2.491,1.323-3.128l60.996-33.846h-0.138
	l-28.252-2.196l-41.647-3.229c-1.248-0.104-2.281-1.01-2.566-2.232l-10.072-48.92l-3.738-18.189l-1.395,3.379l-24.94,60.19
	c-0.486,1.159-1.661,1.861-2.911,1.755l-10.626-1.136L568.166,267.908z M645.386,322.612l48.86-28.964l6.545-10.855l-56.734,34.039
	L645.386,322.612z"/>
</svg>
