<?xml version="1.0" encoding="utf-8"?>
<!-- Generator: Adobe Illustrator 16.0.0, SVG Export Plug-In . SVG Version: 6.00 Build 0)  -->
<!DOCTYPE svg PUBLIC "-//W3C//DTD SVG 1.1//EN" "http://www.w3.org/Graphics/SVG/1.1/DTD/svg11.dtd">
<svg version="1.1" id="Layer_1" xmlns="http://www.w3.org/2000/svg" xmlns:xlink="http://www.w3.org/1999/xlink" x="0px" y="0px"
	 width="841.89px" height="595.28px" viewBox="0 0 841.89 595.28" enable-background="new 0 0 841.89 595.28" xml:space="preserve">
<path fill="#010101" d="M548.332,385.452l41.684-8.517l-24.624,34.697l32.65,27.275l-42.477,2.384l-0.962,42.543l-28.354-31.727
	l-33.861,25.763l7.121-41.949l-41.254-10.404l37.24-20.576l-17.587-38.752l39.314,16.284l19.329-37.903L548.332,385.452z
	 M463.68,366.623L311.397,215.699c-6.082-6.031-15.461-7.225-22.867-2.927l-31.865,18.516c-13.022,7.573-12.44,26.596,1.039,33.34
	l205.349,102.864C463.607,367.767,464.121,367.057,463.68,366.623z M320.4,133.482l171.824,217.521
	c0.413,0.535,1.232-0.028,0.89-0.605l-135.78-230.473c-3.523-5.983-10.587-8.87-17.305-7.092c-3.854,1.025-8.335,2.083-12.801,2.85
	C318.924,117.103,315.184,126.883,320.4,133.482z M464.589,403.406l-162.936-58.737c-9.908-3.574-20.384,3.692-20.495,14.227
	l-0.039,3.368c-0.086,7.597,5.41,14.104,12.916,15.291l170.289,26.87C464.954,404.526,465.19,403.618,464.589,403.406z"/>
</svg>
