<?xml version="1.0" encoding="utf-8"?>
<!-- Generator: Adobe Illustrator 16.0.0, SVG Export Plug-In . SVG Version: 6.00 Build 0)  -->
<!DOCTYPE svg PUBLIC "-//W3C//DTD SVG 1.1//EN" "http://www.w3.org/Graphics/SVG/1.1/DTD/svg11.dtd">
<svg version="1.1" id="Layer_1" xmlns="http://www.w3.org/2000/svg" xmlns:xlink="http://www.w3.org/1999/xlink" x="0px" y="0px"
	 width="841.89px" height="595.28px" viewBox="0 0 841.89 595.28" enable-background="new 0 0 841.89 595.28" xml:space="preserve">
<path fill="#010101" d="M449.717,269.512c-19.97-91.629-26.537-153.718-28.285-186.217c-1.744,32.499-8.293,94.588-28.28,186.201
	c-91.639,19.985-153.694,26.544-186.2,28.28c32.506,1.741,94.593,8.302,186.2,28.279c19.995,91.618,26.536,153.713,28.28,186.204
	c1.748-32.491,8.315-94.586,28.285-186.204c91.599-19.978,153.709-26.538,186.203-28.279
	C603.426,296.04,541.315,289.481,449.717,269.512z M437.555,313.893l-16.123,138.184l-16.112-138.184l-138.168-16.101
	l138.168-16.111l16.112-138.184l16.123,138.184l138.179,16.111L437.555,313.893z"/>
</svg>
