<?xml version="1.0" encoding="utf-8"?>
<!-- Generator: Adobe Illustrator 16.0.0, SVG Export Plug-In . SVG Version: 6.00 Build 0)  -->
<!DOCTYPE svg PUBLIC "-//W3C//DTD SVG 1.1//EN" "http://www.w3.org/Graphics/SVG/1.1/DTD/svg11.dtd">
<svg version="1.1" id="Layer_1" xmlns="http://www.w3.org/2000/svg" xmlns:xlink="http://www.w3.org/1999/xlink" x="0px" y="0px"
	 width="841.89px" height="595.28px" viewBox="0 0 841.89 595.28" enable-background="new 0 0 841.89 595.28" xml:space="preserve">
<path fill="#010101" d="M404.702,318.703c-1.51-1.953-3.882-3.125-6.362-3.125c-0.826,0-1.646,0.13-2.583,0.43
	c-2.874,0.916-6.005,1.92-9.227,2.986l-5.024-10.439c-1.328-2.764-4.158-4.548-7.212-4.548c-0.251,0-0.502,0.011-0.703,0.028
	c-3.306,0.278-6.131,2.608-7.04,5.8c-1.752,6.135-3.237,12.42-4.436,18.717c-6.672,3.201-12.46,6.659-17.643,10.536
	c-2.615,1.957-3.782,5.262-2.97,8.435c0.818,3.165,3.439,5.497,6.668,5.945c3.519,0.488,7.047,1.111,10.551,1.84
	c-0.222,3.44-0.363,6.895-0.416,10.31c-0.053,3.327,1.991,6.382,5.098,7.604c0.937,0.368,1.925,0.555,2.93,0.555
	c2.269,0,4.44-0.971,5.97-2.661c2.797-3.111,5.566-6.317,8.262-9.555c4.521,1.66,8.981,3.523,13.288,5.576
	c1.074,0.508,2.269,0.779,3.483,0.779c4.428,0,8.037-3.603,8.037-8.028c0-1.459-0.396-2.867-1.139-4.106l-7.426-15.442
	c2.866-4.075,5.654-8.243,8.311-12.415C406.922,325.085,406.761,321.384,404.702,318.703z M387.229,341.907l7.375,15.325
	c-4.586-2.059-9.299-3.913-14.042-5.545c-1.844-0.638-3.887-0.053-5.123,1.456c-2.519,3.086-5.109,6.147-7.741,9.144
	c0.112-3.418,0.311-6.857,0.593-10.264c0.19-2.294-1.328-4.385-3.572-4.912c-3.997-0.944-8.065-1.743-12.13-2.394
	c4.581-3.165,9.72-6.038,15.605-8.747c1.384-0.631,2.373-1.905,2.636-3.403c1.017-5.667,2.276-11.332,3.766-16.904l5.332,11.079
	c1.029,2.129,3.486,3.153,5.711,2.383c3.265-1.125,6.554-2.205,9.695-3.208c-2.475,3.797-5.058,7.571-7.701,11.265
	C386.647,338.562,386.491,340.375,387.229,341.907z M710.63,205.974c-4.562,1.566-9.146,3.092-13.662,4.548
	c-2.197-4.461-4.437-8.905-6.681-13.256c-1.382-2.687-4.134-4.358-7.176-4.358c-0.082,0-0.268,0.002-0.344,0.007
	c-3.125,0.153-5.901,2.129-7.068,5.026c-2.793,6.946-5.359,14.087-7.637,21.242c-7.128,1.976-14.376,3.868-21.564,5.628
	c-3.782,0.915-6.354,4.415-6.108,8.311c0.251,3.887,3.237,7.027,7.104,7.467c4.691,0.532,9.405,1.327,14.063,2.384
	c-1.171,5.103-2.217,10.245-3.116,15.338c-0.617,3.52,1.105,6.958,4.286,8.556c1.115,0.561,2.365,0.87,3.617,0.87
	c2.195,0,4.323-0.917,5.828-2.507c4.448-4.691,9.062-9.454,13.74-14.188c6.15,2.737,12.101,5.939,17.707,9.542
	c1.296,0.836,2.798,1.281,4.371,1.281c4.424,0,8.028-3.605,8.028-8.033c0-1.32-0.323-2.62-0.94-3.778
	c-2.729-6.415-5.587-12.886-8.505-19.277c4.012-3.811,8.073-7.606,12.102-11.302c2.78-2.556,3.402-6.773,1.465-10.025
	C718.242,206.265,714.094,204.773,710.63,205.974z M697.737,226.344c-1.433,1.373-1.835,3.504-1,5.309
	c2.89,6.266,5.729,12.625,8.452,18.949c-5.922-3.563-12.146-6.712-18.567-9.379c-1.74-0.731-3.753-0.326-5.086,1.014
	c-4.455,4.482-8.868,9.001-13.153,13.48c0.96-5.017,2.062-10.071,3.288-15.051c0.614-2.47-0.871-4.969-3.325-5.615
	c-4.359-1.148-8.779-2.083-13.206-2.801c5.981-1.523,11.971-3.125,17.872-4.788c1.519-0.429,2.72-1.594,3.185-3.104
	c2.106-6.833,4.492-13.655,7.1-20.328c2.391,4.667,4.763,9.43,7.072,14.185c1.008,2.074,3.39,3.097,5.586,2.407
	c3.952-1.257,7.967-2.565,11.995-3.917C704.535,219.886,701.112,223.116,697.737,226.344z M147.008,228.368
	c-4.515,1.557-9.096,3.083-13.666,4.557c-2.204-4.479-4.442-8.926-6.68-13.265c-1.413-2.748-4.375-4.452-7.52-4.342
	c-3.12,0.148-5.893,2.122-7.065,5.022c-2.789,6.927-5.352,14.064-7.636,21.245c-7.132,1.978-14.382,3.867-21.571,5.626
	c-3.784,0.924-6.351,4.419-6.106,8.306c0.254,3.887,3.237,7.027,7.112,7.467c4.682,0.532,9.395,1.332,14.061,2.385
	c-1.176,5.111-2.222,10.253-3.114,15.342c-0.62,3.517,1.108,6.959,4.268,8.553c1.118,0.565,2.374,0.868,3.631,0.868
	c2.2,0,4.323-0.915,5.829-2.502c4.468-4.713,9.079-9.476,13.737-14.191c6.154,2.733,12.097,5.937,17.711,9.545
	c1.298,0.836,2.799,1.274,4.341,1.274c0.009,0,0.017,0,0.031,0c4.43,0,8.028-3.6,8.028-8.028c0-1.322-0.323-2.624-0.942-3.782
	c-2.729-6.401-5.582-12.875-8.502-19.269c4.004-3.811,8.063-7.604,12.097-11.305c2.787-2.56,3.403-6.773,1.472-10.019
	C154.625,228.67,150.512,227.172,147.008,228.368z M134.118,248.742c-1.436,1.375-1.84,3.511-1.007,5.315
	c2.9,6.267,5.734,12.627,8.456,18.942c-5.923-3.567-12.147-6.716-18.563-9.382c-1.747-0.72-3.756-0.322-5.088,1.014
	c-4.438,4.47-8.852,8.985-13.156,13.481c0.962-5.017,2.062-10.063,3.297-15.047c0.605-2.47-0.882-4.976-3.337-5.62
	c-4.359-1.145-8.782-2.078-13.203-2.805c5.981-1.518,11.968-3.118,17.869-4.774c1.522-0.427,2.723-1.598,3.19-3.107
	c2.116-6.854,4.5-13.676,7.102-20.327c2.377,4.649,4.747,9.412,7.063,14.179c1.009,2.074,3.391,3.095,5.591,2.405
	c3.992-1.263,8.007-2.571,12-3.907C140.909,242.289,137.491,245.512,134.118,248.742z M503.415,203.571
	c-4.603,1.358-9.304,2.595-14.027,3.697c-2.709-5.521-5.518-10.542-8.545-15.277c-1.743-2.715-5.021-4.148-8.169-3.571
	c-3.213,0.573-5.731,3.006-6.435,6.185l-3.817,17.46c-7.326,0.9-14.737,1.493-22.071,1.756c-4,0.145-7.313,3.256-7.696,7.238
	c-0.396,3.983,2.239,7.68,6.139,8.595c6.199,1.47,12.577,2.985,18.713,4.89l-3.924,17.916c-0.751,3.44,0.871,7.032,3.94,8.736
	c1.188,0.661,2.542,1.016,3.906,1.016c2.09,0,4.076-0.806,5.586-2.264l14.297-13.869c4.473,3.432,7.983,7.306,10.485,11.541
	c2.02,3.429,6.572,4.898,10.262,3.228c3.745-1.719,5.578-5.956,4.263-9.873c-2.394-7.09-4.86-14.4-7.613-21.754l12.565-12.182
	c2.655-2.583,3.209-6.62,1.352-9.8C510.804,204.117,506.909,202.55,503.415,203.571z M490.034,224.665
	c-1.34,1.301-1.772,3.269-1.103,5.015c2.091,5.44,4.013,10.906,5.866,16.297c-3.146-3.596-6.948-6.876-11.363-9.811
	c-1.825-1.216-4.243-0.99-5.813,0.537l-14.038,13.605l3.912-17.876c0.504-2.305-0.792-4.623-3.017-5.398
	c-4.949-1.718-9.993-3.111-15.022-4.375c5.827-0.403,11.665-1.005,17.44-1.786c1.934-0.268,3.5-1.713,3.919-3.618l3.844-17.585
	c2.776,4.582,5.377,9.489,7.911,14.922c0.919,1.978,3.091,3.05,5.215,2.584c4.472-0.981,8.951-2.077,13.364-3.283L490.034,224.665z
	 M768.079,190.559c-0.238-0.018-0.481-0.033-0.723-0.048c-7.382-0.456-7.37-11.011,0-11.469c0.241-0.02,0.484-0.031,0.723-0.048
	C775.534,178.529,775.519,191.022,768.079,190.559z M581.702,284.83c0,3.92-3.857,6.879-7.661,5.839
	c-0.581-0.158-1.154-0.316-1.735-0.468c-5.292-1.455-5.287-9.289,0-10.733c0.581-0.158,1.154-0.311,1.735-0.474
	C577.845,277.956,581.702,280.918,581.702,284.83z M534.688,175.466c0.061,1.378-0.533,2.747-1.349,3.804
	c-0.888,1.154-1.945,1.719-3.257,2.247c-0.117,0.046-0.229,0.098-0.352,0.138c-2.05,0.828-4.763-0.17-6.24-1.646
	c-1.166-1.163-1.881-2.891-1.881-4.542c0-1.734,0.728-3.276,1.881-4.533c1.397-1.523,4.251-2.448,6.24-1.653
	c0.122,0.052,0.234,0.092,0.352,0.144C532.77,170.502,534.554,172.479,534.688,175.466z M548.201,232.079
	c1.989,3.552-0.509,8.123-4.662,8.123s-6.651-4.571-4.662-8.123C540.972,228.339,546.098,228.321,548.201,232.079z M630.797,180.669
	c-4.219,0-7.343-3.447-7.524-7.526c-0.182-4.064,3.588-7.524,7.524-7.524c4.217,0,7.346,3.451,7.527,7.524
	C638.506,177.207,634.731,180.669,630.797,180.669z M600.548,224.424c-6.115,0-6.106-9.487,0-9.487
	C606.663,214.937,606.651,224.424,600.548,224.424z M773.896,295.757c-8.081,0-8.073-12.546,0-12.546
	C781.979,283.211,781.967,295.757,773.896,295.757z M18.833,226.462c-7.241,0-7.225-11.239,0-11.239
	C26.075,215.223,26.066,226.462,18.833,226.462z M86.316,175.543c-7.596,0-7.582-11.783,0-11.783
	C93.903,163.76,93.895,175.543,86.316,175.543z M158.264,171.976c-0.107-2.374,1.584-4.593,3.688-5.478
	c2.047-0.867,5.032-0.593,6.554,1.24c0.35,0.418,0.704,0.852,1.054,1.27c1.564,1.89,1.552,4.064,0,5.941
	c-0.35,0.42-0.704,0.85-1.054,1.272c-1.673,2.02-5.154,2.179-7.272,0.94C159.388,176.083,158.361,174.073,158.264,171.976z
	 M247.552,238.146c1.235-0.539,2.204-0.902,3.581-0.919c3.209-0.041,5.582,2.656,5.724,5.724c0.133,3.059-2.732,5.759-5.724,5.722
	c-1.376-0.02-2.345-0.383-3.581-0.92C243.904,246.167,243.904,239.729,247.552,238.146z M199.165,279.32
	c-6.393,0-6.385-9.925,0-9.925C205.567,269.396,205.551,279.32,199.165,279.32z M170.314,338.077l-1.805,0.892
	c-1.999,0.99-4.182,1.158-6.164,0c-1.862-1.086-3.025-3.118-3.025-5.271c0-2.154,1.163-4.193,3.025-5.28
	c1.982-1.158,4.165-0.982,6.164,0c0.604,0.301,1.201,0.599,1.805,0.9C173.627,330.958,173.627,336.43,170.314,338.077z
	 M256.174,391.938c-7.596,0-7.58-11.777,0-11.777C263.767,380.16,263.754,391.938,256.174,391.938z M247.439,314.348
	c2.486,3.927-0.766,9.114-5.223,9.114c-4.464,0-7.717-5.188-5.23-9.114c0.06-0.092,0.12-0.187,0.177-0.278
	c2.398-3.771,7.705-3.771,10.099,0C247.322,314.161,247.384,314.256,247.439,314.348z M370.345,199.951
	c-1.243-2.035-1.368-4.207-0.654-6.442c0.921-2.85,3.342-4.669,6.317-4.808c2.935-0.128,5.462,2.155,6.309,4.808
	c0.723,2.253,0.642,4.408-0.646,6.442c-1.264,1.993-3.334,3.193-5.664,3.294C373.752,203.346,371.467,201.804,370.345,199.951z
	 M264.444,173.348c-0.185,0.129-0.379,0.234-0.593,0.322c-1.979,0.946-4.085,1.151-6.05,0c-1.829-1.069-2.975-3.069-2.975-5.182
	c0-2.115,1.146-4.114,2.975-5.184c1.965-1.149,4.072-0.943,6.05,0c0.214,0.09,0.408,0.195,0.593,0.327
	C268.077,165.872,268.077,171.104,264.444,173.348z M344.594,260.487c-6.119,0-6.107-9.484,0-9.484
	C350.709,251.003,350.7,260.487,344.594,260.487z M310.891,299.953c0.104,2.339-2.25,4.969-4.691,4.691
	c-0.258-0.028-0.517-0.058-0.775-0.089c-2.576-0.295-4.481-1.874-4.601-4.603c-0.122-2.678,2.219-4.322,4.601-4.601
	c0.258-0.029,0.517-0.059,0.775-0.084C308.812,294.969,310.786,297.654,310.891,299.953z M438.696,296.463
	c0.105,2.277-1.631,4.005-3.601,4.739c-0.234,0.085-0.469,0.17-0.703,0.263c-3.204,1.186-6.563-1.845-6.563-5.002
	c0-3.146,3.351-6.187,6.563-4.993c0.234,0.09,0.469,0.175,0.703,0.263C437.215,292.517,438.599,294.163,438.696,296.463z
	 M306.2,213.352c-5.345,0-5.335-8.287,0-8.287C311.545,205.064,311.536,213.352,306.2,213.352z M500.774,353.085
	c0.093,2.036-1.8,3.772-3.774,3.772c-2.115,0-3.677-1.728-3.772-3.772c-0.091-2.035,1.799-3.771,3.772-3.771
	C499.12,349.313,500.686,351.042,500.774,353.085z M522.598,306.444c-8.366,0-8.35-12.979,0-12.979
	C530.966,293.465,530.951,306.444,522.598,306.444z M451.761,357.983c-0.442,0.587-0.884,1.172-1.327,1.757
	c-1.162,1.535-2.526,2.619-4.568,2.619c-1.865,0-3.626-1.01-4.565-2.619c-2.048-3.504,0.577-7.904,4.565-7.963
	c0.773-0.009,1.545-0.022,2.317-0.032C451.055,351.707,453.711,355.413,451.761,357.983z M564.395,351.563
	c-0.044,0.246-0.105,0.488-0.178,0.728c-1.449,5.492-9.658,5.487-11.107,0c-0.073-0.239-0.13-0.481-0.173-0.728
	c-0.821-3.746,1.754-7.524,5.728-7.524C562.659,344.038,565.213,347.816,564.395,351.563z M636.612,312.457
	c-5.622,0-5.614-8.72,0-8.72C642.234,303.737,642.227,312.457,636.612,312.457z M394.656,427.647
	c-0.465,0.783-1.07,1.464-1.651,2.159c-2.127,2.551-6.207,2.023-8.404,0c-2.219-2.035-2.396-6.406,0-8.403
	c0.694-0.583,1.381-1.188,2.164-1.646C391.738,416.826,397.582,422.674,394.656,427.647z M326.127,361.137
	c1.17,1.518,0.909,4.069,0,5.615c-0.989,1.695-2.841,2.757-4.799,2.757c-1.961,0-3.818-1.062-4.807-2.757
	c-0.909-1.546-1.175-4.098,0-5.615c0.067-0.089,0.141-0.177,0.206-0.267c1.187-1.542,2.535-2.639,4.601-2.639
	c2.059,0,3.406,1.097,4.598,2.639C325.995,360.96,326.058,361.048,326.127,361.137z M450.959,176.25
	c-0.105-0.238-0.223-0.479-0.332-0.722c-1.138-2.479-0.973-5.057,0.92-7.119c1.873-2.035,4.804-1.986,7.121-0.924
	c0.241,0.116,0.484,0.229,0.727,0.339c3.665,1.686,3.85,7.071,1.247,9.675C458.041,180.096,452.649,179.927,450.959,176.25z
	 M831.251,220.843c0.153,3.331-2.938,6.162-6.163,6.162c-3.451,0-6.011-2.825-6.164-6.162c-0.149-3.327,2.938-6.165,6.164-6.165
	C828.539,214.678,831.105,217.505,831.251,220.843z M691.913,319.737c-0.148,2.24-0.303,4.528-2.208,6.085
	c-2.728,2.221-5.747,2.205-8.455,0c-1.909-1.557-2.055-3.845-2.208-6.085c-0.242-3.601,3.145-6.29,6.434-6.438
	C688.79,313.153,692.145,316.369,691.913,319.737z"/>
</svg>
