<?xml version="1.0" encoding="utf-8"?>
<!-- Generator: Adobe Illustrator 16.0.0, SVG Export Plug-In . SVG Version: 6.00 Build 0)  -->
<!DOCTYPE svg PUBLIC "-//W3C//DTD SVG 1.1//EN" "http://www.w3.org/Graphics/SVG/1.1/DTD/svg11.dtd">
<svg version="1.1" id="Layer_1" xmlns="http://www.w3.org/2000/svg" xmlns:xlink="http://www.w3.org/1999/xlink" x="0px" y="0px"
	 width="841.89px" height="595.28px" viewBox="0 0 841.89 595.28" enable-background="new 0 0 841.89 595.28" xml:space="preserve">
<path fill="#010101" d="M287.913,247.102l71.708-5.712c7.209-0.577,13.485-5.136,16.256-11.809l27.602-66.439
	c6.574-15.826,28.998-15.826,35.57,0l27.598,66.439c2.776,6.673,9.052,11.231,16.26,11.809l71.709,5.712
	c17.088,1.36,24.012,22.688,10.992,33.834l-54.656,46.771c-5.49,4.708-7.887,12.083-6.208,19.119l16.722,69.967
	c3.99,16.67-14.162,29.844-28.779,20.91l-61.373-37.525c-6.17-3.772-13.932-3.772-20.096,0l-61.373,37.525
	c-14.625,8.934-32.766-4.24-28.781-20.91l16.719-69.967c1.68-7.036-0.719-14.411-6.209-19.119l-54.656-46.771
	C263.898,269.79,270.827,248.462,287.913,247.102z"/>
</svg>
