<?xml version="1.0" encoding="utf-8"?>
<!-- Generator: Adobe Illustrator 16.0.0, SVG Export Plug-In . SVG Version: 6.00 Build 0)  -->
<!DOCTYPE svg PUBLIC "-//W3C//DTD SVG 1.1//EN" "http://www.w3.org/Graphics/SVG/1.1/DTD/svg11.dtd">
<svg version="1.1" id="Layer_1" xmlns="http://www.w3.org/2000/svg" xmlns:xlink="http://www.w3.org/1999/xlink" x="0px" y="0px"
	 width="841.89px" height="595.28px" viewBox="0 0 841.89 595.28" enable-background="new 0 0 841.89 595.28" xml:space="preserve">
<g>
	<path fill="#010101" d="M504.658,308.857c-13.219,7.451-26.895,15.153-29.498,21.015c-2.603,5.855,0.833,21.196,4.163,36.028
		c4.715,21.038,9.172,40.906,0.962,45.671l-0.033,0.021c-1.083,0.619-2.344,0.943-3.739,0.943c-8.652,0-22.381-12.504-35.653-24.586
		c-11.283-10.279-22.958-20.902-29.377-21.597c-0.254-0.028-0.529-0.042-0.813-0.042c-6.721,0-19.719,7.568-32.284,14.887
		c-14.071,8.195-28.622,16.676-37.417,16.676h-0.011c-2.454,0-4.436-0.656-5.875-1.956c-7.112-6.381,1.275-24.892,10.153-44.487
		c6.251-13.796,12.713-28.064,11.352-34.354c-1.361-6.292-13.184-16.75-24.608-26.859c-16.236-14.354-31.567-27.925-27.717-36.59
		c1.857-4.17,7.578-6.107,18.016-6.107c8.079,0,18.036,1.144,27.66,2.256c9.455,1.089,18.381,2.117,25.466,2.117
		c5.283,0,8.858-0.576,10.922-1.76c5.582-3.195,11.828-17.555,17.883-31.438c8.373-19.218,16.274-37.374,25.465-37.374
		c0.24,0,0.48,0.014,0.732,0.037c9.479,1.025,13.651,20.98,18.063,42.106c3.108,14.879,6.327,30.262,11.135,34.58
		c4.812,4.321,20.504,5.897,35.667,7.425c21.539,2.17,41.884,4.219,43.896,13.517C541.182,288.293,523.439,298.281,504.658,308.857z
		"/>
	<path fill="#F8BF15" d="M477.58,406.504c-12.924,7.406-50.738-42.162-65.616-43.77c-14.884-1.608-61.888,38.799-73.037,28.794
		c-11.146-10.007,24.253-60.829,21.095-75.418c-3.156-14.581-56.565-46.885-50.526-60.479c6.044-13.59,65.723,4.571,78.658-2.838
		c12.926-7.407,26.929-67.774,41.808-66.171c14.883,1.605,16.365,63.654,27.516,73.658c11.154,10.013,73.201,4.994,76.366,19.584
		c3.162,14.592-55.608,34.768-61.647,48.361c-6.033,13.595,18.32,70.873,5.395,78.277H477.58z"/>
</g>
</svg>
