<?xml version="1.0" encoding="utf-8"?>
<!-- Generator: Adobe Illustrator 16.0.0, SVG Export Plug-In . SVG Version: 6.00 Build 0)  -->
<!DOCTYPE svg PUBLIC "-//W3C//DTD SVG 1.1//EN" "http://www.w3.org/Graphics/SVG/1.1/DTD/svg11.dtd">
<svg version="1.1" id="Layer_1" xmlns="http://www.w3.org/2000/svg" xmlns:xlink="http://www.w3.org/1999/xlink" x="0px" y="0px"
	 width="841.89px" height="595.28px" viewBox="0 0 841.89 595.28" enable-background="new 0 0 841.89 595.28" xml:space="preserve">
<path d="M398.977,464.249c4.889-30.602,7.762-61.346,11.029-92.052c0.885-8.31-1.387-12.197-9.095-15.633
	c-44.002-19.649-86.646-42.365-132.327-58.202c-7.912-2.729-14.97-7.922-22.44-11.95c-8.911-4.812-10.494-13.818-8.853-21.769
	c1.853-8.96,10.77-10.188,18.843-9.47c21.501,1.936,42.929,4.677,64.453,6.148c30.557,2.081,60.748-2.42,90.929-6.49
	c4.851-0.65,6.194-2.929,6.612-7.42c2.681-28.502,5.841-56.957,8.286-85.49c0.789-9.221-7.242-14.97-11.385-22.179
	c-5.736-9.968-6.693-21.703-0.269-26.476c8.998-6.687,16.491-1.407,25.277,2.849c13.988,6.77,19.928,15.907,16.886,31.123
	c-0.327,1.649,0.683,3.735,1.481,5.42c12.926,27.191,26.15,54.244,38.767,81.582c3.436,7.448,7.796,9.132,15.441,7.464
	c23.642-5.13,48.246-4.908,71.483-12.897c6.169-2.13,13.349-1.097,17.938,4.88c4.448,5.775,3.826,12.169,1.136,18.686
	c-4.966,12.035-16.124,18.367-24.579,27.184c-2.937,3.052-6.478,5.506-9.537,8.453c-30.408,29.254-32.376,43.248-10.11,79.183
	c6.443,10.409,11.322,21.732,20.369,30.731c6.524,6.496,3.907,15.548-1.184,22.299c-5.702,7.574-13.508,10.253-22.371,4.682
	c-19.706-12.414-41.063-21.21-62.643-29.68c-6.146-2.423-9.679-1.935-13.697,3.379c-18.852,24.92-39.16,48.879-50.449,78.671
	c-3.131,8.271-9.292,11.346-17.501,8.944C400.483,483.021,398.668,474.193,398.977,464.249z M440.158,321.089
	c0.096,18.879,0.096,18.879,17.717,25.82c19.445,7.668,19.445,7.668,32.213-8.352c17.612-22.103,17.068-21.847,4.272-47.654
	c-4.995-10.086-10.346-14.738-21.769-11.843c-7.383,1.888-15.178,2.35-22.82,2.796c-5.61,0.342-6.92,3.089-7.16,8.144
	C442.102,300.377,441.005,310.729,440.158,321.089z M342.069,294.469c20.851,9.891,41.749,19.676,62.518,29.753
	c5.154,2.499,7.767,2.318,8.056-4.195c0.38-8.88,1.093-17.732,1.77-26.591c0.371-4.977-1.304-7.225-6.65-6.305
	C386.186,290.89,364.377,292.028,342.069,294.469z M452.805,209.044c-0.747,0.146-1.488,0.29-2.234,0.434
	c-1.164,11.401-2.203,22.823-3.564,34.209c-0.573,4.731,1.159,6.386,5.673,5.883c3.83-0.429,7.708-0.463,11.51-1.037
	c4.312-0.657,7.036-2.044,4.187-7.472C462.861,230.56,457.953,219.723,452.805,209.044z M435.789,404.506
	c4.417-5.347,7.102-8.453,9.633-11.67c11.106-14.156,11.096-14.156-7.064-18.531C436.337,383.293,435.74,392.371,435.789,404.506z
	 M526.12,291.673c5.813-7.501,10.077-13.012,16.284-21.048c-9.683,3.178-18.099-0.977-22.318,5.183
	C518.469,278.157,523.425,285.047,526.12,291.673z M518.517,351.604c-3.83,4.945-11.246,9.448-9.421,13.631
	c2.252,5.206,10.471,6.016,17.813,8.225C524.565,365.308,522.646,358.546,518.517,351.604z"/>
</svg>
