<?xml version="1.0" encoding="utf-8"?>
<!-- Generator: Adobe Illustrator 16.0.0, SVG Export Plug-In . SVG Version: 6.00 Build 0)  -->
<!DOCTYPE svg PUBLIC "-//W3C//DTD SVG 1.1//EN" "http://www.w3.org/Graphics/SVG/1.1/DTD/svg11.dtd">
<svg version="1.1" id="Layer_1" xmlns="http://www.w3.org/2000/svg" xmlns:xlink="http://www.w3.org/1999/xlink" x="0px" y="0px"
	 width="841.89px" height="595.28px" viewBox="0 0 841.89 595.28" enable-background="new 0 0 841.89 595.28" xml:space="preserve">
<path d="M746.949,444.233c-0.006-0.083,0-0.166-0.016-0.252c-0.029-0.266-0.078-0.538-0.154-0.796
	c-0.008-0.028-0.023-0.055-0.028-0.083c-0.079-0.231-0.162-0.453-0.279-0.674c-0.044-0.087-0.097-0.165-0.149-0.25
	c-0.091-0.157-0.188-0.309-0.292-0.453c-0.067-0.092-0.146-0.17-0.217-0.252c-0.063-0.069-0.112-0.151-0.181-0.217
	c-1.023-1.02-2.039-2.004-3.059-3.02c-0.346-0.347-0.688-0.684-1.039-1.03c-0.578-0.576-1.16-1.149-1.742-1.729
	c-0.415-0.407-0.832-0.813-1.242-1.224c-5.982-5.91-11.942-11.734-17.861-17.408c-1.06-1.025-2.119-2.04-3.182-3.052
	c-21.764-20.769-43.092-39.978-63.86-57.728c-0.566-0.488-1.125-0.959-1.704-1.443c-1.212-1.039-2.429-2.064-3.646-3.09
	c-1.487-1.26-2.983-2.538-4.467-3.784c-1.13-0.942-2.259-1.89-3.384-2.829c-1.449-1.21-2.877-2.383-4.315-3.572
	c-10.813-8.961-21.472-17.548-31.942-25.723c-1.886-1.469-3.75-2.9-5.621-4.349c-14.824-11.45-29.275-22.141-43.318-32.104
	c-1.313-0.936-2.621-1.864-3.928-2.779c-7.216-5.082-14.314-9.971-21.295-14.674c-1.215-0.813-2.432-1.648-3.629-2.447
	c-4.405-2.945-8.75-5.797-13.053-8.599c-1.639-1.065-3.275-2.11-4.902-3.154c-12.799-8.227-25.152-15.815-37-22.8
	c-2.131-1.25-4.264-2.514-6.355-3.724c-1.271-0.739-2.511-1.441-3.77-2.166c-1.326-0.757-2.66-1.523-3.973-2.271
	c-1.33-0.757-2.648-1.504-3.961-2.243c-1.791-1.008-3.569-2.004-5.326-2.978c-2.05-1.136-4.073-2.243-6.084-3.343
	c-0.563-0.305-1.125-0.618-1.688-0.919c-15.821-8.604-30.546-16.055-43.981-22.448c-18.479-8.789-35.395-16.051-50.649-22.07
	c-2.136-0.839-4.231-1.658-6.297-2.451c-4.952-1.902-9.72-3.675-14.278-5.308c-2.551-0.915-5.023-1.779-7.449-2.613
	c-10.73-3.698-20.233-6.643-28.424-8.98c-2.768-0.786-5.365-1.501-7.824-2.155c-1.3-0.344-2.556-0.671-3.765-0.979
	c-2.804-0.72-5.404-1.355-7.746-1.901c-1.866-0.436-3.566-0.813-5.136-1.15c-0.339-0.076-0.674-0.145-1.005-0.217
	c-2.833-0.597-5.104-1.033-6.804-1.335c-0.005,0-0.005,0-0.005,0c-2.097-0.378-3.345-0.559-3.647-0.602
	c-0.141-0.02-0.274,0.003-0.412-0.002c-0.113-0.005-0.215-0.043-0.324-0.041c-0.078,0.003-0.144,0.031-0.217,0.038
	c-0.245,0.017-0.496,0.065-0.736,0.123c-0.159,0.042-0.32,0.068-0.478,0.123c-0.24,0.089-0.465,0.212-0.692,0.34
	c-0.127,0.079-0.269,0.137-0.394,0.224c-0.217,0.154-0.405,0.346-0.595,0.541c-0.107,0.106-0.223,0.19-0.319,0.308
	c-0.016,0.013-0.023,0.025-0.039,0.039c-0.251,0.317-0.457,0.664-0.61,1.025v0.005l-5.695,13.308l-4.939,11.537l-1.367,3.199
	l-3.691,8.624l-28.756,67.217l-72.933,3.322l-5.245,0.236l-26.026,1.187c-1.773,0.078-3.337,1.174-4.011,2.808
	c-0.676,1.633-0.345,3.511,0.849,4.818l1.12,1.232l1.031,1.127l15.595,17.089l3.339,3.657l2.882,3.162l3.196,3.502l7.637,8.366
	l5.182,5.679l1.228,1.342l5.313,5.826l1.551,1.698l4.206,4.603l25.774,28.246l-0.901,3.479l-2.347,9.094l-4.284,16.538l-2.196,8.492
	l-11.004,42.579l-2.021,7.813l-1.495,5.773l-1.483,5.734l-3.893,15.061c-0.457,1.774,0.188,3.649,1.647,4.766
	c0.807,0.618,1.788,0.938,2.76,0.938c0.78,0,1.561-0.2,2.264-0.597L259.16,397.79l3.796,1.85l6.676,3.25l32.196,15.7l6.893,3.356
	l33.264,16.217l5.911,2.88l2.694,1.315l6.501,3.165l8.333,4.065l3.891,1.896l2.25,1.096c0,0,0,0,0.006,0
	c0.273,0.135,0.568,0.23,0.867,0.311c0.07,0.017,0.148,0.035,0.217,0.049c0.297,0.061,0.595,0.103,0.902,0.103
	c0.016,0,0.023,0,0.045,0l0.005-0.005c0.042,0,0.087,0,0.128,0c0.211-0.01,0.415-0.037,0.621-0.069
	c0.207-0.042,0.416-0.097,0.611-0.162c0.063-0.015,0.131-0.036,0.193-0.06c0.195-0.07,0.379-0.157,0.559-0.254
	c0.023-0.014,0.053-0.028,0.076-0.037c1.146-0.641,1.996-1.735,2.271-3.057c0.391-1.256,0.846-2.473,1.347-3.674
	c0.626-1.514,1.334-2.986,2.122-4.408c13.156-23.728,48.775-35.748,106.15-35.748c11.745,0,23.964,0.518,36.396,1.444
	c3.284,0.239,6.579,0.512,9.885,0.813c2.109,0.184,4.224,0.386,6.346,0.599c3.225,0.319,6.465,0.666,9.703,1.028
	c2.813,0.321,5.639,0.658,8.458,1.011c1.849,0.228,3.697,0.462,5.548,0.704c22.007,2.879,43.888,6.617,64.398,10.621
	c2.736,0.539,5.451,1.076,8.141,1.624c2.373,0.477,4.73,0.961,7.059,1.441c2.396,0.499,4.768,1.001,7.117,1.504
	c1.986,0.427,3.961,0.85,5.908,1.275c2.518,0.548,5.005,1.102,7.454,1.644c1.665,0.377,3.315,0.748,4.942,1.121
	c2.281,0.518,4.535,1.035,6.732,1.547c13.209,3.076,24.988,6.01,34.787,8.553c2.188,0.568,4.271,1.112,6.25,1.64
	c2.984,0.783,5.717,1.522,8.208,2.196c0.157,0.039,0.313,0.084,0.473,0.125c1.044,0.573,2.089,1.155,3.133,1.732
	c1.37,0.761,2.747,1.5,4.114,2.268c0.708,0.392,1.473,0.582,2.223,0.582c1.078,0,2.117-0.416,2.944-1.124
	c1.974,0.567,3.086,0.893,3.201,0.928c0.086,0.025,0.173,0.042,0.256,0.057c0.133,0.031,0.259,0.063,0.394,0.079
	c0.134,0.026,0.27,0.031,0.405,0.035c0.081,0.006,0.167,0.025,0.251,0.025c0.023,0,0.047-0.011,0.07-0.011
	c0.303-0.004,0.604-0.034,0.896-0.098c0.023,0,0.042-0.013,0.063-0.017c0.264-0.061,0.53-0.154,0.778-0.26
	c0.078-0.042,0.164-0.083,0.25-0.129c0.193-0.094,0.381-0.209,0.564-0.342c0.072-0.048,0.144-0.094,0.217-0.144
	c0.234-0.19,0.457-0.407,0.654-0.642c0.008-0.008,0.02-0.018,0.029-0.027c0.039-0.046,0.063-0.102,0.102-0.152
	c0.1-0.129,0.207-0.26,0.287-0.405c0.023-0.04,0.034-0.08,0.063-0.12c0.053-0.097,0.098-0.196,0.142-0.291
	c0.075-0.162,0.138-0.318,0.196-0.477c0.033-0.111,0.063-0.213,0.086-0.318c0.047-0.172,0.078-0.337,0.107-0.503
	c0.008-0.105,0.027-0.212,0.033-0.311C746.963,444.609,746.957,444.424,746.949,444.233z M392.882,193.095
	c66.884,31.87,165.347,89.711,278.629,190.681C521.043,274.096,420.83,243.442,419.682,243.102
	c-0.353-0.106-0.713-0.152-1.061-0.171c-0.027-0.005-0.052-0.017-0.08-0.017l-112.396-3.975l-45.434-93.412
	C279.211,149.418,326.361,161.408,392.882,193.095z M260.988,388.539c-1.351-0.657-2.945-0.609-4.254,0.137l-100.139,57.099
	l27.546-106.512c0.384-1.488-0.011-3.077-1.044-4.213l-73.168-80.171l97.352-4.432c1.746-0.08,3.297-1.15,3.989-2.757l41.645-97.343
	l46.229,95.044c0.741,1.518,2.256,2.502,3.939,2.563l104.961,3.71l-76.008,79.285v0.006c-0.253,0.268-0.465,0.572-0.642,0.896
	c-0.056,0.091-0.097,0.175-0.146,0.267c-0.13,0.265-0.229,0.536-0.303,0.823c-0.023,0.081-0.052,0.155-0.067,0.235
	c-0.07,0.332-0.11,0.669-0.105,1.024c0,0.027,0.011,0.051,0.011,0.073c0,0.074,0.019,0.144,0.024,0.221
	c0.033,0.319,0.086,0.633,0.177,0.93c0.013,0.045,0.008,0.083,0.023,0.129l34.786,104.078L260.988,388.539z M487.686,396.454
	c-60.208,0-98.297,13.241-113.547,39.392l-32.47-97.15c32.003,0.512,182.8,7.295,347.491,87.064
	C636.377,413.037,554.751,396.454,487.686,396.454z M459.27,341.891c-53.973-9.648-94.947-11.795-113.348-12.242l73.778-76.964
	c18.544,6.176,134.007,47.862,296.327,176.388C617.379,377.555,522.91,353.262,459.27,341.891z M303.078,317.132l40.303-42.035
	c1.24-1.297,1.606-3.208,0.938-4.871c-0.684-1.662-2.271-2.779-4.064-2.839l-55.771-1.97l-24.518-50.397
	c-0.779-1.607-2.374-2.612-4.207-2.566c-1.785,0.043-3.383,1.123-4.086,2.766l-22.029,51.5l-51.55,2.346
	c-1.768,0.086-3.332,1.176-4.008,2.816c-0.674,1.633-0.348,3.507,0.846,4.814l38.849,42.563l-14.751,57.044
	c-0.462,1.775,0.188,3.649,1.647,4.763c0.807,0.619,1.783,0.937,2.765,0.937c0.775,0,1.557-0.197,2.259-0.599l53.558-30.537
	l56.062,27.326c0.629,0.311,1.313,0.463,1.994,0.463c0.016,0,0.031,0,0.037,0c2.517,0,4.556-2.041,4.556-4.557
	c0-0.709-0.159-1.379-0.446-1.976L303.078,317.132z M261.09,341.613c-1.355-0.659-2.947-0.608-4.254,0.143l-46.283,26.387
	l12.667-48.991c0.39-1.492-0.005-3.075-1.044-4.211l-33.956-37.207l44.702-2.041c1.741-0.079,3.289-1.15,3.979-2.762l19.229-44.951
	l21.352,43.89c0.74,1.518,2.252,2.502,3.939,2.563l48.333,1.704l-35.161,36.678c-1.17,1.221-1.57,2.99-1.029,4.6l15.986,47.822
	L261.09,341.613z"/>
</svg>
