<?xml version="1.0" encoding="utf-8"?>
<!-- Generator: Adobe Illustrator 16.0.0, SVG Export Plug-In . SVG Version: 6.00 Build 0)  -->
<!DOCTYPE svg PUBLIC "-//W3C//DTD SVG 1.1//EN" "http://www.w3.org/Graphics/SVG/1.1/DTD/svg11.dtd">
<svg version="1.1" id="Layer_1" xmlns="http://www.w3.org/2000/svg" xmlns:xlink="http://www.w3.org/1999/xlink" x="0px" y="0px"
	 width="841.89px" height="595.28px" viewBox="0 0 841.89 595.28" enable-background="new 0 0 841.89 595.28" xml:space="preserve">
<path fill="#010101" d="M721.808,314.184c-2.741,5.712-9.041,6.602-17.556,4.98c1.432,1.12,2.865,2.255,4.293,3.402
	c-12.785-3.709-25.719-9.103-38.154-14.639c-22.14-8.256-46.994-16.589-65.617-9.643c-34.112,40.077-21.17,106.692-46.561,117.899
	c-22.194,9.793-27.99-27.755-36.115-64.373c-21.21,4.572-48.832,12.24-62.126,23.148c-26.857,22.019-39.138,94.117-61.027,121.072
	c-28.46,35.051-100.894,36.321-100.894,36.321s65.16-14.542,92.333-52.712c21.597-30.335,29.831-106.548,61.024-126.883
	c15.002-9.776,45.646-10.281,68.862-8.961c-4.685-19.823-10.472-38.307-20.427-47.532l0,0c-2.345-0.851-4.741-1.592-7.18-2.247
	c-18.965,6.503-81.517,29.048-105.51,51.061c-45.227,41.495-14.311,115.799-72.744,144.608
	c-39.366,19.41-116.909-15.619-116.909-15.619s71.685,8.671,101.602-9.371c49.025-29.558,26.837-93.111,70.593-127.592
	c28.547-22.492,98.811-38.723,121.389-43.5c-40.819-10.274-92.053,3.701-101.014-19.491c-3.961-10.229,7.449-23.713,23.43-37.063
	c-31.205,1.513-65.14,7.095-82.939,22.669c-38.643,33.829-1.671,115.504-41.014,148.519
	c-48.255,40.507-188.162,17.957-188.162,17.957s131.73,2.933,174.082-38.783c34.993-34.466-3.869-112.309,34.223-143.315
	c24.5-19.948,74.199-19.479,113.893-15.034c25.051-18.959,55.141-36.25,58.102-41.765c5.189-9.677-29.957-108.097-7.402-117.662
	c17.578-7.451,94.604,60.003,104.262,61.162c11.197,1.338,112.861-40.365,132.74-16.751c12.59,14.958-62.552,81.803-62.758,93.919
	C648.332,218.806,740.453,275.413,721.808,314.184z"/>
</svg>
