<?xml version="1.0" encoding="utf-8"?>
<!-- Generator: Adobe Illustrator 16.0.0, SVG Export Plug-In . SVG Version: 6.00 Build 0)  -->
<!DOCTYPE svg PUBLIC "-//W3C//DTD SVG 1.1//EN" "http://www.w3.org/Graphics/SVG/1.1/DTD/svg11.dtd">
<svg version="1.1" id="Layer_1" xmlns="http://www.w3.org/2000/svg" xmlns:xlink="http://www.w3.org/1999/xlink" x="0px" y="0px"
	 width="841.89px" height="595.28px" viewBox="0 0 841.89 595.28" enable-background="new 0 0 841.89 595.28" xml:space="preserve">
<path id="XMLID_212_" fill="#010101" d="M404.31,405.593l2.757-82.996c-52.542,36.081-102.641,84.05-100.557,143.356
	c0.485,13.84,3.133,26.744,7.573,38.453c0,0-32.914-55.78-3.937-123.389c15.943-33.548,45.988-69.07,98.296-99.935
	c8.354-4.93,17.252-8.567,25.865-12.126l-1.228,36.713l-0.746,22.485l31.841-40.892l4.939-6.361l14.851-19.06l79.013,28.603
	l-47.114-69.578l51.607-66.31l-80.73,23.305l-47.107-69.58l-2.787,83.982l-80.734,23.304l19.004,6.877l39.883,14.436
	c-9.018,5.19-18.531,10.821-28.229,16.845c-60.184,37.415-130.518,96.999-128.111,165.503c0.648,18.4,5.115,35.186,12.563,49.656
	c0,0,41.376,96.204,174.854,34.102c-33.788,22.726-71.895,39.045-111.018,35.527c-3.104-0.282-6.217-0.683-9.35-1.215
	c-13.715-2.363-26.157-7.469-37.219-14.603c-24.004-15.499-41.434-40.604-50.942-68.172
	c-30.808-89.278,32.309-169.791,107.632-215.85l0,0l0,0l-71.373-25.84l138.213-39.899l4.777-143.784l80.655,119.126l138.226-39.898
	L547.3,221.907l80.66,119.132l-135.272-48.97L404.31,405.593z"/>
</svg>
