<?xml version="1.0" encoding="utf-8"?>
<!-- Generator: Adobe Illustrator 16.0.0, SVG Export Plug-In . SVG Version: 6.00 Build 0)  -->
<!DOCTYPE svg PUBLIC "-//W3C//DTD SVG 1.1//EN" "http://www.w3.org/Graphics/SVG/1.1/DTD/svg11.dtd">
<svg version="1.1" id="Layer_1" xmlns="http://www.w3.org/2000/svg" xmlns:xlink="http://www.w3.org/1999/xlink" x="0px" y="0px"
	 width="841.89px" height="595.28px" viewBox="0 0 841.89 595.28" enable-background="new 0 0 841.89 595.28" xml:space="preserve">
<path d="M692.032,366.962l-129.03-88.333L640.9,143.034c1.284-2.246,1.067-5.054-0.546-7.083c-1.616-2.021-4.3-2.857-6.78-2.1
	l-149.496,45.812L426.651,34.225c-0.95-2.408-3.276-3.993-5.859-3.993c-2.59,0-4.929,1.585-5.876,3.993l-57.428,145.459
	L207.964,133.89c-2.478-0.761-5.159,0.075-6.775,2.103c-1.626,2.021-1.827,4.833-0.538,7.075l77.917,135.59l-129.036,88.354
	c-2.133,1.463-3.148,4.083-2.568,6.611c0.571,2.527,2.626,4.442,5.195,4.836l154.587,23.609l-11.37,155.965
	c-0.183,2.58,1.232,5.02,3.566,6.145c0.87,0.422,1.81,0.625,2.731,0.625c1.562,0,3.099-0.574,4.284-1.676L420.8,456.982
	l114.854,106.123c1.198,1.099,2.733,1.677,4.284,1.677c0.932,0,1.872-0.204,2.741-0.625c2.339-1.126,3.738-3.559,3.548-6.148
	l-11.386-155.965l154.577-23.636c2.569-0.389,4.634-2.304,5.211-4.834C695.202,371.049,694.179,368.43,692.032,366.962z
	 M484.846,192.628l137.142-42.019L550.52,274.996l-58.771,13.426l28.319-49.259c0.982-1.724,0.825-3.87-0.407-5.422
	c-1.242-1.552-3.311-2.192-5.192-1.609l-57.057,17.475L484.846,192.628z M414.472,372.642l-40.752,37.662l4.156-56.894
	l24.143-19.257c3.556,2.908,7.801,4.997,12.453,6.01V372.642z M427.7,282.197c-2.227-0.53-4.526-0.818-6.908-0.818
	c-2.389,0-4.696,0.289-6.926,0.818l-13.141-27.284l20.066-50.801l20.046,50.791L427.7,282.197z M451.704,261.452l53.879-16.495
	l-26.659,46.395l-31.22,7.134c-1.997-4.246-4.971-7.947-8.628-10.803L451.704,261.452z M402.501,287.683
	c-3.668,2.856-6.642,6.557-8.639,10.809l-31.201-7.12l-26.678-46.415l53.876,16.495L402.501,287.683z M391.066,310.797
	c0,0.108-0.008,0.205-0.008,0.309c0,4.73,1.119,9.211,3.083,13.18l-25.797,20.576l-53.308-8.145l47.389-32.447L391.066,310.797z
	 M450.511,311.105c0-0.104,0-0.204,0-0.313l28.622-6.535l47.394,32.459l-53.278,8.145l-25.813-20.58
	C449.398,320.311,450.511,315.836,450.511,311.105z M420.792,53.731l52.657,133.414l-26.904,55.901l-21.26-53.86
	c-0.735-1.849-2.506-3.064-4.493-3.064c-1.994,0-3.765,1.215-4.501,3.064l-21.27,53.872l-26.912-55.884L420.792,53.731z
	 M219.561,150.641l137.168,42.011l27.43,56.948l-57.049-17.47c-1.89-0.583-3.944,0.057-5.19,1.609
	c-1.232,1.552-1.401,3.698-0.409,5.422l28.324,49.276l-58.801-13.414L219.561,150.641z M169.867,368.389l118.368-81.049
	l61.371,13.998l-50.122,34.321c-1.637,1.119-2.425,3.133-1.974,5.063c0.434,1.932,2.008,3.398,3.977,3.701l56.573,8.646
	l-46.373,36.987L169.867,368.389z M309.132,543.006l10.428-143.079l48.025-38.314l-4.395,60.194
	c-0.133,1.978,0.942,3.84,2.724,4.706c1.796,0.864,3.932,0.542,5.381-0.812l43.188-39.905v59.835L309.132,543.006z M427.105,340.155
	c4.652-1.005,8.897-3.102,12.453-6.002l24.143,19.24l4.148,56.91l-40.744-37.649V340.155z M427.113,445.631l-0.008-59.818
	l43.169,39.889c0.914,0.851,2.086,1.285,3.285,1.285c0.712,0,1.431-0.154,2.088-0.474c1.791-0.866,2.875-2.729,2.726-4.706
	l-4.389-60.213l48.047,38.311l10.448,143.084L427.113,445.631z M529.91,390.028l-46.375-36.966l56.558-8.641
	c1.958-0.303,3.534-1.77,3.974-3.701c0.443-1.93-0.337-3.943-1.975-5.063l-50.129-34.33l61.371-14.014l118.376,81.037
	L529.91,390.028z M436.888,167.775c0,8.898-7.208,16.105-16.096,16.105c-8.89,0-16.11-7.207-16.11-16.105
	c0-8.892,7.221-16.098,16.11-16.098C429.68,151.678,436.888,158.883,436.888,167.775z M318.53,210.295
	c6.958,5.549,8.099,15.678,2.551,22.632c-5.548,6.951-15.678,8.092-22.628,2.548c-6.952-5.542-8.093-15.675-2.553-22.626
	C301.448,205.895,311.581,204.75,318.53,210.295z M282.465,361.093c-8.662,1.983-17.296-3.444-19.283-12.114
	c-1.977-8.672,3.441-17.307,12.117-19.281c8.667-1.983,17.304,3.445,19.285,12.113C296.559,350.482,291.136,359.115,282.465,361.093
	z M370.997,449.115c-3.864,8.012-13.49,11.385-21.497,7.528c-8.021-3.857-11.384-13.483-7.535-21.496
	c3.864-8.014,13.487-11.383,21.5-7.522C371.482,431.48,374.851,441.105,370.997,449.115z M471.823,447.703
	c-3.859-8.016-0.502-17.635,7.511-21.498c8.023-3.857,17.642-0.488,21.495,7.526c3.866,8.007,0.501,17.63-7.512,21.495
	C485.297,459.084,475.677,455.715,471.823,447.703z M565.576,329.859c8.663,1.977,14.099,10.611,12.122,19.282
	c-1.979,8.669-10.621,14.096-19.283,12.122c-8.676-1.978-14.093-10.613-12.122-19.282
	C548.272,333.311,556.9,327.883,565.576,329.859z M522.041,232.932c-5.548-6.959-4.398-17.087,2.557-22.637
	c6.947-5.545,17.077-4.404,22.625,2.548c5.543,6.951,4.404,17.085-2.54,22.632C537.719,241.019,527.589,239.878,522.041,232.932z
	 M392.909,211.91c-3.094,0-5.59-2.497-5.59-5.584c0-3.084,2.496-5.582,5.59-5.582c3.07,0,5.579,2.498,5.579,5.582
	C398.488,209.413,395.979,211.91,392.909,211.91z M389.859,194.454c-3.086,0-5.576-2.505-5.576-5.587
	c0-3.084,2.49-5.583,5.576-5.583c3.089,0,5.596,2.499,5.596,5.583C395.455,191.949,392.948,194.454,389.859,194.454z
	 M384.283,171.351c0-3.082,2.49-5.584,5.576-5.584c3.089,0,5.596,2.502,5.596,5.584c0,3.087-2.507,5.587-5.596,5.587
	C386.773,176.938,384.283,174.438,384.283,171.351z M389.163,152.936c0-3.085,2.49-5.587,5.576-5.587
	c3.089,0,5.587,2.502,5.587,5.587c0,3.082-2.498,5.584-5.587,5.584C391.653,158.521,389.163,156.018,389.163,152.936z
	 M395.191,135.423c0-3.085,2.498-5.584,5.598-5.584c3.067,0,5.576,2.5,5.576,5.584c0,3.084-2.509,5.587-5.576,5.587
	C397.689,141.01,395.191,138.507,395.191,135.423z M401.938,118.415c0-3.087,2.498-5.584,5.592-5.584
	c3.078,0,5.577,2.498,5.577,5.584c0,3.086-2.499,5.582-5.577,5.582C404.436,123.997,401.938,121.5,401.938,118.415z
	 M408.266,101.202c0-3.082,2.493-5.584,5.577-5.584c3.083,0,5.582,2.502,5.582,5.584s-2.499,5.584-5.582,5.584
	C410.759,106.786,408.266,104.284,408.266,101.202z M414.597,84.595c0-3.082,2.499-5.584,5.598-5.584
	c3.07,0,5.577,2.502,5.577,5.584c0,3.087-2.507,5.587-5.577,5.587C417.096,90.182,414.597,87.682,414.597,84.595z M454.25,206.325
	c0,3.087-2.499,5.584-5.582,5.584c-3.081,0-5.593-2.497-5.593-5.584c0-3.084,2.512-5.582,5.593-5.582
	C451.751,200.743,454.25,203.241,454.25,206.325z M457.299,188.867c0,3.082-2.496,5.587-5.595,5.587
	c-3.07,0-5.582-2.505-5.582-5.587c0-3.084,2.512-5.583,5.582-5.583C454.803,183.284,457.299,185.782,457.299,188.867z
	 M340.127,207.235c1.919-2.414,5.433-2.808,7.848-0.887c2.413,1.924,2.802,5.439,0.88,7.851c-1.919,2.411-5.433,2.808-7.848,0.885
	C338.603,213.159,338.208,209.646,340.127,207.235z M289.282,309.41c-0.688-3.006,1.203-5.999,4.206-6.688
	c3.002-0.688,5.996,1.196,6.684,4.201c0.688,3.006-1.199,5.998-4.201,6.689C292.969,314.301,289.961,312.42,289.282,309.41z
	 M334.863,405.412c1.337-2.779,4.676-3.949,7.454-2.611c2.78,1.338,3.939,4.678,2.608,7.457c-1.34,2.779-4.674,3.949-7.451,2.607
	C334.694,411.527,333.519,408.191,334.863,405.412z M448.394,439.693c-2.777,1.332-6.111,0.171-7.448-2.608
	c-1.334-2.779-0.175-6.118,2.608-7.454c2.774-1.34,6.114-0.171,7.453,2.601C452.349,435.019,451.189,438.349,448.394,439.693z
	 M538.536,369.688c-0.687,3.005-3.687,4.886-6.688,4.203c-3.008-0.688-4.888-3.684-4.201-6.688c0.689-3.011,3.674-4.889,6.689-4.201
	C537.338,363.684,539.226,366.678,538.536,369.688z M539.99,255.57c1.935,2.411,1.541,5.924-0.877,7.848
	c-2.404,1.923-5.919,1.526-7.854-0.878c-1.919-2.413-1.524-5.925,0.891-7.854C534.563,252.762,538.074,253.156,539.99,255.57z
	 M451.704,165.767c3.099,0,5.595,2.502,5.595,5.584c0,3.087-2.496,5.587-5.595,5.587c-3.07,0-5.582-2.5-5.582-5.587
	C446.122,168.269,448.634,165.767,451.704,165.767z M446.838,147.349c3.086,0,5.579,2.502,5.579,5.587
	c0,3.082-2.493,5.584-5.579,5.584c-3.089,0-5.595-2.502-5.595-5.584C441.243,149.851,443.749,147.349,446.838,147.349z
	 M440.794,129.838c3.08,0,5.579,2.5,5.579,5.584c0,3.084-2.499,5.587-5.579,5.587c-3.084,0-5.582-2.502-5.582-5.587
	C435.212,132.338,437.71,129.838,440.794,129.838z M434.053,112.83c3.081,0,5.576,2.498,5.576,5.584
	c0,3.086-2.495,5.582-5.576,5.582c-3.083,0-5.593-2.496-5.593-5.582C428.46,115.328,430.97,112.83,434.053,112.83z M427.734,95.617
	c3.086,0,5.577,2.502,5.577,5.584s-2.491,5.584-5.577,5.584c-3.083,0-5.592-2.502-5.592-5.584S424.651,95.617,427.734,95.617z
	 M324.969,263.216c2.407,1.92,2.802,5.433,0.88,7.847c-1.924,2.408-5.446,2.805-7.854,0.878c-2.404-1.92-2.809-5.431-0.88-7.844
	C319.034,261.686,322.549,261.292,324.969,263.216z M310.302,262.554c-1.93,2.411-5.441,2.807-7.859,0.881
	c-2.404-1.918-2.798-5.431-0.88-7.844c1.919-2.41,5.434-2.805,7.854-0.888C311.831,256.628,312.212,260.144,310.302,262.554z
	 M288.755,252.519c-2.407-1.92-2.802-5.436-0.883-7.844c1.922-2.414,5.438-2.814,7.854-0.888c2.401,1.924,2.812,5.438,0.882,7.848
	C294.687,254.049,291.175,254.443,288.755,252.519z M285.24,236.339c-1.924,2.41-5.433,2.805-7.854,0.885
	c-2.401-1.928-2.796-5.438-0.874-7.851c1.913-2.411,5.436-2.805,7.848-0.878C286.775,230.412,287.175,233.925,285.24,236.339z
	 M275.322,220.699c-1.93,2.411-5.434,2.808-7.849,0.881c-2.415-1.92-2.814-5.433-0.885-7.847c1.924-2.411,5.438-2.81,7.84-0.885
	C276.844,214.775,277.243,218.288,275.322,220.699z M258.381,205.705c-2.421-1.923-2.813-5.436-0.891-7.847
	c1.919-2.411,5.441-2.808,7.848-0.885c2.415,1.92,2.814,5.437,0.896,7.848C264.299,207.235,260.785,207.629,258.381,205.705z
	 M256.71,189.149c-1.925,2.414-5.438,2.808-7.854,0.888c-2.402-1.924-2.802-5.44-0.88-7.851c1.919-2.411,5.433-2.805,7.848-0.881
	C258.231,183.225,258.631,186.738,256.71,189.149z M239.828,174.724c-2.415-1.924-2.804-5.437-0.891-7.851
	c1.93-2.411,5.434-2.805,7.854-0.88c2.418,1.92,2.813,5.432,0.877,7.843C245.747,176.25,242.24,176.647,239.828,174.724z
	 M351.873,220.502c1.935-2.414,5.446-2.808,7.854-0.888c2.414,1.927,2.809,5.439,0.89,7.851c-1.929,2.411-5.443,2.808-7.854,0.885
	C350.349,226.426,349.954,222.913,351.873,220.502z M326.431,196.317c1.927-2.411,5.438-2.805,7.846-0.885
	c2.42,1.924,2.809,5.437,0.89,7.848c-1.929,2.412-5.428,2.811-7.848,0.888C324.9,202.242,324.501,198.729,326.431,196.317z
	 M308.998,188.646c1.919-2.411,5.434-2.806,7.838-0.885c2.415,1.927,2.814,5.437,0.891,7.851c-1.919,2.411-5.441,2.805-7.849,0.88
	C307.458,194.573,307.063,191.06,308.998,188.646z M291.535,182.446c1.919-2.406,5.433-2.808,7.848-0.883
	c2.407,1.922,2.802,5.44,0.88,7.854c-1.919,2.41-5.433,2.805-7.848,0.88C290.005,188.375,289.61,184.856,291.535,182.446z
	 M274.024,177.114c1.935-2.414,5.446-2.805,7.861-0.884c2.407,1.923,2.801,5.441,0.882,7.85c-1.921,2.41-5.443,2.809-7.853,0.885
	C272.497,183.038,272.103,179.524,274.024,177.114z M256.637,171.325c1.921-2.414,5.433-2.808,7.846-0.883
	c2.414,1.922,2.809,5.435,0.89,7.848c-1.935,2.409-5.448,2.805-7.854,0.885C255.102,177.249,254.707,173.736,256.637,171.325z
	 M319.387,362.856c-0.679-3.012,1.198-6.005,4.217-6.688c3.002-0.688,5.994,1.191,6.684,4.203c0.679,3.004-1.193,5.998-4.217,6.686
	C323.073,367.741,320.089,365.859,319.387,362.856z M309.74,373.908c-3.013,0.689-6.013-1.199-6.699-4.204
	c-0.679-3.005,1.203-5.995,4.2-6.684c3.021-0.684,6.011,1.196,6.689,4.201C314.617,370.227,312.745,373.224,309.74,373.908z
	 M296.866,371.117c0.689,3.01-1.203,6.004-4.206,6.688c-3.002,0.688-5.994-1.193-6.684-4.203c-0.687-3.005,1.198-5.999,4.201-6.687
	C293.18,366.232,296.188,368.111,296.866,371.117z M277.82,370.461c0.689,3.007-1.193,6.002-4.2,6.689
	c-3.003,0.689-6-1.19-6.689-4.203c-0.689-3.003,1.198-5.998,4.201-6.687C274.149,365.572,277.142,367.457,277.82,370.461z
	 M259.409,368.475c0.689,3.005-1.198,5.996-4.201,6.689c-3.007,0.682-6.01-1.193-6.688-4.207c-0.687-3.01,1.193-6,4.201-6.684
	C255.723,363.581,258.723,365.465,259.409,368.475z M241.321,365.687c0.679,3.005-1.192,6.001-4.2,6.684
	c-3.013,0.69-6.01-1.19-6.689-4.196c-0.688-3.01,1.199-6,4.206-6.693C237.641,360.798,240.633,362.682,241.321,365.687z
	 M223.138,363.36c0.687,2.999-1.196,5.995-4.203,6.684c-3.003,0.69-6-1.196-6.689-4.201c-0.687-3.005,1.19-6.006,4.204-6.694
	C219.456,358.467,222.448,360.345,223.138,363.36z M205.527,360.875c0.689,3.002-1.183,5.995-4.189,6.686
	c-3.014,0.684-6.011-1.201-6.699-4.2c-0.677-3.016,1.198-6.007,4.203-6.694C201.857,355.982,204.852,357.861,205.527,360.875z
	 M306.985,308.494c-0.691-3.009,1.188-6.002,4.201-6.689c3.008-0.685,6.002,1.195,6.688,4.204c0.689,3.005-1.203,5.997-4.206,6.68
	C310.667,313.382,307.675,311.5,306.985,308.494z M272.21,313.314c-0.679-3.015,1.193-6.006,4.201-6.693
	c3.013-0.687,6.01,1.195,6.688,4.201c0.687,3.005-1.188,6.002-4.19,6.686C275.886,318.199,272.896,316.31,272.21,313.314z
	 M262.027,326.364c-3.007,0.69-6.004-1.193-6.684-4.204c-0.688-3.004,1.184-5.995,4.201-6.684c3.003-0.693,5.994,1.192,6.688,4.201
	C266.907,322.683,265.03,325.674,262.027,326.364z M246.293,336.152c-3.003,0.684-6.003-1.199-6.676-4.204
	c-0.703-3.009,1.19-6.002,4.192-6.687c3.008-0.688,5.994,1.192,6.691,4.201C251.18,332.468,249.309,335.464,246.293,336.152z
	 M231.21,346.51c-3.002,0.691-5.994-1.19-6.688-4.2c-0.687-3.005,1.203-5.999,4.206-6.687c3.007-0.69,5.997,1.195,6.684,4.201
	C236.1,342.829,234.218,345.827,231.21,346.51z M209.151,352.3c-0.687-3.011,1.204-6.004,4.201-6.688
	c3.005-0.688,6.002,1.191,6.688,4.202c0.689,3.005-1.198,5.999-4.201,6.688C212.833,357.186,209.841,355.309,209.151,352.3z
	 M405.482,420.033c-1.347,2.779-4.676,3.948-7.456,2.609c-2.778-1.339-3.953-4.677-2.608-7.454c1.348-2.779,4.676-3.949,7.457-2.611
	C405.652,413.917,406.827,417.255,405.482,420.033z M400.653,437.085c-1.335,2.784-4.682,3.948-7.46,2.608
	c-2.78-1.333-3.939-4.675-2.607-7.454c1.342-2.779,4.673-3.948,7.459-2.608C400.817,430.967,401.981,434.306,400.653,437.085z
	 M393.05,452.863c-1.334,2.784-4.668,3.951-7.445,2.611c-2.794-1.34-3.956-4.676-2.611-7.455c1.337-2.773,4.676-3.949,7.449-2.61
	C393.228,446.748,394.387,450.092,393.05,452.863z M380.665,467.346c-1.329,2.779-4.674,3.948-7.451,2.607
	c-2.781-1.338-3.945-4.674-2.608-7.453c1.345-2.779,4.673-3.947,7.451-2.608C380.837,461.229,382.012,464.566,380.665,467.346z
	 M367.632,480.504c-1.332,2.779-4.676,3.948-7.454,2.61c-2.78-1.338-3.955-4.677-2.608-7.456c1.334-2.777,4.674-3.947,7.454-2.608
	C367.802,474.388,368.977,477.721,367.632,480.504z M354.178,492.902c-1.342,2.784-4.678,3.946-7.453,2.615
	c-2.778-1.34-3.955-4.678-2.613-7.463c1.336-2.771,4.668-3.947,7.459-2.609C354.346,486.787,355.51,490.129,354.178,492.902z
	 M341.018,505.673c-1.343,2.776-4.682,3.94-7.454,2.608c-2.778-1.34-3.955-4.678-2.608-7.457c1.332-2.777,4.676-3.944,7.454-2.609
	C341.185,499.555,342.354,502.895,341.018,505.673z M328.097,517.883c-1.332,2.777-4.676,3.947-7.459,2.609
	c-2.775-1.34-3.95-4.675-2.608-7.454c1.334-2.779,4.684-3.95,7.459-2.61C328.269,511.766,329.438,515.104,328.097,517.883z
	 M345.179,391c1.34-2.779,4.674-3.951,7.448-2.61c2.791,1.337,3.956,4.675,2.608,7.454c-1.326,2.783-4.671,3.947-7.448,2.61
	C345.007,397.12,343.842,393.775,345.179,391z M327.259,421.19c1.347-2.779,4.678-3.947,7.453-2.608
	c2.783,1.338,3.956,4.671,2.608,7.454c-1.326,2.779-4.671,3.948-7.448,2.61C327.091,427.305,325.916,423.97,327.259,421.19z
	 M323.669,439.904c1.334-2.779,4.673-3.955,7.453-2.614c2.778,1.335,3.948,4.68,2.608,7.454c-1.342,2.783-4.671,3.952-7.454,2.614
	C323.501,446.02,322.332,442.682,323.669,439.904z M321.51,458.305c1.336-2.785,4.676-3.949,7.459-2.611
	c2.775,1.333,3.955,4.67,2.607,7.448c-1.334,2.787-4.673,3.952-7.453,2.611C321.345,464.414,320.167,461.078,321.51,458.305z
	 M330.276,481.396c-1.342,2.779-4.676,3.951-7.454,2.611c-2.78-1.342-3.955-4.676-2.607-7.454c1.328-2.779,4.662-3.952,7.453-2.61
	C330.446,475.281,331.61,478.617,330.276,481.396z M328.506,499.643c-1.347,2.783-4.684,3.949-7.469,2.614
	c-2.768-1.339-3.939-4.681-2.598-7.459c1.331-2.778,4.676-3.945,7.453-2.608C328.674,493.53,329.833,496.868,328.506,499.643z
	 M486.35,395.833c-1.342-2.778-0.173-6.118,2.607-7.456c2.778-1.337,6.112-0.168,7.446,2.607c1.342,2.779,0.183,6.117-2.601,7.457
	C491.013,399.782,487.679,398.617,486.35,395.833z M499.271,402.792c2.783-1.341,6.111-0.179,7.453,2.601
	c1.348,2.779,0.175,6.118-2.607,7.457c-2.775,1.338-6.107,0.17-7.454-2.604C495.33,407.467,496.495,404.131,499.271,402.792z
	 M506.873,418.565c2.777-1.339,6.127-0.169,7.453,2.61c1.345,2.779,0.176,6.115-2.607,7.454c-2.775,1.341-6.104,0.169-7.454-2.61
	C502.923,423.241,504.092,419.903,506.873,418.565z M517.922,439.885c1.345,2.779,0.183,6.112-2.598,7.457
	c-2.775,1.338-6.125,0.168-7.459-2.611c-1.337-2.777-0.178-6.115,2.607-7.455C513.254,435.939,516.585,437.107,517.922,439.885z
	 M520.089,458.281c1.331,2.785,0.172,6.113-2.608,7.455c-2.778,1.344-6.122,0.176-7.459-2.609c-1.34-2.773-0.165-6.117,2.613-7.456
	C515.415,454.338,518.744,455.503,520.089,458.281z M511.324,481.375c-1.332-2.771-0.173-6.111,2.608-7.452
	c2.777-1.335,6.122-0.168,7.469,2.606c1.329,2.783,0.16,6.12-2.623,7.461C516.013,485.328,512.669,484.161,511.324,481.375z
	 M523.172,494.783c1.334,2.779,0.175,6.117-2.608,7.454c-2.775,1.341-6.125,0.168-7.453-2.61c-1.343-2.778-0.173-6.113,2.607-7.453
	C518.496,490.833,521.825,492.006,523.172,494.783z M524.665,512.495c1.332,2.778,0.167,6.116-2.613,7.454
	c-2.777,1.339-6.122,0.177-7.448-2.602c-1.334-2.783-0.175-6.123,2.608-7.463C519.986,508.549,523.32,509.716,524.665,512.495z
	 M436.118,420.033c-1.358-2.786-0.184-6.116,2.598-7.456c2.777-1.338,6.122-0.168,7.459,2.606c1.337,2.778,0.164,6.12-2.613,7.453
	C440.78,423.981,437.449,422.813,436.118,420.033z M458.604,448.014c1.337,2.777,0.172,6.115-2.608,7.453
	c-2.777,1.34-6.111,0.176-7.448-2.604c-1.34-2.783-0.175-6.121,2.608-7.454C453.932,444.064,457.263,445.234,458.604,448.014z
	 M470.984,462.49c1.345,2.783,0.184,6.121-2.598,7.454c-2.774,1.338-6.119,0.173-7.453-2.61c-1.342-2.771-0.17-6.112,2.613-7.454
	C466.322,458.539,469.658,459.711,470.984,462.49z M484.031,475.648c1.347,2.779,0.172,6.113-2.608,7.454
	c-2.775,1.341-6.106,0.171-7.454-2.608c-1.342-2.779-0.167-6.118,2.613-7.448C479.357,471.7,482.702,472.869,484.031,475.648z
	 M497.5,488.045c1.334,2.779,0.164,6.115-2.624,7.457c-2.765,1.336-6.109,0.174-7.443-2.609c-1.347-2.779-0.167-6.117,2.598-7.456
	C492.821,484.099,496.153,485.266,497.5,488.045z M510.656,500.809c1.339,2.778,0.169,6.116-2.608,7.463
	c-2.78,1.33-6.12,0.169-7.454-2.615c-1.347-2.778-0.178-6.119,2.608-7.455C505.982,496.863,509.313,498.029,510.656,500.809z
	 M534.597,308.471c-0.694,3.011-3.687,4.892-6.704,4.203c-3.003-0.689-4.875-3.678-4.201-6.688c0.694-3.005,3.682-4.892,6.699-4.195
	C533.394,302.467,535.271,305.466,534.597,308.471z M545.596,313.588c-2.997-0.683-4.879-3.676-4.19-6.678
	c0.679-3.014,3.671-4.895,6.689-4.212c3.002,0.685,4.879,3.682,4.2,6.687C551.606,312.395,548.608,314.271,545.596,313.588z
	 M558.47,310.793c0.687-3.001,3.684-4.885,6.688-4.196c3.008,0.684,4.888,3.684,4.201,6.687c-0.674,3.004-3.679,4.887-6.684,4.203
	C559.671,316.798,557.78,313.803,558.47,310.793z M575.349,319.648c0.689-3.004,3.676-4.886,6.684-4.203
	c3.005,0.685,4.896,3.679,4.206,6.689c-0.687,3.01-3.682,4.889-6.689,4.201C576.534,325.652,574.656,322.659,575.349,319.648z
	 M591.076,329.432c0.687-3.005,3.681-4.887,6.678-4.201c3.021,0.688,4.898,3.68,4.22,6.686c-0.687,3.009-3.685,4.893-6.697,4.201
	C592.269,335.433,590.397,332.441,591.076,329.432z M606.166,339.787c0.679-3.002,3.676-4.889,6.679-4.201
	c3.008,0.685,4.897,3.677,4.211,6.688c-0.679,3.012-3.687,4.887-6.688,4.203C607.359,345.793,605.477,342.798,606.166,339.787z
	 M621.536,349.775c0.679-3.006,3.687-4.887,6.688-4.204c3.003,0.685,4.888,3.685,4.201,6.688c-0.689,3.011-3.682,4.889-6.689,4.207
	C622.734,355.778,620.847,352.785,621.536,349.775z M636.323,359.651c0.674-3.005,3.671-4.884,6.684-4.2
	c3.008,0.688,4.88,3.676,4.201,6.691c-0.689,3-3.676,4.886-6.699,4.195C637.521,365.65,635.629,362.656,636.323,359.651z
	 M522.19,362.838c-0.687,3.005-3.682,4.884-6.684,4.195c-3.021-0.683-4.893-3.673-4.206-6.68c0.679-3.009,3.681-4.894,6.688-4.203
	C520.992,356.834,522.88,359.828,522.19,362.838z M555.616,373.58c-0.689,3.01-3.682,4.892-6.699,4.203
	c-3.003-0.683-4.88-3.684-4.19-6.688c0.676-3.005,3.666-4.884,6.673-4.196C554.418,367.582,556.292,370.575,555.616,373.58z
	 M574.646,372.918c-0.679,3.011-3.666,4.892-6.684,4.209c-3.008-0.688-4.893-3.684-4.206-6.689c0.689-3.01,3.681-4.889,6.688-4.2
	C573.448,366.92,575.335,369.913,574.646,372.918z M588.867,364.245c3.008,0.683,4.88,3.677,4.201,6.681
	c-0.689,3.011-3.677,4.896-6.684,4.207c-3.003-0.684-4.896-3.677-4.201-6.688C582.857,365.436,585.854,363.555,588.867,364.245z
	 M606.955,361.449c3.002,0.688,4.89,3.682,4.2,6.686c-0.687,3.006-3.687,4.892-6.699,4.204c-2.992-0.683-4.877-3.679-4.19-6.688
	C600.944,362.645,603.937,360.762,606.955,361.449z M618.442,363.324c0.687-3.011,3.688-4.893,6.688-4.209
	c3.011,0.69,4.888,3.684,4.209,6.693c-0.687,3.006-3.682,4.887-6.684,4.204C619.636,369.322,617.764,366.328,618.442,363.324z
	 M481.833,219.605c2.404-1.928,5.918-1.526,7.848,0.882c1.919,2.414,1.53,5.927-0.88,7.854c-2.418,1.915-5.929,1.526-7.863-0.888
	C479.019,225.042,479.415,221.529,481.833,219.605z M492.699,214.187c-1.922-2.411-1.527-5.924,0.879-7.851
	c2.405-1.92,5.933-1.526,7.854,0.888c1.919,2.406,1.52,5.924-0.885,7.846C498.135,216.994,494.618,216.599,492.699,214.187z
	 M506.387,203.266c-1.924-2.409-1.524-5.927,0.883-7.847c2.415-1.924,5.927-1.53,7.848,0.881c1.919,2.408,1.53,5.926-0.882,7.848
	C511.82,206.071,508.309,205.674,506.387,203.266z M523.827,195.59c-1.93-2.409-1.522-5.921,0.885-7.848
	c2.415-1.925,5.93-1.53,7.849,0.888c1.921,2.406,1.54,5.924-0.896,7.851C529.273,198.4,525.746,198.006,523.827,195.59z
	 M541.28,189.392c-1.922-2.411-1.524-5.924,0.896-7.851c2.404-1.92,5.919-1.53,7.848,0.884c1.919,2.41,1.525,5.928-0.896,7.851
	C546.727,192.2,543.215,191.805,541.28,189.392z M558.786,184.055c-1.919-2.411-1.52-5.924,0.885-7.845
	c2.417-1.926,5.929-1.535,7.851,0.876c1.919,2.417,1.524,5.93-0.883,7.851C564.224,186.863,560.707,186.466,558.786,184.055z
	 M576.182,178.259c-1.93-2.409-1.535-5.924,0.88-7.848c2.407-1.92,5.921-1.526,7.853,0.885c1.922,2.414,1.527,5.926-0.88,7.851
	C581.614,181.07,578.103,180.673,576.182,178.259z M593.12,172.863c-1.924-2.406-1.53-5.924,0.877-7.847
	c2.421-1.924,5.932-1.53,7.854,0.881c1.919,2.414,1.532,5.927-0.883,7.846C598.553,175.671,595.05,175.271,593.12,172.863z
	 M524.448,264.08c1.919,2.406,1.525,5.924-0.877,7.844c-2.42,1.927-5.929,1.533-7.854-0.878c-1.919-2.414-1.524-5.927,0.88-7.854
	C519.021,261.267,522.532,261.666,524.448,264.08z M553.694,244.644c1.922,2.414,1.525,5.933-0.896,7.854
	c-2.404,1.923-5.926,1.53-7.837-0.883c-1.93-2.411-1.535-5.924,0.88-7.844C548.248,241.844,551.76,242.24,553.694,244.644z
	 M556.313,236.314c-1.922-2.411-1.535-5.924,0.88-7.843c2.415-1.928,5.934-1.534,7.853,0.875c1.922,2.411,1.525,5.924-0.896,7.856
	C561.746,239.122,558.232,238.728,556.313,236.314z M567.124,212.825c2.407-1.925,5.919-1.531,7.841,0.882
	c1.935,2.411,1.535,5.924-0.88,7.848c-2.407,1.923-5.919,1.526-7.84-0.885C564.315,218.259,564.704,214.744,567.124,212.825z
	 M575.325,204.795c-1.919-2.414-1.524-5.927,0.88-7.854c2.423-1.923,5.934-1.523,7.863,0.888c1.922,2.406,1.522,5.918-0.896,7.844
	C580.773,207.601,577.246,207.206,575.325,204.795z M585.724,181.27c2.412-1.92,5.939-1.53,7.858,0.888
	c1.919,2.411,1.52,5.924-0.885,7.851c-2.415,1.92-5.929,1.526-7.848-0.885C582.92,186.709,583.322,183.196,585.724,181.27z"/>
</svg>
