<?xml version="1.0" encoding="utf-8"?>
<!-- Generator: Adobe Illustrator 16.0.0, SVG Export Plug-In . SVG Version: 6.00 Build 0)  -->
<!DOCTYPE svg PUBLIC "-//W3C//DTD SVG 1.1//EN" "http://www.w3.org/Graphics/SVG/1.1/DTD/svg11.dtd">
<svg version="1.1" id="Layer_1" xmlns="http://www.w3.org/2000/svg" xmlns:xlink="http://www.w3.org/1999/xlink" x="0px" y="0px"
	 width="841.89px" height="595.28px" viewBox="0 0 841.89 595.28" enable-background="new 0 0 841.89 595.28" xml:space="preserve">
<path fill="#010101" d="M518.936,331.758l37.475-25.906c3.32-2.295,7.822,0.215,7.623,4.242l-2.242,45.51
	c-0.076,1.595,0.64,3.126,1.906,4.1l36.225,27.643c3.205,2.445,2.213,7.51-1.676,8.564l-43.977,11.923
	c-1.546,0.429-2.775,1.578-3.311,3.093l-15.096,42.985c-1.337,3.8-6.457,4.42-8.662,1.056l-24.939-38.135
	c-0.871-1.347-2.359-2.16-3.952-2.205l-45.545-1.072c-4.039-0.098-6.208-4.772-3.687-7.905l28.564-35.506
	c1.01-1.249,1.332-2.904,0.872-4.444l-13.052-43.645c-1.153-3.861,2.619-7.377,6.392-5.941l42.582,16.186
	C515.928,332.867,517.611,332.67,518.936,331.758z M432.241,399.797c2.392-3.26,1.688-7.828-1.569-10.22L251.011,257.693
	c-3.245-2.389-7.822-1.692-10.208,1.567c-2.392,3.259-1.692,7.827,1.563,10.219l179.659,131.882
	c1.303,0.958,2.814,1.417,4.315,1.417C428.594,402.778,430.803,401.743,432.241,399.797z M437.473,308.152
	c2.393-3.259,1.692-7.828-1.571-10.217L256.25,166.052c-3.244-2.392-7.824-1.691-10.216,1.564c-2.392,3.253-1.684,7.83,1.569,10.211
	l179.661,131.894c1.3,0.957,2.814,1.416,4.318,1.416C433.823,311.137,436.043,310.104,437.473,308.152z M529.545,281.536
	c2.392-3.257,1.694-7.826-1.553-10.219L348.325,139.437c-3.245-2.392-7.827-1.691-10.208,1.563
	c-2.392,3.253-1.695,7.83,1.559,10.212L519.34,283.105c1.303,0.958,2.814,1.417,4.32,1.417
	C525.898,284.523,528.125,283.485,529.545,281.536z"/>
</svg>
