<?xml version="1.0" encoding="utf-8"?>
<!-- Generator: Adobe Illustrator 16.0.0, SVG Export Plug-In . SVG Version: 6.00 Build 0)  -->
<!DOCTYPE svg PUBLIC "-//W3C//DTD SVG 1.1//EN" "http://www.w3.org/Graphics/SVG/1.1/DTD/svg11.dtd">
<svg version="1.1" id="Layer_1" xmlns="http://www.w3.org/2000/svg" xmlns:xlink="http://www.w3.org/1999/xlink" x="0px" y="0px"
	 width="841.89px" height="595.28px" viewBox="0 0 841.89 595.28" enable-background="new 0 0 841.89 595.28" xml:space="preserve">
<path fill="#010101" d="M510.934,348.473l47.328,159.144l-136.82-94.062l-136.727,94.189l47.182-159.19L200.06,247.624
	l165.976-4.321l55.26-156.569l55.396,156.515l165.981,4.168L510.934,348.473L510.934,348.473z M550.231,495.308L505.783,345.85
	l-79.894-30.521l-0.044,0.06v0.006v-0.003l123.712,179.451L550.231,495.308L550.231,495.308z M425.451,315.924L293.477,494.939
	l127.934-88.129l4.041-90.889V315.924z M214.596,250.564l-1.512,0.038L337.17,345.6l-0.136,0.457l88.451-30.686l0.008-0.228
	l-210.892-64.579H214.596z M474.082,246.501l-48.093,68.503v-0.061l-0.22-0.252l-4.354-215.245l-0.103-0.287l-52.004,147.37
	l-1.049,2.321l57.513,65.839l0.005,0.371l0.006,0.202l0.211-0.073l-0.005-0.144l202.454-63.695l1.239-0.951l-155.605-3.907
	L474.082,246.501z M425.953,315.063l0.036-0.059v0.046L425.953,315.063z"/>
</svg>
