<?xml version="1.0" encoding="utf-8"?>
<!-- Generator: Adobe Illustrator 16.0.0, SVG Export Plug-In . SVG Version: 6.00 Build 0)  -->
<!DOCTYPE svg PUBLIC "-//W3C//DTD SVG 1.1//EN" "http://www.w3.org/Graphics/SVG/1.1/DTD/svg11.dtd">
<svg version="1.1" id="Layer_1" xmlns="http://www.w3.org/2000/svg" xmlns:xlink="http://www.w3.org/1999/xlink" x="0px" y="0px"
	 width="841.89px" height="595.28px" viewBox="0 0 841.89 595.28" enable-background="new 0 0 841.89 595.28" xml:space="preserve">
<path fill="#010101" d="M498.932,273.273l1.368-41.304c-9.691,4.012-19.695,8.094-29.095,13.643
	c-58.836,34.718-135.045,84.44-157.367,219.662c-15.688-135.936,73.06-213.176,132.99-250.433
	c10.908-6.783,21.626-13.104,31.75-18.95l-44.863-16.234l-21.369-7.737l90.808-26.216l3.128-94.465l53.004,78.265l90.809-26.216
	l-58.061,74.59l52.998,78.265l-88.879-32.173l-16.69,21.442l-5.574,7.155l-35.796,45.989L498.932,273.273z M317.712,215.121
	l14.686-37.042l2.287-5.762l6.833-17.276l64.494,4.086l-49.77-41.21l23.811-60.077l-54.571,34.606l-49.774-41.208l16.038,62.595
	l-54.568,34.606l15.506,0.985l32.557,2.058c-5.532,5.784-11.357,11.977-17.216,18.525c-32.184,35.936-75.627,103.639-39.282,189.842
	c-11.271-93.023,29.221-140.262,61.177-174.318c5.104-5.445,10.89-10.043,16.489-14.53l7.008,27.369L317.712,215.121z
	 M511.127,445.693l9.827-24.793l1.53-3.859l4.576-11.557l43.172,2.731l-33.318-27.583l15.938-40.207l-36.527,23.16l-33.313-27.587
	l10.735,41.903l-36.515,23.165l10.375,0.649l21.779,1.383c-3.702,3.869-7.595,8.016-11.516,12.396
	c-21.534,24.048-50.613,69.369-26.304,127.059c-7.517-62.259,19.563-93.874,40.966-116.669c3.412-3.644,7.286-6.72,11.02-9.726
	l4.702,18.322L511.127,445.693z"/>
</svg>
