<?xml version="1.0" encoding="utf-8"?>
<!-- Generator: Adobe Illustrator 16.0.0, SVG Export Plug-In . SVG Version: 6.00 Build 0)  -->
<!DOCTYPE svg PUBLIC "-//W3C//DTD SVG 1.1//EN" "http://www.w3.org/Graphics/SVG/1.1/DTD/svg11.dtd">
<svg version="1.1" id="Layer_1" xmlns="http://www.w3.org/2000/svg" xmlns:xlink="http://www.w3.org/1999/xlink" x="0px" y="0px"
	 width="841.89px" height="595.28px" viewBox="0 0 841.89 595.28" enable-background="new 0 0 841.89 595.28" xml:space="preserve">
<path d="M623.061,317.74c2.29,3.298,4.528,6.709,6.756,10.239l-11.489-2.577c-1.075,3.922-2.522,7.75-3.758,11.569
	c-1.585-3.725-3.187-7.341-4.818-10.852c-3.688,1.409-7.384,2.712-11.052,3.91c1.815-3.256,3.5-6.619,5.028-10.059
	c-3.45-1.82-6.886-3.557-10.363-5.218c3.724-0.934,7.452-1.946,11.191-3.043c-0.804-3.681-1.811-7.307-2.914-10.872
	c3.351,1.908,6.698,3.927,10.042,6.04c2.297-3.113,4.597-6.333,6.896-9.668c0.445,3.993,1.067,8.025,1.368,12.085l11.781-0.24
	C628.838,312.072,625.946,314.969,623.061,317.74z M625.067,351.234l-11.581-2.14c0.538-4.029,0.725-8.118,1.083-12.123
	c-2.918,2.809-5.812,5.509-8.691,8.097c-2.841-2.746-5.724-5.395-8.623-7.936c0.384,3.708,0.614,7.455,0.67,11.223
	c-3.892,0.317-7.718,0.57-11.586,0.717c3.059,2.323,6.096,4.721,9.106,7.205c-2.177,3.066-4.575,5.986-6.949,8.831
	c3.819-0.437,7.681-0.965,11.587-1.595c0.867,3.756,1.796,7.662,2.51,11.597c2.085-3.45,4.112-6.971,6.062-10.557l10.735,4.854
	c-1.476-3.915-3.004-7.719-4.563-11.407C618.242,355.873,621.622,353.605,625.067,351.234z M609.978,391.202l-10.901-4.439
	c1.399-3.815,2.374-7.792,3.517-11.652c-3.439,2.154-6.706,4.265-10.149,6.159c-2.126-3.213-4.514-6.436-6.816-9.502
	c-0.344,3.729-0.98,7.393-1.608,11.133c-3.839-0.461-7.669-1.004-11.53-1.666c2.535,2.902,5.035,5.875,7.493,8.915
	c-2.708,2.591-5.767,4.896-8.583,7.265c3.823,0.336,7.703,0.584,11.63,0.744c0.11,3.867,0.298,7.922,0.117,11.866
	c2.872-2.871,5.371-6.033,8.103-9.09l9.496,6.905c-0.563-4.074-1.387-8.171-2.162-12.093
	C602.457,394.414,606.119,392.82,609.978,391.202z M587.16,427.274l-9.776-6.533c2.083-3.491,3.966-7.1,5.762-10.717
	c-3.754,1.448-7.381,2.855-11.183,3.987c-1.465-3.604-3.023-7.139-4.729-10.661c-1.066,3.597-2.504,7.004-3.804,10.597
	c-3.689-1.232-7.393-2.589-10.993-3.971c1.907,3.356,3.771,6.782,5.571,10.267c-3.28,1.89-6.584,3.684-9.875,5.378
	c3.723,1.149,7.405,2.106,11.232,3.057c-0.588,3.887-1.333,7.781-2.264,11.649c3.35-2.277,6.544-4.768,9.744-7.3l7.928,8.678
	c0.293-4.08,0.326-8.232,0.306-12.277C579.129,428.893,583.127,428.148,587.16,427.274z M557.596,458.044l-8.269-8.353
	c2.668-3.095,5.342-6.124,7.774-9.364c-3.896,0.737-7.851,1.264-11.749,1.668c-0.755-3.854-1.55-7.617-2.47-11.365
	c-1.9,3.165-3.801,6.434-5.889,9.582c-3.388-1.975-6.713-4.005-9.965-6.078c1.2,3.672,2.386,7.463,3.406,11.174
	c-3.646,1.124-7.116,2.389-10.771,3.266c3.426,1.876,6.903,3.64,10.414,5.271c-1.317,3.747-2.933,7.262-4.545,10.969
	c3.686-1.642,7.404-3.304,10.986-5.218l6.041,10.097c1.047-4.009,2.019-7.932,2.76-11.962
	C549.334,457.93,553.51,458.141,557.596,458.044z M522.461,482.285l-6.42-9.839c3.193-2.566,6.459-4.946,9.492-7.633
	c-3.945-0.019-8.005-0.432-11.848-0.721c0.037-3.939-0.021-7.824-0.167-11.664c-2.485,2.719-4.96,5.618-7.683,8.205
	c-2.911-2.605-5.746-5.242-8.513-7.916c0.462,3.891,0.796,7.693,1.065,11.584c-3.753,0.464-7.455,0.874-11.201,1.039
	c2.956,2.461,6.042,4.982,9.15,7.29c-2.082,3.317-4.346,6.509-6.663,9.832c3.896-0.967,7.937-1.713,11.812-2.919l3.883,11.115
	c1.816-3.77,3.574-7.377,5.12-11.156C514.371,480.485,518.395,481.483,522.461,482.285z M483.118,498.932l-4.303-10.967
	c3.693-1.727,7.292-3.63,10.859-5.502c-3.911-0.94-7.751-2.037-11.46-3.101c0.83-3.863,1.556-7.697,2.183-11.497
	c-2.959,2.248-6.005,4.469-9.175,6.488c-2.326-3.134-4.567-6.279-6.725-9.452c-0.358,3.834-0.798,7.659-1.309,11.522
	c-3.765-0.242-7.493-0.675-11.183-1.234c2.398,3.022,4.891,6.029,7.488,9.02c-2.728,2.732-5.571,5.501-8.526,8.259
	c4.021-0.14,8.107-0.14,12.157-0.457l1.553,11.673c2.54-3.313,4.979-6.597,7.282-9.877
	C475.561,495.552,479.282,497.262,483.118,498.932z M441.215,507.245l-1.989-11.609c3.966-0.877,7.867-2.125,11.743-3.168
	c-3.641-1.772-7.175-3.544-10.59-5.359c1.594-3.605,3.081-7.237,4.462-10.836c-3.352,1.646-6.788,3.149-10.3,4.509
	c-1.647-3.537-3.205-7.061-4.696-10.611c-1.115,3.672-2.316,7.344-3.604,11.024c-3.639-0.991-7.206-2.166-10.711-3.453
	c1.738,3.445,3.589,6.889,5.532,10.336c-3.22,2.134-6.559,4.268-10.002,6.395c3.966,0.648,7.961,1.484,11.998,1.976l-0.821,11.745
	c3.155-2.729,6.185-5.472,9.1-8.206C434.512,502.431,437.809,504.841,441.215,507.245z M398.566,507.016l0.354-11.768
	c4.073-0.108,8.13-0.509,12.14-0.776c-3.215-2.449-6.321-4.919-9.311-7.363c2.284-3.234,4.456-6.476,6.531-9.726
	c-3.61,0.916-7.279,1.75-10.995,2.364c-0.908-3.795-1.733-7.57-2.479-11.333c-1.829,3.388-3.739,6.734-5.728,10.087
	c-3.358-1.704-6.627-3.562-9.792-5.525c1.015,3.718,2.123,7.467,3.348,11.233c-3.591,1.44-7.287,2.872-11.086,4.25
	c3.749,1.445,7.508,3.057,11.363,4.35l-3.157,11.343c3.637-2.047,7.16-4.112,10.566-6.227
	C392.947,500.945,395.699,503.978,398.566,507.016z M356.771,498.214l2.723-11.457c3.995,0.768,8.072,1.137,12.054,1.702
	c-2.654-3.063-5.21-6.063-7.635-9.097c2.872-2.669,5.672-5.438,8.354-8.195c-3.729,0.192-7.473,0.214-11.236,0.098
	c-0.119-3.911-0.183-7.724-0.127-11.619c-2.471,2.937-5.029,5.852-7.66,8.729c-2.958-2.314-5.735-4.886-8.475-7.384
	c0.245,3.834,0.582,7.722,1.014,11.64c-3.799,0.683-7.757,1.44-11.704,1.921c3.316,2.288,6.751,4.446,10.215,6.604l-5.391,10.472
	c3.981-1.279,7.865-2.61,11.628-3.988C352.475,491.187,354.577,494.652,356.771,498.214z M317.624,481.118l4.985-10.66
	c3.758,1.572,7.655,2.777,11.471,4.094c-1.978-3.545-3.941-6.89-5.639-10.459c3.318-1.959,6.642-4.146,9.828-6.313
	c-3.708-0.517-7.319-1.366-11.035-2.162c0.643-3.803,1.404-7.632,2.246-11.439c-3.022,2.389-6.117,4.733-9.286,7.035
	c-2.438-2.847-4.588-6.012-6.826-8.934c-0.524,3.796-0.968,7.649-1.32,11.565c-3.89-0.06-7.917-0.115-11.858-0.481
	c2.725,3.006,5.742,5.688,8.674,8.544l-7.382,9.143c4.079-0.328,8.23-0.974,12.188-1.552
	C314.793,473.458,316.197,477.185,317.624,481.118z M282.75,456.509l7.019-9.436c3.402,2.242,6.878,4.337,10.42,6.29
	c-1.271-3.803-2.464-7.523-3.415-11.368c3.688-1.307,7.265-2.644,10.875-4.179c-3.514-1.277-6.875-2.852-10.393-4.331
	c1.452-3.652,2.959-7.251,4.525-10.792c-3.451,1.744-6.963,3.432-10.538,5.062c-1.692-3.412-3.374-6.743-4.862-10.158
	c-1.36,3.697-2.482,7.309-3.618,11.081c-3.876-0.77-7.682-1.748-11.532-2.844c2.125,3.452,4.417,6.789,6.81,10.089l-9.072,7.484
	c4.073,0.488,8.186,0.76,12.241,0.919C281.563,448.394,282.072,452.456,282.75,456.509z M253.514,425.434l8.757-7.837
	c2.976,2.8,5.839,5.651,8.961,8.237c-0.544-3.93-0.838-7.928-1.076-11.822c3.89-0.547,7.718-1.18,11.477-1.892
	c-3.033-2.079-6.267-4.1-9.264-6.37c2.137-3.28,4.331-6.493,6.564-9.643c-3.741,1.023-7.56,2.001-11.319,2.833
	c-0.964-3.685-2.027-7.233-2.726-10.921c-2.023,3.313-3.993,6.72-5.795,10.139c-3.681-1.501-7.083-3.308-10.721-5.096
	c1.475,3.751,2.911,7.568,4.657,11.243l-10.392,5.517c3.975,1.242,7.809,2.428,11.811,3.36
	C254.065,417.165,253.61,421.36,253.514,425.434z M231.074,389.106l10.167-5.916c2.361,3.338,4.631,6.69,7.134,9.872
	c0.243-3.956,0.829-7.969,1.313-11.793c3.939,0.235,7.829,0.372,11.672,0.427c-2.617-2.623-5.351-5.248-7.81-8.09
	c2.749-2.779,5.532-5.478,8.337-8.099c-3.916,0.267-7.702,0.388-11.614,0.471c-0.294-3.766-0.495-7.495-0.476-11.233
	c-2.613,2.819-5.26,5.762-7.758,8.769c-3.173-2.262-6.274-4.672-9.475-7.164c0.77,3.944,1.321,8.008,2.315,11.95l-11.303,3.304
	c3.675,2.013,7.215,3.938,10.882,5.688C233.282,381.12,232.116,385.077,231.074,389.106z M216.467,348.961l11.171-3.735
	c1.507,3.778,3.266,7.46,4.928,11.124c1.161-3.857,2.426-7.631,3.683-11.281c3.821,1.023,7.613,1.938,11.376,2.766
	c-2.107-3.07-4.148-6.228-6.013-9.501c3.24-2.155,6.504-4.229,9.785-6.232c-3.799-0.552-7.611-1.186-11.447-1.896
	c0.435-3.739,1.07-7.447,1.809-11.104c-3.142,2.241-6.27,4.58-9.387,7.021c-2.591-2.862-5.216-5.842-7.815-8.929
	c-0.07,4.018-0.265,8.095-0.159,12.164l-11.748,0.947c3.182,2.714,6.352,5.308,9.496,7.775
	C220.219,341.593,218.327,345.217,216.467,348.961z M210.288,306.712l11.691-1.411c0.686,4.006,1.726,7.957,2.578,11.891
	c1.949-3.548,3.903-6.984,5.878-10.313c3.529,1.775,7.077,3.439,10.598,5.01c-1.468-3.432-2.809-6.939-3.982-10.525
	c3.612-1.464,7.223-2.852,10.828-4.152c-3.605-1.305-7.215-2.689-10.828-4.157c1.173-3.582,2.514-7.088,3.982-10.52
	c-3.521,1.568-7.069,3.237-10.598,5.006c-1.976-3.324-3.929-6.766-5.878-10.311c-0.853,3.93-1.892,7.883-2.578,11.893l-11.691-1.411
	c2.573,3.283,5.154,6.454,7.738,9.5C215.442,300.257,212.86,303.429,210.288,306.712z M212.65,264.115l11.748,0.953
	c-0.105,4.066,0.089,8.146,0.159,12.162c2.599-3.09,5.224-6.062,7.815-8.932c3.117,2.445,6.245,4.782,9.387,7.019
	c-0.738-3.652-1.374-7.361-1.809-11.102c3.835-0.712,7.648-1.344,11.447-1.896c-3.28-1.996-6.545-4.073-9.785-6.234
	c1.865-3.269,3.906-6.426,6.013-9.496c-3.763,0.818-7.556,1.742-11.376,2.769c-1.257-3.653-2.522-7.424-3.683-11.284
	c-1.662,3.66-3.42,7.345-4.928,11.126l-11.171-3.736c1.86,3.743,3.752,7.368,5.679,10.878
	C219.001,258.814,215.832,261.407,212.65,264.115z M223.578,222.816l11.303,3.307c-0.994,3.938-1.545,8.004-2.315,11.951
	c3.201-2.498,6.301-4.902,9.475-7.167c2.498,3.003,5.145,5.944,7.758,8.769c-0.02-3.736,0.182-7.471,0.476-11.236
	c3.912,0.083,7.698,0.204,11.614,0.476c-2.806-2.618-5.588-5.325-8.337-8.099c2.459-2.839,5.192-5.468,7.81-8.091
	c-3.843,0.051-7.733,0.194-11.672,0.425c-0.484-3.825-1.07-7.838-1.313-11.792c-2.502,3.184-4.772,6.536-7.134,9.868l-10.167-5.915
	c1.042,4.037,2.208,7.989,3.386,11.815C230.793,218.877,227.253,220.809,223.578,222.816z M242.639,184.603l10.392,5.515
	c-1.746,3.67-3.182,7.49-4.657,11.241c3.638-1.789,7.04-3.594,10.721-5.1c1.802,3.426,3.772,6.826,5.795,10.141
	c0.698-3.688,1.762-7.237,2.726-10.918c3.759,0.832,7.578,1.809,11.319,2.828c-2.233-3.142-4.427-6.355-6.564-9.638
	c2.997-2.269,6.23-4.286,9.264-6.366c-3.759-0.713-7.587-1.344-11.477-1.896c0.237-3.899,0.531-7.892,1.076-11.815
	c-3.122,2.574-5.985,5.43-8.961,8.226l-8.757-7.827c0.096,4.069,0.551,8.259,0.936,12.242
	C250.448,182.171,246.614,183.359,242.639,184.603z M268.97,151.015l9.072,7.483c-2.393,3.305-4.685,6.641-6.81,10.096
	c3.851-1.104,7.656-2.079,11.532-2.845c1.135,3.764,2.257,7.377,3.618,11.071c1.488-3.411,3.169-6.74,4.862-10.151
	c3.575,1.627,7.087,3.313,10.538,5.059c-1.565-3.542-3.073-7.139-4.525-10.792c3.518-1.477,6.878-3.052,10.393-4.329
	c-3.61-1.538-7.188-2.877-10.875-4.18c0.951-3.843,2.145-7.562,3.415-11.367c-3.542,1.949-7.018,4.046-10.42,6.291l-7.019-9.438
	c-0.679,4.053-1.187,8.117-1.54,12.18C277.156,150.254,273.043,150.531,268.97,151.015z M301.481,123.37l7.382,9.143
	c-2.932,2.855-5.949,5.534-8.674,8.547c3.941-0.368,7.968-0.421,11.858-0.484c0.352,3.915,0.796,7.771,1.32,11.563
	c2.238-2.924,4.388-6.08,6.826-8.929c3.169,2.301,6.263,4.646,9.286,7.033c-0.842-3.804-1.604-7.639-2.246-11.436
	c3.715-0.8,7.326-1.646,11.035-2.164c-3.186-2.17-6.51-4.355-9.828-6.314c1.698-3.571,3.661-6.913,5.639-10.453
	c-3.815,1.306-7.713,2.521-11.471,4.089l-4.985-10.661c-1.427,3.928-2.831,7.66-3.954,11.62
	C309.711,124.35,305.56,123.696,301.481,123.37z M338.903,102.797l5.391,10.469c-3.464,2.153-6.898,4.314-10.215,6.609
	c3.946,0.478,7.905,1.234,11.704,1.908c-0.432,3.927-0.769,7.809-1.014,11.648c2.74-2.498,5.518-5.067,8.475-7.388
	c2.63,2.883,5.189,5.795,7.66,8.732c-0.056-3.9,0.008-7.713,0.127-11.619c3.763-0.119,7.508-0.099,11.236,0.102
	c-2.681-2.76-5.481-5.528-8.354-8.202c2.424-3.034,4.981-6.035,7.635-9.09c-3.982,0.562-8.06,0.928-12.054,1.694l-2.723-11.452
	c-2.194,3.562-4.297,7.029-6.24,10.573C346.769,105.408,342.884,104.074,338.903,102.797z M379.755,90.269l3.157,11.343
	c-3.855,1.294-7.614,2.903-11.363,4.355c3.799,1.372,7.495,2.801,11.086,4.247c-1.225,3.761-2.333,7.51-3.348,11.233
	c3.165-1.963,6.434-3.831,9.792-5.525c1.989,3.351,3.899,6.698,5.728,10.089c0.746-3.771,1.571-7.544,2.479-11.337
	c3.715,0.616,7.384,1.445,10.995,2.364c-2.075-3.25-4.247-6.494-6.531-9.723c2.99-2.446,6.096-4.92,9.311-7.365
	c-4.009-0.266-8.066-0.666-12.14-0.778l-0.354-11.768c-2.867,3.039-5.619,6.068-8.244,9.088
	C386.915,94.383,383.393,92.312,379.755,90.269z M422.236,86.223l0.821,11.748c-4.036,0.496-8.032,1.33-11.998,1.979
	c3.443,2.127,6.782,4.256,10.002,6.39c-1.943,3.449-3.793,6.896-5.532,10.336c3.505-1.286,7.072-2.457,10.711-3.451
	c1.287,3.68,2.488,7.354,3.604,11.022c1.491-3.551,3.049-7.076,4.696-10.607c3.512,1.354,6.948,2.86,10.3,4.505
	c-1.381-3.599-2.868-7.226-4.462-10.831c3.415-1.816,6.949-3.593,10.59-5.358c-3.876-1.05-7.777-2.297-11.743-3.177l1.989-11.605
	c-3.406,2.408-6.703,4.816-9.879,7.257C428.421,91.701,425.392,88.959,422.236,86.223z M464.679,90.741l-1.553,11.674
	c-4.05-0.323-8.136-0.323-12.157-0.458c2.955,2.756,5.799,5.525,8.526,8.257c-2.598,2.986-5.09,5.992-7.488,9.019
	c3.689-0.559,7.418-0.998,11.183-1.241c0.511,3.863,0.95,7.694,1.309,11.53c2.157-3.173,4.398-6.323,6.725-9.457
	c3.17,2.023,6.216,4.244,9.175,6.49c-0.627-3.799-1.353-7.635-2.183-11.499c3.709-1.065,7.549-2.158,11.46-3.094
	c-3.567-1.875-7.166-3.779-10.859-5.504l4.303-10.966c-3.836,1.666-7.558,3.378-11.157,5.124
	C469.657,97.332,467.219,94.056,464.679,90.741z M505.369,103.763l-3.883,11.112c-3.875-1.207-7.916-1.95-11.812-2.912
	c2.317,3.321,4.581,6.506,6.663,9.821c-3.108,2.308-6.194,4.832-9.15,7.301c3.746,0.16,7.448,0.572,11.201,1.04
	c-0.27,3.879-0.604,7.688-1.065,11.583c2.767-2.674,5.602-5.316,8.513-7.921c2.723,2.588,5.197,5.488,7.683,8.199
	c0.146-3.829,0.204-7.72,0.167-11.657c3.843-0.287,7.902-0.699,11.848-0.719c-3.033-2.696-6.299-5.069-9.492-7.634l6.42-9.84
	c-4.066,0.808-8.09,1.801-11.972,2.78C508.943,111.136,507.186,107.531,505.369,103.763z M542.561,124.734l-6.041,10.095
	c-3.582-1.92-7.301-3.582-10.986-5.22c1.612,3.705,3.228,7.219,4.545,10.966c-3.511,1.631-6.988,3.4-10.414,5.268
	c3.655,0.876,7.126,2.149,10.771,3.272c-1.021,3.711-2.206,7.504-3.406,11.172c3.252-2.077,6.577-4.104,9.965-6.079
	c2.088,3.146,3.988,6.413,5.889,9.583c0.92-3.752,1.715-7.506,2.47-11.365c3.898,0.406,7.854,0.933,11.749,1.668
	c-2.433-3.245-5.106-6.273-7.774-9.366l8.269-8.354c-4.086-0.09-8.262,0.12-12.275,0.318
	C544.579,132.66,543.607,128.737,542.561,124.734z M574.773,152.713l-7.928,8.678c-3.2-2.531-6.395-5.019-9.744-7.297
	c0.931,3.87,1.676,7.758,2.264,11.655c-3.827,0.945-7.51,1.901-11.232,3.046c3.291,1.699,6.595,3.495,9.875,5.387
	c-1.8,3.482-3.664,6.905-5.571,10.268c3.601-1.392,7.304-2.74,10.993-3.981c1.3,3.598,2.737,7.003,3.804,10.601
	c1.706-3.525,3.265-7.059,4.729-10.661c3.802,1.134,7.429,2.542,11.183,3.986c-1.796-3.622-3.679-7.22-5.762-10.717l9.776-6.539
	c-4.033-0.866-8.031-1.607-12.081-2.15C575.1,160.95,575.066,156.794,574.773,152.713z M600.744,186.581l-9.496,6.9
	c-2.731-3.046-5.23-6.213-8.103-9.085c0.181,3.942-0.007,8.002-0.117,11.863c-3.927,0.166-7.807,0.412-11.63,0.748
	c2.816,2.366,5.875,4.67,8.583,7.263c-2.458,3.042-4.958,6.017-7.493,8.916c3.861-0.657,7.691-1.205,11.53-1.666
	c0.628,3.745,1.265,7.406,1.608,11.135c2.303-3.07,4.69-6.291,6.816-9.504c3.443,1.899,6.71,4.01,10.149,6.164
	c-1.143-3.863-2.117-7.838-3.517-11.654l10.901-4.438c-3.858-1.622-7.521-3.217-11.396-4.548
	C599.357,194.748,600.181,190.658,600.744,186.581z M619.39,225.009l-10.735,4.858c-1.949-3.589-3.977-7.103-6.062-10.554
	c-0.714,3.935-1.643,7.835-2.51,11.593c-3.906-0.627-7.768-1.159-11.587-1.595c2.374,2.847,4.772,5.766,6.949,8.833
	c-3.011,2.48-6.048,4.882-9.106,7.199c3.868,0.154,7.694,0.404,11.586,0.718c-0.056,3.771-0.286,7.511-0.67,11.231
	c2.899-2.549,5.782-5.195,8.623-7.936c2.88,2.585,5.773,5.283,8.691,8.091c-0.358-4.006-0.545-8.091-1.083-12.121l11.581-2.141
	c-3.445-2.372-6.825-4.637-10.24-6.764C616.386,232.731,617.914,228.928,619.39,225.009z M629.816,266.439l-11.489,2.578
	c-1.075-3.917-2.522-7.745-3.758-11.568c-1.585,3.727-3.187,7.341-4.818,10.849c-3.688-1.408-7.384-2.706-11.052-3.905
	c1.815,3.26,3.5,6.613,5.028,10.059c-3.45,1.819-6.886,3.554-10.363,5.212c3.724,0.933,7.452,1.951,11.191,3.046
	c-0.804,3.683-1.811,7.311-2.914,10.872c3.351-1.905,6.698-3.925,10.042-6.042c2.297,3.114,4.597,6.339,6.896,9.671
	c0.445-3.994,1.067-8.025,1.368-12.082l11.781,0.237c-2.891-3.017-5.782-5.909-8.668-8.688
	C625.351,273.385,627.589,269.97,629.816,266.439z"/>
</svg>
