<?xml version="1.0" encoding="utf-8"?>
<!-- Generator: Adobe Illustrator 16.0.0, SVG Export Plug-In . SVG Version: 6.00 Build 0)  -->
<!DOCTYPE svg PUBLIC "-//W3C//DTD SVG 1.1//EN" "http://www.w3.org/Graphics/SVG/1.1/DTD/svg11.dtd">
<svg version="1.1" id="Layer_1" xmlns="http://www.w3.org/2000/svg" xmlns:xlink="http://www.w3.org/1999/xlink" x="0px" y="0px"
	 width="841.89px" height="595.28px" viewBox="0 0 841.89 595.28" enable-background="new 0 0 841.89 595.28" xml:space="preserve">
<g>
	<path fill-rule="evenodd" clip-rule="evenodd" fill="#191617" d="M171.096,382.773c-6.877-1.166-12.796,0.74-18.02,2.929
		c-20.116,8.407-38.643,3.132-56.89-5.399c-11.952-5.584-14.21-14.364-6.631-25.502c5.668-8.342,13.941-13.731,22.646-18.512
		c19.012-10.439,38.964-18.852,59.105-26.77c8.07-3.176,12.595-7.48,13.396-16.78c2.704-31.348,13.649-59.91,31.115-86.024
		c2.186-3.27,3.635-7.093,6.127-10.075c5.938-7.104,12.556-14.592,22.881-12.379c9.396,2.02,9.475,11.531,11.501,18.939
		c7.237,26.456,14.344,52.947,21.472,79.307c8.487,1.212,14.273-3.953,20.769-6.493c17.612-6.882,34.532-6.595,51.08,3.005
		c11.798,6.847,13.419,12.93,5.269,23.757c-8.276,10.996-16.563,22.085-25.931,32.118c-5.837,6.255-7.2,11.298-3.114,18.937
		c7.495,14.02,11.054,29.412,13.67,45.003c1.58,9.384,0.27,18.462-4.566,26.618c-6.347,10.704-19.463,14.463-35.117,9.992
		c-17.464-4.987-31.698-15.474-44.752-27.723c-2.373-2.228-4.775-4.412-7.691-7.092c-8.161,5.877-9.916,15.354-14.156,23.085
		c-6.625,12.084-12.584,24.532-21.366,35.287c-4.585,5.625-9.634,10.738-16.307,13.97c-14.929,7.219-27.857,1.186-31.226-15.127
		c-2.008-9.744-0.814-19.574,1.016-29.332c2.535-13.533,4.822-27.115,7.083-40.697C172.641,386.693,171.837,385.406,171.096,382.773
		z M537.896,201.061c-13.788-2.458-26.755-4.187-39.413-7.208c-10.406-2.485-20.217-6.994-22.129-19.419
		c-1.858-12.14,5.471-19.647,14.418-25.857c14.068-9.766,29.17-17.607,45.818-21.878c9.775-2.506,15.177-6.566,16.626-18.055
		c2.112-16.768,7.339-33.16,11.55-49.634c1.285-5.04,3.214-10.002,5.504-14.682c4.119-8.433,11.408-12.465,20.604-12.677
		c9.141-0.21,14.146,5.748,17.913,13.104c6.112,11.929,6.582,25.27,9.258,38.029c5.476,26.104,5.222,26,31.042,21.222
		c14.164-2.623,28.584-3.958,42.627-7.077c16.734-3.719,22.547,9.312,18.316,22.598c-4.338,13.621-13.748,23.611-23.68,33.223
		c-12.299,11.91-12.346,11.897-6.182,27.455c3.396,8.58,6.091,17.321,6,26.651c-0.184,19.013-10.71,29.154-29.662,28.394
		c-14.229-0.569-26.476-6.864-38.234-14.157c-4.93-3.055-9.49-6.703-15.227-10.802c-5.256,4.85-5.799,11.552-8.146,17.234
		c-5.55,13.404-11.978,26.379-22.925,36.192c-15.414,13.812-32.021,8.849-37.232-11.128c-2.833-10.864-2.729-22.016,0.182-33.028
		C536.402,213.962,538.783,208.488,537.896,201.061z M698.37,108.131c-19.093,1.91-38.315,4.395-57.252,8.864
		c-7.704,1.815-15.37,3.027-23.28,3.166c-6.59,0.121-8.83-2.752-9.654-9.258c-2.055-16.217-5.115-32.298-7.679-48.453
		c-0.729-4.566-1.54-9.003-4.524-12.784c-4.311-5.454-8.869-5.18-12.963-0.166c-2.002,2.439-3.287,5.678-4.182,8.763
		c-6.368,21.924-15.689,43.127-16.211,66.487c-0.102,4.485,0.139,9.8-6.493,9.959c-20.066,0.481-34.974,13.31-51.759,21.577
		c-4.002,1.975-7.579,5.248-10.673,8.556c-5.259,5.624-4.446,11.2,2.935,13.728c8.645,2.949,17.826,4.282,26.606,6.872
		c9.153,2.7,21.776-4.69,27.337,5.206c5.246,9.326-2.072,20.229-3.723,30.446c-1.574,9.75-3.61,19.492-1.127,29.224
		c2.511,9.865,9.639,12.177,17.805,6.141c5.365-3.972,9.234-9.405,11.918-15.413c4.011-8.957,7.585-18.106,11.094-27.275
		c7.877-20.644,13.578-22.244,30.638-8.769c11.433,9.031,23.806,16.354,38.689,17.892c6.997,0.725,13.453-0.756,15.558-8.64
		c2.496-9.354-0.541-18.084-4.133-26.639c-2.841-6.775-5.529-12.687-14.861-13.125c-7.487-0.35-7.453-6.227-3.764-11.371
		c3.07-4.283,7.652-6.846,12.388-9.34c11.712-6.174,21.243-15.233,30.226-24.83C696.234,123.654,701.08,118.182,698.37,108.131z
		 M676.68,517.036c-5.271,8.215-10.203,15.835-15.072,23.493c-4.292,6.741-9.908,12.283-16.226,16.988
		c-6.3,4.686-13.219,5.281-20.335,1.381c-7.055-3.863-10.785-9.807-9.833-17.734c1.46-12.243,3.605-24.407,5.462-36.607
		c-5.172-4.141-10.409-1.039-15.385-1.053c-5.259-0.012-10.373,0.107-15.362-2.248c-19.022-8.973-20.665-21.072-3.937-33.846
		c8.824-6.736,17.857-13.645,29.141-15.883c11.389-2.26,15.988-9.188,17.5-20.395c1.393-10.316,4.566-20.469,7.801-30.423
		c1.791-5.514,4.641-10.987,8.172-15.583c9.549-12.426,20.239-11.02,26.688,3.33c4.298,9.562,8.219,19.315,11.846,29.151
		c2.334,6.325,6.166,7.757,12.195,5.668c9.908-3.431,19.725-7.331,29.872-9.845c20.433-5.058,30.22,5.764,24.346,26.078
		c-2.694,9.307-8.994,15.738-16.192,21.688c-15.648,12.938-15.698,13.071-7.127,30.481c3.858,7.834,5.749,16.143,6.102,24.662
		c0.504,12.334-5.303,18.121-17.688,18.392C702.654,535.08,689.687,527.609,676.68,517.036z"/>
	<path fill-rule="evenodd" clip-rule="evenodd" fill="#F8BF15" d="M342.896,292.851c-13.018-8.998-24.576-8.255-36.249-4.646
		c-6.876,2.129-13.44,5.356-20.385,7.194c-17.704,4.691-21.86,2.055-25.808-15.681c-5.783-26.019-12.443-51.782-20.553-77.045
		c-2.25,0.411-4.091,0.214-4.527,0.907c-13.194,20.959-28.861,40.656-33.049,66.182c-2.334,14.231-5.102,28.401-8.047,42.519
		c-1.044,5-2.198,11.143-10.046,7.898c-2.768-1.142-4.987-0.137-7.353,1.02c-21.223,10.341-42.568,20.438-63.619,31.112
		c-5.496,2.788-11.506,6.335-11.32,13.952c16.497,9.191,32.404,11.42,49.651,4.332c7.733-3.18,16.438-4.583,25.124-3.579
		c12.779,1.479,14.581,4.763,11.442,17.903c-4.735,19.79-8.55,39.786-10.085,60.1c-0.421,5.609-1.637,12.946,5.394,15.324
		c6.37,2.153,10.994-3.051,14.98-7.4c8.956-9.793,14.927-21.494,20.753-33.285c4.933-9.988,9.35-20.326,15.25-29.718
		c8.733-13.892,14.793-13.844,24.879-0.478c11.02,14.594,25.053,25.036,42.192,30.922c18.231,6.256,26.842-1.016,22.823-20.168
		c-3.777-17.994-10.015-35.688-22.285-49.709c-6.67-7.616-3.613-13.709,1.838-15.974
		C323.252,326.489,329.523,307.635,342.896,292.851z M663.166,387.397c-4.709,0.45-7.141,2.57-8.84,5.513
		c-9.06,15.676-14.498,33.231-13.785,50.645c0.46,11.368-3.953,15.412-11.516,19.276c-8.139,4.155-16.952,7.011-25.027,11.266
		c-4.25,2.232-11.464,3.885-10.119,10.199c1.41,6.66,8.156,4.806,13.219,4.427c5.889-0.436,11.75-1.211,17.63-1.645
		c15.067-1.107,15.659,0.169,10.843,13.975c-4.318,12.348-6.574,25.291-7.646,38.375c-0.217,2.651,0.086,5.426,2.523,6.961
		c3.134,1.967,6.494,1.264,9.068-1.038c3.401-3.043,7.03-6.159,9.406-9.968c5.186-8.311,10.699-16.393,14.542-25.601
		c5.159-12.356,9.971-13.142,20.649-4.912c4.66,3.587,8.955,7.762,13.97,10.738c6.786,4.034,16.466,8.63,21.677,2.908
		c6.223-6.829,0.188-15.686-5.143-22.563c-15.725-20.295-14.787-26.536,6.039-40.659c4.339-2.945,8.811-5.71,13.046-8.804
		c4.31-3.158,7.511-7.268,9.286-12.41c2.975-8.631-0.331-13.224-9.177-11.027c-12.698,3.154-25.499,6.619-37.47,11.772
		c-10.117,4.354-13.887,1.501-17.176-8.002C674.494,413.317,668.469,400.279,663.166,387.397z M698.37,108.131
		c2.71,10.051-2.136,15.523-7.085,20.817c-8.982,9.597-18.514,18.656-30.226,24.83c-4.735,2.495-9.317,5.057-12.388,9.34
		c-3.689,5.145-3.724,11.021,3.764,11.371c9.332,0.438,12.021,6.35,14.861,13.125c3.592,8.555,6.629,17.285,4.133,26.639
		c-2.104,7.884-8.561,9.365-15.558,8.64c-14.884-1.538-27.257-8.861-38.689-17.892c-17.06-13.476-22.761-11.875-30.638,8.769
		c-3.509,9.169-7.083,18.318-11.094,27.275c-2.684,6.007-6.553,11.44-11.918,15.413c-8.166,6.036-15.294,3.724-17.805-6.141
		c-2.483-9.732-0.447-19.474,1.127-29.224c1.65-10.216,8.969-21.12,3.723-30.446c-5.561-9.896-18.184-2.506-27.337-5.206
		c-8.78-2.59-17.962-3.923-26.606-6.872c-7.381-2.527-8.193-8.104-2.935-13.728c3.094-3.308,6.671-6.581,10.673-8.556
		c16.785-8.267,31.692-21.095,51.759-21.577c6.632-0.159,6.392-5.474,6.493-9.959c0.521-23.36,9.843-44.563,16.211-66.487
		c0.895-3.085,2.18-6.324,4.182-8.763c4.094-5.014,8.652-5.288,12.963,0.166c2.984,3.78,3.796,8.218,4.524,12.784
		c2.563,16.154,5.624,32.235,7.679,48.453c0.824,6.506,3.064,9.379,9.654,9.258c7.91-0.139,15.576-1.35,23.28-3.166
		C660.055,112.526,679.277,110.041,698.37,108.131z"/>
</g>
</svg>
