<?xml version="1.0" encoding="utf-8"?>
<!-- Generator: Adobe Illustrator 16.0.0, SVG Export Plug-In . SVG Version: 6.00 Build 0)  -->
<!DOCTYPE svg PUBLIC "-//W3C//DTD SVG 1.1//EN" "http://www.w3.org/Graphics/SVG/1.1/DTD/svg11.dtd">
<svg version="1.1" id="Layer_1" xmlns="http://www.w3.org/2000/svg" xmlns:xlink="http://www.w3.org/1999/xlink" x="0px" y="0px"
	 width="841.89px" height="595.28px" viewBox="0 0 841.89 595.28" enable-background="new 0 0 841.89 595.28" xml:space="preserve">
<path d="M434.182,289.26l9.104-18.889l38.804-11.886l-19.205,33.419l-22.486,5.14C438.965,293.982,436.819,291.319,434.182,289.26z
	 M425.992,285.31l9.459-19.658l-14.44-36.583l-14.44,36.591l9.462,19.65c1.598-0.383,3.266-0.587,4.979-0.587
	C422.729,284.722,424.395,284.927,425.992,285.31z M425.569,350.459l29.343,27.121l-2.986-40.988l-17.389-13.864
	c-2.563,2.094-5.623,3.602-8.968,4.329V350.459z M390.104,336.604l-2.984,40.977l29.351-27.127v-23.395
	c-3.353-0.727-6.412-2.234-8.977-4.326L390.104,336.604z M407.842,289.26l-9.102-18.889l-38.809-11.886l19.21,33.429l22.481,5.133
	C403.062,293.985,405.203,291.319,407.842,289.26z M399.607,305.912l-20.625-4.707l-34.137,23.373l38.395,5.868l18.581-14.821
	c-1.415-2.86-2.219-6.085-2.219-9.494C399.603,306.059,399.607,305.984,399.607,305.912z M497.181,324.578l-34.142-23.377
	l-20.617,4.706c0,0.074,0.002,0.151,0.002,0.224c0,3.409-0.799,6.629-2.216,9.49l18.589,14.82L497.181,324.578z M627.809,353.33
	c-1.318,5.746-6.005,10.104-11.826,10.995L513.6,379.968l7.527,103.293c0.434,5.874-2.773,11.419-8.084,13.976
	c-1.983,0.955-4.111,1.42-6.219,1.42c-3.545,0-7.035-1.307-9.748-3.812l-76.065-70.289l-76.058,70.289
	c-4.331,4.001-10.665,4.948-15.973,2.392c-5.313-2.557-8.517-8.102-8.088-13.976l7.531-103.293l-102.377-15.643
	c-5.824-0.891-10.514-5.249-11.828-10.995c-1.303-5.742,1.025-11.706,5.885-15.036l85.458-58.512l-51.604-89.798
	c-2.939-5.108-2.449-11.493,1.222-16.101c3.676-4.607,9.793-6.499,15.427-4.776l99.027,30.328l38.029-96.33
	c2.166-5.48,7.464-9.084,13.349-9.084c5.896,0,11.188,3.604,13.354,9.084l38.028,96.33l99.027-30.328
	c5.64-1.719,11.751,0.169,15.43,4.776c3.671,4.608,4.156,10.993,1.222,16.101l-51.604,89.798l85.456,58.512
	C626.785,341.624,629.114,347.588,627.809,353.33z M616.387,346.361l-92.947-63.622l56.114-97.665
	c0.924-1.615,0.771-3.641-0.39-5.099c-1.158-1.458-3.099-2.06-4.89-1.512l-107.677,32.994l-41.355-104.752
	c-0.684-1.738-2.359-2.878-4.231-2.878c-1.861,0-3.54,1.141-4.229,2.878l-41.355,104.767l-107.691-32.981
	c-1.791-0.549-3.727,0.052-4.891,1.513c-1.164,1.458-1.318,3.479-0.389,5.099l56.121,97.655l-92.923,63.64
	c-1.546,1.053-2.287,2.939-1.869,4.762c0.415,1.82,1.9,3.199,3.743,3.481l111.348,17.005l-8.185,112.338
	c-0.136,1.857,0.88,3.614,2.559,4.428c0.632,0.3,1.3,0.449,1.974,0.449c1.12,0,2.232-0.417,3.084-1.211l82.72-76.451l82.718,76.438
	c0.861,0.793,1.974,1.206,3.096,1.206c0.669,0,1.342-0.146,1.969-0.45c1.682-0.809,2.699-2.565,2.559-4.427l-8.2-112.336
	l111.343-17.022c1.843-0.281,3.326-1.663,3.744-3.484C618.666,349.307,617.924,347.419,616.387,346.361z M383.068,216.868
	l37.942-96.111l37.942,96.089L439.57,257.11l-15.319-38.796c-0.524-1.329-1.807-2.202-3.24-2.202c-1.423,0-2.708,0.874-3.231,2.202
	l-15.323,38.807L383.068,216.868z M398.74,222.11c2.22,0,4.029-1.802,4.029-4.023c0-2.221-1.81-4.022-4.029-4.022
	c-2.216,0-4.027,1.801-4.027,4.022C394.713,220.309,396.524,222.11,398.74,222.11z M404.957,230.663
	c0-2.221-1.801-4.022-4.016-4.022c-2.229,0-4.028,1.801-4.028,4.022c0,2.222,1.799,4.023,4.028,4.023
	C403.156,234.687,404.957,232.885,404.957,230.663z M432.613,202.898c0-6.405-5.198-11.597-11.603-11.597
	c-6.399,0-11.597,5.191-11.597,11.597c0,6.404,5.197,11.599,11.597,11.599C427.415,214.497,432.613,209.303,432.613,202.898z
	 M445.121,230.663c0-2.221-1.807-4.022-4.028-4.022c-2.219,0-4.022,1.801-4.022,4.022c0,2.222,1.804,4.023,4.022,4.023
	C443.314,234.687,445.121,232.885,445.121,230.663z M447.309,218.087c0-2.221-1.799-4.022-4.022-4.022
	c-2.217,0-4.023,1.801-4.023,4.022c0,2.222,1.807,4.023,4.023,4.023C445.51,222.11,447.309,220.309,447.309,218.087z
	 M443.286,201.452c-2.217,0-4.023,1.799-4.023,4.023c0,2.22,1.807,4.022,4.023,4.022c2.224,0,4.022-1.802,4.022-4.022
	C447.309,203.251,445.51,201.452,443.286,201.452z M439.774,188.183c-2.224,0-4.022,1.801-4.022,4.024
	c0,2.222,1.799,4.023,4.022,4.023c2.22,0,4.021-1.801,4.021-4.023C443.795,189.984,441.994,188.183,439.774,188.183z
	 M435.425,175.573c-2.22,0-4.021,1.8-4.021,4.021c0,2.223,1.801,4.024,4.021,4.024c2.222,0,4.021-1.802,4.021-4.024
	C439.445,177.373,437.646,175.573,435.425,175.573z M430.563,163.319c-2.22,0-4.019,1.801-4.019,4.024
	c0,2.222,1.799,4.023,4.019,4.023c2.225,0,4.028-1.801,4.028-4.023C434.592,165.121,432.788,163.319,430.563,163.319z
	 M426.021,150.923c-2.225,0-4.023,1.803-4.023,4.023s1.799,4.023,4.023,4.023c2.219,0,4.018-1.803,4.018-4.023
	S428.24,150.923,426.021,150.923z M416.555,142.988c0,2.219,1.807,4.018,4.027,4.018c2.22,0,4.019-1.799,4.019-4.018
	c0-2.226-1.799-4.025-4.019-4.025C418.361,138.963,416.555,140.762,416.555,142.988z M411.99,154.946
	c0,2.221,1.799,4.023,4.021,4.023c2.224,0,4.022-1.803,4.022-4.023s-1.799-4.023-4.022-4.023
	C413.789,150.923,411.99,152.726,411.99,154.946z M407.442,167.344c0,2.222,1.794,4.023,4.019,4.023
	c2.221,0,4.023-1.801,4.023-4.023c0-2.223-1.803-4.024-4.023-4.024C409.236,163.319,407.442,165.121,407.442,167.344z
	 M402.581,179.594c0,2.223,1.802,4.024,4.019,4.024c2.225,0,4.027-1.802,4.027-4.024c0-2.221-1.803-4.021-4.027-4.021
	C404.383,175.573,402.581,177.373,402.581,179.594z M398.236,192.208c0,2.222,1.799,4.023,4.019,4.023
	c2.216,0,4.019-1.801,4.019-4.023c0-2.223-1.803-4.024-4.019-4.024C400.035,188.183,398.236,189.984,398.236,192.208z
	 M394.713,205.476c0,2.22,1.812,4.022,4.027,4.022c2.22,0,4.029-1.802,4.029-4.022c0-2.225-1.81-4.023-4.029-4.023
	C396.524,201.452,394.713,203.251,394.713,205.476z M416.473,403.023l-75.877,70.134l7.509-103.055l34.588-27.592l-3.157,43.354
	c-0.104,1.424,0.674,2.767,1.961,3.39c1.285,0.619,2.822,0.391,3.872-0.582l31.104-28.744V403.023z M404.623,386.466
	c2.005,0.965,4.406,0.126,5.367-1.877c0.969-2.004,0.121-4.407-1.879-5.37c-2.003-0.965-4.402-0.123-5.371,1.877
	C401.777,383.1,402.621,385.504,404.623,386.466z M401.138,398.748c2.007,0.965,4.409,0.125,5.376-1.879
	c0.96-2.002,0.114-4.405-1.883-5.367c-2.006-0.965-4.407-0.125-5.365,1.879C398.299,395.381,399.141,397.786,401.138,398.748z
	 M364.25,395.472c-2.778,5.771-0.354,12.704,5.417,15.48c5.774,2.778,12.71,0.355,15.479-5.416
	c2.783-5.772,0.357-12.704-5.418-15.483C373.965,387.273,367.025,389.699,364.25,395.472z M368.435,369.044
	c1.997,0.965,4.409,0.126,5.365-1.877c0.969-2.004,0.126-4.409-1.872-5.37c-2.005-0.965-4.406-0.126-5.375,1.877
	C365.597,365.675,366.432,368.083,368.435,369.044z M361.002,379.426c2.005,0.965,4.406,0.12,5.373-1.881
	c0.963-2.003,0.12-4.406-1.88-5.371c-2.003-0.963-4.409-0.119-5.37,1.879C358.161,376.055,359.002,378.461,361.002,379.426z
	 M355.535,390.789c2,0.963,4.401,0.123,5.37-1.879c0.961-2.002,0.122-4.408-1.878-5.369c-2.007-0.965-4.406-0.123-5.369,1.878
	C352.689,387.422,353.532,389.824,355.535,390.789z M352.945,404.268c2.002,0.965,4.401,0.123,5.37-1.884
	c0.964-2,0.12-4.403-1.882-5.368c-1.995-0.965-4.408-0.119-5.369,1.881C350.107,400.899,350.942,403.303,352.945,404.268z
	 M351.392,417.516c2.005,0.965,4.401,0.125,5.37-1.877c0.967-2.001,0.125-4.41-1.883-5.37c-1.996-0.965-4.404-0.123-5.369,1.882
	C348.549,414.149,349.389,416.553,351.392,417.516z M350.451,430.664c2.003,0.966,4.404,0.123,5.371-1.879
	c0.963-2.004,0.119-4.408-1.88-5.37c-1.997-0.965-4.405-0.122-5.368,1.88C347.613,427.299,348.449,429.701,350.451,430.664z
	 M349.172,443.809c2.003,0.963,4.41,0.123,5.371-1.885c0.963-1.996,0.125-4.4-1.877-5.365c-2.008-0.965-4.407-0.119-5.371,1.881
	C346.334,440.439,347.17,442.842,349.172,443.809z M352.376,449.693c-2-0.965-4.407-0.119-5.368,1.879
	c-0.963,2.005-0.125,4.406,1.875,5.371c2.002,0.964,4.409,0.122,5.373-1.879C355.217,453.062,354.375,450.656,352.376,449.693z
	 M361.684,440.899c-2.003-0.965-4.407-0.126-5.376,1.877c-0.966,2.004-0.12,4.407,1.882,5.373c1.998,0.96,4.41,0.123,5.371-1.88
	C364.523,444.269,363.681,441.861,361.684,440.899z M371.158,431.701c-2.006-0.961-4.407-0.118-5.365,1.879
	c-0.967,2.005-0.125,4.408,1.871,5.373c2.008,0.962,4.408,0.123,5.376-1.879C374.004,435.072,373.154,432.666,371.158,431.701z
	 M380.85,422.772c-2-0.964-4.402-0.122-5.368,1.878c-0.969,2.004-0.12,4.409,1.88,5.371c1.997,0.965,4.406,0.123,5.365-1.881
	C383.695,426.139,382.852,423.737,380.85,422.772z M390.237,413.295c-1.999-0.964-4.407-0.122-5.365,1.879
	c-0.966,2-0.122,4.406,1.872,5.368c2.008,0.964,4.412,0.125,5.375-1.879C393.083,416.66,392.245,414.258,390.237,413.295z
	 M399.166,402.865c-2.008-0.962-4.409-0.12-5.375,1.879c-0.964,2.002-0.123,4.408,1.879,5.37c1.998,0.965,4.404,0.122,5.365-1.878
	C402.004,406.233,401.161,403.828,399.166,402.865z M342.432,362.992l-102.143-15.601l85.253-58.381l44.198,10.088l-36.097,24.719
	c-1.178,0.807-1.747,2.251-1.423,3.644c0.313,1.391,1.446,2.449,2.861,2.666l40.754,6.227L342.432,362.992z M347.984,343.402
	c0.496,2.166,2.652,3.521,4.816,3.027c2.165-0.494,3.522-2.654,3.031-4.82c-0.501-2.165-2.657-3.516-4.822-3.023
	C348.846,339.081,347.488,341.238,347.984,343.402z M336.215,348.34c0.491,2.165,2.645,3.522,4.814,3.023
	c2.167-0.494,3.524-2.65,3.023-4.816c-0.491-2.164-2.647-3.52-4.813-3.023C337.076,344.018,335.719,346.175,336.215,348.34z
	 M334.145,303.119c-0.501-2.166-2.655-3.521-4.822-3.025c-2.164,0.494-3.521,2.649-3.025,4.82c0.496,2.163,2.65,3.517,4.822,3.024
	C333.277,307.439,334.635,305.285,334.145,303.119z M321.389,342.137c6.239-1.426,10.152-7.645,8.723-13.889
	c-1.424-6.244-7.64-10.152-13.887-8.729c-6.242,1.426-10.154,7.645-8.723,13.891C308.924,339.657,315.141,343.562,321.389,342.137z
	 M339.048,304.25c0.491,2.165,2.647,3.52,4.812,3.023c2.167-0.492,3.524-2.65,3.033-4.813c-0.496-2.166-2.657-3.523-4.818-3.027
	C339.904,299.929,338.549,302.084,339.048,304.25z M314.002,307.719c0.496,2.164,2.65,3.518,4.814,3.022
	c2.172-0.491,3.52-2.647,3.023-4.814c-0.49-2.165-2.646-3.522-4.812-3.027C314.863,303.396,313.506,305.551,314.002,307.719z
	 M301.852,314.095c0.491,2.165,2.645,3.521,4.813,3.027c2.169-0.496,3.521-2.651,3.025-4.817c-0.49-2.165-2.647-3.521-4.812-3.027
	C302.708,309.773,301.355,311.93,301.852,314.095z M290.519,321.145c0.501,2.165,2.655,3.52,4.817,3.023
	c2.166-0.492,3.521-2.65,3.03-4.814c-0.499-2.165-2.655-3.523-4.821-3.025C291.38,316.819,290.022,318.977,290.519,321.145z
	 M279.658,328.604c0.495,2.168,2.652,3.523,4.816,3.026c2.162-0.491,3.52-2.648,3.028-4.817c-0.496-2.165-2.652-3.52-4.825-3.023
	C280.514,324.285,279.162,326.439,279.658,328.604z M268.585,335.799c0.491,2.169,2.647,3.522,4.817,3.025
	c2.164-0.49,3.521-2.647,3.021-4.814c-0.491-2.166-2.646-3.521-4.812-3.027C269.447,331.479,268.094,333.634,268.585,335.799z
	 M265.977,341.976c-0.496-2.165-2.649-3.522-4.816-3.028c-2.167,0.496-3.521,2.65-3.025,4.816c0.49,2.166,2.645,3.52,4.816,3.029
	C265.115,346.297,266.473,344.139,265.977,341.976z M278.658,343.767c-0.492-2.169-2.648-3.523-4.822-3.03
	c-2.165,0.496-3.518,2.654-3.021,4.82c0.491,2.162,2.645,3.52,4.814,3.023C277.791,348.084,279.148,345.93,278.658,343.767z
	 M291.75,345.442c-0.49-2.164-2.646-3.519-4.811-3.023c-2.168,0.491-3.525,2.646-3.034,4.814c0.496,2.167,2.652,3.517,4.819,3.026
	C290.889,349.765,292.246,347.607,291.75,345.442z M304.781,347.45c-0.496-2.165-2.652-3.521-4.816-3.024
	c-2.165,0.493-3.522,2.648-3.031,4.816c0.496,2.166,2.652,3.52,4.816,3.025C303.92,351.771,305.271,349.614,304.781,347.45z
	 M318.044,348.881c-0.496-2.166-2.653-3.52-4.817-3.024c-2.169,0.496-3.527,2.653-3.025,4.819c0.493,2.163,2.65,3.518,4.814,3.024
	C317.182,353.204,318.535,351.049,318.044,348.881z M331.758,349.354c-0.496-2.163-2.652-3.517-4.816-3.026
	c-2.167,0.496-3.524,2.652-3.023,4.817c0.491,2.167,2.647,3.522,4.814,3.026C330.896,353.68,332.252,351.521,331.758,349.354z
	 M327.568,280.144l-51.49-89.586l98.8,30.254l19.753,41.019l-41.086-12.583c-1.359-0.417-2.851,0.043-3.738,1.159
	c-0.893,1.116-1.01,2.664-0.297,3.906l20.397,35.494L327.568,280.144z M340.799,265.511c-1.74-1.387-4.268-1.101-5.66,0.634
	c-1.375,1.737-1.096,4.269,0.643,5.652c1.736,1.385,4.267,1.102,5.652-0.636C342.82,269.424,342.538,266.893,340.799,265.511z
	 M346.342,272.271c-1.386,1.737-1.096,4.266,0.641,5.653c1.732,1.384,4.268,1.101,5.654-0.634c1.381-1.738,1.097-4.271-0.64-5.655
	C350.262,270.248,347.729,270.531,346.342,272.271z M347.363,233.522c-5.005-3.995-12.3-3.171-16.302,1.838
	c-3.995,5.007-3.167,12.302,1.846,16.299c5.005,3.99,12.3,3.171,16.294-1.839C353.195,244.813,352.376,237.517,347.363,233.522z
	 M368.57,230.68c-1.736-1.385-4.269-1.099-5.654,0.636c-1.387,1.737-1.098,4.27,0.639,5.654c1.739,1.386,4.27,1.1,5.655-0.635
	C370.592,234.595,370.307,232.066,368.57,230.68z M377.035,240.234c-1.734-1.385-4.27-1.099-5.65,0.638
	c-1.387,1.737-1.102,4.266,0.635,5.651c1.738,1.387,4.269,1.104,5.649-0.637C379.055,244.154,378.771,241.621,377.035,240.234z
	 M353.052,223.454c-1.381,1.733-1.094,4.267,0.64,5.651c1.736,1.389,4.27,1.102,5.655-0.636c1.384-1.736,1.097-4.268-0.643-5.651
	C356.973,221.429,354.438,221.716,353.052,223.454z M341.131,223.58c1.742,1.386,4.27,1.101,5.65-0.634
	c1.386-1.74,1.102-4.269-0.641-5.655c-1.738-1.384-4.263-1.096-5.645,0.638C339.105,219.665,339.395,222.196,341.131,223.58z
	 M328.558,219.117c1.736,1.387,4.269,1.102,5.649-0.634c1.387-1.74,1.102-4.269-0.629-5.658c-1.738-1.382-4.273-1.096-5.654,0.641
	C326.537,215.201,326.821,217.733,328.558,219.117z M315.95,215.278c1.739,1.385,4.269,1.099,5.655-0.638
	c1.381-1.735,1.096-4.269-0.638-5.651c-1.741-1.389-4.271-1.103-5.652,0.634C313.93,211.363,314.214,213.892,315.95,215.278z
	 M303.418,211.107c1.739,1.381,4.266,1.098,5.655-0.637c1.386-1.737,1.102-4.269-0.64-5.653c-1.73-1.384-4.264-1.101-5.654,0.634
	C301.397,207.191,301.682,209.722,303.418,211.107z M296.327,207.263c1.39-1.735,1.103-4.269-0.637-5.652
	c-1.731-1.385-4.267-1.102-5.652,0.636c-1.382,1.74-1.103,4.269,0.64,5.656C292.414,209.286,294.946,209,296.327,207.263z
	 M302.839,218.292c1.384-1.738,1.102-4.266-0.643-5.654c-1.735-1.384-4.263-1.101-5.649,0.637c-1.389,1.737-1.102,4.269,0.632,5.653
	C298.914,220.313,301.452,220.029,302.839,218.292z M309.689,229.581c1.381-1.74,1.097-4.269-0.635-5.654
	c-1.741-1.386-4.273-1.101-5.654,0.634c-1.381,1.738-1.102,4.269,0.634,5.655C305.778,231.599,308.303,231.316,309.689,229.581z
	 M316.237,241.015c1.389-1.734,1.104-4.269-0.638-5.652c-1.732-1.388-4.266-1.102-5.645,0.636c-1.391,1.739-1.106,4.268,0.63,5.651
	C312.321,243.036,314.859,242.751,316.237,241.015z M323.391,252.279c1.384-1.738,1.102-4.269-0.637-5.651
	c-1.736-1.389-4.269-1.101-5.65,0.635c-1.389,1.737-1.102,4.271,0.638,5.655C319.473,254.3,322.008,254.017,323.391,252.279z
	 M325.92,263.934c1.731,1.386,4.27,1.102,5.65-0.634c1.387-1.74,1.107-4.269-0.635-5.656c-1.738-1.384-4.268-1.098-5.649,0.64
	C323.9,260.018,324.185,262.549,325.92,263.934z M493.938,370.091l7.527,103.055l-75.896-70.124v-43.084l31.095,28.734
	c0.654,0.607,1.501,0.924,2.357,0.924c0.517,0,1.031-0.11,1.512-0.342c1.289-0.623,2.07-1.966,1.963-3.39l-3.167-43.368
	L493.938,370.091z M493.476,425.277c-0.966-1.997-3.373-2.839-5.37-1.874c-2,0.965-2.838,3.368-1.875,5.368
	c0.961,2,3.368,2.846,5.368,1.881C493.596,429.688,494.439,427.281,493.476,425.277z M487.163,410.257
	c-1.997,0.964-2.838,3.37-1.872,5.37c0.958,2.001,3.363,2.844,5.365,1.879c2.008-0.965,2.844-3.365,1.877-5.371
	C491.57,410.134,489.17,409.295,487.163,410.257z M485.615,397.007c-2.008,0.965-2.852,3.368-1.883,5.368
	c0.966,2.004,3.367,2.843,5.37,1.878c2-0.964,2.838-3.365,1.874-5.37C490.012,396.881,487.609,396.045,485.615,397.007z
	 M483.02,383.529c-2.002,0.964-2.844,3.367-1.883,5.369c0.969,2.002,3.377,2.844,5.371,1.879c2.002-0.962,2.851-3.366,1.877-5.37
	C487.422,383.407,485.018,382.563,483.02,383.529z M475.668,377.537c0.966,2,3.373,2.842,5.365,1.877
	c2.008-0.963,2.848-3.369,1.885-5.371c-0.971-1.999-3.373-2.842-5.371-1.877C475.547,373.131,474.699,375.533,475.668,377.537z
	 M468.232,367.158c0.966,2.004,3.367,2.842,5.375,1.878c1.998-0.965,2.838-3.368,1.872-5.37c-0.958-2.002-3.368-2.841-5.365-1.879
	C468.111,362.752,467.273,365.155,468.232,367.158z M457.771,404.518c2.78,5.773,9.71,8.193,15.485,5.414
	c5.764-2.777,8.195-9.713,5.409-15.48c-2.778-5.771-9.707-8.197-15.478-5.416C457.418,391.814,454.996,398.744,457.771,404.518z
	 M437.412,391.5c-2.003,0.964-2.841,3.365-1.883,5.367c0.966,2,3.368,2.842,5.371,1.879c2.007-0.965,2.848-3.368,1.882-5.371
	C441.818,391.374,439.409,390.535,437.412,391.5z M432.055,384.586c0.963,2.002,3.365,2.845,5.365,1.877
	c2.008-0.962,2.846-3.367,1.882-5.37c-0.968-1.999-3.368-2.841-5.37-1.876C431.932,380.182,431.083,382.582,432.055,384.586z
	 M446.38,410.111c1.997-0.965,2.841-3.37,1.872-5.371c-0.961-2.003-3.363-2.845-5.365-1.877c-1.998,0.959-2.844,3.366-1.88,5.37
	C441.973,410.234,444.375,411.075,446.38,410.111z M457.178,415.168c-0.966-2.006-3.373-2.842-5.367-1.881
	c-2.003,0.965-2.846,3.369-1.883,5.368c0.971,2.007,3.373,2.845,5.371,1.88C457.299,419.573,458.146,417.168,457.178,415.168z
	 M466.572,424.645c-0.967-2.004-3.369-2.844-5.365-1.877c-2.008,0.962-2.85,3.367-1.883,5.365c0.969,2.005,3.365,2.844,5.367,1.877
	C466.691,429.048,467.535,426.646,466.572,424.645z M476.263,433.574c-0.96-2.003-3.373-2.843-5.373-1.881
	c-1.999,0.964-2.841,3.369-1.877,5.371c0.966,2.005,3.373,2.844,5.37,1.879C476.383,437.98,477.231,435.574,476.263,433.574z
	 M485.742,442.765c-0.963-1.997-3.367-2.842-5.365-1.877c-2.004,0.965-2.848,3.365-1.879,5.37c0.955,2.002,3.362,2.844,5.362,1.881
	C485.868,447.172,486.706,444.771,485.742,442.765z M495.834,451.181c-0.967-2-3.369-2.842-5.373-1.877
	c-2,0.962-2.842,3.369-1.875,5.37c0.963,2.002,3.371,2.842,5.367,1.877C495.953,455.589,496.797,453.185,495.834,451.181z
	 M494.76,438.426c-0.965-2.004-3.373-2.846-5.369-1.879c-2,0.963-2.844,3.367-1.881,5.371c0.967,1.998,3.368,2.839,5.368,1.875
	C494.878,442.832,495.724,440.426,494.76,438.426z M467.154,220.8l98.773-30.269l-51.472,89.593l-42.326,9.669l20.394-35.48
	c0.707-1.242,0.592-2.79-0.299-3.906c-0.895-1.116-2.375-1.576-3.738-1.159l-41.094,12.583L467.154,220.8z M470.629,240.862
	c-1.387-1.736-3.911-2.023-5.645-0.637c-1.746,1.389-2.025,3.917-0.64,5.656c1.386,1.735,3.916,2.02,5.652,0.636
	C471.736,245.131,472.023,242.6,470.629,240.862z M479.098,231.308c-1.386-1.736-3.916-2.026-5.654-0.637
	c-1.73,1.386-2.025,3.917-0.629,5.654c1.381,1.735,3.91,2.02,5.646,0.636C480.199,235.574,480.479,233.043,479.098,231.308z
	 M493.948,249.825c3.995,5.005,11.289,5.827,16.302,1.834c5.005-4,5.828-11.294,1.833-16.302c-3.992-5.009-11.297-5.83-16.297-1.835
	C490.771,237.518,489.953,244.813,493.948,249.825z M495.677,272.259c-1.384-1.737-3.908-2.023-5.655-0.635
	c-1.733,1.383-2.016,3.917-0.631,5.652c1.381,1.736,3.913,2.023,5.648,0.637C496.778,276.525,497.065,273.992,495.677,272.259z
	 M506.237,271.783c1.741-1.384,2.026-3.913,0.64-5.652c-1.384-1.739-3.922-2.023-5.654-0.635c-1.736,1.385-2.023,3.919-0.635,5.651
	C501.975,272.882,504.506,273.168,506.237,271.783z M516.738,258.263c-1.381-1.735-3.919-2.018-5.655-0.633
	c-1.731,1.386-2.021,3.915-0.63,5.652c1.382,1.735,3.912,2.018,5.65,0.634C517.845,262.534,518.124,260,516.738,258.263z
	 M524.918,247.243c-1.381-1.736-3.916-2.021-5.655-0.632c-1.731,1.383-2.021,3.915-0.63,5.653c1.382,1.735,3.914,2.02,5.65,0.636
	C526.02,251.509,526.299,248.98,524.918,247.243z M532.063,235.976c-1.382-1.732-3.911-2.018-5.652-0.633
	c-1.733,1.384-2.021,3.915-0.638,5.652c1.393,1.739,3.922,2.023,5.655,0.635C533.17,240.247,533.449,237.716,532.063,235.976z
	 M538.619,224.542c-1.392-1.739-3.922-2.024-5.66-0.634c-1.736,1.384-2.021,3.916-0.635,5.651c1.381,1.735,3.916,2.022,5.65,0.636
	C539.711,228.806,540,226.28,538.619,224.542z M545.47,213.253c-1.384-1.739-3.921-2.021-5.657-0.634
	c-1.734,1.384-2.019,3.916-0.633,5.651c1.387,1.738,3.914,2.023,5.65,0.641C546.566,217.521,546.848,214.991,545.47,213.253z
	 M545.139,206.561c1.386,1.737,3.918,2.021,5.654,0.634c1.736-1.385,2.016-3.917,0.64-5.648c-1.394-1.74-3.921-2.023-5.66-0.638
	C544.041,202.294,543.752,204.825,545.139,206.561z M532.94,210.448c1.386,1.737,3.916,2.023,5.652,0.638
	c1.739-1.386,2.019-3.917,0.638-5.655c-1.387-1.735-3.917-2.023-5.656-0.637C531.839,206.181,531.549,208.711,532.94,210.448z
	 M520.408,214.623c1.393,1.737,3.92,2.021,5.655,0.636c1.731-1.386,2.021-3.917,0.64-5.655c-1.389-1.736-3.922-2.018-5.66-0.634
	C519.307,210.354,519.022,212.888,520.408,214.623z M507.801,218.465c1.387,1.736,3.922,2.021,5.655,0.637
	c1.736-1.386,2.026-3.919,0.635-5.656c-1.387-1.735-3.911-2.018-5.649-0.636C506.699,214.199,506.415,216.728,507.801,218.465z
	 M495.228,222.931c1.386,1.736,3.921,2.023,5.655,0.64c1.736-1.389,2.025-3.92,0.635-5.656c-1.382-1.74-3.916-2.023-5.655-0.636
	C494.131,218.665,493.842,221.196,495.228,222.931z M482.67,228.457c1.384,1.737,3.91,2.023,5.646,0.638
	c1.742-1.386,2.026-3.92,0.641-5.655c-1.379-1.736-3.912-2.023-5.652-0.635C481.57,224.189,481.283,226.722,482.67,228.457z
	 M516.487,288.995l85.261,58.366l-102.143,15.614l-33.395-26.624l40.739-6.224c1.404-0.217,2.54-1.275,2.864-2.666
	c0.311-1.393-0.246-2.837-1.432-3.644l-36.109-24.727L516.487,288.995z M499.953,299.421c-2.167-0.499-4.32,0.858-4.822,3.022
	c-0.485,2.166,0.872,4.322,3.031,4.818c2.172,0.498,4.326-0.861,4.822-3.026C503.475,302.066,502.12,299.912,499.953,299.421z
	 M510.916,307.922c2.164,0.49,4.32-0.861,4.816-3.027c0.491-2.166-0.861-4.324-3.028-4.82c-2.169-0.49-4.325,0.862-4.817,3.031
	C507.395,305.271,508.749,307.426,510.916,307.922z M525.299,319.642c-6.245-1.427-12.459,2.482-13.885,8.729
	c-1.422,6.242,2.48,12.462,8.726,13.887c6.245,1.424,12.464-2.486,13.892-8.729C535.457,327.281,531.544,321.063,525.299,319.642z
	 M501.008,351.35c2.164,0.498,4.32-0.859,4.82-3.025c0.49-2.166-0.865-4.326-3.031-4.816c-2.17-0.492-4.326,0.861-4.817,3.027
	C497.483,348.701,498.841,350.857,501.008,351.35z M494.047,343.391c0.496-2.166-0.861-4.326-3.03-4.817
	c-2.159-0.495-4.315,0.862-4.807,3.027c-0.501,2.166,0.851,4.321,3.023,4.814C491.397,346.914,493.555,345.557,494.047,343.391z
	 M515.09,346.314c-2.164-0.496-4.317,0.859-4.809,3.023c-0.501,2.168,0.856,4.324,3.021,4.816c2.169,0.499,4.326-0.858,4.821-3.025
	C518.615,348.966,517.258,346.809,515.09,346.314z M528.808,345.84c-2.167-0.495-4.323,0.859-4.819,3.027
	c-0.494,2.165,0.871,4.321,3.028,4.816c2.175,0.49,4.321-0.863,4.822-3.029C532.33,348.492,530.973,346.33,528.808,345.84z
	 M542.073,344.406c-2.159-0.499-4.321,0.859-4.812,3.024c-0.502,2.165,0.855,4.323,3.025,4.817c2.167,0.492,4.32-0.862,4.813-3.033
	C545.595,347.053,544.242,344.896,542.073,344.406z M555.098,342.389c-2.164-0.492-4.32,0.865-4.818,3.03
	c-0.491,2.169,0.863,4.323,3.031,4.814c2.169,0.496,4.32-0.862,4.811-3.024C558.623,345.041,557.266,342.885,555.098,342.389z
	 M568.193,340.711c-2.161-0.491-4.322,0.863-4.813,3.027c-0.493,2.166,0.861,4.322,3.028,4.817c2.164,0.493,4.32-0.862,4.816-3.026
	C571.721,343.361,570.363,341.207,568.193,340.711z M579.279,345.915c2.172,0.493,4.32-0.861,4.816-3.024
	c0.491-2.171-0.861-4.324-3.025-4.816c-2.172-0.5-4.32,0.858-4.822,3.023C575.758,343.263,577.115,345.419,579.279,345.915z
	 M565.609,333.984c-0.502,2.164,0.856,4.322,3.021,4.817c2.167,0.493,4.326-0.86,4.822-3.028c0.491-2.163-0.866-4.323-3.026-4.816
	C568.257,330.463,566.1,331.818,565.609,333.984z M554.537,326.791c-0.507,2.166,0.861,4.322,3.025,4.814
	c2.168,0.496,4.321-0.859,4.813-3.023c0.49-2.168-0.857-4.323-3.031-4.819C557.182,323.27,555.027,324.627,554.537,326.791z
	 M543.666,319.33c-0.496,2.166,0.861,4.324,3.031,4.814c2.166,0.498,4.322-0.858,4.814-3.024c0.492-2.165-0.859-4.317-3.035-4.816
	C546.32,315.811,544.167,317.162,543.666,319.33z M532.332,312.283c-0.49,2.168,0.867,4.323,3.029,4.816
	c2.169,0.496,4.325-0.859,4.821-3.025c0.493-2.166-0.861-4.322-3.028-4.817C534.99,308.764,532.834,310.117,532.332,312.283z
	 M520.182,305.907c-0.49,2.165,0.861,4.323,3.028,4.817c2.165,0.496,4.326-0.859,4.817-3.025c0.496-2.168-0.857-4.323-3.026-4.816
	C522.84,302.389,520.672,303.744,520.182,305.907z"/>
</svg>
