<?xml version="1.0" encoding="utf-8"?>
<!-- Generator: Adobe Illustrator 16.0.0, SVG Export Plug-In . SVG Version: 6.00 Build 0)  -->
<!DOCTYPE svg PUBLIC "-//W3C//DTD SVG 1.1//EN" "http://www.w3.org/Graphics/SVG/1.1/DTD/svg11.dtd">
<svg version="1.1" id="Layer_1" xmlns="http://www.w3.org/2000/svg" xmlns:xlink="http://www.w3.org/1999/xlink" x="0px" y="0px"
	 width="841.89px" height="595.28px" viewBox="0 0 841.89 595.28" enable-background="new 0 0 841.89 595.28" xml:space="preserve">
<path fill="#010101" d="M421.587,163.507c-25.967,0-49.911,8.613-69.142,23.141l6.728,21.796
	c16.563-14.813,38.434-23.829,62.414-23.829c4.772,0,9.464,0.371,14.035,1.059l22.862-16.106
	C446.906,165.642,434.497,163.507,421.587,163.507L421.587,163.507z M487.399,184.25l-18.623,13.099
	c23.623,13.803,40.635,37.668,45.225,65.706l22.332,16.759c0.016-0.506,0.034-1.009,0.034-1.514
	c0-38.907-19.359-73.294-48.973-94.051L487.399,184.25z M329.616,209.625c-14.314,19.146-22.797,42.92-22.797,68.674
	c0,13.115,2.216,25.703,6.273,37.442l22.761,0.345c-5.102-11.56-7.916-24.344-7.916-37.787c0-15.097,3.571-29.356,9.918-41.987
	L329.616,209.625L329.616,209.625z M513.202,298.151c-5.948,27.621-24.074,50.718-48.478,63.384l-9.041,26.436
	c36.19-11.229,64.708-39.878,75.775-76.146L513.202,298.151L513.202,298.151z M327.87,344.578
	c20.789,29.36,55.032,48.539,93.745,48.539c0.679,0,1.371-0.014,2.055-0.029l7.352-21.564c-3.094,0.307-6.231,0.485-9.406,0.485
	c-25.653,0-48.905-10.321-65.82-27.029l-27.92-0.401H327.87z M401.447,214.397l-68.335,48.146
	c-0.911,5.12-1.396,10.379-1.396,15.759c0,3.595,0.206,7.129,0.621,10.613l86.871-61.185l-17.761-13.327V214.397z M545.612,112.88
	c-39.878,28.054-79.731,56.137-119.595,84.211l17.784,13.298l60.845-42.847l-6.804,19.965c6.049,5.089,11.576,10.774,16.5,16.963
	c10.404-30.536,20.831-61.063,31.27-91.589V112.88z M487.668,217.282l-34.29,100.542l22.194,0.311l27.001-79.117
	c-3.885-7.985-8.932-15.292-14.905-21.739V217.282z M303.185,283.561c-28.491,20.064-50.829,35.787-79.148,55.721
	c48.929,0.744,102.053,1.523,146.254,2.178l-6.551-21.227c-24.781-0.357-49.563-0.716-74.342-1.087
	c5.718-4.032,11.44-8.067,17.166-12.103C304.676,299.484,303.532,291.622,303.185,283.561L303.185,283.561z M393.85,320.661
	l6.548,21.225l83.519,1.229c6.36-6.106,11.822-13.143,16.169-20.88L393.85,320.661z M500.213,257.355l-7.182,21.026l59.552,44.622
	l-21.056-0.313c-2.99,7.389-6.739,14.4-11.089,20.964l60.921,0.917l35.922,0.512C578.26,315.836,539.244,286.6,500.213,257.355
	L500.213,257.355z M409.318,189.225c-8.929,1.226-17.453,3.771-25.348,7.411l85.012,63.705l7.18-21.026L409.318,189.225
	L409.318,189.225z M443.646,346.291l-24.032,70.422l-6.237-20.168c-8.013-0.548-15.816-1.875-23.31-3.943
	c9.504,30.822,19.022,61.633,28.549,92.447l11.59-34.01l35.637-104.431l-22.196-0.313V346.291z M372.699,264.998l-18.132,12.789
	l24.662,79.834c7.681,4.109,16.009,7.157,24.831,8.895L372.699,264.998L372.699,264.998z M302.551,109.273
	c14.396,46.586,28.775,93.169,43.164,139.764l18.137-12.788l-21.938-71.107l16.848,12.64h0.023
	c6.66-4.162,13.771-7.677,21.226-10.471L302.551,109.273L302.551,109.273z"/>
</svg>
