<?xml version="1.0" encoding="utf-8"?>
<!-- Generator: Adobe Illustrator 16.0.0, SVG Export Plug-In . SVG Version: 6.00 Build 0)  -->
<!DOCTYPE svg PUBLIC "-//W3C//DTD SVG 1.1//EN" "http://www.w3.org/Graphics/SVG/1.1/DTD/svg11.dtd">
<svg version="1.1" id="Layer_1" xmlns="http://www.w3.org/2000/svg" xmlns:xlink="http://www.w3.org/1999/xlink" x="0px" y="0px"
	 width="841.89px" height="595.28px" viewBox="0 0 841.89 595.28" enable-background="new 0 0 841.89 595.28" xml:space="preserve">
<path d="M267.08,224.785c-6.135-0.643-12.195-1.946-18.272-3.929c14.751-4.329,29.864-4.959,44.91-6.222
	c15.398-1.314,30.881-2.271,46.102-4.699c14.978-2.358,30.867,0.553,45.688-6.944c-1.977-9.034-8.968-13.787-13.625-20.03
	c-4.781-6.432-10.376-12.235-15.237-18.587c-4.726-6.17-11.022-11.292-14.855-21.069c9.969,3.099,14.929,9.531,20.952,14.215
	c6.328,4.913,12.31,10.255,18.56,15.273c6.128,4.887,11.728,10.649,20.341,14.391c1.436-4.201,3.07-7.201,3.423-10.319
	c2.106-18.762,4.023-37.56,5.799-56.354c1.61-17.097,2.877-34.23,4.514-51.326c0.619-6.678,1.217-13.452,3.532-20.059
	c1.29,0.683,2.112,0.859,2.136,1.153c1.399,10.761,2.984,21.511,4.013,32.306c2.724,28.486,5.141,57.013,7.835,85.51
	c0.562,6.065,0.188,12.599,5.716,18.473c10.688-4.751,18.285-13.498,27.146-20.318c8.535-6.573,16.388-14.043,25.079-19.671
	c4.028,2.155,2.627,4.364,1.274,6.024c-9.699,12.025-19.594,23.899-29.299,35.936c-3.166,3.893-5.979,8.096-9.759,13.278
	c3.459,1.82,5.663,3.641,8.146,4.161c5.034,1.044,10.188,1.527,15.294,2.035c37.031,3.606,74.058,7.144,111.081,10.749
	c1.063,0.108,2.068,0.757,4.817,1.85c-15.934,4.963-31.042,4.757-45.897,6.27c-15.365,1.526-30.769,2.836-46.102,4.651
	c-15.177,1.807-30.831,0.628-46.882,6.532c1.935,3.875,2.905,7.103,4.858,9.545c9.626,12.088,19.563,23.933,29.296,35.948
	c3.172,3.915,6.002,8.106,11.401,15.432c-5.443-2.307-7.537-2.735-8.984-3.915c-13.325-10.815-26.491-21.846-39.854-32.654
	c-3.398-2.763-7.266-4.958-12.127-8.219c-1.308,3.881-2.603,6.359-2.927,8.951c-0.874,6.806-1.569,13.652-1.874,20.506
	c-1.705,37.734-3.144,75.503-4.919,113.225c-2.329,49.168-4.856,98.306-7.334,147.828c-4.2-1.922-2.647-5.525-2.78-8.131
	c-2.543-48.023-4.861-96.025-7.287-144.047c-2.122-42.308-4.292-84.606-6.529-126.901c-0.178-3.258-1.209-6.472-2.357-12.362
	c-20.552,13.327-35.452,29.37-52.968,41.218c-3.968-2.129-2.546-4.354-1.222-5.998c9.313-11.605,18.855-23.057,28.107-34.695
	c3.454-4.377,8.315-7.962,9.219-14.942c-4.738-4.645-11.33-4.215-17.278-4.87c-17.059-1.835-34.186-3.099-51.296-4.646
	C300.13,227.858,283.594,226.46,267.08,224.785z"/>
</svg>
