<?xml version="1.0" encoding="utf-8"?>
<!-- Generator: Adobe Illustrator 16.0.0, SVG Export Plug-In . SVG Version: 6.00 Build 0)  -->
<!DOCTYPE svg PUBLIC "-//W3C//DTD SVG 1.1//EN" "http://www.w3.org/Graphics/SVG/1.1/DTD/svg11.dtd">
<svg version="1.1" id="Layer_1" xmlns="http://www.w3.org/2000/svg" xmlns:xlink="http://www.w3.org/1999/xlink" x="0px" y="0px"
	 width="841.89px" height="595.28px" viewBox="0 0 841.89 595.28" enable-background="new 0 0 841.89 595.28" xml:space="preserve">
<path fill="#010101" d="M531.373,379.049l-26.031-26.869l37.394-1.094l10.253-35.978l19.648,31.829l36.288-9.111l-17.757,32.936
	l26.032,26.865l-37.394,1.098l-10.253,35.977l-19.648-31.828l-36.288,9.108L531.373,379.049z M499.634,356.218L296.705,248.273
	c-9.986-4.741-21.4-7.915-32.371-8.618c-9.44-0.614-24.017,9.865-29.374,15.75c-10.764,11.822,210.085,84.655,263.739,102.108
	C500.279,358.036,501.08,356.898,499.634,356.218z M511.745,373.271l-117.294-23.563c-5.645-1.136-11.73-0.974-17.221,0.684
	c-4.727,1.428-9.395,4.057-11.094,8.888c-3.392,9.714,116.323,14.103,145.358,15.016
	C512.356,374.327,512.568,373.442,511.745,373.271z M537.378,342.457l-52.406-107.563c-2.512-5.171-6.344-9.922-10.98-13.277
	c-3.995-2.885-8.927-5.002-13.798-3.416c-9.783,3.185,59.338,101.036,76.209,124.678
	C536.908,343.584,537.741,343.211,537.378,342.457z M521.22,341.885L339.262,174.317c-8.746-8.056-19.868-13.298-31.734-14.21
	c-10.177-0.785-21.74,1.486-30.619,12.033c-17.843,21.192,191.629,142.909,242.623,172.086
	C521.027,345.078,522.494,343.063,521.22,341.885z"/>
</svg>
