<?xml version="1.0" encoding="utf-8"?>
<!-- Generator: Adobe Illustrator 16.0.0, SVG Export Plug-In . SVG Version: 6.00 Build 0)  -->
<!DOCTYPE svg PUBLIC "-//W3C//DTD SVG 1.1//EN" "http://www.w3.org/Graphics/SVG/1.1/DTD/svg11.dtd">
<svg version="1.1" id="Layer_1" xmlns="http://www.w3.org/2000/svg" xmlns:xlink="http://www.w3.org/1999/xlink" x="0px" y="0px"
	 width="841.89px" height="595.28px" viewBox="0 0 841.89 595.28" enable-background="new 0 0 841.89 595.28" xml:space="preserve">
<path fill="#010101" d="M615.798,352.239l-100.46-65.675l64.562-100.188l-115.311,35.932L420.74,111.018l-43.012,111.286
	l-115.298-35.927l64.562,100.188l-100.465,65.675l114.064,13.106L330.318,482.75l90.449-83.514l91.241,83.469l-10.266-117.359
	L615.798,352.239z M498.851,360.945l-70.549-50.807l169.043,39.49L498.851,360.945z M510.145,285.943l-82.621,17.446l138.82-104.662
	L510.145,285.943z M460.941,225.885l-38.496,73.364V128.171L460.941,225.885z M276.059,198.846L413.49,303.37l-81.299-17.424
	L276.059,198.846z M244.938,349.625l167.902-39.512l-69.373,50.828L244.938,349.625z M339.891,467.518l79.195-154.502v81.375
	L339.891,467.518z M505.926,467.069l-80.674-154.992l71.622,51.585L505.926,467.069z"/>
</svg>
