<?xml version="1.0" encoding="utf-8"?>
<!-- Generator: Adobe Illustrator 16.0.0, SVG Export Plug-In . SVG Version: 6.00 Build 0)  -->
<!DOCTYPE svg PUBLIC "-//W3C//DTD SVG 1.1//EN" "http://www.w3.org/Graphics/SVG/1.1/DTD/svg11.dtd">
<svg version="1.1" id="Layer_1" xmlns="http://www.w3.org/2000/svg" xmlns:xlink="http://www.w3.org/1999/xlink" x="0px" y="0px"
	 width="841.89px" height="595.28px" viewBox="0 0 841.89 595.28" enable-background="new 0 0 841.89 595.28" xml:space="preserve">
<path fill="#010101" d="M452.629,408.569l-30.608-41.687l47.399,20.686l41.696-30.61l-20.688,47.404l30.604,41.688l-47.399-20.686
	l-41.691,30.613L452.629,408.569z M422.404,395.758l8.879,4.67l0,0c-27.538-23.178-47.141-60.158-53.722-102.74
	c-11.913-77.043,8.687-158.766,8.687-158.766L348.791,238.3l-28.344-4.497c12.028,70.54,47.846,117.259,78.562,145.461
	C406.299,385.956,414.178,391.412,422.404,395.758z M465.334,374.907l2.063,1.846l0,0c-5.766-7.624-8.353-17.571-6.992-27.568
	c2.459-18.092,14.102-34.255,14.102-34.255l-17.521,18.529l-7.367-3.57c-1.948,16.656,4.32,30.234,10.581,39.252
	C461.686,371.281,463.422,373.203,465.334,374.907z M434.633,363.299l3.436,3.067l0,0c-9.592-12.685-13.902-29.241-11.641-45.878
	c4.099-30.103,23.469-57.004,23.469-57.004l-29.16,30.839l-12.264-5.95c-3.236,27.736,7.201,50.319,17.618,65.329
	C428.555,357.26,431.445,360.466,434.633,363.299z"/>
</svg>
