<?xml version="1.0" encoding="utf-8"?>
<!-- Generator: Adobe Illustrator 16.0.0, SVG Export Plug-In . SVG Version: 6.00 Build 0)  -->
<!DOCTYPE svg PUBLIC "-//W3C//DTD SVG 1.1//EN" "http://www.w3.org/Graphics/SVG/1.1/DTD/svg11.dtd">
<svg version="1.1" id="Layer_1" xmlns="http://www.w3.org/2000/svg" xmlns:xlink="http://www.w3.org/1999/xlink" x="0px" y="0px"
	 width="841.89px" height="595.28px" viewBox="0 0 841.89 595.28" enable-background="new 0 0 841.89 595.28" xml:space="preserve">
<path fill="#010101" d="M421.299,155.859c-78.138,0-141.703,63.575-141.703,141.712c0,78.143,63.565,141.705,141.703,141.705
	c78.145,0,141.701-63.563,141.701-141.705C563,219.435,499.443,155.859,421.299,155.859z M377.529,326.283
	c2.324-7.111-0.201-14.86-6.255-19.272l-54.406-39.521h67.241c7.5,0,14.092-4.791,16.414-11.917l20.775-63.964l20.775,63.968
	c2.322,7.122,8.92,11.913,16.408,11.913h67.243l-54.409,39.521c-6.054,4.407-8.565,12.161-6.255,19.272l20.776,63.97l-54.408-39.524
	c-2.963-2.156-6.467-3.298-10.131-3.298c-3.66,0-7.174,1.142-10.135,3.298l-54.414,39.524L377.529,326.283z"/>
</svg>
