<?xml version="1.0" encoding="utf-8"?>
<!-- Generator: Adobe Illustrator 16.0.0, SVG Export Plug-In . SVG Version: 6.00 Build 0)  -->
<!DOCTYPE svg PUBLIC "-//W3C//DTD SVG 1.1//EN" "http://www.w3.org/Graphics/SVG/1.1/DTD/svg11.dtd">
<svg version="1.1" id="Layer_1" xmlns="http://www.w3.org/2000/svg" xmlns:xlink="http://www.w3.org/1999/xlink" x="0px" y="0px"
	 width="841.89px" height="595.28px" viewBox="0 0 841.89 595.28" enable-background="new 0 0 841.89 595.28" xml:space="preserve">
<path d="M395.857,223.108l3.277-2.858c2.863-2.016,1.592-6.467-1.9-6.679l-20.874-1.694c-2.864-1.592-5.723-3.074-8.69-4.561
	l-8.791-21.407c-1.065-3.287-5.729-3.608-6.997-0.317l-10.696,25.86l-27.656,2.014c-3.287,0.105-4.875,4.453-2.334,6.674
	l21.299,18.129l-6.462,26.812c-1.06,3.292,2.543,6.255,5.509,4.347l23.84-14.624l23.416,14.415c2.752,2.117,6.777-0.428,5.932-3.819
	l-0.846-3.493c90.803,54.795,145.365,135.03,173.335,241.025c0.851,4.663,7.843,3.705,7.423-1.063
	C553.617,383.267,494.919,284.369,395.857,223.108z M357.391,247.168c-1.376-0.743-2.969-0.637-4.24,0.213l-17.797,10.915
	l4.979-20.453c0.428-1.587-0.212-3.069-1.377-3.919l-15.889-13.568l20.975-1.592c1.594-0.106,2.865-1.167,3.287-2.649l7.945-19.291
	l8.051,19.508c0.527,1.376,1.912,2.326,3.29,2.326l20.978,1.698l-16.001,13.568c-1.274,1.054-1.692,2.646-1.17,4.132l4.877,20.24
	L357.391,247.168z M381.441,251.728l-3.277-13.569l11.65-9.853c83.177,50.665,138.692,128.673,159.879,225.441
	C516.852,364.821,461.754,298.262,381.441,251.728z M308.866,350.3l-7.104-17.171c-0.948-3.392-5.613-3.604-6.987-0.316
	l-8.795,21.414l-22.892,1.691c-3.386,0.107-4.976,4.348-2.329,6.574l17.699,15.051l-5.41,22.15
	c-1.052,3.183,2.549,6.146,5.517,4.347l19.704-12.08l19.387,11.869c2.758,2.119,6.676-0.426,5.833-3.919l-2.12-8.694
	c100.022,14.84,193.684,71.011,233.201,167.892c1.593,4.557,8.477,2.329,7.102-2.334C531.789,453.747,416.83,358.041,308.866,350.3z
	 M310.347,377.326l3.718,15.582l-13.782-8.59c-1.376-0.841-2.964-0.736-4.133,0.112l-13.774,8.478l3.922-15.788
	c0.318-1.593-0.316-3.075-1.48-3.927l-12.186-10.49l16.208-1.169c1.483-0.104,2.757-1.269,3.287-2.65l6.144-14.837l6.146,15.054
	c0.53,1.376,1.905,2.329,3.287,2.329l16.205,1.273l-12.391,10.49C310.242,374.256,309.924,375.847,310.347,377.326z
	 M319.459,383.267l-1.374-5.828l17.372-14.735c0.424-0.32,0.641-0.634,0.959-0.958c71.832,15.271,142.51,67.413,183.19,125.601
	C469.386,428.099,395.636,393.968,319.459,383.267z M506.255,106.626l-0.522-2.226l29.241-24.909
	c2.755-2.016,1.59-6.467-1.913-6.786l-38.775-3.069l-14.623-35.508c-1.055-3.287-5.619-3.501-6.992-0.214l-14.832,35.828
	l-38.462,2.963c-3.394,0.107-4.981,4.348-2.334,6.574l29.564,25.227l-9.007,37.417c-1.168,3.176,2.438,6.147,5.508,4.343
	l26.486-16.322c52.875,96.347,90.279,243.575,105.745,347.231c0.532,4.668,7.42,4.344,7.524-0.423
	C583.816,376.27,553.727,196.823,506.255,106.626z M446.925,135.134l7.524-31.051c0.426-1.487-0.217-3.076-1.381-3.924
	l-24.262-20.668l31.891-2.332c1.484-0.211,2.861-1.273,3.283-2.649l12.081-29.361l12.179,29.467c0.533,1.481,1.916,2.332,3.29,2.332
	l31.886,2.543l-24.364,20.668c-1.167,0.955-1.587,2.654-1.052,4.03l7.409,30.946l-27.226-16.849
	c-1.271-0.746-2.971-0.64-4.141,0.208L446.925,135.134z M475.954,126.13l0.319-0.217l32.635,20.141
	c2.224,1.698,5.398,0.317,5.934-2.226c32.527,81.929,53.929,202.342,59.014,280.668C555.84,332.813,521.622,210.39,475.954,126.13z"
	/>
</svg>
