<?xml version="1.0" encoding="utf-8"?>
<!-- Generator: Adobe Illustrator 16.0.0, SVG Export Plug-In . SVG Version: 6.00 Build 0)  -->
<!DOCTYPE svg PUBLIC "-//W3C//DTD SVG 1.1//EN" "http://www.w3.org/Graphics/SVG/1.1/DTD/svg11.dtd">
<svg version="1.1" id="Layer_1" xmlns="http://www.w3.org/2000/svg" xmlns:xlink="http://www.w3.org/1999/xlink" x="0px" y="0px"
	 width="841.89px" height="595.28px" viewBox="0 0 841.89 595.28" enable-background="new 0 0 841.89 595.28" xml:space="preserve">
<path d="M389.807,180.99c-6.706-3.102-49.293-22.812-49.293-22.812s-4.223,46.731-4.886,54.09c-7.36,0.665-54.09,4.889-54.09,4.889
	s19.708,42.585,22.814,49.291c-6.04,4.253-44.403,31.275-44.403,31.275s38.363,27.022,44.403,31.276
	c-3.107,6.707-22.814,49.289-22.814,49.289s46.734,4.226,54.09,4.889c0.663,7.358,4.886,54.093,4.886,54.093
	s42.587-19.713,49.293-22.814c4.253,6.038,31.274,44.401,31.274,44.401s27.026-38.363,31.281-44.401
	c6.703,3.102,49.285,22.814,49.285,22.814s4.226-46.734,4.886-54.093c7.361-0.663,54.096-4.889,54.096-4.889
	S540.916,335.707,537.814,329c6.039-4.254,44.399-31.276,44.399-31.276s-38.36-27.022-44.399-31.275
	c3.102-6.706,22.814-49.291,22.814-49.291s-46.734-4.224-54.096-4.889c-0.66-7.358-4.886-54.09-4.886-54.09
	s-42.582,19.71-49.285,22.812c-4.255-6.039-31.281-44.4-31.281-44.4S394.06,174.952,389.807,180.99z M421.081,155.014
	c6.314,8.958,27.703,39.325,27.703,39.325s33.709-15.601,43.652-20.207c0.984,10.912,4.326,47.907,4.326,47.907
	s36.996,3.344,47.912,4.33c-4.603,9.945-20.206,43.651-20.206,43.651s30.364,21.395,39.323,27.703
	c-8.959,6.308-39.323,27.7-39.323,27.7s15.604,33.711,20.206,43.652c-10.916,0.987-47.912,4.33-47.912,4.33
	s-3.342,36.994-4.326,47.907c-9.943-4.603-43.652-20.205-43.652-20.205s-21.389,30.366-27.703,39.323
	c-6.31-8.957-27.702-39.323-27.702-39.323s-33.709,15.603-43.651,20.205c-0.988-10.913-4.333-47.907-4.333-47.907
	s-36.993-3.343-47.904-4.33c4.603-9.941,20.206-43.652,20.206-43.652s-30.367-21.393-39.325-27.7
	c8.958-6.309,39.325-27.703,39.325-27.703s-15.603-33.706-20.206-43.651c10.911-0.985,47.904-4.33,47.904-4.33
	s3.345-36.995,4.333-47.907c9.941,4.605,43.651,20.207,43.651,20.207S414.771,163.972,421.081,155.014z M400.414,220.591
	c-4.429-2.052-32.571-15.076-32.571-15.076s-2.789,30.879-3.228,35.742c-4.863,0.44-35.742,3.231-35.742,3.231
	s13.024,28.139,15.076,32.568c-3.994,2.811-29.341,20.668-29.341,20.668s25.347,17.856,29.341,20.667
	c-2.052,4.432-15.076,32.571-15.076,32.571s30.879,2.791,35.742,3.226c0.439,4.865,3.228,35.744,3.228,35.744
	s28.142-13.023,32.571-15.073c2.812,3.991,20.667,29.339,20.667,29.339s17.858-25.348,20.671-29.339
	c4.43,2.05,32.568,15.073,32.568,15.073s2.788-30.879,3.229-35.744c4.859-0.435,35.744-3.226,35.744-3.226
	s-13.026-28.14-15.076-32.571c3.989-2.811,29.339-20.667,29.339-20.667s-25.35-17.857-29.339-20.668
	c2.05-4.429,15.076-32.568,15.076-32.568s-30.885-2.791-35.744-3.231c-0.44-4.863-3.229-35.742-3.229-35.742
	s-28.139,13.024-32.568,15.076c-2.813-3.993-20.671-29.341-20.671-29.341S403.226,216.598,400.414,220.591z M421.081,203.424
	c4.172,5.92,18.306,25.985,18.306,25.985s22.275-10.311,28.846-13.35c0.652,7.211,2.861,31.656,2.861,31.656
	s24.444,2.208,31.652,2.859c-3.04,6.572-13.35,28.845-13.35,28.845s20.066,14.137,25.985,18.305
	c-5.919,4.173-25.985,18.305-25.985,18.305s10.31,22.272,13.35,28.844c-7.208,0.654-31.652,2.862-31.652,2.862
	s-2.209,24.441-2.861,31.654c-6.57-3.041-28.846-13.352-28.846-13.352s-14.134,20.067-18.306,25.986
	c-4.169-5.919-18.304-25.986-18.304-25.986s-22.275,10.311-28.846,13.352c-0.649-7.213-2.858-31.654-2.858-31.654
	s-24.446-2.208-31.656-2.862c3.04-6.571,13.351-28.844,13.351-28.844s-20.064-14.132-25.985-18.305
	c5.921-4.168,25.985-18.305,25.985-18.305s-10.311-22.273-13.351-28.845c7.21-0.65,31.656-2.859,31.656-2.859
	s2.208-24.445,2.858-31.656c6.571,3.039,28.846,13.35,28.846,13.35S416.912,209.344,421.081,203.424z M408.84,252.035
	c-2.625-1.217-19.292-8.932-19.292-8.932s-1.655,18.294-1.912,21.174c-2.882,0.26-21.171,1.911-21.171,1.911
	s7.713,16.666,8.926,19.293c-2.363,1.665-17.376,12.242-17.376,12.242s15.014,10.579,17.376,12.242
	c-1.213,2.622-8.926,19.294-8.926,19.294s18.289,1.65,21.171,1.912c0.257,2.877,1.912,21.171,1.912,21.171
	s16.667-7.716,19.292-8.932c1.665,2.366,12.241,17.382,12.241,17.382s10.58-15.016,12.242-17.382
	c2.625,1.216,19.292,8.932,19.292,8.932s1.652-18.294,1.912-21.171c2.883-0.262,21.174-1.912,21.174-1.912
	s-7.716-16.672-8.929-19.294c2.362-1.663,17.379-12.242,17.379-12.242s-15.017-10.577-17.379-12.242
	c1.213-2.628,8.929-19.293,8.929-19.293s-18.291-1.651-21.174-1.911c-0.26-2.88-1.912-21.174-1.912-21.174
	s-16.667,7.715-19.292,8.932c-1.662-2.367-12.242-17.381-12.242-17.381S410.505,249.668,408.84,252.035z M421.081,241.867
	c2.472,3.504,10.843,15.392,10.843,15.392s13.196-6.109,17.089-7.91c0.384,4.271,1.689,18.751,1.689,18.751
	s14.481,1.31,18.753,1.693c-1.803,3.895-7.906,17.086-7.906,17.086s11.885,8.377,15.392,10.844
	c-3.507,2.472-15.392,10.842-15.392,10.842s6.104,13.194,7.906,17.085c-4.271,0.388-18.753,1.695-18.753,1.695
	s-1.306,14.479-1.689,18.754c-3.893-1.806-17.089-7.911-17.089-7.911s-8.371,11.888-10.843,15.394
	c-2.468-3.506-10.844-15.394-10.844-15.394s-13.191,6.105-17.085,7.911c-0.385-4.275-1.693-18.754-1.693-18.754
	s-14.477-1.308-18.75-1.695c1.804-3.891,7.91-17.085,7.91-17.085s-11.887-8.37-15.392-10.842
	c3.505-2.467,15.392-10.844,15.392-10.844s-6.105-13.191-7.91-17.086c4.274-0.384,18.75-1.693,18.75-1.693
	s1.308-14.479,1.693-18.751c3.894,1.8,17.085,7.91,17.085,7.91S418.613,245.371,421.081,241.867z"/>
</svg>
