<?xml version="1.0" encoding="utf-8"?>
<!-- Generator: Adobe Illustrator 16.0.0, SVG Export Plug-In . SVG Version: 6.00 Build 0)  -->
<!DOCTYPE svg PUBLIC "-//W3C//DTD SVG 1.1//EN" "http://www.w3.org/Graphics/SVG/1.1/DTD/svg11.dtd">
<svg version="1.1" id="Layer_1" xmlns="http://www.w3.org/2000/svg" xmlns:xlink="http://www.w3.org/1999/xlink" x="0px" y="0px"
	 width="841.89px" height="595.28px" viewBox="0 0 841.89 595.28" enable-background="new 0 0 841.89 595.28" xml:space="preserve">
<path fill="#010101" d="M520.012,294.064c-11.534-1.441-39.058-7.793-44.848-21.411c0.736,0.402-10.696-25.843,18.826-57.732
	c1.799-1.946-1.117-4.851-3.264-3.292c-7.926,5.789-26.557,16.833-40.321,16.562c0.82-0.371-23.617-0.657-34.608-49.87
	c-0.571-2.582-4.54-2.023-4.59,0.625c-0.138,9.109-2.214,28.331-9.325,39.697c-1.107-0.711-11.025,26.122-57.976-13.729
	c-2.021-1.718-4.851,1.116-3.292,3.258c5.791,7.933,16.842,26.563,16.563,40.329c-0.37-0.817,2.431,17.882-49.866,34.599
	c-2.526,0.816-2.025,4.555,0.624,4.589c8.515,0.134,25.871,1.966,37.382,8.004c-0.081,0.854,22.173,5.447-15.534,56.143
	c-1.582,2.124,0.93,4.894,3.128,3.416c8.147-5.462,27.212-15.764,40.95-14.939c-0.831,0.33,16.996-2.371,32.598,51.201
	c0.742,2.543,4.465,2.205,4.611-0.439c0.475-8.752,3.127-26.782,10.051-37.993c0.572-0.114,1.131-0.457,1.507-1.14
	c11.853-21.428,42.365,10.918,52.644,20.502c1.935,1.814,4.948-0.583,3.624-2.881c-4.9-8.507-13.855-28.23-12.088-41.885
	c0.053,0.162,0.212,0,0.441-0.377c0.318-3.713,1.9-7.331,4.063-10.433c1.568-2.834,3.629-4.999,6.231-5.542
	c0.014-0.146,0.014-0.275-0.052-0.377c11.313-7.999,33.543-10.664,42.64-12.261C522.74,298.231,522.641,294.392,520.012,294.064z
	 M469.112,360.288c-7.841-7.085-17.851-15.201-27.319-18.625c0.183-1.008-30.196-13.064-33.867,36.296
	c-3.859-14.611-10.297-33.411-21.803-38.023c-11.044-8.665-30.442-2.342-44.632,4.915c6.515-8.286,13.9-18.796,16.678-28.454
	c1.12,0.301,12.532-31.446-37.259-32.365c14.451-4.427,32.972-11.614,37.121-23.297c8.221-11.389,1.144-30.514-6.682-44.403
	c13.091,9.485,31.505,20.81,43.342,14.643c12.561-4.917,18.129-23.737,20.179-39.049c4.431,14.448,11.626,32.974,23.299,37.115
	c11.381,8.227,30.51,1.147,44.401-6.676c-41.464,62.587,7.694,69.864,24.143,73.934
	C491.873,299.132,440.519,301.729,469.112,360.288z M374.853,206.914c-6.028,0-6.028-9.34,0-9.34
	C380.883,197.574,380.883,206.914,374.853,206.914z M373.288,178.874c-6.028,0-6.028-9.345,0-9.345
	C379.313,169.528,379.313,178.874,373.288,178.874z M321.882,255.212c-6.025,0-6.025-9.348,0-9.348
	C327.905,245.864,327.905,255.212,321.882,255.212z M359.271,392.302c-6.028,0-6.028-9.347,0-9.347
	C365.302,382.955,365.302,392.302,359.271,392.302z M440.281,387.63c-6.023,0-6.023-9.353,0-9.353
	C446.312,378.277,446.312,387.63,440.281,387.63z M432.496,417.222c-6.034,0-6.034-9.343,0-9.343
	C438.521,407.879,438.521,417.222,432.496,417.222z M321.882,320.64c-6.025,0-6.025-9.343,0-9.343
	C327.905,311.297,327.905,320.64,321.882,320.64z M382.638,425.015c-6.023,0-6.023-9.345,0-9.345
	C388.668,415.67,388.668,425.015,382.638,425.015z M307.864,353.352c0,2.548-2.128,4.674-4.679,4.674h-1.553
	c-2.546,0-4.674-2.126-4.674-4.674c0-2.542,2.128-4.674,4.674-4.674h1.553C305.736,348.678,307.864,350.81,307.864,353.352z
	 M451.187,200.684c-6.026,0-6.026-9.348,0-9.348C457.212,191.336,457.212,200.684,451.187,200.684z M508.83,244.308
	c-0.006,1.367-0.183,2.6-0.799,3.833c-0.496,0.989-1.353,1.804-2.133,2.584c-1.794,1.802-4.807,1.796-6.605,0
	c-1.805-1.805-1.797-4.805,0-6.61c0.075-0.074,0.148-0.155,0.229-0.235c0.228-2.357,2.225-4.247,4.64-4.247
	C506.697,239.633,508.83,241.76,508.83,244.308z M518.174,233.401c-6.028,0-6.028-9.357,0-9.357
	C524.205,224.044,524.205,233.401,518.174,233.401z M538.429,333.1c-6.028,0-6.028-9.346,0-9.346
	C544.454,323.754,544.454,333.1,538.429,333.1z M499.48,339.332c-6.03,0-6.03-9.346,0-9.346
	C505.499,329.986,505.499,339.332,499.48,339.332z M519.732,273.904c-6.022,0-6.022-9.352,0-9.352
	C525.758,264.552,525.758,273.904,519.732,273.904z"/>
</svg>
