<?xml version="1.0" encoding="utf-8"?>
<!-- Generator: Adobe Illustrator 16.0.0, SVG Export Plug-In . SVG Version: 6.00 Build 0)  -->
<!DOCTYPE svg PUBLIC "-//W3C//DTD SVG 1.1//EN" "http://www.w3.org/Graphics/SVG/1.1/DTD/svg11.dtd">
<svg version="1.1" id="Layer_1" xmlns="http://www.w3.org/2000/svg" xmlns:xlink="http://www.w3.org/1999/xlink" x="0px" y="0px"
	 width="841.89px" height="595.28px" viewBox="0 0 841.89 595.28" enable-background="new 0 0 841.89 595.28" xml:space="preserve">
<path fill="#010101" d="M597.202,169.672c0-0.462,0.463-1.388,1.39-1.388l7.378-3.225l1.381-8.303c0-0.462,0.462-1.385,1.381-1.385
	c0.463,0,1.387,0,1.387,0.446l5.548,6.472l8.3-1.382c0.924,0,1.386,0,1.843,0.926c0,0.457,0.468,0.919,0,1.838l-4.605,6.92
	l4.148,7.396c0,0.465,0,1.384-0.462,1.846c-0.462,0.462-0.924,0.923-1.386,0.462l-8.3-1.843l-6.01,5.993
	c-0.463,0.462-0.925,0.462-1.844,0.462c-0.462-0.462-0.919-0.924-0.919-1.386l-0.93-8.301l-7.375-4.167
	C597.665,171.053,597.202,170.129,597.202,169.672z M478.104,109.204l-5.553,12.007c-0.463,0.923-0.463,2.304,0.475,2.769
	c0.449,0.924,1.373,1.386,2.768,0.924l12.453-3.247l9.702,8.777c0.924,0.927,1.849,0.927,2.772,0.462
	c0.919,0,1.838-0.924,1.838-2.306l0.462-12.93l11.548-6.458c0.919-0.46,1.381-1.381,1.381-2.307c0-1.381-0.462-2.32-1.381-2.32
	l-12.472-5.071l-2.762-12.93c0-0.924-0.925-1.843-1.844-1.843c-0.93-0.462-1.849,0-2.772,0.919l-8.315,10.16l-12.929-1.381
	c-0.924-0.461-2.306,0-2.762,0.924c-0.463,0.919-0.463,1.846,0,2.765L478.104,109.204z M533.494,136.43l0.919,7.396
	c0.462,0.465,0.462,0.921,1.381,1.384c0.462,0,0.925,0,1.387-0.462l5.086-5.533l7.389,0.924c0.456,0,0.919,0,1.375-0.462
	c0.465-0.462,0.465-1.381,0-1.86l-3.686-6.455l3.229-6.458c0.456-0.462,0-1.389,0-1.846c-0.463-0.462-0.919-0.462-1.844-0.462
	l-6.934,1.846l-5.541-5.548c-0.462-0.462-0.919-0.462-1.381,0c-0.919,0-0.919,0.457-1.381,0.919l-0.462,7.86l-6.473,3.225
	c-0.441,0.464-0.924,0.927-0.924,1.383c0,0.462,0.482,0.924,0.924,1.385L533.494,136.43z M420.849,140.596l7.396,4.152l0.919,8.301
	c0,0.462,0.468,0.924,0.925,1.385c0.462,0,1.386,0,1.849-0.461l5.991-5.996l7.856,1.844c0.924,0.462,1.386,0,1.843-0.462
	c0.462-0.461,0.462-1.382,0-1.845l-3.687-7.376l4.148-7.396c0.462-0.462,0.462-0.919,0-1.381c0-0.927-0.919-0.927-1.381-0.927
	l-8.32,1.389l-5.527-6.458c-0.462-0.462-0.924-0.462-1.849-0.462c-0.462,0-0.924,0.919-0.924,1.381l-1.387,8.301l-7.854,3.23
	c-0.462,0-0.924,0.922-0.924,1.398C419.925,139.677,420.387,140.596,420.849,140.596z M569.499,379.706l-4.148-8.762
	c-0.467-0.462-0.929-0.924-1.848-0.924c-0.925,0-1.387,0.462-1.849,0.924l-3.705,8.762l-9.681,1.399
	c-0.924,0.462-1.387,0.924-1.843,1.387c0,0.919,0,1.843,0.919,2.305l6.918,6.454l-1.843,9.704c0,0.463,0.462,1.382,0.919,1.844
	c0.924,0.462,1.381,0.462,2.305,0l8.321-4.613l8.767,4.151c0.457,0.462,1.376,0.462,1.838,0c0.462-0.457,0.925-0.919,0.925-1.844
	l-2.306-9.699l7.392-6.459c0.462-0.924,0.462-1.386,0.462-2.306c-0.462-0.462-0.925-0.924-1.838-1.404L569.499,379.706z
	 M623.504,308.155l-9.681-0.919l-4.167-8.768c-0.462-0.919-0.925-1.381-1.844-1.381c-0.924,0.462-1.381,0.462-1.843,1.381
	l-3.691,8.768l-9.705,1.381c-0.921,0-1.381,0.462-1.843,1.386c0,0.935,0,1.382,0.462,1.859l7.399,6.919l-1.852,9.239
	c0,0.924,0.462,1.843,0.925,1.843c0.462,0.463,1.384,0.925,2.308,0.463l8.297-5.086l8.32,4.623c0.925,0.463,1.844,0.463,2.303,0
	c0.463-0.457,0.925-1.396,0.925-1.843l-2.303-9.702l6.913-6.934c0.924-0.447,0.924-0.925,0.924-1.844
	C624.89,308.617,624.428,308.155,623.504,308.155z M692.46,243.515l-12.924-14.772l5.548-18.469c0.462-1.381,0-2.762-1.386-3.686
	c-0.925-1.382-2.324-1.382-4.162-0.92l-17.544,7.841l-15.699-11.088c-1.381-0.462-2.77-0.919-4.146,0
	c-1.387,0.924-2.311,2.323-1.849,3.699l1.849,19.393l-15.242,11.529c-1.381,0.922-1.843,2.326-1.381,4.17
	c0,1.381,1.381,2.303,2.762,2.765l18.926,4.153l6.473,17.997c0.462,1.391,1.849,2.772,3.234,2.772c1.381,0,2.768-0.462,3.691-1.844
	l9.699-16.62l19.386-0.462c1.389-0.462,2.765-0.925,3.227-2.768C693.846,245.819,693.384,244.434,692.46,243.515z M539.491,350.638
	c0.919,5.994-1.381,12.467-8.303,16.158L344.126,473.164l1.083,3.154c0.023,0.053,0.014,0.109,0.034,0.162
	c0.047,0.198,0.086,0.404,0.1,0.598c0.016,0.136,0.031,0.259,0.031,0.384c-0.011,0.222-0.045,0.426-0.092,0.627
	c-0.026,0.114-0.031,0.227-0.067,0.331c-0.084,0.24-0.193,0.468-0.332,0.679c-0.044,0.073-0.063,0.149-0.102,0.212
	c-0.011,0.005-0.011,0.016-0.011,0.021l-0.167,0.162c-0.164,0.193-0.329,0.404-0.548,0.563l-0.089,0.068l-12.693,12.511
	l-65.069-39.747c0,0-82.774,58.291-83.927,57.492c-1.164-0.799,24.946-101.938,24.946-101.938s-58.539-44.872-58.024-45.595
	l7.013-14.824c0.005-0.021,0.005-0.045,0.005-0.068c0.104-0.353,0.27-0.663,0.47-0.947v-0.011c0.204-0.274,0.438-0.504,0.694-0.702
	c0.071-0.058,0.154-0.086,0.217-0.125c0.207-0.139,0.418-0.259,0.658-0.345c0.107-0.05,0.222-0.061,0.332-0.089
	c0.211-0.047,0.423-0.097,0.645-0.109c0.039,0,0.073-0.016,0.112-0.019l68.441-0.204l24.271-63.817
	c0.18-0.549,17.422-18.539,17.667-18.801c0,0,0.008-0.005,0.008-0.013c0.267-0.006,1.449,2.723,3.195,7.15l168.245-97.026
	c6.918-4.151,13.377-2.77,18.006,0.939c1.844,1.382,3.229,3.226,4.611,5.071c0.921,2.305,1.846,4.15,2.308,6.455
	c0.919,6.015-1.387,12.472-8.3,16.161l-33.7,19.845c-2.313,1.386-3.248,3.247-3.248,5.091c0.463,0.924,0.463,1.843,0.935,2.768
	c0.447,0.919,1.376,1.381,1.852,1.848c1.381,1.382,3.687,1.844,5.997,0.457l70.165-40.63c6.913-4.15,13.386-2.769,18.463,0.936
	c1.387,1.387,3.225,3.229,4.148,5.075c1.387,2.306,1.844,4.148,2.306,6.454c0.922,6.016-1.381,12.47-8.302,16.158l-32.314,18.929
	c-2.308,1.384-3.227,3.688-2.765,5.548c0,0.921,0.457,1.384,0.919,2.308c0.462,0.919,0.919,1.381,1.387,1.844
	c1.841,1.381,3.684,1.843,6.467,0.462l90.012-52.164c3.692-2.308,8.308-2.77,12.456-1.384c3.705,0.922,7.399,3.228,9.705,6.914
	l0.456,0.924c2.306,3.691,2.768,8.315,1.382,12.469c-0.919,3.692-3.225,7.381-6.914,9.687c-2.32,2.323-44.32,25.397-51.239,29.552
	c-2.323,1.381-2.772,3.224-2.772,5.548c0.449,0.462,0.449,1.381,0.925,2.305c0.467,0.925,0.929,1.387,1.848,1.844
	c1.382,1.386,3.692,1.846,5.995,0.462l29.084-17.08c6.921-3.688,13.394-2.768,18.469,1.381c1.843,1.387,3.224,2.773,4.143,5.078
	c1.387,1.844,1.849,4.148,2.316,6.011c0.919,5.994-1.392,12.453-8.305,16.614l-110.805,64.16c-2.3,0.925-3.222,3.23-2.763,5.092
	c0,0.919,0.463,1.843,0.925,2.762c0.457,0.462,0.919,1.387,1.381,1.849c1.843,1.381,4.148,1.381,6.472,0l21.693-12.475
	c6.916-4.148,13.851-2.762,18.464,0.925c1.843,1.386,3.224,3.229,4.148,5.078C538.572,346.489,539.491,348.332,539.491,350.638z
	 M234.316,345.388l8.824-0.021c0,0,15.539-51.025,22.892-72.854l-10.329,10.409L234.316,345.388z M337.408,478.186l-65.048-45.749
	c0,0-69.029,50.639-70.209,49.806c-1.183-0.822,23.132-82.908,23.132-82.908l-67.119-47.195l-3.665,9.354l12.333,8.671
	l46.167,34.282c1.097,0.812,1.587,2.211,1.235,3.526l-24.458,91.545l74.368-53.338l0.159-0.109c1.073-0.689,2.465-0.689,3.551,0
	l63.776,40.185L337.408,478.186z M337.836,471.726l-9.108-25.376l-11.294-31.505l-2.313-6.443l-3.812-10.637
	c-0.468-1.37-0.006-2.882,1.148-3.738l65.82-45.989l-0.159,0.006l-32.616,0.848l-48.057,1.251c-1.439,0.019-2.734-0.891-3.201-2.259
	l-17.333-54.813l-6.443-20.38l-1.204,4.039l-21.397,71.867c-0.423,1.382-1.689,2.329-3.128,2.353l-12.3-0.036l-6.74-0.029
	l-40.88-0.136l-19.946-0.058l4.153,2.791l62.056,41.802c1.186,0.833,1.694,2.321,1.267,3.696l-24.403,75.107l62.351-48.42
	l0.212-0.153c1.125-0.713,2.593-0.689,3.699,0.091l59.127,42.846L337.836,471.726z M318.386,397.896l2.209,6.454l52.5-38.958
	l6.209-13.206L318.386,397.896z M528.881,352.48c0-0.924-0.462-1.843-0.924-2.767c-0.457-0.925-0.919-1.382-1.839-1.844
	c-1.404-1.381-3.71-1.843-6.015-0.462l-22.155,12.915c-6.473,3.7-13.388,2.306-18.001-1.386c-1.844-1.387-3.225-2.768-4.616-5.073
	c-0.933-1.846-1.856-4.15-1.856-5.994c-0.924-6.01,1.395-12.469,7.858-16.62l111.24-64.171c2.309-0.924,3.243-3.227,2.786-5.075
	c0-0.919-0.478-1.843-0.924-2.783c-0.479-0.457-0.92-1.384-1.862-1.846c-1.381-1.381-3.687-1.381-5.991,0l-29.09,16.62
	c-6.918,4.172-13.377,2.78-18.463-0.919c-1.387-1.386-3.235-3.229-4.154-5.078c-1.381-2.303-1.843-4.146-2.305-6.456
	c-0.92-6.01,1.386-12.47,8.302-16.155l50.32-29.087c1.381-0.925,2.323-2.306,2.765-3.692c0.479-1.386,0-3.224-0.441-4.623
	c-0.942-1.387-2.323-2.306-3.709-2.768c-1.382,0-3.225,0-4.616,0.919l-90.01,51.701c-6.472,4.167-13.391,2.786-17.996-0.919
	c-1.854-1.386-3.234-3.229-4.634-5.072c-0.919-1.849-1.838-4.154-1.838-6.459c-0.93-6.011,0.919-12.467,7.848-16.158l32.778-18.921
	c2.306-1.386,2.768-3.248,2.768-5.553c-0.462-0.462-0.462-1.387-0.924-2.311c-0.463-0.919-0.922-1.382-1.844-1.844
	c-1.384-1.381-3.705-1.843-6.01-0.462l-70.168,40.619c-6.916,3.71-13.378,2.783-17.999-0.919c-1.851-1.384-3.688-3.232-4.613-5.076
	c-0.924-2.305-1.843-4.153-2.305-6.459c-0.919-6.01,1.381-12.466,8.3-16.152l33.7-19.85c2.305-1.398,3.229-3.241,3.229-5.548
	c-0.462-0.924-0.462-1.389-0.925-2.308c-0.462-0.924-1.381-1.386-1.843-1.843c-1.382-1.388-3.697-1.846-5.997-0.462l-169.777,98.259
	c8.9,23.732,22.826,63.043,22.826,63.043s74.207-0.337,84.791,0.718c0.234-0.005,0.384,0.008,0.407,0.037c0,0,0.005,0,0.005,0.01
	c0.52,0.063,0.844,0.136,0.877,0.206c0.145,0.444,0.162,0.906,0.129,1.351c0.01,0.185-0.019,0.407-0.1,0.676
	c-0.006,0.016-0.011,0.039-0.011,0.061c-0.251,0.571-9.821,23.22-10.386,23.646l-52.69,40.59l17.962,52.526
	c0.699-0.524,1.41-1.034,2.104-1.569l183.271-104.142C528.419,356.17,529.343,354.327,528.881,352.48z"/>
</svg>
