<?xml version="1.0" encoding="utf-8"?>
<!-- Generator: Adobe Illustrator 16.0.0, SVG Export Plug-In . SVG Version: 6.00 Build 0)  -->
<!DOCTYPE svg PUBLIC "-//W3C//DTD SVG 1.1//EN" "http://www.w3.org/Graphics/SVG/1.1/DTD/svg11.dtd">
<svg version="1.1" id="Layer_1" xmlns="http://www.w3.org/2000/svg" xmlns:xlink="http://www.w3.org/1999/xlink" x="0px" y="0px"
	 width="841.89px" height="595.28px" viewBox="0 0 841.89 595.28" enable-background="new 0 0 841.89 595.28" xml:space="preserve">
<path fill-rule="evenodd" clip-rule="evenodd" d="M519.806,370.621c-2.044-4.407-4.657-5.974-9.328-5.793
	c-7.595,0.295-15.208,0.074-22.394,0.074c-2.231-3.451-0.652-5.602,0.614-7.928c3.425-6.283,6.524-12.76,10.127-18.926
	c1.791-3.057,0.958-5.02-1.462-6.668c-4.736-3.222-9.47-6.475-14.436-9.309c-30.783-17.594-63.959-28.266-98.734-34.729
	c-20.826-3.873-41.736-4.829-62.717-3.633c-10.16,0.573-20.199,3.227-30.306,4.939c-0.89,0.157-1.786,0.313-2.699,0.47
	c-1.799-2.488-0.337-4.232,0.822-5.966c4.428-6.582,9.529-12.522,16.041-17.176c1.851-1.311,3.487-2.909,5.937-4.971
	c-12.887-7.349-26.419-7.104-39.248-9.053c-1.039-3.79,1.627-5.188,3.652-6.565c6.898-4.698,13.937-9.159,20.934-13.687
	c1.512-0.981,3.089-1.86,5.018-3.01c-5.148-6.015-11.782-8.244-17.98-11.021c-5.905-2.647-12.088-4.673-18.152-6.973
	c0.028-0.625,0.063-1.242,0.091-1.864c2.825-0.744,5.608-1.892,8.485-2.178c30.46-3.05,60.565-1.215,90.091,7.223
	c42.222,12.068,79.77,32.868,112.507,62.007c11.547,10.284,21.803,22.001,32.663,33.057c1.146,1.167,2.362,2.263,4.099,3.935
	c7.42-8.407,11.3-18.834,18.612-27.939c1.585,2.342,2.825,3.98,3.852,5.744c2.888,4.949,5.905,9.84,8.451,14.959
	c1.88,3.801,4.652,4.954,8.636,4.865c5.724-0.137,11.459,0.057,17.174,0.191c1.867,0.04,3.731,0.336,6.746,0.627
	c-1.018,2.654-1.603,4.829-2.637,6.754c-2.718,5.035-5.445,10.086-8.531,14.906c-2.05,3.204-2.246,5.918-0.217,9.223
	c2.994,4.871,5.645,9.967,8.291,15.041c1.825,3.488,1.713,3.55,0.736,8.419c-7.404,0-14.33,0.255-21.22-0.091
	c-4.708-0.24-7.598,1.494-9.777,5.558c-2.705,5.04-5.827,9.86-8.856,14.726c-0.835,1.324-1.997,2.445-3.738,4.546
	C526.92,383.371,522.873,377.227,519.806,370.621z"/>
</svg>
