<?xml version="1.0" encoding="utf-8"?>
<!-- Generator: Adobe Illustrator 16.0.0, SVG Export Plug-In . SVG Version: 6.00 Build 0)  -->
<!DOCTYPE svg PUBLIC "-//W3C//DTD SVG 1.1//EN" "http://www.w3.org/Graphics/SVG/1.1/DTD/svg11.dtd">
<svg version="1.1" id="Layer_1" xmlns="http://www.w3.org/2000/svg" xmlns:xlink="http://www.w3.org/1999/xlink" x="0px" y="0px"
	 width="841.89px" height="595.28px" viewBox="0 0 841.89 595.28" enable-background="new 0 0 841.89 595.28" xml:space="preserve">
<path fill="#010101" d="M389.271,274.397l2.715-0.608l-42.084-12.75l49.537,9.106l-41.913-25.427l40.979,18.692l-77.682-77.637
	l84.114,71.774l-20.027-37.654l23.074,32.487l1.747-6.245l-6.888-33.047l14.015,39.967l5.678-142.741l1.867-0.197l1.479,142.961
	l15.21-40.125l-10.821,45.462l28.543-38.764l-21.139,37.79l86.23-72.333l-79.976,78.162l41.534-18.985l-42.664,25.708l49.805-9.426
	l-43.957,13.487l115.955,3.749l-116.102,4.518l43.598,13.222l-49.539-9.112l41.913,25.421l-40.961-18.704l77.658,77.649
	l-84.13-71.774l20.043,37.633l-27.391-38.578l9.475,45.393l-14.027-40.039l-7.18,180.127l-1.844-180.027l-4.389,11.558l-1.197,4.271
	l-0.168-0.672l-9.456,24.903l7.645-32.12l-1.692-6.728l-23.68,32.167l21.174-37.779l-86.266,72.331l79.947-78.158l-41.501,18.982
	l42.669-25.708l-49.809,9.426l39.044-11.979l-8.939-1.97l-102.108-3.31L389.271,274.397z"/>
</svg>
