<?xml version="1.0" encoding="utf-8"?>
<!-- Generator: Adobe Illustrator 16.0.0, SVG Export Plug-In . SVG Version: 6.00 Build 0)  -->
<!DOCTYPE svg PUBLIC "-//W3C//DTD SVG 1.1//EN" "http://www.w3.org/Graphics/SVG/1.1/DTD/svg11.dtd">
<svg version="1.1" id="Layer_1" xmlns="http://www.w3.org/2000/svg" xmlns:xlink="http://www.w3.org/1999/xlink" x="0px" y="0px"
	 width="841.89px" height="595.28px" viewBox="0 0 841.89 595.28" enable-background="new 0 0 841.89 595.28" xml:space="preserve">
<path d="M340.821,290.853c-16.832-9.216-28.915-23.993-43.491-35.744c-19.633-15.817-38.699-32.33-57.265-49.411
	c-2.608-2.398-5.287-4.574-5.099-8.895c0.264-6.227,1.514-7.579,7.678-7.211c10.559,0.633,20.952,2.878,31.486,3.492
	c20.941,1.205,41.139,6.975,61.821,9.743c13.442,1.8,26.831,4.076,40.198,6.367c4.318,0.744,7.185-0.914,9.325-4.266
	c12.83-20.05,29.695-36.739,45.258-54.499c6.329-7.211,14.726-12.266,22.077-18.42c3.514-2.94,6.997-5.925,10.579-8.784
	c3.29-2.628,9.514-0.448,10.219,3.627c2.378,13.869,4.645,27.763,6.95,41.644c0.897,5.421,0.631,10.889,0.365,16.333
	c-0.549,11.01,2.352,21.642,3.206,32.486c0.532,6.71,0.794,13.433,1.509,20.141c0.25,2.403,1.097,3.673,3.109,4.532
	c23.609,10.101,44.871,24.669,67.93,35.79c10.431,5.023,21.012,9.754,31.68,14.231c5.543,2.326,10.9,5.01,16.365,7.457
	c1.811,0.808,3.158,2.099,2.704,4.359c-0.697,3.522-2.214,6.428-5.755,7.958c-5.832,2.532-12.092,3.371-18.212,4.765
	c-16.237,3.699-31.664,9.224-46.36,17.414c-14.215,7.927-29.324,14.25-43.854,21.675c-5.229,2.676-8.007,5.649-7.947,11.98
	c0.094,10.66,1.217,21.15,2.637,31.68c1.901,14.085,2.606,28.275,2.959,42.48c0.183,7.315,0.799,14.609,1.039,21.923
	c0.115,3.657-1.29,6.806-4.562,8.673c-3.042,1.736-5.347-0.17-7.743-1.888c-14.264-10.229-26.288-23.035-39.554-34.41
	c-18.628-15.976-35.64-33.674-53.396-50.571c-3.243-3.083-7.099-5.303-10.52-8.117c-1.083-0.895-2.352-0.935-3.657-0.871
	c-16.851,0.854-33.697,2.326-50.545,2.339c-14.012,0.016-27.948,1.17-41.927,1.493c-9.678,0.225-19.447-0.131-29.089,1.446
	c-3.274,0.535-5.12-1.634-6.156-4.269c-1.298-3.311-1.65-6.634,1.425-9.503c11.832-11.028,23.001-22.863,35.546-33.017
	c16.224-13.127,31.309-27.773,49.258-38.702C334.166,294.396,337.8,293.33,340.821,290.853z M265.98,365.863
	c0.153,0.384,0.32,0.76,0.48,1.139c0.947,0,1.89,0.044,2.83-0.003c14.28-0.685,28.564-1.608,42.855-2.008
	c17.305-0.485,34.604-1.078,51.882-2.141c6.704-0.41,13.388-1.181,20.087-1.768c6.449-0.562,8.979,1.897,8.585,8.229
	c-0.131,2.099-0.188,3.926,1.649,5.804c24.965,25.358,51.041,49.526,77.596,73.186c2.454,2.19,4.801,4.668,8.43,6.401
	c-0.529-11.03-1.188-21.481-1.506-31.93c-0.51-16.668-4.514-32.972-4.947-49.637c-0.086-3.585-0.212-7.188-0.708-10.725
	c-1.011-7.282,1.421-12.871,7.854-15.592c17.012-7.164,33.431-15.615,50.119-23.458c12.981-6.102,25.581-12.78,39.718-15.871
	c4.927-1.086,9.777-2.54,14.994-3.905c-0.601-0.525-0.852-0.883-1.188-1.019c-28.45-11.528-54.871-27.032-81.604-41.931
	c-7.949-4.432-16.002-8.899-25.146-10.659c-2.979-0.572-3.51-3.102-3.648-5.593c-0.574-9.974-0.523-20.03-1.709-29.924
	c-1.463-12.127-2.633-24.227-2.637-36.441c0-12.439-3.094-24.429-5.81-36.455c-0.378-1.681-0.692-3.226-2.896-1.412
	c-8.96,7.353-18.815,13.623-26.528,22.463c-8.094,9.272-16.344,18.418-24.268,27.835c-7.06,8.398-14.656,16.376-17.834,27.503
	c-1.694,5.914-5.412,7.959-9.412,6.617c-12.135-4.086-24.666-6.232-37.284-7.955c-24.479-3.361-48.451-10.008-73.259-11.287
	c-4.984-0.254-9.95-1.039-16.062-1.704c2.699,2.548,4.428,4.227,6.208,5.845c22.688,20.634,47.104,39.257,69.563,60.182
	c6.529,6.08,14.508,10.24,22.698,13.652c3.607,1.508,5.649,3.65,5.37,7.255c-0.279,3.706-1.598,6.92-5.593,8.85
	c-7.963,3.844-16.158,7.279-23.697,11.984c-12.459,7.785-22.698,18.396-34.319,27.259
	C285.921,346.99,276.643,357.216,265.98,365.863z"/>
</svg>
