<?xml version="1.0" encoding="utf-8"?>
<!-- Generator: Adobe Illustrator 16.0.0, SVG Export Plug-In . SVG Version: 6.00 Build 0)  -->
<!DOCTYPE svg PUBLIC "-//W3C//DTD SVG 1.1//EN" "http://www.w3.org/Graphics/SVG/1.1/DTD/svg11.dtd">
<svg version="1.1" id="Layer_1" xmlns="http://www.w3.org/2000/svg" xmlns:xlink="http://www.w3.org/1999/xlink" x="0px" y="0px"
	 width="841.89px" height="595.28px" viewBox="0 0 841.89 595.28" enable-background="new 0 0 841.89 595.28" xml:space="preserve">
<path d="M483.175,342.346l-37.434-11.135l2.527,9.109l-6.569-7.329l-13.659,25.046l-5.313-28.084l-36.164,15.938l29.59-33.901
	l-10.62-1.021l7.328-2.78l-28.833-17.715l33.131,6.323l-0.251-29.849l16.698,35.429l2.271-15.443l3.287,12.156l31.875-15.192
	l-21.249,24.04l16.188,2.522l-12.903,3.801L483.175,342.346z M492.024,389.152l18.213,66.04l-51.338-56.931l-49.075,88.305
	l-11.294-60.511l0,0l-1.115-5.947l-0.267-1.431l0,0l-5.308-28.476c0,0-0.008,0-0.013,0l-0.298-1.682l-0.067-0.35l0,0l-0.606-3.316
	l-1.59,0.663l0,0l-1.478,0.661l-0.058,0.099c-0.008-0.023-0.023-0.041-0.041-0.063l-28.199,12.52v0.008l-9.159,4.052l-3.185,1.415
	l0,0l-106.02,46.932l109.009-125.488l-68.795-7.083l56.662-21.516l-130.257-80.451l163.89,32.129l-2.026-140.664L424.747,225.2
	l10.874-69.316l24.536,95.129l145.176-69.332l-93.576,106.27l91.806,14.428l-82.448,23.525l113.058,104.998L492.024,389.152z
	 M473.061,387.132l-6.827-24.288l100.152,29.35l-80.685-74.896l34.906-9.863l-43.757-7.088l56.913-64.776l-85.495,40.994
	l-8.339-32.384l-6.324,41.493l-45.025-95.13l1.274,79.948l-89.036-17.208l77.397,47.571l-19.73,7.595l28.077,2.775l-79.167,90.837
	l96.862-42.76l14.166,75.139l36.933-66.794L473.061,387.132z"/>
</svg>
