<?xml version="1.0" encoding="utf-8"?>
<!-- Generator: Adobe Illustrator 16.0.0, SVG Export Plug-In . SVG Version: 6.00 Build 0)  -->
<!DOCTYPE svg PUBLIC "-//W3C//DTD SVG 1.1//EN" "http://www.w3.org/Graphics/SVG/1.1/DTD/svg11.dtd">
<svg version="1.1" id="Layer_1" xmlns="http://www.w3.org/2000/svg" xmlns:xlink="http://www.w3.org/1999/xlink" x="0px" y="0px"
	 width="841.89px" height="595.28px" viewBox="0 0 841.89 595.28" enable-background="new 0 0 841.89 595.28" xml:space="preserve">
<path d="M426.262,20.976l12.719,29.627l33.795,3.861c3.375,0.485,5.628,3.54,4.991,6.764l-50.698,510.82
	c-0.164,7.41-11.098,7.247-11.419,0.161L363.665,61.228c-0.485-3.54,2.094-6.764,5.628-6.764l32.191-3.061l14.165-30.906
	C417.736,15.668,424.651,16.151,426.262,20.976L426.262,20.976z M465.051,74.108l-13.677,12.068l6.749,33.329
	c0.974,4.993-4.661,8.691-8.844,5.793l-5.157-3.054l-9.976,263.216L465.051,74.108z M408.562,389.967l-10.303-268.044l-6.428,3.697
	c-4.512,2.576-9.818-1.765-8.21-6.763l6.915-31.549l-14-12.879L408.562,389.967z M433.024,115.806l-11.747-6.925l-11.907,6.764
	l11.907,308.134L433.024,115.806z M420.632,36.757l-9.981,21.895c-0.636,2.09-2.565,3.535-4.819,3.698l-23.183,2.254l17.541,16.105
	c1.78,1.444,2.739,3.539,2.251,5.956l-5.146,22.702l20.919-11.756c1.775-1.285,4.184-1.448,6.114-0.322l20.12,11.915l-4.824-23.502
	c-0.645-2.091,0-4.349,1.772-5.802l17.377-15.454l-23.983-2.729c-2.088-0.164-4.021-1.458-4.819-3.548L420.632,36.757z"/>
</svg>
