<?xml version="1.0" encoding="utf-8"?>
<!-- Generator: Adobe Illustrator 16.0.0, SVG Export Plug-In . SVG Version: 6.00 Build 0)  -->
<!DOCTYPE svg PUBLIC "-//W3C//DTD SVG 1.1//EN" "http://www.w3.org/Graphics/SVG/1.1/DTD/svg11.dtd">
<svg version="1.1" id="Layer_1" xmlns="http://www.w3.org/2000/svg" xmlns:xlink="http://www.w3.org/1999/xlink" x="0px" y="0px"
	 width="841.89px" height="595.28px" viewBox="0 0 841.89 595.28" enable-background="new 0 0 841.89 595.28" xml:space="preserve">
<path fill="#010101" d="M541.771,452.611l31.591,32.126l-44.704-5.608l-20.779,39.979l-8.493-44.248l-44.433-7.42l39.451-21.745
	l-6.673-44.556l32.872,30.813l40.311-20.113L541.771,452.611z M459.08,434.941l16.574,6.54l0,0
	c-51.417-32.381-88.013-84.057-100.313-143.554c-22.241-107.646,16.239-221.826,16.239-221.826l-69.942,138.853l-52.937-6.281
	c22.481,98.557,89.349,163.832,146.694,203.233C429.01,421.256,443.711,428.882,459.08,434.941z"/>
</svg>
