<?xml version="1.0" encoding="utf-8"?>
<!-- Generator: Adobe Illustrator 27.7.0, SVG Export Plug-In . SVG Version: 6.00 Build 0)  -->
<svg version="1.1" id="Layer_1" xmlns="http://www.w3.org/2000/svg" xmlns:xlink="http://www.w3.org/1999/xlink" x="0px" y="0px"
	 viewBox="0 0 500 500" style="enable-background:new 0 0 500 500;" xml:space="preserve">
<style type="text/css">
	.st0{fill-rule:evenodd;clip-rule:evenodd;fill:#FFFFFF;}
</style>
<path class="st0" d="M380.3,239.8c-2.4-5.4-4.1-11-6.7-16.3c-2.9-5.8-6.9-10.6-10.8-15.5c-0.3-0.3-0.6-0.6-1-0.9
	c-7.4-6-15.7-10.4-25.1-12.4c-3.7-0.8-7.6-1.3-11.2-2.4c-2.6-0.7-5.2-0.9-7.9-0.9c-2.5,0-5,0.2-7.4,0.2c-0.5,0-1-0.4-1.7-0.6
	c0.1-1,0.1-1.9,0.4-2.7c1.8-4.9,0.9-9.6-0.6-14.3c-2.2-6.9-6.7-12.5-11.8-17.4c-4.9-4.7-10.9-8-17.2-10.6c-2.2-0.9-4.5-1.3-6.8-2
	c-9.5-3.2-19.3-4-29.2-2.7c-3.2,0.4-6.3,1.6-9.5,1.9c-3.5,0.3-6.5,1.6-9.6,3.1c-0.5,0.3-1,0.6-1.6,0.8c-3.2,1.2-6.1,2.6-8.8,4.8
	c-3,2.4-6,4.7-8.8,7.4c-4.2,4-7.4,8.8-11,13.2c-1.8,2.3-3.1,5-4.3,7.7c-0.9,2.1-1.5,4.5-2,6.8c-0.5,2.4-2.1,4.5-1.6,7.1
	c-1.2,2.8-0.9,5.8-1.4,8.7c-0.1,0.8-0.4,1.7-0.5,2.4c-1.8,0.7-3.4,0.3-5,0.3c-2.1,0-4,0.1-6.1,0.7c-2.5,0.8-5.1,1.4-7.7,1.6
	c-1.7,0.2-3.2,0.2-4.5,1.3c-1.4,1.2-3,1.6-5,1.1c-2.2-0.6-4.4-0.1-6.4,1c-2.6,1.5-5.1,3-7.6,4.4c-3.2,1.8-5.6,4.2-7.7,7.2
	c-1.7,2.4-3.4,4.8-5.1,7.2c-0.7,1-1.2,2-1.8,3.1c-2.1,4-4.2,8.1-6.3,12.2c-1.6,3-3,6.1-3.4,9.5c-0.2,1.6-0.1,3.2-0.2,4.8
	c-0.2,6.2-0.5,12.4-0.7,18.5c-0.2,4.8,0.6,9.4,3.5,13.4c1.5,2,2.7,4.2,3.9,6.4c2.6,4.9,5.9,9.1,11,11.7c0.4,0.2,0.7,0.5,1.1,0.8
	c2,1.6,3.9,3.2,5.8,4.7c3.7,2.9,7.5,5.7,10.4,9.5c0.8,1,1.9,1.9,2.8,2.8c6.6,6.3,14.6,8.1,23.3,7.1c4.2-0.5,8.3-1.9,12.4-3
	c3.1-0.8,6-2.3,9.3-2.7c1.1,0.9,2.1,1.7,3,2.7c0.9,1,1.7,2,2.4,3.1c0.8,1.1,1.6,2.1,3,2.5c4.3,1.1,8.6,1.6,13.1,0.5
	c4.7-1.2,9.3-2.8,13.6-5.1c6.1-3.3,12-7,17.4-11.2c1.4-1.1,2.6-2.4,3.7-3.8c0.5-0.6,1.2-1.6,1.1-2.3c-0.2-2.6,1.5-4.4,2.6-6.4
	c0.9-1.8,2.1-3.6,2.6-5.6c1.2-5,0.4-10.8-5-13.8c-2.7-1.5-5.4-3.1-8.1-4.4c-1.7-0.9-3.3-1.9-4.7-3.3c-1-1.1-1.2-2.1-0.7-3.6
	c1.4-4.2,2.7-8.4,4.1-12.6c0.3-0.8,0.7-1.5,1.2-2.5c1.5,1.4,2.6,2.8,4,3.8c2.9,2,4.9,4.7,6.6,7.6c1.2,2.1,2.6,3.9,4.4,5.5
	c1.5,1.4,3.1,2.8,4.6,4.1c1.6,1.3,2.4,3,2.2,5c-0.2,1.6-0.4,3.2-0.7,4.8c-0.5,2.6-1.3,5.2-1.6,7.8c-0.7,6.4-2.5,12.4-4.8,18.3
	c-0.9,2.5-1.6,5-2.5,7.5c-1.3,3.7-2.9,7.4-4.2,11.1c-0.7,2.1-1.3,4.5,0,6.4c1.8,2.6,2.9,5.8,5.8,7.6c0.6,0.4,1.4,0.5,2.1,0.6
	c2.5,0.3,4.9,0.7,7.4,0.7c2.4,0,4.3,0.5,6.1,2.5c1.1,1.2,2.3,1.7,3.4,1.6c1.1,0.6,3.2,1.4,5.8,1c0,0,0.1,0.1,0.1,0.1
	c3.2,0.1,6.4,0.3,9.6,0.4c0.5,0,1.2-0.1,1.6-0.5c0.9-0.8,1.9-0.8,2.9-0.7c2.8,0.3,4.8-0.8,6.5-2.8c1.1-1.3,2.4-2.6,3.5-4
	c0.6-0.8,1.2-1.8,1.3-2.7c0.2-2.1,1.4-3.2,3.2-3.7c1.9-0.5,2.6-1.8,3-3.4c0.5-2.2,0.7-4.4,1.1-6.5c1.6-8.4,1.3-17,2-25.5
	c0-0.1,0-0.2,0-0.3c0.1-1.5,0.2-4.2,0.3-6.1c1.4-1.1,3.1-1.2,4.9-1.1c1,0,2.1-0.1,3.1-0.2c3.9-0.8,7.8-1.4,11.7-2.4
	c2.8-0.7,5.6-1.8,8.3-2.9c2.4-1,4.7-2.4,7.1-3.5c1.4-0.6,2.5-1.4,3.7-2.3c5-4.2,9.4-8.9,13.7-13.7c0.7-0.7,1.2-1.7,1.6-2.6
	c3.1-6.8,4.1-14.1,4.4-21.5C382.2,248.2,382.2,243.8,380.3,239.8z M354,206.3c2.5,0.2,4.3,2,5.8,3.7c2.7,3,5.6,6,7.1,10.9
	c-1.2-0.5-2.2-0.7-2.4-1.1c-1.5-5-5.8-5.7-10-6.6c-3.2-0.6-6.4-1-9.6-0.9c-1.1,0-2.4,0.3-3.1-1.4c3.4-1.1,7.1-0.2,10.9-1.6
	c-3.3-1-5.9-0.6-8.5,0.2c-0.7-0.8-0.3-1.3,0.2-1.5C347.5,206.3,350.8,206,354,206.3z M351,204c-2.6,1.5-5.2,1.7-7.4,2.9
	c-2.2,1.2-4.5,2.4-7,3.7c1.1-4.6,2.1-5.4,10.6-9.1C348.2,202.2,349.4,202.9,351,204z M339.3,212c-0.2,0.1-0.5,0.3-0.7,0.2
	c-0.1,0-0.2-0.4-0.3-0.6c0.2-0.1,0.5-0.2,0.7-0.3C339.1,211.6,339.2,211.8,339.3,212z M305.1,183c-0.3,2.5-0.7,4.9-1,7.4
	c-0.5-0.1-0.9-0.1-0.9-0.2c0.3-2.7-1-4.8-2.2-7c-0.7-1.3-1.4-2.6-2.2-3.8c-0.3-0.5-0.6-1.1-1.1-1.3c-2.2-0.8-3-2.7-3.8-4.6
	c-0.3-0.6-0.6-1.3-0.9-1.9c4.4,2.1,7.6,5.5,11.1,8.6C304.9,181,305.2,181.9,305.1,183z M268.9,165.5c2.6,1.9,5.2,3.8,7.8,5.7
	c1.2,0.9,1.8,2.2,2.3,3.7c1.5,4,3.6,7.6,6.2,11c1.3,1.6,2.4,3.3,3.5,5.1c0.3,0.5,0.5,1.1,0.6,1.6c0.1,0.8-0.5,1.5-1.2,1.6
	c-0.5,0.1-1.2-0.1-1.5-0.5c-0.5-0.5-0.8-1.3-0.9-1.9c-0.6-4-2.9-7-5.9-9.5c-2.6-2.2-4.7-4.6-5.9-8c-0.9-2.7-3.3-4.5-5.5-6.2
	c-1.7-1.4-3.7-2.4-5.5-3.6c-1-0.7-2-1.3-1.8-2.8c0.1-1.1,1.2-1.5,3.3-1.5c1.9,0.1,8,2.1,9.9,3.3c1,0.6,1.9,1.4,3,1.8
	c3.3,1.1,5.8,3.4,8.2,5.8c1.7,1.7,3.3,3.3,4.8,5.2c1.2,1.5,1.9,3.2,3,4.8c1,1.4,2.3,2.7,3.3,4.2c1.2,1.8,2.1,3.8,2.5,6.3
	c-1.3,0-2.4,0.3-3.2-0.1c-0.8-0.4-1.6-1.4-1.9-2.3c-1.4-4.4-4.4-7.2-8.1-9.6c-1.2-0.8-2.5-1.8-3.1-3.1c-1.6-3.3-4.3-5.5-6.5-8.3
	c-2.1-2.6-5-3.8-8.1-4.7C267.6,164.7,268.3,165.1,268.9,165.5z M281,196.8c-2.3-1-3.3-2.7-3.8-4.4c-0.6-1.8-0.5-3.7-0.7-5.8
	c1.6-0.1,2.2,1.1,2.6,2C280.3,190.9,282.3,193.2,281,196.8z M261.9,169.2c2,1,3.3,2.4,2.9,4.9c-0.2,1.4,0.3,2.6,1.3,3.6
	c3.7,4,5.8,8.8,7.6,13.8c0.8,2.2,1.3,4.4,2.1,7.1c-0.7,1.4-2.2,2.3-4.4,2.9c-0.1-0.9-0.3-1.6-0.3-2.2c0-2.9-0.9-5.5-2.2-8
	c-2.4-4.5-5-9-7.2-13.6c-1.4-3-2.4-6.3-3.5-9.5c-0.5-1.4-0.7-2.8-1.2-4.4c0.7,0,1.5-0.2,2,0c1.8,1,3.6,2,5.2,3.2c2.4,1.9,4.7,4,7,6
	c0.3,0.3,0.7,0.6,0.9,1c0.9,2.7,2.2,5.4,2.6,8.2c-1.5,0.4-1.9-0.5-2.4-1.1c-1.1-1.6-2.3-3-4.1-3.9c-1.1-0.5-1.8-1.5-1.8-2.8
	c0-0.3,0-0.6,0-0.9c-0.2-2.6-1.6-4.4-3.9-5.4c-0.8-0.3-1.6-0.6-2.4-0.9c-0.1,0.2-0.2,0.5-0.4,0.7
	C260.3,168.4,261.1,168.8,261.9,169.2z M278.4,150.1c-2.1-0.2-3.9-0.5-5.7-0.5c-1.8,0-3.8-0.5-5.3,1.5c1.1,1.5,2.7,1.9,4.3,1.8
	c4.2-0.4,7.7,1,11.2,3.1c3.1,1.9,6.7,3.1,10.1,4.5c2.8,1.1,4.2,3.4,5.7,6.5c-1.2-0.3-2-0.3-2.6-0.6c-2.1-1-4.3-2-6.3-3.2
	c-3-1.8-5.9-3.9-8.9-5.8c-3.3-2.1-7.3-2.3-11-3c-0.7-0.1-1.5,0.5-2.7,0.9c2,1.3,3.9,1.8,5.7,2.2c1.7,0.4,3.3,0.9,4.8,2.1
	c1,0.8,2.3,1.3,3.5,1.9c3.4,1.8,5.9,4.8,8.9,7.1c1.2,0.9,2,2.5,1.7,4.8c-0.9-0.9-1.5-1.4-2-2.1c-1.4-1.9-3.2-3.4-5.1-4.8
	c-4.6-3.2-9.6-5.7-15.2-6.7c-1.6-0.3-3.1-0.9-4.6-1.5c-1.5-0.5-2.9-0.4-4.2,0.5c-1.7,1.2-3.3,2.3-5,3.6c-1.2,0.9-2.4,0.9-3.9,0.2
	c0.9-1.1,1.7-2.1,2.5-3.1c0.6-0.7,1.3-1,2.2-1.1c1.2-0.1,2.4-0.8,3.8-1.3c-0.3-1.1-0.5-1.9-0.8-3c0.4-0.4,0.8-1.1,1.4-1.3
	c1.8-0.8,4-1.1,5-3.2c0.2-0.3,0.7-0.5,1.2-0.6C270.9,148.2,274.6,147,278.4,150.1z M254.3,165.2c-0.2,0.1-0.5,0.2-0.7,0.3
	c-0.1-0.2-0.2-0.4-0.3-0.7c0.2-0.1,0.5-0.3,0.7-0.2C254.2,164.6,254.2,165,254.3,165.2z M203.4,166.9c1-1.1,2-2.3,3.2-2.9
	c1.4-0.6,3.1-0.5,4.9-0.8c-0.2-1.8-0.4-3.2-0.6-4.8c0.9-1.4,2.5-2.3,3.9-3.2c1.2-0.8,2.4-1.6,3.6-2.4c0.6-0.4,1.3-0.8,1.9-1
	c2.3-0.6,4.3-1.5,6.2-3.1c2.1-1.7,4.7-2.5,7.4-0.7c1.5-1.8,3.1-3.3,5.7-2.3c0.3,0.1,0.9-0.2,1.1-0.4c1-1.3,2.4-1.3,3.6-1.1
	c2.6,0.4,5.2-0.1,7.8-0.1c0.7,0,1.4,0.2,2.3,0.3c0,2.4-0.2,4.5-1.1,6.6c-0.4,1-0.4,1.9,0.4,2.7v0c0.1,0,0.1,0,0.1,0
	c0.5-0.8,1.1-1.7,1.6-2.5c0-0.1,0-0.2,0-0.2c0,0,0.1,0,0.1,0c0.4-2.1,0.9-4.1,1.3-6.3c0.7-0.1,1.3-0.3,1.8-0.3
	c0.7,0.1,1.3,0.4,2.4,0.7c-1,1.1-1.6,2-2.4,2.7c-1.1,0.9-1.4,2-1.5,3.2c0,0,0.1,0,0.1,0c0,0,0,0,0,0c2.5-1.6,5-3.3,7.6-4.9
	c0.9-0.6,1.9-0.6,2.8,0.1c-0.2,1.6-1.6,1.7-2.6,2.2c-2.5,1.2-5.3,1.4-7.6,3.3c0,0-0.2-0.1-0.3-0.3c0-0.1,0-0.3,0-0.4
	c0,0-0.1,0.1-0.1,0.1c0-0.1,0-0.1,0-0.2c-0.5,0-1.1-0.1-1.6-0.1c0,0,0,0.1,0,0.1c0,0-0.1,0.1-0.1,0.1c0.4,2.1,0.3,2.3-1.6,2.5
	c0,0,0,0.1-0.1,0.1c0,0-0.1-0.1-0.1-0.1c0.3,0.8,0.2,1.4-0.9,1.6c-0.5-0.7-0.9-1.5-1.4-2.3c-0.4,0.4-0.7,0.5-0.8,0.7
	c-0.4,1.7-0.8,3.4-1.2,5.1c-0.2,0.6-0.7,1.2-1.2,2.2c-0.8-2.9-1.6-5.4-2.3-8.1c-0.6,0.5-1.2,0.8-1.2,1c0.2,1.6,0.2,3.5,1.1,4.6
	c1.1,1.4,1,3,1.6,4.4c0,1.2,0,2.5,0,3.8c-0.5-1.3-0.2-2.5,0-3.8c-0.6,0.2-1.1,0.1-1.5-0.5c-1.3-2.6-3.5-4.7-4.4-7.6
	c-0.2-0.6-1.3-0.9-1.9-1.3c-1.2,1.5,0.6,2.7-0.3,4.1c-1.9-0.1-2.8-3.2-5.3-1.9c0.4,1.4,1.5,2.2,2.5,3.1c1.1,1,2.1,2.1,3.2,3
	c2.2,1.9,2.2,4.7,2.8,7.2c0,0.2-0.3,0.7-0.4,0.7c-0.4,0-1,0-1.2-0.3c-0.4-0.6-0.9-1.4-0.8-2c0.3-2.4-0.9-4-2.4-5.4
	c-2.4-2.1-5-4.1-8-5.3c-1.6,0.8-2.2,2.4-3.3,3.6c2.5,0.9,4.8,1.8,7.1,2.6c-2.1,2.3-2.1,2.3-0.7,6.2c-0.9,1-2.3,1.2-3.5,1.5
	c-3.6,1.2-6.5,3.4-9,6.2c-5,5.8-9.6,12-13.3,18.7c-1.7,3-2.5,6.3-3.1,9.6c-0.2,1.3-0.4,2.6-0.6,4.2c-1.3-0.2-2.4-0.4-3.5-0.7
	c-0.4-0.1-0.9-0.8-0.9-1.3c0-1,0.8-1,1.6-0.8c0.2,0.1,0.5-0.1,1.1-0.2c0-1.2,0.2-2.5,0.1-3.8c-0.2-2.5,0.4-4.6,1.7-6.7
	c1.3-2.1,2.4-4.4,3.7-6.5c0.4-0.8,1-1.4,1.7-2c1.4-1.4,2.3-3,2.9-4.9c0.4-1.3,1.3-2.7,2.4-3.6c2.3-1.9,4.3-4,7.1-5.2
	c0.5-0.2,0.8-0.7,1.3-1.2c-0.5-0.2-0.8-0.5-0.9-0.4c-1.9,0.7-3.9,1.4-5.8,2.2c-2.5,1.1-4.5,2.7-6.1,4.9c-1,1.4-2.1,2.9-3.2,4.2
	c-1.4,1.5-2.4,3-1.3,5.3c-1,0.8-1.8,1.4-2.5,2.1c-1.8,1.9-3.1,4.1-3.2,6.6c-0.3,3.9-2.5,6.8-4,10.3c-0.9-0.2-1.7-0.1-2.2-0.5
	c-0.5-0.4-1.1-1.2-1-1.7c0.4-2,0.6-4.3,2.2-5.7c3-2.8,3.9-6.5,5.2-10.1c0.9-2.5,2-4.9,3.9-6.8c0.6-0.6,1.2-1.3,1.6-2.1
	c0.8-1.8,2-3.2,3.5-4.5c0.6-0.5,0.9-1.3,1.3-2c2,0,2.3-1.6,2.7-3.1c0-0.1-0.5-0.3-0.8-0.5c0.2-1,0.4-1.9,0.7-3.2
	c-0.7-0.1-1.4-0.3-2-0.1c-2.5,0.9-5,1.9-7.4,2.8c-0.7,0.2-1.4,0.4-2.5,0.7C201,169,202.3,168,203.4,166.9z M243.9,163.2
	c0,0.1-0.1,0.2-0.1,0.3c-0.1-0.1-0.2-0.2-0.4-0.3c0.1-0.1,0.2-0.2,0.2-0.2C243.8,163.1,243.9,163.2,243.9,163.2z M237.5,168.8
	c-2.3-0.1-3.2-0.9-3.7-2.2c-0.1-0.3,0-0.9,0.2-1.1c0.2-0.2,0.9-0.2,1.1,0C235.9,166.4,236.5,167.3,237.5,168.8z M191.3,186.3
	c2-5.1,5.9-8.3,10.5-10.7c2.7-1.4,5.7-2.3,8.1-4.3c0.4-0.3,0.9-0.3,1.5-0.5c-0.6,1.1-1.1,2.2-1.7,3.4c-7.9,3.4-13.4,9.1-16.1,17.4
	c-0.7,2.2-1.2,2.6-3.2,4.4c-0.2-0.2-0.5-0.4-0.5-0.6C190,192.3,190.2,189.2,191.3,186.3z M143,223.2c1.8,0.2,3,1.8,4.9,0.8
	c0.2-1.6-2-1.5-2.3-2.8c0.1-0.2,0-0.6,0.2-0.8c0.2-0.4,0.5-0.8,0.9-1c2.8-1.6,5.6-3.2,8.5-4.6c1-0.5,2.6,0.1,3.4-0.6
	c2.2-2,4.7-2.6,7.6-2.5c1-2.3,2.4-0.7,3.6-0.3c1.4,0.5,1.5,0.4,2.4-1.3c0.2-0.4,0.4-0.7,0.7-1c0.3-0.2,0.8-0.4,1.2-0.5
	c1.5-0.4,8.6-0.1,9.9,0.6c1,0.5,1.8,0.6,2.8,0c0.4-0.2,1.5,0.3,1.8,0.7c2.2,3.5,4.4,6.9,6.4,10.5c1.1,1.9,1.6,4.1,0.9,6.4
	c-0.3,1.1-0.2,2.3-0.2,3.5c0,0.3,0.4,0.8,0.8,0.9c0.3,0.1,0.9-0.1,1.1-0.3c3.6-4.8,3.4-9.3-0.4-14.1c-1.3-1.6-2.4-3.3-3.6-5
	c1.1-1,2.5,0.7,3.3-0.8c0.1-0.2,0.8-0.2,1.2-0.1c1.2,0.4,2.5,0.9,3.7,1.4c0.4,0.2,0.8,0.4,1.1,0.8c2,2.8,3.8,5.7,2.7,9.3
	c-0.6,2.2-0.6,4.4,0,6.6c0.8,3.3,2,6.4,3.1,9.6c0.4,1,1.2,1.6,2.6,1.3c0.2-2.3,0.2-4.5-0.8-6.8c-0.6-1.3-0.9-2.8-0.9-4.3
	c-0.1-3.1-0.2-6.2,0-9.2c0.1-2.2-0.4-4.1-2.3-5.4c-0.2-0.2-0.4-0.4-0.6-0.6c0-0.1,0-0.2,0.1-0.5c2.8-0.5,3.2,2.6,5,3.5
	c2.1-1.2,2.2-1.2,3.4,0.5c0.5,0.7,1,1.5,2,1.4c-0.1-0.5-0.2-1.1-0.3-1.6c1.3-0.6,2.4-0.3,2.9,0.6c0.7,1.4,1.7,1.8,3,2.3
	c1.7,0.6,2.6,1.8,2.2,3.8c-0.7,3.8,0.5,7.3,1.6,10.8c0.1,0.3,0.2,0.6,0.4,0.8c1.9,3.5,1.1,6.5-1.8,9.1c-0.5,0.5-1,1-1.4,1.7
	c-0.1,0.3,0.1,0.9,0.3,1.1c0.3,0.2,0.9,0.4,1.2,0.2c0.9-0.7,1.7-1.6,2.5-2.5c0.8-1,1.6-1.9,2.9-2.3c0.9,2.5-0.9,3.9-2.3,5.5
	c2.9,0,4.4-0.8,5.8-2.8c0.6-0.8,0.9-1.8,1.4-2.7c1.4-2.9,2.9-5.8,4.3-8.7c0.1-0.2,0.1-0.5,0.1-0.7c0,0,0,0,0-0.1c0,0,0,0,0,0
	c0,0,0,0,0,0c0.3,0.1,0.7,0.1,1,0.2c-0.3,0-0.7-0.1-1-0.1c0,0,0,0,0,0.1c1.2,3.3,0.8,6.6,0.2,10c-0.8,0.3-1.6,0.7-2.4,1
	c-0.5,0.3-1.2,0.6-1.4,1c-1.2,3.1-4,5-5.7,7.9c2,1,3.3-1.3,5.2-0.5c-0.4,1.2-1.5,1.6-2.3,2.3c-0.9,0.7-2.4,0.5-2.7,1.9
	c0.2,0.2,0.4,0.6,0.6,0.6c2.6-0.2,5.2-0.6,7.9-0.4c1.3,0.1,2.7-0.8,3.9-1.2c0.8,0.8,0.4,1.4,0.1,1.8c-0.3,0.4-1,0.7-1.5,0.7
	c-2.6,0-4.9,1-7.2,1.8c-0.9,0.3-1.5,0.8-1.6,2c1.1,1,2.6,0.3,3.7,0.8c1.2,0.5,2.5,0.8,3.8,1.3c0.8,0.3,1.6,0.8,2.3,1.3
	c0.2,0.1,0.3,0.6,0.2,0.8c-0.2,0.4-0.5,0.7-0.8,0.9c-0.2,0.1-0.6,0.1-0.9,0.1c-3.7-0.4-7.3-0.7-11-1.1c-0.8-0.1-1.6-0.5-2.4-0.7
	c0.1-0.9,0.2-1.6,0.3-2.2c-1.2-0.4-2.4-0.8-4.2-1.4c1.8-1,3-1.8,4.2-2.5c-0.3-0.3-2-1.2-1.9-1.2c-1.4-1.8-2.7-3.4-3.9-5
	c-0.4-0.5-0.8-0.9-1.1-1.4c-0.2-0.4-0.3-1-0.1-1.3c1.5-2.1-1.3-5.2,1.7-7.1c2-1.2,2.7-3.4,2.9-5.7c0-0.4-0.3-0.8-0.5-1.5
	c-0.6,0.8-1,1.6-1.6,2.1c-0.6,0.6-1.5,1-2.1,1.5c-0.6,0.5-1.1,1-1.5,1.6c-0.5,0.7-0.8,1.5-1.1,2.3c-3.2-0.4-6.3-0.7-9.2-1.2
	c-0.9-0.2-1.9-0.8-2.5-1.6c-1.9-2.4-3.5-4.9-5.4-7.7c-1.4,3.2,1.5,4.9,2.4,7.4c-0.7,0.2-1.2,0.4-1.6,0.4c-1.7-0.1-3.4-0.3-5.4-0.4
	c-0.4-1-0.8-2-1.2-3.1c-0.6-1.5-1.6-2-3.2-1.6c-0.5,0.8-0.9,1.8-1.6,2.5c-1.7,1.8-2.5,1.7-4.4,0c-0.3-0.3-0.6-0.7-1-0.9
	c-0.9-0.6-2-0.3-2.6,0.7c-0.7,1.3-1.4,2.6-2.2,3.8c-0.3,0.5-0.8,0.8-1.2,1.1c-2.2,0.4-3.5-1.7-5.6-1.9c-0.4,0.5-0.8,1-1.2,1.6
	c-0.2,0.4-0.2,0.9-0.2,1.3c0.1,2.2,0.7,4.5,0.1,6.5c-0.5,1.8-2.3,3.3-3.6,5.1c-0.5-0.3-1-0.5-1.4-0.9c-0.4-0.4-0.7-0.9-1.1-1.4
	c0.8-1,1.5-1.9,2.2-2.9c-0.3-0.6-0.4-1.2-0.8-1.6c-0.8-1-1.6-2.5-3.1-1.7c-1.4,0.7-0.3,2.1-0.4,3.2c0,0.1-0.1,0.2-0.2,0.4
	c-2.2-0.6-3.5-1.6-4.6-3.4c-1.8-2.9-3.5-5.8-5.4-8.6c-0.7-1.1-1.8-2-2.8-2.8c-2.6-2.2-5.2-4.2-7.9-6.3c-1.4-1.1-2.8-2.3-4.9-2.1
	C139.9,224.8,141.3,223.8,143,223.2z M230.6,232.7c0.3,0.2,1.2,0.1,1.5-0.2c0.8-0.9,1.5-2,2.3-3.2c1.6,0.5,1.8,1.6,1.9,2.8
	c-0.9,1.1-2,2.2-2.5,3.4c-0.5,1.2-0.6,2.5-2,3.4c-3.5-4.4-3.1-9.1-1.6-14.1c1.6,0.2,2.1,1.4,2.3,2.9c-0.9,1.3-1.7,2.3-2.3,3.4
	C229.9,231.5,230.2,232.4,230.6,232.7z M242.3,245.1c0.2,2.2,0.3,3.5,0.4,4.6c-1.2,1.9-3,1.1-4.8,1.5
	C238.8,248.8,240.2,247.3,242.3,245.1z M239.8,274c-0.9-0.1-1.3,0-1.5-0.1c-2.9-2.8-6.6-3.7-10.3-4.7c-1-0.3-2-0.6-2.8-1.1
	c-0.7-0.4-0.7-1.2-0.2-1.9c0.3-0.1,0.6-0.3,0.8-0.2c2,1.3,4.1,2.1,6.5,2.4c1.6,0.2,3.1,0.8,4.6,1.4C238.5,270.5,239.1,272,239.8,274
	z M218.9,264c-2.4,0.7-3,0.2-2.6-1.8c0.1-0.4,0.3-0.8,0.4-1.2c0.5-1.6-0.1-2.8-1.5-3.7c-0.7-0.5-1.4-0.8-2.2-1.3
	c2.7-1.7,4.9-1.3,5.8,1c0.5,1.2,0.8,2.5,1.3,3.9C218.2,262.4,218.2,262.4,218.9,264z M207.6,254c3.3-3.2,4.7-3.9,8.6-4.8
	c0.7,0.8,0.1,1.4-0.4,1.8C214.3,252.3,211.2,253.4,207.6,254z M207.1,248.9c-0.9,1.1-1.4,1.9-2.2,2.6c-0.5,0.5-1.4,0.8-1.9,0.2
	c-0.3-0.3-0.5-1.1-0.3-1.6C203.1,248,204.1,247.7,207.1,248.9z M199.6,247.1c-0.7,1.9-1.8,3-3.3,4.3c-0.9-2.1-0.3-3.5,0.4-5.2
	C197.6,246.5,198.5,246.7,199.6,247.1z M189.3,252.2c0-1.6,0-2.8,0-3.9c1.2-0.6,1.7,0.1,1.9,1C191.4,250.5,191.4,251.6,189.3,252.2z
	 M185.3,252.8c0,0-0.3,0.1-0.4,0c-0.8-0.2-0.7-0.8-0.8-1.4c0-0.6-0.1-1.1-0.1-2.4c0.8,1.1,1.4,1.5,1.5,2.1
	C185.8,251.7,185.5,252.3,185.3,252.8z M181.2,257c-1,0.7-1.5-0.2-2-0.9c0.3-1,0.9-1.5,1.9-1C181.6,255.4,181.7,256.7,181.2,257z
	 M177.6,263.2c-0.2,0.1-0.6,0.2-0.7,0c-0.6-0.6-1.2-1.2-1.8-1.9c1.6-0.7,2.3,0.1,2.8,1.1C177.9,262.7,177.8,263.1,177.6,263.2z
	 M164.1,278.7c-1.3,0.2-2.7,0.8-4.6,0.1c2.8-3.3,5.5-2.4,8.5-1.4C166.7,278.3,165.3,278.5,164.1,278.7z M164.8,283.2
	c-0.9,0.9-1.9,1.8-3.6,1.7c0.4-1.8,1.4-2.5,3-2.6c0.2,0,0.5,0.2,0.7,0.4C164.9,282.8,164.9,283.1,164.8,283.2z M160.4,291.5
	c2.1-2.1,3.8-4.7,7.4-4.9c-2,2.1-4.1,4.2-6.1,6.2c-0.2,0.2-0.9,0.1-1.1-0.1C160.4,292.4,160.2,291.7,160.4,291.5z M165.6,295.1
	c0-0.1,0.1-0.1,0.1-0.2c0,0,0,0,0-0.1c-0.4-1-0.3-1.8,0.8-2.4c0,1.2,0,1.2-0.8,2.4c0,0.1,0.1,0.1,0.1,0.2
	C165.8,295,165.7,295,165.6,295.1c-0.7,1.3-1,2.8-2.5,3.6C162.9,296.2,163.1,295.8,165.6,295.1z M165.6,304.7
	c0.2-1.6,0.5-3.1,0.9-4.7c0.3-1.4,1.2-2.3,3.1-2.1c0.4,2.2-0.4,4-0.7,5.8c-0.2,1.1-0.6,1.2-2.9,2.2
	C165.8,305.5,165.5,305.1,165.6,304.7z M164.2,271.2c3.5-1.5,5,0.4,7.4,1.7C168.5,273.6,166.9,272.2,164.2,271.2z M169.7,266.3
	c1.9-0.7,3.1-0.6,4.1,0.6c0.1,0.1,0.1,0.3,0.1,0.4c-0.1,0.2-0.3,0.5-0.5,0.6C172,268.1,171.1,267.4,169.7,266.3z M131.5,237.5
	c0.1,0.1,0.2,0.2,0.2,0.3c0,0.1-0.1,0.2-0.2,0.3C131.4,238,131.5,237.7,131.5,237.5z M141.6,309.6c-0.3,0-0.5-0.6-0.9-1.2
	c4.3-1.8,8.3-3.8,12.8-5c-0.2-1.1-1.2-0.9-1.7-0.8c-1.8,0.1-3.5,0.3-5.2,0.6c-2.9,0.4-5.8,0.9-8.8,1.1c-1.4,0.1-2.9-0.2-4.3-0.6
	c-0.8-0.2-1.5-1-1.1-2.3c2.9,0,6,1,9-0.4c2.1-1,4.1-2.1,6.1-3.2c-0.5-1.2-1.3-1-2-1c-4,0.4-7.9,0.8-11.9,0.2
	c-0.5-0.1-1.1,0.4-1.6,0.5c-1.8,0.2-2.4-0.2-3.3-2.6c1.8,0,3.5,0.2,5.2,0c1.7-0.2,3.4-0.8,5.1-1.2c1.7-0.4,3.4-0.9,5.4-1.5
	c-2-0.9-3.8-1.1-5.7-1.2c-3.5-0.1-7-0.2-10.5-0.5c-2-0.2-3.7-1.1-4-3.8c3.3,0.8,6.4,2,9.8,1.9c3.3-0.1,6.5-1,9.9-1.5
	c-0.7-1.5-1.9-1.3-2.8-1.3c-4,0-7.9-1.1-11.7-2.1c-1.8-0.5-3.7-0.7-5.9-1.1c-0.9-1-1-2.3-0.3-4.1c1.4,0.7,2.6,1.3,3.6,2
	c4.4,3.1,9,3.3,13.8,1.1c0.5-0.2,1.1-0.4,2.1-0.8c-0.9-0.5-1.4-0.9-2-1c-1-0.3-2-0.4-3-0.5c-4-0.5-7.8-1.6-11.2-3.7
	c-0.7-0.4-1.6-0.6-2.7-1c-1.1-2.9-0.1-6.2-1.2-9.1c0.8-1.1,1.7-1.1,2.5-0.6c1.8,1.1,3.5,2.2,5.1,3.4c3.4,2.5,7.2,4,11.3,4.7
	c2.9,0.5,5.8,0.7,8.8,1.1c0.2,0,0.4-0.3,0.7-0.5c0.2-0.9-0.4-1.4-1-1.7c-1.9-0.9-3.8-1.7-5.7-2.3c-3.6-1.2-7.3-2.3-10.4-4.7
	c-0.9-0.7-2.1-0.9-3.3-1.3c-1.1-0.4-2.3-0.6-3.4-0.9c-3.6-1-3.8-1.3-3.7-4.8c0-0.4,0-0.9,0.1-1.3c0.1-0.3,0.3-0.5,0.5-1
	c0.4,0,1.1-0.2,1.5,0c2,1.2,4.3,2.2,5.9,3.8c4.1,3.9,9.1,6,14.4,7.3c2,0.5,4,0.8,6.6,1.2c-0.7-1-0.9-1.5-1.3-1.8
	c-2.6-2.4-5.6-4.2-8.9-5.6c-2.3-1-4.4-2.4-6.5-3.7c-1-0.6-2-0.8-3.3-0.9c-2.6-0.1-5.1-0.8-7.8-1.3c0-2.4,0.1-4.3,2.7-5.4
	c3.2,1.5,7.1,2.2,9.6,5.5c0.6,0.8,1.7,1.2,2.6,1.7c2,1.2,4.1,2.3,6.1,3.5c2.7,1.6,5.7,2.2,8.6,2.8c1.1-1.1,0.3-2-0.2-2.5
	c-1.4-1.3-2.9-2.5-4.4-3.6c-2.8-1.9-5.6-3.8-8.5-5.4c-2.4-1.3-5.1-2.2-7.7-3.1c-0.6-0.2-1.5,0.1-2.2,0.1c-2.7-0.1-3.9-1.8-3.2-4.5
	c0.2-0.7,0.7-1.3,1.1-2.1c0.9,0.2,1.8,0.2,2.6,0.6c3.3,1.4,6.2,3.2,8.7,5.8c2.7,2.7,5.9,4.8,9.5,6.4c2.5,1.1,5.1,2.3,7.6,3.5
	c0,0,0,0,0,0c0,0-0.1-0.1-0.1-0.1c0,0,0.1,0,0.1,0c-0.1-0.5,0-1.4-0.2-1.5c-1.9-0.6-2.5-2.4-3.5-3.7c-3.1-3.9-7-6.6-11.4-8.8
	c-2.4,0.7-4.1-1.5-6.2-1.7c-0.8-0.1-1.7-0.6-2.4-1c-0.9-0.5-1.3-1.8-0.8-2.7c0.5-0.9,1.3-1.3,2.2-0.9c2.3,1,4.6,2,6.7,3.3
	c2.9,1.8,5.6,3.9,8.3,5.8c0.5,0.3,1,0.5,2.1,1.1c-0.8-1.8-1.2-3.1-1.9-4c-2.3-3-4.6-6-7.7-8.4c-1.6-1.2-3.2-2-5.2-2
	c-1.2,0-2.4-0.1-3.2-1.4c1.2-0.9,2.5-1.9,3.7-2.8c2.2,0.2,4.1,1,5.7,2.4c0.8,0.7,1.6,1.2,2.5,1.8c2.6,1.6,4.3,3.9,5.4,6.8
	c1.1,2.9,2.5,5.6,3.8,8.5c4.6,0.9,8.2,3.4,11.4,6.5c0.7,0.7,0.8,1.8,1.3,2.9c-1.9,1.2-3.6,2.2-5.7,2.6c-1.6-0.8-3.3-1.7-5-2.5
	c0,0,0,0,0,0c2.3,2.2,4.6,4.4,7,6.7c-0.7,0.7-1.4,1.2-1.9,1.9c-0.4,0.7-0.5,1.6-0.8,2.3c-0.5,0.1-0.7,0.3-1,0.2
	c-4.1-0.2-4.1-0.2-4.4,3.9c-0.5,0.2-1,0.4-1.6,0.6c-0.4,0.2-0.8,0.3-1.3,0.5c-0.1,0.6,0,1.5-0.4,1.9c-0.4,0.5-1.3,0.6-2,0.7
	c-0.6,0.1-1.2-0.1-1.7-0.2c-3.7-0.8-7.5-1.5-11.2-2.6c-3-0.8-5.8-2.2-8.3-4c-1.3-1-2.7-1.9-4.7-0.8c1.5,3.3,3.4,6,7.1,7.2
	c2.6,0.8,5.1,1.2,7.8,1.3c2.6,0.1,5.3,0.2,7.9,0.7c2.2,0.4,4-0.6,6.3-0.7c1,0.9,2.1,1.9,3.4,3c-1,0.5-1.7,0.9-2.6,1.5
	c1.2,3.1,0.9,6.6,1.5,9.8c0.5,3.3,1.1,6.9,4.3,9.2c-1.5,0.6-2.7,1-3.9,1.5c1.1,2,3.2,0.5,4.3,1.7c0,0.2,0,0.4-0.1,0.4
	c-4.1,1.4-8.2,3.2-12.6,3.6c-1.3,0.1-2.6,0.4-3.8,1C143.7,309.9,142.5,309.7,141.6,309.6z M151.7,314.4c-1.5,1-2.8,0.6-3.9-0.6
	c-0.1-0.1,0-0.5,0.1-0.9c3.3-0.8,6.1-2.7,8.8-4.7c0.6-0.4,1.2-0.9,1.8-1.2c0.7-0.4,1.6-0.4,1.9,0.4c0.2,0.5-0.2,1.7-0.6,1.9
	c-1.9,0.6-3.3,1.8-4.8,3C153.9,313.1,152.8,313.7,151.7,314.4z M163.3,325.1c-1.9,0.9-2.9-0.2-4.3-1.3c2.3-3.1,5.1-5.7,5.7-9.9
	c-2.5-0.1-3.8,1.6-5.4,2.8c-1.2,0.9-2.2,1.9-3.4,2.8c-0.3,0.2-0.8,0.1-1.4,0.1c0.2-0.6,0.2-1,0.4-1.2c1.7-1.6,3.1-3.4,4.4-5.4
	c1.6-2.5,4-3.7,7.2-2.9c1.9,0.5,4,0.6,6,1c0,0,0,0,0,0c-0.2-0.1-0.5-0.3-0.6-0.5c-0.2-0.5-0.3-1-0.4-1.5c0,0,0.2-0.1,0.3-0.1
	c0.2,0.4,0.4,0.9,0.5,1.3c0.1,0.2,0.1,0.5,0.1,0.7c0,0,0,0,0,0c0,0,0,0,0,0c0,0,0,0,0,0c-1.7,1.1-3,2.6-4.1,4.4
	c-0.7,1.3-1.5,2.6-2.5,3.6C164.3,320.8,163,322.6,163.3,325.1z M171.1,325.7c-1.1,2.7-1.1,2.8-4.8,1.3c1.6-1.9,3.4-3.4,4.4-5.2
	c0.9-1.7,1-3.9,1.4-5.9c0.8-3.3,2.1-4.3,5.7-3.8c-0.4,0.8-0.7,1.7-1.2,2.3C173.8,317.7,172.7,321.8,171.1,325.7z M175.5,296.4
	c0.1,3.8,0.2,7,0.2,10.5c-3-0.6-2.6-3.2-2.8-4.9C172.6,300.2,173.1,298.1,175.5,296.4z M182,316c-1.5,1.7-2.1,3.8-2.4,6
	c-0.1,1.3-0.3,2.6-0.5,3.9c-0.2,1.2-0.8,2.2-1.9,2.8c-0.7,0.4-1.3,0.4-2.2-0.1c0.9-2.1,1.7-4.1,2.6-6c0.7-1.5,1.2-2.9,1.1-4.6
	c-0.1-1.9,0.7-3.4,2.1-4.6c0.4-0.3,1.2,0,2.2,0C182.7,314.4,182.5,315.4,182,316z M182.1,307.2c0.1,0.3-0.2,0.8-0.5,1.9
	c-3.1-2.5-2.7-5.2-2.3-8c1.2-0.2,1.8,0.6,1.7,1.1C180.9,304,181.6,305.5,182.1,307.2z M187.5,313.6c-1.4,4.1-2.2,8.2-1.4,12.5
	c0.1,0.7-0.1,0.9-1.8,2.3c-0.3-0.3-0.8-0.6-0.7-0.9c0.1-4.4,0-8.8,1.5-13c0.3-0.9,0.6-2,2-2.1C187.2,312.9,187.6,313.3,187.5,313.6z
	 M191.4,325.9c-0.9-3.5-2.4-6.6-2.2-10c0.3-0.1,0.6-0.3,0.9-0.4c0.3,0.4,1,0.9,0.9,1.3c-0.1,1.7,0.5,3.1,1.2,4.5
	C193.1,323.2,192.9,323.5,191.4,325.9z M259,296.9c0.3,2.5,0.7,4.9,0,7.4c-0.9,3.3-2.7,6-5.1,8.6c-6,6.5-12.9,12-21.5,16.3
	c-0.9-0.8-1.8-1.7-2.9-2.4c-0.2-0.2-0.9,0-1.2,0.2c-0.3,0.2-0.5,0.9-0.3,1.1c0.4,0.9,1.1,1.7,1.6,2.5c-3.5,2.6-7.5,2.9-11.5,3.5
	c-0.7-0.7-1.5-1.4-2.1-2.2c-1.6-2.1-2.3-4.2-1.6-7c0.8-2.8,1.3-5.6,2.8-8.2c1.1-1.8,2.3-3,4.2-3.7c-0.5,0.9-0.8,1.9-1.4,2.6
	c-2.1,2.4-2.9,5.2-3.3,8.3c0,0.3,0.2,0.7,0.4,1.3c0.8-0.8,1.5-1.5,2.1-2.1c0,0-0.1-0.1-0.1-0.1c0,0,0.1-0.1,0.1-0.1
	c0-0.3,0.1-0.7,0.1-1c0-0.1,0.2-0.2,0.3-0.3c0.1,0.2,0.4,0.6,0.3,0.6c-0.2,0.2-0.5,0.4-0.7,0.6c0,0.1,0,0.1,0,0.2c0,0,0,0,0,0
	c0.5,0.6,1,1.2,1.5,1.8c1.1-0.9,2-1.6,2.8-2.4c0.2-0.2,0.2-0.5,0.3-0.9c-0.6-0.7-1.3-1.4-1.9-2.1c0.4-1.1,1.1-1.1,1.8-0.6
	c0.8,0.6,1.3,1.6,2.2,2.1c0.5,0.3,1.4,0,1.9-0.4c0.7-0.4,0.4-1.8-0.5-2.2c-1-0.5-2.1-0.8-3.1-1.2c-0.1-1.2,0.5-2.2,1.3-1.9
	c2,0.9,4-0.8,5.9,0.3c0.2,0.1,0.8-0.3,1-0.6c0.2-0.3,0.1-0.9-0.1-1.2c-0.5-0.8-1.2-1.3-2.2-1.2c-0.5,0.1-1.1,0.2-1.7,0.3
	c1-2.1,2.6-2.2,4.2-1.9c0.4-1.9,1.1-3.3,2.9-3.5c-0.7-1.8-1.5-3.5-4.1-2.7c-0.1,0.3-0.4,0.7-0.5,1.1c-0.7,2.7-0.6,2.7-3.2,2.7
	c-0.7,0-1.3,0.2-2,0.4c0,0.9-0.1,1.9-0.2,3.1c-1.3,0.2-2.6,0.4-3.9,0.6c0.5-2.2,1.9-3.4,4.1-3.8c0,0,0,0.1,0,0.1c0,0,0,0,0,0
	c0,0,0,0,0,0c0.4-0.9,0.8-1.8,1.7-2.4c2.3-1.6,4.5-3.3,6.8-4.8c4.8-3.2,10.1-5.5,15.8-6.7c2-0.4,4.1-0.2,6.2-0.1
	C257.9,294.7,258.8,295.7,259,296.9z M249.4,288.5c0.7,0.4,1.7,0.3,2.5,0.4c1.2,0,1.9,0.5,2.4,1.9c-0.5,0.1-1,0.4-1.6,0.4
	c-1.6,0.1-3.2,0.2-4.8,0.2c-4,0-7.2,2-10.7,3.7c-5.7,2.8-11,6.4-15.6,10.6c-4.3,3.8-7.5,8.7-9.2,14.3c-0.1,0.4-0.3,0.8-0.4,1.2
	c0,0.1-0.2,0.1-0.4,0.2c-2.1-1.4-4.2-3-6.5-4.2c-2.3-1.3-3.3-4.2-6.1-4.7c-0.7,1,0,1.4,0.5,1.9c3.8,3.3,6.8,7.4,9.9,11.2
	c1.2,1.5,1.7,3,1.5,4.9c0,0.2-0.4,0.4-0.8,0.8c-0.7-1.3-1.2-2.6-1.9-3.9c-0.6-1.2-1.3-2.3-2.1-3.4c-0.7-1-1.3-2-2.2-2.7
	c-1.7-1.4-3.1-3.1-4.2-5.1c-1.5-3-4.4-4.7-6.6-7c-0.8-0.9-1.8-1.5-2.6-2.3c-0.7-0.7-1.3-1.6-1.8-2.4c-0.4-0.7-0.3-1.5,0.5-1.9
	c0.4-0.2,1.1,0,1.6,0.3c0.4,0.2,0.6,0.6,0.9,0.9c1.8,2.3,1.8,2.3,5.1,3.5c0.3-0.7,0.6-1.5,1-2.4c1.8,2,3.6,3.9,5.4,5.9
	c0.8,0.9,1.6,1.6,3,1.5c0.8,0,1.6,0.5,2.3,0.9c1,0.6,1.8,1.5,2.7,2.2c1.1-0.6,1.5-1.3,0.8-2.5c-0.1-0.1-0.2-0.3-0.3-0.3
	c-5.6-3.1-8.7-9.1-14.4-12.5c-0.5-0.3-1.9,0.6-3.2,1.1c-0.5-0.4-1.2-0.9-2-1.6c0.3-1.3,0.6-2.5,0.9-3.8c-0.8-1.5-1.9-2.6-3.6-2.9
	c-1.5-0.3-2.8-2-4.7-0.6c0.9,2.6,3.6,3.5,6,5.6c-1.2-0.1-1.9,0.1-2.5-0.2c-1.6-0.8-3.1-1.7-4.6-2.5c-0.4-0.2-0.8-0.7-1.1-0.6
	c-2.7,1-3.6-1.6-5.4-2.5c0,0,0-0.1,0-0.1c0,0,0,0.1-0.1,0.1c0,0,0,0,0,0l0,0l0.1,0.1c-1.8-0.9-3.6-1.9-5.7-3
	c-0.1-0.6-0.2-1.4-0.2-2.3c-0.1-1.5,0.2-3.1-0.3-4.3c-1-2.2-0.5-4.1,0.5-5.8c2.3-3.9,3.9-8.2,7.5-11.3c1.2-1,2.1-2.4,3-3.8
	c0.5-0.8,0.5-1.9,0.7-3c1.5-1,3.1-2.1,4.7-3c0.9-0.5,1.8-0.9,2.8-1.2c0.8-0.3,1.8-0.1,2.6-0.5c3.7-1.8,7-0.9,10.3,1.2
	c0.6,0.4,1.4,0.3,2.1,0.6c1.2,0.6,2,1.5,1.7,3.4c-0.8-0.2-1.3-0.3-1.7-0.6c-1.7-1.3-3.7-0.6-5.5-0.8c-0.1,0-0.3,0-0.4,0.1
	c-2.3,2.2-5.5,2.5-8,4.2c-1.3,0.9-1.7,2.2-1.1,3.9c1.4-1.1,2.6-2,3.9-2.9c1.3-0.9,2.9-0.2,4.3-0.4c1-0.1,1.4-0.8,1.8-1.7
	c0.9-1.7,2-2,3.4-0.8c0.9,0.7,1.7,1.6,2.8,2.5c0.9-0.4,1.8-0.8,2.9-1.3c4.2,3.8,9,6.8,14,9.7c3.2,1.8,6,4.2,9,6.3
	c1.2,0.8,2.4,1.7,3.7,2.3c2.3,1.1,4.3,2.4,6.2,4.1C244.2,285.7,246.9,287.1,249.4,288.5z M249.5,237.5c-0.2,1-0.6,2-0.7,3
	c-0.1,0.8,0.2,1.6,0.4,2.9c-1.2-1.1-2-1.8-2.9-2.5c-0.5-3.8-0.5-3.8,0.3-6c0.4-0.1,0.8-0.2,1.3-0.2c1.1-0.1,1.6,0.5,1.7,1.6
	C249.6,236.6,249.6,237.1,249.5,237.5z M249.6,232.4c-0.1,0.1-0.3,0.1-0.4,0.1c-0.2-0.2-0.4-0.4-0.4-0.6c0-0.7,0.8-1.6,1.1-1.3
	c0.2,0.1,0.2,0.5,0.3,0.8C250,231.8,249.8,232.1,249.6,232.4z M249.5,222.4c1.4,2.4,0.9,4.2-1,5.9c-1.1,0.9-0.5,2.2-0.9,3.3
	c-0.2,0.5-0.6,1.1-1.1,1.2c-0.4,0.1-1-0.4-1.4-0.8c-0.3-0.3-0.4-0.8-0.6-1.2c0.5-1.1,1.2-2.2,1.6-3.4c0.4-1.1,0.5-2.3,0.7-3.5
	c1.2-5.7,1.2-11.4,0.1-17.1c-0.4-1.8-0.3-3.7-0.4-5.6c-1.9-0.4-2.9,0.4-3.1,1.9c-0.3,2.2-0.8,4.4-0.6,6.6c0.6,5.7-0.6,11.1-2,16.5
	c-0.1,0.6-0.2,1.1-0.3,1.7c-1.9-1-1.9-1-3.1-3.1c0.7-1.1,1.9-2,1.8-3.7c-0.1-1.3,0.1-2.7-0.1-4c-0.7-4.7-0.8-9.4-0.7-14.1
	c0-0.3-0.2-0.5-0.4-1c-3,2.4-3.4,5.8-3.9,9c-0.5,3.1-0.3,6.4-0.4,9.5c-1.5,0.4-2.2-0.3-3.3-1.2c0.3-3,0.7-6.2,1-9.3
	c0.2-3.2,0.3-6.3,0.6-9.3c-1.3-0.5-1.6,0.1-1.8,0.6c-1.6,3.2-2.5,6.6-3.1,10.1c-0.2,1.4-0.5,2.9-0.8,4.3c-0.7-0.1-1.1,0-1.5-0.2
	c-1.1-0.4-2.1-0.9-3.4-1.5c2.3-3.8,2.9-8,3.6-12.2c0.2-1,0.2-2.1,0.6-3c1.2-2.3,0.5-4.5,0.1-7.3c-0.8,0.8-1.2,1.1-1.5,1.5
	c-1.9,3-3.4,6.2-4,9.7c-0.6,3.5-1.5,6.9-2.3,10.3c-1.3,0.3-2.6,0.4-3.9-0.6c0.4-3.6,1.4-7.1,2.8-10.5c0.8-2.1,1.3-4.2,1.6-6.4
	c0.6-4.3,2.2-8.2,4.7-11.7c1.3-1.8,2.7-3.5,4.1-5.2c-0.9,0.5-2,0.8-2.7,1.4c-2.6,2.5-4.8,5.1-6.3,8.4c-1.9,4.2-4.1,8.2-6,12.3
	c-1.5,3.3-2.7,6.8-3,10.5c-2.3,0.1-2.7-0.3-2.4-1.9c1.2-7.2,4.2-13.8,7-20.4c0.5-1.1,1-2.2,1.7-3.1c4.9-5.7,9.6-11.6,16.7-14.8
	c0.4-0.2,0.8-0.2,1.9-0.3c-1.5,1.6-2.7,2.8-3.8,4c-0.9,1.1-1.8,2.3-2.6,3.5c2.1-0.6,3.6-2,5-3.5c1-1.1,1.9-2.2,3.6-2.6
	c0.2,0.6,0.4,1.1,0.6,1.8c1.3-0.8,2.5-1.7,4.1-2.6c0.3,2.2-1.7,3-1.9,4.6c0.8,0.8,1.3,0.1,1.7-0.4c1.1-1.3,1.6-3.1,3.2-4
	c0.8,0.5,0.4,1,0.2,1.5c-0.9,1.7-1.9,3.3-2.7,5c-0.3,0.6-0.1,1.3-0.2,2.6c2.2-2.7,2.9-5.4,5.4-7.9c0,2.1,0,3.5,0,5.6
	c2.4-2.6,1.3-6,3.9-7.9c1.3,2.8-1,5.9,0.4,8.9c1.7-1.8,0.4-3.9,1.3-5.5c0.9-1.5,1.2-3.2,1.9-5.1c0.4,0.3,1,0.5,1.2,0.9
	c1.6,3.5,3.3,6.9,4.6,10.5c0.8,2,0.9,4.3,1.4,6.4c0.4,1.7,1,3.4,1.6,5c0.8,2.4,1.9,4.7,1.7,7.2c-0.2,2.3,0.1,4.4,2.1,5.8
	c-1,1.4-2,2.4-3.9,2.6c-0.8-1-0.6-2.2-0.5-3.3c0.3-4.7-1.4-9-2.5-13.3c-0.2-0.9-1.1-1.7-1.7-2.6c0.5,1.9,0.3,3.8-0.5,5.6
	c-0.8,1.7-0.6,3.4-0.5,5.2c0.3,2.8,0.4,5.6,0.6,8.8c0.8,0.5,2,1.1,3.1,1.7c-1.7,3.2-2.7,6.8-5.6,9.3c-1.2-1.9-1.4-2.6-0.1-4
	c1.3-1.4,1.5-2.8,1.1-4.4c-0.9-3.6-2-7.1-3-10.6c-0.1-0.3-0.7-0.8-1-0.7c-0.5,0.1-1.4,0.3-1.5,0.7c-0.3,0.9-0.5,2-0.4,3
	c0.6,4.7,0.6,9.3,0.3,14c-0.1,0.9,0,1.7-0.9,2.4C248.9,219.8,248.9,221.3,249.5,222.4z M253,245.2c-0.7,2.3-1.5,4.6-2.3,7.2
	c-0.4-3.4-0.3-6.4,0.7-9.4c0.1-0.3,0.7-0.6,1-0.5c0.3,0.1,0.6,0.5,0.7,0.9C253.1,244,253.1,244.7,253,245.2z M264.8,337.9
	c-0.8,0.9-0.9,2.5-1.3,3.7c-0.3,1.1-0.5,2.2-1.2,3.7c-1.1-1.7-0.9-3.2-0.5-4.5c0.9-3.1,2-6.2,3-9.2c0.4-1.3,1.1-2.4,1.3-3.7
	c1.4-6.7,4.6-12.7,6.2-19.3c0.1-0.2,0.3-0.4,0.8-1c0.1,0.8,0.2,1.3,0.1,1.7c-1.5,5.7-2.5,11.5-4.6,17c-0.5,1.4-0.8,2.8-1.1,4.3
	C267.1,333.2,266.6,335.8,264.8,337.9z M273.3,304.5c0.1-4.3,0.9-8.6,1.7-13.8c0.8,1,1.3,1.3,1.3,1.6c0,4.4-1.1,8.5-2.3,13.1
	C273.6,304.8,273.3,304.6,273.3,304.5z M268.1,345.6c-0.1,1.3-0.1,2.7-0.3,3.9c-0.1,0.4-0.7,0.7-1.3,1.2c-0.8-3.2-0.4-5.9,0.2-8.6
	c1.1-5.6,3-11,4.7-16.5c2.6-8.3,4.8-16.7,7.9-24.8c0.4-0.9,0.3-2,0.6-3c0.2-0.9,0.6-1.8,1.1-3.2c0.5,2.3-0.2,4-0.4,5.7
	c-1.4,9.6-3.8,19-6.7,28.3c-0.6,2.1-1.2,4.2-1.9,6.3c-0.3,1-0.5,2.1-1.2,2.8C268.8,340.1,268.4,342.9,268.1,345.6z M276.7,342.5
	c-0.6,2.4-1.4,4.8-2.3,7.1c-0.2,0.4-0.8,0.9-1.3,0.9c-0.9,0.1-1.3-0.5-1.4-1.4c-0.3-3.4,0.4-6.7,1.3-10c2.3-8,5.1-15.9,7-24.1
	c0.3-1.1,0.8-2.2,1.1-3.3c0.4-1.4,0.8-2.8,1.1-4.2c0.4-1.4,0.6-2.9,1-4.3c0.7-2.4,1.4-4.7,2.2-7.3c0.3,0.2,0.7,0.4,0.7,0.6
	c-0.2,2.9-0.2,5.8-1,8.7c-0.8,2.8-1,5.7-1.5,8.6c-0.1,0.9-0.3,1.7-0.5,2.6C281.1,325.2,279,333.9,276.7,342.5z M280.1,352
	c-0.5-2.3-0.1-4.1,0.4-5.8c1.1-3.4,1.1-6.9,1.5-10.4c0.5-4.8,0.8-9.7,1.8-14.4c1.3-6.2,3.2-12.2,5.9-17.9c0.3-0.7,0.7-1.3,1.1-1.9
	c0.1-0.2,0.5-0.2,1-0.4c-1,4.7-1.7,9.3-3.4,13.7c-0.9,2.2-1.3,4.5-1.6,6.8c-0.7,4.5-1.1,9-2,13.5c-1,4.9-2.3,9.7-3.5,14.6
	C281.1,350.4,280.6,351,280.1,352z M302.7,353.6c-0.1,0-0.3-0.1-0.4-0.2c-0.7-0.8-0.4-1.3,1.6-2.8
	C304,352.9,303.7,353.6,302.7,353.6z M314.7,310.4c-0.3,1-0.5,2-0.4,3c0.7,4.7-0.3,9.1-1.6,13.5c-0.6,2.1-1.1,4.3-1.1,6.5
	c0,4.1-1.7,7.7-2.4,11.6c-0.1,0.3-0.5,0.6-1.3,1.5c0.7-2.7,1.2-4.6,1.6-6.6c0.5-2.3-0.2-4.2-2.1-6.2c-2.7,4.6-3.5,9.2-3.3,14.1
	c-1.3-0.1-1.6-1-1.4-1.6c0.7-2.2-0.1-4.4,0.1-6.5c0.2-2.5-0.8-4.7-1.5-7.5c-0.9,0.7-1.6,1-2,1.6c-0.4,0.6-0.6,1.4-0.7,2.1
	c-0.7,4.1-1.4,8.1-2.2,12.2c-0.4,2.3-0.8,4.6-2.3,6.5c-0.1-1.6,0.2-3.1,0.3-4.6c0.4-4.4,0.8-8.8,1-13.2c0.1-1.4-0.1-3-0.4-4.4
	c-0.2-0.7-1-1.3-1.9-2.5c-1.7,3.4-2.4,6.2-3,9.1c-1,4.9-1.6,10-2.4,15c-0.5,0-1-0.1-1.6-0.3c0.7-2.3,1.2-4.7,1.3-7
	c0.2-3.8-0.1-7.7-0.1-11.5c0-2.5-0.2-5.1,0.4-7.5c1.4-6.3,2.1-12.8,5.2-18.7c1.2-2.2,2.4-4.4,3.6-6.5c0.2-0.4,0.7-0.6,1.4-1.1
	c0,1,0.1,1.6,0,2.2c-0.6,3.5-1.3,6.9-2,10.4c-0.1,0.6-0.2,1.2-0.1,1.8c0,0.4,0.4,1,0.6,1c0.5-0.1,1.3-0.3,1.4-0.7
	c0.5-1.2,0.8-2.5,1.1-3.8c0.5-2,1-4,1.5-6c0.4-1.5,1.3-2.5,3-3c0.3,3.8-0.6,7.2-1.2,10.7c-0.1,0.7-0.3,1.5-0.2,2.1
	c0.1,0.3,1.2,0.7,1.3,0.6c0.9-0.9,1.8-1.9,2.4-3.1c1.4-2.5,2.7-5,4.1-7.8c0.2,1.4,0.5,2.4,0.4,3.4c0,1-0.5,2-0.7,3
	c-0.1,0.7-0.3,1.5-0.3,2.2c0,3.4-0.3,6.8-1.2,10.1c-0.1,0.4,0.2,1,0.6,2.1c1.1-3.9,1.9-7.1,2.8-10.3c1-3.4,1.6-6.8,3.3-9.9
	c0.2-0.4,0-1.3,1.2-0.8C315.8,307.1,315.2,308.7,314.7,310.4z M321,317.8c-0.1,0-0.2-0.1-0.3-0.1c0.1-0.1,0.1-0.3,0.2-0.4
	c0.1,0,0.2,0.1,0.3,0.1C321.1,317.6,321.1,317.7,321,317.8z M321.5,311.7c-0.7,0.1-1.3,0.2-2.2,0.2c0,2.1,0.2,4,0,5.9
	c-0.3,3.2-0.8,6.4-1.5,9.6c-0.5,2.3,0.2,4,1.7,5.3c-0.6,2.9-1.1,5.5-1.7,8.1c-1.3-0.2-1.9-0.7-2-1.7c-0.1-1.3,0.1-2.7-0.2-4
	c-1.2-6,0.3-11.7,1.7-17.4c0.5-2,1-4,1.2-6c0.2-2.8,0.9-5.4,2.3-7.7l0.8,4.8C321.6,309.7,321.9,310.8,321.5,311.7z M357.7,287.4
	c-0.1-1.7,0.3-2.7,1.7-4C359.5,285.4,359.2,286.5,357.7,287.4z M372.2,274.2c-0.5,1.1-1.3,2.3-3,2.5c-0.4-3.1,1.5-5.5,2-8.8
	c1,0.8,1.9,1.3,1.9,1.6C372.9,271.2,372.7,272.8,372.2,274.2z M377.7,254.6c-1.3,1-2.9-0.5-4.4,0.5c0,1.5-0.1,3.1-0.1,4.8
	c-1.7-2.8-2.3-5.8-2.4-8.8c-0.1-3.8-0.8-7.3-3.2-10.3c-0.7-0.9-1-2.1-1.5-3.1c-0.1-0.2-0.6-0.4-0.8-0.3c-0.4,0.2-0.9,0.6-0.9,0.8
	c0.3,2.5,0.3,5,1.5,7.3c0.7,1.5,1.3,2.9,1.3,4.6c0,0.7,0.2,1.6,0.7,2c1.4,1.2,1.6,3,1.7,4.4c0.1,2.5,1.1,4.5,2.6,6.3
	c-1.6,1.9-2.1-1.1-3.6-0.5c-0.7,1.4-1.4,2.8-1.7,4.6c-0.4,2.3-1.4,4.5-2.2,6.7c-0.6,1.6-1.4,3.2-2.1,4.8c-0.6,1.4-1.4,2.6-3.3,3.1
	c0-0.8-0.2-1.6,0-2.2c0.4-0.9,0.9-1.9,1.6-2.6c1.3-1.2,1.6-2.7,1.8-4.3c0.3-2.9,1-5.8,1.6-8.7c0.3-1.3,0.7-2.6,0.9-3.9
	c0.4-3.1,0.5-6.1-1.1-9c-1.2-2-2-4.2-2.1-6.7c-0.2-2.6-1.9-4.6-3.3-6.7c-0.8-1.2-1.8-2.3-2.9-3.3c-2.1-1.9-3.7-4.2-5-6.7
	c-0.4-0.8-0.8-1.6-1.4-2.2c-0.8-0.8-1.7-1.1-2.9-0.1c0.7,1.6,1.1,3.5,2.3,5c1.7,2.2,3.1,4.6,4.8,6.9c2.4,3.2,4.2,6.6,5.5,10.4
	c0.9,2.6,2,5.2,2.2,8c0.1,1.1,0.1,2.3,0,3.5c-0.1,1-0.5,2-0.6,3c-0.1,0.8,0.1,1.7,0.1,2.6c-0.9-0.2-1.6-0.4-2.6-0.7
	c0,0.6-0.2,1.2,0,1.6c1.1,2.6,0.9,5.2-0.2,7.7c-0.8,1.8-1.5,3.5-0.2,5.6c-2.9,1.3-4.1,3.7-5.4,5.9c-1.7,2.7-3.5,5.4-5.4,8.1
	c-0.5,0.7-1.1,1.2-2,2c-0.2-0.8-0.5-1.2-0.4-1.5c1.3-3.3,2.5-6.6,5.3-9.1c1.5-1.4,2.2-3.1,2.2-5.5c-0.1-2.9,0.9-5.8,1.4-8.7
	c0.2-0.9,0.1-1.8-1.2-2.4c-1.2,1.4-2.5,2.7-3.5,4.3c-0.4,0.7,0,1.9,0.1,3.2c0.7-0.5,1.2-0.8,1.6-1.1c0.2,0.2,0.5,0.4,0.5,0.5
	c-0.1,1.1-0.3,2.3-0.5,3.3c-1.4,0.6-2.8,0.6-3.3,2.2c-0.5,1.9-2.1,3.2-3.5,4.4c-1.2,1-1.9,2-1.9,3.7c-0.1,3-2.3,4.8-4.4,6.7
	c-0.9-2,0-3.6,1.1-4.7c1.9-2,2.3-4.3,2.6-6.8c0.1-1.3,0.6-2.5,1.2-3.7c1.3-3,3-5.8,3.8-8.8c1.5-5.7,2.4-11.5,1-17.4
	c-1.1-4.6-2-9.2-2.5-13.9c-0.3-3.5-1.9-6.6-4.7-9.9c0.5,3.8,1.2,6.8,2.3,9.7c0.7,1.7,1.2,3.3,0.7,5.1c-0.5,2.1,0.4,4.2-0.3,6.4
	c-0.6,1.8-0.1,4.1-0.1,6.1c0,2.2,0,4.4,0,6.6c0,0.6,0,1.2,0.2,1.7c1.2,2.9,0,5.4-1.2,8c-0.3,0.7-0.7,1.3-0.9,2
	c-0.3,1.3,0,2.9-0.8,3.8c-1.8,2.2-2.6,4.9-4.4,7c-0.2,0.3-0.8,0.2-1.2,0.3c0,0,0,0.1,0,0.1c0,0-0.1,0-0.1,0.1
	c-0.6,3.7-2.4,6.8-5.2,9.3c-0.2,0.2-0.6,0.1-1,0.1c0,0,0,0.1-0.1,0.1c0,0.1-0.1,0.2-0.1,0.3c0,0.2,0,0.4,0,0.6
	c-0.1-0.1-0.2-0.1-0.2-0.2c0-0.2,0.1-0.3,0.2-0.5c0-0.1,0-0.2,0-0.4c0.1,0,0.1,0,0.2,0c1.6-2.9,3.2-5.7,5-8.5
	c0.2-0.4,0.8-0.6,1.3-0.8c0,0,0-0.1,0-0.1c0,0,0,0,0,0c-0.2-0.4-0.3-0.8-0.6-1.1c-1.8-2.1-3-2.2-4.5,0c-1.6,2.4-3.9,4.4-4.7,7.4
	c-0.1,0.3-0.6,0.6-1.3,1.2c0-0.8-0.1-1.4,0-1.8c0.6-1.5,0.8-3,0.5-4.7c-0.3-1.3,0.2-2.9,0.8-4.2c1.9-4.4,3-8.9,4-13.5
	c1-4.5,1.6-9,0.6-13.5c-0.3-1.4-0.1-2.9-0.3-4.4c-0.2-2.2-0.7-3.1-2.5-4.9c-0.2,0.4-0.7,0.7-0.6,1c0.4,3.2-0.4,6.3-0.4,9.5
	c0,2.7-1,5.4,0.4,8.1c0.5,1.1-0.2,2.9-0.3,4.3c-0.7,0.3-1.3,0.6-2.1,1.1c0.2,1.1,0.5,2.2,0.7,3.3c0.1,0.7,0.3,1.8-0.1,2.1
	c-1.9,1.6-0.9,3.9-1.5,5.7c-0.7,2.1-1.4,4.2-2.2,6.2c-0.8,2-2.3,3.7-2.8,5.9c-0.1,0.7-0.8,1.2-1.2,1.8c-0.3,0.3-0.7,0.4-1.1,0.6
	c-1.1-0.6-0.8-1.6-0.6-2.3c0.4-1.6,0.9-3.1,1.3-4.7c0.2-1,0.6-2.2,0.3-3c-0.9-2.1,0-3.8,0.7-5.5c1.4-3.2,1.9-6.4,2.1-9.8
	c0.4-5.7,0.7-11.5,3-16.9c0.8-2,0.5-4.1,0.1-6.1c-0.1-0.3-0.6-0.7-1-0.7c-0.3,0-0.7,0.4-1,0.7c-0.2,0.2-0.2,0.6-0.2,0.9
	c-0.1,4.3-1.6,8.3-2.2,12.5c-0.1,0.7-0.6,1.3-0.9,2c-1.3,2.2-2.2,4.5-2.4,7c-0.3,3.3-0.9,6.7-1.2,10c-0.1,1.7-0.9,3.5-2,4.8
	c-1.8,2.1-2.8,4.4-3.1,7.1c-0.1,0.8-0.7,1.6-1.1,2.3c-0.4,0.6-0.7,0.5-2.3-0.3c1.1-4.2,2.1-8.4,1.9-12.7c-0.8-1-1.5-0.5-2.2-0.4
	c-1.8,0.3-2.1,0.7-2.3,2.1c-0.1,1.3,0,2.7-0.1,4c-0.2,1.6-0.6,3.2-2.6,3.7c-0.7-0.8,0.4-1.1,0.4-1.7c0.1-0.7,0.1-1.4,0.1-2.1
	c0-0.7-0.1-1.5-0.2-2.2c-0.1-0.7,0-1.5-0.1-2.2c-0.8-3.8,0.4-7.2,1.5-10.7c1.2-4.1,2.6-8.1,3.7-12.2c0.6-2.3,0.9-4.6,1.1-7
	c0.2-2.7,0.6-5.2,1.7-7.7c0.4-0.9,0.5-1.9,0.8-2.9c-1.1-0.4-1.5,0.4-1.9,0.8c-0.9,1.1-1.9,2.3-2.4,3.6c-1.4,4-2.6,8.1-4,12.1
	c-0.7,2.1-1.4,4.1-2.1,6.2c-0.2,0.5-0.3,1.2-0.2,1.7c0.1,4.6-1.3,9-2.5,13.3c-0.3,1.1-0.3,2.3-0.5,3.5c-0.2,1-0.4,2-0.6,2.9
	c-1,0.2-1.3-0.4-1.3-1c-0.2-2.8,0-5.6-1.2-8.2c-0.2-0.5-0.3-1.2-0.1-1.7c0.7-1.9,1.3-4,2.3-5.7c2.6-4.4,4-9.2,4.4-14.2
	c0.5-6,2.3-11.5,5.4-16.6c0.1-0.2,0-0.6,0-0.9c-0.9-0.6-1.4,0.2-1.8,0.6c-1.5,1.8-3.1,3.5-4.3,5.5c-1.3,2.2-2.3,4.7-3.4,7.1
	c-0.6,1.3-0.9,2.8-1.3,4.2c-0.1,0.4-0.4,0.9-0.2,1.3c0.8,2.2,0.4,4.3-0.9,6.2c0.2,3.4-1.8,6.1-2.5,9.3c-0.8,3.5-2,10.4-1.9,13.8
	c0,0.5,0,0.5-1.1,1.9c-0.3-0.6-0.6-1.1-0.7-1.6c-0.6-3.4-1.7-6.8-0.5-10.4c0.5-1.5,0.7-3.2,0.7-4.8c-0.1-4.5,1-8.7,2.5-12.9
	c1.1-3,1.8-6.2,2.7-9.3c0.4-1.4,0.6-2.9,1.9-3.8c-0.8,0.2-1.6,0-2.3,0.9c-1.3,1.8-2.7,3.5-3.3,5.7c-0.3,1.1-0.7,2.3-1.5,3.2
	c-1,1.1-1.3,2.5-2,3.7c-0.7,1.3-0.3,3.2-2,4c-0.4,1.7-0.8,3.4-1,5.1c-0.4,4.2-0.7,8.5-1.1,12.7c0,0.4-0.2,0.7-0.5,1.7
	c-0.8-4.1-1.6-7.5-2.1-11c-0.2-1.4-0.2-3,0.3-4.3c2.9-7.3,4.3-15,6.6-22.4c1.3-4.3,3.7-8.2,5.9-12.1c-1-0.5-1.1,0.6-1.6,0.9
	c-0.5,0.3-1,0.7-1.3,1.1c-1.3,1.6-2.5,3.2-3.9,4.8c-2.1,2.5-3.7,5.2-4.7,8.3c-1.1,3.6-2.5,7.2-3.6,10.9c-0.5,1.7-0.4,3.5-0.5,5.2
	c-0.3,2.9-0.6,5.8-0.9,8.7c-0.5-0.2-1-0.2-1-0.3c-0.8-1.9-1.6-3.7-0.9-5.9c0.5-1.7,0.7-3.5,0.9-5.2c0.4-2.6,0.7-5.2,1.1-7.8
	c0.6-3.6,1.4-7.2,2.9-10.6c0.2-0.3,0-0.8,0-1.3c-0.4,0.2-0.8,0.2-0.9,0.4c-0.8,1.5-1.7,3.1-2.4,4.7c-1.2,2.7-2.4,5.4-3.5,8.1
	c-1.1,2.9-1.2,6-1.5,9.1c-0.4,4.1-0.7,8.2-1.1,12.2c0,0.1-0.2,0.1-0.6,0.3c-0.7-3.6-1.2-7.1-0.7-10.7c0.5-3.8,1-7.6,0.6-11.4
	c-0.1-0.8,0.3-1.7,0.8-2.5c2.9-5,5.7-10,8.8-14.8c3-4.7,6.2-9.3,9.3-14c0.4-0.6,0.7-1.2,1-1.8c-0.8-1-1.7-0.8-2-0.2
	c-1.4,2.6-3.9,3.9-6,5.8c-2.1,1.9-4,3.8-4.8,6.7c-0.3,1.2-1.4,2.2-2.2,3.3l0,0c-0.1,0.3-0.2,0.6-0.4,0.8c-2.4,2.6-3.4,6-4.9,9.1
	c-0.7,1.4-1,3-2.3,4.2c-0.5,0.4-0.7,1.3-0.7,2c-0.2,2.3-0.4,4.7-0.4,7c0,1.7-0.6,3.1-1.2,5.2c-0.7-0.9-1.3-1.2-1.3-1.6
	c-0.1-1,0.2-2,0.2-3.1c0-2,1-4,0.2-6.1c-0.2-0.5-0.1-1.2,0.1-1.7c0.9-2.1,1.4-4.1,1.2-6.4c-0.2-1.6,0.6-3.1,1.6-4.5
	c1-1.4,2-2.8,2.6-4.6c0.3-1.2,1.3-2.3,2.2-3.2c2.5-2.7,4.9-5.4,7-8.5c1.9-2.8,4.1-5.3,7.2-7c2-1.1,3.8-2.7,5.5-4.4
	c-0.9-1.2-2-0.9-2.9-0.6c-2.9,1.1-5.2,3.3-8.3,3.9c-1,1.2-2.4,2.1-3.2,3.5c-1.2,2.1-2.6,4.3-4.2,6.1c-2.1,2.4-3.4,5.2-4.5,8
	c-1,2.6-2,5.1-3.6,7.4c-1.1,1.6-1.8,3.4-2.7,5.1c-0.3,0.6-0.7,1.2-1.4,2.2c-0.5-1-1-1.7-0.9-2.2c0.4-2.4,0.4-5,1.4-7.3
	c0.5-1.1,0.6-2.3,0.9-3.4c0.1-0.6,0.1-1.2,0.4-1.7c1.9-3.8,3.9-7.6,5.8-11.4c0.2-0.4,0.4-0.9,0.7-1.1c2.8-1.5,4.5-4.2,6.7-6.4
	c2.5-2.3,5.4-4,8.4-5.7c0.3-0.1,0.7-0.2,0.8-0.4c0.2-0.3,0.3-0.8,0.2-1.2c0-0.2-0.5-0.4-0.7-0.4c-0.7,0.1-1.4,0.2-2.1,0.5
	c-0.8,0.3-1.6,1.1-2.4,1.1c-2.7-0.1-4.2,1.7-5.9,3.3c-2.4,2.2-4.4,4.7-7.3,6.4c-0.6,0.3-1.3,1-1.5,1.6c-0.7,2.2-2.3,3.8-3.5,5.6
	c-1.9,2.7-3,5.7-3.4,8.9c-0.1,0.9-0.2,1.8-0.5,2.6c-0.2,0.4-0.6,0.9-1.1,1.1c-0.6,0.2-1.2-0.6-1.2-1.5c0.3-3.2,0.8-6.4,2.1-9.5
	c2.6-6.2,5.9-11.9,11-16.3c2.7-2.3,5.5-4.5,8.3-6.6c1.3-1,2.8-1.4,4.6-1.1c2.6,0.4,5-0.5,7.3-1.3c0.6-0.2,1-1,1.6-1.8
	c-0.7-0.5-1.3-0.9-1.9-1.3c0.1-0.2,0.2-0.6,0.4-0.7c1.4-0.5,2.8-0.8,4.2-1.3c1.9-0.7,3.9-1.4,5.8-2.1c2.6-1,5.4-1.5,8.2-1.6
	c3.4-0.1,6.8-0.4,10.1-0.6c3.1-0.2,6.1,0.1,8.9,1.7c1.4,0.8,2.4,1.6,2.8,3.1c0.5,1.7,0.9,3.4,1.4,5.1c0.1,0.5,0.5,0.9,1,1.9
	c0.8-3.4-0.3-6.1-0.5-8.7c0.4-0.2,0.7-0.6,0.8-0.5c2.3,0.7,4.9,0.5,7.4,1.9c-0.8,0.8-1.2,1.7-1.9,2c-1.5,0.7-2.2,1.8-2.8,3.2
	c-0.8,1.7-1.7,3.4-3.2,4.7c-0.4,0.4-0.9,0.8-1.4,1.1c-2.3,1.2-4.2,0.1-4.3-2.5c0-1,0.2-2.1,0.2-3.1c0-1.5-0.1-3-1.9-4.1
	c0,0.7-0.1,1.2-0.1,1.6c0.3,1.6,0.6,3.2,0.9,4.8c0.3,1.6,0,2.8-0.9,3.1c-1.1,0.4-3.2-0.8-3.5-2c-0.3-1.1-0.2-2.4-0.5-3.5
	c-0.4-1.4-1-2.7-1.6-4c-0.2-0.3-0.9-0.3-1.9-0.7c0.7,3.1,2.2,5.5,2.5,8.5c-0.7-0.2-1.2-0.1-1.4-0.4c-1.1-1.2-1.8-2.6-2-4.3
	c-0.1-1-0.6-2-1.2-2.8c-0.6-0.8-1.5-1-2.5,0c0.9,1.7,3.6,2.9,2.3,5.6c-0.9,1.2-2.8,0.1-3.9,1.7c1,0.3,1.8,0.7,3,1.1
	c-1.6,2.6-4.8,2.5-6.5,4.4c0.3,0.9,0.9,0.4,1.3,0.2c0.7-0.3,1.3-0.7,2-1c3.9-1.9,8-2.8,12.3-1.5c2.1,0.6,4.3,0.9,6.3,1.2
	c2.1,1.8,0.3,4.1,1.1,6c2.3-1.2,2.6-2.2,2-6.3c0.3-0.2,0.5-0.7,0.9-0.8c1.7-0.5,2.9-1.5,2.9-3.4c0-1.5,0.9-2.4,1.7-3.5
	c0.2-0.2,0.4-0.5,0.6-0.7c1.6-1.5,3.2-3,5-4.7c1.3,0.4,2.6,0.9,4.4,1.5c-0.8,0.7-1.2,1.2-1.7,1.6c-1.8,1.5-3.7,2.9-5.8,4.5
	c-0.3-0.4-0.8-0.9-1.2-1.4c-2.6,1.3-1,3.6-1.5,5.3c1.7,1.2,3.2,2.3,5.2,3.8c-1.4,0.3-2.2,0.5-3.2,0.7c0.1,0.9,0.1,1.9,0.4,2.9
	c0.3,1.1,1.4,0.8,2.2,1.1c0.6,0.2,1.2,0.8,1.6,1.3c0.5,0.5,0.8,1.1,1.3,1.8c1.4-1.3,0.2-2.9,0.7-3.8c1-1.7-1.1-2.2-0.9-3.6
	c6.9-1.6,13.2-0.2,19.4,3.6c-1.8,1.2-3.1-0.5-4.9,0.1c0.5,0.5,0.8,1,1.2,1.2c1.2,0.6,2.3,1.3,3.6,1.7c3.1,0.9,5.1,3.4,7.8,4.9
	c0.7,0.4,1.1,1.4,1.6,2.1c1.7,2.2,3.3,4.5,5,6.7c2.4,3,3.8,6.2,3.6,10.7c-1.6-1.8-1.8-3.6-2.8-5c-0.9-1.4-1.8-2.7-2.7-4.1
	c-1-1.5-1.9-3-2.9-4.5c-0.9-1.4-1.8-2.7-3-4.4c-2-0.6-4.4-1.3-6.8-2c0.8,0.7,1.5,1.5,2.4,2c2.4,1.6,4.3,3.7,5.4,6.3
	c1.6,3.9,4.2,7,6.6,10.3c0.2,0.2,0.3,0.5,0.6,1.1c-0.3,0.6-0.7,1.3-1,2.1c-0.1,0.5-0.1,1.2,0.1,1.6c0.4,0.7,1.2,0.7,1.9,0.3
	c0.4-0.2,0.7-0.5,1-0.7C378.1,250.6,378.1,250.7,377.7,254.6z M338.5,216.5c0,0.2-0.1,0.3-0.1,0.6c-0.1-0.3-0.1-0.4-0.1-0.5
	C338.3,216.6,338.4,216.6,338.5,216.5z M258.3,187.6c0,0.1,0.1,0.3,0.1,0.4c-0.1-0.1-0.2-0.2-0.2-0.3L258.3,187.6z M359.5,225.2
	c0.1,0.1,0.1,0.1,0.2,0.2c-0.1,0-0.2-0.1-0.3-0.1L359.5,225.2L359.5,225.2z M292.8,245.5c0,0-0.1,0-0.1,0
	C292.7,245.5,292.7,245.5,292.8,245.5L292.8,245.5z M308.2,330.3l0.2-0.1l-0.1,0.4L308.2,330.3z M318.3,334.1
	c-0.1,0.1-0.2,0.1-0.3,0.2c0-0.1,0.1-0.2,0.1-0.3C318.1,334,318.2,334,318.3,334.1z M235.9,307.4
	C235.9,307.4,235.9,307.4,235.9,307.4C235.9,307.4,235.9,307.3,235.9,307.4C236,307.3,235.9,307.4,235.9,307.4z M338.4,243.7
	c1.7,3.7,2.4,7.5,1.6,11.5c0,0.1,0,0.3,0,0.4c0.3,5.4-2.2,10.2-3.3,15.4c-0.1,0.3-0.3,0.5-0.5,0.7c-0.2,0.1-0.5,0.3-0.8,0.2
	c-0.2-0.1-0.6-0.3-0.6-0.5c-0.1-0.6-0.1-1.2,0-1.7c1.3-4.7,1.8-9.4,0.6-14.2c-0.3-1.2,0.6-2.2,1.4-3.1c0,0,0,0,0,0
	c-0.2,0.3-0.3,0.7-0.4,1c0,0,0.1,0,0.1,0.1c0.1-0.4,0.2-0.7,0.3-1.1c0,0,0,0,0,0c0,0,0,0,0,0c0,0,0,0,0,0c-1.5-1.7-2.1-3.8-2.3-6
	c-0.3-3.2-0.5-6.4-0.7-9.6c-0.1-1.3-0.3-2.7,1.2-3.9c1,2.2,1.8,4.3,2.2,6.6C337.5,240.9,337.8,242.4,338.4,243.7z M314.4,246.8
	c0.1,7-0.5,13.8-4.3,19.9c-1.9,3-3.1,6.3-3.8,9.9c-1.4-1.5-1.4-3.1-0.7-4.8c1.7-4.1,2.5-8.3,2.7-12.8c0.2-4.5,1.4-8.9,4-12.8
	c0.2-0.3,0.7-0.5,1.2-0.9C313.9,245.9,314.4,246.4,314.4,246.8z M345.5,227.7c0.5,0.7,0.8,1.6,1,2.4c0.5,2.9,1.9,5.4,3.2,8
	c0.7,1.5,1.6,2.7,2.6,4c2.4,2.8,2.8,6.2,2,10c-2.6-0.3-3.5-1.3-3.9-3.1c-0.9-3.8-2.1-7.6-3.1-11.4c-1.9-2-1.7-5.1-3.9-7.2
	c-1.4-1.3-2-3.5-2.9-5.3c-0.1-0.3,0.3-0.8,0.5-1.3C343.2,224.3,344.5,225.9,345.5,227.7z M354.2,256.9c0.8,1.3,0.7,2.5,0.6,3.8
	c-0.1,0.8-0.4,1.5-0.7,2.3c-0.5-0.1-0.8-0.2-1.1-0.3c-0.6-0.4-1.2-0.8-1.7-1.1C352,259.4,351.9,257.6,354.2,256.9z M334.1,275.7
	c0.5,1.2,0.7,2.5-0.1,3.7c-0.2,0.2-0.9,0.4-1.1,0.3c-1-0.7-0.8-1.8-0.7-2.8c0.1-0.8,0.5-1.4,1.4-1.3
	C333.7,275.6,333.9,275.7,334.1,275.7z M289.2,224.4c-1.8,3.5-3.3,5-6.1,5.8C285.1,228.1,286.6,226.1,289.2,224.4z M306.2,217.6
	c0.5-2.3,0.5-2.3,3.9-4.2C308.9,215.2,307.6,216.3,306.2,217.6z M292.7,245.4C292.8,245.5,292.8,245.5,292.7,245.4
	C292.8,245.5,292.7,245.5,292.7,245.4C292.7,245.5,292.7,245.5,292.7,245.4z M294.3,241.6c-0.6,1.3-1.1,2.6-1.5,3.8
	C290.8,243.1,290.9,243,294.3,241.6z M331,218.5c0.1-1.3,0.1-2.2,0.2-3.1c0.9-0.2,1.3,0.1,1.3,0.8C332.5,217,332.7,218,331,218.5z
	 M329.1,217.8c0.4,1.7-0.5,2.7-1.5,4C327.3,219.7,327.3,219.7,329.1,217.8z M305.5,203.7C305.5,203.7,305.5,203.7,305.5,203.7
	C305.6,203.7,305.6,203.7,305.5,203.7L305.5,203.7z M305.6,203.7c-0.3-0.5-0.7-0.9-1-1.3c0.4-0.7,1-0.8,1.4-0.4
	c0.6,0.5,1.1,1.2,1.7,1.9C306.8,204.9,306.2,204.1,305.6,203.7z M321.4,215.8c-0.5,0.4-1,0.9-1.6,1.4
	C319.4,215.7,320.4,215.6,321.4,215.8z M302.9,218.7c0,0.1,0.1,0.3,0.1,0.4c-0.5,0.2-1,0.4-1.5,0.6c0-0.2-0.1-0.5-0.1-0.7
	C301.9,218.9,302.4,218.8,302.9,218.7z M279.4,235.6c0.1,0,0.2,0,0.7,0c-0.5,0.2-0.6,0.3-0.7,0.3
	C279.4,235.8,279.4,235.7,279.4,235.6z M294,219.5c0,0,0.4,0.3,0.5,0.4c-0.3,0.3-0.5,0.7-0.8,1c-0.3-0.2-0.5-0.3-0.7-0.5
	C293.4,220.1,293.7,219.8,294,219.5z M294.3,225.4c0.1,0,0.2,0.1,0.3,0.1c-0.1,0.1-0.3,0.1-0.4,0.2
	C294.2,225.6,294.2,225.5,294.3,225.4z M271.1,236.8c0-0.2,0.1-0.5,0.1-0.7c0-0.1,0-0.3,0-0.4c0.1,0.1,0.3,0.3,0.2,0.4
	C271.4,236.3,271.2,236.5,271.1,236.8C271.1,236.8,271.1,236.8,271.1,236.8z M359.5,225.2C359.5,225.2,359.5,225.3,359.5,225.2
	c-0.1,0.1-0.1,0.1-0.1,0.1c-0.1,0-0.2-0.1-0.2-0.1C359.3,225.3,359.4,225.2,359.5,225.2z M358.7,225.1c0.2,0.1,0.3,0.1,0.5,0.2
	c-0.2,0-0.4,0-0.7,0C358.6,225.2,358.7,225.1,358.7,225.1z M214.7,308.8c-0.9,1.3-2.5,0.2-3.3,1.2c-4.4-4.1-8.7-7.8-12.8-11.7
	c-1.1-1.1-2-2.5-2.9-3.8c-0.2-0.3,0.3-0.9,0.6-1.6c4.6,2.5,8.7,5.2,12.4,8.6c1.3,1.2,2.7,2.3,3.9,3.5
	C213.7,306,214.8,307.1,214.7,308.8z M228.3,295.6c-2,1-3.3,1.1-4.2-0.3c-1.4-2.1-3.2-3.2-5.7-3.5c-0.6-0.1-1.2-0.8-1.8-1.2
	c-2.1-1.8-4.2-3.6-6.3-5.5c0.2-1.3,0.4-2.4,0.7-3.9c5,3.8,9.7,7.2,14.4,10.8C226.6,292.9,227.7,294,228.3,295.6z M223.4,299.8
	c0.2,0.3,0.3,0.8,0.5,1.4c-1,0.4-1.9,0.7-2.5,1c-1.7-0.4-1.1-2.5-2.9-2.7c-1.1-0.1-2.1-1.4-3.2-2.2c-1.7-1.2-3.3-2.4-4.9-3.4
	c-0.3-1.6-0.5-2.9-0.7-4.3c3.1,0.9,5.5,3.1,8.1,4.7C220.1,295.7,222,297.5,223.4,299.8z M209.7,289.4c0,0.1,0,0.1,0,0.2
	c0,0-0.1,0-0.1,0L209.7,289.4z M216.9,301.4c0.2,0.5,0.3,1,0.5,1.5c-0.5,0-1.2,0.2-1.6,0c-1.4-0.8-2.7-1.7-4-2.6
	c-0.8-0.8-1.6-1.7-2.4-2.5c-0.5-0.5-1-1.2-1.6-1.5c-0.4-0.2-1.1,0.5-1.5,0.3c-0.9-0.3-1.9-0.8-2.7-1.5c-1.6-1.3-3.1-2.7-4.6-4.1
	c0.2-0.9,0.4-1.7,0.6-2.6c0.4,0,0.7,0,1,0.1c5.8,3.3,10.9,7.5,15.7,12.1C216.5,301,216.8,301.1,216.9,301.4z M222.6,275.5
	c0,0,0,0.1,0,0.1C222.6,275.6,222.5,275.6,222.6,275.5L222.6,275.5z M239.5,286.7c1.6,1,3.5,1.6,4.6,3.3c-1.2,1.1-2.3,1.4-3.4,0.7
	c-1.1-0.7-2.3-1.3-3.2-2.2c-1.9-1.9-4.4-2.8-6.6-4.4c-1.8-1.3-3.8-2.2-5.5-3.6c-1.3-1.1-2-2.8-3-4.2c-0.1-0.1,0.1-0.4,0.2-0.7
	c2.7,2,5.4,4,8.2,5.9C233.6,283.3,236.6,285,239.5,286.7z M226.6,288.4l-0.1-0.1C226.5,288.3,226.5,288.3,226.6,288.4
	C226.5,288.4,226.6,288.4,226.6,288.4z M215.5,277.2C215.5,277.2,215.5,277.3,215.5,277.2C215.5,277.3,215.5,277.3,215.5,277.2
	L215.5,277.2z M235.6,291.6c-1.4,0.5-2.6,0.8-3.8,1.2c0.3-2.6-1.8-3-3.5-3.7l0.1,0.1c0,0-0.1,0-0.1,0c0,0,0,0,0-0.1
	c-0.6-0.3-1.1-0.6-1.7-0.9c-0.6-0.8-1.1-1.8-2-2.2c-3.6-1.6-6-4.6-9-7c-0.7-0.5-0.5-1.2-0.1-1.9c5.2,3.5,10.4,7.1,15.5,10.6
	C232.5,289,234.2,290,235.6,291.6z M187.6,268.8c-1.2,1.1-1.7,1.6-2.3,2.1c-1.3,1.1-2.2,2.3-2.4,4c-0.1,2.1-1.3,3.5-3.4,4.1
	c-0.7,0.2-1.4,0.5-2,0.9c-1.3,0.8-1.6,2.7-0.4,3.7c1.3,1.1,2.2,2.2,2.6,3.8c-1.2,0.6-1.7-0.5-2.4-0.7c-0.7-0.2-1.3-0.4-2-0.6
	c-0.6-2.7-0.2-5.1,1-7.7c0.6-0.3,1.4-0.6,2.2-1c1.1-0.5,1.8-1.3,2.4-2.4c0.7-1.6,1.6-3.1,2.6-4.6
	C184.2,269.4,185.2,268.6,187.6,268.8z M222.5,275.6c0,0,0.1,0,0.1-0.1C222.6,275.5,222.5,275.6,222.5,275.6
	C222.5,275.6,222.5,275.6,222.5,275.6z M212,267c3.5,2.8,7,5.7,10.4,8.5c-0.8,0.4-1.6,0.6-2.3,0c-1.5-1.1-3-2.3-4.5-3.5
	c-1.6-1.3-3.1-2.6-4.7-4c-0.7-0.6-1.4-0.9-2.4-0.7c-1.5,0.4-2.5-0.5-3.5-1.5c-0.2-0.2-0.3-0.8-0.2-1.2c0.1-0.3,0.6-0.7,1-0.8
	c0.5-0.1,1.2-0.1,1.7,0.2C209.1,265.1,210.7,265.9,212,267z M209.6,289.3C209.6,289.3,209.6,289.4,209.6,289.3c0.1,0,0,0.2,0,0.2
	C209.6,289.4,209.6,289.4,209.6,289.3z M209.6,289.3c-2.3-1.2-4.2-2.8-5.3-5.2c1.5,0.3,1.6,0.3,2.9,1.6
	C208.2,286.7,209.8,287.5,209.6,289.3z M177,291.9c-0.3-1.2-0.5-2.3-0.8-3.6C178.4,290.4,178.4,290.5,177,291.9z M198.4,265.4
	c0.1-0.2,0.4-0.3,0.8-0.6c0.3,0.4,0.7,0.8,1,1.2c0.1,0.1-0.2,0.6-0.4,0.6C199,266.8,198.2,266,198.4,265.4z M226.7,289.3
	c0.5,0,1,0,1.6,0c0,0.2,0,0.5,0.1,0.7c-0.3-0.1-0.7-0.1-1-0.3C227,289.7,226.9,289.5,226.7,289.3z M212,278.5
	c-0.1,0-0.3,0.1-0.4,0.1c-0.2-0.2-0.4-0.3-0.7-0.5c0.2-0.1,0.5-0.3,0.6-0.3C211.8,277.9,211.9,278.2,212,278.5z M209,291.2
	c-0.3,0.2-0.5,0.3-0.7,0.4c-0.1-0.3-0.3-0.6-0.4-1c0,0,0.3-0.2,0.3-0.2C208.4,290.7,208.7,291,209,291.2z M180.2,281.7
	c0.1,0.3,0.2,0.5,0.3,0.8c-0.2,0.1-0.5,0.2-0.7,0.3c-0.1-0.3-0.3-0.5-0.2-0.8C179.6,281.8,180,281.8,180.2,281.7z M209.4,274
	c-0.1,0-0.3-0.2-0.3-0.2c0.1-0.2,0.3-0.4,0.4-0.5c0.2,0.2,0.4,0.3,0.6,0.5C209.9,273.9,209.7,274,209.4,274z M214,277.1
	c0.4,0.1,0.8,0.1,1.2,0.1c-0.4,0.1-0.8,0.2-1.2,0.3C214,277.4,214,277.3,214,277.1z M215.2,277.3c0.1,0,0.2,0,0.3-0.1
	c0,0-0.1,0.1-0.1,0.1C215.3,277.3,215.3,277.3,215.2,277.3z M211.2,315.4C211.2,315.4,211.2,315.4,211.2,315.4
	C211.2,315.4,211.2,315.4,211.2,315.4L211.2,315.4c-0.3-0.1-0.6-0.2-0.9-0.3c0,0,0-0.1,0-0.1C210.6,315.2,210.9,315.3,211.2,315.4z
	 M211.9,300.3C211.9,300.3,211.9,300.3,211.9,300.3C211.9,300.3,211.9,300.3,211.9,300.3L211.9,300.3
	C211.9,300.3,211.8,300.3,211.9,300.3C211.8,300.3,211.8,300.3,211.9,300.3z M211.2,300c0.2,0.1,0.4,0.2,0.6,0.3
	c-0.3-0.1-0.6-0.1-0.9-0.2C211,300.1,211.2,300,211.2,300z M226.6,288.4c0,0-0.1,0-0.1,0.1c0-0.1,0-0.1,0-0.2L226.6,288.4z
	 M226.6,289.2C226.6,289.3,226.6,289.3,226.6,289.2c0,0.1-0.1,0.1-0.1,0.1c0-0.1,0-0.1,0-0.2C226.5,289.2,226.5,289.2,226.6,289.2z
	 M226.4,288.5c0,0.2,0,0.4,0,0.7c-0.2-0.1-0.4-0.2-0.6-0.4C226.1,288.7,226.3,288.6,226.4,288.5z M189.6,226
	c-0.2-2.8-0.4-5.5-0.6-8.3c0-0.4,0.1-0.8,0.2-1.2c4.2,3,5.8,7,4.5,11.3c-0.3,1.1-0.9,2.2-1.1,3.3c-0.2,0.9,0,1.9,0,3
	c-1.6-0.2-2.1-1.3-2.3-2.4C189.8,229.8,189.7,227.9,189.6,226z M164.4,240.9c-0.7-3.7-2.7-7.1-2.6-11c0-0.1,0.1-0.3,0.5-1
	c2.4,1.5,3.6,3.5,4.8,5.6c1.3,2.4,0.8,5,0.9,7.5C166.1,242.7,164.7,242.4,164.4,240.9z M214.1,238.6c-0.3-3.3-1.3-6.3-2.6-9.3
	c-1.2-2.7-0.2-5.4,0.7-8c1.1-0.1,1,0.6,1.1,1.1c0,0.1,0,0.3,0,0.4c-0.7,5.8,0.3,6.9,4.3,11.2c0.2,2.4-1.2,4-2.8,5.8
	C214.4,239.4,214.1,239,214.1,238.6z M184.6,231.9c-0.4-3.2-0.6-6.4,0.6-9.6c3.3,3.8,3.7,8.2,2.6,13.3
	C185.4,235.3,184.8,233.7,184.6,231.9z M177,222.6c0.7-2.1,1.4-4,2.1-5.9c1.6,0.5,1.8,2,2.1,3.2c0.5,2,0.7,4,1,6.1
	c0.2,1.3-0.7,1.8-1.9,2C178,226.7,177.8,224.4,177,222.6z M156.7,238.1c-0.8-2.3-1.5-4.6-2.2-7c1.8-0.6,3.4-0.2,4.3,1.7
	c0.8,1.7,1.5,3.5,2.1,5.2c0.2,0.5,0.3,1.2,0.1,1.7c-0.3,0.6-0.8,1.3-1.4,1.5c-0.5,0.1-1.4-0.3-1.8-0.8
	C157.2,239.8,157,238.9,156.7,238.1z M172.3,223.8c0-0.2,0.2-0.5,0.4-0.9c0.9-0.1,1.9-0.2,3-0.4c1.8,4,0.7,8.1,0.9,12.2
	c-1.5-0.8-2.3-1.9-2.7-3.3C173.2,228.9,172.8,226.4,172.3,223.8z M217.6,234.2C217.6,234.2,217.5,234.2,217.6,234.2
	C217.5,234.1,217.5,234.1,217.6,234.2L217.6,234.2c-0.2-1.3-0.4-2.8-0.7-4.8c1.7,1.3,3,2.3,4.2,3.3c1,0.9,1.8,2,1.8,3.4
	c0,0.5-0.2,1.3-0.6,1.5c-0.6,0.3-1.4,0.4-2,0.2c-0.6-0.2-1.1-0.9-1.5-1.4C218.3,235.7,218,234.9,217.6,234.2z M202.3,225.3
	c-1-3.8-2.1-7.5-3.2-11.6c1.7,0.3,2.2,1.4,2.5,2.5c0.6,2.7,1.5,5.3,2.8,7.8c0.1,0.2,0.2,0.6,0.2,0.8c-0.1,0.7-0.2,1.4-0.6,2
	C203.7,227.2,202.6,226.4,202.3,225.3z M166.1,229.6c-1.5-1.4-1.1-3.2,0.9-4.1c0.4-0.2,0.8-0.2,1.5-0.3c0.9,1.9,1.4,3.8,0.5,6.4
	C167.7,230.8,166.8,230.3,166.1,229.6z M217.2,218.7C217.2,218.7,217.2,218.7,217.2,218.7L217.2,218.7L217.2,218.7
	c0.2,2.7-0.1,5.3,0,8c-1.6-1.2-1.4-2.8-1.1-4.3C216.3,221.1,216.8,219.9,217.2,218.7z M198.6,237.4c0-0.1,0.2-0.4,0.5-0.7
	c0.2,0.4,0.4,0.7,0.6,1c-0.2,0.1-0.5,0.3-0.6,0.3C198.9,237.9,198.7,237.6,198.6,237.4z M187.1,213.5c-0.1-0.1-0.2-0.3-0.2-0.3
	c0.1-0.1,0.3-0.2,0.4-0.3c0,0.1,0.1,0.3,0.1,0.4C187.3,213.4,187.2,213.4,187.1,213.5z M184.6,217.9c-0.1,0-0.2,0.1-0.3,0.1
	c0.1-0.1,0.1-0.3,0.2-0.4C184.6,217.7,184.6,217.8,184.6,217.9z M258.2,187.5c-2.2-1.1-3.7-2.6-3.4-5.3
	C257.2,183.1,257.8,184,258.2,187.5z M258.2,187.5c0,0,0.1,0,0.1,0.1c0,0-0.1,0.1-0.1,0.1C258.2,187.7,258.2,187.6,258.2,187.5z
	 M233.4,177.6c-1.3,2.6-2.5,4.9-3.8,7.6c-0.8-1.4-0.1-2.3,0.3-3.3C231.5,178.6,231.5,178.6,233.4,177.6z M143.8,280.2
	c0.2,0,0.3,0.1,0.6,0.2c-0.2,0.1-0.3,0.1-0.4,0.2C143.8,280.4,143.8,280.3,143.8,280.2z M227.3,165.9c2-0.4,2.1-0.4,3.7,2.3
	c-0.7,0.3-1.2,0.6-1.9,0.8c-0.7,0.2-1.4,0.4-2.1,0.5c-0.7-1.1-1.8-1.7-2.9-2.7C225.1,166.5,226.2,166.1,227.3,165.9z M221.7,164.1
	c2.5-0.8,4.2-1.7,6.3-0.8C226.1,164.4,226.1,164.4,221.7,164.1z M253.3,297.9c0.7,1,1.3,1.6,1.5,2.4c0.1,0.6-0.2,1.6-0.7,1.9
	c-0.5,0.3-1.4,0-2-0.3c-0.7-0.3-1.1-1.1-0.7-1.9C251.8,299.4,252.5,298.8,253.3,297.9z M224.2,327.3c0.1,0.2,0,0.6-0.1,0.8
	c-0.5,0.9-1.6,1-2.6,0.4c-0.9-0.5-1.2-1.3-0.8-2.2c0.2-0.4,0.4-0.8,0.4-0.8C222.6,325.4,223.8,326.2,224.2,327.3z M236.5,304.9
	c0.2-0.6,0.8-1.3,1.4-1.5c1.1-0.4,2.3,0.7,2.5,2.3c-0.4,0.3-0.8,1-1.4,1.1C237.7,307,236.2,305.9,236.5,304.9z M241.5,302.3
	c0.1-0.9,0.9-1.6,1.7-1.5c1,0,2,1,1.7,2c-0.2,0.6-0.8,1-1.1,1.3C242.2,304,241.4,303.2,241.5,302.3z M248.5,303.1
	c-1.1,0-2.5-1.1-2.3-2.1c0.1-0.5,0.9-1,1.1-1.2c1.5-0.1,2.2,0.5,2.3,1.8C249.6,302.3,249.4,303,248.5,303.1z M234,323.4
	c-0.3,0.4-1,0.7-1.5,0.6c-1.2-0.1-1.9-1-1.6-2.1c0.1-0.3,0.5-0.6,0.7-1c0.5,0.1,1,0.2,1.3,0.4C234,321.9,234.5,322.8,234,323.4z
	 M246.2,316.1c0,0.4-0.5,1.1-0.9,1.2c-1,0.3-2.1-0.6-2.2-1.6c0-0.4,0.4-0.9,0.6-1.2C245,314.4,246.2,315.1,246.2,316.1z
	 M235.9,307.4c0.5,0.4,1.1,0.8,1.5,1.3c0.3,0.4,0.6,1.1,0.4,1.5c-0.1,0.4-0.8,0.6-1.3,0.7c-0.4,0.1-0.8,0-1.2-0.1c0,0,0,0,0,0
	c0,0,0,0,0,0c0,0,0,0,0,0C235.2,309.6,234.8,308.4,235.9,307.4z M235.9,307.4C235.9,307.4,235.9,307.4,235.9,307.4
	C235.9,307.4,236,307.3,235.9,307.4C235.9,307.4,235.9,307.4,235.9,307.4z M236.9,317.4c-0.1,0.4-0.7,0.9-1.1,1
	c-1.1,0.1-2-0.8-1.8-1.8c0.1-0.4,0.6-0.8,0.8-1.1C236,315.5,237.1,316.5,236.9,317.4z M250.6,311.5c-0.1,0.3-0.6,0.5-1.2,0.9
	c-0.5-0.7-0.8-1.4-1.2-2c0.4-0.3,0.9-0.8,1.3-0.7C250.3,309.8,251,310.8,250.6,311.5z M242.7,308.4c0-0.5,0.5-0.9,0.9-1.7
	c0.7,0.8,1.4,1.4,1.7,2c0.3,0.6-0.2,1.1-0.9,1.1C243.6,309.9,242.7,309.2,242.7,308.4z M242.4,313.2c-0.4,0.4-0.5,0.7-0.7,0.8
	c-0.8,0.4-1.8,0.1-2-0.8c-0.1-0.4,0.1-1.1,0.4-1.5c0.1-0.2,0.9-0.2,1.1,0C241.7,312.1,242,312.7,242.4,313.2z M240.4,320.7
	c-0.2,0.4-0.9,0.7-1.3,0.7c-0.8,0-1.3-0.7-1.2-1.5c0.1-0.4,0.6-0.8,0.8-1C240,319,240.8,319.9,240.4,320.7z M230.1,318.3
	c0.1-0.4,0.9-1,1.1-1c0.7,0.3,1.2,0.9,2,1.6c-0.7,0.5-1.1,1-1.6,1.1C230.8,320.1,229.9,319.1,230.1,318.3z M228.2,324.1
	c0,0.3-0.4,0.6-0.8,1.2c-0.5-0.6-0.9-1.1-1.2-1.6c-0.1-0.1,0.4-0.7,0.7-0.8C227.6,322.7,228.3,323.3,228.2,324.1z M235.5,313.7
	c-0.2-0.9-0.1-1.9-0.2-2.8c0.6,0.7,1.3,1.4,1.8,2.2c0.1,0.1-0.3,0.8-0.5,0.9C236.3,314.1,235.5,313.9,235.5,313.7z M157.7,253.1
	c0.2,0,0.5,0.2,0.7,0.4c-0.2,0.2-0.3,0.5-0.5,0.5c-0.2,0-0.5-0.3-0.7-0.4C157.4,253.4,157.6,253,157.7,253.1z M356.9,210.4
	c0-0.1,0.2-0.3,0.2-0.3c0.5,0.1,0.9,0.3,1.4,0.5c-0.3,0.4-0.5,0.7-0.6,0.7C357.4,211.3,356.9,211.1,356.9,210.4z"/>
</svg>
