<?xml version="1.0" encoding="utf-8"?>
<!-- Generator: Adobe Illustrator 27.7.0, SVG Export Plug-In . SVG Version: 6.00 Build 0)  -->
<svg version="1.1" id="Layer_1" xmlns="http://www.w3.org/2000/svg" xmlns:xlink="http://www.w3.org/1999/xlink" x="0px" y="0px"
	 viewBox="0 0 841.9 595.3" style="enable-background:new 0 0 841.9 595.3;" xml:space="preserve">
<style type="text/css">
	.st0{fill-rule:evenodd;clip-rule:evenodd;}
</style>
<path class="st0" d="M420.8,258.5l40.1-137.4l-23.3,141.4l95.2-106.2l-82.3,116.9l132.3-54.5l-125.3,69.7l143.7,8.5l-143.5,8
	L582.9,375l-132.2-54.4L533,437.5l-95.4-106.4l23.5,141.6l-40.3-137.9l-40.2,137.7L404.1,331l-95.5,106.3l82.5-116.8L258.7,375
	l125.4-70.2l-143.1-8l143-8.4l-125.3-69.6l132.4,54.2l-82.6-116l95.9,105.7l-23.8-141.6L420.8,258.5z"/>
</svg>
