<?xml version="1.0" encoding="utf-8"?>
<!-- Generator: Adobe Illustrator 27.0.0, SVG Export Plug-In . SVG Version: 6.00 Build 0)  -->
<svg version="1.1" id="Layer_1" xmlns="http://www.w3.org/2000/svg" xmlns:xlink="http://www.w3.org/1999/xlink" x="0px" y="0px"
	 viewBox="0 0 500 500" style="enable-background:new 0 0 500 500;" xml:space="preserve">
<style type="text/css">
	.st0{fill-rule:evenodd;clip-rule:evenodd;fill:#C1272D;}
</style>
<g>
	<path class="st0" d="M263.5,306.5h58.2c8.7,0,15.8-3.6,21.6-10.7c5.6-6.9,8.5-15.2,8.5-24.5c0-19-24.3-32.3-33.7-32.3h-31.9
		c-2.5,0-4.5-1.1-6-2.9c-1.6-2-2.5-4.2-2.5-6.9c0-3.1,0.9-5.8,2.5-8c1.8-2.2,4-3.6,6.7-3.6h59.8v-23.9h-60.9
		c-10.9,0-19.4,3.3-25.4,9.8c-5.4,6-8,14.1-8,23.6c0,9.4,2.7,17.6,8,24.3c6,7.4,13.2,11.2,21.9,11.2H319c2.2,0,4,0.7,5.4,2.4
		c1.6,1.8,2.2,4,2.2,6.5c0,2.9-1.1,5.6-2.9,7.8c-2,2-4.2,3.1-7.1,3.1h-58.9l-0.9-1.6l-22.1-70.9l-1.1-2.2
		c-5.4-10.9-14.3-16.3-26.5-16.3c-6.7,0-12.7,1.6-18.1,4.9c-5.6,3.3-9.1,8.3-11.2,14.5l-29.7,95.5l27,0.2l27.2-85
		c0.7-2.7,2.2-4,4.2-4c1.1,0,2,0.4,2.7,1.1c0.7,0.9,1.1,1.8,1.3,2.9l27.4,85L263.5,306.5L263.5,306.5L263.5,306.5z M62.7,228.4v77.9
		h-25v-86.3c0-11.2,2.7-19,8.5-23.6c4.5-3.3,11.2-5.1,20.5-5.1c7.6,0,14.1,2.2,19.9,6.5s9.6,10,11.6,17.2l16.3,57.3l2.7,7.8
		c0.2,1.6,1.1,2.7,2,3.6c1.1,0.9,2.2,1.3,3.6,0.9c2.2-0.2,3.3-1.6,3.3-3.6v-87h25.7v85.9c0,9.6-2.2,16.7-6.9,21.9
		c-4.5,5.1-11.2,7.8-20.1,7.8c-7.8,0-14.3-1.6-19.4-4.2c-6.2-3.1-10.3-8-12-14.5l-18.7-65.4l-1.3-4.2c-0.4-1.6-1.3-2.7-2.5-3.8
		c-1.1-0.9-2.5-1.1-3.8-0.9c-1.3,0.2-2.2,0.9-3.1,2.2c-0.7,1.2-1.1,2.6-1.1,4L62.7,228.4L62.7,228.4z M462,306.5l-29-96.6l-1.1-2.2
		c-5.4-10.9-14.3-16.3-26.5-16.3c-6.7,0-12.7,1.6-18.1,4.9c-5.6,3.3-9.1,8.3-11.2,14.5l-29.7,95.5l27,0.2l27.2-85
		c0.7-2.7,2.2-4,4.2-4c1.1,0,2,0.4,2.7,1.1c0.7,0.9,1.1,1.8,1.3,2.9l27.4,85L462,306.5L462,306.5L462,306.5z"/>
</g>
</svg>
